<svg width="141" height="140" viewBox="0 0 141 140" fill="none" xmlns="http://www.w3.org/2000/svg">
<g id="adjust">
<mask id="mask0_506_4804" style="mask-type:alpha" maskUnits="userSpaceOnUse" x="0" y="0" width="141" height="141">
<rect id="Bounding box" x="0.738281" y="0.0100098" width="140" height="140" fill="#D9D9D9"/>
</mask>
<g mask="url(#mask0_506_4804)">
<path id="adjust_2" d="M70.7616 80.7798C73.7677 80.7798 76.3101 79.7322 78.3887 77.6371C80.4683 75.5429 81.5081 72.9928 81.5081 69.9867C81.5081 66.9806 80.4605 64.4382 78.3654 62.3596C76.2712 60.28 73.7211 59.2402 70.715 59.2402C67.7088 59.2402 65.1665 60.2878 63.0879 62.3829C61.0083 64.4771 59.9685 67.0272 59.9685 70.0333C59.9685 73.0395 61.0161 75.5818 63.1112 77.6604C65.2054 79.74 67.7555 80.7798 70.7616 80.7798ZM70.7835 122.51C63.4908 122.51 56.6693 121.132 50.3187 118.377C43.9672 115.622 38.4114 111.867 33.6514 107.111C28.8914 102.355 25.1328 96.8025 22.3756 90.4529C19.6174 84.1024 18.2383 77.2783 18.2383 69.9808C18.2383 62.7329 19.6159 55.9186 22.3712 49.5379C25.1265 43.1572 28.8817 37.6029 33.6368 32.875C38.3929 28.1471 43.9458 24.4045 50.2954 21.6473C56.6459 18.8891 63.47 17.51 70.7675 17.51C78.0154 17.51 84.8297 18.8877 91.2104 21.6429C97.5911 24.3982 103.145 28.1374 107.873 32.8604C112.601 37.5835 116.344 43.1378 119.101 49.5233C121.859 55.9079 123.238 62.7217 123.238 69.9648C123.238 77.2574 121.861 84.079 119.105 90.4296C116.35 96.7811 112.611 102.331 107.888 107.078C103.165 111.826 97.6105 115.585 91.2249 118.355C84.8404 121.125 78.0265 122.51 70.7835 122.51ZM70.7864 117.574C84.0018 117.574 95.2252 112.955 104.456 103.716C113.687 94.4774 118.302 83.2259 118.302 69.9619C118.302 56.7465 113.693 45.5231 104.474 36.2919C95.2553 27.0616 84.0101 22.4465 70.7383 22.4465C57.5063 22.4465 46.2709 27.0558 37.0318 36.2744C27.7938 45.493 23.1747 56.7382 23.1747 70.01C23.1747 83.242 27.7938 94.4774 37.0318 103.716C46.2709 112.955 57.5224 117.574 70.7864 117.574Z" fill="#888F77"/>
</g>
</g>
</svg>
