<svg width="140" height="141" viewBox="0 0 140 141" fill="none" xmlns="http://www.w3.org/2000/svg">
<g id="radio">
<mask id="mask0_506_4259" style="mask-type:alpha" maskUnits="userSpaceOnUse" x="0" y="0" width="140" height="141">
<rect id="Bounding box" y="0.5" width="140" height="140" fill="#D9D9D9"/>
</mask>
<g mask="url(#mask0_506_4259)">
<path id="radio_2" d="M26.9237 123C24.2385 123 21.9965 122.101 20.1979 120.302C18.3993 118.503 17.5 116.262 17.5 113.576V50.7571C17.5 48.102 18.3434 45.7458 20.0302 43.6886C21.716 41.6323 23.7893 40.0918 26.25 39.0671L86.9167 14.4096L88.9131 19.5488L35.1794 41.3334H113.076C115.762 41.3334 118.003 42.2327 119.802 44.0313C121.601 45.8299 122.5 48.0718 122.5 50.7571V113.576C122.5 116.262 121.601 118.503 119.802 120.302C118.003 122.101 115.762 123 113.076 123H26.9237ZM26.9237 117.167H113.076C113.975 117.167 114.798 116.793 115.545 116.045C116.293 115.298 116.667 114.475 116.667 113.576V73.6413H23.3333V113.576C23.3333 114.475 23.7072 115.298 24.4548 116.045C25.2024 116.793 26.0254 117.167 26.9237 117.167ZM45.7698 107.743C49.1794 107.743 52.0883 106.539 54.4965 104.132C56.9047 101.724 58.1087 98.8145 58.1087 95.404C58.1087 91.9934 56.9047 89.0841 54.4965 86.6759C52.0883 84.2677 49.1794 83.0636 45.7698 83.0636C42.3592 83.0636 39.4499 84.2677 37.0417 86.6759C34.6335 89.0841 33.4294 91.9934 33.4294 95.404C33.4294 98.8145 34.6335 101.724 37.0417 104.132C39.4499 106.539 42.3592 107.743 45.7698 107.743ZM23.3333 67.8079H96.25V57.0382H102.083V67.8079H116.667V50.7571C116.667 49.8588 116.293 49.0358 115.545 48.2882C114.798 47.5405 113.975 47.1667 113.076 47.1667H26.9237C26.0254 47.1667 25.2024 47.5405 24.4548 48.2882C23.7072 49.0358 23.3333 49.8588 23.3333 50.7571V67.8079Z" fill="#888F77"/>
</g>
</g>
</svg>
