<svg width="127" height="39" viewBox="0 0 127 39" fill="none" xmlns="http://www.w3.org/2000/svg">
<g id="Group 2391">
<g id="Group">
<path id="Vector" d="M68.5684 13.9961C68.5747 11.1343 68.7623 8.26425 68.4434 5.41293C68.1433 2.72628 66.4675 0.987973 63.8058 0.396033C63.2577 0.275144 59.187 -0.108366 57.8343 0.439803C55.1164 1.13387 53.1947 2.68251 52.4506 5.46296C52.1963 6.41756 52.4464 6.74063 53.4114 6.83234C54.3077 6.91779 55.2081 6.96365 56.1002 7.08662C56.838 7.18875 57.2153 6.99075 57.4487 6.21539C57.9531 4.53753 59.7665 3.73508 61.4652 4.33118C62.7199 4.77097 63.6891 7.0762 63.1201 8.24966C62.9575 8.58523 62.6511 8.47476 62.3968 8.51228C60.8899 8.72696 59.3621 8.83743 57.876 9.15216C53.1759 10.1464 50.8061 13.7689 51.9712 18.1334C52.5256 20.2114 53.8825 21.5266 56.0272 21.956C58.7577 22.5021 61.2025 21.9226 63.1972 19.9446C63.8163 19.3319 64.0768 19.4653 64.4582 20.1135C64.8084 20.7075 65.319 21.1869 65.8401 21.6475C66.3132 22.0665 66.7322 22.0727 67.2032 21.6475C67.9994 20.9305 68.7831 20.1906 69.6398 19.5528C70.3505 19.0255 70.3505 18.5398 69.8169 17.9291C68.829 16.7974 68.5664 15.4676 68.5684 13.994V13.9961ZM63.1451 13.2645C63.1055 14.2545 63.0138 15.4176 62.3927 16.468C61.5298 17.9333 60.1104 18.5753 58.8535 18.0563C57.6634 17.5665 57.0548 15.9803 57.4592 14.4192C57.8802 12.7934 59.36 11.7909 61.6152 11.6033C62.6546 11.5171 63.1646 12.0702 63.1451 13.2624V13.2645Z" fill="#E8ECDF"/>
<path id="Vector_2" d="M17.7221 13.8501C17.7429 11.1948 17.7471 8.53727 17.6595 5.88397C17.5637 2.98263 15.8129 1.03381 12.9407 0.393932C12.428 0.279296 11.8569 0.364752 11.4087 0H8.49698C7.85711 0.437702 7.07341 0.375173 6.37309 0.612783C3.89903 1.4465 2.21283 2.99513 1.60422 5.59216C1.4208 6.37378 1.67717 6.77813 2.49838 6.83649C3.43006 6.9011 4.36591 6.95529 5.28925 7.09077C6.06044 7.20333 6.4106 6.92195 6.63362 6.19244C7.07341 4.74803 8.51157 3.93723 10.0623 4.16025C11.5338 4.37285 12.2341 5.28369 12.2675 7.03033C12.2716 7.20333 12.2445 7.37841 12.2737 7.54723C12.3884 8.22463 12.1695 8.481 11.4254 8.55603C9.5037 8.74987 7.56114 8.86659 5.71237 9.52106C2.66096 10.6007 1.03104 12.7371 0.874715 15.9136C0.716309 19.113 2.46712 21.4474 5.42473 21.9914C8.14057 22.4895 10.4979 21.7934 12.4655 19.8696C12.9261 19.4194 13.1783 19.361 13.5285 19.9717C13.8703 20.5678 14.3622 21.0618 14.8687 21.5412C15.4231 22.0664 15.8962 22.1185 16.4736 21.5683C17.2239 20.8555 17.9951 20.1551 18.8205 19.5319C19.4771 19.0359 19.525 18.569 19.0123 17.9875C17.9639 16.7973 17.7075 15.3863 17.72 13.8522L17.7221 13.8501ZM12.2862 12.6788C12.2591 12.8476 12.2821 13.0227 12.2821 13.1936C12.3029 14.2378 12.1799 15.2508 11.7026 16.2012C10.846 17.9124 9.18272 18.6795 7.82793 17.9812C6.57109 17.3309 6.11255 15.1507 6.92751 13.648C7.75706 12.1202 9.27026 11.8596 10.7835 11.6074C10.9189 11.5845 11.0669 11.6283 11.1961 11.5949C12.1674 11.3552 12.4217 11.8117 12.2842 12.6767L12.2862 12.6788Z" fill="#E8ECDF"/>
<path id="Vector_3" d="M126.024 8.51231C126.024 8.33723 125.985 5.0503 125.876 4.57299C125.345 2.23024 123.888 0.706623 121.739 0.364798C119.079 -0.0583137 117.128 0.846271 115.874 3.06396C115.703 3.3641 115.682 3.78513 115.242 3.98522C115.242 3.16192 115.221 2.40532 115.248 1.65081C115.273 0.935895 114.925 0.648263 114.246 0.650347C113.277 0.654515 112.305 0.660768 111.336 0.648263C110.565 0.637841 110.209 0.954654 110.209 1.76128C110.225 8.07252 110.225 14.3859 110.209 20.6971C110.206 21.5579 110.596 21.8768 111.405 21.8601C112.237 21.8435 113.068 21.8581 113.898 21.856C115.471 21.8539 115.561 21.7643 115.565 20.2386C115.576 16.5827 115.584 12.9268 115.596 9.27099C115.601 8.32681 115.824 7.42431 116.232 6.57808C116.732 5.5401 117.668 5.03987 118.762 5.17118C119.778 5.29207 120.349 5.89443 120.628 7.09291C120.795 7.80573 120.82 8.52482 120.82 9.25015C120.82 13.0436 120.824 16.8391 120.82 20.6325C120.82 21.1661 120.782 21.783 121.493 21.8122C122.839 21.8664 124.19 21.8205 125.538 21.7997C125.791 21.7955 126.005 21.6684 126.068 21.387C126.051 17.0934 126.037 12.8018 126.02 8.50814L126.024 8.51231Z" fill="#E8ECDF"/>
<path id="Vector_4" d="M40.5347 0.710617C39.1007 1.32757 38.1815 2.39681 37.5125 3.82039C35.5011 -1.09438 29.2587 -0.721295 27.2827 3.5536C27.2827 2.94915 27.2661 2.34262 27.2869 1.73817C27.3119 1.01076 27.0076 0.639751 26.2489 0.652256C25.2443 0.666846 24.2376 0.654341 23.233 0.656425C22.566 0.656425 22.2179 0.948226 22.2179 1.66106C22.2283 8.04734 22.2304 14.4336 22.2158 20.822C22.2158 21.6078 22.6077 21.8621 23.3017 21.8621C24.273 21.8621 25.2443 21.8245 26.2135 21.8746C27.191 21.9246 27.5891 21.5452 27.5745 20.5531C27.5287 17.0682 27.5162 13.5811 27.5245 10.0941C27.5266 8.89148 27.4953 7.67008 28.0435 6.54248C28.5271 5.54618 29.4066 5.07722 30.503 5.20227C31.5806 5.32525 32.16 5.97346 32.3976 6.97601C32.5831 7.75345 32.6144 8.5434 32.6144 9.34169C32.6081 13.1038 32.6352 16.8681 32.6039 20.6302C32.5977 21.5265 32.9395 21.8975 33.8212 21.8704C34.7216 21.8454 35.6241 21.8704 36.5245 21.8641C37.8022 21.8558 37.9418 21.7182 37.9418 20.4239C37.9418 17.0056 37.9252 13.5895 37.9314 10.1712C37.9335 9.10408 37.9106 8.02441 38.2503 6.99268C38.6234 5.86091 39.7343 5.13141 40.8974 5.22729C42.1188 5.32733 42.8149 6.03808 42.9629 7.41163C43.0254 7.99315 43.0088 8.583 43.0088 9.17077C43.0108 13.0038 43.0233 16.8347 42.9942 20.6657C42.9879 21.5036 43.2943 21.8829 44.1364 21.8704C45.1764 21.8537 46.2165 21.8579 47.2565 21.8704C47.9235 21.8766 48.3133 21.6161 48.3091 20.9033C48.2924 15.7259 48.3133 10.5485 48.2549 5.3711C48.2049 0.900287 43.5152 -0.567057 40.5305 0.718954L40.5347 0.710617Z" fill="#E8ECDF"/>
<path id="Vector_5" d="M91.8021 3.70584C90.2493 5.94229 89.7428 8.48096 89.7532 11.1509C89.7532 12.3265 89.8179 13.502 90.093 14.6421C90.2931 15.4738 90.5515 16.3033 90.8871 17.0912C93.432 23.0815 100.923 24.0777 104.981 18.9775C108.185 14.9527 108.083 7.20538 104.775 3.18685C101.367 -0.950474 94.8577 -0.700359 91.8021 3.70376V3.70584ZM101.079 15.9219C100.615 17.3246 99.6641 18.1688 98.549 18.1792C97.3401 18.1917 96.3855 17.4268 95.9936 15.8677C95.2308 12.8184 95.1682 9.72946 95.8706 6.65721C96.1166 5.58171 96.6731 4.65003 97.8757 4.37907C99.3994 4.03516 100.579 4.76675 101.048 6.30496C101.496 7.7723 101.521 9.29384 101.621 10.9821C101.607 12.5308 101.627 14.2565 101.077 15.924L101.079 15.9219Z" fill="#E8ECDF"/>
<path id="Vector_6" d="M85.8786 15.8594C84.0235 15.1632 82.0872 14.9152 79.9487 14.886C82.131 11.7908 84.1653 8.8353 86.2787 5.93813C87.1729 4.71257 87.6523 3.46199 87.5418 1.91961C87.473 0.946246 87.1687 0.589831 86.1766 0.602337C82.7479 0.646107 79.3193 0.606506 75.8906 0.62318C73.0768 0.635686 73.2832 0.214658 73.2832 3.22438C73.2832 4.83971 73.3186 4.87097 74.9964 4.87097C76.8119 4.87097 78.6294 4.87097 80.4219 4.87097C80.5032 5.292 80.2697 5.4379 80.1405 5.62549C78.0895 8.56643 76.1616 11.6074 73.9314 14.4066C72.3932 16.3388 72.5266 18.4231 72.587 20.5741C72.6037 21.1743 72.9747 21.512 73.6604 21.1806C77.9832 19.09 82.3207 19.1338 86.6706 21.1097C87.4501 21.464 87.8149 21.2389 87.8753 20.3698C87.9128 19.8195 87.8857 19.2672 87.8857 18.7149C87.8857 16.7994 87.7065 16.543 85.8744 15.8573L85.8786 15.8594Z" fill="#E8ECDF"/>
</g>
<g id="Group_2">
<path id="Vector_7" d="M78.027 28.5399C77.5893 28.6066 77.1495 28.7337 76.7368 28.9026C71.1009 31.2161 65.2336 32.6689 59.1933 33.315C48.5071 34.4572 38.144 33.0024 28.131 29.1047C25.3569 28.0251 22.6764 26.7495 20.069 25.3155C19.6271 25.0716 19.0664 24.4776 18.6246 25.1446C18.2035 25.7803 18.956 26.0804 19.3186 26.4389C19.7355 26.8516 20.1899 27.2268 20.6484 27.5936C29.6984 34.8324 40.0407 38.4299 51.7065 38.4945C53.5469 38.5674 55.4374 38.3486 57.3299 38.1172C64.4645 37.2439 71.1572 35.0929 77.2496 31.2349C77.7727 30.9035 78.2709 30.5241 78.7461 30.124C79.0942 29.8301 79.1775 29.4174 78.9858 28.9922C78.8003 28.5837 78.4126 28.4794 78.027 28.5378V28.5399Z" fill="#888F77"/>
<path id="Vector_8" d="M83.8505 24.0065C82.7062 23.6605 81.5474 23.5563 80.3656 23.5855C78.5397 23.5063 76.791 23.9044 75.0735 24.4609C74.2773 24.7193 73.5708 25.157 72.8954 25.6406C72.662 25.8073 72.4682 26.0283 72.6078 26.3388C72.735 26.6223 73.0184 26.5431 73.2477 26.5327C73.5582 26.5202 73.8667 26.466 74.1773 26.4451C76.1407 26.3076 78.0916 25.972 80.0738 26.2742C81.6703 26.5181 82.033 26.96 81.7933 28.5399C81.4661 30.7054 80.6073 32.7043 79.8487 34.7344C79.7382 35.0283 79.4422 35.3889 79.8257 35.6723C80.1905 35.9433 80.4927 35.6411 80.7303 35.4139C83.5837 32.6897 84.8364 29.2777 84.9739 25.4113C85.001 24.6735 84.5925 24.2254 83.8547 24.0023L83.8505 24.0065Z" fill="#888F77"/>
</g>
</g>
</svg>
