<svg width="12" height="12" viewBox="0 0 12 12" fill="none" xmlns="http://www.w3.org/2000/svg">
<path id="Vector 113" d="M0.750901 9.65532C0.360377 10.0458 0.360377 10.679 0.750901 11.0695C1.14143 11.4601 1.77459 11.4601 2.16511 11.0695L0.750901 9.65532ZM11.5581 1.26233C11.5581 0.710045 11.1104 0.262329 10.5581 0.26233L1.55811 0.26233C1.00582 0.26233 0.558105 0.710045 0.558105 1.26233C0.558105 1.81461 1.00582 2.26233 1.55811 2.26233L9.55811 2.26233L9.5581 10.2623C9.5581 10.8146 10.0058 11.2623 10.5581 11.2623C11.1104 11.2623 11.5581 10.8146 11.5581 10.2623L11.5581 1.26233ZM2.16511 11.0695L11.2652 1.96944L9.851 0.555223L0.750901 9.65532L2.16511 11.0695Z" fill="#616751"/>
</svg>
