<svg width="182" height="182" viewBox="0 0 182 182" fill="none" xmlns="http://www.w3.org/2000/svg">
<g id="guardian">
<mask id="mask0_506_4295" style="mask-type:alpha" maskUnits="userSpaceOnUse" x="0" y="0" width="182" height="182">
<rect id="Bounding box" x="0.0518494" y="0.791016" width="181.195" height="181.195" fill="#D9D9D9"/>
</mask>
<g mask="url(#mask0_506_4295)">
<path id="guardian_2" d="M90.6496 166.887C69.2773 166.887 51.3515 163.061 36.8723 155.409C22.3917 147.757 15.1515 138.371 15.1515 127.25C15.1515 119.729 18.6942 112.957 25.7797 106.932C32.8652 100.906 42.97 96.1507 56.0941 92.6665V100.448C45.844 103.343 37.716 107.175 31.7101 111.947C25.7042 116.72 22.7013 121.821 22.7013 127.25C22.7013 135.885 29.4477 143.391 42.9404 149.769C56.4332 156.148 72.3362 159.337 90.6496 159.337C108.963 159.337 124.866 156.148 138.359 149.769C151.851 143.391 158.598 135.885 158.598 127.25C158.598 121.821 155.595 116.72 149.589 111.947C143.583 107.175 135.455 103.343 125.205 100.448V92.6665C138.233 96.0538 148.314 100.784 155.448 106.858C162.581 112.932 166.148 119.729 166.148 127.25C166.148 138.371 158.907 147.757 144.427 155.409C129.948 163.061 112.022 166.887 90.6496 166.887ZM74.0985 136.106V54.3663H37.8009V46.8165H143.498V54.3663H107.201V136.106H99.6508V98.7932H81.6483V136.106H74.0985ZM90.6533 37.8133C87.6598 37.8133 85.096 36.7476 82.962 34.616C80.8279 32.4832 79.7608 29.9194 79.7608 26.9246C79.7608 23.8506 80.8266 21.2189 82.9582 19.0294C85.0898 16.84 87.6523 15.7452 90.6458 15.7452C93.6393 15.7452 96.2031 16.84 98.3372 19.0294C100.471 21.2189 101.538 23.8506 101.538 26.9246C101.538 29.9194 100.472 32.4832 98.3409 34.616C96.2094 36.7476 93.6468 37.8133 90.6533 37.8133Z" fill="#2E3224"/>
</g>
</g>
</svg>
