<svg width="182" height="182" viewBox="0 0 182 182" fill="none" xmlns="http://www.w3.org/2000/svg">
<g id="guardian">
<mask id="mask0_1391_1510" style="mask-type:alpha" maskUnits="userSpaceOnUse" x="0" y="0" width="182" height="182">
<rect id="Bounding box" x="0.083252" y="0.120117" width="181.195" height="181.195" fill="#D9D9D9"/>
</mask>
<g mask="url(#mask0_1391_1510)">
<path id="guardian_2" d="M90.681 166.216C69.3087 166.216 51.3829 162.39 36.9037 154.738C22.4231 147.087 15.1829 137.7 15.1829 126.579C15.1829 119.059 18.7256 112.286 25.8111 106.261C32.8966 100.235 43.0014 95.4799 56.1255 91.9956V99.7776C45.8754 102.672 37.7474 106.505 31.7415 111.276C25.7356 116.049 22.7327 121.15 22.7327 126.579C22.7327 135.214 29.4791 142.72 42.9718 149.099C56.4646 155.477 72.3676 158.666 90.681 158.666C108.994 158.666 124.897 155.477 138.39 149.099C151.883 142.72 158.629 135.214 158.629 126.579C158.629 121.15 155.626 116.049 149.62 111.276C143.615 106.505 135.487 102.672 125.236 99.7776V91.9956C138.265 95.383 148.346 100.114 155.479 106.187C162.612 112.261 166.179 119.059 166.179 126.579C166.179 137.7 158.939 147.087 144.458 154.738C129.979 162.39 112.053 166.216 90.681 166.216ZM74.1299 135.435V53.6955H37.8323V46.1456H143.53V53.6955H107.232V135.435H99.6822V98.1223H81.6797V135.435H74.1299ZM90.6847 37.1425C87.6912 37.1425 85.1274 36.0767 82.9934 33.9452C80.8593 31.8123 79.7922 29.2485 79.7922 26.2538C79.7922 23.1798 80.858 20.548 82.9896 18.3586C85.1212 16.1691 87.6837 15.0744 90.6772 15.0744C93.6707 15.0744 96.2345 16.1691 98.3686 18.3586C100.503 20.548 101.57 23.1798 101.57 26.2538C101.57 29.2485 100.504 31.8123 98.3723 33.9452C96.2408 36.0767 93.6782 37.1425 90.6847 37.1425Z" fill="#D2D8C5"/>
</g>
</g>
</svg>
