<svg width="505" height="513" viewBox="0 0 505 513" fill="none" xmlns="http://www.w3.org/2000/svg">
<path d="M78.8076 30.4258C75.4177 26.4606 71.0755 23.219 66.7635 20.8912C66.3159 15.3419 65.7268 9.55835 64.3832 4.35619C63.6493 1.51641 60.256 0.120432 57.6687 1.61441C52.8145 4.41403 48.876 7.69491 44.8761 10.9989C40.9788 9.83624 36.7366 8.87359 32.6929 8.32896C29.6086 7.91336 26.9042 10.3791 27.2452 13.3814C27.7729 17.9825 29.5101 22.389 31.0401 25.0014C28.4986 27.2391 25.451 31.6217 23.258 35.8877C21.9014 38.539 23.7492 41.6936 26.8005 41.9381C32.891 42.4267 40.1025 41.6718 44.1493 39.6595C46.3523 45.1104 49.5382 50.1307 53.3832 53.8737C55.5204 55.9626 59.1474 55.4395 60.6121 52.8634C63.0365 48.5899 65.0902 43.3835 65.3435 39.894C68.2059 39.2458 73.5442 37.7954 77.7147 35.6881C79.7322 34.6697 80.2711 32.1114 78.82 30.4138L78.8076 30.4258Z" fill="#737A62"/>
<path d="M469.945 460.855C466.198 456.469 461.4 452.889 456.631 450.32C456.146 444.198 455.484 437.804 454.005 432.051C453.192 428.906 449.449 427.369 446.578 429.027C441.219 432.121 436.859 435.747 432.438 439.395C428.129 438.115 423.451 437.046 418.982 436.444C415.57 435.985 412.592 438.713 412.964 442.033C413.542 447.122 415.465 451.983 417.148 454.878C414.346 457.342 410.972 462.193 408.551 466.905C407.055 469.833 409.091 473.32 412.458 473.596C419.193 474.134 427.149 473.297 431.626 471.086C434.061 477.114 437.589 482.653 441.828 486.793C444.192 489.094 448.197 488.529 449.814 485.676C452.491 480.958 454.763 475.195 455.036 471.341C458.192 470.626 464.093 469.028 468.706 466.699C470.933 465.575 471.538 462.75 469.92 460.867L469.945 460.855Z" fill="#737A62"/>
<path d="M477.085 36.2859C472.575 35.2935 467.767 35.2326 463.457 35.7785C460.252 32.3164 456.818 28.7522 453.136 25.9501C451.122 24.4116 447.966 25.1269 446.873 27.3817C444.839 31.5901 443.71 35.6706 442.542 39.7991C439.135 40.9112 435.575 42.3246 432.377 43.9158C429.941 45.1327 429.285 48.0783 431.087 49.9047C433.855 52.7127 437.404 54.7937 439.868 55.7933C439.204 58.5074 439.286 62.8925 439.938 66.7778C440.339 69.1969 443.31 70.4016 445.638 69.0851C450.27 66.4636 455.075 62.4818 456.944 59.1834C461.361 61.7447 466.268 63.5244 470.992 64.1559C473.615 64.5013 475.959 62.4057 475.667 59.9889C475.188 55.9732 473.963 51.5284 472.32 49.0842C474.049 47.2684 477.129 43.7266 479.036 40.3193C479.959 38.6698 479.012 36.7025 477.085 36.2859Z" fill="#737A62"/>
<path d="M36.9338 479.217C33.7699 478.52 30.3858 478.475 27.3582 478.865C25.1061 476.432 22.6971 473.936 20.107 471.96C18.692 470.884 16.4779 471.387 15.7153 472.967C14.2917 475.921 13.4908 478.791 12.6773 481.684C10.2871 482.464 7.78293 483.46 5.54432 484.572C3.8345 485.426 3.36634 487.499 4.64327 488.779C6.58824 490.742 9.07911 492.205 10.806 492.91C10.3413 494.812 10.4007 497.894 10.8566 500.63C11.1388 502.329 13.2282 503.175 14.8543 502.246C18.1062 500.4 21.4748 497.607 22.8001 495.296C25.9053 497.088 29.35 498.351 32.6653 498.783C34.5112 499.028 36.1484 497.551 35.9512 495.866C35.6186 493.047 34.7565 489.925 33.598 488.209C34.8047 486.942 36.9739 484.454 38.3133 482.045C38.9577 480.89 38.3038 479.513 36.9463 479.205L36.9338 479.217Z" fill="#737A62"/>
<path d="M23.5862 329.172C22.8175 328.048 21.7778 327.078 20.7215 326.326C20.762 324.926 20.7795 323.465 20.5753 322.122C20.4684 321.389 19.6258 320.909 18.902 321.175C17.5645 321.683 16.4431 322.342 15.3095 323.001C14.3323 322.555 13.2567 322.156 12.2156 321.855C11.4286 321.632 10.6512 322.14 10.6603 322.895C10.661 324.064 10.9905 325.227 11.3173 325.928C10.5895 326.388 9.66887 327.356 8.97947 328.328C8.55332 328.928 8.94988 329.789 9.7254 329.975C11.301 330.336 13.1863 330.435 14.3013 330.092C14.7226 331.537 15.4011 332.903 16.2923 333.992C16.7914 334.599 17.741 334.606 18.2032 334.031C18.9534 333.06 19.6356 331.844 19.7989 330.995C20.567 330.949 21.9947 330.796 23.1343 330.441C23.6857 330.27 23.9052 329.653 23.574 329.172L23.5862 329.172Z" fill="#737A62"/>
<path d="M137.846 468.071C137.951 465.918 137.581 463.718 136.963 461.806C138.362 460.02 139.777 458.113 140.815 456.174C141.384 455.114 140.779 453.738 139.616 453.446C137.435 452.915 135.392 452.776 133.325 452.637C132.514 451.184 131.546 449.691 130.525 448.392C129.742 447.39 128.281 447.372 127.555 448.368C126.44 449.892 125.734 451.704 125.465 452.928C124.115 452.877 122.023 453.333 120.22 453.991C119.104 454.407 118.769 455.873 119.579 456.803C121.209 458.675 123.51 460.487 125.24 461.033C124.379 463.293 123.928 465.694 124.017 467.9C124.065 469.131 125.266 469.995 126.393 469.641C128.268 469.045 130.297 468.064 131.327 467.086C132.338 467.703 134.276 468.778 136.067 469.325C136.939 469.586 137.791 468.983 137.834 468.058L137.846 468.071Z" fill="#737A62"/>
<path d="M21.758 146.508C20.5033 145.934 19.0849 145.625 17.7841 145.526C17.066 144.306 16.2998 143.061 15.3957 142.007C14.9081 141.437 13.9336 141.454 13.459 142.041C12.5841 143.156 11.9891 144.276 11.3814 145.421C10.3077 145.533 9.17128 145.729 8.1308 146C7.33522 146.203 6.95307 147.036 7.36624 147.677C7.99159 148.664 8.90009 149.498 9.56089 149.938C9.19238 150.697 8.92282 151.983 8.86238 153.162C8.82324 153.892 9.61595 154.432 10.3879 154.192C11.9197 153.711 13.5935 152.832 14.3535 151.983C15.4895 153.004 16.8121 153.835 18.1542 154.3C18.9039 154.559 19.7293 154.089 19.8047 153.372C19.9265 152.169 19.8572 150.779 19.5327 149.969C20.1623 149.544 21.2998 148.69 22.0849 147.805C22.4589 147.374 22.3135 146.738 21.7826 146.496L21.758 146.508Z" fill="#737A62"/>
<path d="M106.584 111.455C107.66 110.613 108.571 109.523 109.238 108.441C110.677 108.36 112.177 108.232 113.547 107.919C114.293 107.752 114.713 106.896 114.361 106.219C113.716 104.976 112.934 103.95 112.139 102.923C112.5 101.932 112.813 100.867 113.029 99.8359C113.191 99.0477 112.596 98.3538 111.816 98.4232C110.62 98.5329 109.455 98.9598 108.753 99.3353C108.219 98.6791 107.139 97.8779 106.067 97.2961C105.405 96.9417 104.555 97.3872 104.442 98.1642C104.216 99.706 104.301 101.546 104.754 102.591C103.307 103.121 101.964 103.91 100.933 104.875C100.362 105.412 100.441 106.339 101.079 106.717C102.149 107.36 103.453 107.91 104.353 107.989C104.472 108.722 104.761 110.091 105.238 111.16C105.471 111.676 106.126 111.824 106.584 111.468L106.584 111.455Z" fill="#737A62"/>
<path d="M324.13 16.9308C323.126 16.0094 321.887 15.2781 320.691 14.779C320.415 13.4096 320.09 11.9784 319.58 10.7139C319.302 10.0143 318.37 9.73967 317.741 10.1531C316.556 10.9327 315.613 11.8268 314.657 12.7085C313.602 12.4923 312.461 12.3231 311.379 12.2646C310.552 12.2114 309.917 12.8804 310.097 13.6146C310.366 14.7525 310.954 15.8115 311.44 16.4424C310.843 17.0391 310.163 18.1821 309.714 19.2932C309.432 19.9815 310.014 20.7239 310.817 20.7402C312.436 20.7486 314.306 20.4334 315.304 19.8691C316.044 21.187 317.031 22.3759 318.145 23.2387C318.769 23.714 319.71 23.5261 320.016 22.8626C320.526 21.7527 320.918 20.4212 320.874 19.5558C321.609 19.3394 322.97 18.8921 323.993 18.2918C324.498 17.9976 324.56 17.3535 324.13 16.9552L324.13 16.9308Z" fill="#737A62"/>
<path d="M482.662 164.342C483.643 163.4 484.434 162.223 484.981 161.077C486.398 160.85 487.889 160.576 489.213 160.128C489.937 159.887 490.259 158.992 489.846 158.363C489.066 157.19 488.184 156.247 487.29 155.304C487.542 154.286 487.747 153.182 487.841 152.149C487.918 151.359 487.249 150.712 486.479 150.867C485.305 151.099 484.186 151.637 483.532 152.074C482.935 151.477 481.768 150.784 480.645 150.323C479.945 150.029 479.154 150.573 479.126 151.351C479.071 152.909 479.338 154.729 479.902 155.726C478.525 156.405 477.264 157.317 476.342 158.369C475.831 158.956 476.007 159.873 476.683 160.191C477.804 160.713 479.172 161.13 480.073 161.124C480.266 161.834 480.701 163.17 481.289 164.193C481.572 164.685 482.24 164.772 482.662 164.366L482.662 164.342Z" fill="#737A62"/>
<path d="M497.924 292.024C496.579 291.705 495.131 291.663 493.838 291.796C492.897 290.741 491.884 289.649 490.794 288.787C490.195 288.312 489.241 288.512 488.911 289.187C488.276 290.441 487.911 291.663 487.545 292.886C486.516 293.206 485.436 293.61 484.465 294.065C483.727 294.416 483.514 295.3 484.039 295.859C484.849 296.715 485.908 297.358 486.644 297.677C486.433 298.489 486.431 299.804 486.602 300.976C486.709 301.709 487.59 302.08 488.304 301.704C489.707 300.941 491.18 299.778 491.76 298.791C493.071 299.585 494.533 300.15 495.953 300.362C496.743 300.475 497.449 299.869 497.379 299.137C497.257 297.929 496.919 296.582 496.435 295.842C496.957 295.305 497.916 294.265 498.509 293.242C498.799 292.748 498.531 292.158 497.949 292.013L497.924 292.024Z" fill="#737A62"/>
<path d="M342.844 485.11C341.499 484.791 340.051 484.749 338.758 484.881C337.817 483.827 336.804 482.735 335.714 481.873C335.114 481.398 334.161 481.598 333.83 482.273C333.196 483.527 332.83 484.749 332.465 485.972C331.435 486.292 330.356 486.696 329.385 487.151C328.647 487.502 328.434 488.386 328.959 488.945C329.769 489.801 330.828 490.444 331.564 490.763C331.353 491.575 331.351 492.89 331.522 494.062C331.629 494.795 332.51 495.166 333.224 494.79C334.627 494.027 336.1 492.864 336.68 491.877C337.991 492.671 339.453 493.236 340.873 493.448C341.662 493.561 342.369 492.954 342.298 492.222C342.177 491.015 341.839 489.668 341.355 488.928C341.877 488.391 342.835 487.351 343.428 486.328C343.719 485.834 343.45 485.244 342.869 485.099L342.844 485.11Z" fill="#737A62"/>
<path d="M428.935 382.064C428.658 380.744 428.063 379.465 427.378 378.392C427.952 377.113 428.527 375.761 428.859 374.44C429.044 373.713 428.438 372.971 427.671 372.967C426.234 372.95 424.939 373.168 423.632 373.372C422.893 372.615 422.044 371.843 421.205 371.192C420.557 370.692 419.64 370.893 419.358 371.593C418.91 372.68 418.776 373.871 418.797 374.65C417.953 374.816 416.724 375.376 415.7 376.037C415.071 376.438 415.101 377.376 415.761 377.828C417.082 378.731 418.808 379.497 419.963 379.593C419.799 381.075 419.902 382.6 420.314 383.923C420.542 384.658 421.424 385.017 422.077 384.641C423.149 384.017 424.25 383.138 424.728 382.405C425.454 382.639 426.834 383.008 428.038 383.093C428.622 383.129 429.058 382.639 428.935 382.076L428.935 382.064Z" fill="#737A62"/>
<path d="M443.037 246.776C442.669 245.088 441.923 243.454 441.037 242.084C441.777 240.455 442.506 238.729 442.93 237.033C443.155 236.112 442.395 235.159 441.409 235.139C439.571 235.126 437.922 235.385 436.248 235.656C435.306 234.687 434.23 233.703 433.139 232.877C432.311 232.252 431.15 232.496 430.778 233.39C430.215 234.766 430.025 236.297 430.066 237.296C428.978 237.505 427.417 238.229 426.122 239.067C425.32 239.586 425.356 240.78 426.197 241.357C427.878 242.512 430.087 243.494 431.57 243.609C431.361 245.505 431.492 247.456 432.03 249.147C432.327 250.09 433.45 250.551 434.276 250.069C435.644 249.269 437.055 248.14 437.67 247.203C438.602 247.502 440.37 247.976 441.902 248.08C442.644 248.132 443.205 247.498 443.049 246.776L443.037 246.776Z" fill="#737A62"/>
<path d="M289.064 166.93C289.064 166.93 145.762 139.235 133.58 155.743C121.398 172.251 87.8342 319.769 105.917 329.925C124.013 340.082 212.977 354.292 212.977 354.292L289.064 166.93Z" fill="#E8ECDF" stroke="#212319" stroke-width="2" stroke-linecap="round" stroke-linejoin="round"/>
<path d="M393.723 308.041C399.409 303.249 406.438 300.08 413.778 298.986C417.125 298.482 420.596 298.418 423.852 299.385C427.096 300.352 430.097 302.459 431.631 305.473C433.165 308.487 432.988 312.453 430.768 315.014" fill="#A1A891"/>
<path d="M393.723 308.041C399.409 303.249 406.438 300.08 413.778 298.986C417.125 298.482 420.596 298.418 423.852 299.385C427.096 300.352 430.097 302.459 431.631 305.473C433.165 308.487 432.988 312.453 430.768 315.014" stroke="#212319" stroke-width="2" stroke-linecap="round" stroke-linejoin="round"/>
<path d="M420.963 306.738C420.963 306.738 437.987 303.065 444.173 310.289C446.207 312.668 447.463 316.139 445.832 319.759C441.181 320.943 436.416 321.711 431.624 322.028" fill="#A1A891"/>
<path d="M420.963 306.738C420.963 306.738 437.987 303.065 444.173 310.289C446.207 312.668 447.463 316.139 445.832 319.759C441.181 320.943 436.416 321.711 431.624 322.028" stroke="#212319" stroke-width="2" stroke-linecap="round" stroke-linejoin="round"/>
<path d="M424.754 314.341C428.992 314.281 433.292 314.21 437.425 315.17C441.557 316.13 445.582 318.221 448.02 321.692C450.458 325.163 450.99 330.142 449.693 334.645C443.407 334.189 437.021 335.094 431.12 337.288" fill="#A1A891"/>
<path d="M424.754 314.341C428.992 314.281 433.292 314.21 437.425 315.17C441.557 316.13 445.582 318.221 448.02 321.692C450.458 325.163 450.99 330.142 449.693 334.645C443.407 334.189 437.021 335.094 431.12 337.288" stroke="#212319" stroke-width="2" stroke-linecap="round" stroke-linejoin="round"/>
<path d="M365.1 351.116C366.39 360.165 370.453 368.795 377.52 376.366C377.381 379.018 377.265 381.731 378.091 384.244C378.929 386.757 380.952 389.063 383.575 389.42C385.372 389.664 387.188 388.97 388.659 387.904C391.761 385.641 393.41 381.79 393.865 377.976C394.319 374.162 393.716 370.302 395.257 366.351C407.097 354.683 422.873 347.087 439.376 345.096C443.831 344.565 448.523 344.368 452.416 342.134C456.309 339.899 459.007 334.742 456.81 330.825C455.329 328.19 452.224 326.982 449.292 326.253C442.483 324.557 435.302 324.411 428.431 325.806" fill="#A1A891"/>
<path d="M365.1 351.116C366.39 360.165 370.453 368.795 377.52 376.366C377.381 379.018 377.265 381.731 378.091 384.244C378.929 386.757 380.952 389.063 383.575 389.42C385.372 389.664 387.188 388.97 388.659 387.904C391.761 385.641 393.41 381.79 393.865 377.976C394.319 374.162 393.716 370.302 395.257 366.351C407.097 354.683 422.873 347.087 439.376 345.096C443.831 344.565 448.523 344.368 452.416 342.134C456.309 339.899 459.007 334.742 456.81 330.825C455.329 328.19 452.224 326.982 449.292 326.253C442.483 324.557 435.302 324.411 428.431 325.806" stroke="#212319" stroke-width="2" stroke-linecap="round" stroke-linejoin="round"/>
<path d="M406.061 333.107C410.4 328.689 411.838 319.586 411.939 313.403C410.547 301.588 406.302 293.539 400.023 286.118C383.851 283.233 365.055 287.236 355.007 298.173C344.959 309.111 342.649 327.572 346.015 342.922C350.985 348.222 359.574 353.4 366.783 355.799C372.311 355.802 377.837 354.696 382.933 352.583" fill="#A1A891"/>
<path d="M406.061 333.107C410.4 328.689 411.838 319.586 411.939 313.403C410.547 301.588 406.302 293.539 400.023 286.118C383.851 283.233 365.055 287.236 355.007 298.173C344.959 309.111 342.649 327.572 346.015 342.922C350.985 348.222 359.574 353.4 366.783 355.799C372.311 355.802 377.837 354.696 382.933 352.583" stroke="#212319" stroke-width="2" stroke-linecap="round" stroke-linejoin="round"/>
<path d="M346.303 243.947C370.368 258.717 385.116 274.833 396.798 299.215C400.844 330.298 378.116 345.095 354.215 338.425C341.773 327.47 336.773 324.872 320.676 315.84C323.112 289.942 331.674 264.642 346.315 243.959L346.303 243.947Z" fill="#A1A891" stroke="#212319" stroke-width="2" stroke-linecap="round" stroke-linejoin="round"/>
<path d="M338.034 326.886C351.897 325.961 365.068 317.766 372.008 305.73C378.949 293.694 379.47 278.192 373.33 265.721" stroke="#212319" stroke-linecap="round" stroke-linejoin="round"/>
<path d="M210.673 481.76C207.3 484.785 202.808 486.544 198.277 486.611C193.746 486.677 186.788 484.539 182.977 482.1C167.423 472.129 174.342 438.918 180.881 420.287C185.443 407.253 192.804 391.914 204.016 384.835C210.01 381.06 219.19 382.927 225.064 386.881C227.286 388.375 229.305 390.304 231.035 392.664C217.213 419.805 210.333 450.46 210.673 481.76Z" fill="#E8ECDF" stroke="#212319" stroke-width="2" stroke-linecap="round" stroke-linejoin="round"/>
<path d="M236.722 461.076C231.563 468.716 219.593 478.957 212.771 481.522C205.937 484.087 197.784 483.8 192.235 478.817C188.636 475.566 186.507 470.677 185.659 465.655C184.811 460.633 185.147 455.465 185.773 450.4C187.651 435.254 192.139 420.478 198.949 407.076C201.879 401.303 205.428 395.579 210.635 392.19C216.151 388.6 223.248 388.098 229.109 390.884C234.97 393.669 239.427 399.677 240.7 406.57C239.361 427.596 241.475 440.448 236.722 461.076Z" fill="#E8ECDF" stroke="#212319" stroke-width="2" stroke-linecap="round" stroke-linejoin="round"/>
<path d="M250.816 460.195C245.438 465.992 235.031 469.446 227.778 466.815C210.239 460.445 204.868 437.079 204.561 424.58C204.304 413.835 207.869 392.952 220.253 385.714C225.613 382.584 234.025 385.689 239.599 389.43C241.098 412.17 244.805 434.771 250.816 460.208L250.816 460.195Z" fill="#E8ECDF" stroke="#212319" stroke-width="2" stroke-linecap="round" stroke-linejoin="round"/>
<path d="M212.121 396.419C215.385 396.375 218.647 397.05 221.615 398.389" stroke="#212319" stroke-linecap="round" stroke-linejoin="round"/>
<path d="M204.936 424.668C208.914 424.822 212.905 424.963 216.883 425.117" stroke="#212319" stroke-linecap="round" stroke-linejoin="round"/>
<path d="M213.976 455.162C217.976 455.45 222.086 453.939 224.944 451.123" stroke="#212319" stroke-linecap="round" stroke-linejoin="round"/>
<path d="M228.702 466.314C231.827 465.293 234.689 463.488 236.953 461.099" stroke="#212319" stroke-linecap="round" stroke-linejoin="round"/>
<path d="M242.545 462.138C242.545 462.138 222.871 460.205 218.309 432.959C214.996 413.13 219.991 396.817 230.663 388.12C236.928 384.205 241.303 382.808 247.831 380.907C261.264 388.607 271.282 402.617 275.303 415.691C279.324 428.765 279.133 445.394 272.182 456.76C263.132 459.912 242.557 462.138 242.557 462.138L242.545 462.138Z" fill="#E8ECDF" stroke="#212319" stroke-width="2" stroke-linecap="round" stroke-linejoin="round"/>
<path d="M326.439 317.369C330.392 344.627 330.243 374.809 327.563 403.102C326.029 419.35 316.649 436.986 301.76 441.032C292.59 443.525 272.535 445.322 261.473 446.243C244.8 447.634 230.218 422.706 234.596 401.973C235.067 399.754 236.554 397.885 238.536 396.78C241.098 395.347 244.069 393.556 247.123 391.231C245.654 385.028 243.179 379.803 238.287 368.806C267.078 351.101 296.776 334.875 326.439 317.369Z" fill="#E8ECDF" stroke="#212319" stroke-width="2" stroke-linecap="round" stroke-linejoin="round"/>
<path d="M90.0633 435.822C86.4697 438.306 81.9404 439.493 77.5286 439.087C73.1287 438.693 66.6087 435.968 63.1564 433.28C49.1195 422.341 59.3302 391.949 67.6214 375.167C73.4239 363.425 82.1743 349.819 93.7916 344.356C99.9998 341.437 108.712 344.134 113.995 348.442C115.995 350.066 117.756 352.086 119.169 354.477C102.902 378.476 93.0079 406.476 90.0511 435.822L90.0633 435.822Z" fill="#E8ECDF" stroke="#212319" stroke-width="2" stroke-linecap="round" stroke-linejoin="round"/>
<path d="M118.781 418.09C112.857 425.045 99.9179 433.83 92.8926 435.611C85.8551 437.392 77.8179 436.231 72.8641 430.724C69.6491 427.14 68.071 422.092 67.771 417.069C67.4709 412.046 68.3527 406.987 69.5239 402.067C72.9998 387.367 79.0317 373.316 87.1985 360.867C90.7167 355.495 94.841 350.258 100.352 347.484C106.196 344.546 113.264 344.823 118.773 348.198C124.281 351.573 128.036 357.956 128.565 364.883C124.983 385.425 125.697 398.298 118.782 418.078L118.781 418.09Z" fill="#E8ECDF" stroke="#212319" stroke-width="2" stroke-linecap="round" stroke-linejoin="round"/>
<path d="M126.973 425.366C120.112 429.294 109.137 429.474 103.01 424.784C88.1775 413.451 90.0499 389.551 93.508 377.529C96.4815 367.191 106.13 348.343 120.112 345.144C126.167 343.756 133.264 349.246 137.457 354.481C132.077 376.618 128.853 399.298 126.973 425.366Z" fill="#E8ECDF" stroke="#212319" stroke-width="2" stroke-linecap="round" stroke-linejoin="round"/>
<path d="M109.143 352.934C112.265 353.861 115.179 355.491 117.607 357.659" stroke="#212319" stroke-linecap="round" stroke-linejoin="round"/>
<path d="M93.832 377.73C97.5919 379.061 101.339 380.403 105.099 381.733" stroke="#212319" stroke-linecap="round" stroke-linejoin="round"/>
<path d="M93.3216 409.534C97.0542 411.01 101.418 410.794 104.986 408.966" stroke="#212319" stroke-linecap="round" stroke-linejoin="round"/>
<path d="M104.037 424.573C107.326 424.542 110.594 423.671 113.464 422.073" stroke="#212319" stroke-linecap="round" stroke-linejoin="round"/>
<path d="M118.489 424.744C118.489 424.744 100.296 417.009 104.102 389.652C106.879 369.739 116.528 355.676 129.307 350.565C136.456 348.701 141.047 348.685 147.851 348.822C158.36 360.189 163.727 376.553 163.645 390.226C163.562 403.898 158.408 419.72 148.368 428.466C138.791 428.76 118.49 424.732 118.49 424.732L118.489 424.744Z" fill="#E8ECDF" stroke="#212319" stroke-width="2" stroke-linecap="round" stroke-linejoin="round"/>
<path d="M272.36 382.605C260.752 385.207 248.678 385.559 237.498 384.468C225.952 396.629 214.179 406.729 199.953 415.962C188.466 423.413 166.267 425.289 137.293 416.604C112.847 400.743 123.946 365.583 141.569 356.394C145.305 356.469 148.174 356.71 151.421 356.934C155.775 321.114 167.349 287.133 185.674 260.729C212.664 287.394 246.929 306.621 283.76 315.756" fill="#E8ECDF"/>
<path d="M272.36 382.605C260.752 385.207 248.678 385.559 237.498 384.468C225.952 396.629 214.179 406.729 199.953 415.962C188.466 423.413 166.267 425.289 137.293 416.604C112.847 400.743 123.946 365.583 141.569 356.394C145.305 356.469 148.174 356.71 151.421 356.934C155.775 321.114 167.349 287.133 185.674 260.729C212.664 287.394 246.929 306.621 283.76 315.756" stroke="#212319" stroke-width="2" stroke-linecap="round" stroke-linejoin="round"/>
<path d="M186.052 275.088C175.618 279.82 165.382 287.43 161.149 299.265C168.235 332.321 200.974 360.113 235.662 369.242C266.378 377.329 306.394 376.483 325.785 358.149C331.758 352.413 332.495 338.876 330.568 328.219C275.973 325.019 228.734 310.936 186.052 275.1L186.052 275.088Z" fill="#A1A891" stroke="#212319" stroke-width="2" stroke-linecap="round" stroke-linejoin="round"/>
<path d="M166.681 315.838C169.76 310.506 174.031 305.869 179.082 302.367L166.681 315.838Z" fill="#A1A891"/>
<path d="M166.681 315.838C169.76 310.506 174.031 305.869 179.082 302.367" stroke="#212319" stroke-linecap="round" stroke-linejoin="round"/>
<path d="M189.192 343.703C192.433 338.18 196.517 333.136 201.256 328.812L189.192 343.703Z" fill="#A1A891"/>
<path d="M189.192 343.703C192.433 338.18 196.517 333.136 201.256 328.812" stroke="#212319" stroke-linecap="round" stroke-linejoin="round"/>
<path d="M227.038 367.02C231.236 361.15 234.726 354.792 237.418 348.101L227.038 367.02Z" fill="#A1A891"/>
<path d="M227.038 367.02C231.236 361.15 234.726 354.792 237.418 348.101" stroke="#212319" stroke-linecap="round" stroke-linejoin="round"/>
<path d="M277.342 373.444C279.743 367.319 281.322 360.885 282.039 354.349L277.342 373.444Z" fill="#A1A891"/>
<path d="M277.342 373.444C279.743 367.319 281.322 360.885 282.039 354.349" stroke="#212319" stroke-linecap="round" stroke-linejoin="round"/>
<path d="M318.713 362.812C319.186 356.904 319.671 350.996 320.143 345.088L318.713 362.812Z" fill="#A1A891"/>
<path d="M318.713 362.812C319.186 356.904 319.671 350.996 320.143 345.088" stroke="#212319" stroke-linecap="round" stroke-linejoin="round"/>
<path d="M208.966 209.718C189.137 233.486 178.032 252.682 171.612 285.331C181.877 364.003 323.037 382.059 334.826 333.288C342.109 303.153 351.374 273.144 353.931 241.914C304.622 244.081 254.905 232.103 208.966 209.718Z" fill="#A1A891" stroke="#212319" stroke-width="2" stroke-linecap="round" stroke-linejoin="round"/>
<path d="M242.957 340.452C239.438 339.211 235.528 335.686 235.399 330.618C235.293 326.269 240.677 306.324 246.616 295.644C248.385 292.465 252.938 289.513 256.636 289.101C272.745 287.309 289.778 288.604 305.984 291.038C316.375 292.6 324.264 294.502 327.584 301.29C328.379 302.926 328.585 304.781 328.244 306.564C326.2 317.298 322.652 327.771 317.766 337.547C315.634 341.802 311.567 344.837 306.755 345.555C288.642 348.269 263.22 347.559 242.957 340.427L242.957 340.452Z" fill="#A1A891" stroke="#212319" stroke-width="2" stroke-linecap="round" stroke-linejoin="round"/>
<path d="M241.989 340.055C239.662 331.119 245.177 315.536 248.97 305.019C251.472 298.105 256.912 294.659 264.081 294.78C284.981 295.155 307.921 296.326 327.571 301.303" fill="#A1A891"/>
<path d="M241.989 340.055C239.662 331.119 245.177 315.536 248.97 305.019C251.472 298.105 256.912 294.659 264.081 294.78C284.981 295.155 307.921 296.326 327.571 301.303" stroke="#212319" stroke-linecap="round" stroke-linejoin="round"/>
<path d="M278.687 295.734C271.854 311.461 266.614 327.866 263.06 344.634L278.687 295.734Z" fill="#A1A891"/>
<path d="M278.687 295.734C271.854 311.461 266.614 327.866 263.06 344.634" stroke="#212319" stroke-linecap="round" stroke-linejoin="round"/>
<path d="M282.803 310.039C284.567 306.532 288.471 304.918 291.521 306.453C294.57 307.989 295.608 312.076 293.844 315.584C292.081 319.092 288.176 320.705 285.126 319.17C282.077 317.635 281.039 313.547 282.803 310.039Z" fill="#A1A891" stroke="#212319" stroke-linecap="round" stroke-linejoin="round"/>
<path d="M289.696 330.481C291.459 326.973 295.364 325.36 298.413 326.895C301.463 328.43 302.5 332.518 300.737 336.026C298.973 339.533 295.068 341.146 292.019 339.611C288.969 338.076 287.932 333.988 289.696 330.481Z" fill="#A1A891" stroke="#212319" stroke-linecap="round" stroke-linejoin="round"/>
<path d="M305.128 310.395C307.085 306.976 311.058 305.596 314.031 307.288C316.992 308.979 317.809 313.124 315.865 316.53C313.908 319.949 309.935 321.329 306.962 319.637C304.001 317.946 303.184 313.801 305.128 310.395Z" fill="#A1A891" stroke="#212319" stroke-linecap="round" stroke-linejoin="round"/>
<path d="M204.612 197.583C198.001 199.957 194.778 211.192 199.859 221.267C227.521 276.085 362.694 273.503 370.311 233.475C314.736 230.011 259.775 217.817 204.624 197.583L204.612 197.583Z" fill="url(#paint0_linear_609_11971)" stroke="#212319" stroke-width="2" stroke-linecap="round" stroke-linejoin="round"/>
<path d="M205.878 230.565C205.93 224.977 207.675 219.423 210.877 214.63L205.878 230.565Z" fill="url(#paint1_linear_609_11971)"/>
<path d="M205.878 230.565C205.93 224.977 207.675 219.423 210.877 214.63" stroke="#212319" stroke-linecap="round" stroke-linejoin="round"/>
<path d="M230.91 249.346C231.292 243.728 233.473 238.232 237.134 233.643L230.91 249.346Z" fill="url(#paint2_linear_609_11971)"/>
<path d="M230.91 249.346C231.292 243.728 233.473 238.232 237.134 233.643" stroke="#212319" stroke-linecap="round" stroke-linejoin="round"/>
<path d="M272.502 260.806C273.608 255.52 275.114 250.302 277.007 245.202L272.502 260.806Z" fill="url(#paint3_linear_609_11971)"/>
<path d="M272.502 260.806C273.608 255.52 275.114 250.302 277.007 245.202" stroke="#212319" stroke-linecap="round" stroke-linejoin="round"/>
<path d="M324.487 261.328C328.872 255.243 331.259 248.022 331.272 240.777L324.487 261.328Z" fill="url(#paint4_linear_609_11971)"/>
<path d="M324.487 261.328C328.872 255.243 331.259 248.022 331.272 240.777" stroke="#212319" stroke-linecap="round" stroke-linejoin="round"/>
<path d="M178.892 162.387C169.352 102.578 206.826 42.1269 280.793 32.7155C368.958 21.4853 414.861 74.4691 415.27 143.237C415.657 209.46 403.184 246.321 307.853 248.87C256.477 250.24 189.729 230.319 178.892 162.399L178.892 162.387Z" fill="url(#paint5_linear_609_11971)" stroke="#212319" stroke-width="2" stroke-linecap="round" stroke-linejoin="round"/>
<path d="M181.46 138.286C178.824 103.116 170.936 68.1441 158.443 36.2812L181.46 138.286Z" fill="url(#paint6_linear_609_11971)"/>
<path d="M181.46 138.286C178.824 103.116 170.936 68.1441 158.443 36.2812" stroke="#212319" stroke-width="2" stroke-linecap="round" stroke-linejoin="round"/>
<path d="M147.959 30.9435C147.792 26.5566 151.215 22.8635 155.59 22.6964C159.977 22.5296 163.67 25.9529 163.837 30.3276C164.004 34.7145 160.58 38.4076 156.206 38.5747C151.819 38.7415 148.126 35.3182 147.959 30.9435Z" fill="url(#paint7_linear_609_11971)" stroke="#212319" stroke-width="2" stroke-linecap="round" stroke-linejoin="round"/>
<path d="M189.544 117.926C189.459 117.924 189.373 117.947 189.288 117.945L189.252 117.944C188.093 118.03 177.836 120.66 177.836 120.66L178.011 127.652C174.761 134.223 172.916 143.525 173.305 153.785C173.671 163.351 175.908 171.944 179.253 178.161L179.454 186.25C179.454 186.25 191.929 188.317 192.246 188.299C201.958 187.924 209.236 171.876 208.498 152.44C207.759 133.004 199.281 117.551 189.556 117.926L189.544 117.926Z" fill="url(#paint8_linear_609_11971)" stroke="#212319" stroke-width="2" stroke-linecap="round" stroke-linejoin="round"/>
<path d="M181.435 186.413C190.518 186.066 197.319 171.057 196.624 152.89C195.93 134.724 188.003 120.278 178.92 120.625C169.836 120.972 163.036 135.981 163.73 154.148C164.425 172.315 172.351 186.76 181.435 186.413Z" fill="url(#paint9_linear_609_11971)" stroke="#212319" stroke-width="2" stroke-linecap="round" stroke-linejoin="round"/>
<path d="M180.905 172.586C185.131 172.424 188.224 163.595 187.814 152.866C187.404 142.136 183.645 133.569 179.419 133.731C175.193 133.892 172.1 142.721 172.51 153.451C172.92 164.18 176.679 172.747 180.905 172.586Z" fill="url(#paint10_linear_609_11971)" stroke="#212319" stroke-width="2" stroke-linecap="round" stroke-linejoin="round"/>
<path d="M386.468 67.6384C350.98 49.3124 264.462 44.1258 235.651 86.9021C206.84 129.678 212.687 197.436 251.619 222.48C275.659 237.944 369.467 236.643 400.017 217.438C438.436 193.292 431.307 90.7809 386.456 67.626L386.468 67.6384Z" fill="url(#paint11_linear_609_11971)" stroke="#212319" stroke-width="2" stroke-linecap="round" stroke-linejoin="round"/>
<path d="M389.55 76.0076C356.867 59.8571 277.178 55.3933 250.561 93.2583C223.955 131.136 229.244 191.041 265.082 213.136C287.21 226.784 373.639 225.491 401.819 208.467C437.248 187.06 430.829 96.4113 389.538 76.0074L389.55 76.0076Z" fill="url(#paint12_linear_609_11971)" stroke="#212319" stroke-width="2" stroke-linecap="round" stroke-linejoin="round"/>
<path d="M253.449 135.561C248.186 135.71 243.463 140.412 243.284 145.668C243.104 150.925 247.484 155.933 252.721 156.453C257.959 156.973 263.24 152.916 264.088 147.721C264.936 142.527 261.368 135.332 253.449 135.561Z" fill="url(#paint13_linear_609_11971)" stroke="#212319" stroke-width="2" stroke-linecap="round" stroke-linejoin="round"/>
<path d="M318.293 105.351C271.743 99.2942 271.522 128.878 261.272 128.135C250.329 127.341 258.507 95.7262 282.005 84.4399C294.485 78.4463 311.242 77.1177 325.493 80.4992C342.701 84.586 341.185 108.336 318.292 105.364L318.293 105.351Z" fill="url(#paint14_linear_609_11971)" stroke="#212319" stroke-width="2" stroke-linecap="round" stroke-linejoin="round"/>
<path d="M117.365 301.03C139.9 290.966 165.344 287.585 189.744 291.27C195.219 292.099 200.735 289.666 203.667 284.977C208.386 277.426 211.723 268.373 212.594 259.051C213.542 248.916 211.56 238.55 206.377 228.74C203.774 223.817 198.661 220.755 193.101 220.532C159.546 219.159 125.685 228.701 99.2387 247.318C109.974 261.331 116.876 278.275 117.365 301.03Z" fill="#A1A891" stroke="#212319" stroke-width="2" stroke-linecap="round" stroke-linejoin="round"/>
<path d="M130.454 304.595C143.327 293.678 148.014 275.046 144.733 258.492C142.977 249.653 138.976 240.951 132.03 235.222C125.072 229.48 114.852 227.264 105.66 232.642C115.059 256.126 123.366 280.05 130.454 304.595Z" fill="#A1A891" stroke="#212319" stroke-width="2" stroke-linecap="round" stroke-linejoin="round"/>
<path d="M111.917 261.593C101.706 254.714 87.7446 253.871 76.2414 258.508C67.4929 256.395 57.7478 258.998 51.2175 265.198C48.5359 267.737 46.3133 271.065 46.2264 274.752C46.1395 278.44 48.8615 282.319 52.5472 282.503C55.9775 282.67 58.7129 279.876 61.4104 277.751C64.1079 275.626 68.2907 274.116 72.3857 277.535C76.0535 293.025 87.8375 302.176 102.047 297.362C102.047 297.362 122.139 268.473 111.929 261.594L111.917 261.593Z" fill="#A1A891" stroke="#212319" stroke-width="2" stroke-linecap="round" stroke-linejoin="round"/>
<path d="M98.358 257.732C94.2154 245.24 81.6386 237.363 68.9749 233.77C61.7712 231.737 52.9548 231.169 47.8877 236.667C46.0203 238.687 44.8893 241.623 45.7248 244.258C47.1323 248.706 52.7477 249.806 57.2262 251.127C66.0376 253.741 73.6511 260.19 77.6723 268.454" fill="#A1A891"/>
<path d="M98.358 257.732C94.2154 245.24 81.6386 237.363 68.9749 233.77C61.7712 231.737 52.9548 231.169 47.8877 236.667C46.0203 238.687 44.8893 241.623 45.7248 244.258C47.1323 248.706 52.7477 249.806 57.2262 251.127C66.0376 253.741 73.6511 260.19 77.6723 268.454" stroke="#212319" stroke-width="2" stroke-linecap="round" stroke-linejoin="round"/>
<path d="M109.646 263.085C107.777 253.781 105.873 244.391 102.08 235.693C98.2863 226.996 92.3984 218.913 84.1655 214.192C81.8666 212.867 79.3311 211.805 76.6777 211.752C74.0244 211.698 71.2383 212.786 69.8049 215.022C68.334 217.305 68.5282 220.341 69.5487 222.858C70.5814 225.375 72.3282 227.505 73.9645 229.681C81.4801 239.757 86.5851 251.623 88.7452 264.001" fill="#A1A891"/>
<path d="M109.646 263.085C107.777 253.781 105.873 244.391 102.08 235.693C98.2863 226.996 92.3984 218.913 84.1655 214.192C81.8666 212.867 79.3311 211.805 76.6777 211.752C74.0244 211.698 71.2383 212.786 69.8049 215.022C68.334 217.305 68.5282 220.341 69.5487 222.858C70.5814 225.375 72.3282 227.505 73.9645 229.681C81.4801 239.757 86.5851 251.623 88.7452 264.001" stroke="#212319" stroke-width="2" stroke-linecap="round" stroke-linejoin="round"/>
<path d="M128.017 285.557C128.248 274.165 124.013 252.43 120.065 241.732C116.118 231.034 108.064 221.057 96.6831 217.271C92.1596 215.767 86.0208 215.862 83.8574 219.872C82.6429 222.125 83.195 224.924 84.477 227.154C85.7712 229.384 87.707 231.201 89.4207 233.16C95.5496 240.164 98.9336 249.231 98.799 258.275" fill="#A1A891"/>
<path d="M128.017 285.557C128.248 274.165 124.013 252.43 120.065 241.732C116.118 231.034 108.064 221.057 96.6831 217.271C92.1596 215.767 86.0208 215.862 83.8574 219.872C82.6429 222.125 83.195 224.924 84.477 227.154C85.7712 229.384 87.707 231.201 89.4207 233.16C95.5496 240.164 98.9336 249.231 98.799 258.275" stroke="#212319" stroke-width="2" stroke-linecap="round" stroke-linejoin="round"/>
<path d="M123.347 252.875C125.472 262.148 129.437 269.582 130.657 277.278C131.877 284.962 129.74 293.698 123.426 298.246C119.509 301.076 114.425 301.984 109.613 301.485C104.801 300.985 101.875 300.597 97.5471 298.44" fill="#A1A891"/>
<path d="M123.347 252.875C125.472 262.148 129.437 269.582 130.657 277.278C131.877 284.962 129.74 293.698 123.426 298.246C119.509 301.076 114.425 301.984 109.613 301.485C104.801 300.985 101.875 300.597 97.5471 298.44" stroke="#212319" stroke-width="2" stroke-linecap="round" stroke-linejoin="round"/>
<path d="M130.415 275.942C131.754 283.749 129.299 290.762 133.009 295.744C135.072 298.501 137.614 301.012 139.222 303.979C140.83 306.947 141.34 310.646 139.276 313.381C137.674 315.503 134.728 316.674 131.79 316.821C128.865 316.957 125.947 316.167 123.341 314.994C114.592 311.078 108.797 302.632 109.018 294.138" fill="#A1A891"/>
<path d="M130.415 275.942C131.754 283.749 129.299 290.762 133.009 295.744C135.072 298.501 137.614 301.012 139.222 303.979C140.83 306.947 141.34 310.646 139.276 313.381C137.674 315.503 134.728 316.674 131.79 316.821C128.865 316.957 125.947 316.167 123.341 314.994C114.592 311.078 108.797 302.632 109.018 294.138" stroke="#212319" stroke-width="2" stroke-linecap="round" stroke-linejoin="round"/>
<path d="M157.769 290.648C167.403 280.92 172.078 266.537 170.014 253.004C167.951 239.471 159.178 227.141 147.161 220.444C151.88 220.15 156.61 219.844 160.628 220.461C171.078 228.149 178.188 240.226 179.851 253.093C181.502 265.961 177.685 279.448 169.709 289.697C166.506 292.725 161.376 293.51 157.781 290.661L157.769 290.648Z" fill="#A1A891" stroke="#212319" stroke-width="2" stroke-linecap="round" stroke-linejoin="round"/>
<path d="M174.584 220.887C174.111 218.394 170.838 215.247 169.013 213.384C159.804 210.555 150.415 211.217 142.703 215.042C139.616 218.937 138.273 222.733 138.613 227.562C149.114 224.353 163.67 221.056 174.571 220.887L174.584 220.887Z" fill="#A1A891" stroke="#212319" stroke-width="2" stroke-linecap="round" stroke-linejoin="round"/>
<defs>
<linearGradient id="paint0_linear_609_11971" x1="284.302" y1="199.197" x2="283.014" y2="262.756" gradientUnits="userSpaceOnUse">
<stop stop-color="#616751"/>
<stop offset="1" stop-color="#2E3224"/>
</linearGradient>
<linearGradient id="paint1_linear_609_11971" x1="208.539" y1="214.583" x2="208.214" y2="230.612" gradientUnits="userSpaceOnUse">
<stop stop-color="#616751"/>
<stop offset="1" stop-color="#2E3224"/>
</linearGradient>
<linearGradient id="paint2_linear_609_11971" x1="234.182" y1="233.583" x2="233.861" y2="249.406" gradientUnits="userSpaceOnUse">
<stop stop-color="#616751"/>
<stop offset="1" stop-color="#2E3224"/>
</linearGradient>
<linearGradient id="paint3_linear_609_11971" x1="274.914" y1="245.16" x2="274.596" y2="260.848" gradientUnits="userSpaceOnUse">
<stop stop-color="#616751"/>
<stop offset="1" stop-color="#2E3224"/>
</linearGradient>
<linearGradient id="paint4_linear_609_11971" x1="328.092" y1="240.713" x2="327.673" y2="261.392" gradientUnits="userSpaceOnUse">
<stop stop-color="#616751"/>
<stop offset="1" stop-color="#2E3224"/>
</linearGradient>
<linearGradient id="paint5_linear_609_11971" x1="298.694" y1="31.0741" x2="294.282" y2="248.798" gradientUnits="userSpaceOnUse">
<stop stop-color="#616751"/>
<stop offset="1" stop-color="#2E3224"/>
</linearGradient>
<linearGradient id="paint6_linear_609_11971" x1="170.98" y1="36.5352" x2="168.923" y2="138.032" gradientUnits="userSpaceOnUse">
<stop stop-color="#616751"/>
<stop offset="1" stop-color="#2E3224"/>
</linearGradient>
<linearGradient id="paint7_linear_609_11971" x1="156.059" y1="22.6922" x2="155.737" y2="38.5789" gradientUnits="userSpaceOnUse">
<stop stop-color="#616751"/>
<stop offset="1" stop-color="#2E3224"/>
</linearGradient>
<linearGradient id="paint8_linear_609_11971" x1="191.614" y1="117.952" x2="190.19" y2="188.258" gradientUnits="userSpaceOnUse">
<stop stop-color="#616751"/>
<stop offset="1" stop-color="#2E3224"/>
</linearGradient>
<linearGradient id="paint9_linear_609_11971" x1="178.92" y1="120.625" x2="181.435" y2="186.413" gradientUnits="userSpaceOnUse">
<stop stop-color="#616751"/>
<stop offset="1" stop-color="#2E3224"/>
</linearGradient>
<linearGradient id="paint10_linear_609_11971" x1="179.419" y1="133.731" x2="180.905" y2="172.586" gradientUnits="userSpaceOnUse">
<stop stop-color="#616751"/>
<stop offset="1" stop-color="#2E3224"/>
</linearGradient>
<linearGradient id="paint11_linear_609_11971" x1="323.231" y1="54.0896" x2="319.602" y2="233.224" gradientUnits="userSpaceOnUse">
<stop stop-color="#616751"/>
<stop offset="1" stop-color="#2E3224"/>
</linearGradient>
<linearGradient id="paint12_linear_609_11971" x1="331.09" y1="64.1155" x2="327.88" y2="222.57" gradientUnits="userSpaceOnUse">
<stop stop-color="#616751"/>
<stop offset="1" stop-color="#2E3224"/>
</linearGradient>
<linearGradient id="paint13_linear_609_11971" x1="253.958" y1="135.556" x2="253.533" y2="156.498" gradientUnits="userSpaceOnUse">
<stop stop-color="#616751"/>
<stop offset="1" stop-color="#2E3224"/>
</linearGradient>
<linearGradient id="paint14_linear_609_11971" x1="297.376" y1="78.4164" x2="296.354" y2="128.853" gradientUnits="userSpaceOnUse">
<stop stop-color="#616751"/>
<stop offset="1" stop-color="#2E3224"/>
</linearGradient>
</defs>
</svg>
