<svg width="54" height="76" viewBox="0 0 54 76" fill="none" xmlns="http://www.w3.org/2000/svg">
<g id="Group 2396">
<path id="Vector" d="M5.13851 18.7116C4.1567 19.4207 3.75423 20.4027 3.83725 21.5929C3.87515 22.1476 4.11338 22.6412 4.6837 22.7202C5.44533 22.8261 5.23958 23.1097 5.01578 23.5783C4.496 24.6733 4.71619 26.0897 5.42908 26.6641C6.13656 27.235 7.06965 27.1506 8.24998 26.3356C8.98815 25.8258 9.67036 25.2334 10.3905 24.6967C11.3867 23.9517 12.4498 23.2893 13.7348 23.2767C16.7181 23.2462 19.1943 24.3179 20.9143 26.8257C22.2823 28.8183 22.5693 31.0658 22.4592 33.421C22.2642 37.6037 20.2519 40.4508 16.3084 41.9336C15.6605 42.1778 15.009 42.4147 14.2004 42.7145C18.0952 43.4685 22.248 40.3898 23.6539 37.6522C25.6212 33.8214 25.2692 28.4736 22.2931 25.7719C17.6133 21.5228 12.5544 20.8191 7.45948 25.5081C7.427 24.8869 7.66703 24.5584 7.83308 24.2209C9.13073 21.5803 11.4752 20.3147 13.8629 21.0076C15.5612 21.5013 17.2216 22.1278 18.9236 22.6071C20.4468 23.0361 21.9971 23.4095 23.607 23.1044C23.7875 23.0703 24.0636 23.1277 24.0348 22.783C22.5927 22.7346 21.1669 22.8082 19.7375 22.3576C16.8751 21.4546 14.1806 20.0903 11.255 19.3687C10.0566 19.0725 8.86903 18.726 7.51904 18.3598C9.65592 16.8914 11.7513 16.3008 14.1246 17.0942C15.5486 17.5699 16.7524 18.3885 17.8768 19.3489C19.086 20.3847 20.3078 21.3972 21.8203 21.9842C22.0603 22.0775 22.4122 22.3684 22.5259 22.0973C22.6974 21.6952 22.1903 21.7095 21.9502 21.6018C20.528 20.9681 19.299 20.0939 18.3153 18.8804C16.6188 16.7873 14.9061 14.7067 13.2096 12.6118C13.0544 12.4197 12.7746 12.2653 12.8757 11.9152C13.4514 11.8614 14.0019 12.0283 14.556 12.1307C17.4942 12.6692 19.8476 13.9976 21.102 16.8627C21.4232 17.5987 21.8582 18.288 22.2661 18.9845C22.7335 19.7833 23.3273 20.4709 24.2441 20.8963C22.9013 18.8786 21.6398 16.8214 20.7969 14.5595C19.9379 12.2563 19.1762 9.91904 18.3532 7.54048C18.9759 7.57458 19.373 7.8654 19.8169 8.01798C22.7804 9.03583 24.2405 11.0464 24.2604 14.2166C24.2694 15.8143 24.5293 17.4371 25.1519 18.9522C25.3216 19.3651 25.4317 19.8552 26.1861 20.1424C24.2694 15.0334 25.1519 10.244 26.9567 5.51735C28.7218 10.4199 29.7325 15.3404 27.4891 20.4799C28.3843 20.0221 28.6532 19.2646 28.8969 18.516C29.4816 16.7083 29.5773 14.8198 29.7867 12.951C30.0935 10.2278 32.8368 7.67332 35.5404 7.58894C33.75 12.242 32.8223 17.3043 28.9582 21.2087C30.2902 20.9251 30.902 20.0921 31.438 19.2574C32.1473 18.1516 32.7303 16.9668 33.3818 15.8251C35.0675 12.8631 37.9967 12.3353 40.9746 11.8596C41.0648 12.1576 40.9475 12.2653 40.8573 12.3802C38.937 14.8323 37.0077 17.2791 34.9177 19.5913C33.8456 20.7761 32.4505 21.4851 31.0121 21.925C31.2485 22.3486 31.6384 22.1422 32.021 22.0003C33.4558 21.469 34.6343 20.5463 35.7678 19.5572C36.7442 18.7063 37.7837 17.9523 38.9622 17.3994C41.3969 16.2541 44.4164 16.6544 46.2067 18.3831C45.9992 18.4585 45.8097 18.5465 45.6111 18.5932C42.718 19.2807 39.8881 20.1549 37.1358 21.2967C34.8293 22.2535 32.4541 22.9769 29.8985 22.7884C29.8787 22.7884 29.8534 22.8656 29.8065 22.9518C30.5248 23.2408 31.2594 23.2516 32.0048 23.178C34.5369 22.9284 36.8723 21.9483 39.2799 21.2374C42.2993 20.347 44.3315 21.1674 45.8963 23.9373C46.1183 24.3304 46.3421 24.7182 46.1814 25.228C45.3115 24.6284 44.4524 24.0396 43.597 23.4472C42.0521 22.3773 40.3501 22.1206 38.5291 22.4797C38.058 22.573 37.5834 22.6502 37.1105 22.7382C32.6653 23.5675 29.6784 26.7234 29.1351 31.1646C28.4637 36.6505 31.4597 41.1689 36.8001 42.7037C37.6845 42.9586 38.585 42.8114 39.4874 42.7091C39.1644 42.5045 38.8287 42.3986 38.4966 42.2837C35.5783 41.2802 33.0732 39.7723 32.039 36.6649C31.1872 34.1086 31.1547 31.5146 31.9308 28.9063C33.3096 24.2712 39.8412 21.0274 44.133 25.1921C44.4759 25.5242 44.8802 25.7935 45.2628 26.0807C45.7447 26.4397 46.2428 26.7647 46.8366 26.9298C47.9231 27.2332 48.858 26.6946 49.0601 25.596C49.1973 24.8492 49.1828 24.0917 48.7786 23.4185C48.5132 22.9733 48.5909 22.8189 49.1016 22.7471C49.634 22.6717 49.9445 22.3091 50.0022 21.7742C50.1376 20.5283 49.8163 19.4477 48.7334 18.717C48.3977 18.4908 48.3472 18.419 48.6324 18.0833C49.7459 16.7693 49.412 15.1932 47.8996 14.3225C47.3293 13.994 46.6868 13.9348 45.8584 13.8378C46.8673 13.2401 47.6722 12.68 47.3149 11.567C46.8474 10.1057 45.6039 9.90647 44.272 9.94417C44.7394 8.68398 44.5319 8.03414 43.5049 7.43815C42.5863 6.90499 41.6135 7.11323 40.6353 7.30531C40.8789 5.7579 40.601 5.10806 39.5362 4.61798C38.484 4.13509 37.504 4.43129 36.5474 4.96983C36.4229 3.34882 35.9085 2.60204 34.6903 2.26814C33.4793 1.93604 32.4253 2.33277 31.3622 3.16392C31.512 1.91988 30.6548 1.44238 29.9852 0.841003H29.0828C28.2977 1.53752 27.3285 2.06888 26.9603 3.27163C26.5001 2.0635 25.6031 1.38314 24.5744 0.841003H23.8525C23.1991 1.45674 22.3924 1.96835 22.4844 3.09929C20.2591 1.40109 17.357 2.07247 17.2938 4.907C14.5162 3.7635 13.132 4.55515 13.1645 7.26582C10.1847 6.80447 8.91054 7.76487 9.59817 9.9711C8.34564 9.86698 7.20501 10.0878 6.6383 11.3426C6.10408 12.5274 6.95414 13.1862 7.98648 13.863C7.57679 13.8989 7.37827 13.9132 7.18154 13.9312C5.21251 14.1089 3.53765 16.5198 5.28831 18.1444C5.63844 18.4693 5.36952 18.5429 5.13671 18.7116H5.13851Z" fill="#E8ECDF"/>
<path id="Vector_2" d="M21.8596 71.4945C20.8568 72.3269 20.7246 72.2461 20.4436 70.8331C20.3571 70.4028 20.5678 70.2638 20.7703 70.0834C21.2243 69.6757 21.6326 69.2191 21.9249 68.6517C22.1977 68.1199 22.7644 67.4078 22.1601 66.9625C21.5901 66.5435 21.1655 67.3683 20.8732 67.8944C19.8688 69.6945 19.2449 71.6749 18.8677 73.7699C18.7566 74.3843 18.8775 74.8428 19.2563 75.2486H19.4197C20.1382 74.7789 20.3881 73.9766 20.5335 73.1179C20.5939 72.7572 20.5171 72.4509 21.061 72.5279C21.5346 72.5956 21.9119 72.1427 22.0719 71.5415C21.9608 71.5152 21.8923 71.472 21.8645 71.4964L21.8596 71.4945ZM19.6026 74.4858C19.5111 73.505 19.7871 72.7778 20.0092 72.0375C20.1987 72.8699 20.006 73.6158 19.6026 74.4858Z" fill="#E8ECDF"/>
<path id="Vector_3" d="M51.6253 65.0096C51.8593 65.0096 52.1292 65.2658 52.4316 64.4475H51.3553C34.8111 64.4475 18.2687 64.4475 1.72448 64.4475C1.4257 64.4475 1.12513 64.488 0.826355 64.5105V64.9601C1.00634 64.9826 1.18452 65.0185 1.36451 65.0185C18.1175 65.0185 34.8705 65.0185 51.6253 65.0096Z" fill="#888F77"/>
<path id="Vector_4" d="M52.2768 71.6676C52.0265 72.0028 51.7313 72.3137 51.2287 72.3025C51.4454 71.2513 51.2835 70.3024 50.7429 69.456C50.5523 69.1563 50.2253 69.1975 50.1898 69.4709C50.0927 70.2331 49.6742 70.9054 49.4313 71.8156C50.1543 71.4504 50.1114 70.7912 50.5317 70.456C50.8699 70.8923 50.5672 71.2294 50.457 71.5908C50.3449 71.9616 50.0833 72.3886 50.5374 72.6864C50.9241 72.9411 51.3576 72.8662 51.7705 72.6639C52.3067 72.3999 52.5795 71.853 53.0316 71.501V71.3137C52.6823 71.2294 52.4749 71.4017 52.2731 71.6714L52.2768 71.6676Z" fill="#E8ECDF"/>
<path id="Vector_5" d="M49.0418 54.8887C48.5524 54.8469 48.0739 54.7741 47.7861 55.4234C47.3237 56.4674 46.7445 57.4586 46.1598 58.5772C45.5751 57.4677 44.9814 56.4565 44.5029 55.3925C44.1827 54.6814 43.6322 54.8487 43.1447 54.9032C42.6518 54.9578 42.8874 55.4361 42.8838 55.7181C42.8604 57.3513 42.9 58.9864 42.8586 60.6196C42.8424 61.2326 42.9756 61.4508 43.6304 61.4472C44.2565 61.4435 44.377 61.2162 44.3482 60.6597C44.3086 59.8994 44.3374 59.1355 44.3374 58.3716C44.7764 58.8427 45.048 59.341 45.3287 59.8321C45.7532 60.5724 46.5448 60.5633 46.9621 59.8103C47.2356 59.3174 47.4928 58.8172 47.7573 58.3207C47.8077 58.3353 47.8598 58.3516 47.9102 58.3662C47.9102 59.1519 47.9606 59.9412 47.8958 60.7215C47.8382 61.4017 48.1729 61.4163 48.6856 61.4345C49.2325 61.4545 49.4052 61.3035 49.3926 60.7324C49.353 59.0682 49.3962 57.4041 49.362 55.7399C49.3566 55.4543 49.6588 54.9378 49.0418 54.8851V54.8887Z" fill="#E8ECDF"/>
<path id="Vector_6" d="M25.5084 51.6351C25.5084 51.666 25.5119 51.6969 25.5084 51.726C25.3958 52.4157 25.8158 52.443 26.3127 52.423C26.781 52.403 27.2547 52.5358 27.2279 51.7333C27.1743 50.0719 27.1868 48.4069 27.2243 46.7455C27.2386 46.1086 27.1207 45.8266 26.4075 45.8466C25.7479 45.8648 25.4708 45.9831 25.4905 46.74C25.5352 48.416 25.4923 48.4269 24.25 48.4142C22.7342 48.3978 22.9684 48.6398 22.9433 47.064C22.9398 46.882 22.9237 46.6982 22.9451 46.5199C23.0399 45.7829 22.5483 45.8666 22.0961 45.8702C21.651 45.8739 21.1898 45.7701 21.231 46.5144C21.2792 47.4188 21.2417 48.3286 21.2417 49.2349C21.2417 50.0519 21.2649 50.869 21.2327 51.6842C21.2131 52.2028 21.3328 52.4212 21.9102 52.443C22.686 52.4739 23.0935 52.2956 22.9487 51.4149C22.9005 51.1201 22.9594 50.8107 22.938 50.5087C22.9022 50.0283 23.047 49.819 23.5743 49.7972C25.4726 49.7171 25.4726 49.6953 25.5084 51.6369V51.6351Z" fill="#E8ECDF"/>
<path id="Vector_7" d="M9.19932 52.4463C10.0832 52.4243 10.9671 52.4572 11.8492 52.4316C12.7083 52.406 13.5425 52.21 13.8879 51.287C14.2351 50.3585 13.9322 49.5691 13.0147 48.9977C13.8065 48.4904 14.0137 47.7652 13.7516 46.9832C13.4735 46.1554 12.71 45.9357 11.959 45.8844C11.0202 45.8203 10.0743 45.8679 9.13378 45.8459C8.74233 45.8368 8.62896 46.0162 8.63074 46.3917C8.64136 48.2194 8.64491 50.0471 8.62719 51.873C8.62365 52.3144 8.78484 52.4554 9.19578 52.4444L9.19932 52.4463ZM11.0893 47.1462C11.6065 47.1645 12.3026 47.0711 12.2708 47.8531C12.2406 48.5948 11.5392 48.3568 11.2895 48.4044C10.6288 48.4447 10.2214 48.5197 10.2214 47.778C10.2214 47.0217 10.6571 47.1297 11.0875 47.1444L11.0893 47.1462ZM11.1442 49.7248C11.711 49.7431 12.4922 49.5984 12.4656 50.4885C12.4408 51.3199 11.6738 51.0929 11.1584 51.1496C10.6128 51.2009 10.2107 51.2046 10.2178 50.3951C10.2267 49.5801 10.6925 49.7102 11.1442 49.7248Z" fill="#E8ECDF"/>
<path id="Vector_8" d="M42.1967 50.2904C42.4582 50.6657 42.7539 51.0484 42.8922 51.4711C43.2181 52.4568 43.9667 52.4933 44.8309 52.424C45.2591 52.3894 45.3236 52.2455 45.1189 51.9193C44.6641 51.2014 44.3685 50.3815 43.5479 49.8112C44.7304 49.1953 45.189 48.3717 44.9654 47.406C44.738 46.4239 43.9932 45.9047 42.7046 45.87C41.7912 45.8464 40.8758 45.8937 39.9643 45.8482C39.3522 45.8172 39.2252 46.0632 39.2347 46.5916C39.2613 48.2879 39.2707 49.9861 39.2309 51.6824C39.2158 52.3074 39.4678 52.4131 40.0553 52.4386C40.8114 52.4696 41.1866 52.2928 41.0616 51.5039C41.0199 51.2379 41.0369 50.9573 41.0616 50.6876C41.0843 50.4434 40.9251 50.0954 41.3477 50.0244C41.668 49.9697 42.0034 50.0116 42.2005 50.2922L42.1967 50.2904ZM41.0218 47.8597C40.9839 47.1109 41.414 47.0945 41.9712 47.151C42.5435 47.1965 43.3072 47.0872 43.311 47.9053C43.3148 48.871 42.4165 48.6068 41.8234 48.7106C41.0976 48.8364 41.0521 48.4209 41.0237 47.8616L41.0218 47.8597Z" fill="#E8ECDF"/>
<path id="Vector_9" d="M27.2691 58.9593C27.784 58.8365 28.1064 59.176 28.3056 59.6654C28.3833 59.8569 28.493 60.0338 28.5859 60.2198C29.2426 61.5111 29.3996 61.5815 30.8294 61.2059C30.3281 60.3715 30.0411 59.4108 29.2848 58.7661C30.3584 58.0888 30.7197 57.3123 30.4766 56.2504C30.274 55.3709 29.5464 54.8815 28.358 54.8599C27.5426 54.8436 26.7272 54.8725 25.9135 54.8472C25.5488 54.8364 25.4256 54.9592 25.429 55.3565C25.4458 57.1913 25.434 59.0243 25.4391 60.8591C25.4391 61.0488 25.3766 61.2564 25.6636 61.3522C26.4976 61.6303 26.9821 61.2944 26.9838 60.395C26.9838 60.2451 26.9551 60.0862 26.9888 59.9453C27.0716 59.6094 26.7238 59.0911 27.2674 58.9593H27.2691ZM26.95 56.8933C26.9433 56.2432 27.1442 56.0373 27.7131 56.1258C27.9325 56.1601 28.1604 56.1312 28.3799 56.1655C28.7851 56.2287 29.0501 56.4509 29.0315 56.9331C29.0147 57.3701 28.7783 57.5669 28.39 57.6012C28.1689 57.6211 27.946 57.6446 27.497 57.6897C27.1408 57.7764 26.9568 57.538 26.95 56.8933Z" fill="#E8ECDF"/>
<path id="Vector_10" d="M12.4974 61.4468C14.5228 61.4739 15.8111 60.2127 15.8276 58.1883C15.8461 56.135 14.615 54.8666 12.5877 54.8467C10.5678 54.8287 9.26664 56.0899 9.22793 58.0999C9.19107 60.0846 10.4959 61.4197 12.4955 61.4468H12.4974ZM11.2478 56.8748C11.6478 56.2 12.2689 56.0394 12.9876 56.2018C13.7119 56.3659 14.1395 57.1328 14.1358 58.154C14.1321 59.1734 13.6935 59.9384 12.971 60.0918C12.2504 60.2452 11.633 60.0792 11.2405 59.3989C11.0212 59.0182 10.9935 58.6015 10.9843 58.1107C10.9917 57.73 11.0046 57.2807 11.2478 56.873V56.8748Z" fill="#E8ECDF"/>
<path id="Vector_11" d="M22.6557 54.9337C22.1007 54.8836 21.8045 54.9856 21.8307 55.6335C21.8776 56.7629 21.8401 57.8959 21.797 59.0253C21.7726 59.666 21.4257 60.0848 20.7058 60.1332C19.8771 60.1887 19.3877 59.7305 19.3558 58.7836C19.3202 57.6829 19.3483 56.5803 19.3371 55.4778C19.3352 55.2666 19.4346 55.0232 19.0521 54.9301C18.0528 54.6867 17.6328 54.9623 17.6309 55.927C17.6309 56.3745 17.6309 56.8202 17.6309 57.2676C17.6309 57.7151 17.6234 58.1608 17.6328 58.6082C17.6703 60.5126 18.6115 61.4272 20.5483 61.4469C22.4813 61.4666 23.5107 60.5627 23.595 58.7049C23.6419 57.665 23.5575 56.6179 23.625 55.5798C23.6794 54.7475 23.1113 54.9748 22.6538 54.9337H22.6557Z" fill="#E8ECDF"/>
<path id="Vector_12" d="M34.9583 51.6236C35.1208 52.5876 35.8264 52.4351 36.4778 52.426C36.8243 52.4224 36.9019 52.2554 36.7684 51.9686C35.8823 50.0551 35.0071 48.1344 34.0921 46.2355C33.8359 45.7054 32.7044 45.72 32.4499 46.2537C31.4935 48.2597 30.5713 50.2839 29.6293 52.3189C31.0351 52.5549 31.0459 52.5622 31.6992 51.4566C31.8417 51.217 31.9951 51.1044 32.2622 51.1062C32.9534 51.1117 33.6428 51.1226 34.3339 51.1026C34.7183 51.0899 34.9096 51.3205 34.9601 51.6236H34.9583ZM33.2421 49.8391C32.5762 49.8609 32.3561 49.6993 32.7134 49.053C32.9119 48.6936 33.0526 48.3015 33.3035 47.7369C33.5309 48.2651 33.6734 48.5883 33.8088 48.9151C34.1932 49.8373 34.1914 49.8064 33.2421 49.8391Z" fill="#E8ECDF"/>
<path id="Vector_13" d="M36.8367 61.1583C37.3912 61.3467 37.954 61.4347 38.5924 61.4472C38.7767 61.4293 39.0235 61.4185 39.2654 61.3808C40.3054 61.2175 40.9586 60.5481 41.0244 59.5879C41.087 58.6582 40.6608 58.0839 39.5962 57.7035C39.1568 57.5455 38.7027 57.4325 38.2567 57.2961C38.0083 57.2189 37.7795 57.0986 37.7911 56.7648C37.8026 56.4023 38.0494 56.2462 38.3308 56.1941C38.8837 56.0918 39.4283 56.1636 39.9203 56.4669C40.228 56.6571 40.4617 56.7505 40.5752 56.2677C40.6542 55.9321 41.0294 55.5588 40.4897 55.3003C39.3609 54.7601 38.2189 54.6291 37.1032 55.3129C36.4796 55.6952 36.1949 56.3359 36.2443 57.1148C36.292 57.8578 36.7149 58.3011 37.3336 58.529C37.8503 58.7193 38.3785 58.8682 38.9001 59.0405C39.1914 59.1374 39.5287 59.2379 39.4662 59.6669C39.4069 60.0689 39.0696 60.1066 38.7635 60.1353C38.1514 60.1927 37.5607 60.1012 37.0193 59.7674C36.7182 59.5825 36.5849 59.6597 36.4039 60.0025C36.0617 60.6486 36.2344 60.9555 36.8334 61.1601L36.8367 61.1583Z" fill="#E8ECDF"/>
<path id="Vector_14" d="M4.18022 56.2556C4.91407 56.1827 5.18753 56.3941 5.13388 57.2289C5.05426 58.4336 5.14772 59.6492 5.10099 60.8594C5.0733 61.5957 5.53196 61.4372 5.89369 61.4117C6.25369 61.3861 6.81619 61.6942 6.7885 60.8667C6.75561 59.8698 6.78158 58.8692 6.78158 57.8704C6.78158 56.4123 6.77985 56.3777 8.14889 56.2902C8.71831 56.2538 8.60928 55.8947 8.61966 55.5503C8.63178 55.1858 8.68889 54.8212 8.12639 54.8559C7.40985 54.8996 6.68984 54.8668 5.97157 54.8668C5.31042 54.8668 4.6458 54.9105 3.98983 54.854C3.37022 54.7994 3.22656 55.0418 3.22656 55.6651C3.22656 56.5308 3.79599 56.2957 4.18022 56.2574V56.2556Z" fill="#E8ECDF"/>
<path id="Vector_15" d="M5.78022 70.2731C5.51219 70.0352 5.15543 69.8968 4.85227 69.7216C5.16652 69.504 5.52328 69.3214 5.795 69.0539C6.3551 68.5024 6.24789 67.6779 5.60276 67.2426C4.6933 66.6266 2.90026 66.7483 2.03147 67.4898C2.31244 67.7849 2.59526 67.5544 2.87623 67.4972C2.94832 67.4806 3.02041 67.464 3.0925 67.4474C3.07772 67.5193 3.06293 67.5912 3.04999 67.6632C2.56568 69.017 2.09247 70.3727 1.59337 71.7192C1.44365 72.125 1.55456 72.3943 1.94274 72.5086C2.34756 72.6285 2.3642 72.2855 2.43444 72.0198C2.51208 71.7247 2.6082 71.4333 2.68953 71.1382C3.06847 69.7936 3.08881 69.7917 4.51769 70.1145C4.95579 70.2141 5.39203 70.3119 5.49185 70.808C5.59352 71.3208 5.27188 71.6878 4.88739 71.9645C4.05742 72.564 3.0925 72.6968 2.09801 72.7337C1.86325 72.7429 1.47322 72.4828 1.42886 72.9126C1.39189 73.2741 1.77822 73.4272 2.07213 73.4401C3.50842 73.5102 4.8227 73.1468 5.81904 72.0623C6.32183 71.5126 6.4161 70.832 5.78022 70.2713V70.2731ZM3.08696 69.6257C3.33096 68.9469 3.50287 68.3917 3.73578 67.8642C3.84484 67.6171 3.83005 67.1873 4.27184 67.2353C4.67297 67.2777 5.07964 67.4013 5.27003 67.7941C5.44194 68.1464 5.38649 68.5282 5.12215 68.827C4.62491 69.3896 3.95945 69.5556 3.08511 69.6257H3.08696Z" fill="#E8ECDF"/>
<path id="Vector_16" d="M35.6501 69.7146C35.916 69.5256 36.1802 69.3843 36.3922 69.1788C37.0477 68.544 36.9597 67.5623 36.1769 67.1642C35.1364 66.6339 34.1172 66.8082 33.0914 67.4045C33.416 67.8375 33.6818 67.5531 33.9476 67.4761C34.0096 67.4687 34.0715 67.4632 34.1319 67.4559C34.109 67.5128 34.0879 67.5697 34.065 67.6247C34.0242 67.7697 33.9884 67.9146 33.9427 68.0577C33.5611 69.2595 33.1828 70.4632 32.793 71.6632C32.674 72.032 32.6968 72.3457 33.0572 72.4778C33.4649 72.6265 33.473 72.2375 33.5432 71.9531C33.6084 71.6889 33.6687 71.4246 33.7323 71.1604C34.0683 69.7935 34.0911 69.7861 35.3387 70.1017C35.7203 70.199 36.1166 70.2779 36.2095 70.7769C36.3122 71.3274 36.0154 71.7017 35.642 71.9898C34.9228 72.5457 34.0993 72.676 33.2513 72.7145C33.036 72.7237 32.6854 72.4907 32.6348 72.8558C32.581 73.2576 32.9528 73.3934 33.248 73.4283C34.0797 73.5255 34.8543 73.2613 35.5898 72.8485C36.2128 72.4999 36.764 72.065 36.8259 71.1843C36.8895 70.2632 36.1932 70.0852 35.6453 69.7164L35.6501 69.7146ZM34.6439 69.5678C34.2575 69.6375 34.1221 69.5384 34.2363 69.1953C34.3765 68.7696 34.4955 68.333 34.6668 67.9219C34.7777 67.6541 34.7451 67.1788 35.1788 67.2467C35.5229 67.2999 35.8736 67.41 36.0415 67.8229C36.1948 68.199 36.1035 68.5531 35.8948 68.8467C35.5539 69.3256 35.037 69.443 34.6456 69.5678H34.6439Z" fill="#E8ECDF"/>
<path id="Vector_17" d="M33.6525 54.8945C33.2825 54.9562 32.6353 54.5456 32.6371 55.3778C32.6371 57.2221 32.652 59.0663 32.6297 60.9106C32.6204 61.6774 33.1839 61.3939 33.541 61.4048C33.9129 61.4175 34.4578 61.6356 34.4262 60.8797C34.3871 59.9748 34.4169 59.0663 34.4169 58.1596C34.4169 57.2529 34.3834 56.3444 34.4281 55.4396C34.4597 54.7963 34.045 54.8291 33.6525 54.8945Z" fill="#E8ECDF"/>
<path id="Vector_18" d="M14.0077 70.3208C13.9679 70.1251 14.0428 69.8635 13.7621 69.8488C13.4926 69.8342 13.4209 70.0354 13.3682 70.3062C13.2741 70.7965 13.0317 71.2228 12.6888 71.5082C12.1721 71.9381 12.0844 72.4394 12.4512 72.979C12.8674 73.5919 13.4815 73.5553 13.944 73.1528C14.3666 72.7851 14.8993 72.5455 15.2278 71.81C14.9455 71.9198 14.6951 72.0753 14.4399 72.3168C14.2821 71.5996 14.1369 70.963 14.0077 70.3227V70.3208ZM13.5165 72.229C13.4081 72.3552 13.2279 72.143 13.1434 71.9985C12.9041 71.5832 13.2486 71.4423 13.5325 71.0654C13.5086 71.5758 13.7701 71.9326 13.5165 72.229Z" fill="#E8ECDF"/>
<path id="Vector_19" d="M17.9941 72.2373C17.8127 71.6087 17.6372 70.9838 17.4519 70.3608C17.3987 70.1785 17.5643 69.8847 17.1995 69.8512C16.8663 69.8196 16.75 70.0316 16.679 70.2938C16.5015 70.9559 16.1269 71.5975 15.4585 71.7556C15.3796 71.7742 15.3027 71.7947 15.2278 71.817C15.2988 72.8008 15.5078 73.4685 16.5784 73.448C17.4716 73.4294 18.6763 72.5163 18.8282 71.7184C18.4555 71.7482 18.4634 72.3191 17.9921 72.2354L17.9941 72.2373ZM16.9905 72.241C16.1269 72.0067 16.117 71.9658 16.7697 71.2051C17.0023 71.5715 17.0359 71.897 16.9905 72.241Z" fill="#E8ECDF"/>
<path id="Vector_20" d="M44.1275 71.7148C43.904 71.9516 43.6878 72.407 43.4007 72.2795C42.9955 72.0991 43.3753 71.7038 43.4443 71.4197C43.6678 70.5125 43.4825 70.1463 42.5594 70.1172C41.9871 70.099 42.0398 69.9897 42.3287 69.6418C42.7575 69.1244 43.07 68.5397 43.2681 67.8985C43.3753 67.5505 43.5079 67.1352 43.1118 66.9184C42.7102 66.6998 42.4413 67.0314 42.2215 67.3283C41.68 68.0624 41.2894 68.8785 40.9714 69.731C40.677 70.5234 40.3591 71.3122 40.4445 72.1884C40.4699 72.458 40.4445 72.7786 40.7897 72.8405C41.1168 72.8988 41.2603 72.6219 41.382 72.3778C41.5437 72.0536 41.6637 71.7075 41.8454 71.396C41.9998 71.1318 42.1143 70.6491 42.5049 70.8203C42.7956 70.9479 42.5849 71.3541 42.5213 71.6419C42.4431 71.9898 42.2923 72.3997 42.6921 72.6274C43.0845 72.8515 43.5188 72.795 43.8786 72.509C44.2456 72.2157 44.5654 71.8769 44.6308 71.3213C44.2111 71.2594 44.2547 71.5781 44.1257 71.7129L44.1275 71.7148Z" fill="#E8ECDF"/>
<path id="Vector_21" d="M17.6787 52.4328C18.009 52.4785 18.2539 52.4401 18.2259 51.7877C18.1889 50.9398 18.217 50.0863 18.217 49.2347C18.217 48.3228 18.1902 47.409 18.2259 46.5008C18.2527 45.8447 18.0039 45.8173 17.6761 45.8575C17.3866 45.8922 17.018 45.6747 17.0282 46.4587C17.0511 48.2515 17.0511 50.0443 17.0282 51.8371C17.018 52.6284 17.393 52.3926 17.6787 52.4328Z" fill="#E8ECDF"/>
<path id="Vector_22" d="M29.3663 66.9179C29.0132 66.7093 28.8035 67.0105 28.6368 67.2409C27.6332 68.6144 26.8858 70.1131 26.6439 71.8204C26.5256 72.6586 27.1278 73.0868 27.8859 72.7113C28.4558 72.43 28.8017 71.9202 29.0992 71.1527C28.4666 71.3741 28.4289 71.8458 28.1386 72.0871C27.9845 72.2141 27.8733 72.4572 27.6242 72.3466C27.3823 72.2395 27.4611 71.9891 27.4396 71.7877C27.3966 71.3559 27.6045 71.0584 27.8931 70.7644C28.7264 69.9135 29.3 68.8992 29.5849 67.7344C29.6566 67.4441 29.6763 67.0994 29.3681 66.9161L29.3663 66.9179Z" fill="#E8ECDF"/>
<path id="Vector_23" d="M8.59757 71.7535C8.36473 71.9969 8.16032 72.5492 7.83328 72.3167C7.46179 72.0533 7.61643 71.4991 7.82439 71.0885C7.9026 70.9359 8.0679 70.8305 8.18698 70.6961C8.94595 69.8313 9.50584 68.852 9.79022 67.7202C9.86843 67.4113 9.83821 67.0879 9.54672 66.9153C9.20012 66.71 8.9886 67.0171 8.82508 67.246C7.85816 68.5977 7.15074 70.0729 6.85569 71.7353C6.78993 72.1096 6.81659 72.4893 7.15252 72.7109C7.47068 72.9217 7.85816 72.8726 8.16566 72.6819C8.66511 72.3694 9.03482 71.9279 9.21078 71.292C8.76998 71.2193 8.76109 71.5845 8.59935 71.7535H8.59757Z" fill="#E8ECDF"/>
<path id="Vector_24" d="M47.6829 72.7529C47.4377 72.0818 47.9361 71.6183 47.9668 71.008C48.0135 70.0873 47.978 69.8419 47.2764 69.8482C46.5458 69.8545 45.6716 70.8025 45.3603 71.9413C45.2329 72.409 45.099 72.9186 45.491 73.2688C45.8394 73.5813 46.1974 73.4555 46.5232 73.1262C46.6652 72.9836 46.7232 72.7382 47.0313 72.9878C47.841 73.6463 48.7845 72.8431 48.8313 71.4652C48.3942 71.8385 48.27 72.6355 47.6813 72.7529H47.6829ZM47.4732 70.9346C47.0829 71.6183 46.741 72.367 46.0281 72.9605C45.9926 71.7169 46.4345 71.0122 46.9974 70.3956C47.1248 70.2572 47.2942 70.1942 47.4313 70.3578C47.5635 70.5151 47.57 70.7689 47.4748 70.9346H47.4732Z" fill="#E8ECDF"/>
<path id="Vector_25" d="M25.2809 72.2983C25.166 72.3945 25.0242 72.4874 24.8824 72.4161C24.7334 72.3415 24.7621 72.1689 24.8016 72.0445C24.9022 71.7293 25.0278 71.4207 25.1463 71.1105C25.2109 70.9396 25.2109 70.7721 25.0224 70.6808C24.8106 70.5763 24.6167 70.6227 24.4947 70.8285C24.4085 70.9728 24.3457 71.1304 24.247 71.2664C23.9741 71.6364 23.7479 72.3896 23.3405 72.2237C22.8666 72.0296 23.3279 71.4157 23.4733 70.9977C23.5361 70.8152 23.6815 70.6145 23.4302 70.495C23.1879 70.3822 22.9635 70.4801 22.8378 70.7123C22.6242 71.1072 22.4447 71.5136 22.4304 71.9649C22.4196 72.2801 22.4483 72.5986 22.7894 72.7496C23.0694 72.8723 23.3674 72.8275 23.6295 72.6401C23.7838 72.5306 23.8879 72.2651 24.1518 72.5936C24.4552 72.9702 24.9147 72.8707 25.2827 72.6699C25.6884 72.4476 26.1443 72.2087 26.0025 71.6928C25.7835 71.8769 25.534 72.0876 25.2827 72.2983H25.2809Z" fill="#E8ECDF"/>
<path id="Vector_26" d="M39.0897 71.2012C39.1952 70.9835 39.3285 70.7804 39.4396 70.5663C39.547 70.3614 39.7729 70.1218 39.5007 69.9278C39.223 69.7321 38.9823 69.9315 38.7971 70.151C38.4398 70.5773 38.2361 71.0786 38.1121 71.6147C38.014 72.0391 37.9121 72.5294 38.3954 72.7307C38.899 72.9411 39.4489 72.9063 39.8303 72.3209C38.7805 72.3721 38.6361 72.1379 39.0878 71.2012H39.0897Z" fill="#E8ECDF"/>
<path id="Vector_27" d="M10.3184 71.126C10.4274 70.91 10.5566 70.705 10.6729 70.4926C10.7763 70.3078 10.9295 70.0954 10.7024 69.9288C10.4661 69.7568 10.2372 69.8849 10.06 70.0771C9.65753 70.5109 9.44522 71.0418 9.3123 71.6056C9.21076 72.0303 9.10922 72.5227 9.58553 72.7277C10.0895 72.9437 10.6378 72.9034 11.0274 72.3286C9.96214 72.3598 9.82368 72.109 10.3184 71.126Z" fill="#E8ECDF"/>
<path id="Vector_28" d="M11.1383 68.6555C10.8215 68.697 10.4073 68.7251 10.4281 69.0166C10.4405 69.1958 10.7262 69.2332 10.9685 69.2479C11.275 69.1904 11.6104 69.145 11.627 68.8976C11.6394 68.705 11.3971 68.6208 11.1383 68.6555Z" fill="#E8ECDF"/>
<path id="Vector_29" d="M39.9808 68.6492C39.6783 68.6642 39.3557 68.7217 39.2508 68.938C39.154 69.1364 39.4182 69.2254 39.6481 69.2432C40.0009 69.2706 40.2993 69.1816 40.4304 68.927C40.4183 68.7313 40.2449 68.6355 39.9808 68.6492Z" fill="#E8ECDF"/>
</g>
</svg>
