<svg width="23" height="15" viewBox="0 0 23 15" fill="none" xmlns="http://www.w3.org/2000/svg">
<path id="Vector 103" d="M1.00488 6.42468C0.452598 6.42468 0.00488281 6.8724 0.00488281 7.42468C0.00488281 7.97697 0.452598 8.42468 1.00488 8.42468V6.42468ZM22.6783 8.13179C23.0688 7.74127 23.0688 7.1081 22.6783 6.71758L16.3143 0.353615C15.9238 -0.0369096 15.2906 -0.0369096 14.9001 0.353615C14.5096 0.744139 14.5096 1.3773 14.9001 1.76783L20.557 7.42468L14.9001 13.0815C14.5096 13.4721 14.5096 14.1052 14.9001 14.4958C15.2906 14.8863 15.9238 14.8863 16.3143 14.4958L22.6783 8.13179ZM1.00488 8.42468H21.9712V6.42468H1.00488V8.42468Z" fill="#616751"/>
</svg>
