<svg width="144" height="35" viewBox="0 0 144 35" fill="none" xmlns="http://www.w3.org/2000/svg">
<path d="M143.032 28.2339H137.089V21.244C137.089 19.5218 137.089 19.5171 135.404 19.5078C133.905 19.5001 132.405 19.5327 130.906 19.4939C130.321 19.4784 130.154 19.6583 130.16 20.2386C130.188 22.8747 130.172 25.5109 130.172 28.2137H124.444V6.18762H130.172C130.172 6.4607 130.172 6.73377 130.172 7.00685C130.172 9.23025 130.191 11.4536 130.16 13.677C130.152 14.2278 130.314 14.3939 130.861 14.3846C132.669 14.3551 134.479 14.3489 136.287 14.3892C136.928 14.4032 137.145 14.217 137.136 13.5638C137.103 11.3404 137.123 9.11543 137.123 6.89048V6.18917H143.032V28.2323V28.2339Z" fill="#E8ECDF"/>
<path d="M57.14 16.8205C58.5612 17.4458 59.5542 18.1921 60.2012 19.3325C61.894 22.3146 60.5038 26.237 57.1787 27.5512C56.1004 27.9779 54.8855 28.2153 53.725 28.2463C50.341 28.3363 46.9539 28.2789 43.5684 28.2789H42.6623V6.18453C42.8407 6.17211 43.0378 6.14574 43.2348 6.14574C46.4155 6.14263 49.5962 6.13488 52.7769 6.14884C54.1827 6.15505 55.5325 6.38778 56.8343 6.99445C59.8816 8.41568 61.5883 14.0044 57.6334 16.5909C57.5279 16.6592 57.4037 16.6995 57.1415 16.8221L57.14 16.8205ZM50.7009 23.7576C51.3712 23.7576 52.0431 23.7762 52.7133 23.7545C54.1222 23.7079 55.0438 22.8065 55.0469 21.4985C55.05 20.2759 54.0896 19.3325 52.7351 19.3015C51.3449 19.2689 49.9515 19.3077 48.5613 19.2829C48.1579 19.2767 47.9873 19.4085 47.9888 19.8042C47.9935 20.9399 47.9966 22.0757 47.9888 23.2114C47.9857 23.6521 48.1874 23.7855 48.6125 23.7685C49.3076 23.739 50.0058 23.7607 50.7025 23.7576H50.7009ZM50.4899 10.7198C49.8445 10.7198 49.1959 10.6779 48.5567 10.7446C48.3519 10.7663 48.0245 11.0642 48.0152 11.2504C47.964 12.307 47.9624 13.3683 48.0167 14.4249C48.026 14.6126 48.3736 14.9276 48.5738 14.9338C49.8352 14.9742 51.1013 14.9804 52.3627 14.9292C53.4705 14.8842 54.3596 13.885 54.3301 12.8221C54.2975 11.6554 53.4208 10.7539 52.2711 10.7229C51.6784 10.7074 51.0842 10.7198 50.4899 10.7198Z" fill="#E8ECDF"/>
<path d="M83.0418 17.1371C82.8882 21.3201 81.6904 24.8189 78.1746 27.0982C72.9132 30.5101 65.8877 28.1889 63.5774 22.3488C61.9312 18.1875 62.1298 14.1069 64.4354 10.2931C67.6363 5.00072 75.1816 4.23269 79.6222 8.5414C82.1342 10.9789 82.8231 14.0386 83.0403 17.1371H83.0418ZM77.5772 17.4241C77.5912 15.5219 77.1505 13.9859 76.1125 12.6531C74.5889 10.6965 71.3679 10.5709 69.6844 12.3877C67.6565 14.5755 67.3384 18.7368 69.0126 21.1944C71.011 24.1285 74.4663 24.1564 76.5129 21.2519C77.3693 20.0354 77.5105 18.6266 77.5757 17.4241H77.5772Z" fill="#E8ECDF"/>
<path d="M0.968506 17.5808C1.22917 7.63063 8.85978 -0.0108494 18.6145 1.15632e-05C28.7307 0.0108725 35.9812 8.14575 35.8959 17.7003C35.8121 27.1121 28.3614 34.8948 18.5292 34.8467C8.66584 34.8001 1.2571 27.4023 0.968506 17.5808ZM18.5928 32.4495C27.0736 32.403 33.5918 25.4442 33.5142 17.2333C33.4413 9.46458 26.5942 2.48407 18.9915 2.38477C10.1817 2.27151 3.61238 9.35907 3.44171 17.2286C3.26948 25.1339 9.8621 32.3782 18.5928 32.4495Z" fill="#888F77"/>
<path d="M83.9961 24.8593C85.1675 23.6134 86.2955 22.4125 87.3646 21.2752C88.6415 22.0215 89.8145 22.8252 91.0883 23.4117C91.8796 23.7763 92.8168 23.9035 93.6996 23.9687C94.5328 24.0292 95.262 23.601 95.7632 22.9198C96.5716 21.8213 95.9028 20.2977 94.4428 19.9144C92.8711 19.5033 91.259 19.224 89.7167 18.7259C86.7672 17.7733 85.0155 15.4956 84.8867 12.6531C84.7688 10.0496 86.5453 7.48794 89.3211 6.3165C92.674 4.90147 95.847 5.61985 98.9082 7.23503C99.653 7.62758 100.317 8.17218 101.107 8.70747C99.9912 9.9208 98.9532 11.0503 97.9183 12.1752C97.0572 11.7144 96.2473 11.2148 95.3846 10.8347C94.3296 10.3708 93.2217 10.1535 92.0658 10.5213C91.0418 10.8486 90.4801 11.46 90.4429 12.3521C90.4072 13.2086 90.9285 13.9238 91.9836 14.2342C93.0945 14.5615 94.2551 14.7213 95.3629 15.0549C96.4676 15.387 97.5972 15.7237 98.6057 16.2652C102.634 18.4265 102.351 23.9454 99.6282 26.4233C97.698 28.1797 95.4079 28.763 92.9161 28.6963C89.4933 28.6048 86.5748 27.2363 83.9961 24.8577V24.8593Z" fill="#E8ECDF"/>
<path d="M122.289 10.3506C120.748 11.3622 119.269 12.3335 117.757 13.3265C116.996 12.1814 116.087 11.283 114.747 10.996C112.771 10.574 110.678 11.5266 109.702 13.494C108.393 16.1301 108.489 18.8097 110.059 21.331C111.502 23.649 115.479 24.7119 117.752 21.0533C119.249 22.0354 120.747 23.0176 122.311 24.0416C121.535 25.407 120.464 26.4217 119.189 27.2223C113.319 30.9119 104.928 27.6785 103.603 19.8772C103.051 16.6204 103.33 13.4785 104.997 10.5755C108.536 4.41115 117.535 3.9162 121.769 9.62752C121.923 9.83388 122.07 10.0433 122.292 10.349L122.289 10.3506Z" fill="#E8ECDF"/>
<path d="M23.5439 22.7228C22.9667 22.7228 22.4562 22.7228 21.9457 22.7228C19.3345 22.7228 16.7232 22.7383 14.1119 22.7119C13.5099 22.7057 13.2833 22.8795 13.3066 23.5032C13.3563 24.8981 13.3702 26.296 13.3439 27.6909C13.3376 28.0338 13.2089 28.5008 12.9684 28.673C12.7729 28.8127 12.2593 28.6932 11.9955 28.5225C8.58985 26.3007 6.38972 23.2317 5.94132 19.148C5.39517 14.1721 7.1593 10.079 11.0894 6.94953C11.3718 6.72456 11.662 6.49182 11.9862 6.34597C12.2965 6.20633 12.8179 6.00308 12.956 6.13496C13.2104 6.37545 13.3516 6.83937 13.3625 7.21485C13.3935 8.3506 13.3252 9.4879 13.3221 10.6252C13.3159 12.3288 13.2073 12.0651 14.7682 12.0713C17.6603 12.0821 20.5509 12.0744 23.5315 12.0744C23.5516 11.7532 23.5842 11.4817 23.5842 11.2101C23.5889 9.86493 23.5733 8.51972 23.5873 7.17451C23.5982 6.13496 24.3088 5.73931 25.1932 6.29943C27.9177 8.02632 29.6183 10.5352 30.5166 13.5778C31.6943 17.5654 31.1667 21.3527 28.8952 24.8562C27.9115 26.3721 26.6144 27.5994 25.0799 28.5443C24.7789 28.7305 24.27 28.7754 23.9457 28.6529C23.7409 28.5753 23.6106 28.0664 23.6013 27.7468C23.5656 26.3767 23.5889 25.0051 23.5858 23.6351C23.5858 23.3574 23.5625 23.0812 23.5454 22.7212L23.5439 22.7228ZM18.3973 19.9594C19.8946 19.9594 21.3918 19.9393 22.8876 19.9703C23.4368 19.9812 23.6075 19.7872 23.5951 19.2535C23.5656 18.0386 23.5687 16.8222 23.5951 15.6073C23.6059 15.0953 23.4865 14.8749 22.9077 14.8812C19.9349 14.9091 16.9621 14.9029 13.9893 14.8874C13.4928 14.8843 13.2989 15.0286 13.3128 15.5514C13.3439 16.7648 13.3439 17.9812 13.3097 19.1945C13.2942 19.7639 13.4804 19.9796 14.0622 19.9687C15.5067 19.9408 16.9528 19.9594 18.3989 19.9594H18.3973ZM26.4065 23.3667C28.8564 20.8097 28.8301 13.5328 26.4065 11.6384V23.3667ZM10.4967 11.7547C8.07783 14.4296 8.13679 21.6553 10.4967 22.9338V11.7547Z" fill="#888F77"/>
</svg>
