<svg width="140" height="140" viewBox="0 0 140 140" fill="none" xmlns="http://www.w3.org/2000/svg">
<g id="neurology">
<mask id="mask0_506_4381" style="mask-type:alpha" maskUnits="userSpaceOnUse" x="0" y="0" width="140" height="141">
<rect id="Bounding box" y="0.0100098" width="140" height="140" fill="#D9D9D9"/>
</mask>
<g mask="url(#mask0_506_4381)">
<path id="neurology_2" d="M56.8751 117.798C52.5147 117.798 48.7789 116.297 45.6678 113.295C42.5567 110.292 40.9078 106.621 40.7211 102.284C35.86 101.432 31.8214 99.1169 28.6053 95.3398C25.3902 91.5637 23.7826 87.159 23.7826 82.1259C23.7826 80.3389 24.0125 78.5734 24.4724 76.8292C24.9322 75.086 25.622 73.4488 26.5418 71.9175C25.2477 70.2424 24.2774 68.384 23.6309 66.3423C22.9834 64.3016 22.6597 62.1588 22.6597 59.914C22.6597 54.6523 24.3985 50.1023 27.8761 46.264C31.3538 42.4256 35.6617 40.2299 40.7999 39.6767C40.725 39.3772 40.6876 39.0783 40.6876 38.7798V37.7692C40.7547 33.3349 42.3549 29.5977 45.4884 26.5575C48.6219 23.5174 52.4174 21.9973 56.8751 21.9973C59.7023 21.9973 62.1159 22.5583 64.1157 23.6802C66.1165 24.8022 68.078 26.4511 70.0001 28.6269C71.9747 26.4511 73.9303 24.8022 75.867 23.6802C77.8036 22.5583 80.223 21.9973 83.1251 21.9973C87.4768 21.9973 91.2213 23.5305 94.3586 26.5969C97.497 29.6633 99.0997 33.3762 99.1668 37.7356V38.7463C99.1668 39.0447 99.1293 39.3437 99.0545 39.6431C104.193 40.1963 108.525 42.38 112.051 46.194C115.577 50.008 117.341 54.5813 117.341 59.914C117.341 62.1588 116.998 64.3016 116.314 66.3423C115.629 68.384 114.64 70.2424 113.346 71.9175C114.266 73.4429 114.975 75.0787 115.472 76.8248C115.969 78.57 116.218 80.337 116.218 82.1259C116.218 87.2563 114.604 91.7042 111.377 95.4696C108.151 99.235 104.069 101.507 99.1332 102.284C98.9466 106.621 97.322 110.292 94.2595 113.295C91.197 116.297 87.4855 117.798 83.1251 117.798C80.1715 117.798 77.739 117.243 75.8276 116.133C73.9172 115.022 71.9747 113.341 70.0001 111.09C68.0031 113.341 66.0363 115.022 64.0997 116.133C62.163 117.243 59.7548 117.798 56.8751 117.798ZM72.9168 38.039V101.756C72.9168 104.615 73.9084 107.031 75.8918 109.004C77.8741 110.978 80.3013 111.965 83.1732 111.965C85.9081 111.965 88.2424 111 90.1761 109.071C92.1089 107.142 93.1613 104.831 93.3334 102.139C90.4693 101.884 87.8127 101.063 85.3636 99.6754C82.9136 98.2881 80.8588 96.4093 79.1993 94.039C78.6752 93.3506 78.4759 92.6278 78.6013 91.8704C78.7258 91.1121 79.138 90.4962 79.838 90.0227C80.5263 89.4997 81.2638 89.3004 82.0503 89.4248C82.8359 89.5502 83.4746 89.9629 83.9666 90.6629C85.3102 92.6171 87.0203 94.1134 89.097 95.1517C91.1736 96.19 93.4083 96.7092 95.8009 96.7092C99.9066 96.7092 103.364 95.3048 106.173 92.4961C108.98 89.6883 110.384 86.2316 110.384 82.1259C110.384 81.141 110.267 80.1561 110.031 79.1713C109.796 78.1864 109.469 77.2268 109.05 76.2925C107.397 77.5632 105.526 78.5539 103.435 79.2646C101.345 79.9753 99.1745 80.3306 96.9238 80.3306C96.0975 80.3306 95.4047 80.0506 94.8457 79.4907C94.2867 78.9306 94.0072 78.237 94.0072 77.4096C94.0072 76.5822 94.2867 75.89 94.8457 75.3329C95.4047 74.7759 96.0975 74.4973 96.9238 74.4973C101.03 74.4973 104.486 73.0929 107.294 70.2842C110.103 67.4764 111.507 64.0197 111.507 59.914C111.507 55.925 110.14 52.5402 107.406 49.7596C104.672 46.9791 101.328 45.5027 97.3716 45.3306C96.4518 47.1555 95.2161 48.7427 93.6645 50.0921C92.1128 51.4425 90.3536 52.5066 88.3868 53.2844C87.6537 53.5683 86.9265 53.5445 86.2051 53.2129C85.4837 52.8814 85.0029 52.337 84.7628 51.5796C84.5013 50.8465 84.5183 50.1057 84.8138 49.3571C85.1094 48.6095 85.6606 48.1049 86.4676 47.8434C88.5248 47.1327 90.1834 45.8838 91.4434 44.0969C92.7034 42.309 93.3334 40.2707 93.3334 37.9821C93.3334 35.1559 92.3461 32.7574 90.3716 30.7867C88.396 28.816 85.9786 27.8306 83.1193 27.8306C80.259 27.8306 77.8435 28.8175 75.8728 30.7911C73.9021 32.7647 72.9168 35.1806 72.9168 38.039ZM67.0834 101.756V38.039C67.0834 35.1806 66.0961 32.7647 64.1215 30.7911C62.146 28.8175 59.7286 27.8306 56.8693 27.8306C54.009 27.8306 51.5935 28.8175 49.6228 30.7911C47.6521 32.7647 46.6668 35.1806 46.6668 38.039C46.6668 40.2673 47.2914 42.2808 48.5407 44.0794C49.789 45.878 51.4418 47.1327 53.499 47.8434C54.2311 48.1049 54.7882 48.591 55.1703 49.3017C55.5514 50.0124 55.6175 50.742 55.3686 51.4906C55.0702 52.2402 54.5471 52.7788 53.7995 53.1065C53.0528 53.4341 52.2755 53.456 51.4676 53.1721C49.5008 52.3943 47.7415 51.3492 46.1899 50.0367C44.6382 48.7242 43.4025 47.1555 42.4828 45.3306C38.624 45.5027 35.3277 46.9927 32.5938 49.8004C29.8599 52.6092 28.493 55.9925 28.493 59.9504C28.493 64.0318 29.8974 67.4764 32.7061 70.2842C35.5139 73.0929 38.9706 74.4973 43.0763 74.4973C43.9027 74.4973 44.5954 74.7773 45.1545 75.3373C45.7135 75.8963 45.993 76.59 45.993 77.4184C45.993 78.2457 45.7135 78.9379 45.1545 79.495C44.5954 80.0521 43.9027 80.3306 43.0763 80.3306C40.8256 80.3306 38.6552 79.9753 36.5649 79.2646C34.4746 78.5539 32.6031 77.5632 30.9503 76.2925C30.5313 77.2268 30.2041 78.1864 29.9688 79.1713C29.7336 80.1561 29.6159 81.141 29.6159 82.1259C29.6159 86.2316 31.0198 89.6883 33.8276 92.4961C36.6363 95.3048 40.0936 96.7092 44.1993 96.7092C46.6143 96.7092 48.8484 96.1837 50.9018 95.1327C52.9541 94.0818 54.6647 92.5918 56.0336 90.6629C56.5256 89.9629 57.1643 89.5502 57.9499 89.4248C58.7364 89.3004 59.4738 89.4812 60.1622 89.9673C60.8505 90.4534 61.2598 91.0815 61.3901 91.8515C61.5213 92.6215 61.325 93.3506 60.8009 94.039C59.0665 96.4093 56.9689 98.2939 54.5082 99.6929C52.0475 101.091 49.3851 101.917 46.5209 102.172C46.693 104.864 47.7697 107.169 49.7511 109.088C51.7335 111.006 54.0921 111.965 56.827 111.965C59.6989 111.965 62.1261 110.978 64.1084 109.004C66.0918 107.031 67.0834 104.615 67.0834 101.756Z" fill="#888F77"/>
</g>
</g>
</svg>
