<svg width="1275" height="406" viewBox="0 0 1275 406" fill="none" xmlns="http://www.w3.org/2000/svg">
<path d="M1.98389 42.4343C1.15546 42.4343 0.483887 43.1059 0.483887 43.9343C0.483887 44.7628 1.15546 45.4343 1.98389 45.4343V42.4343ZM122.22 43.9343L113.56 35.2741L104.899 43.9343L113.56 52.5946L122.22 43.9343ZM1.98389 45.4343H113.56V42.4343H1.98389V45.4343Z" fill="url(#paint0_linear_1193_23)"/>
<path d="M1.98389 112.985C1.15546 112.985 0.483887 113.656 0.483887 114.485C0.483887 115.313 1.15546 115.985 1.98389 115.985V112.985ZM122.22 114.485L113.56 105.825L104.899 114.485L113.56 123.145L122.22 114.485ZM1.98389 115.985H113.56V112.985H1.98389V115.985Z" fill="url(#paint1_linear_1193_23)"/>
<path d="M1.98389 183.535C1.15546 183.535 0.483887 184.207 0.483887 185.035C0.483887 185.864 1.15546 186.535 1.98389 186.535V183.535ZM122.22 185.035L113.56 176.375L104.899 185.035L113.56 193.696L122.22 185.035ZM1.98389 186.535H113.56V183.535H1.98389V186.535Z" fill="url(#paint2_linear_1193_23)"/>
<path d="M1.98389 254.086C1.15546 254.086 0.483887 254.758 0.483887 255.586C0.483887 256.414 1.15546 257.086 1.98389 257.086V254.086ZM122.22 255.586L113.56 246.926L104.899 255.586L113.56 264.246L122.22 255.586ZM1.98389 257.086H113.56V254.086H1.98389V257.086Z" fill="url(#paint3_linear_1193_23)"/>
<path d="M1.98389 324.636C1.15546 324.636 0.483887 325.308 0.483887 326.136C0.483887 326.965 1.15546 327.636 1.98389 327.636V324.636ZM122.22 326.136L113.56 317.476L104.899 326.136L113.56 334.797L122.22 326.136ZM1.98389 327.636H113.56V324.636H1.98389V327.636Z" fill="url(#paint4_linear_1193_23)"/>
<path d="M1.98389 395.187C1.15546 395.187 0.483887 395.859 0.483887 396.687C0.483887 397.515 1.15546 398.187 1.98389 398.187V395.187ZM122.22 396.687L113.56 388.027L104.899 396.687L113.56 405.347L122.22 396.687ZM1.98389 398.187H113.56V395.187H1.98389V398.187Z" fill="url(#paint5_linear_1193_23)"/>
<path d="M157.374 42.4343C156.546 42.4343 155.874 43.1059 155.874 43.9343C155.874 44.7628 156.546 45.4343 157.374 45.4343V42.4343ZM277.61 43.9343L268.95 35.2741L260.289 43.9343L268.95 52.5946L277.61 43.9343ZM157.374 45.4343H268.95V42.4343H157.374V45.4343Z" fill="url(#paint6_linear_1193_23)"/>
<path d="M157.374 112.985C156.546 112.985 155.874 113.656 155.874 114.485C155.874 115.313 156.546 115.985 157.374 115.985V112.985ZM277.61 114.485L268.95 105.825L260.289 114.485L268.95 123.145L277.61 114.485ZM157.374 115.985H268.95V112.985H157.374V115.985Z" fill="url(#paint7_linear_1193_23)"/>
<path d="M157.374 183.535C156.546 183.535 155.874 184.207 155.874 185.035C155.874 185.864 156.546 186.535 157.374 186.535V183.535ZM277.61 185.035L268.95 176.375L260.289 185.035L268.95 193.696L277.61 185.035ZM157.374 186.535H268.95V183.535H157.374V186.535Z" fill="url(#paint8_linear_1193_23)"/>
<path d="M157.374 254.086C156.546 254.086 155.874 254.758 155.874 255.586C155.874 256.414 156.546 257.086 157.374 257.086V254.086ZM277.61 255.586L268.95 246.926L260.289 255.586L268.95 264.246L277.61 255.586ZM157.374 257.086H268.95V254.086H157.374V257.086Z" fill="url(#paint9_linear_1193_23)"/>
<path d="M157.374 324.636C156.546 324.636 155.874 325.308 155.874 326.136C155.874 326.965 156.546 327.636 157.374 327.636V324.636ZM277.61 326.136L268.95 317.476L260.289 326.136L268.95 334.797L277.61 326.136ZM157.374 327.636H268.95V324.636H157.374V327.636Z" fill="url(#paint10_linear_1193_23)"/>
<path d="M157.374 395.187C156.546 395.187 155.874 395.859 155.874 396.687C155.874 397.515 156.546 398.187 157.374 398.187V395.187ZM277.61 396.687L268.95 388.027L260.289 396.687L268.95 405.347L277.61 396.687ZM157.374 398.187H268.95V395.187H157.374V398.187Z" fill="url(#paint11_linear_1193_23)"/>
<path d="M312.764 42.4343C311.936 42.4343 311.264 43.1059 311.264 43.9343C311.264 44.7628 311.936 45.4343 312.764 45.4343V42.4343ZM433 43.9343L424.34 35.2741L415.68 43.9343L424.34 52.5946L433 43.9343ZM312.764 45.4343H424.34V42.4343H312.764V45.4343Z" fill="url(#paint12_linear_1193_23)"/>
<path d="M312.764 112.985C311.936 112.985 311.264 113.656 311.264 114.485C311.264 115.313 311.936 115.985 312.764 115.985V112.985ZM433 114.485L424.34 105.825L415.68 114.485L424.34 123.145L433 114.485ZM312.764 115.985H424.34V112.985H312.764V115.985Z" fill="url(#paint13_linear_1193_23)"/>
<path d="M312.764 183.535C311.936 183.535 311.264 184.207 311.264 185.035C311.264 185.864 311.936 186.535 312.764 186.535V183.535ZM433 185.035L424.34 176.375L415.68 185.035L424.34 193.696L433 185.035ZM312.764 186.535H424.34V183.535H312.764V186.535Z" fill="url(#paint14_linear_1193_23)"/>
<path d="M312.764 254.086C311.936 254.086 311.264 254.758 311.264 255.586C311.264 256.414 311.936 257.086 312.764 257.086V254.086ZM433 255.586L424.34 246.926L415.68 255.586L424.34 264.246L433 255.586ZM312.764 257.086H424.34V254.086H312.764V257.086Z" fill="url(#paint15_linear_1193_23)"/>
<path d="M312.764 324.636C311.936 324.636 311.264 325.308 311.264 326.136C311.264 326.965 311.936 327.636 312.764 327.636V324.636ZM433 326.136L424.34 317.476L415.68 326.136L424.34 334.797L433 326.136ZM312.764 327.636H424.34V324.636H312.764V327.636Z" fill="url(#paint16_linear_1193_23)"/>
<path d="M312.764 395.187C311.936 395.187 311.264 395.859 311.264 396.687C311.264 397.515 311.936 398.187 312.764 398.187V395.187ZM433 396.687L424.34 388.027L415.68 396.687L424.34 405.347L433 396.687ZM312.764 398.187H424.34V395.187H312.764V398.187Z" fill="url(#paint17_linear_1193_23)"/>
<path d="M468.154 42.4343C467.326 42.4343 466.654 43.1059 466.654 43.9343C466.654 44.7628 467.326 45.4343 468.154 45.4343V42.4343ZM588.39 43.9343L579.73 35.2741L571.07 43.9343L579.73 52.5946L588.39 43.9343ZM468.154 45.4343H579.73V42.4343H468.154V45.4343Z" fill="url(#paint18_linear_1193_23)"/>
<path d="M468.154 112.985C467.326 112.985 466.654 113.656 466.654 114.485C466.654 115.313 467.326 115.985 468.154 115.985V112.985ZM588.39 114.485L579.73 105.825L571.07 114.485L579.73 123.145L588.39 114.485ZM468.154 115.985H579.73V112.985H468.154V115.985Z" fill="url(#paint19_linear_1193_23)"/>
<path d="M468.154 183.535C467.326 183.535 466.654 184.207 466.654 185.035C466.654 185.864 467.326 186.535 468.154 186.535V183.535ZM588.39 185.035L579.73 176.375L571.07 185.035L579.73 193.696L588.39 185.035ZM468.154 186.535H579.73V183.535H468.154V186.535Z" fill="url(#paint20_linear_1193_23)"/>
<path d="M468.154 254.086C467.326 254.086 466.654 254.758 466.654 255.586C466.654 256.414 467.326 257.086 468.154 257.086V254.086ZM588.39 255.586L579.73 246.926L571.07 255.586L579.73 264.246L588.39 255.586ZM468.154 257.086H579.73V254.086H468.154V257.086Z" fill="url(#paint21_linear_1193_23)"/>
<path d="M468.154 324.636C467.326 324.636 466.654 325.308 466.654 326.136C466.654 326.965 467.326 327.636 468.154 327.636V324.636ZM588.39 326.136L579.73 317.476L571.07 326.136L579.73 334.797L588.39 326.136ZM468.154 327.636H579.73V324.636H468.154V327.636Z" fill="url(#paint22_linear_1193_23)"/>
<path d="M468.154 395.187C467.326 395.187 466.654 395.859 466.654 396.687C466.654 397.515 467.326 398.187 468.154 398.187V395.187ZM588.39 396.687L579.73 388.027L571.07 396.687L579.73 405.347L588.39 396.687ZM468.154 398.187H579.73V395.187H468.154V398.187Z" fill="url(#paint23_linear_1193_23)"/>
<path d="M623.544 42.4343C622.716 42.4343 622.044 43.1059 622.044 43.9343C622.044 44.7628 622.716 45.4343 623.544 45.4343V42.4343ZM743.78 43.9343L735.12 35.2741L726.46 43.9343L735.12 52.5946L743.78 43.9343ZM623.544 45.4343H735.12V42.4343H623.544V45.4343Z" fill="url(#paint24_linear_1193_23)"/>
<path d="M623.544 112.985C622.716 112.985 622.044 113.656 622.044 114.485C622.044 115.313 622.716 115.985 623.544 115.985V112.985ZM743.78 114.485L735.12 105.825L726.46 114.485L735.12 123.145L743.78 114.485ZM623.544 115.985H735.12V112.985H623.544V115.985Z" fill="url(#paint25_linear_1193_23)"/>
<path d="M623.544 183.535C622.716 183.535 622.044 184.207 622.044 185.035C622.044 185.864 622.716 186.535 623.544 186.535V183.535ZM743.78 185.035L735.12 176.375L726.46 185.035L735.12 193.696L743.78 185.035ZM623.544 186.535H735.12V183.535H623.544V186.535Z" fill="url(#paint26_linear_1193_23)"/>
<path d="M623.544 254.086C622.716 254.086 622.044 254.758 622.044 255.586C622.044 256.414 622.716 257.086 623.544 257.086V254.086ZM743.78 255.586L735.12 246.926L726.46 255.586L735.12 264.246L743.78 255.586ZM623.544 257.086H735.12V254.086H623.544V257.086Z" fill="url(#paint27_linear_1193_23)"/>
<path d="M623.544 324.636C622.716 324.636 622.044 325.308 622.044 326.136C622.044 326.965 622.716 327.636 623.544 327.636V324.636ZM743.78 326.136L735.12 317.476L726.46 326.136L735.12 334.797L743.78 326.136ZM623.544 327.636H735.12V324.636H623.544V327.636Z" fill="url(#paint28_linear_1193_23)"/>
<path d="M623.544 395.187C622.716 395.187 622.044 395.859 622.044 396.687C622.044 397.515 622.716 398.187 623.544 398.187V395.187ZM743.78 396.687L735.12 388.027L726.46 396.687L735.12 405.347L743.78 396.687ZM623.544 398.187H735.12V395.187H623.544V398.187Z" fill="url(#paint29_linear_1193_23)"/>
<path d="M778.935 42.4343C778.106 42.4343 777.435 43.1059 777.435 43.9343C777.435 44.7628 778.106 45.4343 778.935 45.4343V42.4343ZM899.171 43.9343L890.51 35.2741L881.85 43.9343L890.51 52.5946L899.171 43.9343ZM778.935 45.4343H890.51V42.4343H778.935V45.4343Z" fill="url(#paint30_linear_1193_23)"/>
<path d="M778.935 112.985C778.106 112.985 777.435 113.656 777.435 114.485C777.435 115.313 778.106 115.985 778.935 115.985V112.985ZM899.171 114.485L890.51 105.825L881.85 114.485L890.51 123.145L899.171 114.485ZM778.935 115.985H890.51V112.985H778.935V115.985Z" fill="url(#paint31_linear_1193_23)"/>
<path d="M778.935 183.535C778.106 183.535 777.435 184.207 777.435 185.035C777.435 185.864 778.106 186.535 778.935 186.535V183.535ZM899.171 185.035L890.51 176.375L881.85 185.035L890.51 193.696L899.171 185.035ZM778.935 186.535H890.51V183.535H778.935V186.535Z" fill="url(#paint32_linear_1193_23)"/>
<path d="M778.935 254.086C778.106 254.086 777.435 254.758 777.435 255.586C777.435 256.414 778.106 257.086 778.935 257.086V254.086ZM899.171 255.586L890.51 246.926L881.85 255.586L890.51 264.246L899.171 255.586ZM778.935 257.086H890.51V254.086H778.935V257.086Z" fill="url(#paint33_linear_1193_23)"/>
<path d="M778.935 324.636C778.106 324.636 777.435 325.308 777.435 326.136C777.435 326.965 778.106 327.636 778.935 327.636V324.636ZM899.171 326.136L890.51 317.476L881.85 326.136L890.51 334.797L899.171 326.136ZM778.935 327.636H890.51V324.636H778.935V327.636Z" fill="url(#paint34_linear_1193_23)"/>
<path d="M778.935 395.187C778.106 395.187 777.435 395.859 777.435 396.687C777.435 397.515 778.106 398.187 778.935 398.187V395.187ZM899.171 396.687L890.51 388.027L881.85 396.687L890.51 405.347L899.171 396.687ZM778.935 398.187H890.51V395.187H778.935V398.187Z" fill="url(#paint35_linear_1193_23)"/>
<path d="M934.325 42.4343C933.496 42.4343 932.825 43.1059 932.825 43.9343C932.825 44.7628 933.496 45.4343 934.325 45.4343V42.4343ZM1054.56 43.9343L1045.9 35.2741L1037.24 43.9343L1045.9 52.5946L1054.56 43.9343ZM934.325 45.4343H1045.9V42.4343H934.325V45.4343Z" fill="url(#paint36_linear_1193_23)"/>
<path d="M934.325 112.985C933.496 112.985 932.825 113.656 932.825 114.485C932.825 115.313 933.496 115.985 934.325 115.985V112.985ZM1054.56 114.485L1045.9 105.825L1037.24 114.485L1045.9 123.145L1054.56 114.485ZM934.325 115.985H1045.9V112.985H934.325V115.985Z" fill="url(#paint37_linear_1193_23)"/>
<path d="M934.325 183.535C933.496 183.535 932.825 184.207 932.825 185.035C932.825 185.864 933.496 186.535 934.325 186.535V183.535ZM1054.56 185.035L1045.9 176.375L1037.24 185.035L1045.9 193.696L1054.56 185.035ZM934.325 186.535H1045.9V183.535H934.325V186.535Z" fill="url(#paint38_linear_1193_23)"/>
<path d="M934.325 254.086C933.496 254.086 932.825 254.758 932.825 255.586C932.825 256.414 933.496 257.086 934.325 257.086V254.086ZM1054.56 255.586L1045.9 246.926L1037.24 255.586L1045.9 264.246L1054.56 255.586ZM934.325 257.086H1045.9V254.086H934.325V257.086Z" fill="url(#paint39_linear_1193_23)"/>
<path d="M934.325 324.636C933.496 324.636 932.825 325.308 932.825 326.136C932.825 326.965 933.496 327.636 934.325 327.636V324.636ZM1054.56 326.136L1045.9 317.476L1037.24 326.136L1045.9 334.797L1054.56 326.136ZM934.325 327.636H1045.9V324.636H934.325V327.636Z" fill="url(#paint40_linear_1193_23)"/>
<path d="M934.325 395.187C933.496 395.187 932.825 395.859 932.825 396.687C932.825 397.515 933.496 398.187 934.325 398.187V395.187ZM1054.56 396.687L1045.9 388.027L1037.24 396.687L1045.9 405.347L1054.56 396.687ZM934.325 398.187H1045.9V395.187H934.325V398.187Z" fill="url(#paint41_linear_1193_23)"/>
<path d="M1089.71 42.4343C1088.89 42.4343 1088.21 43.1059 1088.21 43.9343C1088.21 44.7628 1088.89 45.4343 1089.71 45.4343V42.4343ZM1209.95 43.9343L1201.29 35.2741L1192.63 43.9343L1201.29 52.5946L1209.95 43.9343ZM1089.71 45.4343H1201.29V42.4343H1089.71V45.4343Z" fill="url(#paint42_linear_1193_23)"/>
<path d="M1089.71 112.985C1088.89 112.985 1088.21 113.656 1088.21 114.485C1088.21 115.313 1088.89 115.985 1089.71 115.985V112.985ZM1209.95 114.485L1201.29 105.825L1192.63 114.485L1201.29 123.145L1209.95 114.485ZM1089.71 115.985H1201.29V112.985H1089.71V115.985Z" fill="url(#paint43_linear_1193_23)"/>
<path d="M1089.71 183.535C1088.89 183.535 1088.21 184.207 1088.21 185.035C1088.21 185.864 1088.89 186.535 1089.71 186.535V183.535ZM1209.95 185.035L1201.29 176.375L1192.63 185.035L1201.29 193.696L1209.95 185.035ZM1089.71 186.535H1201.29V183.535H1089.71V186.535Z" fill="url(#paint44_linear_1193_23)"/>
<path d="M1089.71 254.086C1088.89 254.086 1088.21 254.758 1088.21 255.586C1088.21 256.414 1088.89 257.086 1089.71 257.086V254.086ZM1209.95 255.586L1201.29 246.926L1192.63 255.586L1201.29 264.246L1209.95 255.586ZM1089.71 257.086H1201.29V254.086H1089.71V257.086Z" fill="url(#paint45_linear_1193_23)"/>
<path d="M1089.71 324.636C1088.89 324.636 1088.21 325.308 1088.21 326.136C1088.21 326.965 1088.89 327.636 1089.71 327.636V324.636ZM1209.95 326.136L1201.29 317.476L1192.63 326.136L1201.29 334.797L1209.95 326.136ZM1089.71 327.636H1201.29V324.636H1089.71V327.636Z" fill="url(#paint46_linear_1193_23)"/>
<path d="M1089.71 395.187C1088.89 395.187 1088.21 395.859 1088.21 396.687C1088.21 397.515 1088.89 398.187 1089.71 398.187V395.187ZM1209.95 396.687L1201.29 388.027L1192.63 396.687L1201.29 405.347L1209.95 396.687ZM1089.71 398.187H1201.29V395.187H1089.71V398.187Z" fill="url(#paint47_linear_1193_23)"/>
<path d="M66.7095 7.15918C65.881 7.15918 65.2095 7.83075 65.2095 8.65918C65.2095 9.48761 65.881 10.1592 66.7095 10.1592V7.15918ZM186.945 8.65918L178.285 -0.00107435L169.625 8.65918L178.285 17.3194L186.945 8.65918ZM66.7095 10.1592H178.285V7.15918H66.7095V10.1592Z" fill="url(#paint48_linear_1193_23)"/>
<path d="M66.7095 77.7097C65.881 77.7097 65.2095 78.3813 65.2095 79.2097C65.2095 80.0381 65.881 80.7097 66.7095 80.7097V77.7097ZM186.945 79.2097L178.285 70.5495L169.625 79.2097L178.285 87.87L186.945 79.2097ZM66.7095 80.7097H178.285V77.7097H66.7095V80.7097Z" fill="url(#paint49_linear_1193_23)"/>
<path d="M66.7095 148.26C65.881 148.26 65.2095 148.932 65.2095 149.76C65.2095 150.589 65.881 151.26 66.7095 151.26V148.26ZM186.945 149.76L178.285 141.1L169.625 149.76L178.285 158.421L186.945 149.76ZM66.7095 151.26H178.285V148.26H66.7095V151.26Z" fill="url(#paint50_linear_1193_23)"/>
<path d="M66.7095 218.811C65.881 218.811 65.2095 219.482 65.2095 220.311C65.2095 221.139 65.881 221.811 66.7095 221.811V218.811ZM186.945 220.311L178.285 211.651L169.625 220.311L178.285 228.971L186.945 220.311ZM66.7095 221.811H178.285V218.811H66.7095V221.811Z" fill="url(#paint51_linear_1193_23)"/>
<path d="M66.7095 289.361C65.881 289.361 65.2095 290.033 65.2095 290.861C65.2095 291.69 65.881 292.361 66.7095 292.361V289.361ZM186.945 290.861L178.285 282.201L169.625 290.861L178.285 299.522L186.945 290.861ZM66.7095 292.361H178.285V289.361H66.7095V292.361Z" fill="url(#paint52_linear_1193_23)"/>
<path d="M66.7095 359.912C65.881 359.912 65.2095 360.583 65.2095 361.412C65.2095 362.24 65.881 362.912 66.7095 362.912V359.912ZM186.945 361.412L178.285 352.752L169.625 361.412L178.285 370.072L186.945 361.412ZM66.7095 362.912H178.285V359.912H66.7095V362.912Z" fill="url(#paint53_linear_1193_23)"/>
<path d="M222.1 7.15918C221.271 7.15918 220.6 7.83075 220.6 8.65918C220.6 9.48761 221.271 10.1592 222.1 10.1592V7.15918ZM342.336 8.65918L333.675 -0.00107435L325.015 8.65918L333.675 17.3194L342.336 8.65918ZM222.1 10.1592H333.675V7.15918H222.1V10.1592Z" fill="url(#paint54_linear_1193_23)"/>
<path d="M222.1 77.7097C221.271 77.7097 220.6 78.3813 220.6 79.2097C220.6 80.0381 221.271 80.7097 222.1 80.7097V77.7097ZM342.336 79.2097L333.675 70.5495L325.015 79.2097L333.675 87.87L342.336 79.2097ZM222.1 80.7097H333.675V77.7097H222.1V80.7097Z" fill="url(#paint55_linear_1193_23)"/>
<path d="M222.1 148.26C221.271 148.26 220.6 148.932 220.6 149.76C220.6 150.589 221.271 151.26 222.1 151.26V148.26ZM342.336 149.76L333.675 141.1L325.015 149.76L333.675 158.421L342.336 149.76ZM222.1 151.26H333.675V148.26H222.1V151.26Z" fill="url(#paint56_linear_1193_23)"/>
<path d="M222.1 218.811C221.271 218.811 220.6 219.482 220.6 220.311C220.6 221.139 221.271 221.811 222.1 221.811V218.811ZM342.336 220.311L333.675 211.651L325.015 220.311L333.675 228.971L342.336 220.311ZM222.1 221.811H333.675V218.811H222.1V221.811Z" fill="url(#paint57_linear_1193_23)"/>
<path d="M222.1 289.361C221.271 289.361 220.6 290.033 220.6 290.861C220.6 291.69 221.271 292.361 222.1 292.361V289.361ZM342.336 290.861L333.675 282.201L325.015 290.861L333.675 299.522L342.336 290.861ZM222.1 292.361H333.675V289.361H222.1V292.361Z" fill="url(#paint58_linear_1193_23)"/>
<path d="M222.1 359.912C221.271 359.912 220.6 360.583 220.6 361.412C220.6 362.24 221.271 362.912 222.1 362.912V359.912ZM342.336 361.412L333.675 352.752L325.015 361.412L333.675 370.072L342.336 361.412ZM222.1 362.912H333.675V359.912H222.1V362.912Z" fill="url(#paint59_linear_1193_23)"/>
<path d="M377.49 7.15918C376.661 7.15918 375.99 7.83075 375.99 8.65918C375.99 9.48761 376.661 10.1592 377.49 10.1592V7.15918ZM497.726 8.65918L489.065 -0.00107435L480.405 8.65918L489.065 17.3194L497.726 8.65918ZM377.49 10.1592H489.065V7.15918H377.49V10.1592Z" fill="url(#paint60_linear_1193_23)"/>
<path d="M377.49 77.7097C376.661 77.7097 375.99 78.3813 375.99 79.2097C375.99 80.0381 376.661 80.7097 377.49 80.7097V77.7097ZM497.726 79.2097L489.065 70.5495L480.405 79.2097L489.065 87.87L497.726 79.2097ZM377.49 80.7097H489.065V77.7097H377.49V80.7097Z" fill="url(#paint61_linear_1193_23)"/>
<path d="M377.49 148.26C376.661 148.26 375.99 148.932 375.99 149.76C375.99 150.589 376.661 151.26 377.49 151.26V148.26ZM497.726 149.76L489.065 141.1L480.405 149.76L489.065 158.421L497.726 149.76ZM377.49 151.26H489.065V148.26H377.49V151.26Z" fill="url(#paint62_linear_1193_23)"/>
<path d="M377.49 218.811C376.661 218.811 375.99 219.482 375.99 220.311C375.99 221.139 376.661 221.811 377.49 221.811V218.811ZM497.726 220.311L489.065 211.651L480.405 220.311L489.065 228.971L497.726 220.311ZM377.49 221.811H489.065V218.811H377.49V221.811Z" fill="url(#paint63_linear_1193_23)"/>
<path d="M377.49 289.361C376.661 289.361 375.99 290.033 375.99 290.861C375.99 291.69 376.661 292.361 377.49 292.361V289.361ZM497.726 290.861L489.065 282.201L480.405 290.861L489.065 299.522L497.726 290.861ZM377.49 292.361H489.065V289.361H377.49V292.361Z" fill="url(#paint64_linear_1193_23)"/>
<path d="M377.49 359.912C376.661 359.912 375.99 360.583 375.99 361.412C375.99 362.24 376.661 362.912 377.49 362.912V359.912ZM497.726 361.412L489.065 352.752L480.405 361.412L489.065 370.072L497.726 361.412ZM377.49 362.912H489.065V359.912H377.49V362.912Z" fill="url(#paint65_linear_1193_23)"/>
<path d="M532.88 7.15918C532.051 7.15918 531.38 7.83075 531.38 8.65918C531.38 9.48761 532.051 10.1592 532.88 10.1592V7.15918ZM653.116 8.65918L644.456 -0.00107435L635.795 8.65918L644.456 17.3194L653.116 8.65918ZM532.88 10.1592H644.456V7.15918H532.88V10.1592Z" fill="url(#paint66_linear_1193_23)"/>
<path d="M532.88 77.7097C532.051 77.7097 531.38 78.3813 531.38 79.2097C531.38 80.0381 532.051 80.7097 532.88 80.7097V77.7097ZM653.116 79.2097L644.456 70.5495L635.795 79.2097L644.456 87.87L653.116 79.2097ZM532.88 80.7097H644.456V77.7097H532.88V80.7097Z" fill="url(#paint67_linear_1193_23)"/>
<path d="M532.88 148.26C532.051 148.26 531.38 148.932 531.38 149.76C531.38 150.589 532.051 151.26 532.88 151.26V148.26ZM653.116 149.76L644.456 141.1L635.795 149.76L644.456 158.421L653.116 149.76ZM532.88 151.26H644.456V148.26H532.88V151.26Z" fill="url(#paint68_linear_1193_23)"/>
<path d="M532.88 218.811C532.051 218.811 531.38 219.482 531.38 220.311C531.38 221.139 532.051 221.811 532.88 221.811V218.811ZM653.116 220.311L644.456 211.651L635.795 220.311L644.456 228.971L653.116 220.311ZM532.88 221.811H644.456V218.811H532.88V221.811Z" fill="url(#paint69_linear_1193_23)"/>
<path d="M532.88 289.361C532.051 289.361 531.38 290.033 531.38 290.861C531.38 291.69 532.051 292.361 532.88 292.361V289.361ZM653.116 290.861L644.456 282.201L635.795 290.861L644.456 299.522L653.116 290.861ZM532.88 292.361H644.456V289.361H532.88V292.361Z" fill="url(#paint70_linear_1193_23)"/>
<path d="M532.88 359.912C532.051 359.912 531.38 360.583 531.38 361.412C531.38 362.24 532.051 362.912 532.88 362.912V359.912ZM653.116 361.412L644.456 352.752L635.795 361.412L644.456 370.072L653.116 361.412ZM532.88 362.912H644.456V359.912H532.88V362.912Z" fill="url(#paint71_linear_1193_23)"/>
<path d="M688.27 7.15918C687.442 7.15918 686.77 7.83075 686.77 8.65918C686.77 9.48761 687.442 10.1592 688.27 10.1592V7.15918ZM808.506 8.65918L799.846 -0.00107435L791.185 8.65918L799.846 17.3194L808.506 8.65918ZM688.27 10.1592H799.846V7.15918H688.27V10.1592Z" fill="url(#paint72_linear_1193_23)"/>
<path d="M688.27 77.7097C687.442 77.7097 686.77 78.3813 686.77 79.2097C686.77 80.0381 687.442 80.7097 688.27 80.7097V77.7097ZM808.506 79.2097L799.846 70.5495L791.185 79.2097L799.846 87.87L808.506 79.2097ZM688.27 80.7097H799.846V77.7097H688.27V80.7097Z" fill="url(#paint73_linear_1193_23)"/>
<path d="M688.27 148.26C687.442 148.26 686.77 148.932 686.77 149.76C686.77 150.589 687.442 151.26 688.27 151.26V148.26ZM808.506 149.76L799.846 141.1L791.185 149.76L799.846 158.421L808.506 149.76ZM688.27 151.26H799.846V148.26H688.27V151.26Z" fill="url(#paint74_linear_1193_23)"/>
<path d="M688.27 218.811C687.442 218.811 686.77 219.482 686.77 220.311C686.77 221.139 687.442 221.811 688.27 221.811V218.811ZM808.506 220.311L799.846 211.651L791.185 220.311L799.846 228.971L808.506 220.311ZM688.27 221.811H799.846V218.811H688.27V221.811Z" fill="url(#paint75_linear_1193_23)"/>
<path d="M688.27 289.361C687.442 289.361 686.77 290.033 686.77 290.861C686.77 291.69 687.442 292.361 688.27 292.361V289.361ZM808.506 290.861L799.846 282.201L791.185 290.861L799.846 299.522L808.506 290.861ZM688.27 292.361H799.846V289.361H688.27V292.361Z" fill="url(#paint76_linear_1193_23)"/>
<path d="M688.27 359.912C687.442 359.912 686.77 360.583 686.77 361.412C686.77 362.24 687.442 362.912 688.27 362.912V359.912ZM808.506 361.412L799.846 352.752L791.185 361.412L799.846 370.072L808.506 361.412ZM688.27 362.912H799.846V359.912H688.27V362.912Z" fill="url(#paint77_linear_1193_23)"/>
<path d="M843.66 7.15918C842.832 7.15918 842.16 7.83075 842.16 8.65918C842.16 9.48761 842.832 10.1592 843.66 10.1592V7.15918ZM963.896 8.65918L955.236 -0.00107435L946.576 8.65918L955.236 17.3194L963.896 8.65918ZM843.66 10.1592H955.236V7.15918H843.66V10.1592Z" fill="url(#paint78_linear_1193_23)"/>
<path d="M843.66 77.7097C842.832 77.7097 842.16 78.3813 842.16 79.2097C842.16 80.0381 842.832 80.7097 843.66 80.7097V77.7097ZM963.896 79.2097L955.236 70.5495L946.576 79.2097L955.236 87.87L963.896 79.2097ZM843.66 80.7097H955.236V77.7097H843.66V80.7097Z" fill="url(#paint79_linear_1193_23)"/>
<path d="M843.66 148.26C842.832 148.26 842.16 148.932 842.16 149.76C842.16 150.589 842.832 151.26 843.66 151.26V148.26ZM963.896 149.76L955.236 141.1L946.576 149.76L955.236 158.421L963.896 149.76ZM843.66 151.26H955.236V148.26H843.66V151.26Z" fill="url(#paint80_linear_1193_23)"/>
<path d="M843.66 218.811C842.832 218.811 842.16 219.482 842.16 220.311C842.16 221.139 842.832 221.811 843.66 221.811V218.811ZM963.896 220.311L955.236 211.651L946.576 220.311L955.236 228.971L963.896 220.311ZM843.66 221.811H955.236V218.811H843.66V221.811Z" fill="url(#paint81_linear_1193_23)"/>
<path d="M843.66 289.361C842.832 289.361 842.16 290.033 842.16 290.861C842.16 291.69 842.832 292.361 843.66 292.361V289.361ZM963.896 290.861L955.236 282.201L946.576 290.861L955.236 299.522L963.896 290.861ZM843.66 292.361H955.236V289.361H843.66V292.361Z" fill="url(#paint82_linear_1193_23)"/>
<path d="M843.66 359.912C842.832 359.912 842.16 360.583 842.16 361.412C842.16 362.24 842.832 362.912 843.66 362.912V359.912ZM963.896 361.412L955.236 352.752L946.576 361.412L955.236 370.072L963.896 361.412ZM843.66 362.912H955.236V359.912H843.66V362.912Z" fill="url(#paint83_linear_1193_23)"/>
<path d="M999.05 7.15918C998.222 7.15918 997.55 7.83075 997.55 8.65918C997.55 9.48761 998.222 10.1592 999.05 10.1592V7.15918ZM1119.29 8.65918L1110.63 -0.00107435L1101.97 8.65918L1110.63 17.3194L1119.29 8.65918ZM999.05 10.1592H1110.63V7.15918H999.05V10.1592Z" fill="url(#paint84_linear_1193_23)"/>
<path d="M999.05 77.7097C998.222 77.7097 997.55 78.3813 997.55 79.2097C997.55 80.0381 998.222 80.7097 999.05 80.7097V77.7097ZM1119.29 79.2097L1110.63 70.5495L1101.97 79.2097L1110.63 87.87L1119.29 79.2097ZM999.05 80.7097H1110.63V77.7097H999.05V80.7097Z" fill="url(#paint85_linear_1193_23)"/>
<path d="M999.05 148.26C998.222 148.26 997.55 148.932 997.55 149.76C997.55 150.589 998.222 151.26 999.05 151.26V148.26ZM1119.29 149.76L1110.63 141.1L1101.97 149.76L1110.63 158.421L1119.29 149.76ZM999.05 151.26H1110.63V148.26H999.05V151.26Z" fill="url(#paint86_linear_1193_23)"/>
<path d="M999.05 218.811C998.222 218.811 997.55 219.482 997.55 220.311C997.55 221.139 998.222 221.811 999.05 221.811V218.811ZM1119.29 220.311L1110.63 211.651L1101.97 220.311L1110.63 228.971L1119.29 220.311ZM999.05 221.811H1110.63V218.811H999.05V221.811Z" fill="url(#paint87_linear_1193_23)"/>
<path d="M999.05 289.361C998.222 289.361 997.55 290.033 997.55 290.861C997.55 291.69 998.222 292.361 999.05 292.361V289.361ZM1119.29 290.861L1110.63 282.201L1101.97 290.861L1110.63 299.522L1119.29 290.861ZM999.05 292.361H1110.63V289.361H999.05V292.361Z" fill="url(#paint88_linear_1193_23)"/>
<path d="M999.05 359.912C998.222 359.912 997.55 360.583 997.55 361.412C997.55 362.24 998.222 362.912 999.05 362.912V359.912ZM1119.29 361.412L1110.63 352.752L1101.97 361.412L1110.63 370.072L1119.29 361.412ZM999.05 362.912H1110.63V359.912H999.05V362.912Z" fill="url(#paint89_linear_1193_23)"/>
<path d="M1154.44 7.15918C1153.61 7.15918 1152.94 7.83075 1152.94 8.65918C1152.94 9.48761 1153.61 10.1592 1154.44 10.1592V7.15918ZM1274.68 8.65918L1266.02 -0.00107435L1257.36 8.65918L1266.02 17.3194L1274.68 8.65918ZM1154.44 10.1592H1266.02V7.15918H1154.44V10.1592Z" fill="url(#paint90_linear_1193_23)"/>
<path d="M1154.44 77.7097C1153.61 77.7097 1152.94 78.3813 1152.94 79.2097C1152.94 80.0381 1153.61 80.7097 1154.44 80.7097V77.7097ZM1274.68 79.2097L1266.02 70.5495L1257.36 79.2097L1266.02 87.87L1274.68 79.2097ZM1154.44 80.7097H1266.02V77.7097H1154.44V80.7097Z" fill="url(#paint91_linear_1193_23)"/>
<path d="M1154.44 148.26C1153.61 148.26 1152.94 148.932 1152.94 149.76C1152.94 150.589 1153.61 151.26 1154.44 151.26V148.26ZM1274.68 149.76L1266.02 141.1L1257.36 149.76L1266.02 158.421L1274.68 149.76ZM1154.44 151.26H1266.02V148.26H1154.44V151.26Z" fill="url(#paint92_linear_1193_23)"/>
<path d="M1154.44 218.811C1153.61 218.811 1152.94 219.482 1152.94 220.311C1152.94 221.139 1153.61 221.811 1154.44 221.811V218.811ZM1274.68 220.311L1266.02 211.651L1257.36 220.311L1266.02 228.971L1274.68 220.311ZM1154.44 221.811H1266.02V218.811H1154.44V221.811Z" fill="url(#paint93_linear_1193_23)"/>
<path d="M1154.44 289.361C1153.61 289.361 1152.94 290.033 1152.94 290.861C1152.94 291.69 1153.61 292.361 1154.44 292.361V289.361ZM1274.68 290.861L1266.02 282.201L1257.36 290.861L1266.02 299.522L1274.68 290.861ZM1154.44 292.361H1266.02V289.361H1154.44V292.361Z" fill="url(#paint94_linear_1193_23)"/>
<path d="M1154.44 359.912C1153.61 359.912 1152.94 360.583 1152.94 361.412C1152.94 362.24 1153.61 362.912 1154.44 362.912V359.912ZM1274.68 361.412L1266.02 352.752L1257.36 361.412L1266.02 370.072L1274.68 361.412ZM1154.44 362.912H1266.02V359.912H1154.44V362.912Z" fill="url(#paint95_linear_1193_23)"/>
<defs>
<linearGradient id="paint0_linear_1193_23" x1="1.98389" y1="44.4343" x2="113.56" y2="44.4343" gradientUnits="userSpaceOnUse">
<stop stop-color="#8A8D85" stop-opacity="0"/>
<stop offset="1" stop-color="#8A8D85"/>
</linearGradient>
<linearGradient id="paint1_linear_1193_23" x1="1.98389" y1="114.985" x2="113.56" y2="114.985" gradientUnits="userSpaceOnUse">
<stop stop-color="#8A8D85" stop-opacity="0"/>
<stop offset="1" stop-color="#8A8D85"/>
</linearGradient>
<linearGradient id="paint2_linear_1193_23" x1="1.98389" y1="185.535" x2="113.56" y2="185.535" gradientUnits="userSpaceOnUse">
<stop stop-color="#8A8D85" stop-opacity="0"/>
<stop offset="1" stop-color="#8A8D85"/>
</linearGradient>
<linearGradient id="paint3_linear_1193_23" x1="1.98389" y1="256.086" x2="113.56" y2="256.086" gradientUnits="userSpaceOnUse">
<stop stop-color="#8A8D85" stop-opacity="0"/>
<stop offset="1" stop-color="#8A8D85"/>
</linearGradient>
<linearGradient id="paint4_linear_1193_23" x1="1.98389" y1="326.636" x2="113.56" y2="326.636" gradientUnits="userSpaceOnUse">
<stop stop-color="#8A8D85" stop-opacity="0"/>
<stop offset="1" stop-color="#8A8D85"/>
</linearGradient>
<linearGradient id="paint5_linear_1193_23" x1="1.98389" y1="397.187" x2="113.56" y2="397.187" gradientUnits="userSpaceOnUse">
<stop stop-color="#8A8D85" stop-opacity="0"/>
<stop offset="1" stop-color="#8A8D85"/>
</linearGradient>
<linearGradient id="paint6_linear_1193_23" x1="157.374" y1="44.4343" x2="268.95" y2="44.4343" gradientUnits="userSpaceOnUse">
<stop stop-color="#8A8D85" stop-opacity="0"/>
<stop offset="1" stop-color="#8A8D85"/>
</linearGradient>
<linearGradient id="paint7_linear_1193_23" x1="157.374" y1="114.985" x2="268.95" y2="114.985" gradientUnits="userSpaceOnUse">
<stop stop-color="#8A8D85" stop-opacity="0"/>
<stop offset="1" stop-color="#8A8D85"/>
</linearGradient>
<linearGradient id="paint8_linear_1193_23" x1="157.374" y1="185.535" x2="268.95" y2="185.535" gradientUnits="userSpaceOnUse">
<stop stop-color="#8A8D85" stop-opacity="0"/>
<stop offset="1" stop-color="#8A8D85"/>
</linearGradient>
<linearGradient id="paint9_linear_1193_23" x1="157.374" y1="256.086" x2="268.95" y2="256.086" gradientUnits="userSpaceOnUse">
<stop stop-color="#8A8D85" stop-opacity="0"/>
<stop offset="1" stop-color="#8A8D85"/>
</linearGradient>
<linearGradient id="paint10_linear_1193_23" x1="157.374" y1="326.636" x2="268.95" y2="326.636" gradientUnits="userSpaceOnUse">
<stop stop-color="#8A8D85" stop-opacity="0"/>
<stop offset="1" stop-color="#8A8D85"/>
</linearGradient>
<linearGradient id="paint11_linear_1193_23" x1="157.374" y1="397.187" x2="268.95" y2="397.187" gradientUnits="userSpaceOnUse">
<stop stop-color="#8A8D85" stop-opacity="0"/>
<stop offset="1" stop-color="#8A8D85"/>
</linearGradient>
<linearGradient id="paint12_linear_1193_23" x1="312.764" y1="44.4343" x2="424.34" y2="44.4343" gradientUnits="userSpaceOnUse">
<stop stop-color="#8A8D85" stop-opacity="0"/>
<stop offset="1" stop-color="#8A8D85"/>
</linearGradient>
<linearGradient id="paint13_linear_1193_23" x1="312.764" y1="114.985" x2="424.34" y2="114.985" gradientUnits="userSpaceOnUse">
<stop stop-color="#8A8D85" stop-opacity="0"/>
<stop offset="1" stop-color="#8A8D85"/>
</linearGradient>
<linearGradient id="paint14_linear_1193_23" x1="312.764" y1="185.535" x2="424.34" y2="185.535" gradientUnits="userSpaceOnUse">
<stop stop-color="#8A8D85" stop-opacity="0"/>
<stop offset="1" stop-color="#8A8D85"/>
</linearGradient>
<linearGradient id="paint15_linear_1193_23" x1="312.764" y1="256.086" x2="424.34" y2="256.086" gradientUnits="userSpaceOnUse">
<stop stop-color="#8A8D85" stop-opacity="0"/>
<stop offset="1" stop-color="#8A8D85"/>
</linearGradient>
<linearGradient id="paint16_linear_1193_23" x1="312.764" y1="326.636" x2="424.34" y2="326.636" gradientUnits="userSpaceOnUse">
<stop stop-color="#8A8D85" stop-opacity="0"/>
<stop offset="1" stop-color="#8A8D85"/>
</linearGradient>
<linearGradient id="paint17_linear_1193_23" x1="312.764" y1="397.187" x2="424.34" y2="397.187" gradientUnits="userSpaceOnUse">
<stop stop-color="#8A8D85" stop-opacity="0"/>
<stop offset="1" stop-color="#8A8D85"/>
</linearGradient>
<linearGradient id="paint18_linear_1193_23" x1="468.154" y1="44.4343" x2="579.73" y2="44.4343" gradientUnits="userSpaceOnUse">
<stop stop-color="#8A8D85" stop-opacity="0"/>
<stop offset="1" stop-color="#8A8D85"/>
</linearGradient>
<linearGradient id="paint19_linear_1193_23" x1="468.154" y1="114.985" x2="579.73" y2="114.985" gradientUnits="userSpaceOnUse">
<stop stop-color="#8A8D85" stop-opacity="0"/>
<stop offset="1" stop-color="#8A8D85"/>
</linearGradient>
<linearGradient id="paint20_linear_1193_23" x1="468.154" y1="185.535" x2="579.73" y2="185.535" gradientUnits="userSpaceOnUse">
<stop stop-color="#8A8D85" stop-opacity="0"/>
<stop offset="1" stop-color="#8A8D85"/>
</linearGradient>
<linearGradient id="paint21_linear_1193_23" x1="468.154" y1="256.086" x2="579.73" y2="256.086" gradientUnits="userSpaceOnUse">
<stop stop-color="#8A8D85" stop-opacity="0"/>
<stop offset="1" stop-color="#8A8D85"/>
</linearGradient>
<linearGradient id="paint22_linear_1193_23" x1="468.154" y1="326.636" x2="579.73" y2="326.636" gradientUnits="userSpaceOnUse">
<stop stop-color="#8A8D85" stop-opacity="0"/>
<stop offset="1" stop-color="#8A8D85"/>
</linearGradient>
<linearGradient id="paint23_linear_1193_23" x1="468.154" y1="397.187" x2="579.73" y2="397.187" gradientUnits="userSpaceOnUse">
<stop stop-color="#8A8D85" stop-opacity="0"/>
<stop offset="1" stop-color="#8A8D85"/>
</linearGradient>
<linearGradient id="paint24_linear_1193_23" x1="623.544" y1="44.4343" x2="735.12" y2="44.4343" gradientUnits="userSpaceOnUse">
<stop stop-color="#8A8D85" stop-opacity="0"/>
<stop offset="1" stop-color="#8A8D85"/>
</linearGradient>
<linearGradient id="paint25_linear_1193_23" x1="623.544" y1="114.985" x2="735.12" y2="114.985" gradientUnits="userSpaceOnUse">
<stop stop-color="#8A8D85" stop-opacity="0"/>
<stop offset="1" stop-color="#8A8D85"/>
</linearGradient>
<linearGradient id="paint26_linear_1193_23" x1="623.544" y1="185.535" x2="735.12" y2="185.535" gradientUnits="userSpaceOnUse">
<stop stop-color="#8A8D85" stop-opacity="0"/>
<stop offset="1" stop-color="#8A8D85"/>
</linearGradient>
<linearGradient id="paint27_linear_1193_23" x1="623.544" y1="256.086" x2="735.12" y2="256.086" gradientUnits="userSpaceOnUse">
<stop stop-color="#8A8D85" stop-opacity="0"/>
<stop offset="1" stop-color="#8A8D85"/>
</linearGradient>
<linearGradient id="paint28_linear_1193_23" x1="623.544" y1="326.636" x2="735.12" y2="326.636" gradientUnits="userSpaceOnUse">
<stop stop-color="#8A8D85" stop-opacity="0"/>
<stop offset="1" stop-color="#8A8D85"/>
</linearGradient>
<linearGradient id="paint29_linear_1193_23" x1="623.544" y1="397.187" x2="735.12" y2="397.187" gradientUnits="userSpaceOnUse">
<stop stop-color="#8A8D85" stop-opacity="0"/>
<stop offset="1" stop-color="#8A8D85"/>
</linearGradient>
<linearGradient id="paint30_linear_1193_23" x1="778.935" y1="44.4343" x2="890.51" y2="44.4343" gradientUnits="userSpaceOnUse">
<stop stop-color="#8A8D85" stop-opacity="0"/>
<stop offset="1" stop-color="#8A8D85"/>
</linearGradient>
<linearGradient id="paint31_linear_1193_23" x1="778.935" y1="114.985" x2="890.51" y2="114.985" gradientUnits="userSpaceOnUse">
<stop stop-color="#8A8D85" stop-opacity="0"/>
<stop offset="1" stop-color="#8A8D85"/>
</linearGradient>
<linearGradient id="paint32_linear_1193_23" x1="778.935" y1="185.535" x2="890.51" y2="185.535" gradientUnits="userSpaceOnUse">
<stop stop-color="#8A8D85" stop-opacity="0"/>
<stop offset="1" stop-color="#8A8D85"/>
</linearGradient>
<linearGradient id="paint33_linear_1193_23" x1="778.935" y1="256.086" x2="890.51" y2="256.086" gradientUnits="userSpaceOnUse">
<stop stop-color="#8A8D85" stop-opacity="0"/>
<stop offset="1" stop-color="#8A8D85"/>
</linearGradient>
<linearGradient id="paint34_linear_1193_23" x1="778.935" y1="326.636" x2="890.51" y2="326.636" gradientUnits="userSpaceOnUse">
<stop stop-color="#8A8D85" stop-opacity="0"/>
<stop offset="1" stop-color="#8A8D85"/>
</linearGradient>
<linearGradient id="paint35_linear_1193_23" x1="778.935" y1="397.187" x2="890.51" y2="397.187" gradientUnits="userSpaceOnUse">
<stop stop-color="#8A8D85" stop-opacity="0"/>
<stop offset="1" stop-color="#8A8D85"/>
</linearGradient>
<linearGradient id="paint36_linear_1193_23" x1="934.325" y1="44.4343" x2="1045.9" y2="44.4343" gradientUnits="userSpaceOnUse">
<stop stop-color="#8A8D85" stop-opacity="0"/>
<stop offset="1" stop-color="#8A8D85"/>
</linearGradient>
<linearGradient id="paint37_linear_1193_23" x1="934.325" y1="114.985" x2="1045.9" y2="114.985" gradientUnits="userSpaceOnUse">
<stop stop-color="#8A8D85" stop-opacity="0"/>
<stop offset="1" stop-color="#8A8D85"/>
</linearGradient>
<linearGradient id="paint38_linear_1193_23" x1="934.325" y1="185.535" x2="1045.9" y2="185.535" gradientUnits="userSpaceOnUse">
<stop stop-color="#8A8D85" stop-opacity="0"/>
<stop offset="1" stop-color="#8A8D85"/>
</linearGradient>
<linearGradient id="paint39_linear_1193_23" x1="934.325" y1="256.086" x2="1045.9" y2="256.086" gradientUnits="userSpaceOnUse">
<stop stop-color="#8A8D85" stop-opacity="0"/>
<stop offset="1" stop-color="#8A8D85"/>
</linearGradient>
<linearGradient id="paint40_linear_1193_23" x1="934.325" y1="326.636" x2="1045.9" y2="326.636" gradientUnits="userSpaceOnUse">
<stop stop-color="#8A8D85" stop-opacity="0"/>
<stop offset="1" stop-color="#8A8D85"/>
</linearGradient>
<linearGradient id="paint41_linear_1193_23" x1="934.325" y1="397.187" x2="1045.9" y2="397.187" gradientUnits="userSpaceOnUse">
<stop stop-color="#8A8D85" stop-opacity="0"/>
<stop offset="1" stop-color="#8A8D85"/>
</linearGradient>
<linearGradient id="paint42_linear_1193_23" x1="1089.71" y1="44.4343" x2="1201.29" y2="44.4343" gradientUnits="userSpaceOnUse">
<stop stop-color="#8A8D85" stop-opacity="0"/>
<stop offset="1" stop-color="#8A8D85"/>
</linearGradient>
<linearGradient id="paint43_linear_1193_23" x1="1089.71" y1="114.985" x2="1201.29" y2="114.985" gradientUnits="userSpaceOnUse">
<stop stop-color="#8A8D85" stop-opacity="0"/>
<stop offset="1" stop-color="#8A8D85"/>
</linearGradient>
<linearGradient id="paint44_linear_1193_23" x1="1089.71" y1="185.535" x2="1201.29" y2="185.535" gradientUnits="userSpaceOnUse">
<stop stop-color="#8A8D85" stop-opacity="0"/>
<stop offset="1" stop-color="#8A8D85"/>
</linearGradient>
<linearGradient id="paint45_linear_1193_23" x1="1089.71" y1="256.086" x2="1201.29" y2="256.086" gradientUnits="userSpaceOnUse">
<stop stop-color="#8A8D85" stop-opacity="0"/>
<stop offset="1" stop-color="#8A8D85"/>
</linearGradient>
<linearGradient id="paint46_linear_1193_23" x1="1089.71" y1="326.636" x2="1201.29" y2="326.636" gradientUnits="userSpaceOnUse">
<stop stop-color="#8A8D85" stop-opacity="0"/>
<stop offset="1" stop-color="#8A8D85"/>
</linearGradient>
<linearGradient id="paint47_linear_1193_23" x1="1089.71" y1="397.187" x2="1201.29" y2="397.187" gradientUnits="userSpaceOnUse">
<stop stop-color="#8A8D85" stop-opacity="0"/>
<stop offset="1" stop-color="#8A8D85"/>
</linearGradient>
<linearGradient id="paint48_linear_1193_23" x1="66.7095" y1="9.15918" x2="178.285" y2="9.15918" gradientUnits="userSpaceOnUse">
<stop stop-color="#8A8D85" stop-opacity="0"/>
<stop offset="1" stop-color="#8A8D85"/>
</linearGradient>
<linearGradient id="paint49_linear_1193_23" x1="66.7095" y1="79.7097" x2="178.285" y2="79.7097" gradientUnits="userSpaceOnUse">
<stop stop-color="#8A8D85" stop-opacity="0"/>
<stop offset="1" stop-color="#8A8D85"/>
</linearGradient>
<linearGradient id="paint50_linear_1193_23" x1="66.7095" y1="150.26" x2="178.285" y2="150.26" gradientUnits="userSpaceOnUse">
<stop stop-color="#8A8D85" stop-opacity="0"/>
<stop offset="1" stop-color="#8A8D85"/>
</linearGradient>
<linearGradient id="paint51_linear_1193_23" x1="66.7095" y1="220.811" x2="178.285" y2="220.811" gradientUnits="userSpaceOnUse">
<stop stop-color="#8A8D85" stop-opacity="0"/>
<stop offset="1" stop-color="#8A8D85"/>
</linearGradient>
<linearGradient id="paint52_linear_1193_23" x1="66.7095" y1="291.361" x2="178.285" y2="291.361" gradientUnits="userSpaceOnUse">
<stop stop-color="#8A8D85" stop-opacity="0"/>
<stop offset="1" stop-color="#8A8D85"/>
</linearGradient>
<linearGradient id="paint53_linear_1193_23" x1="66.7095" y1="361.912" x2="178.285" y2="361.912" gradientUnits="userSpaceOnUse">
<stop stop-color="#8A8D85" stop-opacity="0"/>
<stop offset="1" stop-color="#8A8D85"/>
</linearGradient>
<linearGradient id="paint54_linear_1193_23" x1="222.1" y1="9.15918" x2="333.675" y2="9.15918" gradientUnits="userSpaceOnUse">
<stop stop-color="#8A8D85" stop-opacity="0"/>
<stop offset="1" stop-color="#8A8D85"/>
</linearGradient>
<linearGradient id="paint55_linear_1193_23" x1="222.1" y1="79.7097" x2="333.675" y2="79.7097" gradientUnits="userSpaceOnUse">
<stop stop-color="#8A8D85" stop-opacity="0"/>
<stop offset="1" stop-color="#8A8D85"/>
</linearGradient>
<linearGradient id="paint56_linear_1193_23" x1="222.1" y1="150.26" x2="333.675" y2="150.26" gradientUnits="userSpaceOnUse">
<stop stop-color="#8A8D85" stop-opacity="0"/>
<stop offset="1" stop-color="#8A8D85"/>
</linearGradient>
<linearGradient id="paint57_linear_1193_23" x1="222.1" y1="220.811" x2="333.675" y2="220.811" gradientUnits="userSpaceOnUse">
<stop stop-color="#8A8D85" stop-opacity="0"/>
<stop offset="1" stop-color="#8A8D85"/>
</linearGradient>
<linearGradient id="paint58_linear_1193_23" x1="222.1" y1="291.361" x2="333.675" y2="291.361" gradientUnits="userSpaceOnUse">
<stop stop-color="#8A8D85" stop-opacity="0"/>
<stop offset="1" stop-color="#8A8D85"/>
</linearGradient>
<linearGradient id="paint59_linear_1193_23" x1="222.1" y1="361.912" x2="333.675" y2="361.912" gradientUnits="userSpaceOnUse">
<stop stop-color="#8A8D85" stop-opacity="0"/>
<stop offset="1" stop-color="#8A8D85"/>
</linearGradient>
<linearGradient id="paint60_linear_1193_23" x1="377.49" y1="9.15918" x2="489.065" y2="9.15918" gradientUnits="userSpaceOnUse">
<stop stop-color="#8A8D85" stop-opacity="0"/>
<stop offset="1" stop-color="#8A8D85"/>
</linearGradient>
<linearGradient id="paint61_linear_1193_23" x1="377.49" y1="79.7097" x2="489.065" y2="79.7097" gradientUnits="userSpaceOnUse">
<stop stop-color="#8A8D85" stop-opacity="0"/>
<stop offset="1" stop-color="#8A8D85"/>
</linearGradient>
<linearGradient id="paint62_linear_1193_23" x1="377.49" y1="150.26" x2="489.065" y2="150.26" gradientUnits="userSpaceOnUse">
<stop stop-color="#8A8D85" stop-opacity="0"/>
<stop offset="1" stop-color="#8A8D85"/>
</linearGradient>
<linearGradient id="paint63_linear_1193_23" x1="377.49" y1="220.811" x2="489.065" y2="220.811" gradientUnits="userSpaceOnUse">
<stop stop-color="#8A8D85" stop-opacity="0"/>
<stop offset="1" stop-color="#8A8D85"/>
</linearGradient>
<linearGradient id="paint64_linear_1193_23" x1="377.49" y1="291.361" x2="489.065" y2="291.361" gradientUnits="userSpaceOnUse">
<stop stop-color="#8A8D85" stop-opacity="0"/>
<stop offset="1" stop-color="#8A8D85"/>
</linearGradient>
<linearGradient id="paint65_linear_1193_23" x1="377.49" y1="361.912" x2="489.065" y2="361.912" gradientUnits="userSpaceOnUse">
<stop stop-color="#8A8D85" stop-opacity="0"/>
<stop offset="1" stop-color="#8A8D85"/>
</linearGradient>
<linearGradient id="paint66_linear_1193_23" x1="532.88" y1="9.15918" x2="644.456" y2="9.15918" gradientUnits="userSpaceOnUse">
<stop stop-color="#8A8D85" stop-opacity="0"/>
<stop offset="1" stop-color="#8A8D85"/>
</linearGradient>
<linearGradient id="paint67_linear_1193_23" x1="532.88" y1="79.7097" x2="644.456" y2="79.7097" gradientUnits="userSpaceOnUse">
<stop stop-color="#8A8D85" stop-opacity="0"/>
<stop offset="1" stop-color="#8A8D85"/>
</linearGradient>
<linearGradient id="paint68_linear_1193_23" x1="532.88" y1="150.26" x2="644.456" y2="150.26" gradientUnits="userSpaceOnUse">
<stop stop-color="#8A8D85" stop-opacity="0"/>
<stop offset="1" stop-color="#8A8D85"/>
</linearGradient>
<linearGradient id="paint69_linear_1193_23" x1="532.88" y1="220.811" x2="644.456" y2="220.811" gradientUnits="userSpaceOnUse">
<stop stop-color="#8A8D85" stop-opacity="0"/>
<stop offset="1" stop-color="#8A8D85"/>
</linearGradient>
<linearGradient id="paint70_linear_1193_23" x1="532.88" y1="291.361" x2="644.456" y2="291.361" gradientUnits="userSpaceOnUse">
<stop stop-color="#8A8D85" stop-opacity="0"/>
<stop offset="1" stop-color="#8A8D85"/>
</linearGradient>
<linearGradient id="paint71_linear_1193_23" x1="532.88" y1="361.912" x2="644.456" y2="361.912" gradientUnits="userSpaceOnUse">
<stop stop-color="#8A8D85" stop-opacity="0"/>
<stop offset="1" stop-color="#8A8D85"/>
</linearGradient>
<linearGradient id="paint72_linear_1193_23" x1="688.27" y1="9.15918" x2="799.846" y2="9.15918" gradientUnits="userSpaceOnUse">
<stop stop-color="#8A8D85" stop-opacity="0"/>
<stop offset="1" stop-color="#8A8D85"/>
</linearGradient>
<linearGradient id="paint73_linear_1193_23" x1="688.27" y1="79.7097" x2="799.846" y2="79.7097" gradientUnits="userSpaceOnUse">
<stop stop-color="#8A8D85" stop-opacity="0"/>
<stop offset="1" stop-color="#8A8D85"/>
</linearGradient>
<linearGradient id="paint74_linear_1193_23" x1="688.27" y1="150.26" x2="799.846" y2="150.26" gradientUnits="userSpaceOnUse">
<stop stop-color="#8A8D85" stop-opacity="0"/>
<stop offset="1" stop-color="#8A8D85"/>
</linearGradient>
<linearGradient id="paint75_linear_1193_23" x1="688.27" y1="220.811" x2="799.846" y2="220.811" gradientUnits="userSpaceOnUse">
<stop stop-color="#8A8D85" stop-opacity="0"/>
<stop offset="1" stop-color="#8A8D85"/>
</linearGradient>
<linearGradient id="paint76_linear_1193_23" x1="688.27" y1="291.361" x2="799.846" y2="291.361" gradientUnits="userSpaceOnUse">
<stop stop-color="#8A8D85" stop-opacity="0"/>
<stop offset="1" stop-color="#8A8D85"/>
</linearGradient>
<linearGradient id="paint77_linear_1193_23" x1="688.27" y1="361.912" x2="799.846" y2="361.912" gradientUnits="userSpaceOnUse">
<stop stop-color="#8A8D85" stop-opacity="0"/>
<stop offset="1" stop-color="#8A8D85"/>
</linearGradient>
<linearGradient id="paint78_linear_1193_23" x1="843.66" y1="9.15918" x2="955.236" y2="9.15918" gradientUnits="userSpaceOnUse">
<stop stop-color="#8A8D85" stop-opacity="0"/>
<stop offset="1" stop-color="#8A8D85"/>
</linearGradient>
<linearGradient id="paint79_linear_1193_23" x1="843.66" y1="79.7097" x2="955.236" y2="79.7097" gradientUnits="userSpaceOnUse">
<stop stop-color="#8A8D85" stop-opacity="0"/>
<stop offset="1" stop-color="#8A8D85"/>
</linearGradient>
<linearGradient id="paint80_linear_1193_23" x1="843.66" y1="150.26" x2="955.236" y2="150.26" gradientUnits="userSpaceOnUse">
<stop stop-color="#8A8D85" stop-opacity="0"/>
<stop offset="1" stop-color="#8A8D85"/>
</linearGradient>
<linearGradient id="paint81_linear_1193_23" x1="843.66" y1="220.811" x2="955.236" y2="220.811" gradientUnits="userSpaceOnUse">
<stop stop-color="#8A8D85" stop-opacity="0"/>
<stop offset="1" stop-color="#8A8D85"/>
</linearGradient>
<linearGradient id="paint82_linear_1193_23" x1="843.66" y1="291.361" x2="955.236" y2="291.361" gradientUnits="userSpaceOnUse">
<stop stop-color="#8A8D85" stop-opacity="0"/>
<stop offset="1" stop-color="#8A8D85"/>
</linearGradient>
<linearGradient id="paint83_linear_1193_23" x1="843.66" y1="361.912" x2="955.236" y2="361.912" gradientUnits="userSpaceOnUse">
<stop stop-color="#8A8D85" stop-opacity="0"/>
<stop offset="1" stop-color="#8A8D85"/>
</linearGradient>
<linearGradient id="paint84_linear_1193_23" x1="999.05" y1="9.15918" x2="1110.63" y2="9.15918" gradientUnits="userSpaceOnUse">
<stop stop-color="#8A8D85" stop-opacity="0"/>
<stop offset="1" stop-color="#8A8D85"/>
</linearGradient>
<linearGradient id="paint85_linear_1193_23" x1="999.05" y1="79.7097" x2="1110.63" y2="79.7097" gradientUnits="userSpaceOnUse">
<stop stop-color="#8A8D85" stop-opacity="0"/>
<stop offset="1" stop-color="#8A8D85"/>
</linearGradient>
<linearGradient id="paint86_linear_1193_23" x1="999.05" y1="150.26" x2="1110.63" y2="150.26" gradientUnits="userSpaceOnUse">
<stop stop-color="#8A8D85" stop-opacity="0"/>
<stop offset="1" stop-color="#8A8D85"/>
</linearGradient>
<linearGradient id="paint87_linear_1193_23" x1="999.05" y1="220.811" x2="1110.63" y2="220.811" gradientUnits="userSpaceOnUse">
<stop stop-color="#8A8D85" stop-opacity="0"/>
<stop offset="1" stop-color="#8A8D85"/>
</linearGradient>
<linearGradient id="paint88_linear_1193_23" x1="999.05" y1="291.361" x2="1110.63" y2="291.361" gradientUnits="userSpaceOnUse">
<stop stop-color="#8A8D85" stop-opacity="0"/>
<stop offset="1" stop-color="#8A8D85"/>
</linearGradient>
<linearGradient id="paint89_linear_1193_23" x1="999.05" y1="361.912" x2="1110.63" y2="361.912" gradientUnits="userSpaceOnUse">
<stop stop-color="#8A8D85" stop-opacity="0"/>
<stop offset="1" stop-color="#8A8D85"/>
</linearGradient>
<linearGradient id="paint90_linear_1193_23" x1="1154.44" y1="9.15918" x2="1266.02" y2="9.15918" gradientUnits="userSpaceOnUse">
<stop stop-color="#8A8D85" stop-opacity="0"/>
<stop offset="1" stop-color="#8A8D85"/>
</linearGradient>
<linearGradient id="paint91_linear_1193_23" x1="1154.44" y1="79.7097" x2="1266.02" y2="79.7097" gradientUnits="userSpaceOnUse">
<stop stop-color="#8A8D85" stop-opacity="0"/>
<stop offset="1" stop-color="#8A8D85"/>
</linearGradient>
<linearGradient id="paint92_linear_1193_23" x1="1154.44" y1="150.26" x2="1266.02" y2="150.26" gradientUnits="userSpaceOnUse">
<stop stop-color="#8A8D85" stop-opacity="0"/>
<stop offset="1" stop-color="#8A8D85"/>
</linearGradient>
<linearGradient id="paint93_linear_1193_23" x1="1154.44" y1="220.811" x2="1266.02" y2="220.811" gradientUnits="userSpaceOnUse">
<stop stop-color="#8A8D85" stop-opacity="0"/>
<stop offset="1" stop-color="#8A8D85"/>
</linearGradient>
<linearGradient id="paint94_linear_1193_23" x1="1154.44" y1="291.361" x2="1266.02" y2="291.361" gradientUnits="userSpaceOnUse">
<stop stop-color="#8A8D85" stop-opacity="0"/>
<stop offset="1" stop-color="#8A8D85"/>
</linearGradient>
<linearGradient id="paint95_linear_1193_23" x1="1154.44" y1="361.912" x2="1266.02" y2="361.912" gradientUnits="userSpaceOnUse">
<stop stop-color="#8A8D85" stop-opacity="0"/>
<stop offset="1" stop-color="#8A8D85"/>
</linearGradient>
</defs>
</svg>
