<svg width="149" height="39" viewBox="0 0 149 39" fill="none" xmlns="http://www.w3.org/2000/svg">
<path fill-rule="evenodd" clip-rule="evenodd" d="M143.572 0.654503C144.243 0.77285 144.914 0.891113 145.591 0.951389L145.585 0.945047C146.942 1.06555 147.817 1.70298 148.344 3.00637C148.019 3.19547 147.703 3.38035 147.396 3.55973L147.376 3.57107L147.361 3.58002L147.359 3.58143C146.881 3.86041 146.426 4.12592 146 4.37318C145.76 4.31726 145.518 4.23868 145.279 4.16084C144.759 3.9915 144.25 3.82563 143.78 3.90384C142.28 4.1512 141.687 5.49581 142.068 7.04656C142.208 7.61237 142.352 8.17774 142.496 8.74327L142.496 8.74627L142.497 8.74936C143.03 10.8412 143.564 12.9351 143.876 15.0603C144.339 18.2126 143.834 21.1904 140.939 23.2137C140.153 23.7655 140.194 24.2094 140.958 24.793C141.792 25.4312 142.56 26.158 143.325 26.8813L143.562 27.1048C144.301 27.7993 144.155 28.5255 143.264 28.8236C142.179 29.1883 141.018 29.423 139.88 29.4864C138.64 29.553 138.266 30.0477 138.573 31.1862C138.842 32.1731 139.111 33.16 139.385 34.1625L139.394 34.1937C139.718 35.3814 140.048 36.5912 140.39 37.8491C139.54 38.1472 139.116 37.9886 138.878 36.9674C138.623 35.8679 138.29 34.7878 137.958 33.7073L137.957 33.7071C137.703 32.8805 137.449 32.0537 137.229 31.2179C136.921 30.0541 136.242 29.7274 135.126 29.8924C134.608 29.9689 134.082 29.9851 133.557 30.0013L133.557 30.0013L133.557 30.0013L133.557 30.0013C133.321 30.0086 133.084 30.0159 132.849 30.0287L132.687 29.4103C132.87 29.3566 133.051 29.2906 133.233 29.2246L133.233 29.2246C133.62 29.084 134.007 28.9435 134.4 28.9219C136.239 28.8173 136.331 28.7348 135.814 27.0255C135.176 24.9219 133.752 23.8606 131.543 23.8416C131.366 23.8416 131.189 23.8359 131.012 23.8303C130.659 23.819 130.306 23.8078 129.957 23.8416C129.667 23.8694 129.343 23.8721 129.016 23.8748C128.189 23.8816 127.343 23.8886 126.979 24.3046C125.907 25.5319 125.146 27.127 124.632 28.6968C124.417 29.3564 125.035 30.3998 125.482 31.1418C126.25 32.4116 127.074 33.6472 127.897 34.883L127.897 34.8832C128.302 35.4899 128.706 36.0966 129.104 36.7074C129.25 36.9316 129.376 37.1692 129.503 37.407C129.56 37.5156 129.618 37.6243 129.678 37.7317C129.619 37.7967 129.56 37.8617 129.5 37.9266C129.441 37.9917 129.381 38.0567 129.323 38.1218C129.172 38.014 129.009 37.9154 128.846 37.8169C128.486 37.5995 128.126 37.3822 127.905 37.0658C126.094 34.4748 124.322 31.8554 122.628 29.1852C122.393 28.8173 122.514 28.0435 122.742 27.5932C123.139 26.8086 123.612 26.0623 124.136 25.2371L124.136 25.237L124.136 25.2367L124.137 25.2354L124.137 25.2343C124.366 24.873 124.605 24.4966 124.851 24.0953C122.875 23.702 121.553 24.2285 120.456 25.1323C117.786 27.3363 115.563 29.9653 114.04 33.0826C113.67 33.8409 113.477 34.6834 113.284 35.5281C113.162 36.0647 113.039 36.6022 112.87 37.1197C112.796 37.3493 112.559 37.5277 112.322 37.7057C112.215 37.7858 112.109 37.8659 112.017 37.9505C111.963 37.8464 111.888 37.7352 111.813 37.6241C111.651 37.3867 111.491 37.1497 111.545 36.9833C111.817 36.1635 112.136 35.3601 112.455 34.5564C112.679 33.9921 112.903 33.4278 113.111 32.8575C113.342 32.2239 113.555 31.5839 113.768 30.944L113.768 30.9439L113.768 30.9438L113.768 30.9436L113.768 30.9434C114.053 30.0878 114.339 29.2323 114.665 28.3923C114.854 27.9061 115.197 27.4716 115.532 27.0484L115.532 27.0483L115.533 27.0478L115.533 27.0473L115.593 26.9719C115.612 26.9469 115.632 26.922 115.652 26.897C115.665 26.8796 115.679 26.8622 115.693 26.8448C115.894 26.5867 116.124 26.3424 116.354 26.0985L116.354 26.0985C116.789 25.6381 117.221 25.1796 117.449 24.6344C117.922 23.5023 118.315 22.202 118.236 21.0096C118.191 20.313 117.78 19.64 117.399 19.016C117.239 18.7537 117.084 18.5001 116.964 18.257C117.116 18.045 117.274 17.8126 117.44 17.5689C117.818 17.0141 118.236 16.4004 118.712 15.8341C119.174 15.2835 119.634 14.7312 120.095 14.1788L120.096 14.1771L120.099 14.1742C122.001 11.8936 123.903 9.6124 125.926 7.44614C127.287 5.99053 129.148 6.24106 130.493 7.81718C131.263 8.72025 132.002 9.64984 132.74 10.5793L132.741 10.5799L132.741 10.5803L132.741 10.5806L132.741 10.5807C133.447 11.4687 134.152 12.3566 134.885 13.221C135.459 13.8965 136.119 14.6164 136.899 14.9652C137.641 15.2982 138.748 15.4821 139.385 15.146C139.867 14.8923 140.162 13.6491 140.016 12.9578C139.72 11.5506 139.34 10.1605 138.96 8.77032L138.96 8.76989C138.645 7.61627 138.33 6.46262 138.063 5.29919C137.813 4.20745 137.667 3.09231 137.505 1.8525C137.428 1.26643 137.348 0.652495 137.251 9.6846e-06C137.802 0.0459169 138.331 0.0856455 138.846 0.124277L138.846 0.12428C139.897 0.203069 140.886 0.277297 141.871 0.390075C142.441 0.455284 143.006 0.554923 143.572 0.654503ZM142.039 27.7866C142.087 27.5266 141.811 27.1143 141.561 26.9018L141.564 26.905C140.768 26.2232 139.956 25.5477 139.077 24.9801C138.693 24.73 138.248 24.5739 137.803 24.4176C137.599 24.346 137.395 24.2743 137.197 24.1936C137.21 24.3547 137.221 24.5161 137.233 24.6775C137.264 25.107 137.295 25.5367 137.352 25.9632C137.368 26.0774 137.381 26.1933 137.394 26.3099L137.394 26.3102C137.447 26.7729 137.501 27.2444 137.688 27.6471C137.842 27.9775 138.125 28.2465 138.371 28.4795C138.469 28.573 138.561 28.6608 138.637 28.7444C138.963 28.6967 139.265 28.6572 139.549 28.6199C140.172 28.5382 140.709 28.4678 141.234 28.3479C141.545 28.2782 141.995 28.0213 142.039 27.7866ZM66.8296 12.9388C69.1922 13.5825 70.9174 15.9515 71.0062 18.72L71.0125 18.7232C71.0781 20.8124 71.0717 22.9027 71.0653 24.9929V24.9935C71.0609 26.4406 71.0565 27.8877 71.0759 29.3342C71.0965 30.8398 70.2294 30.8144 69.351 30.7886C69.147 30.7827 68.9424 30.7767 68.7482 30.7898C67.6129 30.8659 66.8518 30.6883 66.9025 29.1978C66.953 27.7036 66.9376 26.2077 66.9223 24.7119C66.9067 23.1982 66.8911 21.6845 66.9438 20.1724C67.0675 16.6206 64.0357 14.924 60.69 16.8077C60.1826 17.0931 59.8211 18.0604 59.8084 18.72C59.7387 22.2528 59.7609 25.7919 59.8275 29.3279C59.8568 30.8941 58.988 30.8375 58.125 30.7812C57.868 30.7645 57.6114 30.7478 57.3792 30.774C56.2788 30.8945 55.6097 30.6122 55.6446 29.2391C55.6934 27.2448 55.677 25.248 55.6606 23.251C55.6515 22.1327 55.6423 21.0144 55.6446 19.8965C55.6477 18.4124 55.1974 17.1153 53.8147 16.4747C52.2672 15.758 50.653 15.9483 49.3623 17.0709C48.9056 17.4705 48.6805 18.3458 48.6678 19.0117C48.598 22.3891 48.5536 25.7729 48.6678 29.1471C48.7218 30.7745 47.8472 30.7842 46.8847 30.7948H46.8846H46.8846H46.8845H46.8845C46.718 30.7967 46.5488 30.7986 46.3813 30.8088C45.1286 30.885 44.431 30.6091 44.4563 29.0995C44.5325 24.2412 44.5103 19.3828 44.4627 14.5276C44.45 13.2622 44.9098 12.7865 46.1561 12.9737C46.5058 13.0267 46.8813 12.9862 47.2395 12.9477C47.9305 12.8732 48.5567 12.8058 48.8073 13.4303C49.4042 13.3649 49.9821 13.2946 50.5466 13.226L50.5467 13.226C51.9795 13.0519 53.326 12.8882 54.6773 12.8405C55.3401 12.8183 56.1932 13.183 56.6594 13.6618C57.7598 14.7876 58.616 14.5339 59.8053 13.757C61.9585 12.3489 64.4163 12.2823 66.8296 12.9388ZM19.4629 24.5266C16.4724 27.5203 12.2927 28.0087 8.74401 25.7127C5.2905 23.4833 3.36872 19.3828 5.36978 14.813C6.96493 11.1661 11.5157 8.83836 15.3624 10.0434C16.6363 10.4426 17.8186 11.1313 19.0002 11.8196L19.0003 11.8197C19.5366 12.1321 20.0727 12.4444 20.6172 12.7295L21.0073 13.5382C21.1485 13.3176 21.2775 13.0837 21.4065 12.8498L21.4065 12.8498L21.4065 12.8498L21.4066 12.8498C21.6949 12.3272 21.983 11.8049 22.4058 11.4325C23.5443 10.4272 23.2589 9.72632 22.2568 8.89545C18.5496 5.82883 14.4396 4.81403 9.69222 5.94934C3.03573 7.54449 -1.59749 15.5836 0.57166 22.0689C3.4924 30.8025 13.9798 34.1514 21.3847 28.7127C23.8709 26.886 23.8614 26.6926 21.7525 24.5393C20.9122 23.6831 20.3794 23.6101 19.4629 24.5266ZM74.3584 21.1999C74.6692 16.2496 79.1787 12.3331 84.3003 12.5646L84.2971 12.5677C89.5044 12.8024 93.4843 16.8965 93.405 21.8437C93.3828 23.1344 92.9103 23.6164 91.6164 23.5974C88.0266 23.5435 84.4303 23.5593 80.8373 23.6069C80.441 23.6112 80.0462 23.7531 79.6508 23.8951L79.6507 23.8952C79.4672 23.9611 79.2835 24.0271 79.0994 24.0794C79.17 24.2728 79.2277 24.4758 79.2854 24.6789L79.2854 24.679L79.2855 24.6791C79.4094 25.1152 79.5335 25.5515 79.7844 25.8934C81.1227 27.7042 84.1671 28.3606 86.5868 27.4314C87.041 27.2569 87.484 27.0503 87.9621 26.8274C88.2051 26.7141 88.4571 26.5966 88.7242 26.4769L89.3818 27.2424L89.3838 27.2447C89.8802 27.8226 90.3929 28.4193 91.0551 29.1915C90.5421 29.4103 90.0576 29.6406 89.5886 29.8635C88.617 30.3253 87.712 30.7554 86.7581 30.9864C79.6734 32.6957 73.9493 27.682 74.3584 21.1999ZM81.0696 20.2828C82.9161 20.3026 84.7626 20.3223 86.609 20.2802C87.1051 20.2694 87.5966 20.1241 88.0888 19.9787L88.0889 19.9787C88.3141 19.9122 88.5395 19.8456 88.7655 19.7919C88.6606 19.5953 88.5574 19.3975 88.4542 19.1996C88.1829 18.6793 87.9112 18.1585 87.6079 17.6576C87.4596 17.4124 87.1928 17.225 86.9454 17.0512L86.9103 17.0265C83.7136 14.7876 79.2104 16.8362 78.9948 20.0583C79.0743 20.092 79.1433 20.1273 79.2055 20.159C79.3243 20.2197 79.418 20.2676 79.5117 20.2676C80.031 20.2717 80.5503 20.2773 81.0696 20.2828ZM40.568 24.4567H40.5426C40.5426 23.9983 40.5512 23.5391 40.5598 23.0798V23.0795C40.5797 22.0072 40.5997 20.9345 40.5109 19.8711C40.4158 18.7358 40.2192 17.537 39.7467 16.5191C37.3397 11.3499 29.7603 11.851 26.5637 14.6195C26.3925 14.7685 26.2339 15.0666 26.2498 15.2823C26.3417 16.5222 28.2825 17.4831 29.3639 16.8489C31.6187 15.5265 34.8819 16.148 35.9411 18.1047C36.7118 19.5286 36.4644 20.0201 34.8883 20.1216C34.4675 20.1481 34.0375 20.1428 33.608 20.1375C32.7493 20.1269 31.8924 20.1164 31.1145 20.3595C29.5098 20.8637 27.7656 21.4948 26.5637 22.5952C24.0806 24.869 24.8893 29.0868 27.8988 30.5995C30.179 31.7443 32.494 31.4018 34.8058 30.6153C35.2625 30.4599 35.7857 30.4092 36.271 30.4409C36.8171 30.4761 37.3606 30.544 37.9042 30.612L37.9042 30.612C38.3897 30.6726 38.8753 30.7333 39.3629 30.7707C40.2192 30.8342 40.5902 30.3838 40.5775 29.5181C40.5571 28.3132 40.561 27.1083 40.5649 25.9022L40.5649 25.8992C40.5665 25.4186 40.568 24.9378 40.568 24.4567ZM35.291 27.1745C33.9274 27.5709 32.4305 27.7739 31.0289 27.6502C30.4263 27.5963 29.6018 26.5625 29.4622 25.8584C29.3417 25.2527 29.8777 24.1364 30.4327 23.8542C31.254 23.438 32.1726 23.215 33.1844 22.9694C33.6219 22.8632 34.0769 22.7527 34.549 22.6206C34.7368 22.7425 34.9689 22.8587 35.202 22.9753C35.7202 23.2347 36.2428 23.4963 36.2931 23.8288C36.3172 23.988 36.3491 24.1557 36.3819 24.3282C36.5916 25.4308 36.8377 26.7248 35.291 27.1745ZM100.87 25.3351C100.86 26.8098 101.314 27.7612 103.001 27.8658V27.8722C103.388 27.8944 103.962 28.5476 104.048 28.9884C104.209 29.8225 104.365 30.777 103.106 31.1481C99.6839 32.1534 96.6965 30.0445 96.6807 26.48C96.6707 23.9315 96.6759 21.383 96.6811 18.8345C96.6891 14.8882 96.6971 10.942 96.649 6.99572C96.6299 5.42277 97.3974 5.2547 98.5834 5.32446C98.7542 5.33425 98.929 5.33415 99.1023 5.33404C100.052 5.33347 100.955 5.33293 100.898 6.96084C100.823 9.14609 100.839 11.336 100.856 13.5252C100.863 14.4526 100.87 15.3799 100.87 16.3066H100.876C100.876 17.1918 100.878 18.077 100.879 18.9622C100.882 21.0865 100.886 23.2108 100.87 25.3351Z" fill="#E8ECDF"/>
</svg>
