<svg width="167" height="167" viewBox="0 0 167 167" fill="none" xmlns="http://www.w3.org/2000/svg">
<g id="campaign">
<mask id="mask0_506_4247" style="mask-type:alpha" maskUnits="userSpaceOnUse" x="0" y="0" width="167" height="167">
<rect id="Bounding box" x="0.738281" y="0.918457" width="165.762" height="165.762" fill="#D9D9D9"/>
</mask>
<g mask="url(#mask0_506_4247)">
<path id="campaign_2" d="M124.528 87.2527V80.346H146.842V87.2527H124.528ZM132.02 131.881L114.168 118.492L118.472 113.02L136.323 126.409L132.02 131.881ZM117.94 54.0469L113.637 48.575L131.488 35.1863L135.791 40.6581L117.94 54.0469ZM38.7252 124.974V98.6747H31.5526C28.463 98.6747 25.8309 97.5881 23.6565 95.4148C21.4831 93.2403 20.3965 90.6082 20.3965 87.5186V80.0801C20.3965 76.9905 21.4831 74.3584 23.6565 72.1839C25.8309 70.0106 28.463 68.924 31.5526 68.924H57.3199L84.6809 52.719V114.88L57.3199 98.6747H45.632V124.974H38.7252ZM77.7742 102.581V65.0182L59.259 75.8307H31.5526C30.4901 75.8307 29.5163 76.2733 28.631 77.1585C27.7458 78.0437 27.3032 79.0176 27.3032 80.0801V87.5186C27.3032 88.5811 27.7458 89.555 28.631 90.4402C29.5163 91.3254 30.4901 91.768 31.5526 91.768H59.259L77.7742 102.581ZM96.9007 103.749V63.8492C99.2122 65.9926 101.074 68.8065 102.487 72.291C103.899 75.7754 104.605 79.6116 104.605 83.7994C104.605 87.9871 103.899 91.8233 102.487 95.3077C101.074 98.7922 99.2122 101.606 96.9007 103.749Z" fill="#888F77"/>
</g>
</g>
</svg>
