<svg width="140" height="141" viewBox="0 0 140 141" fill="none" xmlns="http://www.w3.org/2000/svg">
<g id="smb_share">
<mask id="mask0_506_4223" style="mask-type:alpha" maskUnits="userSpaceOnUse" x="0" y="0" width="140" height="141">
<rect id="Bounding box" y="0.639038" width="140" height="140" fill="#D9D9D9"/>
</mask>
<g mask="url(#mask0_506_4223)">
<path id="smb_share_2" d="M66.691 74.6772H92.9293C94.7843 74.6772 96.3623 74.0267 97.6631 72.7259C98.9649 71.4241 99.6158 69.8462 99.6158 67.9922C99.6158 66.1372 98.9649 64.5345 97.6631 63.184C96.3623 61.8346 94.7843 61.1599 92.9293 61.1599H89.721L89.2718 58.3555C88.9354 55.7674 87.7688 53.578 85.7718 51.7872C83.7759 49.9963 81.4352 49.1009 78.75 49.1009C76.5965 49.1009 74.6856 49.6633 73.0172 50.7882C71.3499 51.914 70.0563 53.4083 69.1366 55.2711L68.2383 57.0649L66.1077 57.1772C63.7889 57.3716 61.8386 58.2709 60.2568 59.8751C58.675 61.4792 57.8841 63.4781 57.8841 65.8717C57.8841 68.2644 58.7426 70.3304 60.4595 72.0697C62.1755 73.808 64.2527 74.6772 66.691 74.6772ZM21.0904 115.96C18.4051 115.96 16.1632 115.06 14.3645 113.262C12.5659 111.463 11.6666 109.221 11.6666 106.536V47.7549H17.5V106.536C17.5 107.433 17.8738 108.256 18.6214 109.005C19.3691 109.753 20.192 110.126 21.0904 110.126H111.058V115.96H21.0904ZM38.5904 98.4597C35.9051 98.4597 33.6632 97.5604 31.8645 95.7617C30.0659 93.9631 29.1666 91.7212 29.1666 89.0359V27.5628C29.1666 24.8775 30.0659 22.6356 31.8645 20.837C33.6632 19.0383 35.9051 18.139 38.5904 18.139H70L77.1793 25.3184H118.91C121.595 25.3184 123.837 26.2177 125.635 28.0163C127.434 29.8149 128.333 32.0569 128.333 34.7422V89.0359C128.333 91.7212 127.434 93.9631 125.635 95.7617C123.837 97.5604 121.595 98.4597 118.91 98.4597H38.5904ZM38.5904 92.6263H118.91C119.808 92.6263 120.631 92.2525 121.379 91.5049C122.126 90.7563 122.5 89.9333 122.5 89.0359V34.7422C122.5 33.8448 122.126 33.0218 121.379 32.2732C120.631 31.5256 119.808 31.1517 118.91 31.1517H74.722L67.5427 23.9724H38.5904C37.5433 23.9724 36.6829 24.3088 36.0091 24.9815C35.3363 25.6553 35 26.5157 35 27.5628V89.0359C35 89.9333 35.3738 90.7563 36.1214 91.5049C36.8691 92.2525 37.692 92.6263 38.5904 92.6263Z" fill="#E8ECDF"/>
</g>
</g>
</svg>
