<svg width="140" height="141" viewBox="0 0 140 141" fill="none" xmlns="http://www.w3.org/2000/svg">
<g id="database">
<mask id="mask0_506_4408" style="mask-type:alpha" maskUnits="userSpaceOnUse" x="0" y="0" width="140" height="141">
<rect id="Bounding box" y="0.670044" width="140" height="140" fill="#888F77"/>
</mask>
<g mask="url(#mask0_506_4408)">
<path id="database_2" d="M70.0002 117.337C56.3667 117.337 45.1803 115.6 36.441 112.126C27.7027 108.652 23.3335 104.182 23.3335 98.7153V41.5034C23.3335 36.6569 27.8825 32.5288 36.9806 29.1193C46.0777 25.7087 57.0842 24.0034 70.0002 24.0034C82.9161 24.0034 93.9227 25.7087 103.02 29.1193C112.118 32.5288 116.667 36.6569 116.667 41.5034V98.7153C116.667 104.182 112.298 108.652 103.559 112.126C94.82 115.6 83.6336 117.337 70.0002 117.337ZM70.0002 52.5313C78.3535 52.5313 86.7744 51.3661 95.2629 49.0357C103.751 46.7063 108.829 44.1693 110.497 41.4247C108.904 38.5304 103.906 35.8757 95.5035 33.4607C87.1016 31.0447 78.6004 29.8368 70.0002 29.8368C61.5272 29.8368 53.0373 31.0015 44.5304 33.3309C36.0234 35.6604 30.9397 38.2086 29.2791 40.9755C30.8648 43.8922 35.8737 46.5473 44.3058 48.9409C52.7379 51.3345 61.3027 52.5313 70.0002 52.5313ZM70.0002 81.8876C74.0086 81.8876 77.9461 81.6931 81.8127 81.3043C85.6792 80.9154 89.3756 80.3379 92.9018 79.5718C96.4281 78.8047 99.7035 77.849 102.728 76.7047C105.754 75.5613 108.455 74.2717 110.833 72.8357V48.9409C108.455 50.3769 105.754 51.667 102.728 52.8113C99.7035 53.9556 96.4281 54.9108 92.9018 55.677C89.3756 56.444 85.6792 57.022 81.8127 57.4109C77.9461 57.7998 74.0086 57.9943 70.0002 57.9943C65.842 57.9943 61.8 57.7809 57.8741 57.354C53.9473 56.9282 50.2397 56.3317 46.7514 55.5647C43.2621 54.7986 40.0295 53.8618 37.0535 52.7545C34.0766 51.6481 31.4477 50.3769 29.1668 48.9409V72.8357C31.4477 74.2717 34.0766 75.5429 37.0535 76.6493C40.0295 77.7556 43.2621 78.6924 46.7514 79.4595C50.2397 80.2256 53.9473 80.822 57.8741 81.2488C61.8 81.6747 65.842 81.8876 70.0002 81.8876ZM70.0002 111.503C74.9954 111.503 79.7462 111.219 84.2525 110.65C88.7587 110.083 92.8066 109.277 96.396 108.234C99.9854 107.191 103.037 105.945 105.55 104.498C108.063 103.051 109.824 101.486 110.833 99.8032V78.669C108.455 80.105 105.754 81.3947 102.728 82.538C99.7035 83.6823 96.4281 84.638 92.9018 85.4051C89.3756 86.1712 85.6792 86.7487 81.8127 87.1376C77.9461 87.5265 74.0086 87.7209 70.0002 87.7209C65.842 87.7209 61.8 87.508 57.8741 87.0822C53.9473 86.6554 50.2397 86.0589 46.7514 85.2928C43.2621 84.5257 40.0295 83.589 37.0535 82.4826C34.0766 81.3762 31.4477 80.105 29.1668 78.669V99.8368C30.176 101.595 31.9318 103.172 34.4343 104.571C36.9359 105.97 39.9813 107.191 43.5708 108.234C47.1602 109.277 51.2134 110.083 55.7304 110.65C60.2483 111.219 65.0049 111.503 70.0002 111.503Z" fill="#888F77"/>
</g>
</g>
</svg>
