<svg width="1272" height="400" viewBox="0 0 1272 400" fill="none" xmlns="http://www.w3.org/2000/svg">
<path d="M1.98389 39.9343C1.4316 39.9343 0.983887 40.382 0.983887 40.9343C0.983887 41.4866 1.4316 41.9343 1.98389 41.9343V39.9343ZM108.226 40.9343C108.226 43.8798 110.614 46.2677 113.56 46.2677C116.505 46.2677 118.893 43.8798 118.893 40.9343C118.893 37.9888 116.505 35.601 113.56 35.601C110.614 35.601 108.226 37.9888 108.226 40.9343ZM1.98389 41.9343H113.56V39.9343H1.98389V41.9343Z" fill="url(#paint0_linear_506_8802)"/>
<path d="M1.98389 110.485C1.4316 110.485 0.983887 110.933 0.983887 111.485C0.983887 112.037 1.4316 112.485 1.98389 112.485V110.485ZM108.226 111.485C108.226 114.43 110.614 116.818 113.56 116.818C116.505 116.818 118.893 114.43 118.893 111.485C118.893 108.539 116.505 106.152 113.56 106.152C110.614 106.152 108.226 108.539 108.226 111.485ZM1.98389 112.485H113.56V110.485H1.98389V112.485Z" fill="url(#paint1_linear_506_8802)"/>
<path d="M1.98389 181.035C1.4316 181.035 0.983887 181.483 0.983887 182.035C0.983887 182.588 1.4316 183.035 1.98389 183.035V181.035ZM108.226 182.035C108.226 184.981 110.614 187.369 113.56 187.369C116.505 187.369 118.893 184.981 118.893 182.035C118.893 179.09 116.505 176.702 113.56 176.702C110.614 176.702 108.226 179.09 108.226 182.035ZM1.98389 183.035H113.56V181.035H1.98389V183.035Z" fill="url(#paint2_linear_506_8802)"/>
<path d="M1.98389 251.586C1.4316 251.586 0.983887 252.034 0.983887 252.586C0.983887 253.138 1.4316 253.586 1.98389 253.586V251.586ZM108.226 252.586C108.226 255.531 110.614 257.919 113.56 257.919C116.505 257.919 118.893 255.531 118.893 252.586C118.893 249.64 116.505 247.253 113.56 247.253C110.614 247.253 108.226 249.64 108.226 252.586ZM1.98389 253.586H113.56V251.586H1.98389V253.586Z" fill="url(#paint3_linear_506_8802)"/>
<path d="M1.98389 322.136C1.4316 322.136 0.983887 322.584 0.983887 323.136C0.983887 323.689 1.4316 324.136 1.98389 324.136V322.136ZM108.226 323.136C108.226 326.082 110.614 328.47 113.56 328.47C116.505 328.47 118.893 326.082 118.893 323.136C118.893 320.191 116.505 317.803 113.56 317.803C110.614 317.803 108.226 320.191 108.226 323.136ZM1.98389 324.136H113.56V322.136H1.98389V324.136Z" fill="url(#paint4_linear_506_8802)"/>
<path d="M1.98389 392.687C1.4316 392.687 0.983887 393.135 0.983887 393.687C0.983887 394.239 1.4316 394.687 1.98389 394.687V392.687ZM108.226 393.687C108.226 396.633 110.614 399.02 113.56 399.02C116.505 399.02 118.893 396.633 118.893 393.687C118.893 390.741 116.505 388.354 113.56 388.354C110.614 388.354 108.226 390.741 108.226 393.687ZM1.98389 394.687H113.56V392.687H1.98389V394.687Z" fill="url(#paint5_linear_506_8802)"/>
<path d="M157.374 39.9343C156.822 39.9343 156.374 40.382 156.374 40.9343C156.374 41.4866 156.822 41.9343 157.374 41.9343V39.9343ZM263.616 40.9343C263.616 43.8798 266.004 46.2677 268.95 46.2677C271.895 46.2677 274.283 43.8798 274.283 40.9343C274.283 37.9888 271.895 35.601 268.95 35.601C266.004 35.601 263.616 37.9888 263.616 40.9343ZM157.374 41.9343H268.95V39.9343H157.374V41.9343Z" fill="url(#paint6_linear_506_8802)"/>
<path d="M157.374 110.485C156.822 110.485 156.374 110.933 156.374 111.485C156.374 112.037 156.822 112.485 157.374 112.485V110.485ZM263.616 111.485C263.616 114.43 266.004 116.818 268.95 116.818C271.895 116.818 274.283 114.43 274.283 111.485C274.283 108.539 271.895 106.152 268.95 106.152C266.004 106.152 263.616 108.539 263.616 111.485ZM157.374 112.485H268.95V110.485H157.374V112.485Z" fill="url(#paint7_linear_506_8802)"/>
<path d="M157.374 181.035C156.822 181.035 156.374 181.483 156.374 182.035C156.374 182.588 156.822 183.035 157.374 183.035V181.035ZM263.616 182.035C263.616 184.981 266.004 187.369 268.95 187.369C271.895 187.369 274.283 184.981 274.283 182.035C274.283 179.09 271.895 176.702 268.95 176.702C266.004 176.702 263.616 179.09 263.616 182.035ZM157.374 183.035H268.95V181.035H157.374V183.035Z" fill="url(#paint8_linear_506_8802)"/>
<path d="M157.374 251.586C156.822 251.586 156.374 252.034 156.374 252.586C156.374 253.138 156.822 253.586 157.374 253.586V251.586ZM263.616 252.586C263.616 255.531 266.004 257.919 268.95 257.919C271.895 257.919 274.283 255.531 274.283 252.586C274.283 249.64 271.895 247.253 268.95 247.253C266.004 247.253 263.616 249.64 263.616 252.586ZM157.374 253.586H268.95V251.586H157.374V253.586Z" fill="url(#paint9_linear_506_8802)"/>
<path d="M157.374 322.136C156.822 322.136 156.374 322.584 156.374 323.136C156.374 323.689 156.822 324.136 157.374 324.136V322.136ZM263.616 323.136C263.616 326.082 266.004 328.47 268.95 328.47C271.895 328.47 274.283 326.082 274.283 323.136C274.283 320.191 271.895 317.803 268.95 317.803C266.004 317.803 263.616 320.191 263.616 323.136ZM157.374 324.136H268.95V322.136H157.374V324.136Z" fill="url(#paint10_linear_506_8802)"/>
<path d="M157.374 392.687C156.822 392.687 156.374 393.135 156.374 393.687C156.374 394.239 156.822 394.687 157.374 394.687V392.687ZM263.616 393.687C263.616 396.633 266.004 399.02 268.95 399.02C271.895 399.02 274.283 396.633 274.283 393.687C274.283 390.741 271.895 388.354 268.95 388.354C266.004 388.354 263.616 390.741 263.616 393.687ZM157.374 394.687H268.95V392.687H157.374V394.687Z" fill="url(#paint11_linear_506_8802)"/>
<path d="M312.764 39.9343C312.212 39.9343 311.764 40.382 311.764 40.9343C311.764 41.4866 312.212 41.9343 312.764 41.9343V39.9343ZM419.007 40.9343C419.007 43.8798 421.394 46.2677 424.34 46.2677C427.285 46.2677 429.673 43.8798 429.673 40.9343C429.673 37.9888 427.285 35.601 424.34 35.601C421.394 35.601 419.007 37.9888 419.007 40.9343ZM312.764 41.9343H424.34V39.9343H312.764V41.9343Z" fill="url(#paint12_linear_506_8802)"/>
<path d="M312.764 110.485C312.212 110.485 311.764 110.933 311.764 111.485C311.764 112.037 312.212 112.485 312.764 112.485V110.485ZM419.007 111.485C419.007 114.43 421.394 116.818 424.34 116.818C427.285 116.818 429.673 114.43 429.673 111.485C429.673 108.539 427.285 106.152 424.34 106.152C421.394 106.152 419.007 108.539 419.007 111.485ZM312.764 112.485H424.34V110.485H312.764V112.485Z" fill="url(#paint13_linear_506_8802)"/>
<path d="M312.764 181.035C312.212 181.035 311.764 181.483 311.764 182.035C311.764 182.588 312.212 183.035 312.764 183.035V181.035ZM419.007 182.035C419.007 184.981 421.394 187.369 424.34 187.369C427.285 187.369 429.673 184.981 429.673 182.035C429.673 179.09 427.285 176.702 424.34 176.702C421.394 176.702 419.007 179.09 419.007 182.035ZM312.764 183.035H424.34V181.035H312.764V183.035Z" fill="url(#paint14_linear_506_8802)"/>
<path d="M312.764 251.586C312.212 251.586 311.764 252.034 311.764 252.586C311.764 253.138 312.212 253.586 312.764 253.586V251.586ZM419.007 252.586C419.007 255.531 421.394 257.919 424.34 257.919C427.285 257.919 429.673 255.531 429.673 252.586C429.673 249.64 427.285 247.253 424.34 247.253C421.394 247.253 419.007 249.64 419.007 252.586ZM312.764 253.586H424.34V251.586H312.764V253.586Z" fill="url(#paint15_linear_506_8802)"/>
<path d="M312.764 322.136C312.212 322.136 311.764 322.584 311.764 323.136C311.764 323.689 312.212 324.136 312.764 324.136V322.136ZM419.007 323.136C419.007 326.082 421.394 328.47 424.34 328.47C427.285 328.47 429.673 326.082 429.673 323.136C429.673 320.191 427.285 317.803 424.34 317.803C421.394 317.803 419.007 320.191 419.007 323.136ZM312.764 324.136H424.34V322.136H312.764V324.136Z" fill="url(#paint16_linear_506_8802)"/>
<path d="M312.764 392.687C312.212 392.687 311.764 393.135 311.764 393.687C311.764 394.239 312.212 394.687 312.764 394.687V392.687ZM419.007 393.687C419.007 396.633 421.394 399.02 424.34 399.02C427.285 399.02 429.673 396.633 429.673 393.687C429.673 390.741 427.285 388.354 424.34 388.354C421.394 388.354 419.007 390.741 419.007 393.687ZM312.764 394.687H424.34V392.687H312.764V394.687Z" fill="url(#paint17_linear_506_8802)"/>
<path d="M468.154 39.9343C467.602 39.9343 467.154 40.382 467.154 40.9343C467.154 41.4866 467.602 41.9343 468.154 41.9343V39.9343ZM574.397 40.9343C574.397 43.8798 576.784 46.2677 579.73 46.2677C582.675 46.2677 585.063 43.8798 585.063 40.9343C585.063 37.9888 582.675 35.601 579.73 35.601C576.784 35.601 574.397 37.9888 574.397 40.9343ZM468.154 41.9343H579.73V39.9343H468.154V41.9343Z" fill="url(#paint18_linear_506_8802)"/>
<path d="M468.154 110.485C467.602 110.485 467.154 110.933 467.154 111.485C467.154 112.037 467.602 112.485 468.154 112.485V110.485ZM574.397 111.485C574.397 114.43 576.784 116.818 579.73 116.818C582.675 116.818 585.063 114.43 585.063 111.485C585.063 108.539 582.675 106.152 579.73 106.152C576.784 106.152 574.397 108.539 574.397 111.485ZM468.154 112.485H579.73V110.485H468.154V112.485Z" fill="url(#paint19_linear_506_8802)"/>
<path d="M468.154 181.035C467.602 181.035 467.154 181.483 467.154 182.035C467.154 182.588 467.602 183.035 468.154 183.035V181.035ZM574.397 182.035C574.397 184.981 576.784 187.369 579.73 187.369C582.675 187.369 585.063 184.981 585.063 182.035C585.063 179.09 582.675 176.702 579.73 176.702C576.784 176.702 574.397 179.09 574.397 182.035ZM468.154 183.035H579.73V181.035H468.154V183.035Z" fill="url(#paint20_linear_506_8802)"/>
<path d="M468.154 251.586C467.602 251.586 467.154 252.034 467.154 252.586C467.154 253.138 467.602 253.586 468.154 253.586V251.586ZM574.397 252.586C574.397 255.531 576.784 257.919 579.73 257.919C582.675 257.919 585.063 255.531 585.063 252.586C585.063 249.64 582.675 247.253 579.73 247.253C576.784 247.253 574.397 249.64 574.397 252.586ZM468.154 253.586H579.73V251.586H468.154V253.586Z" fill="url(#paint21_linear_506_8802)"/>
<path d="M468.154 322.136C467.602 322.136 467.154 322.584 467.154 323.136C467.154 323.689 467.602 324.136 468.154 324.136V322.136ZM574.397 323.136C574.397 326.082 576.784 328.47 579.73 328.47C582.675 328.47 585.063 326.082 585.063 323.136C585.063 320.191 582.675 317.803 579.73 317.803C576.784 317.803 574.397 320.191 574.397 323.136ZM468.154 324.136H579.73V322.136H468.154V324.136Z" fill="url(#paint22_linear_506_8802)"/>
<path d="M468.154 392.687C467.602 392.687 467.154 393.135 467.154 393.687C467.154 394.239 467.602 394.687 468.154 394.687V392.687ZM574.397 393.687C574.397 396.633 576.784 399.02 579.73 399.02C582.675 399.02 585.063 396.633 585.063 393.687C585.063 390.741 582.675 388.354 579.73 388.354C576.784 388.354 574.397 390.741 574.397 393.687ZM468.154 394.687H579.73V392.687H468.154V394.687Z" fill="url(#paint23_linear_506_8802)"/>
<path d="M623.544 39.9343C622.992 39.9343 622.544 40.382 622.544 40.9343C622.544 41.4866 622.992 41.9343 623.544 41.9343V39.9343ZM729.787 40.9343C729.787 43.8798 732.175 46.2677 735.12 46.2677C738.066 46.2677 740.453 43.8798 740.453 40.9343C740.453 37.9888 738.066 35.601 735.12 35.601C732.175 35.601 729.787 37.9888 729.787 40.9343ZM623.544 41.9343H735.12V39.9343H623.544V41.9343Z" fill="url(#paint24_linear_506_8802)"/>
<path d="M623.544 110.485C622.992 110.485 622.544 110.933 622.544 111.485C622.544 112.037 622.992 112.485 623.544 112.485V110.485ZM729.787 111.485C729.787 114.43 732.175 116.818 735.12 116.818C738.066 116.818 740.453 114.43 740.453 111.485C740.453 108.539 738.066 106.152 735.12 106.152C732.175 106.152 729.787 108.539 729.787 111.485ZM623.544 112.485H735.12V110.485H623.544V112.485Z" fill="url(#paint25_linear_506_8802)"/>
<path d="M623.544 181.035C622.992 181.035 622.544 181.483 622.544 182.035C622.544 182.588 622.992 183.035 623.544 183.035V181.035ZM729.787 182.035C729.787 184.981 732.175 187.369 735.12 187.369C738.066 187.369 740.453 184.981 740.453 182.035C740.453 179.09 738.066 176.702 735.12 176.702C732.175 176.702 729.787 179.09 729.787 182.035ZM623.544 183.035H735.12V181.035H623.544V183.035Z" fill="url(#paint26_linear_506_8802)"/>
<path d="M623.544 251.586C622.992 251.586 622.544 252.034 622.544 252.586C622.544 253.138 622.992 253.586 623.544 253.586V251.586ZM729.787 252.586C729.787 255.531 732.175 257.919 735.12 257.919C738.066 257.919 740.453 255.531 740.453 252.586C740.453 249.64 738.066 247.253 735.12 247.253C732.175 247.253 729.787 249.64 729.787 252.586ZM623.544 253.586H735.12V251.586H623.544V253.586Z" fill="url(#paint27_linear_506_8802)"/>
<path d="M623.544 322.136C622.992 322.136 622.544 322.584 622.544 323.136C622.544 323.689 622.992 324.136 623.544 324.136V322.136ZM729.787 323.136C729.787 326.082 732.175 328.47 735.12 328.47C738.066 328.47 740.453 326.082 740.453 323.136C740.453 320.191 738.066 317.803 735.12 317.803C732.175 317.803 729.787 320.191 729.787 323.136ZM623.544 324.136H735.12V322.136H623.544V324.136Z" fill="url(#paint28_linear_506_8802)"/>
<path d="M623.544 392.687C622.992 392.687 622.544 393.135 622.544 393.687C622.544 394.239 622.992 394.687 623.544 394.687V392.687ZM729.787 393.687C729.787 396.633 732.175 399.02 735.12 399.02C738.066 399.02 740.453 396.633 740.453 393.687C740.453 390.741 738.066 388.354 735.12 388.354C732.175 388.354 729.787 390.741 729.787 393.687ZM623.544 394.687H735.12V392.687H623.544V394.687Z" fill="url(#paint29_linear_506_8802)"/>
<path d="M778.935 39.9343C778.382 39.9343 777.935 40.382 777.935 40.9343C777.935 41.4866 778.382 41.9343 778.935 41.9343V39.9343ZM885.177 40.9343C885.177 43.8798 887.565 46.2677 890.51 46.2677C893.456 46.2677 895.844 43.8798 895.844 40.9343C895.844 37.9888 893.456 35.601 890.51 35.601C887.565 35.601 885.177 37.9888 885.177 40.9343ZM778.935 41.9343H890.51V39.9343H778.935V41.9343Z" fill="url(#paint30_linear_506_8802)"/>
<path d="M778.935 110.485C778.382 110.485 777.935 110.933 777.935 111.485C777.935 112.037 778.382 112.485 778.935 112.485V110.485ZM885.177 111.485C885.177 114.43 887.565 116.818 890.51 116.818C893.456 116.818 895.844 114.43 895.844 111.485C895.844 108.539 893.456 106.152 890.51 106.152C887.565 106.152 885.177 108.539 885.177 111.485ZM778.935 112.485H890.51V110.485H778.935V112.485Z" fill="url(#paint31_linear_506_8802)"/>
<path d="M778.935 181.035C778.382 181.035 777.935 181.483 777.935 182.035C777.935 182.588 778.382 183.035 778.935 183.035V181.035ZM885.177 182.035C885.177 184.981 887.565 187.369 890.51 187.369C893.456 187.369 895.844 184.981 895.844 182.035C895.844 179.09 893.456 176.702 890.51 176.702C887.565 176.702 885.177 179.09 885.177 182.035ZM778.935 183.035H890.51V181.035H778.935V183.035Z" fill="url(#paint32_linear_506_8802)"/>
<path d="M778.935 251.586C778.382 251.586 777.935 252.034 777.935 252.586C777.935 253.138 778.382 253.586 778.935 253.586V251.586ZM885.177 252.586C885.177 255.531 887.565 257.919 890.51 257.919C893.456 257.919 895.844 255.531 895.844 252.586C895.844 249.64 893.456 247.253 890.51 247.253C887.565 247.253 885.177 249.64 885.177 252.586ZM778.935 253.586H890.51V251.586H778.935V253.586Z" fill="url(#paint33_linear_506_8802)"/>
<path d="M778.935 322.136C778.382 322.136 777.935 322.584 777.935 323.136C777.935 323.689 778.382 324.136 778.935 324.136V322.136ZM885.177 323.136C885.177 326.082 887.565 328.47 890.51 328.47C893.456 328.47 895.844 326.082 895.844 323.136C895.844 320.191 893.456 317.803 890.51 317.803C887.565 317.803 885.177 320.191 885.177 323.136ZM778.935 324.136H890.51V322.136H778.935V324.136Z" fill="url(#paint34_linear_506_8802)"/>
<path d="M778.935 392.687C778.382 392.687 777.935 393.135 777.935 393.687C777.935 394.239 778.382 394.687 778.935 394.687V392.687ZM885.177 393.687C885.177 396.633 887.565 399.02 890.51 399.02C893.456 399.02 895.844 396.633 895.844 393.687C895.844 390.741 893.456 388.354 890.51 388.354C887.565 388.354 885.177 390.741 885.177 393.687ZM778.935 394.687H890.51V392.687H778.935V394.687Z" fill="url(#paint35_linear_506_8802)"/>
<path d="M934.325 39.9343C933.772 39.9343 933.325 40.382 933.325 40.9343C933.325 41.4866 933.772 41.9343 934.325 41.9343V39.9343ZM1040.57 40.9343C1040.57 43.8798 1042.95 46.2677 1045.9 46.2677C1048.85 46.2677 1051.23 43.8798 1051.23 40.9343C1051.23 37.9888 1048.85 35.601 1045.9 35.601C1042.95 35.601 1040.57 37.9888 1040.57 40.9343ZM934.325 41.9343H1045.9V39.9343H934.325V41.9343Z" fill="url(#paint36_linear_506_8802)"/>
<path d="M934.325 110.485C933.772 110.485 933.325 110.933 933.325 111.485C933.325 112.037 933.772 112.485 934.325 112.485V110.485ZM1040.57 111.485C1040.57 114.43 1042.95 116.818 1045.9 116.818C1048.85 116.818 1051.23 114.43 1051.23 111.485C1051.23 108.539 1048.85 106.152 1045.9 106.152C1042.95 106.152 1040.57 108.539 1040.57 111.485ZM934.325 112.485H1045.9V110.485H934.325V112.485Z" fill="url(#paint37_linear_506_8802)"/>
<path d="M934.325 181.035C933.772 181.035 933.325 181.483 933.325 182.035C933.325 182.588 933.772 183.035 934.325 183.035V181.035ZM1040.57 182.035C1040.57 184.981 1042.95 187.369 1045.9 187.369C1048.85 187.369 1051.23 184.981 1051.23 182.035C1051.23 179.09 1048.85 176.702 1045.9 176.702C1042.95 176.702 1040.57 179.09 1040.57 182.035ZM934.325 183.035H1045.9V181.035H934.325V183.035Z" fill="url(#paint38_linear_506_8802)"/>
<path d="M934.325 251.586C933.772 251.586 933.325 252.034 933.325 252.586C933.325 253.138 933.772 253.586 934.325 253.586V251.586ZM1040.57 252.586C1040.57 255.531 1042.95 257.919 1045.9 257.919C1048.85 257.919 1051.23 255.531 1051.23 252.586C1051.23 249.64 1048.85 247.253 1045.9 247.253C1042.95 247.253 1040.57 249.64 1040.57 252.586ZM934.325 253.586H1045.9V251.586H934.325V253.586Z" fill="url(#paint39_linear_506_8802)"/>
<path d="M934.325 322.136C933.772 322.136 933.325 322.584 933.325 323.136C933.325 323.689 933.772 324.136 934.325 324.136V322.136ZM1040.57 323.136C1040.57 326.082 1042.95 328.47 1045.9 328.47C1048.85 328.47 1051.23 326.082 1051.23 323.136C1051.23 320.191 1048.85 317.803 1045.9 317.803C1042.95 317.803 1040.57 320.191 1040.57 323.136ZM934.325 324.136H1045.9V322.136H934.325V324.136Z" fill="url(#paint40_linear_506_8802)"/>
<path d="M934.325 392.687C933.772 392.687 933.325 393.135 933.325 393.687C933.325 394.239 933.772 394.687 934.325 394.687V392.687ZM1040.57 393.687C1040.57 396.633 1042.95 399.02 1045.9 399.02C1048.85 399.02 1051.23 396.633 1051.23 393.687C1051.23 390.741 1048.85 388.354 1045.9 388.354C1042.95 388.354 1040.57 390.741 1040.57 393.687ZM934.325 394.687H1045.9V392.687H934.325V394.687Z" fill="url(#paint41_linear_506_8802)"/>
<path d="M1089.71 39.9343C1089.16 39.9343 1088.71 40.382 1088.71 40.9343C1088.71 41.4866 1089.16 41.9343 1089.71 41.9343V39.9343ZM1195.96 40.9343C1195.96 43.8798 1198.35 46.2677 1201.29 46.2677C1204.24 46.2677 1206.62 43.8798 1206.62 40.9343C1206.62 37.9888 1204.24 35.601 1201.29 35.601C1198.35 35.601 1195.96 37.9888 1195.96 40.9343ZM1089.71 41.9343H1201.29V39.9343H1089.71V41.9343Z" fill="url(#paint42_linear_506_8802)"/>
<path d="M1089.71 110.485C1089.16 110.485 1088.71 110.933 1088.71 111.485C1088.71 112.037 1089.16 112.485 1089.71 112.485V110.485ZM1195.96 111.485C1195.96 114.43 1198.35 116.818 1201.29 116.818C1204.24 116.818 1206.62 114.43 1206.62 111.485C1206.62 108.539 1204.24 106.152 1201.29 106.152C1198.35 106.152 1195.96 108.539 1195.96 111.485ZM1089.71 112.485H1201.29V110.485H1089.71V112.485Z" fill="url(#paint43_linear_506_8802)"/>
<path d="M1089.71 181.035C1089.16 181.035 1088.71 181.483 1088.71 182.035C1088.71 182.588 1089.16 183.035 1089.71 183.035V181.035ZM1195.96 182.035C1195.96 184.981 1198.35 187.369 1201.29 187.369C1204.24 187.369 1206.62 184.981 1206.62 182.035C1206.62 179.09 1204.24 176.702 1201.29 176.702C1198.35 176.702 1195.96 179.09 1195.96 182.035ZM1089.71 183.035H1201.29V181.035H1089.71V183.035Z" fill="url(#paint44_linear_506_8802)"/>
<path d="M1089.71 251.586C1089.16 251.586 1088.71 252.034 1088.71 252.586C1088.71 253.138 1089.16 253.586 1089.71 253.586V251.586ZM1195.96 252.586C1195.96 255.531 1198.35 257.919 1201.29 257.919C1204.24 257.919 1206.62 255.531 1206.62 252.586C1206.62 249.64 1204.24 247.253 1201.29 247.253C1198.35 247.253 1195.96 249.64 1195.96 252.586ZM1089.71 253.586H1201.29V251.586H1089.71V253.586Z" fill="url(#paint45_linear_506_8802)"/>
<path d="M1089.71 322.136C1089.16 322.136 1088.71 322.584 1088.71 323.136C1088.71 323.689 1089.16 324.136 1089.71 324.136V322.136ZM1195.96 323.136C1195.96 326.082 1198.35 328.47 1201.29 328.47C1204.24 328.47 1206.62 326.082 1206.62 323.136C1206.62 320.191 1204.24 317.803 1201.29 317.803C1198.35 317.803 1195.96 320.191 1195.96 323.136ZM1089.71 324.136H1201.29V322.136H1089.71V324.136Z" fill="url(#paint46_linear_506_8802)"/>
<path d="M1089.71 392.687C1089.16 392.687 1088.71 393.135 1088.71 393.687C1088.71 394.239 1089.16 394.687 1089.71 394.687V392.687ZM1195.96 393.687C1195.96 396.633 1198.35 399.02 1201.29 399.02C1204.24 399.02 1206.62 396.633 1206.62 393.687C1206.62 390.741 1204.24 388.354 1201.29 388.354C1198.35 388.354 1195.96 390.741 1195.96 393.687ZM1089.71 394.687H1201.29V392.687H1089.71V394.687Z" fill="url(#paint47_linear_506_8802)"/>
<path d="M66.7095 4.65918C66.1572 4.65918 65.7095 5.10689 65.7095 5.65918C65.7095 6.21146 66.1572 6.65918 66.7095 6.65918V4.65918ZM172.952 5.65918C172.952 8.6047 175.34 10.9925 178.285 10.9925C181.231 10.9925 183.618 8.6047 183.618 5.65918C183.618 2.71366 181.231 0.325846 178.285 0.325846C175.34 0.325846 172.952 2.71366 172.952 5.65918ZM66.7095 6.65918H178.285V4.65918H66.7095V6.65918Z" fill="url(#paint48_linear_506_8802)"/>
<path d="M66.7095 75.2097C66.1572 75.2097 65.7095 75.6574 65.7095 76.2097C65.7095 76.762 66.1572 77.2097 66.7095 77.2097V75.2097ZM172.952 76.2097C172.952 79.1552 175.34 81.5431 178.285 81.5431C181.231 81.5431 183.618 79.1552 183.618 76.2097C183.618 73.2642 181.231 70.8764 178.285 70.8764C175.34 70.8764 172.952 73.2642 172.952 76.2097ZM66.7095 77.2097H178.285V75.2097H66.7095V77.2097Z" fill="url(#paint49_linear_506_8802)"/>
<path d="M66.7095 145.76C66.1572 145.76 65.7095 146.208 65.7095 146.76C65.7095 147.313 66.1572 147.76 66.7095 147.76V145.76ZM172.952 146.76C172.952 149.706 175.34 152.094 178.285 152.094C181.231 152.094 183.618 149.706 183.618 146.76C183.618 143.815 181.231 141.427 178.285 141.427C175.34 141.427 172.952 143.815 172.952 146.76ZM66.7095 147.76H178.285V145.76H66.7095V147.76Z" fill="url(#paint50_linear_506_8802)"/>
<path d="M66.7095 216.311C66.1572 216.311 65.7095 216.759 65.7095 217.311C65.7095 217.863 66.1572 218.311 66.7095 218.311V216.311ZM172.952 217.311C172.952 220.256 175.34 222.644 178.285 222.644C181.231 222.644 183.618 220.256 183.618 217.311C183.618 214.365 181.231 211.977 178.285 211.977C175.34 211.977 172.952 214.365 172.952 217.311ZM66.7095 218.311H178.285V216.311H66.7095V218.311Z" fill="url(#paint51_linear_506_8802)"/>
<path d="M66.7095 286.861C66.1572 286.861 65.7095 287.309 65.7095 287.861C65.7095 288.414 66.1572 288.861 66.7095 288.861V286.861ZM172.952 287.861C172.952 290.807 175.34 293.195 178.285 293.195C181.231 293.195 183.618 290.807 183.618 287.861C183.618 284.916 181.231 282.528 178.285 282.528C175.34 282.528 172.952 284.916 172.952 287.861ZM66.7095 288.861H178.285V286.861H66.7095V288.861Z" fill="url(#paint52_linear_506_8802)"/>
<path d="M66.7095 357.412C66.1572 357.412 65.7095 357.86 65.7095 358.412C65.7095 358.964 66.1572 359.412 66.7095 359.412V357.412ZM172.952 358.412C172.952 361.357 175.34 363.745 178.285 363.745C181.231 363.745 183.618 361.357 183.618 358.412C183.618 355.466 181.231 353.079 178.285 353.079C175.34 353.079 172.952 355.466 172.952 358.412ZM66.7095 359.412H178.285V357.412H66.7095V359.412Z" fill="url(#paint53_linear_506_8802)"/>
<path d="M222.1 4.65918C221.547 4.65918 221.1 5.10689 221.1 5.65918C221.1 6.21146 221.547 6.65918 222.1 6.65918V4.65918ZM328.342 5.65918C328.342 8.6047 330.73 10.9925 333.675 10.9925C336.621 10.9925 339.009 8.6047 339.009 5.65918C339.009 2.71366 336.621 0.325846 333.675 0.325846C330.73 0.325846 328.342 2.71366 328.342 5.65918ZM222.1 6.65918H333.675V4.65918H222.1V6.65918Z" fill="url(#paint54_linear_506_8802)"/>
<path d="M222.1 75.2097C221.547 75.2097 221.1 75.6574 221.1 76.2097C221.1 76.762 221.547 77.2097 222.1 77.2097V75.2097ZM328.342 76.2097C328.342 79.1552 330.73 81.5431 333.675 81.5431C336.621 81.5431 339.009 79.1552 339.009 76.2097C339.009 73.2642 336.621 70.8764 333.675 70.8764C330.73 70.8764 328.342 73.2642 328.342 76.2097ZM222.1 77.2097H333.675V75.2097H222.1V77.2097Z" fill="url(#paint55_linear_506_8802)"/>
<path d="M222.1 145.76C221.547 145.76 221.1 146.208 221.1 146.76C221.1 147.313 221.547 147.76 222.1 147.76V145.76ZM328.342 146.76C328.342 149.706 330.73 152.094 333.675 152.094C336.621 152.094 339.009 149.706 339.009 146.76C339.009 143.815 336.621 141.427 333.675 141.427C330.73 141.427 328.342 143.815 328.342 146.76ZM222.1 147.76H333.675V145.76H222.1V147.76Z" fill="url(#paint56_linear_506_8802)"/>
<path d="M222.1 216.311C221.547 216.311 221.1 216.759 221.1 217.311C221.1 217.863 221.547 218.311 222.1 218.311V216.311ZM328.342 217.311C328.342 220.256 330.73 222.644 333.675 222.644C336.621 222.644 339.009 220.256 339.009 217.311C339.009 214.365 336.621 211.977 333.675 211.977C330.73 211.977 328.342 214.365 328.342 217.311ZM222.1 218.311H333.675V216.311H222.1V218.311Z" fill="url(#paint57_linear_506_8802)"/>
<path d="M222.1 286.861C221.547 286.861 221.1 287.309 221.1 287.861C221.1 288.414 221.547 288.861 222.1 288.861V286.861ZM328.342 287.861C328.342 290.807 330.73 293.195 333.675 293.195C336.621 293.195 339.009 290.807 339.009 287.861C339.009 284.916 336.621 282.528 333.675 282.528C330.73 282.528 328.342 284.916 328.342 287.861ZM222.1 288.861H333.675V286.861H222.1V288.861Z" fill="url(#paint58_linear_506_8802)"/>
<path d="M222.1 357.412C221.547 357.412 221.1 357.86 221.1 358.412C221.1 358.964 221.547 359.412 222.1 359.412V357.412ZM328.342 358.412C328.342 361.357 330.73 363.745 333.675 363.745C336.621 363.745 339.009 361.357 339.009 358.412C339.009 355.466 336.621 353.079 333.675 353.079C330.73 353.079 328.342 355.466 328.342 358.412ZM222.1 359.412H333.675V357.412H222.1V359.412Z" fill="url(#paint59_linear_506_8802)"/>
<path d="M377.49 4.65918C376.937 4.65918 376.49 5.10689 376.49 5.65918C376.49 6.21146 376.937 6.65918 377.49 6.65918V4.65918ZM483.732 5.65918C483.732 8.6047 486.12 10.9925 489.065 10.9925C492.011 10.9925 494.399 8.6047 494.399 5.65918C494.399 2.71366 492.011 0.325846 489.065 0.325846C486.12 0.325846 483.732 2.71366 483.732 5.65918ZM377.49 6.65918H489.065V4.65918H377.49V6.65918Z" fill="url(#paint60_linear_506_8802)"/>
<path d="M377.49 75.2097C376.937 75.2097 376.49 75.6574 376.49 76.2097C376.49 76.762 376.937 77.2097 377.49 77.2097V75.2097ZM483.732 76.2097C483.732 79.1552 486.12 81.5431 489.065 81.5431C492.011 81.5431 494.399 79.1552 494.399 76.2097C494.399 73.2642 492.011 70.8764 489.065 70.8764C486.12 70.8764 483.732 73.2642 483.732 76.2097ZM377.49 77.2097H489.065V75.2097H377.49V77.2097Z" fill="url(#paint61_linear_506_8802)"/>
<path d="M377.49 145.76C376.937 145.76 376.49 146.208 376.49 146.76C376.49 147.313 376.937 147.76 377.49 147.76V145.76ZM483.732 146.76C483.732 149.706 486.12 152.094 489.065 152.094C492.011 152.094 494.399 149.706 494.399 146.76C494.399 143.815 492.011 141.427 489.065 141.427C486.12 141.427 483.732 143.815 483.732 146.76ZM377.49 147.76H489.065V145.76H377.49V147.76Z" fill="url(#paint62_linear_506_8802)"/>
<path d="M377.49 216.311C376.937 216.311 376.49 216.759 376.49 217.311C376.49 217.863 376.937 218.311 377.49 218.311V216.311ZM483.732 217.311C483.732 220.256 486.12 222.644 489.065 222.644C492.011 222.644 494.399 220.256 494.399 217.311C494.399 214.365 492.011 211.977 489.065 211.977C486.12 211.977 483.732 214.365 483.732 217.311ZM377.49 218.311H489.065V216.311H377.49V218.311Z" fill="url(#paint63_linear_506_8802)"/>
<path d="M377.49 286.861C376.937 286.861 376.49 287.309 376.49 287.861C376.49 288.414 376.937 288.861 377.49 288.861V286.861ZM483.732 287.861C483.732 290.807 486.12 293.195 489.065 293.195C492.011 293.195 494.399 290.807 494.399 287.861C494.399 284.916 492.011 282.528 489.065 282.528C486.12 282.528 483.732 284.916 483.732 287.861ZM377.49 288.861H489.065V286.861H377.49V288.861Z" fill="url(#paint64_linear_506_8802)"/>
<path d="M377.49 357.412C376.937 357.412 376.49 357.86 376.49 358.412C376.49 358.964 376.937 359.412 377.49 359.412V357.412ZM483.732 358.412C483.732 361.357 486.12 363.745 489.065 363.745C492.011 363.745 494.399 361.357 494.399 358.412C494.399 355.466 492.011 353.079 489.065 353.079C486.12 353.079 483.732 355.466 483.732 358.412ZM377.49 359.412H489.065V357.412H377.49V359.412Z" fill="url(#paint65_linear_506_8802)"/>
<path d="M532.88 4.65918C532.328 4.65918 531.88 5.10689 531.88 5.65918C531.88 6.21146 532.328 6.65918 532.88 6.65918V4.65918ZM639.122 5.65918C639.122 8.6047 641.51 10.9925 644.456 10.9925C647.401 10.9925 649.789 8.6047 649.789 5.65918C649.789 2.71366 647.401 0.325846 644.456 0.325846C641.51 0.325846 639.122 2.71366 639.122 5.65918ZM532.88 6.65918H644.456V4.65918H532.88V6.65918Z" fill="url(#paint66_linear_506_8802)"/>
<path d="M532.88 75.2097C532.328 75.2097 531.88 75.6574 531.88 76.2097C531.88 76.762 532.328 77.2097 532.88 77.2097V75.2097ZM639.122 76.2097C639.122 79.1552 641.51 81.5431 644.456 81.5431C647.401 81.5431 649.789 79.1552 649.789 76.2097C649.789 73.2642 647.401 70.8764 644.456 70.8764C641.51 70.8764 639.122 73.2642 639.122 76.2097ZM532.88 77.2097H644.456V75.2097H532.88V77.2097Z" fill="url(#paint67_linear_506_8802)"/>
<path d="M532.88 145.76C532.328 145.76 531.88 146.208 531.88 146.76C531.88 147.313 532.328 147.76 532.88 147.76V145.76ZM639.122 146.76C639.122 149.706 641.51 152.094 644.456 152.094C647.401 152.094 649.789 149.706 649.789 146.76C649.789 143.815 647.401 141.427 644.456 141.427C641.51 141.427 639.122 143.815 639.122 146.76ZM532.88 147.76H644.456V145.76H532.88V147.76Z" fill="url(#paint68_linear_506_8802)"/>
<path d="M532.88 216.311C532.328 216.311 531.88 216.759 531.88 217.311C531.88 217.863 532.328 218.311 532.88 218.311V216.311ZM639.122 217.311C639.122 220.256 641.51 222.644 644.456 222.644C647.401 222.644 649.789 220.256 649.789 217.311C649.789 214.365 647.401 211.977 644.456 211.977C641.51 211.977 639.122 214.365 639.122 217.311ZM532.88 218.311H644.456V216.311H532.88V218.311Z" fill="url(#paint69_linear_506_8802)"/>
<path d="M532.88 286.861C532.328 286.861 531.88 287.309 531.88 287.861C531.88 288.414 532.328 288.861 532.88 288.861V286.861ZM639.122 287.861C639.122 290.807 641.51 293.195 644.456 293.195C647.401 293.195 649.789 290.807 649.789 287.861C649.789 284.916 647.401 282.528 644.456 282.528C641.51 282.528 639.122 284.916 639.122 287.861ZM532.88 288.861H644.456V286.861H532.88V288.861Z" fill="url(#paint70_linear_506_8802)"/>
<path d="M532.88 357.412C532.328 357.412 531.88 357.86 531.88 358.412C531.88 358.964 532.328 359.412 532.88 359.412V357.412ZM639.122 358.412C639.122 361.357 641.51 363.745 644.456 363.745C647.401 363.745 649.789 361.357 649.789 358.412C649.789 355.466 647.401 353.079 644.456 353.079C641.51 353.079 639.122 355.466 639.122 358.412ZM532.88 359.412H644.456V357.412H532.88V359.412Z" fill="url(#paint71_linear_506_8802)"/>
<path d="M688.27 4.65918C687.718 4.65918 687.27 5.10689 687.27 5.65918C687.27 6.21146 687.718 6.65918 688.27 6.65918V4.65918ZM794.512 5.65918C794.512 8.6047 796.9 10.9925 799.846 10.9925C802.791 10.9925 805.179 8.6047 805.179 5.65918C805.179 2.71366 802.791 0.325846 799.846 0.325846C796.9 0.325846 794.512 2.71366 794.512 5.65918ZM688.27 6.65918H799.846V4.65918H688.27V6.65918Z" fill="url(#paint72_linear_506_8802)"/>
<path d="M688.27 75.2097C687.718 75.2097 687.27 75.6574 687.27 76.2097C687.27 76.762 687.718 77.2097 688.27 77.2097V75.2097ZM794.512 76.2097C794.512 79.1552 796.9 81.5431 799.846 81.5431C802.791 81.5431 805.179 79.1552 805.179 76.2097C805.179 73.2642 802.791 70.8764 799.846 70.8764C796.9 70.8764 794.512 73.2642 794.512 76.2097ZM688.27 77.2097H799.846V75.2097H688.27V77.2097Z" fill="url(#paint73_linear_506_8802)"/>
<path d="M688.27 145.76C687.718 145.76 687.27 146.208 687.27 146.76C687.27 147.313 687.718 147.76 688.27 147.76V145.76ZM794.512 146.76C794.512 149.706 796.9 152.094 799.846 152.094C802.791 152.094 805.179 149.706 805.179 146.76C805.179 143.815 802.791 141.427 799.846 141.427C796.9 141.427 794.512 143.815 794.512 146.76ZM688.27 147.76H799.846V145.76H688.27V147.76Z" fill="url(#paint74_linear_506_8802)"/>
<path d="M688.27 216.311C687.718 216.311 687.27 216.759 687.27 217.311C687.27 217.863 687.718 218.311 688.27 218.311V216.311ZM794.512 217.311C794.512 220.256 796.9 222.644 799.846 222.644C802.791 222.644 805.179 220.256 805.179 217.311C805.179 214.365 802.791 211.977 799.846 211.977C796.9 211.977 794.512 214.365 794.512 217.311ZM688.27 218.311H799.846V216.311H688.27V218.311Z" fill="url(#paint75_linear_506_8802)"/>
<path d="M688.27 286.861C687.718 286.861 687.27 287.309 687.27 287.861C687.27 288.414 687.718 288.861 688.27 288.861V286.861ZM794.512 287.861C794.512 290.807 796.9 293.195 799.846 293.195C802.791 293.195 805.179 290.807 805.179 287.861C805.179 284.916 802.791 282.528 799.846 282.528C796.9 282.528 794.512 284.916 794.512 287.861ZM688.27 288.861H799.846V286.861H688.27V288.861Z" fill="url(#paint76_linear_506_8802)"/>
<path d="M688.27 357.412C687.718 357.412 687.27 357.86 687.27 358.412C687.27 358.964 687.718 359.412 688.27 359.412V357.412ZM794.512 358.412C794.512 361.357 796.9 363.745 799.846 363.745C802.791 363.745 805.179 361.357 805.179 358.412C805.179 355.466 802.791 353.079 799.846 353.079C796.9 353.079 794.512 355.466 794.512 358.412ZM688.27 359.412H799.846V357.412H688.27V359.412Z" fill="url(#paint77_linear_506_8802)"/>
<path d="M843.66 4.65918C843.108 4.65918 842.66 5.10689 842.66 5.65918C842.66 6.21146 843.108 6.65918 843.66 6.65918V4.65918ZM949.903 5.65918C949.903 8.6047 952.29 10.9925 955.236 10.9925C958.181 10.9925 960.569 8.6047 960.569 5.65918C960.569 2.71366 958.181 0.325846 955.236 0.325846C952.29 0.325846 949.903 2.71366 949.903 5.65918ZM843.66 6.65918H955.236V4.65918H843.66V6.65918Z" fill="url(#paint78_linear_506_8802)"/>
<path d="M843.66 75.2097C843.108 75.2097 842.66 75.6574 842.66 76.2097C842.66 76.762 843.108 77.2097 843.66 77.2097V75.2097ZM949.903 76.2097C949.903 79.1552 952.29 81.5431 955.236 81.5431C958.181 81.5431 960.569 79.1552 960.569 76.2097C960.569 73.2642 958.181 70.8764 955.236 70.8764C952.29 70.8764 949.903 73.2642 949.903 76.2097ZM843.66 77.2097H955.236V75.2097H843.66V77.2097Z" fill="url(#paint79_linear_506_8802)"/>
<path d="M843.66 145.76C843.108 145.76 842.66 146.208 842.66 146.76C842.66 147.313 843.108 147.76 843.66 147.76V145.76ZM949.903 146.76C949.903 149.706 952.29 152.094 955.236 152.094C958.181 152.094 960.569 149.706 960.569 146.76C960.569 143.815 958.181 141.427 955.236 141.427C952.29 141.427 949.903 143.815 949.903 146.76ZM843.66 147.76H955.236V145.76H843.66V147.76Z" fill="url(#paint80_linear_506_8802)"/>
<path d="M843.66 216.311C843.108 216.311 842.66 216.759 842.66 217.311C842.66 217.863 843.108 218.311 843.66 218.311V216.311ZM949.903 217.311C949.903 220.256 952.29 222.644 955.236 222.644C958.181 222.644 960.569 220.256 960.569 217.311C960.569 214.365 958.181 211.977 955.236 211.977C952.29 211.977 949.903 214.365 949.903 217.311ZM843.66 218.311H955.236V216.311H843.66V218.311Z" fill="url(#paint81_linear_506_8802)"/>
<path d="M843.66 286.861C843.108 286.861 842.66 287.309 842.66 287.861C842.66 288.414 843.108 288.861 843.66 288.861V286.861ZM949.903 287.861C949.903 290.807 952.29 293.195 955.236 293.195C958.181 293.195 960.569 290.807 960.569 287.861C960.569 284.916 958.181 282.528 955.236 282.528C952.29 282.528 949.903 284.916 949.903 287.861ZM843.66 288.861H955.236V286.861H843.66V288.861Z" fill="url(#paint82_linear_506_8802)"/>
<path d="M843.66 357.412C843.108 357.412 842.66 357.86 842.66 358.412C842.66 358.964 843.108 359.412 843.66 359.412V357.412ZM949.903 358.412C949.903 361.357 952.29 363.745 955.236 363.745C958.181 363.745 960.569 361.357 960.569 358.412C960.569 355.466 958.181 353.079 955.236 353.079C952.29 353.079 949.903 355.466 949.903 358.412ZM843.66 359.412H955.236V357.412H843.66V359.412Z" fill="url(#paint83_linear_506_8802)"/>
<path d="M999.05 4.65918C998.498 4.65918 998.05 5.10689 998.05 5.65918C998.05 6.21146 998.498 6.65918 999.05 6.65918V4.65918ZM1105.29 5.65918C1105.29 8.6047 1107.68 10.9925 1110.63 10.9925C1113.57 10.9925 1115.96 8.6047 1115.96 5.65918C1115.96 2.71366 1113.57 0.325846 1110.63 0.325846C1107.68 0.325846 1105.29 2.71366 1105.29 5.65918ZM999.05 6.65918H1110.63V4.65918H999.05V6.65918Z" fill="url(#paint84_linear_506_8802)"/>
<path d="M999.05 75.2097C998.498 75.2097 998.05 75.6574 998.05 76.2097C998.05 76.762 998.498 77.2097 999.05 77.2097V75.2097ZM1105.29 76.2097C1105.29 79.1552 1107.68 81.5431 1110.63 81.5431C1113.57 81.5431 1115.96 79.1552 1115.96 76.2097C1115.96 73.2642 1113.57 70.8764 1110.63 70.8764C1107.68 70.8764 1105.29 73.2642 1105.29 76.2097ZM999.05 77.2097H1110.63V75.2097H999.05V77.2097Z" fill="url(#paint85_linear_506_8802)"/>
<path d="M999.05 145.76C998.498 145.76 998.05 146.208 998.05 146.76C998.05 147.313 998.498 147.76 999.05 147.76V145.76ZM1105.29 146.76C1105.29 149.706 1107.68 152.094 1110.63 152.094C1113.57 152.094 1115.96 149.706 1115.96 146.76C1115.96 143.815 1113.57 141.427 1110.63 141.427C1107.68 141.427 1105.29 143.815 1105.29 146.76ZM999.05 147.76H1110.63V145.76H999.05V147.76Z" fill="url(#paint86_linear_506_8802)"/>
<path d="M999.05 216.311C998.498 216.311 998.05 216.759 998.05 217.311C998.05 217.863 998.498 218.311 999.05 218.311V216.311ZM1105.29 217.311C1105.29 220.256 1107.68 222.644 1110.63 222.644C1113.57 222.644 1115.96 220.256 1115.96 217.311C1115.96 214.365 1113.57 211.977 1110.63 211.977C1107.68 211.977 1105.29 214.365 1105.29 217.311ZM999.05 218.311H1110.63V216.311H999.05V218.311Z" fill="url(#paint87_linear_506_8802)"/>
<path d="M999.05 286.861C998.498 286.861 998.05 287.309 998.05 287.861C998.05 288.414 998.498 288.861 999.05 288.861V286.861ZM1105.29 287.861C1105.29 290.807 1107.68 293.195 1110.63 293.195C1113.57 293.195 1115.96 290.807 1115.96 287.861C1115.96 284.916 1113.57 282.528 1110.63 282.528C1107.68 282.528 1105.29 284.916 1105.29 287.861ZM999.05 288.861H1110.63V286.861H999.05V288.861Z" fill="url(#paint88_linear_506_8802)"/>
<path d="M999.05 357.412C998.498 357.412 998.05 357.86 998.05 358.412C998.05 358.964 998.498 359.412 999.05 359.412V357.412ZM1105.29 358.412C1105.29 361.357 1107.68 363.745 1110.63 363.745C1113.57 363.745 1115.96 361.357 1115.96 358.412C1115.96 355.466 1113.57 353.079 1110.63 353.079C1107.68 353.079 1105.29 355.466 1105.29 358.412ZM999.05 359.412H1110.63V357.412H999.05V359.412Z" fill="url(#paint89_linear_506_8802)"/>
<path d="M1154.44 4.65918C1153.89 4.65918 1153.44 5.10689 1153.44 5.65918C1153.44 6.21146 1153.89 6.65918 1154.44 6.65918V4.65918ZM1260.68 5.65918C1260.68 8.6047 1263.07 10.9925 1266.02 10.9925C1268.96 10.9925 1271.35 8.6047 1271.35 5.65918C1271.35 2.71366 1268.96 0.325846 1266.02 0.325846C1263.07 0.325846 1260.68 2.71366 1260.68 5.65918ZM1154.44 6.65918H1266.02V4.65918H1154.44V6.65918Z" fill="url(#paint90_linear_506_8802)"/>
<path d="M1154.44 75.2097C1153.89 75.2097 1153.44 75.6574 1153.44 76.2097C1153.44 76.762 1153.89 77.2097 1154.44 77.2097V75.2097ZM1260.68 76.2097C1260.68 79.1552 1263.07 81.5431 1266.02 81.5431C1268.96 81.5431 1271.35 79.1552 1271.35 76.2097C1271.35 73.2642 1268.96 70.8764 1266.02 70.8764C1263.07 70.8764 1260.68 73.2642 1260.68 76.2097ZM1154.44 77.2097H1266.02V75.2097H1154.44V77.2097Z" fill="url(#paint91_linear_506_8802)"/>
<path d="M1154.44 145.76C1153.89 145.76 1153.44 146.208 1153.44 146.76C1153.44 147.313 1153.89 147.76 1154.44 147.76V145.76ZM1260.68 146.76C1260.68 149.706 1263.07 152.094 1266.02 152.094C1268.96 152.094 1271.35 149.706 1271.35 146.76C1271.35 143.815 1268.96 141.427 1266.02 141.427C1263.07 141.427 1260.68 143.815 1260.68 146.76ZM1154.44 147.76H1266.02V145.76H1154.44V147.76Z" fill="url(#paint92_linear_506_8802)"/>
<path d="M1154.44 216.311C1153.89 216.311 1153.44 216.759 1153.44 217.311C1153.44 217.863 1153.89 218.311 1154.44 218.311V216.311ZM1260.68 217.311C1260.68 220.256 1263.07 222.644 1266.02 222.644C1268.96 222.644 1271.35 220.256 1271.35 217.311C1271.35 214.365 1268.96 211.977 1266.02 211.977C1263.07 211.977 1260.68 214.365 1260.68 217.311ZM1154.44 218.311H1266.02V216.311H1154.44V218.311Z" fill="url(#paint93_linear_506_8802)"/>
<path d="M1154.44 286.861C1153.89 286.861 1153.44 287.309 1153.44 287.861C1153.44 288.414 1153.89 288.861 1154.44 288.861V286.861ZM1260.68 287.861C1260.68 290.807 1263.07 293.195 1266.02 293.195C1268.96 293.195 1271.35 290.807 1271.35 287.861C1271.35 284.916 1268.96 282.528 1266.02 282.528C1263.07 282.528 1260.68 284.916 1260.68 287.861ZM1154.44 288.861H1266.02V286.861H1154.44V288.861Z" fill="url(#paint94_linear_506_8802)"/>
<path d="M1154.44 357.412C1153.89 357.412 1153.44 357.86 1153.44 358.412C1153.44 358.964 1153.89 359.412 1154.44 359.412V357.412ZM1260.68 358.412C1260.68 361.357 1263.07 363.745 1266.02 363.745C1268.96 363.745 1271.35 361.357 1271.35 358.412C1271.35 355.466 1268.96 353.079 1266.02 353.079C1263.07 353.079 1260.68 355.466 1260.68 358.412ZM1154.44 359.412H1266.02V357.412H1154.44V359.412Z" fill="url(#paint95_linear_506_8802)"/>
<defs>
<linearGradient id="paint0_linear_506_8802" x1="1.98389" y1="41.4343" x2="113.56" y2="41.4343" gradientUnits="userSpaceOnUse">
<stop stop-color="#8A8D85" stop-opacity="0"/>
<stop offset="1" stop-color="#8A8D85"/>
</linearGradient>
<linearGradient id="paint1_linear_506_8802" x1="1.98389" y1="111.985" x2="113.56" y2="111.985" gradientUnits="userSpaceOnUse">
<stop stop-color="#8A8D85" stop-opacity="0"/>
<stop offset="1" stop-color="#8A8D85"/>
</linearGradient>
<linearGradient id="paint2_linear_506_8802" x1="1.98389" y1="182.535" x2="113.56" y2="182.535" gradientUnits="userSpaceOnUse">
<stop stop-color="#8A8D85" stop-opacity="0"/>
<stop offset="1" stop-color="#8A8D85"/>
</linearGradient>
<linearGradient id="paint3_linear_506_8802" x1="1.98389" y1="253.086" x2="113.56" y2="253.086" gradientUnits="userSpaceOnUse">
<stop stop-color="#8A8D85" stop-opacity="0"/>
<stop offset="1" stop-color="#8A8D85"/>
</linearGradient>
<linearGradient id="paint4_linear_506_8802" x1="1.98389" y1="323.636" x2="113.56" y2="323.636" gradientUnits="userSpaceOnUse">
<stop stop-color="#8A8D85" stop-opacity="0"/>
<stop offset="1" stop-color="#8A8D85"/>
</linearGradient>
<linearGradient id="paint5_linear_506_8802" x1="1.98389" y1="394.187" x2="113.56" y2="394.187" gradientUnits="userSpaceOnUse">
<stop stop-color="#8A8D85" stop-opacity="0"/>
<stop offset="1" stop-color="#8A8D85"/>
</linearGradient>
<linearGradient id="paint6_linear_506_8802" x1="157.374" y1="41.4343" x2="268.95" y2="41.4343" gradientUnits="userSpaceOnUse">
<stop stop-color="#8A8D85" stop-opacity="0"/>
<stop offset="1" stop-color="#8A8D85"/>
</linearGradient>
<linearGradient id="paint7_linear_506_8802" x1="157.374" y1="111.985" x2="268.95" y2="111.985" gradientUnits="userSpaceOnUse">
<stop stop-color="#8A8D85" stop-opacity="0"/>
<stop offset="1" stop-color="#8A8D85"/>
</linearGradient>
<linearGradient id="paint8_linear_506_8802" x1="157.374" y1="182.535" x2="268.95" y2="182.535" gradientUnits="userSpaceOnUse">
<stop stop-color="#8A8D85" stop-opacity="0"/>
<stop offset="1" stop-color="#8A8D85"/>
</linearGradient>
<linearGradient id="paint9_linear_506_8802" x1="157.374" y1="253.086" x2="268.95" y2="253.086" gradientUnits="userSpaceOnUse">
<stop stop-color="#8A8D85" stop-opacity="0"/>
<stop offset="1" stop-color="#8A8D85"/>
</linearGradient>
<linearGradient id="paint10_linear_506_8802" x1="157.374" y1="323.636" x2="268.95" y2="323.636" gradientUnits="userSpaceOnUse">
<stop stop-color="#8A8D85" stop-opacity="0"/>
<stop offset="1" stop-color="#8A8D85"/>
</linearGradient>
<linearGradient id="paint11_linear_506_8802" x1="157.374" y1="394.187" x2="268.95" y2="394.187" gradientUnits="userSpaceOnUse">
<stop stop-color="#8A8D85" stop-opacity="0"/>
<stop offset="1" stop-color="#8A8D85"/>
</linearGradient>
<linearGradient id="paint12_linear_506_8802" x1="312.764" y1="41.4343" x2="424.34" y2="41.4343" gradientUnits="userSpaceOnUse">
<stop stop-color="#8A8D85" stop-opacity="0"/>
<stop offset="1" stop-color="#8A8D85"/>
</linearGradient>
<linearGradient id="paint13_linear_506_8802" x1="312.764" y1="111.985" x2="424.34" y2="111.985" gradientUnits="userSpaceOnUse">
<stop stop-color="#8A8D85" stop-opacity="0"/>
<stop offset="1" stop-color="#8A8D85"/>
</linearGradient>
<linearGradient id="paint14_linear_506_8802" x1="312.764" y1="182.535" x2="424.34" y2="182.535" gradientUnits="userSpaceOnUse">
<stop stop-color="#8A8D85" stop-opacity="0"/>
<stop offset="1" stop-color="#8A8D85"/>
</linearGradient>
<linearGradient id="paint15_linear_506_8802" x1="312.764" y1="253.086" x2="424.34" y2="253.086" gradientUnits="userSpaceOnUse">
<stop stop-color="#8A8D85" stop-opacity="0"/>
<stop offset="1" stop-color="#8A8D85"/>
</linearGradient>
<linearGradient id="paint16_linear_506_8802" x1="312.764" y1="323.636" x2="424.34" y2="323.636" gradientUnits="userSpaceOnUse">
<stop stop-color="#8A8D85" stop-opacity="0"/>
<stop offset="1" stop-color="#8A8D85"/>
</linearGradient>
<linearGradient id="paint17_linear_506_8802" x1="312.764" y1="394.187" x2="424.34" y2="394.187" gradientUnits="userSpaceOnUse">
<stop stop-color="#8A8D85" stop-opacity="0"/>
<stop offset="1" stop-color="#8A8D85"/>
</linearGradient>
<linearGradient id="paint18_linear_506_8802" x1="468.154" y1="41.4343" x2="579.73" y2="41.4343" gradientUnits="userSpaceOnUse">
<stop stop-color="#8A8D85" stop-opacity="0"/>
<stop offset="1" stop-color="#8A8D85"/>
</linearGradient>
<linearGradient id="paint19_linear_506_8802" x1="468.154" y1="111.985" x2="579.73" y2="111.985" gradientUnits="userSpaceOnUse">
<stop stop-color="#8A8D85" stop-opacity="0"/>
<stop offset="1" stop-color="#8A8D85"/>
</linearGradient>
<linearGradient id="paint20_linear_506_8802" x1="468.154" y1="182.535" x2="579.73" y2="182.535" gradientUnits="userSpaceOnUse">
<stop stop-color="#8A8D85" stop-opacity="0"/>
<stop offset="1" stop-color="#8A8D85"/>
</linearGradient>
<linearGradient id="paint21_linear_506_8802" x1="468.154" y1="253.086" x2="579.73" y2="253.086" gradientUnits="userSpaceOnUse">
<stop stop-color="#8A8D85" stop-opacity="0"/>
<stop offset="1" stop-color="#8A8D85"/>
</linearGradient>
<linearGradient id="paint22_linear_506_8802" x1="468.154" y1="323.636" x2="579.73" y2="323.636" gradientUnits="userSpaceOnUse">
<stop stop-color="#8A8D85" stop-opacity="0"/>
<stop offset="1" stop-color="#8A8D85"/>
</linearGradient>
<linearGradient id="paint23_linear_506_8802" x1="468.154" y1="394.187" x2="579.73" y2="394.187" gradientUnits="userSpaceOnUse">
<stop stop-color="#8A8D85" stop-opacity="0"/>
<stop offset="1" stop-color="#8A8D85"/>
</linearGradient>
<linearGradient id="paint24_linear_506_8802" x1="623.544" y1="41.4343" x2="735.12" y2="41.4343" gradientUnits="userSpaceOnUse">
<stop stop-color="#8A8D85" stop-opacity="0"/>
<stop offset="1" stop-color="#8A8D85"/>
</linearGradient>
<linearGradient id="paint25_linear_506_8802" x1="623.544" y1="111.985" x2="735.12" y2="111.985" gradientUnits="userSpaceOnUse">
<stop stop-color="#8A8D85" stop-opacity="0"/>
<stop offset="1" stop-color="#8A8D85"/>
</linearGradient>
<linearGradient id="paint26_linear_506_8802" x1="623.544" y1="182.535" x2="735.12" y2="182.535" gradientUnits="userSpaceOnUse">
<stop stop-color="#8A8D85" stop-opacity="0"/>
<stop offset="1" stop-color="#8A8D85"/>
</linearGradient>
<linearGradient id="paint27_linear_506_8802" x1="623.544" y1="253.086" x2="735.12" y2="253.086" gradientUnits="userSpaceOnUse">
<stop stop-color="#8A8D85" stop-opacity="0"/>
<stop offset="1" stop-color="#8A8D85"/>
</linearGradient>
<linearGradient id="paint28_linear_506_8802" x1="623.544" y1="323.636" x2="735.12" y2="323.636" gradientUnits="userSpaceOnUse">
<stop stop-color="#8A8D85" stop-opacity="0"/>
<stop offset="1" stop-color="#8A8D85"/>
</linearGradient>
<linearGradient id="paint29_linear_506_8802" x1="623.544" y1="394.187" x2="735.12" y2="394.187" gradientUnits="userSpaceOnUse">
<stop stop-color="#8A8D85" stop-opacity="0"/>
<stop offset="1" stop-color="#8A8D85"/>
</linearGradient>
<linearGradient id="paint30_linear_506_8802" x1="778.935" y1="41.4343" x2="890.51" y2="41.4343" gradientUnits="userSpaceOnUse">
<stop stop-color="#8A8D85" stop-opacity="0"/>
<stop offset="1" stop-color="#8A8D85"/>
</linearGradient>
<linearGradient id="paint31_linear_506_8802" x1="778.935" y1="111.985" x2="890.51" y2="111.985" gradientUnits="userSpaceOnUse">
<stop stop-color="#8A8D85" stop-opacity="0"/>
<stop offset="1" stop-color="#8A8D85"/>
</linearGradient>
<linearGradient id="paint32_linear_506_8802" x1="778.935" y1="182.535" x2="890.51" y2="182.535" gradientUnits="userSpaceOnUse">
<stop stop-color="#8A8D85" stop-opacity="0"/>
<stop offset="1" stop-color="#8A8D85"/>
</linearGradient>
<linearGradient id="paint33_linear_506_8802" x1="778.935" y1="253.086" x2="890.51" y2="253.086" gradientUnits="userSpaceOnUse">
<stop stop-color="#8A8D85" stop-opacity="0"/>
<stop offset="1" stop-color="#8A8D85"/>
</linearGradient>
<linearGradient id="paint34_linear_506_8802" x1="778.935" y1="323.636" x2="890.51" y2="323.636" gradientUnits="userSpaceOnUse">
<stop stop-color="#8A8D85" stop-opacity="0"/>
<stop offset="1" stop-color="#8A8D85"/>
</linearGradient>
<linearGradient id="paint35_linear_506_8802" x1="778.935" y1="394.187" x2="890.51" y2="394.187" gradientUnits="userSpaceOnUse">
<stop stop-color="#8A8D85" stop-opacity="0"/>
<stop offset="1" stop-color="#8A8D85"/>
</linearGradient>
<linearGradient id="paint36_linear_506_8802" x1="934.325" y1="41.4343" x2="1045.9" y2="41.4343" gradientUnits="userSpaceOnUse">
<stop stop-color="#8A8D85" stop-opacity="0"/>
<stop offset="1" stop-color="#8A8D85"/>
</linearGradient>
<linearGradient id="paint37_linear_506_8802" x1="934.325" y1="111.985" x2="1045.9" y2="111.985" gradientUnits="userSpaceOnUse">
<stop stop-color="#8A8D85" stop-opacity="0"/>
<stop offset="1" stop-color="#8A8D85"/>
</linearGradient>
<linearGradient id="paint38_linear_506_8802" x1="934.325" y1="182.535" x2="1045.9" y2="182.535" gradientUnits="userSpaceOnUse">
<stop stop-color="#8A8D85" stop-opacity="0"/>
<stop offset="1" stop-color="#8A8D85"/>
</linearGradient>
<linearGradient id="paint39_linear_506_8802" x1="934.325" y1="253.086" x2="1045.9" y2="253.086" gradientUnits="userSpaceOnUse">
<stop stop-color="#8A8D85" stop-opacity="0"/>
<stop offset="1" stop-color="#8A8D85"/>
</linearGradient>
<linearGradient id="paint40_linear_506_8802" x1="934.325" y1="323.636" x2="1045.9" y2="323.636" gradientUnits="userSpaceOnUse">
<stop stop-color="#8A8D85" stop-opacity="0"/>
<stop offset="1" stop-color="#8A8D85"/>
</linearGradient>
<linearGradient id="paint41_linear_506_8802" x1="934.325" y1="394.187" x2="1045.9" y2="394.187" gradientUnits="userSpaceOnUse">
<stop stop-color="#8A8D85" stop-opacity="0"/>
<stop offset="1" stop-color="#8A8D85"/>
</linearGradient>
<linearGradient id="paint42_linear_506_8802" x1="1089.71" y1="41.4343" x2="1201.29" y2="41.4343" gradientUnits="userSpaceOnUse">
<stop stop-color="#8A8D85" stop-opacity="0"/>
<stop offset="1" stop-color="#8A8D85"/>
</linearGradient>
<linearGradient id="paint43_linear_506_8802" x1="1089.71" y1="111.985" x2="1201.29" y2="111.985" gradientUnits="userSpaceOnUse">
<stop stop-color="#8A8D85" stop-opacity="0"/>
<stop offset="1" stop-color="#8A8D85"/>
</linearGradient>
<linearGradient id="paint44_linear_506_8802" x1="1089.71" y1="182.535" x2="1201.29" y2="182.535" gradientUnits="userSpaceOnUse">
<stop stop-color="#8A8D85" stop-opacity="0"/>
<stop offset="1" stop-color="#8A8D85"/>
</linearGradient>
<linearGradient id="paint45_linear_506_8802" x1="1089.71" y1="253.086" x2="1201.29" y2="253.086" gradientUnits="userSpaceOnUse">
<stop stop-color="#8A8D85" stop-opacity="0"/>
<stop offset="1" stop-color="#8A8D85"/>
</linearGradient>
<linearGradient id="paint46_linear_506_8802" x1="1089.71" y1="323.636" x2="1201.29" y2="323.636" gradientUnits="userSpaceOnUse">
<stop stop-color="#8A8D85" stop-opacity="0"/>
<stop offset="1" stop-color="#8A8D85"/>
</linearGradient>
<linearGradient id="paint47_linear_506_8802" x1="1089.71" y1="394.187" x2="1201.29" y2="394.187" gradientUnits="userSpaceOnUse">
<stop stop-color="#8A8D85" stop-opacity="0"/>
<stop offset="1" stop-color="#8A8D85"/>
</linearGradient>
<linearGradient id="paint48_linear_506_8802" x1="66.7095" y1="6.15918" x2="178.285" y2="6.15918" gradientUnits="userSpaceOnUse">
<stop stop-color="#8A8D85" stop-opacity="0"/>
<stop offset="1" stop-color="#8A8D85"/>
</linearGradient>
<linearGradient id="paint49_linear_506_8802" x1="66.7095" y1="76.7097" x2="178.285" y2="76.7097" gradientUnits="userSpaceOnUse">
<stop stop-color="#8A8D85" stop-opacity="0"/>
<stop offset="1" stop-color="#8A8D85"/>
</linearGradient>
<linearGradient id="paint50_linear_506_8802" x1="66.7095" y1="147.26" x2="178.285" y2="147.26" gradientUnits="userSpaceOnUse">
<stop stop-color="#8A8D85" stop-opacity="0"/>
<stop offset="1" stop-color="#8A8D85"/>
</linearGradient>
<linearGradient id="paint51_linear_506_8802" x1="66.7095" y1="217.811" x2="178.285" y2="217.811" gradientUnits="userSpaceOnUse">
<stop stop-color="#8A8D85" stop-opacity="0"/>
<stop offset="1" stop-color="#8A8D85"/>
</linearGradient>
<linearGradient id="paint52_linear_506_8802" x1="66.7095" y1="288.361" x2="178.285" y2="288.361" gradientUnits="userSpaceOnUse">
<stop stop-color="#8A8D85" stop-opacity="0"/>
<stop offset="1" stop-color="#8A8D85"/>
</linearGradient>
<linearGradient id="paint53_linear_506_8802" x1="66.7095" y1="358.912" x2="178.285" y2="358.912" gradientUnits="userSpaceOnUse">
<stop stop-color="#8A8D85" stop-opacity="0"/>
<stop offset="1" stop-color="#8A8D85"/>
</linearGradient>
<linearGradient id="paint54_linear_506_8802" x1="222.1" y1="6.15918" x2="333.675" y2="6.15918" gradientUnits="userSpaceOnUse">
<stop stop-color="#8A8D85" stop-opacity="0"/>
<stop offset="1" stop-color="#8A8D85"/>
</linearGradient>
<linearGradient id="paint55_linear_506_8802" x1="222.1" y1="76.7097" x2="333.675" y2="76.7097" gradientUnits="userSpaceOnUse">
<stop stop-color="#8A8D85" stop-opacity="0"/>
<stop offset="1" stop-color="#8A8D85"/>
</linearGradient>
<linearGradient id="paint56_linear_506_8802" x1="222.1" y1="147.26" x2="333.675" y2="147.26" gradientUnits="userSpaceOnUse">
<stop stop-color="#8A8D85" stop-opacity="0"/>
<stop offset="1" stop-color="#8A8D85"/>
</linearGradient>
<linearGradient id="paint57_linear_506_8802" x1="222.1" y1="217.811" x2="333.675" y2="217.811" gradientUnits="userSpaceOnUse">
<stop stop-color="#8A8D85" stop-opacity="0"/>
<stop offset="1" stop-color="#8A8D85"/>
</linearGradient>
<linearGradient id="paint58_linear_506_8802" x1="222.1" y1="288.361" x2="333.675" y2="288.361" gradientUnits="userSpaceOnUse">
<stop stop-color="#8A8D85" stop-opacity="0"/>
<stop offset="1" stop-color="#8A8D85"/>
</linearGradient>
<linearGradient id="paint59_linear_506_8802" x1="222.1" y1="358.912" x2="333.675" y2="358.912" gradientUnits="userSpaceOnUse">
<stop stop-color="#8A8D85" stop-opacity="0"/>
<stop offset="1" stop-color="#8A8D85"/>
</linearGradient>
<linearGradient id="paint60_linear_506_8802" x1="377.49" y1="6.15918" x2="489.065" y2="6.15918" gradientUnits="userSpaceOnUse">
<stop stop-color="#8A8D85" stop-opacity="0"/>
<stop offset="1" stop-color="#8A8D85"/>
</linearGradient>
<linearGradient id="paint61_linear_506_8802" x1="377.49" y1="76.7097" x2="489.065" y2="76.7097" gradientUnits="userSpaceOnUse">
<stop stop-color="#8A8D85" stop-opacity="0"/>
<stop offset="1" stop-color="#8A8D85"/>
</linearGradient>
<linearGradient id="paint62_linear_506_8802" x1="377.49" y1="147.26" x2="489.065" y2="147.26" gradientUnits="userSpaceOnUse">
<stop stop-color="#8A8D85" stop-opacity="0"/>
<stop offset="1" stop-color="#8A8D85"/>
</linearGradient>
<linearGradient id="paint63_linear_506_8802" x1="377.49" y1="217.811" x2="489.065" y2="217.811" gradientUnits="userSpaceOnUse">
<stop stop-color="#8A8D85" stop-opacity="0"/>
<stop offset="1" stop-color="#8A8D85"/>
</linearGradient>
<linearGradient id="paint64_linear_506_8802" x1="377.49" y1="288.361" x2="489.065" y2="288.361" gradientUnits="userSpaceOnUse">
<stop stop-color="#8A8D85" stop-opacity="0"/>
<stop offset="1" stop-color="#8A8D85"/>
</linearGradient>
<linearGradient id="paint65_linear_506_8802" x1="377.49" y1="358.912" x2="489.065" y2="358.912" gradientUnits="userSpaceOnUse">
<stop stop-color="#8A8D85" stop-opacity="0"/>
<stop offset="1" stop-color="#8A8D85"/>
</linearGradient>
<linearGradient id="paint66_linear_506_8802" x1="532.88" y1="6.15918" x2="644.456" y2="6.15918" gradientUnits="userSpaceOnUse">
<stop stop-color="#8A8D85" stop-opacity="0"/>
<stop offset="1" stop-color="#8A8D85"/>
</linearGradient>
<linearGradient id="paint67_linear_506_8802" x1="532.88" y1="76.7097" x2="644.456" y2="76.7097" gradientUnits="userSpaceOnUse">
<stop stop-color="#8A8D85" stop-opacity="0"/>
<stop offset="1" stop-color="#8A8D85"/>
</linearGradient>
<linearGradient id="paint68_linear_506_8802" x1="532.88" y1="147.26" x2="644.456" y2="147.26" gradientUnits="userSpaceOnUse">
<stop stop-color="#8A8D85" stop-opacity="0"/>
<stop offset="1" stop-color="#8A8D85"/>
</linearGradient>
<linearGradient id="paint69_linear_506_8802" x1="532.88" y1="217.811" x2="644.456" y2="217.811" gradientUnits="userSpaceOnUse">
<stop stop-color="#8A8D85" stop-opacity="0"/>
<stop offset="1" stop-color="#8A8D85"/>
</linearGradient>
<linearGradient id="paint70_linear_506_8802" x1="532.88" y1="288.361" x2="644.456" y2="288.361" gradientUnits="userSpaceOnUse">
<stop stop-color="#8A8D85" stop-opacity="0"/>
<stop offset="1" stop-color="#8A8D85"/>
</linearGradient>
<linearGradient id="paint71_linear_506_8802" x1="532.88" y1="358.912" x2="644.456" y2="358.912" gradientUnits="userSpaceOnUse">
<stop stop-color="#8A8D85" stop-opacity="0"/>
<stop offset="1" stop-color="#8A8D85"/>
</linearGradient>
<linearGradient id="paint72_linear_506_8802" x1="688.27" y1="6.15918" x2="799.846" y2="6.15918" gradientUnits="userSpaceOnUse">
<stop stop-color="#8A8D85" stop-opacity="0"/>
<stop offset="1" stop-color="#8A8D85"/>
</linearGradient>
<linearGradient id="paint73_linear_506_8802" x1="688.27" y1="76.7097" x2="799.846" y2="76.7097" gradientUnits="userSpaceOnUse">
<stop stop-color="#8A8D85" stop-opacity="0"/>
<stop offset="1" stop-color="#8A8D85"/>
</linearGradient>
<linearGradient id="paint74_linear_506_8802" x1="688.27" y1="147.26" x2="799.846" y2="147.26" gradientUnits="userSpaceOnUse">
<stop stop-color="#8A8D85" stop-opacity="0"/>
<stop offset="1" stop-color="#8A8D85"/>
</linearGradient>
<linearGradient id="paint75_linear_506_8802" x1="688.27" y1="217.811" x2="799.846" y2="217.811" gradientUnits="userSpaceOnUse">
<stop stop-color="#8A8D85" stop-opacity="0"/>
<stop offset="1" stop-color="#8A8D85"/>
</linearGradient>
<linearGradient id="paint76_linear_506_8802" x1="688.27" y1="288.361" x2="799.846" y2="288.361" gradientUnits="userSpaceOnUse">
<stop stop-color="#8A8D85" stop-opacity="0"/>
<stop offset="1" stop-color="#8A8D85"/>
</linearGradient>
<linearGradient id="paint77_linear_506_8802" x1="688.27" y1="358.912" x2="799.846" y2="358.912" gradientUnits="userSpaceOnUse">
<stop stop-color="#8A8D85" stop-opacity="0"/>
<stop offset="1" stop-color="#8A8D85"/>
</linearGradient>
<linearGradient id="paint78_linear_506_8802" x1="843.66" y1="6.15918" x2="955.236" y2="6.15918" gradientUnits="userSpaceOnUse">
<stop stop-color="#8A8D85" stop-opacity="0"/>
<stop offset="1" stop-color="#8A8D85"/>
</linearGradient>
<linearGradient id="paint79_linear_506_8802" x1="843.66" y1="76.7097" x2="955.236" y2="76.7097" gradientUnits="userSpaceOnUse">
<stop stop-color="#8A8D85" stop-opacity="0"/>
<stop offset="1" stop-color="#8A8D85"/>
</linearGradient>
<linearGradient id="paint80_linear_506_8802" x1="843.66" y1="147.26" x2="955.236" y2="147.26" gradientUnits="userSpaceOnUse">
<stop stop-color="#8A8D85" stop-opacity="0"/>
<stop offset="1" stop-color="#8A8D85"/>
</linearGradient>
<linearGradient id="paint81_linear_506_8802" x1="843.66" y1="217.811" x2="955.236" y2="217.811" gradientUnits="userSpaceOnUse">
<stop stop-color="#8A8D85" stop-opacity="0"/>
<stop offset="1" stop-color="#8A8D85"/>
</linearGradient>
<linearGradient id="paint82_linear_506_8802" x1="843.66" y1="288.361" x2="955.236" y2="288.361" gradientUnits="userSpaceOnUse">
<stop stop-color="#8A8D85" stop-opacity="0"/>
<stop offset="1" stop-color="#8A8D85"/>
</linearGradient>
<linearGradient id="paint83_linear_506_8802" x1="843.66" y1="358.912" x2="955.236" y2="358.912" gradientUnits="userSpaceOnUse">
<stop stop-color="#8A8D85" stop-opacity="0"/>
<stop offset="1" stop-color="#8A8D85"/>
</linearGradient>
<linearGradient id="paint84_linear_506_8802" x1="999.05" y1="6.15918" x2="1110.63" y2="6.15918" gradientUnits="userSpaceOnUse">
<stop stop-color="#8A8D85" stop-opacity="0"/>
<stop offset="1" stop-color="#8A8D85"/>
</linearGradient>
<linearGradient id="paint85_linear_506_8802" x1="999.05" y1="76.7097" x2="1110.63" y2="76.7097" gradientUnits="userSpaceOnUse">
<stop stop-color="#8A8D85" stop-opacity="0"/>
<stop offset="1" stop-color="#8A8D85"/>
</linearGradient>
<linearGradient id="paint86_linear_506_8802" x1="999.05" y1="147.26" x2="1110.63" y2="147.26" gradientUnits="userSpaceOnUse">
<stop stop-color="#8A8D85" stop-opacity="0"/>
<stop offset="1" stop-color="#8A8D85"/>
</linearGradient>
<linearGradient id="paint87_linear_506_8802" x1="999.05" y1="217.811" x2="1110.63" y2="217.811" gradientUnits="userSpaceOnUse">
<stop stop-color="#8A8D85" stop-opacity="0"/>
<stop offset="1" stop-color="#8A8D85"/>
</linearGradient>
<linearGradient id="paint88_linear_506_8802" x1="999.05" y1="288.361" x2="1110.63" y2="288.361" gradientUnits="userSpaceOnUse">
<stop stop-color="#8A8D85" stop-opacity="0"/>
<stop offset="1" stop-color="#8A8D85"/>
</linearGradient>
<linearGradient id="paint89_linear_506_8802" x1="999.05" y1="358.912" x2="1110.63" y2="358.912" gradientUnits="userSpaceOnUse">
<stop stop-color="#8A8D85" stop-opacity="0"/>
<stop offset="1" stop-color="#8A8D85"/>
</linearGradient>
<linearGradient id="paint90_linear_506_8802" x1="1154.44" y1="6.15918" x2="1266.02" y2="6.15918" gradientUnits="userSpaceOnUse">
<stop stop-color="#8A8D85" stop-opacity="0"/>
<stop offset="1" stop-color="#8A8D85"/>
</linearGradient>
<linearGradient id="paint91_linear_506_8802" x1="1154.44" y1="76.7097" x2="1266.02" y2="76.7097" gradientUnits="userSpaceOnUse">
<stop stop-color="#8A8D85" stop-opacity="0"/>
<stop offset="1" stop-color="#8A8D85"/>
</linearGradient>
<linearGradient id="paint92_linear_506_8802" x1="1154.44" y1="147.26" x2="1266.02" y2="147.26" gradientUnits="userSpaceOnUse">
<stop stop-color="#8A8D85" stop-opacity="0"/>
<stop offset="1" stop-color="#8A8D85"/>
</linearGradient>
<linearGradient id="paint93_linear_506_8802" x1="1154.44" y1="217.811" x2="1266.02" y2="217.811" gradientUnits="userSpaceOnUse">
<stop stop-color="#8A8D85" stop-opacity="0"/>
<stop offset="1" stop-color="#8A8D85"/>
</linearGradient>
<linearGradient id="paint94_linear_506_8802" x1="1154.44" y1="288.361" x2="1266.02" y2="288.361" gradientUnits="userSpaceOnUse">
<stop stop-color="#8A8D85" stop-opacity="0"/>
<stop offset="1" stop-color="#8A8D85"/>
</linearGradient>
<linearGradient id="paint95_linear_506_8802" x1="1154.44" y1="358.912" x2="1266.02" y2="358.912" gradientUnits="userSpaceOnUse">
<stop stop-color="#8A8D85" stop-opacity="0"/>
<stop offset="1" stop-color="#8A8D85"/>
</linearGradient>
</defs>
</svg>
