<svg width="140" height="141" viewBox="0 0 140 141" fill="none" xmlns="http://www.w3.org/2000/svg">
<g id="developer_mode_tv">
<mask id="mask0_506_4813" style="mask-type:alpha" maskUnits="userSpaceOnUse" x="0" y="0" width="140" height="141">
<rect id="Bounding box" y="0.670044" width="140" height="140" fill="#D9D9D9"/>
</mask>
<g mask="url(#mask0_506_4813)">
<path id="developer_mode_tv_2" d="M17.5 41.5034V33.4272C17.5 30.7419 18.3993 28.4999 20.1979 26.7013C21.9965 24.9027 24.2385 24.0034 26.9237 24.0034H113.076C115.762 24.0034 118.003 24.9027 119.802 26.7013C121.601 28.4999 122.5 30.7419 122.5 33.4272V41.5034H116.667V33.4272C116.667 32.3801 116.33 31.5197 115.658 30.8459C114.984 30.1731 114.123 29.8368 113.076 29.8368H26.9237C25.8767 29.8368 25.0163 30.1731 24.3425 30.8459C23.6697 31.5197 23.3333 32.3801 23.3333 33.4272V41.5034H17.5ZM52.5 117.337V105.67H26.9237C24.2385 105.67 21.9965 104.771 20.1979 102.972C18.3993 101.174 17.5 98.9316 17.5 96.2463V88.1701H23.3333V96.2463C23.3333 97.2934 23.6697 98.1538 24.3425 98.8276C25.0163 99.5004 25.8767 99.8368 26.9237 99.8368H113.076C114.123 99.8368 114.984 99.5004 115.658 98.8276C116.33 98.1538 116.667 97.2934 116.667 96.2463V88.1701H122.5V96.2463C122.5 98.9316 121.601 101.174 119.802 102.972C118.003 104.771 115.762 105.67 113.076 105.67H87.5V117.337H52.5ZM25.7571 64.8368L40.9238 49.6701L36.7952 45.5415L17.5 64.8368L36.7952 84.132L40.9238 80.0034L25.7571 64.8368ZM114.243 64.8368L99.0762 80.0034L103.205 84.132L122.5 64.8368L103.205 45.5415L99.0762 49.6701L114.243 64.8368Z" fill="#888F77"/>
</g>
</g>
</svg>
