<svg width="130" height="71" viewBox="0 0 130 71" fill="none" xmlns="http://www.w3.org/2000/svg">
<g id="or7DeL.tif">
<g id="Group">
<path id="Vector" d="M61.1244 0.4646C61.0275 0.688985 61.3386 1.11736 60.8592 1.13776C60.3238 1.16325 60.6297 0.699184 60.538 0.4646H61.1244Z" fill="#E8ECDF"/>
<path id="Vector_2" d="M15.283 35.526C14.3961 35.9236 13.5704 36.2549 12.7906 36.6677C12.4542 36.8461 12.1994 37.1825 11.9242 37.4679C11.8579 37.5393 11.8579 37.6769 11.8324 37.7839C11.9293 37.7636 12.0312 37.7483 12.128 37.7177C12.6275 37.5699 13.1219 37.3405 13.6316 37.2946C14.6 37.208 15.5735 37.2182 16.5011 37.6259C16.7815 37.7483 16.8987 37.8706 16.8477 38.0897C15.8079 38.3497 14.8039 38.5943 13.6469 38.8849C13.8712 39.048 13.9629 39.1652 14.0699 39.1907C15.4104 39.4761 16.338 40.3375 17.0312 41.4333C17.388 41.9939 17.5562 42.6718 17.8059 43.3038C17.8263 43.3548 17.7957 43.4262 17.7703 43.6351C17.5562 43.4873 17.3778 43.416 17.2708 43.2834C16.9242 42.84 16.6082 42.3711 16.2616 41.9277C16.1954 41.841 16.0475 41.8155 16.0118 41.7952C16.2616 42.6463 16.6082 43.4822 16.7305 44.3487C16.8324 45.052 16.705 45.7962 16.6133 46.5097C16.5572 46.943 16.44 47.3864 16.2565 47.784C15.9762 48.3956 15.6754 49.0123 15.283 49.5526C14.7274 50.3171 13.9731 50.8727 13.1831 51.4078C12.0261 52.1978 10.7825 52.4578 9.42671 52.4527C6.76616 52.4374 4.10558 52.4425 1.44502 52.4374C0.813014 52.4374 0.782471 52.3915 0.782471 51.7595C0.782471 47.1112 0.782471 42.4628 0.782471 37.8145C0.782471 37.1927 0.858864 37.1213 1.48578 37.1213C3.65704 37.1213 5.82831 37.1213 7.99957 37.1163C8.53984 37.1163 8.65196 37.2743 8.43789 37.7686C8.03014 38.7116 7.26053 39.3283 6.47562 39.9246C6.35329 40.0164 6.13412 40.0113 5.96083 40.0113C5.30843 40.0164 4.65605 40.0215 4.00365 40.0011C3.66217 39.9909 3.55003 40.1183 3.55003 40.4598C3.55512 43.3752 3.55003 46.2855 3.55003 49.2009C3.55003 49.2468 3.56535 49.2926 3.58064 49.3691C3.66728 49.3844 3.75898 49.4201 3.85072 49.4201C5.87417 49.4302 7.89764 49.4201 9.92109 49.4455C10.971 49.4557 11.7101 48.9257 12.337 48.1713C12.7702 47.6463 12.9843 47.0398 12.969 46.3568C12.9537 45.6535 12.9945 44.9501 12.9129 44.2569C12.8569 43.7727 12.6428 43.3038 12.5052 42.8247C12.4492 42.6361 12.4186 42.4425 12.3676 42.2284C11.9089 42.1214 11.3584 42.4119 10.9762 42.9165C10.5226 43.5179 9.95165 43.997 9.13106 43.9256C8.65705 43.8849 8.34106 44.0735 8.06583 44.4098C7.56634 45.0164 6.95982 45.3222 6.15961 44.996C6.06787 45.1591 5.96085 45.2916 5.92008 45.4394C5.78246 45.9134 5.5735 45.7503 5.4257 45.4802C4.98227 44.6902 4.98737 43.839 5.17085 42.9827C5.19124 42.8961 5.26257 42.789 5.33903 42.7534C6.01181 42.4323 6.14433 41.8818 6.10356 41.1988C6.09336 41.0153 6.29723 40.7554 6.47562 40.6433C7.6326 39.9042 8.53982 38.9562 9.25848 37.7636C10.0077 36.525 10.9965 35.5413 12.5714 35.2712C13.4022 35.1285 14.177 35.1947 14.9772 35.3324C15.0944 35.3527 15.1964 35.47 15.2983 35.5362L15.283 35.526ZM7.51029 41.8716C7.80081 41.4027 8.01994 41.0459 8.23911 40.6942C8.19833 40.6688 8.15246 40.6433 8.11169 40.6229C7.81097 40.9287 7.31661 41.1224 7.51029 41.8716Z" fill="#E8ECDF"/>
<path id="Vector_3" d="M70.0334 45.8725C69.8296 45.8725 69.6256 45.8725 69.4167 45.8725C67.6226 45.8623 65.8285 45.8521 64.0293 45.8521C63.6369 45.8521 63.4177 45.7247 63.433 45.2915C63.4534 44.8022 63.4075 44.3129 63.4585 43.8236C63.4738 43.686 63.6929 43.4566 63.8254 43.4515C64.5084 43.4311 65.1914 43.4872 65.8693 43.4923C67.7143 43.5025 69.5594 43.4974 71.4045 43.4923C71.6797 43.4923 71.9549 43.4464 72.225 43.4005C72.699 43.319 72.8979 43.4668 72.8979 43.9459C72.903 46.5861 72.8978 49.2313 72.9233 51.8715C72.9233 52.3047 72.8061 52.4576 72.3474 52.4576C69.1975 52.4322 66.0477 52.478 62.8978 52.4067C61.9753 52.3863 61.0578 52.1212 60.3137 51.4383C59.804 50.9694 59.1465 50.6635 58.6623 50.1742C57.4798 48.9816 56.858 47.5239 56.5777 45.8521C56.3738 44.6238 56.5064 43.4668 56.8173 42.3047C57.3015 40.5004 58.3718 39.1396 59.9977 38.1915C61.0527 37.5748 62.1537 37.2384 63.382 37.2435C66.0935 37.2537 68.7999 37.2435 71.5115 37.2231C71.8937 37.2231 72.0416 37.4015 72.0467 37.7481C72.0569 38.268 72.0569 38.793 72.062 39.3129C72.062 39.9245 71.9651 40.0213 71.3586 40.0213C68.9121 40.0213 66.4605 40.006 64.014 40.0162C62.9233 40.0162 61.8733 40.2099 61.0018 40.9438C60.2474 41.581 59.6868 42.3302 59.539 43.3292C59.4523 43.9153 59.3045 44.5167 59.3504 45.1029C59.4523 46.4943 59.9162 47.7685 61.1088 48.6146C61.7306 49.0529 62.4034 49.4403 63.224 49.4352C65.2168 49.425 67.2047 49.4454 69.1975 49.4454C70.1252 49.4454 70.1353 49.4403 70.1047 48.4974C70.0843 47.8807 70.013 47.269 69.9824 46.6523C69.9722 46.4179 70.013 46.1783 70.0334 45.8674V45.8725Z" fill="#E8ECDF"/>
<path id="Vector_4" d="M19.4217 44.7921C19.4217 42.4578 19.4268 40.1285 19.4166 37.7941C19.4166 37.4017 19.5338 37.2233 19.9467 37.2284C23.7642 37.2488 27.5868 37.1825 31.4044 37.3048C33.0863 37.3609 34.386 38.2936 35.2219 39.8431C35.8692 41.0408 36.0527 42.3048 35.8794 43.5943C35.6603 45.2253 34.9314 46.6117 33.4074 47.4476C32.913 47.7177 32.9385 47.7279 33.3259 48.1356C34.4268 49.2824 35.4972 50.4496 36.5828 51.6117C36.593 51.6219 36.6082 51.6321 36.6184 51.6474C36.7713 51.8665 36.9294 52.0908 37.0823 52.31C36.807 52.3507 36.5267 52.4119 36.2515 52.4221C35.5838 52.4374 34.9059 52.3609 34.2484 52.4374C33.6164 52.5087 33.2494 52.2233 32.9028 51.785C32.4798 51.2498 32.0415 50.7197 31.5879 50.205C31.0884 49.6392 30.5838 49.0735 30.0435 48.5485C29.8702 48.3803 29.5797 48.2478 29.3401 48.2427C27.806 48.2121 26.2719 48.2274 24.7377 48.2223C24.1312 48.2223 24.019 48.1153 24.019 47.5138C24.019 47.1367 24.019 46.7646 24.019 46.3874C24.019 45.7044 24.0343 45.6943 24.702 45.6993C26.7102 45.6993 28.7184 45.6993 30.7265 45.7044C31.3177 45.7044 31.8478 45.5261 32.2759 45.1336C33.1322 44.3589 33.3412 43.3497 33.1271 42.2641C33.0303 41.7748 32.862 41.2549 32.5766 40.8522C32.1026 40.1846 31.3228 40.0316 30.5532 40.0266C28.122 40.0062 25.6908 40.0215 23.2596 40.0266C22.3371 40.0266 22.3371 40.0367 22.3371 40.9389C22.3371 44.5271 22.332 48.1153 22.3371 51.7034C22.3371 52.2488 22.2759 52.4884 21.5725 52.4476C21.0679 52.417 20.5583 52.4221 20.0537 52.4425C19.5797 52.4629 19.4319 52.2437 19.4319 51.8003C19.4421 49.4659 19.4319 47.1367 19.4319 44.8023L19.4217 44.7921Z" fill="#E8ECDF"/>
<path id="Vector_5" d="M119.57 52.4221C117.658 52.4221 115.752 52.4221 113.841 52.4221C113.28 52.4221 113.097 52.1622 113.163 51.5964C113.214 51.1479 113.199 50.6841 113.173 50.2305C113.143 49.7208 113.25 49.573 113.754 49.573C117.245 49.573 120.742 49.5832 124.233 49.5679C124.692 49.5679 125.186 49.4965 125.599 49.3181C126.833 48.7728 126.807 46.9226 125.941 46.3008C125.579 46.0409 125.054 45.893 124.6 45.8828C122.251 45.8421 119.901 45.8981 117.551 45.8472C115.92 45.8115 114.483 45.2763 113.606 43.7728C113.331 43.3038 113.015 42.8298 113.041 42.2284C113.076 41.3467 112.944 40.4802 113.367 39.6086C113.902 38.5128 114.743 37.8553 115.834 37.5036C116.389 37.3201 117.011 37.2794 117.602 37.2743C121.027 37.2488 124.458 37.2641 127.888 37.2488C128.341 37.2488 128.499 37.4374 128.489 37.8604C128.479 38.3344 128.489 38.8084 128.499 39.2773C128.504 39.9399 128.428 40.0164 127.781 40.0164C124.468 40.0164 121.155 40.0113 117.842 40.0062C117.23 40.0062 116.659 40.0724 116.211 40.5872C115.869 40.9746 115.961 41.4129 115.961 41.8359C115.956 42.8655 116.45 43.365 117.495 43.3905C120.151 43.4517 122.806 43.4415 125.462 43.5689C127.363 43.6606 128.479 44.6086 129.019 46.1887C129.294 46.9991 129.345 47.891 129.177 48.8186C128.948 50.0674 128.25 50.9338 127.358 51.6831C126.741 52.2029 125.931 52.4272 125.11 52.4374C123.265 52.4578 121.42 52.4425 119.575 52.4425V52.4323L119.57 52.4221Z" fill="#E8ECDF"/>
<path id="Vector_6" d="M84.0242 52.4323C83.0609 52.4323 82.0874 52.5138 81.1394 52.4068C80.3902 52.3201 79.6154 52.101 78.9579 51.7442C78.2342 51.3517 77.6582 50.7044 76.9855 50.21C76.17 49.6188 75.6603 48.7523 75.329 47.8961C74.7887 46.5097 74.4524 45.052 74.7836 43.4873C75.0538 42.2182 75.3647 41 76.1955 39.9807C77.1843 38.7676 78.4177 37.896 79.9315 37.4832C80.5176 37.3252 81.1394 37.2538 81.746 37.2487C83.6216 37.2334 85.5074 37.1672 87.3729 37.3252C88.2597 37.4016 89.1721 37.8298 89.957 38.2885C91.1751 39.0072 92.0212 40.0826 92.6379 41.3976C93.2292 42.6514 93.2088 43.9256 93.1935 45.2253C93.1732 47.4221 92.2302 49.2009 90.6094 50.6331C89.6512 51.4792 88.5554 52.0959 87.3015 52.4017C87.1792 52.4323 87.0416 52.4272 86.9142 52.4272C85.9509 52.4272 84.9876 52.4272 84.0242 52.4272V52.4323ZM84.0089 49.4353C84.8244 49.4353 85.64 49.42 86.4555 49.4353C87.3117 49.4557 88.0099 49.048 88.6369 48.5739C89.5594 47.8859 90.0844 46.9277 90.2882 45.7656C90.5431 44.2977 90.2934 42.9623 89.4422 41.7442C88.6012 40.5464 87.3474 40.1183 85.9661 40.052C84.6613 39.9908 83.3566 40.0163 82.0518 40.0367C81.5676 40.0469 81.063 40.0877 80.6094 40.2406C78.9325 40.8114 78.0405 42.1111 77.7143 43.7574C77.5105 44.8023 77.592 45.9083 78.1017 46.892C78.8764 48.3803 80.0181 49.3894 81.802 49.4302C82.536 49.4455 83.2699 49.4302 84.0038 49.4302L84.0089 49.4353Z" fill="#E8ECDF"/>
<path id="Vector_7" d="M53.3972 33.7266C51.9752 33.7266 50.5532 33.7929 49.1363 33.7113C47.123 33.5941 45.4614 32.7225 44.1362 31.1731C43.4634 30.3831 42.9538 29.4962 42.6887 28.538C42.4288 27.5849 42.3778 26.5503 42.3931 25.5513C42.4237 23.38 43.2697 21.5401 45.0078 20.2047C46.1189 19.3535 47.388 18.7878 48.8253 18.7725C51.6184 18.747 54.4064 18.7521 57.1995 18.7317C57.6276 18.7317 57.7296 18.9763 57.7398 19.3127C57.7601 19.8683 57.7499 20.4238 57.7601 20.9743C57.7601 21.3209 57.5868 21.4789 57.2504 21.4789C55.0486 21.4738 52.8366 21.5502 50.6398 21.4279C49.651 21.3719 48.7081 21.4279 47.8263 21.749C46.6388 22.1823 45.8131 23.0691 45.3697 24.2873C45.0027 25.3015 45.074 26.3515 45.1913 27.3759C45.3696 28.9764 46.9191 30.5207 48.4992 30.8163C49.0343 30.9183 49.5848 30.9794 50.1301 30.9896C51.8784 31.01 53.6215 30.9896 55.3697 31.0049C55.7367 31.0049 55.8641 30.8826 55.8539 30.5258C55.8335 29.6135 55.8233 28.7011 55.8284 27.7837C55.8284 27.3658 55.5837 27.3148 55.2575 27.3148C53.494 27.3046 51.7306 27.2791 49.9671 27.2893C49.3249 27.2893 49.0547 27.2027 49.1108 26.4126C49.1312 26.0864 49.0802 25.7552 49.1159 25.4341C49.1464 25.1537 49.1974 24.8479 49.6051 24.8479C52.4441 24.8479 55.2881 24.8479 58.1271 24.8377C58.5654 24.8377 58.5858 25.1028 58.5858 25.4137C58.5909 26.3617 58.596 27.3046 58.6011 28.2526C58.6011 29.8989 58.6011 31.5503 58.6164 33.1966C58.6164 33.6094 58.4941 33.7623 58.0558 33.7572C56.5063 33.7317 54.9518 33.747 53.4023 33.747C53.4023 33.747 53.4023 33.7368 53.4023 33.7317L53.3972 33.7266Z" fill="#E8ECDF"/>
<path id="Vector_8" d="M108.153 47.7073C108.153 47.32 108.153 46.9326 108.153 46.5452C108.153 43.5942 108.163 40.6431 108.148 37.6869C108.148 37.2231 108.285 37.0294 108.764 37.0549C109.238 37.0855 109.712 37.0651 110.181 37.0651C110.737 37.0651 110.839 37.1568 110.844 37.7073C110.854 39.5982 110.869 41.4892 110.875 43.3801C110.875 45.8572 110.895 48.3393 110.859 50.8164C110.849 51.4943 110.711 52.1569 109.952 52.5188C109.498 52.7379 108.897 52.6411 108.413 52.1875C107.816 51.6268 107.286 50.9897 106.71 50.4087C105.665 49.3485 104.616 48.2986 103.55 47.2588C101.721 45.4647 99.8856 43.6757 98.0508 41.8867C98.0202 41.8561 97.9846 41.8256 97.9082 41.7593C97.8827 41.902 97.8469 42.0039 97.8469 42.1059C97.8469 45.3373 97.8469 48.5636 97.8469 51.795C97.8469 52.427 97.8214 52.4525 97.1843 52.4474C96.6797 52.4474 96.1701 52.4474 95.6655 52.4372C95.1456 52.4372 95.0181 52.3047 95.008 51.7746C94.9876 50.4596 94.952 49.1446 94.9469 47.8296C94.9367 45.903 94.9367 43.9815 94.9622 42.0549C94.9775 40.8368 95.0284 39.6186 95.0896 38.4005C95.1202 37.7379 95.4616 37.2741 96.0885 37.0039C96.6543 36.7593 97.0824 37.0294 97.4443 37.3607C98.275 38.1201 99.0651 38.9254 99.8653 39.7206C100.971 40.8266 102.062 41.953 103.178 43.0488C104.514 44.3638 105.869 45.6533 107.21 46.9632C107.48 47.2282 107.709 47.5289 107.959 47.8093C108.02 47.7736 108.086 47.7379 108.148 47.7022L108.153 47.7073Z" fill="#E8ECDF"/>
<path id="Vector_9" d="M36.6388 67.1163C36.7917 66.8818 36.9293 66.7034 37.0364 66.5097C37.4645 65.7452 37.8468 64.9501 38.3259 64.2212C38.6979 63.6555 38.4737 63.2019 38.2291 62.7279C37.7551 61.8206 37.2454 60.9338 36.7663 60.0316C36.2668 59.0887 35.8081 58.1254 35.2984 57.1927C35.0996 56.8308 35.2423 56.7493 35.5532 56.7442C36.3024 56.734 37.0567 56.7238 37.806 56.7493C37.964 56.7544 38.1934 56.892 38.2647 57.0347C39.2178 58.9103 40.1455 60.8064 41.0935 62.6871C41.6898 63.8645 42.3116 65.0316 42.9181 66.2039C43.0201 66.4027 43.0762 66.627 43.2036 66.8054C43.2444 66.8614 43.54 66.841 43.5705 66.7748C44.4982 65.0826 45.4054 63.3752 46.3229 61.6728C47.1537 60.1285 47.9794 58.579 48.8203 57.0449C48.8968 56.9073 49.1006 56.7696 49.2485 56.7646C49.9467 56.734 50.6501 56.7493 51.3535 56.7442C51.6491 56.7442 51.7968 56.8461 51.6388 57.157C51.2566 57.9113 50.9712 58.7472 50.4615 59.4047C49.9212 60.0979 49.5899 60.8726 49.172 61.6168C48.6827 62.4934 48.1934 63.3701 47.7143 64.2518C47.3065 65.0062 46.9141 65.7758 46.5063 66.5301C45.8692 67.7075 45.227 68.8849 44.5746 70.0571C44.0394 71.0153 42.8009 71.1071 42.1842 70.1999C41.7459 69.5526 41.4095 68.839 41.0272 68.156C40.6755 67.5342 40.3238 66.9124 39.9314 66.2039C39.4931 67.0194 39.0904 67.789 38.6776 68.5536C38.3871 69.0836 38.1169 69.6341 37.7754 70.1336C37.0517 71.1886 35.8387 71.0561 35.1863 69.8889C34.5491 68.7473 33.9069 67.6056 33.2953 66.4486C32.332 64.6341 31.3891 62.8043 30.4257 60.9898C29.9721 60.1336 29.4828 59.2977 29.0139 58.4465C28.7896 58.0439 28.5603 57.6514 28.3565 57.2386C28.2953 57.1162 28.3157 56.9582 28.2851 56.734C29.2178 56.734 30.1097 56.7289 30.9966 56.7442C31.0883 56.7442 31.2056 56.8767 31.2616 56.9786C31.858 58.0846 32.4441 59.2008 33.0353 60.312C33.5552 61.2957 34.0751 62.2793 34.6001 63.2579C35.2678 64.5067 35.9355 65.7605 36.6439 67.0959L36.6388 67.1163Z" fill="#888F77"/>
<path id="Vector_10" d="M19.4063 27.4322C19.4063 25.5565 19.4165 23.6809 19.3961 21.8052C19.3961 21.3924 19.5338 21.2548 19.9313 21.2701C20.4512 21.2905 20.9761 21.265 21.496 21.2701C21.8273 21.2701 21.9649 21.1528 21.9496 20.8063C21.9293 20.2711 21.97 19.7308 21.9496 19.1906C21.9344 18.7879 22.1536 18.6095 22.5052 18.6146C23.7234 18.635 24.9415 18.686 26.1597 18.7114C27.1484 18.7318 28.1373 18.7165 29.121 18.7573C30.5022 18.8134 31.7101 19.3638 32.7856 20.1946C33.6673 20.8776 34.3707 21.7441 34.7835 22.7838C35.4207 24.3944 35.7417 26.0101 35.2524 27.7787C34.9619 28.8287 34.6102 29.7971 34.0088 30.6992C33.3462 31.6931 32.4543 32.4067 31.4145 32.9571C30.2474 33.5739 29.0037 33.7675 27.6836 33.7421C25.1709 33.6911 22.6582 33.7166 20.1454 33.7319C19.5847 33.7319 19.3961 33.5535 19.4063 32.9979C19.4318 31.1376 19.4165 29.2823 19.4165 27.422H19.4063V27.4322ZM22.2351 21.53C22.2606 21.8052 22.2963 22.0244 22.2963 22.2487C22.2963 24.7767 22.2962 27.3047 22.2861 29.8328C22.2861 30.0112 22.2861 30.1947 22.2402 30.3629C22.1383 30.7247 22.3014 30.8318 22.6276 30.8521C23.2443 30.8878 23.861 30.9694 24.4726 30.9592C26.0476 30.9337 27.6276 30.9337 29.1923 30.8012C30.4207 30.6992 31.3432 29.9194 31.9599 28.9153C32.7754 27.5902 32.8518 26.1121 32.4288 24.6136C31.8529 22.5749 30.2371 21.5351 28.2749 21.4892C26.4451 21.4485 24.6204 21.4841 22.7906 21.4892C22.6021 21.4892 22.4135 21.5147 22.2351 21.53Z" fill="#E8ECDF"/>
<path id="Vector_11" d="M107.551 70.6587C105.803 70.6587 104.06 70.6434 102.312 70.6689C101.848 70.674 101.705 70.5058 101.726 70.0675C101.751 69.5476 101.736 69.0226 101.736 68.5027C101.736 68.2224 101.822 68.0236 102.143 68.0236C104.096 68.0032 106.048 67.9828 108.005 67.9625C108.754 67.9574 109.508 67.9523 110.258 67.9676C110.711 67.9777 111.165 68.0695 111.619 68.0593C112.118 68.0491 112.623 67.9828 113.112 67.8962C113.576 67.8146 114.029 67.2642 114.024 66.7749C114.024 66.255 114.187 65.7096 113.749 65.2458C113.28 64.7514 112.648 64.6546 112.062 64.6495C110.044 64.6342 108.03 64.7616 106.012 64.731C104.651 64.7107 103.331 64.3896 102.388 63.2886C101.353 62.0756 101.302 60.6689 101.746 59.2061C102.123 57.9573 103.046 57.2896 104.233 56.9533C104.738 56.8105 105.273 56.7341 105.798 56.7341C108.963 56.7188 112.128 56.7341 115.293 56.7341C115.844 56.7341 115.941 56.8309 115.946 57.3967C115.946 57.8197 115.93 58.2479 115.961 58.6709C115.992 59.1347 115.803 59.308 115.339 59.3029C112.648 59.2927 109.952 59.3029 107.261 59.3029C106.756 59.3029 106.246 59.2825 105.742 59.3131C105.212 59.3437 104.794 59.5985 104.529 60.0623C104.213 60.6179 104.345 61.7902 104.85 62.0654C105.268 62.2897 105.798 62.3763 106.282 62.3865C108.321 62.4324 110.36 62.412 112.403 62.4477C113.224 62.463 114.04 62.5904 114.768 63.0134C115.879 63.6556 116.476 64.6189 116.552 65.9033C116.613 66.9329 116.563 67.937 115.976 68.8391C115.426 69.6852 114.697 70.3682 113.673 70.4497C111.634 70.6179 109.59 70.6689 107.546 70.7657C107.546 70.73 107.546 70.6893 107.546 70.6536L107.551 70.6587Z" fill="#888F77"/>
<path id="Vector_12" d="M70.1302 59.3691C70.1302 59.5526 70.1302 59.7309 70.1302 59.9093C70.1302 63.2682 70.1302 66.6321 70.1302 69.9909C70.1302 70.6433 70.1098 70.6637 69.4829 70.6637C69.0446 70.6637 68.6012 70.6535 68.1628 70.6535C67.7704 70.6535 67.5716 70.5108 67.5716 70.0776C67.5869 65.8217 67.592 61.5607 67.5869 57.3048C67.5869 56.8767 67.7398 56.734 68.1577 56.7391C71.5064 56.7442 74.8499 56.7085 78.1985 56.7493C79.8805 56.7697 81.1802 57.5291 82.0416 59.0174C82.9335 60.5566 82.9386 62.1367 82.4289 63.7931C82.1384 64.7513 81.5217 65.419 80.7827 66.0103C80.1252 66.5353 80.115 66.5251 80.7368 67.1469C81.7256 68.1306 82.7194 69.1143 83.698 70.103C83.7949 70.1999 83.8612 70.3834 83.8459 70.5159C83.8357 70.5821 83.6114 70.6688 83.484 70.6688C82.5869 70.679 81.6848 70.6994 80.7929 70.6484C80.5431 70.6331 80.2577 70.4445 80.0793 70.2509C79.1262 69.2315 78.1985 68.1815 77.2556 67.152C77.011 66.8869 76.7561 66.7595 76.3229 66.8411C75.7725 66.9481 75.1812 66.8411 74.6053 66.836C73.8407 66.8207 73.0711 66.8003 72.3066 66.7901C71.6899 66.7799 71.6848 66.7748 71.6848 66.1581C71.6848 65.7503 71.6797 65.3426 71.6848 64.9348C71.6848 64.5475 71.9396 64.4506 72.2709 64.471C72.6735 64.4965 73.0762 64.5526 73.4839 64.5475C74.9671 64.522 76.4503 64.4557 77.9284 64.4506C78.8612 64.4506 79.5798 64.099 79.8958 63.2274C80.0742 62.7432 80.0946 62.1876 80.0895 61.6678C80.0895 61.2651 79.9825 60.837 79.8244 60.4649C79.5084 59.7208 78.7949 59.3691 78.0864 59.3538C75.4921 59.2875 72.8978 59.3283 70.3035 59.3334C70.2729 59.3334 70.2424 59.3538 70.1353 59.3895L70.1302 59.3691Z" fill="#888F77"/>
<path id="Vector_13" d="M85.1099 63.6503C85.1099 61.5657 85.1099 59.476 85.1099 57.3914C85.1099 56.7288 85.1099 56.7339 85.747 56.7339C88.5706 56.7339 91.3994 56.6218 94.2129 56.7798C96.1854 56.8868 97.745 57.9368 98.8663 59.634C99.8041 61.0509 100.12 62.58 99.9774 64.2212C99.9162 64.894 99.6359 65.5464 99.4728 66.209C99.1721 67.4628 98.3566 68.3649 97.434 69.1804C96.6797 69.8481 95.8081 70.3221 94.7786 70.4903C92.22 70.8981 89.6461 70.5821 87.0773 70.6738C86.588 70.6891 86.0986 70.6432 85.6094 70.6687C85.1914 70.6891 85.0742 70.5107 85.0742 70.1182C85.0844 67.9674 85.0793 65.8114 85.0793 63.6605H85.0997L85.1099 63.6503ZM87.6889 67.9317C89.7633 67.9317 91.7868 67.9215 93.8102 67.9368C94.3862 67.9368 94.8755 67.7074 95.3342 67.4271C96.2822 66.8512 96.8531 66.0204 97.1334 64.9194C97.3984 63.8746 97.3678 62.8348 96.9958 61.9072C96.2873 60.1284 94.8245 59.3129 92.9183 59.3027C91.3688 59.2925 89.8193 59.3027 88.2648 59.3027C88.0762 59.3027 87.8877 59.3027 87.6838 59.3027V67.9317H87.6889Z" fill="#888F77"/>
<path id="Vector_14" d="M47.3626 41.0053C47.1485 41.3009 46.9243 41.5557 46.7561 41.8412C46.1292 42.9115 45.538 44.0022 44.9059 45.0675C44.1108 46.413 43.28 47.7331 42.4849 49.0736C41.9192 50.0318 41.4095 51.0257 40.8285 51.9788C40.701 52.1878 40.4003 52.3916 40.1658 52.4069C39.4676 52.4579 38.7642 52.4273 38.0608 52.4069C37.8926 52.4018 37.7245 52.2999 37.541 52.2336C39.1465 49.5272 40.701 46.887 42.2708 44.2571C43.382 42.3967 44.5084 40.5466 45.6297 38.6964C45.7775 38.4517 45.9406 38.2173 46.0782 37.9675C46.3942 37.4018 46.7867 37.0042 47.5155 37.0297C48.2291 37.0552 48.5298 37.57 48.8611 38.0491C49.4014 38.8289 49.9212 39.624 50.4258 40.4242C50.9916 41.3264 51.542 42.2438 52.0874 43.1612C52.5257 43.9054 52.9335 44.6648 53.3769 45.4039C54.0599 46.5455 54.7683 47.6771 55.4564 48.8187C56.0629 49.8177 56.6644 50.8167 57.2556 51.8259C57.3474 51.9788 57.378 52.1623 57.4697 52.4375C56.6338 52.4375 55.905 52.3763 55.1812 52.4528C54.3606 52.5394 53.9886 52.1725 53.6573 51.4691C53.2495 50.5975 52.6736 49.8075 52.1843 48.9716C52.0161 48.6862 51.7867 48.6047 51.4605 48.6047C49.437 48.6149 47.4136 48.6047 45.385 48.6047C44.753 48.6047 44.6868 48.5027 44.9977 47.9421C45.2577 47.4681 45.5226 46.989 45.8437 46.5557C45.961 46.3977 46.2413 46.2907 46.4503 46.2856C47.643 46.2652 48.8356 46.2856 50.0232 46.2754C50.1863 46.2754 50.3443 46.1939 50.5074 46.148C50.4105 45.9951 50.3137 45.8422 50.2118 45.6944C50.064 45.4752 49.8958 45.2662 49.7633 45.0369C48.9783 43.7219 48.1985 42.4069 47.3677 41.0053H47.3626Z" fill="#E8ECDF"/>
<path id="Vector_15" d="M96.6848 33.7318C95.6553 33.7318 94.6817 33.7573 93.7082 33.7063C93.5247 33.6961 93.3108 33.4107 93.1885 33.2068C92.6176 32.2843 92.0773 31.3465 91.5218 30.4138C91.3638 30.1436 91.17 30.0213 90.8133 30.0213C88.7745 30.0468 86.7358 30.0366 84.697 30.0315C84.59 30.0315 84.4167 29.9601 84.3912 29.8837C84.3505 29.7665 84.3658 29.5881 84.432 29.4759C84.7277 28.9459 85.0233 28.4056 85.3801 27.9163C85.4922 27.7583 85.7929 27.6717 86.007 27.6666C87.0977 27.6462 88.1935 27.6666 89.2842 27.6666C89.4473 27.6666 89.6053 27.6666 89.906 27.6666C88.8611 25.8878 87.8674 24.1905 86.8225 22.4219C85.8133 24.2058 84.8704 25.9031 83.8969 27.585C83.1272 28.9153 82.3168 30.2201 81.5268 31.5402C81.1547 32.162 80.8031 32.7991 80.4106 33.4056C80.3138 33.5534 80.1048 33.7165 79.9366 33.7216C79.1721 33.7522 78.4024 33.7369 77.6379 33.7216C77.276 33.7114 77.1792 33.477 77.3678 33.161C78.5961 31.1069 79.8194 29.0478 81.0477 26.9887C82.1079 25.215 83.1731 23.4464 84.2384 21.6727C84.748 20.8266 85.2271 19.9652 85.7776 19.1446C86.4962 18.0794 87.6328 18.3342 88.2444 19.323C89.2638 20.9744 90.3137 22.6105 91.3076 24.2772C92.2913 25.9234 93.2088 27.6105 94.1721 29.267C94.6105 30.0213 95.0895 30.7502 95.5534 31.4841C95.905 32.0448 96.2669 32.5952 96.6033 33.161C96.6849 33.2986 96.6543 33.4923 96.6848 33.7114V33.7318Z" fill="#E8ECDF"/>
<path id="Vector_16" d="M25.808 64.9756C24.7835 63.3446 23.8152 61.8104 22.8264 60.2406C22.0873 61.4842 21.3788 62.6565 20.6907 63.839C20.1097 64.8329 19.5542 65.842 18.9731 66.8359C18.5348 67.5852 18.0812 68.3293 17.6275 69.0683C17.3727 69.4914 17.1281 69.9246 16.8325 70.3171C16.7101 70.4802 16.4654 70.6382 16.2667 70.6484C15.599 70.684 14.9313 70.6586 14.2585 70.6433C14.1464 70.6433 13.9578 70.577 13.9425 70.5107C13.9119 70.3731 13.9323 70.1947 14.0088 70.0724C15.2065 68.0694 16.4196 66.0714 17.6224 64.0734C18.285 62.9725 18.9425 61.8614 19.6 60.7554C20.2524 59.6697 20.8946 58.579 21.5572 57.5036C22.0975 56.6269 22.6021 56.2294 23.6928 56.7645C23.9324 56.8818 24.1362 57.1315 24.279 57.3711C25.1913 58.8542 26.0832 60.3527 26.9802 61.8461C28.2239 63.9205 29.4676 66 30.7163 68.0744C31.124 68.7523 31.5419 69.42 31.9548 70.0979C32.1383 70.3935 32.016 70.6535 31.6745 70.6535C30.9558 70.6637 30.2371 70.684 29.5236 70.628C29.2993 70.6127 29.019 70.4088 28.8916 70.21C28.3258 69.3283 27.806 68.4108 27.2606 67.5189C27.0618 67.1978 26.7611 67.264 26.4247 67.2793C25.5277 67.3252 24.6306 67.3048 23.7336 67.2895C22.9639 67.2742 22.1893 67.2233 21.4196 67.1978C21.3126 67.1978 21.2005 67.2691 21.0934 67.264C20.9252 67.2539 20.6754 67.2539 20.6143 67.157C20.5327 67.0245 20.548 66.7748 20.6194 66.6218C20.8436 66.1682 21.0781 65.7146 21.389 65.3171C21.5317 65.1387 21.8528 65.0316 22.0975 65.0214C23.1576 64.9909 24.2178 65.0112 25.2779 65.0061C25.4155 65.0061 25.5582 64.9858 25.7927 64.9705L25.808 64.9756Z" fill="#888F77"/>
<path id="Vector_17" d="M64.6715 70.6535C64.59 70.6535 64.5033 70.6382 64.4269 70.6535C63.4636 70.8625 62.9539 70.312 62.5359 69.5577C62.1485 68.8594 61.7408 68.1714 61.3076 67.4986C61.2057 67.3406 60.961 67.1775 60.7775 67.1775C58.8764 67.152 56.9752 67.1571 55.0741 67.152C54.7377 67.152 54.6154 67.0297 54.8244 66.6984C55.1047 66.2549 55.3545 65.7962 55.6297 65.3477C55.7724 65.1132 55.9508 65.047 56.2668 65.0725C57.0772 65.1336 57.8927 65.0929 58.7082 65.0929C58.9324 65.0929 59.1567 65.0929 59.3759 65.0725C59.4931 65.0623 59.6613 65.0572 59.7123 64.9858C59.7684 64.9043 59.7582 64.7208 59.7021 64.629C58.963 63.4007 58.2036 62.1826 57.4544 60.9593C57.3524 60.7962 57.3014 60.5974 57.1791 60.4598C57.118 60.3885 56.8683 60.363 56.8479 60.4037C56.2974 61.3314 55.7724 62.2794 55.227 63.2121C54.6511 64.2009 54.0598 65.1795 53.4737 66.1683C52.8213 67.2641 52.174 68.3599 51.5267 69.4558C51.3636 69.731 51.2413 70.0419 51.0272 70.2662C50.859 70.4445 50.5838 70.5924 50.3443 70.6127C49.7276 70.6535 49.1057 70.6178 48.4839 70.6127C48.0813 70.6076 47.9487 70.3936 48.1475 70.0521C48.7846 68.9665 49.4217 67.8808 50.0792 66.8054C51.1496 65.047 52.2301 63.2988 53.3055 61.5505C54.2077 60.0877 55.0996 58.6249 56.012 57.1672C56.5013 56.3772 57.5104 56.2753 58.0813 57.0143C58.6215 57.7126 59.0649 58.4924 59.5288 59.2519C60.1862 60.3273 60.8234 61.4078 61.4656 62.4935C62.0823 63.5383 62.6888 64.5883 63.3106 65.6331C63.9528 66.7086 64.6103 67.784 65.2678 68.8492C65.5329 69.2774 65.8234 69.6902 66.0935 70.1184C66.2974 70.4395 66.1904 70.6433 65.803 70.6586C65.4258 70.6739 65.0538 70.6586 64.6766 70.6586C64.6766 70.6586 64.6766 70.6586 64.6766 70.6535H64.6715Z" fill="#888F77"/>
<path id="Vector_18" d="M70.9152 21.4689C69.6613 21.4689 68.4839 21.4689 67.3117 21.4689C66.8275 21.4689 66.3382 21.4791 65.854 21.4587C65.5431 21.4485 65.3443 21.2956 65.3596 20.9388C65.3851 20.3884 65.4207 19.8328 65.4003 19.2824C65.3851 18.8593 65.5125 18.7166 65.9508 18.7217C68.8255 18.737 71.6949 18.7319 74.5696 18.7217C75.9763 18.7217 77.3831 18.6911 78.7898 18.6656C79.223 18.6605 79.4422 18.8287 79.4269 19.2926C79.4116 19.8124 79.4422 20.3374 79.4473 20.8573C79.4524 21.3721 79.3505 21.4842 78.8204 21.4842C77.3015 21.4842 75.7826 21.4842 74.2638 21.4842C74.1364 21.4842 74.0089 21.4995 73.8306 21.5097C73.8306 21.7543 73.8306 21.9735 73.8306 22.1978C73.8306 25.8216 73.8306 29.4404 73.8306 33.0642C73.8306 33.6708 73.7592 33.7421 73.1527 33.7421C72.6124 33.7421 72.0772 33.7217 71.537 33.7319C71.0834 33.7421 70.9152 33.5484 70.9203 33.0897C70.9305 29.4047 70.9203 25.7146 70.9152 22.0296C70.9152 21.8716 70.9152 21.7085 70.9152 21.474V21.4689Z" fill="#E8ECDF"/>
<path id="Vector_19" d="M100.992 30.8315C101.445 30.8315 101.833 30.8264 102.22 30.8315C104.942 30.8774 107.658 30.9386 110.38 30.9743C110.783 30.9793 110.915 31.1221 110.91 31.5247C110.905 32.0395 110.971 32.5594 111.017 33.0793C111.053 33.4768 110.849 33.7367 110.451 33.7367C106.517 33.7367 102.587 33.7367 98.6523 33.7418C98.2445 33.7418 98.066 33.5889 98.066 33.1659C98.0762 28.5329 98.0864 23.9049 98.0813 19.2719C98.0813 18.803 98.326 18.6246 98.7389 18.6144C99.2434 18.5991 99.748 18.6093 100.258 18.6093C100.844 18.6093 100.976 18.7418 100.976 19.3228C100.981 22.962 100.987 26.5961 100.992 30.2352C100.992 30.4136 100.992 30.5869 100.992 30.8315Z" fill="#E8ECDF"/>
<path id="Vector_20" d="M60.961 26.2597C60.961 23.9763 60.961 21.6929 60.961 19.4095C60.961 18.7826 61.0171 18.7418 61.6338 18.7418C62.1537 18.7418 62.6787 18.7418 63.1985 18.7317C63.5095 18.7266 63.6827 18.8132 63.6878 19.17C63.7337 23.8285 63.7847 28.4921 63.8357 33.1506C63.8357 33.538 63.6725 33.7572 63.2495 33.7419C62.6787 33.7215 62.1078 33.7164 61.537 33.7317C61.0935 33.7419 60.9406 33.5431 60.9406 33.1099C60.9508 30.8265 60.9406 28.5431 60.9406 26.2597C60.9457 26.2597 60.9508 26.2597 60.9559 26.2597H60.961Z" fill="#E8ECDF"/>
<path id="Vector_21" d="M40.2372 26.2598C40.2372 28.4974 40.227 30.7298 40.2423 32.9673C40.2474 33.6197 40.0843 33.7675 39.4472 33.7318C39.0089 33.7063 38.5654 33.7114 38.1271 33.7165C37.7193 33.7165 37.5104 33.5738 37.5104 33.1202C37.5206 28.4872 37.5206 23.8541 37.5104 19.2211C37.5104 18.8439 37.6531 18.7369 37.9997 18.7471C38.5552 18.7624 39.1108 18.7675 39.6663 18.7471C40.0894 18.7318 40.2423 18.8949 40.2423 19.3179C40.227 21.6319 40.2372 23.951 40.2372 26.27H40.2423L40.2372 26.2598Z" fill="#E8ECDF"/>
<path id="Vector_22" d="M6.46542 7.18746C6.46542 6.42293 6.48581 5.6533 6.46032 4.88878C6.44503 4.47593 6.69481 4.3689 7.00062 4.3689C8.49909 4.38419 9.99244 4.42496 11.4909 4.45045C12.1229 4.46064 12.123 4.46064 12.123 5.07226C12.123 6.48919 12.1331 7.90611 12.1382 9.32304C12.1382 9.96014 12.1127 9.99582 11.496 9.99582C10.1912 9.99582 8.88646 9.99582 7.58167 9.99582C6.84092 9.99582 6.47053 9.62885 6.47053 8.8949C6.47053 8.32405 6.47053 7.75321 6.47053 7.18236L6.46542 7.18746Z" fill="#888F77"/>
<path id="Vector_23" d="M13.6571 18.1813C13.2646 18.1813 12.8722 18.1711 12.4848 18.1813C12.1434 18.1915 11.9599 18.0488 11.9599 17.7073C11.9599 16.8612 11.9446 16.01 11.9803 15.164C11.9854 15.0315 12.2198 14.8072 12.3523 14.8072C13.1678 14.7817 13.9833 14.8276 14.7988 14.8123C15.176 14.8072 15.3136 14.9244 15.3136 15.3169C15.3136 16.0967 15.3798 16.8765 15.3798 17.6563C15.3798 17.9367 15.2677 18.1966 14.8854 18.1813C14.4777 18.1609 14.0699 18.1813 13.6622 18.1813H13.6571Z" fill="#888F77"/>
<path id="Vector_24" d="M20.4105 14.8635C19.2025 14.8737 19.2076 14.8737 19.2025 13.6606C19.1974 12.5037 19.1261 12.5189 20.3392 12.5291C21.6287 12.5393 21.542 12.5444 21.5369 13.7218C21.5369 14.8533 21.5369 14.8533 20.4156 14.8584L20.4105 14.8635Z" fill="#888F77"/>
</g>
</g>
</svg>
