<svg width="141" height="141" viewBox="0 0 141 141" fill="none" xmlns="http://www.w3.org/2000/svg">
<g id="donut_large">
<mask id="mask0_506_4414" style="mask-type:alpha" maskUnits="userSpaceOnUse" x="0" y="0" width="141" height="141">
<rect id="Bounding box" x="0.738281" y="0.670044" width="140" height="140" fill="#D9D9D9"/>
</mask>
<g mask="url(#mask0_506_4414)">
<path id="donut_large_2" d="M64.9386 122.878C51.5366 121.495 40.4085 115.822 31.5545 105.861C22.6995 95.8997 18.272 84.1693 18.272 70.67C18.272 57.1707 22.6995 45.4778 31.5545 35.5913C40.4085 25.7047 51.5366 19.9949 64.9386 18.4617V25.641C53.5559 27.2267 44.1292 32.2711 36.6586 40.7742C29.1871 49.2772 25.4513 59.2425 25.4513 70.67C25.4513 82.0975 29.1871 92.0628 36.6586 100.566C44.1292 109.069 53.5559 114.113 64.9386 115.699V122.878ZM76.6053 122.878V115.699C86.8661 114.532 95.5865 110.273 102.766 102.921C109.945 95.5701 114.29 86.7642 115.801 76.5033H122.98C121.619 88.836 116.614 99.3452 107.965 108.031C99.3164 116.718 88.8631 121.667 76.6053 122.878ZM115.801 64.8367C114.215 54.5758 109.851 45.8074 102.709 38.5313C95.5675 31.2542 86.8661 26.9574 76.6053 25.641V18.4617C88.8631 19.8228 99.3164 24.8278 107.965 33.4767C116.614 42.1256 121.619 52.5789 122.98 64.8367H115.801Z" fill="#888F77"/>
</g>
</g>
</svg>
