<svg width="125" height="122" viewBox="0 0 125 122" fill="none" xmlns="http://www.w3.org/2000/svg">
<path id="Union" fill-rule="evenodd" clip-rule="evenodd" d="M73.3094 0.00881125C69.7374 0.00853909 66.1655 0.00826693 62.5936 0.00826693C57.9815 0.00826693 53.3692 0.00804199 48.757 0.00781704C37.2261 0.00725466 25.695 0.00669227 14.1645 0.00964476C10.8481 0.0110226 8.84887 2.03091 8.85438 5.34457C8.85488 5.84561 8.85393 6.34664 8.85297 6.84768C8.8513 7.72446 8.84962 8.60125 8.85576 9.47804C8.8778 12.5754 10.906 14.6435 13.9909 14.6476C21.9292 14.6565 29.8682 14.6548 37.8068 14.6531C40.9822 14.6524 44.1576 14.6518 47.3328 14.6518H94.2449C95.9899 14.6518 97.7349 14.6528 99.48 14.6539C103.407 14.6562 107.333 14.6585 111.26 14.649C114.065 14.6421 116.143 12.5947 116.196 9.79632C116.225 8.31224 116.214 6.82816 116.204 5.34408C116.203 5.17477 116.202 5.00546 116.201 4.83616C116.192 3.51069 115.711 2.37123 114.774 1.43294C113.68 0.337566 112.329 0 110.816 0C98.3142 0.0107164 85.8116 0.00976382 73.3094 0.00881125ZM124.558 54.869V53.4912V53.4898C124.287 52.729 124.015 51.9685 123.742 51.2081C123.157 49.5737 122.572 47.9393 121.997 46.3004C120.137 40.9957 118.285 35.6884 116.447 30.3769C116.3 29.9525 116.225 29.4854 116.217 29.0362C116.2 28.1305 116.203 27.2243 116.205 26.3181C116.206 25.7549 116.208 25.1916 116.205 24.6286C116.188 21.5739 114.09 19.5058 111.027 19.5058C105.816 19.5072 100.604 19.5072 95.3927 19.5072H56.8233H14.053C10.9804 19.5072 8.73457 21.5602 8.90129 24.6217C9.10108 28.2895 8.28816 31.6734 7.03021 35.0697C5.51532 39.1589 4.094 43.283 2.67262 47.4073C2.06046 49.1836 1.44829 50.9599 0.82863 52.7334C0.77721 52.88 0.709995 53.0214 0.642905 53.1625C0.612919 53.2256 0.582958 53.2886 0.554443 53.352V54.3165C0.568568 54.361 0.582963 54.4054 0.597352 54.4498C0.639109 54.5786 0.680808 54.7072 0.715649 54.8373C1.18273 56.5706 2.11827 57.8906 3.95491 58.3274C5.81635 58.771 7.52898 58.5919 8.86133 56.725C8.87165 56.8502 8.88179 56.9539 8.89057 57.0437C8.90641 57.2058 8.91782 57.3225 8.91782 57.4387C8.92058 69.4698 8.92334 81.5023 8.92334 93.5335C8.92334 96.6285 8.92245 99.7235 8.92157 102.819C8.92025 107.461 8.91893 112.104 8.92058 116.747C8.92196 119.975 10.9363 121.997 14.1673 121.997C25.917 122.001 37.6666 122 49.4163 122C53.3256 121.999 57.2349 121.999 61.1442 121.999H76.3664H77.2399V73.2478H101.636V121.991H102.356C103.321 121.991 104.285 121.992 105.249 121.993C107.178 121.994 109.106 121.996 111.035 121.991C114.259 121.984 116.28 119.963 116.28 116.733C116.283 97.0566 116.283 77.3785 116.283 57.7005V57.0598C116.327 57.0712 116.366 57.078 116.399 57.0838C116.457 57.0941 116.498 57.1013 116.522 57.1259C118.066 58.6801 119.932 58.782 121.892 58.2488C123.139 57.9099 123.887 56.9964 124.279 55.7825C124.341 55.5889 124.4 55.3941 124.458 55.1993C124.492 55.0891 124.525 54.979 124.558 54.869ZM23.5379 73.2258H62.5V107.316H23.5379V73.2258ZM56.4181 34.4025C56.4269 34.3413 56.4361 34.2779 56.4444 34.2113L56.4458 34.21H68.6409C68.6497 34.2951 68.66 34.379 68.6701 34.4619C68.6904 34.6271 68.7103 34.7889 68.7167 34.9512C68.7775 36.5688 68.839 38.1865 68.9006 39.8042C69.0792 44.4961 69.2578 49.1886 69.4166 53.8811C69.5282 57.2044 67.2466 60.0744 64.0211 60.7578C60.7722 61.4468 57.504 59.7258 56.195 56.6657C55.71 55.5331 55.6356 54.3537 55.6797 53.155C55.9057 47.0292 56.1413 40.902 56.3769 34.7762C56.3816 34.655 56.3991 34.5338 56.4181 34.4025ZM26.9397 34.1796H27.7595H27.7609C27.5133 35.3053 27.2714 36.4029 27.0322 37.4877C26.8282 38.4133 26.6262 39.3296 26.4244 40.2462C26.1813 41.3502 25.9372 42.4539 25.6931 43.5575C24.9909 46.7322 24.2888 49.9065 23.6109 53.0861C23.5319 53.4579 23.5265 53.8441 23.5211 54.2308C23.5162 54.5793 23.5113 54.9282 23.4525 55.2672C22.8407 58.7696 19.6621 61.1698 16.0715 60.8805C12.6297 60.6035 9.85474 57.6536 9.79963 54.176C9.79136 53.6621 9.86577 53.1261 10.0118 52.6314C10.7419 50.151 11.4775 47.6726 12.2131 45.1942C13.2268 41.779 14.2404 38.364 15.2393 34.9443C15.4129 34.3477 15.6526 34.1604 16.2658 34.1659C18.9133 34.1874 21.5617 34.1845 24.2096 34.1816C25.1197 34.1806 26.0298 34.1796 26.9397 34.1796ZM76.9106 34.3397C76.9143 34.3039 76.9184 34.2648 76.9216 34.221V34.2224H89.1498C89.2675 34.9244 89.3844 35.6241 89.5011 36.3226C89.6411 37.1609 89.7808 37.9974 89.9214 38.8339C90.1657 40.286 90.4118 41.738 90.6578 43.1901C91.2123 46.4624 91.7669 49.735 92.3023 53.0103C92.7294 55.6213 91.8117 57.7817 89.785 59.4021C87.7237 61.0499 85.3759 61.3655 82.9138 60.3913C80.2863 59.3511 78.7528 56.9041 78.6191 54.063C78.5278 52.1426 78.3399 50.2271 78.1521 48.3115C78.0735 47.5099 77.9948 46.7083 77.9233 45.9063C77.7538 44.0097 77.5833 42.1135 77.4128 40.2173C77.2423 38.321 77.0718 36.4248 76.9023 34.5282C76.8968 34.4711 76.903 34.4121 76.9106 34.3397ZM48.2118 34.1741H46.9567C46.0545 34.1745 45.1523 34.1759 44.2502 34.1773C41.7083 34.1812 39.1668 34.1852 36.6245 34.1659C36.0623 34.1617 35.8983 34.3436 35.8115 34.8796C35.417 37.303 35.01 39.7242 34.603 42.1452C34.2339 44.3409 33.8648 46.5365 33.5051 48.7336C33.4366 49.1508 33.3621 49.5684 33.2875 49.9864C33.0392 51.3777 32.7903 52.7726 32.7638 54.1691C32.699 57.6715 35.5635 60.6035 39.0715 60.886C42.567 61.1671 45.7622 58.7669 46.3891 55.343C46.461 54.95 46.4609 54.5452 46.4607 54.1393C46.4606 53.8536 46.4605 53.5674 46.4855 53.2845C46.6673 51.2486 46.8562 49.2131 47.0451 47.1775C47.187 45.648 47.329 44.1184 47.4679 42.5885C47.6367 40.7275 47.7998 38.8666 47.9662 36.969C48.047 36.0474 48.1285 35.1172 48.2118 34.1741ZM97.4109 34.4608C97.3977 34.3754 97.3831 34.2813 97.3658 34.1741H99.9271C100.718 34.1745 101.51 34.1758 102.301 34.1771C104.515 34.1808 106.73 34.1845 108.945 34.1672C109.455 34.1631 109.65 34.3353 109.79 34.8093C111.526 40.705 113.277 46.5966 115.04 52.484C115.587 54.3055 115.193 55.9851 114.28 57.5558C112.844 60.0276 109.97 61.3035 107.158 60.8006C104.347 60.2976 101.959 58.1317 101.627 55.2865C101.127 50.9926 100.148 46.8011 99.1697 42.6102C98.5708 40.045 97.972 37.48 97.4829 34.892C97.4574 34.76 97.4367 34.6269 97.4109 34.4608Z" fill="url(#paint0_linear_463_1213)"/>
<defs>
<linearGradient id="paint0_linear_463_1213" x1="62.5563" y1="4.50003" x2="62.5563" y2="109" gradientUnits="userSpaceOnUse">
<stop stop-color="white"/>
<stop offset="1" stop-color="white" stop-opacity="0"/>
</linearGradient>
</defs>
</svg>
