<svg width="125" height="122" viewBox="0 0 125 122" fill="none" xmlns="http://www.w3.org/2000/svg">
<path id="Union" fill-rule="evenodd" clip-rule="evenodd" d="M73.3077 0.00881125C69.7357 0.00853909 66.1638 0.00826693 62.5919 0.00826693C57.9798 0.00826693 53.3675 0.00804199 48.7553 0.00781704C37.2244 0.00725466 25.6933 0.00669227 14.1628 0.00964476C10.8464 0.0110226 8.84716 2.03091 8.85267 5.34457C8.85317 5.84561 8.85222 6.34664 8.85126 6.84768C8.84959 7.72446 8.84791 8.60125 8.85405 9.47804C8.8761 12.5754 10.9043 14.6435 13.9892 14.6476C21.9275 14.6565 29.8664 14.6548 37.8051 14.6531C40.9805 14.6524 44.1559 14.6518 47.3311 14.6518H94.2432C95.9881 14.6518 97.7332 14.6528 99.4783 14.6539C103.405 14.6562 107.332 14.6585 111.258 14.649C114.063 14.6421 116.141 12.5947 116.195 9.79632C116.223 8.31224 116.213 6.82816 116.202 5.34408C116.201 5.17477 116.2 5.00546 116.199 4.83616C116.191 3.51069 115.71 2.37123 114.773 1.43294C113.679 0.337566 112.327 0 110.814 0C98.3125 0.0107164 85.8099 0.00976382 73.3077 0.00881125ZM124.557 54.869V53.4912V53.4898C124.285 52.729 124.013 51.9685 123.741 51.2081C123.155 49.5737 122.57 47.9393 121.995 46.3004C120.135 40.9957 118.284 35.6884 116.446 30.3769C116.298 29.9525 116.224 29.4854 116.215 29.0362C116.198 28.1305 116.201 27.2243 116.203 26.3181C116.205 25.7549 116.206 25.1916 116.203 24.6286C116.186 21.5739 114.088 19.5058 111.025 19.5058C105.814 19.5072 100.602 19.5072 95.391 19.5072H56.8216H14.0513C10.9787 19.5072 8.73287 21.5602 8.89958 24.6217C9.09937 28.2895 8.28645 31.6734 7.0285 35.0697C5.51361 39.1589 4.09229 43.283 2.67091 47.4073C2.05875 49.1836 1.44658 50.9599 0.826921 52.7334C0.775501 52.88 0.708286 53.0214 0.641196 53.1625C0.61121 53.2256 0.581249 53.2886 0.552734 53.352V54.3165C0.566859 54.361 0.581254 54.4054 0.595643 54.4498C0.6374 54.5786 0.679099 54.7072 0.71394 54.8373C1.18102 56.5706 2.11656 57.8906 3.9532 58.3274C5.81464 58.771 7.52727 58.5919 8.85962 56.725C8.86994 56.8502 8.88008 56.9539 8.88886 57.0437C8.90471 57.2058 8.91612 57.3225 8.91612 57.4387C8.91887 69.4698 8.92163 81.5023 8.92163 93.5335C8.92163 96.6285 8.92074 99.7235 8.91986 102.819C8.91854 107.461 8.91722 112.104 8.91887 116.747C8.92025 119.975 10.9346 121.997 14.1656 121.997C25.9153 122.001 37.6649 122 49.4145 122C53.3239 121.999 57.2332 121.999 61.1425 121.999H76.3646H77.2382V73.2478H101.634V121.991H102.355C103.319 121.991 104.283 121.992 105.248 121.993C107.176 121.994 109.105 121.996 111.033 121.991C114.258 121.984 116.279 119.963 116.279 116.733C116.282 97.0566 116.282 77.3785 116.282 57.7005V57.0598C116.325 57.0712 116.364 57.078 116.397 57.0838C116.455 57.0941 116.496 57.1013 116.52 57.1259C118.064 58.6801 119.93 58.782 121.891 58.2488C123.138 57.9099 123.886 56.9964 124.277 55.7825C124.34 55.5889 124.398 55.3941 124.457 55.1993C124.49 55.0891 124.523 54.979 124.557 54.869ZM23.5362 73.2258H62.4982V107.316H23.5362V73.2258ZM56.4164 34.4025C56.4252 34.3413 56.4344 34.2779 56.4427 34.2113L56.4441 34.21H68.6392C68.648 34.2951 68.6582 34.379 68.6684 34.4619C68.6887 34.6271 68.7086 34.7889 68.715 34.9512C68.7757 36.5688 68.8373 38.1865 68.8989 39.8042C69.0775 44.4961 69.2561 49.1886 69.4149 53.8811C69.5265 57.2044 67.2448 60.0744 64.0194 60.7578C60.7705 61.4468 57.5023 59.7258 56.1933 56.6657C55.7083 55.5331 55.6339 54.3537 55.678 53.155C55.904 47.0292 56.1396 40.902 56.3752 34.7762C56.3799 34.655 56.3974 34.5338 56.4164 34.4025ZM26.938 34.1796H27.7578H27.7592C27.5116 35.3053 27.2697 36.4029 27.0305 37.4877C26.8264 38.4133 26.6244 39.3296 26.4227 40.2462C26.1796 41.3502 25.9355 42.4539 25.6914 43.5575C24.9892 46.7322 24.2871 49.9065 23.6092 53.0861C23.5302 53.4579 23.5248 53.8441 23.5194 54.2308C23.5145 54.5793 23.5096 54.9282 23.4508 55.2672C22.839 58.7696 19.6604 61.1698 16.0698 60.8805C12.628 60.6035 9.85303 57.6536 9.79792 54.176C9.78965 53.6621 9.86406 53.1261 10.0101 52.6314C10.7402 50.151 11.4758 47.6726 12.2114 45.1942C13.2251 41.779 14.2387 38.364 15.2376 34.9443C15.4112 34.3477 15.6509 34.1604 16.264 34.1659C18.9116 34.1874 21.56 34.1845 24.2079 34.1816C25.118 34.1806 26.0281 34.1796 26.938 34.1796ZM76.9089 34.3397C76.9126 34.3039 76.9167 34.2648 76.9199 34.221V34.2224H89.1481C89.2658 34.9244 89.3827 35.6241 89.4994 36.3226C89.6394 37.1609 89.7791 37.9974 89.9197 38.8339C90.164 40.286 90.41 41.738 90.6561 43.1901C91.2106 46.4624 91.7652 49.735 92.3005 53.0103C92.7277 55.6213 91.81 57.7817 89.7833 59.4021C87.722 61.0499 85.3742 61.3655 82.9121 60.3913C80.2846 59.3511 78.751 56.9041 78.6174 54.063C78.5261 52.1426 78.3382 50.2271 78.1504 48.3115C78.0717 47.5099 77.9931 46.7083 77.9216 45.9063C77.7521 44.0097 77.5816 42.1135 77.4111 40.2173C77.2406 38.321 77.0701 36.4248 76.9006 34.5282C76.8951 34.4711 76.9013 34.4121 76.9089 34.3397ZM48.2101 34.1741H46.955C46.0528 34.1745 45.1506 34.1759 44.2485 34.1773C41.7066 34.1812 39.1651 34.1852 36.6227 34.1659C36.0606 34.1617 35.8966 34.3436 35.8098 34.8796C35.4153 37.303 35.0083 39.7242 34.6013 42.1452C34.2322 44.3409 33.8631 46.5365 33.5034 48.7336C33.4349 49.1508 33.3604 49.5684 33.2858 49.9864C33.0375 51.3777 32.7886 52.7726 32.7621 54.1691C32.6973 57.6715 35.5618 60.6035 39.0698 60.886C42.5653 61.1671 45.7605 58.7669 46.3874 55.343C46.4593 54.95 46.4592 54.5452 46.459 54.1393C46.4589 53.8536 46.4588 53.5674 46.4838 53.2845C46.6655 51.2486 46.8545 49.2131 47.0434 47.1775C47.1853 45.648 47.3273 44.1184 47.4662 42.5885C47.635 40.7275 47.7981 38.8666 47.9645 36.969C48.0452 36.0474 48.1268 35.1172 48.2101 34.1741ZM97.4092 34.4608C97.396 34.3754 97.3814 34.2813 97.364 34.1741H99.9254C100.717 34.1745 101.508 34.1758 102.299 34.1771C104.514 34.1808 106.728 34.1845 108.943 34.1672C109.453 34.1631 109.649 34.3353 109.788 34.8093C111.524 40.705 113.275 46.5966 115.039 52.484C115.586 54.3055 115.192 55.9851 114.278 57.5558C112.842 60.0276 109.968 61.3035 107.156 60.8006C104.345 60.2976 101.958 58.1317 101.626 55.2865C101.125 50.9926 100.146 46.8011 99.1679 42.6102C98.5691 40.045 97.9703 37.48 97.4812 34.892C97.4557 34.76 97.435 34.6269 97.4092 34.4608Z" fill="#D2D8C5"/>
</svg>
