<svg width="127" height="126" viewBox="0 0 127 126" fill="none" xmlns="http://www.w3.org/2000/svg">
<g id="I1LFFN.tif">
<path id="Vector" d="M85.6988 64.2173C82.332 64.2429 81.0154 65.4858 81.1724 68.7789C81.4319 74.1895 81.1179 79.6257 81.3358 85.0363C81.387 86.324 82.2872 87.9418 83.3123 88.7586C85.9423 90.8505 88.8061 92.67 91.6828 94.4223C93.9989 95.835 95.0112 97.7474 94.8798 100.416C94.7901 102.219 94.6107 104.077 94.9343 105.823C95.2546 107.553 95.7864 109.482 96.8659 110.795C100.127 114.761 100.133 120.056 96.5232 123.516C93.0859 126.809 87.5344 126.828 84.0779 123.561C80.4484 120.13 80.2915 114.687 83.7095 110.894C87.134 107.095 86.5413 101.973 82.4698 99.1505C70.1366 90.6006 72.4655 95.2392 72.2124 80.0069C72.1548 76.5376 72.2028 73.0651 72.2028 69.4228C68.7367 69.3395 67.5066 70.5568 67.5611 73.8564C67.7437 84.575 67.5515 95.3032 67.7149 106.022C67.7373 107.592 68.5574 109.437 69.5953 110.651C72.914 114.543 73.0229 119.883 69.5344 123.378C66.0619 126.857 60.3406 126.876 56.8489 123.423C53.3379 119.95 53.402 114.562 56.6951 110.696C57.7362 109.475 58.6043 107.652 58.6268 106.089C58.7933 95.3673 58.6172 84.6423 58.7773 73.9236C58.8222 70.9156 57.8964 69.3908 54.142 69.3588C54.142 73.126 54.1868 76.8964 54.1356 80.6636C53.937 94.9957 55.9295 90.7928 44.5285 98.7213C39.7234 102.062 39.0219 106.691 42.8307 111.125C45.9508 114.761 45.8355 119.864 42.5552 123.266C39.2557 126.687 33.6978 126.924 30.1164 123.794C26.5766 120.706 25.6316 115.116 28.9311 111.839C31.4746 109.312 31.8078 106.679 31.4298 103.728C30.7635 98.5387 32.4517 94.7747 37.3241 92.6764C43.7597 89.9055 46.3769 85.2637 45.1884 78.2226C44.6727 75.1762 44.8905 71.9535 45.1596 68.843C45.4415 65.5723 44.1089 64.2077 40.646 64.2365C40.646 69.1762 40.5275 74.0998 40.6876 79.0107C40.7901 82.1596 39.5664 84.1746 36.8403 85.7218C31.292 88.8676 25.795 92.119 20.4645 95.614C19.2472 96.4116 18.4303 98.3016 18.0907 99.836C17.6871 101.675 17.7256 103.722 18.0715 105.583C18.4143 107.435 18.9973 109.475 20.1409 110.894C23.3508 114.886 23.2867 120.139 19.5996 123.586C16.1206 126.841 10.5659 126.783 7.1607 123.458C3.65296 120.03 3.70741 114.572 6.93325 110.708C8.01921 109.408 8.69513 107.476 8.86491 105.766C9.16924 102.661 9.12759 99.4965 8.90335 96.3796C8.65989 93.032 10.0726 91.0331 12.914 89.4346C18.3662 86.3689 23.6327 82.9669 29.056 79.8467C30.8179 78.8313 31.6156 77.694 31.5291 75.5926C31.3625 71.5018 31.3465 67.3951 31.5323 63.3075C31.638 61.0171 30.898 59.9247 28.7037 59.1367C22.0502 56.7469 21.9541 56.3977 23.3219 49.3534C24.3278 44.1831 25.3337 39.0128 26.3812 33.6183C19.1383 31.3919 12.1484 29.2264 5.14575 27.1025C2.50293 26.3081 -0.0598019 25.4175 0.00106301 22.0155C0.0587245 18.8313 2.45488 17.9824 4.99839 17.204C23.2899 11.6204 41.5462 5.92793 59.8665 0.453296C61.9039 -0.155353 64.4378 -0.148946 66.4751 0.459703C84.914 5.96317 103.279 11.7037 121.699 17.2776C124.931 18.2547 126.488 20.0134 126.462 23.4794C126.376 36.1297 126.453 48.78 126.414 61.4303C126.401 65.3032 124.877 67.1836 121.978 67.2253C119.046 67.2701 117.413 65.3289 117.403 61.5937C117.374 51.4741 117.397 41.3513 117.387 31.2317C117.387 30.3988 117.304 29.5691 117.24 28.3294C111.445 30.1009 105.855 31.8115 99.938 33.6183C101.056 39.3235 102.11 44.843 103.228 50.3465C104.33 55.7827 103.846 57.0801 98.7015 58.7234C95.6711 59.6909 94.5275 61.1196 94.7869 64.3422C95.1649 69.0032 93.5632 74.5291 95.5718 78.1553C97.497 81.6342 102.965 83.1302 106.848 85.5488C119.601 93.4965 117.14 89.3256 117.361 103.92C117.406 106.816 117.525 109.277 119.898 111.663C123.147 114.927 122.359 120.578 118.944 123.679C115.417 126.882 109.872 126.748 106.508 123.378C103.145 120.011 102.715 114.69 106.044 111.314C110.253 107.041 107.758 102.037 108.036 97.3566C108.071 96.7448 106.563 95.9343 105.663 95.3865C100.419 92.1959 95.229 88.8964 89.8473 85.9588C86.6502 84.213 85.4778 81.8969 85.6444 78.3507C85.8654 73.6834 85.6988 68.9968 85.6988 64.2141V64.2173ZM94.1238 50.8494C93.1115 45.8969 92.1665 41.2584 91.1639 36.354C85.3432 38.1223 79.7757 39.3331 74.6086 41.4987C66.8531 44.7533 59.4981 44.7629 51.733 41.5115C46.4954 39.3171 40.8478 38.103 35.1009 36.3636C34.0918 41.473 33.1756 46.1244 32.2402 50.8654C42.2605 54.6359 51.8996 58.2974 61.5803 61.8564C62.5093 62.1991 63.7779 62.2087 64.7068 61.8692C74.3876 58.3102 84.0299 54.6487 94.1238 50.8494ZM88.5755 17.6076C88.6171 17.3097 88.6588 17.0085 88.7036 16.7106C84.0843 15.2531 79.3304 14.1127 74.8713 12.2707C67.0614 9.04165 59.6423 9.11854 51.6433 12.1394C41.6326 15.9226 31.2151 18.6263 20.7368 21.8681C21.2109 22.2974 21.3614 22.5408 21.5665 22.6049C29.7031 25.1484 38.1025 27.0545 45.9188 30.3476C57.6593 35.2968 68.9482 35.5083 80.4997 30.2258C83.4084 28.8964 86.6086 28.2045 89.6743 27.2178C80.9834 26.6508 72.4463 26.654 63.906 26.6476C60.9941 26.6476 58.9855 25.472 58.7645 22.3326C58.5595 19.4656 60.4079 17.7646 63.8772 17.6396C66.6417 17.5403 69.4095 17.6108 72.1772 17.6076C77.6422 17.6076 83.1073 17.6076 88.5755 17.6076Z" fill="url(#paint0_linear_463_1168)"/>
</g>
<defs>
<linearGradient id="paint0_linear_463_1168" x1="63.2313" y1="33.1832" x2="63.2313" y2="126" gradientUnits="userSpaceOnUse">
<stop stop-color="white"/>
<stop offset="1" stop-color="white" stop-opacity="0"/>
</linearGradient>
</defs>
</svg>
