<svg width="127" height="126" viewBox="0 0 127 126" fill="none" xmlns="http://www.w3.org/2000/svg">
<g id="I1LFFN.tif">
<path id="Vector" d="M85.6971 64.2173C82.3303 64.2429 81.0137 65.4858 81.1707 68.7789C81.4302 74.1895 81.1162 79.6257 81.3341 85.0363C81.3853 86.324 82.2855 87.9418 83.3106 88.7586C85.9406 90.8505 88.8044 92.67 91.6811 94.4223C93.9972 95.835 95.0094 97.7474 94.8781 100.416C94.7884 102.219 94.609 104.077 94.9326 105.823C95.2529 107.553 95.7847 109.482 96.8642 110.795C100.125 114.761 100.132 120.056 96.5215 123.516C93.0842 126.809 87.5327 126.828 84.0762 123.561C80.4467 120.13 80.2898 114.687 83.7078 110.894C87.1322 107.095 86.5396 101.973 82.4681 99.1505C70.1349 90.6006 72.4638 95.2392 72.2107 80.0069C72.1531 76.5376 72.2011 73.0651 72.2011 69.4228C68.735 69.3395 67.5049 70.5568 67.5594 73.8564C67.742 84.575 67.5498 95.3032 67.7131 106.022C67.7356 107.592 68.5556 109.437 69.5936 110.651C72.9123 114.543 73.0212 119.883 69.5327 123.378C66.0602 126.857 60.3389 126.876 56.8472 123.423C53.3362 119.95 53.4003 114.562 56.6934 110.696C57.7345 109.475 58.6026 107.652 58.6251 106.089C58.7916 95.3673 58.6154 84.6423 58.7756 73.9236C58.8205 70.9156 57.8947 69.3908 54.1403 69.3588C54.1403 73.126 54.1851 76.8964 54.1339 80.6636C53.9353 94.9957 55.9278 90.7928 44.5268 98.7213C39.7217 102.062 39.0202 106.691 42.829 111.125C45.9491 114.761 45.8338 119.864 42.5535 123.266C39.254 126.687 33.6961 126.924 30.1147 123.794C26.5749 120.706 25.6299 115.116 28.9294 111.839C31.4729 109.312 31.8061 106.679 31.4281 103.728C30.7618 98.5387 32.45 94.7747 37.3223 92.6764C43.758 89.9055 46.3752 85.2637 45.1867 78.2226C44.671 75.1762 44.8888 71.9535 45.1579 68.843C45.4398 65.5723 44.1072 64.2077 40.6443 64.2365C40.6443 69.1762 40.5258 74.0998 40.6859 79.0107C40.7884 82.1596 39.5647 84.1746 36.8386 85.7218C31.2903 88.8676 25.7933 92.119 20.4628 95.614C19.2455 96.4116 18.4286 98.3016 18.089 99.836C17.6854 101.675 17.7239 103.722 18.0698 105.583C18.4126 107.435 18.9956 109.475 20.1392 110.894C23.349 114.886 23.285 120.139 19.5978 123.586C16.1189 126.841 10.5642 126.783 7.15899 123.458C3.65125 120.03 3.70571 114.572 6.93154 110.708C8.0175 109.408 8.69342 107.476 8.8632 105.766C9.16753 102.661 9.12589 99.4965 8.90165 96.3796C8.65819 93.032 10.0709 91.0331 12.9123 89.4346C18.3645 86.3689 23.6309 82.9669 29.0543 79.8467C30.8162 78.8313 31.6139 77.694 31.5274 75.5926C31.3608 71.5018 31.3448 67.3951 31.5306 63.3075C31.6363 61.0171 30.8963 59.9247 28.702 59.1367C22.0485 56.7469 21.9524 56.3977 23.3202 49.3534C24.3261 44.1831 25.332 39.0128 26.3795 33.6183C19.1366 31.3919 12.1467 29.2264 5.14404 27.1025C2.50122 26.3081 -0.0615109 25.4175 -0.000645976 22.0155C0.0570155 18.8313 2.45317 17.9824 4.99668 17.204C23.2882 11.6204 41.5444 5.92793 59.8648 0.453296C61.9021 -0.155353 64.4361 -0.148946 66.4734 0.459703C84.9123 5.96317 103.277 11.7037 121.697 17.2776C124.929 18.2547 126.486 20.0134 126.461 23.4794C126.374 36.1297 126.451 48.78 126.413 61.4303C126.4 65.3032 124.875 67.1836 121.976 67.2253C119.045 67.2701 117.411 65.3289 117.401 61.5937C117.372 51.4741 117.395 41.3513 117.385 31.2317C117.385 30.3988 117.302 29.5691 117.238 28.3294C111.443 30.1009 105.853 31.8115 99.9363 33.6183C101.054 39.3235 102.108 44.843 103.226 50.3465C104.328 55.7827 103.844 57.0801 98.6998 58.7234C95.6693 59.6909 94.5257 61.1196 94.7852 64.3422C95.1632 69.0032 93.5615 74.5291 95.57 78.1553C97.4953 81.6342 102.964 83.1302 106.846 85.5488C119.599 93.4965 117.139 89.3256 117.36 103.92C117.405 106.816 117.523 109.277 119.897 111.663C123.145 114.927 122.357 120.578 118.942 123.679C115.415 126.882 109.87 126.748 106.507 123.378C103.143 120.011 102.714 114.69 106.042 111.314C110.251 107.041 107.756 102.037 108.035 97.3566C108.07 96.7448 106.561 95.9343 105.661 95.3865C100.417 92.1959 95.2273 88.8964 89.8455 85.9588C86.6485 84.213 85.4761 81.8969 85.6427 78.3507C85.8637 73.6834 85.6971 68.9968 85.6971 64.2141V64.2173ZM94.1221 50.8494C93.1098 45.8969 92.1648 41.2584 91.1621 36.354C85.3415 38.1223 79.774 39.3331 74.6069 41.4987C66.8514 44.7533 59.4964 44.7629 51.7313 41.5115C46.4937 39.3171 40.8461 38.103 35.0992 36.3636C34.0901 41.473 33.1739 46.1244 32.2385 50.8654C42.2588 54.6359 51.8979 58.2974 61.5786 61.8564C62.5076 62.1991 63.7761 62.2087 64.7051 61.8692C74.3859 58.3102 84.0281 54.6487 94.1221 50.8494ZM88.5738 17.6076C88.6154 17.3097 88.6571 17.0085 88.7019 16.7106C84.0826 15.2531 79.3287 14.1127 74.8696 12.2707C67.0596 9.04165 59.6405 9.11854 51.6416 12.1394C41.6309 15.9226 31.2134 18.6263 20.7351 21.8681C21.2092 22.2974 21.3597 22.5408 21.5647 22.6049C29.7014 25.1484 38.1008 27.0545 45.9171 30.3476C57.6576 35.2968 68.9465 35.5083 80.498 30.2258C83.4067 28.8964 86.6069 28.2045 89.6726 27.2178C80.9817 26.6508 72.4446 26.654 63.9043 26.6476C60.9924 26.6476 58.9838 25.472 58.7628 22.3326C58.5578 19.4656 60.4062 17.7646 63.8755 17.6396C66.64 17.5403 69.4078 17.6108 72.1755 17.6076C77.6405 17.6076 83.1056 17.6076 88.5738 17.6076Z" fill="#D2D8C5"/>
</g>
</svg>
