<svg width="140" height="141" viewBox="0 0 140 141" fill="none" xmlns="http://www.w3.org/2000/svg">
<g id="emoji_language">
<mask id="mask0_506_4853" style="mask-type:alpha" maskUnits="userSpaceOnUse" x="0" y="0" width="140" height="141">
<rect id="Bounding box" y="0.639038" width="140" height="140" fill="#D9D9D9"/>
</mask>
<g mask="url(#mask0_506_4853)">
<path id="emoji_language_2" d="M89.4073 128.972C80.5086 128.972 72.6579 126.37 65.8553 121.164C59.0536 115.959 54.4632 109.288 52.0842 101.152C55.0388 101.196 57.8325 100.984 60.4653 100.513C63.0971 100.041 65.6846 99.2821 68.228 98.235H98.4257C98.5977 96.7543 98.7271 95.3072 98.8136 93.8936C98.8991 92.48 98.9419 91.0328 98.9419 89.5521C98.9419 88.3407 98.8991 87.0705 98.8136 85.7415C98.7271 84.4115 98.5977 83.1165 98.4257 81.8565H90.0461C90.7791 80.929 91.4655 79.9981 92.1052 79.0638C92.744 78.1285 93.374 77.115 93.9952 76.0232H119.27C117.325 71.9846 114.692 68.4602 111.371 65.4502C108.051 62.4402 104.241 60.2022 99.9409 58.7361C100.128 57.7639 100.275 56.7805 100.384 55.7859C100.492 54.7913 100.535 53.7705 100.513 52.7234C108.649 55.1024 115.32 59.6927 120.525 66.4944C125.731 73.2971 128.333 81.1477 128.333 90.0465C128.333 100.859 124.549 110.049 116.98 117.619C109.41 125.188 100.219 128.972 89.4073 128.972ZM82.2834 121.95C80.6306 119.034 79.2379 116.091 78.1053 113.122C76.9716 110.153 76.0903 107.135 75.4613 104.068H59.6573C61.7583 108.668 64.7814 112.557 68.7267 115.735C72.672 118.913 77.1909 120.985 82.2834 121.95ZM89.4073 122.757C91.4714 119.87 93.1407 116.86 94.4153 113.727C95.6908 110.593 96.6951 107.374 97.4282 104.068H81.3865C82.1196 107.374 83.1103 110.593 84.3586 113.727C85.6079 116.86 87.2908 119.87 89.4073 122.757ZM96.5298 121.95C101.623 120.985 106.161 118.913 110.143 115.735C114.126 112.557 117.168 108.668 119.27 104.068H103.329C102.618 107.135 101.721 110.153 100.637 113.122C99.5515 116.091 98.1826 119.034 96.5298 121.95ZM104.259 98.235H121.467C121.812 96.9634 122.07 95.6416 122.242 94.2698C122.414 92.8971 122.5 91.4893 122.5 90.0465C122.5 88.6027 122.414 87.195 122.242 85.8232C122.07 84.4504 121.812 83.1282 121.467 81.8565H104.259C104.431 83.1136 104.56 84.4057 104.647 85.7327C104.732 87.0598 104.775 88.3519 104.775 89.609C104.775 91.08 104.732 92.5174 104.647 93.9213C104.56 95.3261 104.431 96.7641 104.259 98.235ZM50.5996 90.1588C39.7885 90.1588 30.5966 86.3749 23.024 78.8071C15.4523 71.2393 11.6665 62.0499 11.6665 51.2388C11.6665 40.4277 15.4504 31.2358 23.0182 23.6632C30.5859 16.0915 39.7754 12.3057 50.5865 12.3057C61.3976 12.3057 70.589 16.0896 78.1607 23.6573C85.7333 31.2251 89.5196 40.4146 89.5196 51.2257C89.5196 62.0368 85.7357 71.2282 78.168 78.7998C70.6002 86.3725 61.4107 90.1588 50.5996 90.1588ZM50.6142 84.3255C59.7463 84.3255 67.5411 81.0889 73.9986 74.6159C80.4571 68.1438 83.6863 60.3417 83.6863 51.2096C83.6863 42.0785 80.4498 34.2837 73.9767 27.8252C67.5046 21.3677 59.7025 18.139 50.5705 18.139C41.4394 18.139 33.6446 21.375 27.1861 27.8471C20.7286 34.3202 17.4998 42.1223 17.4998 51.2534C17.4998 60.3855 20.7359 68.1802 27.208 74.6377C33.681 81.0962 41.4831 84.3255 50.6142 84.3255ZM36.795 47.1934C37.9238 47.1934 38.9164 46.785 39.773 45.9684C40.6295 45.1527 41.0578 44.1416 41.0578 42.935C41.0578 41.7285 40.6295 40.7155 39.773 39.8959C38.9164 39.0773 37.9048 38.668 36.7382 38.668C35.5715 38.668 34.5789 39.0763 33.7603 39.893C32.9416 40.7086 32.5323 41.7198 32.5323 42.9263C32.5323 44.1328 32.9407 45.1459 33.7573 45.9655C34.574 46.7841 35.5866 47.1934 36.795 47.1934ZM50.6492 71.0648C54.4555 71.0648 57.9384 70.1825 61.0982 68.418C64.2579 66.6534 66.8139 64.3273 68.7661 61.4398L32.42 61.3275C34.3713 64.2899 36.9457 66.6534 40.1434 68.418C43.34 70.1825 46.842 71.0648 50.6492 71.0648ZM64.5034 47.1934C65.6321 47.1934 66.6248 46.785 67.4813 45.9684C68.3378 45.1527 68.7661 44.1416 68.7661 42.935C68.7661 41.7285 68.3378 40.7155 67.4813 39.8959C66.6248 39.0773 65.6132 38.668 64.4465 38.668C63.2798 38.668 62.2872 39.0763 61.4686 39.893C60.65 40.7086 60.2407 41.7198 60.2407 42.9263C60.2407 44.1328 60.649 45.1459 61.4657 45.9655C62.2823 46.7841 63.2949 47.1934 64.5034 47.1934Z" fill="#E8ECDF"/>
</g>
</g>
</svg>
