<svg width="131" height="131" viewBox="0 0 131 131" fill="none" xmlns="http://www.w3.org/2000/svg">
<g id="play_circle">
<mask id="mask0_506_4241" style="mask-type:alpha" maskUnits="userSpaceOnUse" x="0" y="0" width="131" height="131">
<rect id="Bounding box" x="0.0736084" y="0.781006" width="130" height="130" fill="#D9D9D9"/>
</mask>
<g mask="url(#mask0_506_4241)">
<path id="play_circle_2" d="M54.2403 85.1564L84.449 65.781L54.2403 46.4056V85.1564ZM65.0912 114.531C58.3502 114.531 52.0122 113.252 46.0774 110.693C40.1434 108.135 34.9813 104.663 30.5911 100.277C26.2009 95.8913 22.7257 90.7338 20.1654 84.8043C17.6042 78.8758 16.3236 72.5406 16.3236 65.7986C16.3236 59.0576 17.6028 52.7196 20.1613 46.7848C22.7198 40.8508 26.1919 35.6887 30.5776 31.2985C34.9633 26.9083 40.1208 23.4331 46.0503 20.8728C51.9788 18.3116 58.3141 17.031 65.056 17.031C71.797 17.031 78.135 18.3102 84.0699 20.8687C90.0038 23.4272 95.1659 26.8993 99.5561 31.285C103.946 35.6707 107.422 40.8282 109.982 46.7577C112.543 52.6862 113.824 59.0215 113.824 65.7634C113.824 72.5044 112.544 78.8424 109.986 84.7773C107.427 90.7112 103.955 95.8733 99.5696 100.264C95.184 104.654 90.0264 108.129 84.0969 110.689C78.1684 113.25 71.8332 114.531 65.0912 114.531ZM65.0736 109.114C77.1708 109.114 87.4174 104.916 95.8132 96.5206C104.209 88.1248 108.407 77.8782 108.407 65.781C108.407 53.6838 104.209 43.4373 95.8132 35.0414C87.4174 26.6456 77.1708 22.4477 65.0736 22.4477C52.9764 22.4477 42.7299 26.6456 34.334 35.0414C25.9382 43.4373 21.7403 53.6838 21.7403 65.781C21.7403 77.8782 25.9382 88.1248 34.334 96.5206C42.7299 104.916 52.9764 109.114 65.0736 109.114Z" fill="#888F77"/>
</g>
</g>
</svg>
