<svg width="159" height="128" viewBox="0 0 159 128" fill="none" xmlns="http://www.w3.org/2000/svg">
<path id="Union" fill-rule="evenodd" clip-rule="evenodd" d="M138.645 42.8856C144.39 44.2117 149.501 47.5863 153.032 52.3841H153.044C156.56 57.1599 158.364 63.1461 158.13 69.2418C157.683 80.864 148.55 91.0193 136.89 92.8646C135.477 93.0898 133.928 93.2024 132.155 93.2149C128.408 93.2407 124.603 93.2375 120.903 93.2344C120.578 93.2342 120.255 93.2339 119.932 93.2336C119.269 93.2323 118.604 93.2327 117.94 93.2331C117.054 93.2336 116.168 93.2341 115.285 93.2305H115.088V93.4963H115.616C117.19 93.4901 118.813 93.4838 120.414 93.512C121.872 93.537 123.132 94.1625 123.879 95.2228C124.571 96.2048 124.73 97.459 124.324 98.6631C123.986 99.664 123.013 101.334 120.314 101.334H120.267C119.096 101.325 117.922 101.326 116.737 101.327C116.34 101.327 115.941 101.328 115.541 101.328H115L114.999 101.345C114.993 101.421 114.987 101.5 114.978 101.578C114.763 103.821 113.161 105.369 111.069 105.369H110.997C108.867 105.334 107.3 103.708 107.187 101.419C107.169 101.037 107.172 100.674 107.175 100.324V99.9329C107.175 97.1605 107.17 94.3881 107.164 91.6144C107.163 90.6895 107.161 89.7645 107.159 88.8393C107.141 79.6505 107.122 70.152 107.219 60.8067C107.241 58.7988 106.578 57.0192 105.352 55.7963C104.122 54.5671 102.39 53.9322 100.366 53.9573C90.2187 54.0835 79.9045 54.0612 69.9192 54.0396L69.453 54.0386L69.4479 54.0386C65.2336 54.0292 61.0193 54.0198 56.7987 54.0198C52.5452 54.0198 50.2933 56.2498 50.2871 60.4689C50.2683 76.1351 50.2683 90.5627 50.2871 104.581C50.2933 108.715 52.5734 110.998 56.7049 110.998H71.9113C81.3035 110.995 91.0178 110.992 100.573 111.017C102.956 111.033 104.629 110.307 105.983 108.703C107.531 106.867 109.902 106.576 111.622 108.008C113.377 109.472 113.483 111.852 111.882 113.801C109.355 116.875 106.024 118.558 101.983 118.799C101.37 118.836 100.763 118.833 100.135 118.827C100.138 118.93 100.138 119.033 100.138 119.136V119.136L100.138 119.176C100.157 120.769 100.175 122.277 100.072 123.828C100 124.944 99.4623 126.424 98.4208 127.212C97.445 127.95 95.4871 128.185 94.3237 127.393C93.2947 126.693 92.4721 125.248 92.3658 123.956C92.2344 122.373 92.2563 120.775 92.2813 119.23C92.2845 119.127 92.2845 119.027 92.2845 118.924H83.033V119.324L83.0331 119.361C83.0362 120.902 83.0391 122.36 83.0205 123.85C82.9893 126.133 81.7757 127.622 79.6834 127.934C78.5324 128.106 77.4471 127.828 76.634 127.146C75.7645 126.417 75.261 125.276 75.2234 123.934C75.18 122.441 75.1888 120.981 75.1981 119.44L75.1984 119.396V118.946H65.9376V119.221C65.9407 120.697 65.9407 122.164 65.9376 123.628C65.9313 126.683 64.0454 127.6 62.9226 127.875C62.5785 127.959 62.2376 128 61.9061 128C61.0836 128 60.3142 127.747 59.6699 127.253C58.7128 126.521 58.1655 125.357 58.1342 123.984C58.0998 122.458 58.1061 120.95 58.1155 119.352V118.864C51.0158 119.074 47.6505 116.272 45.7083 114.067C42.3555 110.26 42.3868 105.813 42.4212 101.516V101.331H42.1585C40.8449 101.334 39.5719 101.334 38.3021 101.328C34.9275 101.309 33.7108 99.3105 33.6983 97.4434C33.6921 96.38 34.0486 95.4542 34.7335 94.7599C35.2996 94.1875 36.3693 93.5057 38.274 93.4963C39.215 93.4917 40.1579 93.4922 41.1182 93.4928C41.4409 93.493 41.7655 93.4932 42.0928 93.4932H42.3023V84.1542H42.0615L42.0209 84.1543C40.6597 84.1574 39.368 84.1603 38.0488 84.148C34.9368 84.1167 33.764 82.187 33.7077 80.3886C33.6733 79.3096 34.0236 78.3525 34.7179 77.6207C35.5029 76.795 36.6508 76.3446 38.0363 76.3227C39.3663 76.298 40.6657 76.3038 42.0403 76.31L42.0865 76.3102H42.3399V67.0212C41.4297 67.0244 40.5196 67.0244 39.6063 67.0212H39.1341C38.5367 67.0244 37.9237 67.0275 37.2857 66.9681C35.1464 66.7742 33.7796 65.3355 33.7233 63.215C33.667 61.0507 35.0463 59.4618 37.1637 59.2679C38.2723 59.1644 39.3721 59.1676 40.4398 59.1707L40.5259 59.171C40.9543 59.1741 41.3828 59.1772 41.8113 59.171C42.0208 59.1678 42.2304 59.1678 42.4431 59.1678C42.7683 55.0206 44.426 51.7461 47.4879 49.1908C50.75 46.4667 54.4687 46.0695 58.1092 46.1539V43.0169C58.1113 42.8919 58.1106 42.7683 58.1099 42.6443C58.1096 42.5821 58.1092 42.5198 58.1092 42.4571C58.103 41.9535 58.0998 41.4344 58.128 40.9027C58.25 38.607 59.8263 36.9869 61.9593 36.9619H62.0062C64.1298 36.9619 65.8062 38.632 65.9094 40.8651C65.9657 42.0755 65.9564 43.2859 65.947 44.4588C65.9407 44.9529 65.9407 45.4471 65.9407 45.9412V46.057H75.1953C75.1953 45.6878 75.1949 45.3203 75.1946 44.9541C75.1939 44.225 75.1932 43.5006 75.1953 42.7761V42.2976L75.1949 42.2313C75.1917 41.7015 75.1885 41.1538 75.2516 40.5774C75.4955 38.3599 77.2376 36.8212 79.3018 36.9807C81.4505 37.1527 82.8579 38.5507 82.9736 40.6274C83.0429 41.8079 83.0396 42.9884 83.0365 44.1326L83.0362 44.2648C83.0362 44.4254 83.0358 44.5859 83.0355 44.7465C83.0348 45.0676 83.0341 45.3887 83.0362 45.7098V46.0851H92.2938V42.6885C92.2957 42.5949 92.2942 42.5001 92.2927 42.4049C92.2917 42.3411 92.2907 42.2771 92.2907 42.2131L92.29 42.1542C92.2838 41.6749 92.2774 41.1751 92.3345 40.6493C92.5628 38.5226 94.1923 36.9713 96.2127 36.9619H96.2284C98.3927 36.9619 100.016 38.6164 100.094 40.9027C100.135 42.063 100.128 43.2265 100.122 44.3555C100.119 44.8372 100.119 45.3188 100.119 45.8005V46.107C108.698 46.2415 113.805 50.7233 114.994 59.1678H115.266C116.698 59.1647 118.181 59.1616 119.645 59.1804C120.286 59.1866 121.158 59.1991 121.987 59.49C123.773 60.1186 124.727 61.7075 124.471 63.6372C124.214 65.5982 122.85 66.8711 120.918 66.9587C119.585 67.0181 118.25 67.0181 116.955 67.0181C116.436 67.0181 115.917 67.0181 115.397 67.0212H115.053V76.3102H115.113L115.122 76.3102C116.501 76.3071 117.871 76.304 119.238 76.3102H119.604C120.098 76.3008 120.658 76.2946 121.246 76.4103C123.307 76.8137 124.527 78.29 124.514 80.3511C124.499 82.4903 122.875 84.0792 120.658 84.1261C119.007 84.1605 117.393 84.1542 115.685 84.1448H115.094V85.3959L115.114 85.3959C116.59 85.399 118.069 85.4022 119.545 85.4084C123.879 85.424 128.364 85.4397 132.765 85.3802C141.585 85.2614 148.553 79.2908 150.107 70.5241C150.899 66.0486 149.77 61.2696 147.011 57.407C144.256 53.5476 140.105 50.936 135.627 50.2386C135.479 50.2167 135.334 50.1924 135.186 50.1678L135.123 50.1572L135.092 50.1521C134.76 50.0977 134.447 50.0466 134.141 50.0102C132.127 49.7725 130.845 48.5309 130.529 46.5073C130.479 46.2045 130.435 45.9016 130.391 45.5988C130.377 45.4982 130.362 45.3976 130.347 45.2969C130.175 44.1022 130.01 42.9763 129.734 41.8847C127.861 34.5067 122.738 28.5205 115.673 25.468C108.62 22.4186 100.767 22.7814 94.1297 26.4626C92.8787 27.1569 91.4244 27.8606 89.9951 27.4415C88.572 27.0224 87.7369 25.6619 87.0676 24.4202C80.5998 12.4134 67.689 6.12379 54.1747 8.39755C40.9981 10.615 30.5144 21.4678 28.6754 34.7851C28.2759 37.6724 28.5212 40.7871 28.7584 43.7996L28.7598 43.8176L28.8193 44.5557C28.9287 45.9444 28.9068 47.5113 27.9279 48.6278C26.9708 49.7194 25.5228 49.9289 24.3656 49.9915C15.9805 50.4418 8.46173 57.8417 7.94255 66.1549C7.66106 70.6524 8.9465 75.0592 11.5612 78.5589C14.179 82.0619 17.9039 84.3387 22.0574 84.9705C24.9178 85.4077 27.8219 85.3959 30.8973 85.3834L30.9116 85.3834L31.1431 85.3828C32.4935 85.3797 33.8801 85.3765 35.2527 85.4209H35.3997C36.0503 85.4365 36.7884 85.4584 37.5327 85.7024C38.568 86.0402 39.378 86.7095 39.8096 87.5789C40.1975 88.3577 40.2506 89.2584 39.9566 90.1092C39.6376 91.0443 38.3584 93.096 36.6601 93.096C36.585 93.0918 36.5084 93.0932 36.4323 93.0946C36.3944 93.0953 36.3567 93.096 36.3192 93.096C35.1151 93.096 33.886 93.1179 32.6944 93.1398L32.6843 93.14C28.5152 93.2119 24.2058 93.2862 20.0495 92.4893C7.94255 90.1655 -0.261142 79.5129 0.0985319 66.5865C0.254912 60.9287 2.48489 55.3709 6.37562 50.9423C10.0756 46.7294 15.0391 43.8051 20.4279 42.6541C20.3529 32.4363 22.5547 23.8479 26.9771 17.1048C31.8624 9.65798 39.4562 4.45678 49.5458 1.65133C66.8008 -3.14954 81.6725 2.56458 92.6191 18.1807C93.3432 17.9946 94.0673 17.7981 94.7771 17.6055L94.9742 17.552C97.4231 16.8859 99.9533 16.1978 102.527 15.86C110.446 14.8248 118.503 17.0047 125.221 21.9995C131.924 26.9817 136.377 34.0876 137.76 42.0036C137.875 42.6698 137.885 42.7104 138.645 42.8856ZM86.7015 78.9061C88.112 78.806 89.0034 77.7802 88.9846 75.8724V75.8755C88.6406 72.6603 86.7421 69.9643 83.0391 68.51C81.96 68.0878 81.5628 67.6311 81.5722 66.5709C81.5879 64.9133 80.5714 63.9781 79.0733 64.0063C77.6346 64.0313 76.6431 64.9383 76.6932 66.5115C76.7307 67.6687 76.2146 68.1065 75.1137 68.535C71.1511 70.0801 68.8836 73.6799 69.2682 77.5581C69.6342 81.2581 72.6742 84.4701 76.7651 85.374C77.348 85.502 77.952 85.5544 78.5569 85.6069C79.0457 85.6494 79.5352 85.6919 80.0147 85.7743C82.8639 86.2654 84.631 88.8018 83.8741 91.2476C83.2048 93.4182 81.1375 94.7412 78.6917 94.5691C76.2553 94.3971 74.482 92.7395 74.1817 90.35C73.9753 88.7049 73.0089 87.826 71.5139 87.923C70.0283 88.02 69.1119 89.0552 69.2589 90.6847C69.5935 94.3377 71.6671 96.9242 75.3577 98.366C76.2991 98.7351 76.6869 99.1292 76.6775 100.086C76.6619 101.831 77.6846 102.854 79.1702 102.823C80.6027 102.792 81.6035 101.797 81.5691 100.146C81.5472 99.1167 81.9632 98.7132 82.9765 98.3316C86.9705 96.8241 89.2786 93.2868 88.969 89.3867C88.6813 85.7399 85.7444 82.4872 81.7599 81.5145C81.0104 81.3333 80.2273 81.2609 79.4449 81.1886C79.1336 81.1598 78.8224 81.1311 78.5134 81.0955C76.1271 80.8171 74.2912 79.0312 74.1848 76.8763C74.066 74.4431 76.1677 72.3382 78.8762 72.1818C81.4909 72.0317 83.7052 73.8582 84.0462 76.4447C84.262 78.0773 85.2659 79.0093 86.7015 78.9061Z" fill="url(#paint0_linear_463_1174)"/>
<defs>
<linearGradient id="paint0_linear_463_1174" x1="79.1186" y1="0" x2="79.1186" y2="136.18" gradientUnits="userSpaceOnUse">
<stop offset="0.16" stop-color="white"/>
<stop offset="1" stop-color="white" stop-opacity="0"/>
</linearGradient>
</defs>
</svg>
