<svg width="159" height="128" viewBox="0 0 159 128" fill="none" xmlns="http://www.w3.org/2000/svg">
<path id="Union" fill-rule="evenodd" clip-rule="evenodd" d="M138.643 42.8856C144.389 44.2117 149.499 47.5863 153.03 52.3841H153.043C156.558 57.1599 158.363 63.1461 158.128 69.2418C157.681 80.864 148.548 91.0193 136.889 92.8646C135.475 93.0898 133.927 93.2024 132.153 93.2149C128.406 93.2407 124.601 93.2375 120.901 93.2344C120.577 93.2342 120.253 93.2339 119.931 93.2336C119.267 93.2323 118.603 93.2327 117.938 93.2331C117.052 93.2336 116.166 93.2341 115.283 93.2305H115.086V93.4963H115.615C117.188 93.4901 118.811 93.4838 120.412 93.512C121.87 93.537 123.13 94.1625 123.878 95.2228C124.569 96.2048 124.728 97.459 124.322 98.6631C123.984 99.664 123.011 101.334 120.312 101.334H120.265C119.094 101.325 117.921 101.326 116.735 101.327C116.338 101.327 115.94 101.328 115.54 101.328H114.998L114.997 101.345C114.991 101.421 114.985 101.5 114.977 101.578C114.761 103.821 113.159 105.369 111.067 105.369H110.995C108.865 105.334 107.298 103.708 107.186 101.419C107.167 101.037 107.17 100.674 107.173 100.324V99.9329C107.173 97.1605 107.168 94.3881 107.163 91.6144C107.161 90.6895 107.159 89.7645 107.158 88.8393C107.139 79.6505 107.12 70.152 107.217 60.8067C107.239 58.7988 106.576 57.0192 105.35 55.7963C104.121 54.5671 102.388 53.9322 100.364 53.9573C90.217 54.0835 79.9028 54.0612 69.9175 54.0396L69.4513 54.0386L69.4461 54.0386C65.2319 54.0292 61.0176 54.0198 56.797 54.0198C52.5435 54.0198 50.2916 56.2498 50.2854 60.4689C50.2666 76.1351 50.2666 90.5627 50.2854 104.581C50.2916 108.715 52.5717 110.998 56.7032 110.998H71.9096C81.3018 110.995 91.0161 110.992 100.571 111.017C102.954 111.033 104.627 110.307 105.982 108.703C107.53 106.867 109.901 106.576 111.621 108.008C113.375 109.472 113.482 111.852 111.88 113.801C109.353 116.875 106.022 118.558 101.981 118.799C101.368 118.836 100.762 118.833 100.133 118.827C100.136 118.93 100.136 119.033 100.136 119.136V119.136L100.137 119.176C100.155 120.769 100.173 122.277 100.07 123.828C99.9985 124.944 99.4606 126.424 98.4191 127.212C97.4433 127.95 95.4854 128.185 94.3219 127.393C93.293 126.693 92.4704 125.248 92.3641 123.956C92.2327 122.373 92.2546 120.775 92.2796 119.23C92.2828 119.127 92.2828 119.027 92.2828 118.924H83.0313V119.324L83.0314 119.361C83.0345 120.902 83.0374 122.36 83.0188 123.85C82.9875 126.133 81.774 127.622 79.6817 127.934C78.5307 128.106 77.4454 127.828 76.6323 127.146C75.7628 126.417 75.2592 125.276 75.2217 123.934C75.1783 122.441 75.1871 120.981 75.1964 119.44L75.1967 119.396V118.946H65.9359V119.221C65.939 120.697 65.939 122.164 65.9359 123.628C65.9296 126.683 64.0437 127.6 62.9209 127.875C62.5768 127.959 62.2359 128 61.9044 128C61.0818 128 60.3125 127.747 59.6682 127.253C58.7111 126.521 58.1638 125.357 58.1325 123.984C58.0981 122.458 58.1044 120.95 58.1138 119.352V118.864C51.0141 119.074 47.6488 116.272 45.7066 114.067C42.3538 110.26 42.3851 105.813 42.4195 101.516V101.331H42.1568C40.8432 101.334 39.5702 101.334 38.3004 101.328C34.9257 101.309 33.7091 99.3105 33.6966 97.4434C33.6903 96.38 34.0469 95.4542 34.7318 94.7599C35.2979 94.1875 36.3676 93.5057 38.2723 93.4963C39.2133 93.4917 40.1561 93.4922 41.1164 93.4928C41.4391 93.493 41.7638 93.4932 42.0911 93.4932H42.3006V84.1542H42.0598L42.0192 84.1543C40.658 84.1574 39.3663 84.1603 38.0471 84.148C34.9351 84.1167 33.7623 82.187 33.706 80.3886C33.6716 79.3096 34.0219 78.3525 34.7162 77.6207C35.5012 76.795 36.6491 76.3446 38.0346 76.3227C39.3646 76.298 40.6639 76.3038 42.0386 76.31L42.0848 76.3102H42.3382V67.0212C41.428 67.0244 40.5179 67.0244 39.6046 67.0212H39.1324C38.535 67.0244 37.922 67.0275 37.284 66.9681C35.1447 66.7742 33.7779 65.3355 33.7216 63.215C33.6653 61.0507 35.0446 59.4618 37.162 59.2679C38.2706 59.1644 39.3704 59.1676 40.4381 59.1707L40.5241 59.171C40.9526 59.1741 41.3811 59.1772 41.8096 59.171C42.0191 59.1678 42.2287 59.1678 42.4414 59.1678C42.7666 55.0206 44.4243 51.7461 47.4862 49.1908C50.7483 46.4667 54.467 46.0695 58.1075 46.1539V43.0169C58.1096 42.8919 58.1089 42.7683 58.1082 42.6443C58.1078 42.5821 58.1075 42.5198 58.1075 42.4571C58.1012 41.9535 58.0981 41.4344 58.1263 40.9027C58.2482 38.607 59.8246 36.9869 61.9576 36.9619H62.0045C64.1281 36.9619 65.8045 38.632 65.9077 40.8651C65.964 42.0755 65.9546 43.2859 65.9453 44.4588C65.939 44.9529 65.939 45.4471 65.939 45.9412V46.057H75.1936C75.1936 45.6878 75.1932 45.3203 75.1929 44.9541C75.1922 44.225 75.1915 43.5006 75.1936 42.7761V42.2976L75.1932 42.2313C75.19 41.7015 75.1868 41.1538 75.2499 40.5774C75.4938 38.3599 77.2359 36.8212 79.3001 36.9807C81.4488 37.1527 82.8562 38.5507 82.9719 40.6274C83.0412 41.8079 83.0379 42.9884 83.0348 44.1326L83.0344 44.2648C83.0344 44.4254 83.0341 44.5859 83.0338 44.7465C83.0331 45.0676 83.0324 45.3887 83.0344 45.7098V46.0851H92.2921V42.6885C92.294 42.5949 92.2925 42.5001 92.291 42.4049C92.29 42.3411 92.289 42.2771 92.289 42.2131L92.2883 42.1542C92.2821 41.6749 92.2757 41.1751 92.3328 40.6493C92.5611 38.5226 94.1906 36.9713 96.211 36.9619H96.2267C98.3909 36.9619 100.014 38.6164 100.092 40.9027C100.133 42.063 100.127 43.2265 100.121 44.3555C100.117 44.8372 100.117 45.3188 100.117 45.8005V46.107C108.696 46.2415 113.804 50.7233 114.992 59.1678H115.264C116.697 59.1647 118.179 59.1616 119.643 59.1804C120.284 59.1866 121.157 59.1991 121.986 59.49C123.771 60.1186 124.725 61.7075 124.469 63.6372C124.212 65.5982 122.849 66.8711 120.916 66.9587C119.584 67.0181 118.248 67.0181 116.953 67.0181C116.434 67.0181 115.915 67.0181 115.396 67.0212H115.052V76.3102H115.111L115.12 76.3102C116.5 76.3071 117.87 76.304 119.236 76.3102H119.602C120.096 76.3008 120.656 76.2946 121.244 76.4103C123.305 76.8137 124.525 78.29 124.513 80.3511C124.497 82.4903 122.874 84.0792 120.656 84.1261C119.005 84.1605 117.391 84.1542 115.683 84.1448H115.092V85.3959L115.112 85.3959C116.588 85.399 118.067 85.4022 119.543 85.4084C123.878 85.424 128.363 85.4397 132.763 85.3802C141.583 85.2614 148.551 79.2908 150.106 70.5241C150.897 66.0486 149.768 61.2696 147.009 57.407C144.254 53.5476 140.104 50.936 135.625 50.2386C135.477 50.2167 135.332 50.1924 135.185 50.1678L135.121 50.1572L135.09 50.1521C134.758 50.0977 134.446 50.0466 134.139 50.0102C132.125 49.7725 130.843 48.5309 130.527 46.5073C130.478 46.2045 130.434 45.9016 130.39 45.5988C130.375 45.4982 130.36 45.3976 130.346 45.2969C130.174 44.1022 130.008 42.9763 129.733 41.8847C127.859 34.5067 122.736 28.5205 115.671 25.468C108.618 22.4186 100.765 22.7814 94.128 26.4626C92.877 27.1569 91.4227 27.8606 89.9934 27.4415C88.5703 27.0224 87.7352 25.6619 87.0659 24.4202C80.598 12.4134 67.6873 6.12379 54.173 8.39755C40.9964 10.615 30.5127 21.4678 28.6737 34.7851C28.2741 37.6724 28.5194 40.7871 28.7567 43.7996L28.7581 43.8176L28.8176 44.5557C28.927 45.9444 28.9051 47.5113 27.9262 48.6278C26.9691 49.7194 25.5211 49.9289 24.3638 49.9915C15.9788 50.4418 8.46002 57.8417 7.94084 66.1549C7.65935 70.6524 8.94479 75.0592 11.5595 78.5589C14.1773 82.0619 17.9022 84.3387 22.0557 84.9705C24.9161 85.4077 27.8202 85.3959 30.8956 85.3834L30.9099 85.3834L31.1414 85.3828C32.4918 85.3797 33.8784 85.3765 35.251 85.4209H35.398C36.0486 85.4365 36.7867 85.4584 37.531 85.7024C38.5663 86.0402 39.3763 86.7095 39.8079 87.5789C40.1957 88.3577 40.2489 89.2584 39.9549 90.1092C39.6359 91.0443 38.3567 93.096 36.6584 93.096C36.5833 93.0918 36.5067 93.0932 36.4306 93.0946C36.3927 93.0953 36.3549 93.096 36.3175 93.096C35.1134 93.096 33.8843 93.1179 32.6926 93.1398L32.6826 93.14C28.5135 93.2119 24.2041 93.2862 20.0478 92.4893C7.94084 90.1655 -0.262851 79.5129 0.0968229 66.5865C0.253203 60.9287 2.48318 55.3709 6.37391 50.9423C10.0739 46.7294 15.0374 43.8051 20.4262 42.6541C20.3511 32.4363 22.553 23.8479 26.9754 17.1048C31.8607 9.65798 39.4545 4.45678 49.5441 1.65133C66.7991 -3.14954 81.6708 2.56458 92.6174 18.1807C93.3415 17.9946 94.0656 17.7981 94.7753 17.6055L94.9725 17.552C97.4214 16.8859 99.9516 16.1978 102.526 15.86C110.445 14.8248 118.501 17.0047 125.219 21.9995C131.922 26.9817 136.376 34.0876 137.758 42.0036C137.874 42.6698 137.883 42.7104 138.643 42.8856ZM86.6998 78.9061C88.1103 78.806 89.0017 77.7802 88.9829 75.8724V75.8755C88.6389 72.6603 86.7404 69.9643 83.0374 68.51C81.9583 68.0878 81.5611 67.6311 81.5705 66.5709C81.5862 64.9133 80.5697 63.9781 79.0716 64.0063C77.6329 64.0313 76.6414 64.9383 76.6915 66.5115C76.729 67.6687 76.2129 68.1065 75.112 68.535C71.1494 70.0801 68.8818 73.6799 69.2665 77.5581C69.6325 81.2581 72.6725 84.4701 76.7634 85.374C77.3463 85.502 77.9502 85.5544 78.5551 85.6069C79.044 85.6494 79.5335 85.6919 80.013 85.7743C82.8622 86.2654 84.6293 88.8018 83.8724 91.2476C83.2031 93.4182 81.1358 94.7412 78.69 94.5691C76.2536 94.3971 74.4802 92.7395 74.18 90.35C73.9736 88.7049 73.0071 87.826 71.5122 87.923C70.0266 88.02 69.1102 89.0552 69.2572 90.6847C69.5918 94.3377 71.6654 96.9242 75.356 98.366C76.2974 98.7351 76.6852 99.1292 76.6758 100.086C76.6602 101.831 77.6829 102.854 79.1685 102.823C80.601 102.792 81.6018 101.797 81.5674 100.146C81.5455 99.1167 81.9615 98.7132 82.9748 98.3316C86.9687 96.8241 89.2769 93.2868 88.9673 89.3867C88.6795 85.7399 85.7427 82.4872 81.7582 81.5145C81.0087 81.3333 80.2256 81.2609 79.4432 81.1886C79.1319 81.1598 78.8207 81.1311 78.5117 81.0955C76.1254 80.8171 74.2895 79.0312 74.1831 76.8763C74.0643 74.4431 76.166 72.3382 78.8745 72.1818C81.4892 72.0317 83.7035 73.8582 84.0444 76.4447C84.2602 78.0773 85.2642 79.0093 86.6998 78.9061Z" fill="#D2D8C5"/>
</svg>
