<svg width="134" height="129" viewBox="0 0 134 129" fill="none" xmlns="http://www.w3.org/2000/svg">
<path id="Union" fill-rule="evenodd" clip-rule="evenodd" d="M42.4685 25.1808C43.5202 26.1637 44.2134 27.3506 44.4817 28.765C44.8723 30.8125 44.5589 32.744 43.2433 34.7336C43.5028 34.8035 43.7463 34.8833 43.9794 34.9596L43.9796 34.9597L43.9796 34.9597C44.4616 35.1175 44.8989 35.2607 45.3401 35.2723C47.052 35.3159 48.7649 35.3086 50.4774 35.3014H50.4779H50.4781C51.125 35.2986 51.7718 35.2959 52.4184 35.2959H55.715C53.9636 28.4065 55.3136 23.7063 59.9022 20.4655C64.0444 17.5402 69.4164 17.448 73.5973 20.2337C78.3919 23.4273 79.759 27.9151 78.1322 35.2959H79.1839C79.9999 35.2959 80.8159 35.2979 81.6318 35.2998C83.8912 35.3053 86.1503 35.3107 88.4083 35.2744C88.8501 35.2673 89.29 35.1393 89.7773 34.9975C90.0191 34.9272 90.2726 34.8535 90.5438 34.7894C90.459 34.6207 90.3985 34.4988 90.3521 34.4054C90.2823 34.2648 90.2447 34.189 90.2047 34.1155C88.4169 30.9026 88.9427 27.4944 91.619 24.949C91.9737 24.6115 92.3296 24.2754 92.6855 23.9394L92.6861 23.9388C93.3958 23.2687 94.1051 22.5988 94.804 21.9185C95.8385 20.9141 95.978 19.9955 95.2633 18.74C93.8833 16.319 92.4904 13.9046 91.0782 11.5029C90.4172 10.3783 89.5329 10.0392 88.2559 10.3955C87.4094 10.6321 86.5673 10.8828 85.7251 11.1336L85.725 11.1336L85.7248 11.1337C84.9933 11.3514 84.262 11.5692 83.5278 11.7776C79.641 12.883 75.6211 10.5414 74.6618 6.62029C74.4734 5.85061 74.2922 5.07929 74.1108 4.30771C73.9327 3.54957 73.7544 2.79117 73.5694 2.03382C73.226 0.625904 72.4984 0.0206707 71.0819 0.0120859C68.2939 -0.00293766 65.5039 -0.00508388 62.7159 0.0120859C61.3531 0.0206707 60.5998 0.630196 60.2714 1.95656C60.0894 2.69575 59.9165 3.43735 59.7437 4.17884C59.5517 5.00252 59.3598 5.82606 59.1553 6.64604C58.181 10.5693 54.1675 12.8808 50.27 11.7669C49.5519 11.5615 48.8365 11.3476 48.1214 11.1339L48.1211 11.1338C47.2975 10.8876 46.4741 10.6415 45.6471 10.4084C44.2971 10.0285 43.4214 10.3547 42.7346 11.5244C41.3224 13.9282 39.9274 16.3405 38.5495 18.7614C37.8413 20.0062 37.9936 20.9227 39.041 21.9357C40.1721 23.0281 41.3181 24.1077 42.4664 25.1808H42.4685ZM0.743832 60.1899C1.00996 46.7288 12.1918 35.3195 26.4147 35.4998C40.0325 35.6715 51.122 47.0143 51.0683 60.9733C51.0168 74.7198 39.6719 85.9145 25.8481 85.8608C11.4406 85.8136 0.475555 73.8527 0.743832 60.1899ZM37.8627 66.0362C39.6311 66.0276 41.0541 65.2743 42.0778 63.8599L42.0757 63.8535C43.3076 62.1515 43.5265 60.2715 42.5779 58.3871C41.5542 56.3568 39.7835 55.3738 37.5364 55.3158C36.1365 55.2804 34.7356 55.2887 33.2845 55.2973H33.2842H33.284H33.2838H33.2836H33.2834C32.6281 55.3012 31.9626 55.3051 31.2824 55.3051C31.2824 54.6008 31.284 53.9113 31.2857 53.2321V53.232V53.232V53.2319V53.2319C31.2893 51.7358 31.2928 50.2893 31.2781 48.8428C31.2502 46.1172 29.2928 43.8851 26.6315 43.5074C24.041 43.1403 21.487 44.8487 20.7938 47.4929C20.5985 48.2398 20.5749 49.0446 20.562 49.8258C20.5391 51.1149 20.5434 52.4028 20.5477 53.7115V53.7117V53.7119V53.7121V53.7123C20.5495 54.2401 20.5513 54.7713 20.5513 55.3073C19.8365 55.3073 19.1381 55.3045 18.4508 55.3018C16.9528 55.2959 15.508 55.2902 14.0633 55.3137C11.0693 55.3631 8.74708 57.6938 8.71918 60.632C8.69128 63.5187 11.0392 65.9289 14.001 66.0298C14.6541 66.0524 15.3083 66.0474 15.9621 66.0425H15.9623H15.9626H15.9628H15.963C16.2392 66.0404 16.5152 66.0383 16.7911 66.0383H20.5556C20.5556 66.7521 20.5539 67.4489 20.5522 68.1339C20.5486 69.6385 20.5451 71.0867 20.5599 72.5349C20.5878 75.1512 22.4163 77.3553 24.8952 77.8039C27.5329 78.2825 30.0161 76.8639 30.9089 74.282C31.16 73.5565 31.2502 72.7474 31.2695 71.9748C31.3048 70.5807 31.2984 69.1866 31.2919 67.762V67.7616V67.7612V67.7608V67.7604C31.2893 67.1919 31.2867 66.6185 31.2867 66.0383C31.9968 66.0383 32.692 66.0392 33.3768 66.04H33.3835H33.3901H33.3967C34.9193 66.0418 36.391 66.0436 37.8627 66.0362ZM107.576 35.5277C121.728 35.5148 133.039 46.5829 133.054 60.4603L133.056 60.4582C133.071 74.6039 121.962 85.8329 107.928 85.8586C94.0615 85.8865 82.781 74.6575 82.7595 60.8101C82.7381 46.9069 93.8941 35.5406 107.576 35.5277ZM125.143 60.7114C125.143 57.7475 122.709 55.3223 119.745 55.3394V55.3373C116.848 55.3544 114.433 57.7561 114.386 60.6685C114.341 63.6024 116.79 66.0619 119.758 66.0662C122.767 66.0705 125.143 63.7097 125.143 60.7114ZM90.7027 60.6814C90.6919 63.7097 93.0227 66.0662 96.0339 66.0726H96.036C99.0085 66.0791 101.447 63.6539 101.434 60.705C101.421 57.7625 98.9592 55.3308 96.006 55.3437C93.085 55.3566 90.7134 57.7453 90.7027 60.6814ZM113.283 48.9029C113.309 45.9433 110.886 43.4816 107.935 43.4708L107.937 43.4687C105.018 43.4601 102.586 45.8381 102.543 48.7462C102.5 51.7338 104.872 54.1869 107.834 54.2191C110.817 54.2534 113.255 51.8733 113.283 48.9029ZM107.9 67.2338C104.956 67.238 102.567 69.5946 102.541 72.5199V72.522C102.515 75.4924 104.906 77.9455 107.866 77.9842C110.796 78.0206 113.277 75.5589 113.281 72.61C113.285 69.6289 110.884 67.2273 107.9 67.2338ZM129.536 89.7605C129.417 88.496 129.291 87.2314 129.163 85.9516L129.163 85.9487C129.104 85.3636 129.045 84.7754 128.987 84.1825C116.783 93.7353 104.106 94.6839 90.737 87.17C90.739 87.209 90.7387 87.2499 90.7384 87.2918C90.7377 87.3835 90.737 87.48 90.7606 87.5714C91.5243 90.5017 92.2756 93.4355 93.027 96.3692C94.8813 103.609 96.7355 110.849 98.7745 118.037C100.376 123.686 104.492 127.081 110.293 127.97C121.66 129.712 132.292 119.441 131.227 107.913C130.669 101.863 130.103 95.8107 129.536 89.7605ZM4.79675 84.6391C4.81558 84.4943 4.83493 84.3456 4.85382 84.191L4.85596 84.1889C17.0357 93.7267 29.7156 94.6968 43.1702 87.1206C43.0293 87.6705 42.8893 88.2174 42.7499 88.7622L42.7477 88.7709L42.7452 88.7807C42.3514 90.3198 41.9621 91.8414 41.567 93.3618C41.1253 95.0593 40.6839 96.757 40.2425 98.4547L40.2419 98.4569C38.6073 104.744 36.9724 111.031 35.3215 117.314C33.2633 125.147 25.7387 129.534 17.4779 127.74C8.02163 125.686 1.69244 116.889 2.66682 107.286C3.16658 102.362 3.61194 97.431 4.05729 92.5004L4.0573 92.5003L4.05731 92.5002L4.05732 92.5001C4.26796 90.168 4.4786 87.8359 4.695 85.5045C4.72104 85.221 4.7578 84.9384 4.79675 84.6391ZM51.0684 41.6123H82.7573C74.2776 54.4338 74.3141 67.1565 82.8882 79.9308C72.2537 85.4123 61.5934 85.4123 50.9375 79.9308C59.5116 67.1759 59.5545 54.4531 51.0684 41.6123Z" fill="#D2D8C5"/>
</svg>
