<svg width="134" height="129" viewBox="0 0 134 129" fill="none" xmlns="http://www.w3.org/2000/svg">
<path id="Union" fill-rule="evenodd" clip-rule="evenodd" d="M42.4702 25.1808C43.5219 26.1637 44.2151 27.3506 44.4834 28.765C44.874 30.8125 44.5606 32.744 43.245 34.7336C43.5045 34.8035 43.7481 34.8833 43.9811 34.9596L43.9813 34.9597L43.9813 34.9597C44.4633 35.1175 44.9007 35.2607 45.3419 35.2723C47.0537 35.3159 48.7666 35.3086 50.4791 35.3014H50.4796H50.4798C51.1267 35.2986 51.7735 35.2959 52.4201 35.2959H55.7167C53.9654 28.4065 55.3153 23.7063 59.9039 20.4655C64.0461 17.5402 69.4181 17.448 73.599 20.2337C78.3936 23.4273 79.7607 27.9151 78.1339 35.2959H79.1856C80.0016 35.2959 80.8176 35.2979 81.6335 35.2998C83.8929 35.3053 86.1521 35.3107 88.41 35.2744C88.8518 35.2673 89.2917 35.1393 89.779 34.9975C90.0208 34.9272 90.2743 34.8535 90.5455 34.7894C90.4607 34.6207 90.4002 34.4988 90.3538 34.4054C90.284 34.2648 90.2464 34.189 90.2064 34.1155C88.4186 30.9026 88.9444 27.4944 91.6208 24.949C91.9755 24.6115 92.3314 24.2754 92.6872 23.9394L92.6878 23.9388C93.3975 23.2687 94.1069 22.5988 94.8057 21.9185C95.8402 20.9141 95.9797 19.9955 95.265 18.74C93.885 16.319 92.4921 13.9046 91.0799 11.5029C90.4189 10.3783 89.5346 10.0392 88.2576 10.3955C87.4111 10.6321 86.569 10.8828 85.7268 11.1336L85.7267 11.1336L85.7265 11.1337C84.9951 11.3514 84.2637 11.5692 83.5295 11.7776C79.6427 12.883 75.6228 10.5414 74.6635 6.62029C74.4751 5.85061 74.2939 5.07929 74.1125 4.30771C73.9344 3.54957 73.7561 2.79117 73.5711 2.03382C73.2277 0.625904 72.5001 0.0206707 71.0836 0.0120859C68.2957 -0.00293766 65.5056 -0.00508388 62.7176 0.0120859C61.3548 0.0206707 60.6015 0.630196 60.2731 1.95656C60.0911 2.69575 59.9182 3.43735 59.7454 4.17884C59.5534 5.00252 59.3615 5.82606 59.1571 6.64604C58.1827 10.5693 54.1693 12.8808 50.2717 11.7669C49.5536 11.5615 48.8382 11.3476 48.1231 11.1339L48.1228 11.1338C47.2992 10.8876 46.4758 10.6415 45.6488 10.4084C44.2988 10.0285 43.4231 10.3547 42.7364 11.5244C41.3241 13.9282 39.9291 16.3405 38.5512 18.7614C37.843 20.0062 37.9954 20.9227 39.0427 21.9357C40.1738 23.0281 41.3198 24.1077 42.4681 25.1808H42.4702ZM0.745541 60.1899C1.01167 46.7288 12.1935 35.3195 26.4164 35.4998C40.0342 35.6715 51.1237 47.0143 51.07 60.9733C51.0185 74.7198 39.6736 85.9145 25.8498 85.8608C11.4423 85.8136 0.477264 73.8527 0.745541 60.1899ZM37.8644 66.0362C39.6329 66.0276 41.0558 65.2743 42.0795 63.8599L42.0774 63.8535C43.3093 62.1515 43.5282 60.2715 42.5796 58.3871C41.5559 56.3568 39.7852 55.3738 37.5381 55.3158C36.1382 55.2804 34.7373 55.2887 33.2863 55.2973H33.2859H33.2857H33.2855H33.2853H33.2851C32.6298 55.3012 31.9643 55.3051 31.2841 55.3051C31.2841 54.6008 31.2857 53.9113 31.2874 53.2321V53.232V53.232V53.2319V53.2319C31.291 51.7358 31.2945 50.2893 31.2798 48.8428C31.2519 46.1172 29.2945 43.8851 26.6332 43.5074C24.0427 43.1403 21.4887 44.8487 20.7955 47.4929C20.6002 48.2398 20.5766 49.0446 20.5637 49.8258C20.5408 51.1149 20.5451 52.4028 20.5494 53.7115V53.7117V53.7119V53.7121V53.7123C20.5512 54.2401 20.553 54.7713 20.553 55.3073C19.8382 55.3073 19.1398 55.3045 18.4525 55.3018C16.9545 55.2959 15.5097 55.2902 14.065 55.3137C11.071 55.3631 8.74879 57.6938 8.72089 60.632C8.69299 63.5187 11.0409 65.9289 14.0027 66.0298C14.6559 66.0524 15.31 66.0474 15.9638 66.0425H15.964H15.9643H15.9645H15.9647C16.2409 66.0404 16.5169 66.0383 16.7928 66.0383H20.5573C20.5573 66.7521 20.5556 67.4489 20.5539 68.1339C20.5503 69.6385 20.5468 71.0867 20.5616 72.5349C20.5895 75.1512 22.418 77.3553 24.8969 77.8039C27.5346 78.2825 30.0178 76.8639 30.9106 74.282C31.1617 73.5565 31.2519 72.7474 31.2712 71.9748C31.3065 70.5807 31.3001 69.1866 31.2936 67.762V67.7616V67.7612V67.7608V67.7604C31.291 67.1919 31.2884 66.6185 31.2884 66.0383C31.9985 66.0383 32.6937 66.0392 33.3785 66.04H33.3852H33.3918H33.3984C34.921 66.0418 36.3927 66.0436 37.8644 66.0362ZM107.578 35.5277C121.73 35.5148 133.041 46.5829 133.056 60.4603L133.058 60.4582C133.073 74.6039 121.964 85.8329 107.93 85.8586C94.0632 85.8865 82.7827 74.6575 82.7612 60.8101C82.7398 46.9069 93.8958 35.5406 107.578 35.5277ZM125.145 60.7114C125.145 57.7475 122.711 55.3223 119.747 55.3394V55.3373C116.85 55.3544 114.435 57.7561 114.388 60.6685C114.343 63.6024 116.792 66.0619 119.76 66.0662C122.769 66.0705 125.145 63.7097 125.145 60.7114ZM90.7044 60.6814C90.6936 63.7097 93.0244 66.0662 96.0356 66.0726H96.0377C99.0102 66.0791 101.448 63.6539 101.435 60.705C101.423 57.7625 98.9609 55.3308 96.0077 55.3437C93.0867 55.3566 90.7151 57.7453 90.7044 60.6814ZM113.285 48.9029C113.31 45.9433 110.887 43.4816 107.936 43.4708L107.938 43.4687C105.02 43.4601 102.588 45.8381 102.545 48.7462C102.502 51.7338 104.874 54.1869 107.835 54.2191C110.819 54.2534 113.257 51.8733 113.285 48.9029ZM107.902 67.2338C104.957 67.238 102.569 69.5946 102.543 72.5199V72.522C102.517 75.4924 104.908 77.9455 107.868 77.9842C110.797 78.0206 113.278 75.5589 113.283 72.61C113.287 69.6289 110.885 67.2273 107.902 67.2338ZM129.538 89.7605C129.419 88.496 129.292 87.2314 129.165 85.9516L129.164 85.9487C129.106 85.3636 129.047 84.7754 128.989 84.1825C116.785 93.7353 104.107 94.6839 90.7387 87.17C90.7407 87.209 90.7404 87.2499 90.7401 87.2918C90.7394 87.3835 90.7387 87.48 90.7623 87.5714C91.526 90.5017 92.2773 93.4355 93.0287 96.3692C94.883 103.609 96.7373 110.849 98.7763 118.037C100.377 123.686 104.494 127.081 110.295 127.97C121.661 129.712 132.294 119.441 131.229 107.913C130.671 101.863 130.105 95.8107 129.538 89.7605ZM4.79846 84.6391C4.81729 84.4943 4.83664 84.3456 4.85553 84.191L4.85767 84.1889C17.0375 93.7267 29.7173 94.6968 43.1719 87.1206C43.031 87.6705 42.891 88.2174 42.7517 88.7622L42.7494 88.7709L42.7469 88.7807C42.3532 90.3198 41.9638 91.8414 41.5687 93.3618C41.127 95.0593 40.6856 96.757 40.2442 98.4547L40.2436 98.4569C38.609 104.744 36.9741 111.031 35.3232 117.314C33.265 125.147 25.7404 129.534 17.4796 127.74C8.02334 125.686 1.69415 116.889 2.66853 107.286C3.16829 102.362 3.61365 97.431 4.059 92.5004L4.05901 92.5003L4.05902 92.5002L4.05903 92.5001C4.26967 90.168 4.48031 87.8359 4.69671 85.5045C4.72274 85.221 4.75951 84.9384 4.79846 84.6391ZM51.0701 41.6123H82.759C74.2793 54.4338 74.3158 67.1565 82.8899 79.9308C72.2554 85.4123 61.5951 85.4123 50.9392 79.9308C59.5133 67.1759 59.5562 54.4531 51.0701 41.6123Z" fill="url(#paint0_linear_463_1202)"/>
<defs>
<linearGradient id="paint0_linear_463_1202" x1="66.8993" y1="14.6876" x2="66.8993" y2="128.164" gradientUnits="userSpaceOnUse">
<stop stop-color="white"/>
<stop offset="1" stop-color="white" stop-opacity="0"/>
</linearGradient>
</defs>
</svg>
