<svg width="141" height="141" viewBox="0 0 141 141" fill="none" xmlns="http://www.w3.org/2000/svg">
<g id="draw">
<mask id="mask0_506_4229" style="mask-type:alpha" maskUnits="userSpaceOnUse" x="0" y="0" width="141" height="141">
<rect id="Bounding box" x="0.738281" y="0.670044" width="140" height="140" fill="#D9D9D9"/>
</mask>
<g mask="url(#mask0_506_4229)">
<path id="draw_2" d="M29.9049 117.337V102.753L106.984 25.7082C107.626 25.0656 108.303 24.6208 109.014 24.3738C109.724 24.1269 110.435 24.0034 111.146 24.0034C111.879 24.0034 112.613 24.1269 113.349 24.3738C114.086 24.6208 114.727 25.0656 115.273 25.7082L121.533 31.9688C122.176 32.5143 122.621 33.1554 122.868 33.8924C123.115 34.6283 123.238 35.3629 123.238 36.0959C123.238 36.8066 123.115 37.5173 122.868 38.228C122.621 38.9387 122.176 39.6154 121.533 40.258L44.4882 117.337H29.9049ZM35.7382 111.503H41.9974L103.573 49.9618L100.5 46.7417L97.2799 43.669L35.7382 105.244V111.503ZM100.5 46.7417L97.2799 43.669L103.573 49.9618L100.5 46.7417ZM83.9755 117.337C90.4223 117.337 96.4088 115.8 101.935 112.726C107.462 109.652 110.225 105.356 110.225 99.8368C110.225 96.4865 109.096 93.51 106.838 90.9074C104.579 88.3047 101.296 86.1547 96.9882 84.4572L92.5344 88.9109C96.2668 90.1816 99.1762 91.7556 101.263 93.633C103.349 95.5104 104.392 97.5783 104.392 99.8368C104.392 103.12 102.375 105.885 98.3401 108.132C94.3054 110.38 89.5172 111.503 83.9755 111.503C83.1452 111.503 82.4515 111.782 81.8944 112.339C81.3374 112.896 81.0588 113.59 81.0588 114.42C81.0588 115.25 81.3374 115.944 81.8944 116.501C82.4515 117.058 83.1452 117.337 83.9755 117.337ZM33.4836 79.5543L37.7463 75.1793C35.1291 74.0281 33.1676 72.8338 31.8619 71.5961C30.5572 70.3585 29.9049 69.0776 29.9049 67.7534C29.9049 65.9888 30.9855 64.2612 33.1467 62.5705C35.308 60.8808 39.3952 58.7458 45.4084 56.1655C53.0666 52.9193 58.2306 49.9948 60.9003 47.3922C63.57 44.7905 64.9049 41.8554 64.9049 38.5868C64.9049 34.3615 63.009 30.8746 59.2174 28.1261C55.4257 25.3777 50.516 24.0034 44.4882 24.0034C40.8608 24.0034 37.4153 24.6689 34.1515 25.9999C30.8868 27.3308 28.5175 28.9652 27.0436 30.9028C26.4982 31.5678 26.2668 32.2858 26.3494 33.0568C26.4311 33.8268 26.8049 34.4733 27.4709 34.9963C28.1359 35.4679 28.8349 35.6623 29.568 35.5797C30.301 35.498 30.9408 35.184 31.4872 34.6376C33.0719 33.0529 34.9526 31.8565 37.1294 31.0486C39.3053 30.2407 41.7582 29.8368 44.4882 29.8368C49.0722 29.8368 52.649 30.7006 55.2186 32.4282C57.7872 34.1559 59.0715 36.2087 59.0715 38.5868C59.0715 40.6206 57.9963 42.4586 55.8457 44.1007C53.6961 45.7418 49.4465 47.9721 43.0969 50.7915C35.8432 53.9697 30.8586 56.7761 28.1432 59.2105C25.4288 61.6449 24.0715 64.4926 24.0715 67.7534C24.0715 70.1169 24.8794 72.2801 26.4953 74.243C28.1101 76.2059 30.4396 77.9763 33.4836 79.5543Z" fill="#888F77"/>
</g>
</g>
</svg>
