<svg width="156" height="40" viewBox="0 0 156 40" fill="none" xmlns="http://www.w3.org/2000/svg">
<g id="Group 2381">
<g id="xYZesc">
<g id="Group">
<path id="Vector" d="M18.0323 3.40308C28.0794 3.41183 36.0803 11.4128 36.0453 21.4467C36.0147 30.5232 28.9625 39.4379 17.8487 39.3286C7.79288 39.228 -0.286742 31.4151 0.0411646 20.6728C0.360327 10.2367 8.93837 3.32001 18.0323 3.40308ZM14.9281 17.1358C15.0112 17.1271 15.0593 17.0834 15.0637 16.9959L15.0549 17.0047C15.2692 16.9915 15.3347 16.8473 15.3566 16.6593L15.3653 16.6505C15.7545 16.6505 15.9731 16.4319 16.1042 16.0909H16.0955C16.3141 16.139 16.4496 16.0515 16.4977 15.8373L16.489 15.8461C16.6901 15.8985 16.8693 15.8242 17.0442 15.7368C17.9842 15.2689 18.9723 15.0678 20.026 15.0897C21.272 15.1115 22.4787 15.3695 23.6898 15.61C23.8516 15.6406 24.0527 15.8548 24.162 15.5313L24.1839 15.4963C24.4812 15.4132 24.5161 15.1159 24.5074 14.9235C24.468 13.9486 24.7129 13.0086 24.7872 12.0511C24.8091 11.7625 24.9009 11.3822 24.5773 11.2248C23.716 10.7963 22.8066 10.5427 21.8229 10.6695C21.7355 10.6608 21.6437 10.6476 21.5562 10.6389C21.4906 10.4159 21.3026 10.4509 21.1365 10.4422C19.0685 10.346 17.0355 10.5165 15.1161 11.3384C14.4516 11.6226 13.7389 11.8849 13.2842 12.5101H13.2755C12.9913 12.497 12.7771 12.5626 12.764 12.8993C12.6459 12.9036 12.5453 12.9255 12.5279 13.0698L12.541 13.0523C11.8065 13.4152 11.1987 13.8961 10.9626 14.7268V14.7181C10.9189 14.7705 10.8796 14.8186 10.8359 14.8711L10.8533 14.858C10.7134 14.8798 10.6916 14.9848 10.6916 15.0984C10.3287 15.2383 10.1582 15.4963 10.1888 15.8898C9.80404 16.1302 9.66414 16.4931 9.67288 16.9303V16.9216C9.40618 17.1008 9.35809 17.4025 9.25753 17.6823C8.66293 19.3088 8.63232 21.0051 8.7766 22.6796C8.86405 23.6721 9.0127 24.717 9.65102 25.574L9.67725 25.6002L9.66414 25.6352C9.64665 25.8713 9.7166 26.068 9.91335 26.2123C9.88711 26.6626 10.1582 26.9599 10.4511 27.2397V27.2266C10.4686 27.5152 10.5123 27.7862 10.8621 27.8649V27.8562C10.7878 28.136 10.932 28.2541 11.1856 28.289L11.1987 28.3065C11.2119 28.4246 11.2556 28.5164 11.3911 28.5295C11.4173 28.5645 11.448 28.5951 11.4742 28.63L11.6097 28.7918V28.7831C11.5922 29.0541 11.7234 29.1809 11.9901 29.1809H11.9857C12.0338 29.2247 12.0775 29.2684 12.1256 29.3121L12.1169 29.3034C12.165 29.3471 12.2131 29.3952 12.2612 29.4389L12.2524 29.4258C12.2874 29.5788 12.3748 29.6706 12.5366 29.6837L12.5235 29.6706C12.5453 29.8018 12.6415 29.8324 12.7552 29.8367H12.764C12.7814 30.1734 12.9957 30.239 13.2711 30.2259L13.2799 30.2346C13.3323 30.545 13.564 30.5887 13.822 30.5931L13.8089 30.5844C14.4734 31.2795 15.3785 31.5069 16.2485 31.7605C16.6988 31.8916 17.1579 32.1977 17.6651 31.9397C17.7525 31.9528 17.8443 31.9703 17.9318 31.9834C18.9636 32.4819 19.9998 32.4425 21.0359 32.0053C21.1278 31.9878 21.2196 31.9703 21.3114 31.9572C22.4481 32.0665 23.4537 31.7167 24.385 31.1003L24.3762 31.109C25.325 30.9298 25.4386 30.7986 25.4386 29.8455C25.4386 28.0223 25.4386 26.1992 25.4386 24.376C25.4386 23.5628 25.4561 22.7452 25.4299 21.932C25.4212 21.6347 25.4518 21.2194 24.9315 21.2806C24.8397 21.2806 24.7479 21.2718 24.656 21.2675C24.4899 21.1319 24.3238 21.1319 24.1576 21.2675H23.8778C23.034 21.0663 22.1727 21.2368 21.3245 21.1713C20.8217 21.1319 20.6381 21.333 20.6468 21.8402C20.6731 23.2349 20.6556 24.634 20.6556 26.0287C20.6556 26.9439 20.2286 27.5123 19.3746 27.7338C19.2434 27.725 19.1079 27.7163 18.9767 27.7075C18.1941 27.2878 17.2978 27.2222 16.4846 26.8987L16.4933 26.9074C16.454 26.6801 16.3141 26.597 16.0911 26.6495H16.0999C16.0824 26.5096 15.9818 26.4877 15.8638 26.4877C15.632 26.0287 15.3522 25.6177 14.8276 25.4559C14.7882 25.4122 14.7533 25.3641 14.7139 25.3204L14.7052 25.3073C14.7052 25.198 14.6746 25.1061 14.5565 25.0668C14.5653 24.9487 14.5478 24.8438 14.3904 24.8307V24.8394C14.4559 24.6777 14.3773 24.5465 14.3117 24.411C13.4635 22.6359 13.4591 20.8215 14.0319 18.9677C14.1237 18.6661 14.3729 18.4037 14.2942 18.054L14.2854 18.0627C14.4866 18.0015 14.5784 17.8703 14.5346 17.6561V17.6648C14.7489 17.6255 14.8276 17.4856 14.8057 17.2757V17.2845C14.8451 17.2364 14.8844 17.1839 14.9281 17.1358Z" fill="#E8ECDF"/>
<path id="Vector_2" d="M88.6459 30.2477C83.2813 30.2346 79.6219 26.5664 79.6306 21.215C79.6394 15.9772 83.3731 12.379 88.7814 12.4052C93.888 12.4271 97.53 16.1303 97.5169 21.2893C97.5037 26.5577 93.8356 30.2652 88.6459 30.2521V30.2477ZM88.5847 26.702C91.6451 26.702 93.8662 24.411 93.8443 21.2762C93.8224 18.1764 91.5883 15.8942 88.5803 15.8985C85.5592 15.9029 83.3119 18.207 83.3207 21.2806C83.3294 24.4547 85.5111 26.7063 88.5803 26.7063L88.5847 26.702Z" fill="#E8ECDF"/>
<path id="Vector_3" d="M63.6552 21.2981C63.6552 18.583 63.6552 15.8679 63.6552 13.1529C63.6552 12.7069 63.7295 12.4052 64.2804 12.4096C66.5451 12.4315 68.8099 12.3659 71.0659 12.4621C74.0826 12.5889 76.155 15.0241 75.967 18.0627C75.8358 20.1657 74.9439 21.779 72.9852 22.684C72.5218 22.8983 72.513 23.0863 72.7535 23.5016C73.8902 25.4559 74.992 27.4277 76.1069 29.3952C76.4275 29.9606 76.2745 30.2419 75.6478 30.239C74.9133 30.239 74.1788 30.2084 73.4487 30.2434C72.8322 30.274 72.4606 30.0466 72.1764 29.487C71.2888 27.7382 70.3532 26.0199 69.4395 24.2886C68.976 23.4098 68.5126 23.2131 67.5376 23.4229C67.1048 23.5147 67.2141 23.8208 67.2141 24.0744C67.2053 25.9063 67.1922 27.7382 67.2228 29.5657C67.2315 30.0903 67.1004 30.2958 66.5451 30.2565C65.8806 30.2084 65.2116 30.2434 64.5427 30.239C63.6902 30.2346 63.6596 30.2084 63.6596 29.3777C63.6596 26.6845 63.6596 23.9913 63.6596 21.2981H63.6552ZM67.2009 17.9097H67.1572C67.1572 18.4256 67.1616 18.9415 67.1572 19.4574C67.1529 19.8291 67.3103 20.0083 67.6994 19.9996C68.5607 19.9864 69.4176 20.0127 70.2789 19.9864C71.4637 19.9558 72.2376 19.147 72.2507 17.9665C72.2682 16.8036 71.4856 15.9466 70.3226 15.8985C69.4657 15.8636 68.6044 15.8985 67.7431 15.8854C67.3583 15.8811 67.1966 16.0559 67.2009 16.4319C67.2097 16.926 67.2009 17.42 67.2009 17.9141V17.9097Z" fill="#E8ECDF"/>
<path id="Vector_4" d="M128.677 21.2894C128.677 18.5524 128.681 15.8155 128.673 13.0829C128.673 12.6763 128.747 12.4053 129.219 12.4096C131.589 12.4315 133.959 12.3266 136.328 12.4621C139.524 12.6457 141.286 15.6406 140.941 18.4912C140.709 20.4018 139.782 21.849 137.99 22.6578C137.561 22.8502 137.487 23.0207 137.74 23.4579C138.93 25.5041 140.062 27.5852 141.247 29.6357C141.544 30.1516 141.413 30.2478 140.888 30.2347C139.983 30.2128 139.078 30.2128 138.173 30.2347C137.723 30.2478 137.461 30.0554 137.259 29.6663C136.333 27.8694 135.384 26.0812 134.453 24.2799C134.278 23.9432 134.081 23.6415 133.736 23.4754C133.281 23.2568 132.774 23.3005 132.35 23.4754C132.013 23.6153 132.197 24.0569 132.192 24.3586C132.179 26.103 132.166 27.8475 132.201 29.592C132.21 30.121 132.039 30.2565 131.536 30.2303C130.828 30.1909 130.111 30.1953 129.403 30.2303C128.839 30.2609 128.651 30.0554 128.655 29.487C128.677 26.7501 128.664 24.0132 128.664 21.2806L128.677 21.2894ZM132.192 18.0322C132.192 18.0322 132.188 18.0322 132.183 18.0322C132.183 18.5262 132.201 19.0202 132.179 19.5143C132.166 19.8641 132.258 20.0171 132.643 20.0083C133.543 19.9821 134.448 20.0171 135.349 19.9909C136.455 19.9559 137.189 19.1645 137.224 18.019C137.259 16.8517 136.551 15.986 135.414 15.9161C134.536 15.8636 133.652 15.9029 132.774 15.8986C132.371 15.8986 132.183 16.0866 132.188 16.4888C132.197 17.0047 132.188 17.5206 132.188 18.0365L132.192 18.0322Z" fill="#E8ECDF"/>
<path id="Vector_5" d="M58.7103 25.316C58.7103 26.4134 58.7059 27.5152 58.7103 28.6126C58.7103 28.9711 58.5923 29.2203 58.2556 29.3864C54.2726 31.3451 48.707 30.4313 46.3679 26.2254C43.1632 20.4586 45.594 13.6294 52.7424 12.3178C54.4125 12.0117 56.0914 12.2522 57.7266 12.7462C58.0851 12.8555 58.1988 13.1004 58.1638 13.4327C58.0807 14.2677 57.9889 15.1028 57.9015 15.9379C57.849 16.4494 57.4817 16.2876 57.2194 16.222C56.0171 15.9379 54.8104 15.7674 53.5687 15.8548C51.0591 16.034 49.0261 18.0802 48.7551 20.7166C48.4752 23.3879 50.0754 25.9019 52.4626 26.5358C53.1577 26.7194 53.8704 26.7194 54.5787 26.7544C55.0727 26.7763 55.1339 26.4484 55.1339 26.0724C55.1339 24.6952 55.1558 23.3136 55.1252 21.9364C55.1121 21.4161 55.287 21.2631 55.7897 21.2937C56.498 21.3374 57.2151 21.3374 57.9233 21.3024C58.5048 21.2718 58.7453 21.4729 58.7234 22.0763C58.6884 23.1518 58.7147 24.2317 58.7147 25.3073L58.7103 25.316Z" fill="#E8ECDF"/>
<path id="Vector_6" d="M115.04 21.3373C115.04 18.6222 115.053 15.9072 115.031 13.1965C115.027 12.615 115.198 12.3964 115.797 12.4008C118.319 12.4226 120.838 12.4139 123.36 12.4008C123.767 12.4008 123.937 12.5013 123.92 12.9429C123.889 13.7605 123.885 14.5824 123.924 15.3956C123.946 15.8547 123.754 15.929 123.36 15.9247C122.005 15.9072 120.645 15.9378 119.285 15.9115C118.743 15.8984 118.564 16.0952 118.586 16.6242C118.617 17.3762 118.621 18.1326 118.582 18.8846C118.555 19.4092 118.765 19.5448 119.259 19.5316C120.422 19.501 121.585 19.536 122.748 19.5142C123.142 19.5054 123.277 19.6366 123.268 20.0301C123.247 20.8695 123.242 21.7089 123.268 22.5484C123.282 22.9637 123.159 23.1168 122.726 23.1036C121.541 23.0774 120.357 23.1124 119.172 23.0862C118.748 23.0774 118.595 23.2173 118.608 23.637C118.63 24.4328 118.638 25.2328 118.608 26.0286C118.586 26.5314 118.752 26.715 119.268 26.7062C120.645 26.68 122.027 26.7062 123.404 26.7019C124.243 26.6975 124.296 26.7368 124.296 27.5501C124.296 28.2627 124.274 28.971 124.305 29.6836C124.326 30.1208 124.16 30.2258 123.745 30.2214C121.074 30.2039 118.402 30.1952 115.727 30.2214C115.18 30.2258 115.027 30.064 115.031 29.535C115.053 26.7981 115.04 24.0655 115.04 21.3286V21.3373Z" fill="#E8ECDF"/>
<path id="Vector_7" d="M149.16 30.4007C147.573 30.427 146.099 29.9897 144.665 29.3558C144.32 29.2028 144.163 28.9929 144.211 28.6125C144.32 27.7163 144.416 26.8156 144.512 25.9193C144.565 25.4253 144.814 25.5827 145.085 25.7313C146.55 26.5445 148.102 26.9817 149.794 26.7763C150.791 26.6538 151.433 26.0942 151.56 25.2591C151.669 24.5246 151.219 23.8032 150.323 23.4097C149.317 22.9682 148.285 22.5965 147.319 22.0675C145.142 20.8739 144.158 19.1732 144.407 17.127C144.866 13.3802 147.691 11.9024 151.057 12.3003C151.849 12.3921 152.614 12.6282 153.379 12.8468C153.729 12.943 153.869 13.1178 153.812 13.4982C153.694 14.2633 153.606 15.0328 153.523 15.8023C153.475 16.2264 153.278 16.3313 152.872 16.2089C151.879 15.9116 150.882 15.6493 149.829 15.693C149.243 15.7192 148.731 15.8679 148.36 16.3707C147.643 17.3413 147.879 18.4911 148.954 19.042C149.912 19.5317 150.909 19.9514 151.871 20.4324C153.143 21.075 154.271 21.8839 154.83 23.2742C156.129 26.4921 153.864 30.0466 150.318 30.3483C149.934 30.3832 149.545 30.3876 149.155 30.4051L149.16 30.4007Z" fill="#E8ECDF"/>
<path id="Vector_8" d="M102.235 21.3024C102.235 18.5479 102.243 15.7891 102.226 13.0347C102.226 12.5669 102.335 12.392 102.834 12.3964C105.334 12.4139 107.831 12.4051 110.332 12.392C110.869 12.392 111.127 12.58 111.097 13.1528C111.062 13.8392 111.066 14.53 111.088 15.2208C111.106 15.7498 110.878 15.9422 110.358 15.9334C109.024 15.9116 107.687 15.9378 106.353 15.9159C105.907 15.9072 105.741 16.0471 105.758 16.5018C105.789 17.3412 105.78 18.1807 105.758 19.0201C105.75 19.4136 105.894 19.5448 106.283 19.5404C107.402 19.5229 108.526 19.5623 109.645 19.5185C110.179 19.4967 110.31 19.6847 110.279 20.1787C110.24 20.9089 110.244 21.6434 110.266 22.3735C110.279 22.8982 110.061 23.1168 109.54 23.1124C108.465 23.0993 107.385 23.1299 106.309 23.1037C105.863 23.0905 105.715 23.2304 105.719 23.6851C105.741 25.6657 105.719 27.6463 105.741 29.6268C105.745 30.1121 105.605 30.2608 105.12 30.2345C104.346 30.1908 103.568 30.1952 102.794 30.2345C102.326 30.2564 102.221 30.0815 102.221 29.6443C102.239 26.868 102.23 24.0874 102.23 21.3111L102.235 21.3024Z" fill="#E8ECDF"/>
<path id="Vector_9" d="M39.0138 3.34628C39.0094 4.96832 37.6453 6.31056 36.032 6.28432C34.4012 6.25809 33.0809 4.89837 33.1115 3.27632C33.1421 1.70674 34.5149 0.342651 36.067 0.342651C37.641 0.342651 39.0182 1.74609 39.0138 3.34628Z" fill="#888F77"/>
<path id="Vector_10" d="M24.3804 31.1045C25.0624 30.7723 25.2373 30.2345 25.2242 29.4869C25.1848 27.0385 25.2198 24.5858 25.2242 22.1374C25.2242 21.8138 25.2723 21.4816 24.9269 21.2761C25.4515 21.2149 25.4165 21.6302 25.4253 21.9275C25.4515 22.7407 25.434 23.5583 25.434 24.3715C25.434 26.1947 25.434 28.0178 25.434 29.841C25.434 30.7898 25.3247 30.9209 24.3716 31.1045H24.3804Z" fill="#E8ECDF"/>
<path id="Vector_11" d="M23.8778 21.263C23.1696 21.2761 22.4613 21.2893 21.7486 21.2936C20.8786 21.298 20.8698 21.2936 20.8655 22.1943C20.8567 23.6983 20.8655 25.2067 20.8655 26.7107C20.8655 27.7294 20.8436 27.7512 19.8205 27.7556C19.6719 27.7556 19.5232 27.7337 19.3702 27.725C20.2271 27.5005 20.6556 26.9322 20.6556 26.0199C20.6556 24.6252 20.6731 23.2261 20.6469 21.8314C20.6381 21.3242 20.8217 21.1275 21.3245 21.1625C22.1727 21.2281 23.034 21.0575 23.8778 21.2587V21.263Z" fill="#E8ECDF"/>
<path id="Vector_12" d="M21.5607 10.6302C19.707 10.5558 17.8663 10.6083 16.0738 11.1898C15.0857 11.5133 14.1938 12.0249 13.2844 12.5014C13.7434 11.8718 14.4561 11.6095 15.1163 11.3297C17.0356 10.5077 19.073 10.3372 21.1366 10.4334C21.3072 10.4422 21.4908 10.4028 21.5564 10.6302H21.5607Z" fill="#E8ECDF"/>
<path id="Vector_13" d="M9.68585 16.9172C9.37543 17.9884 9.04752 19.0508 8.93822 20.1744C8.75896 22.0326 9.13496 23.812 9.65961 25.5696C9.02129 24.7083 8.87264 23.6634 8.7852 22.6753C8.64092 21.0008 8.66715 19.3 9.26613 17.678C9.36668 17.3982 9.41478 17.1009 9.69022 16.9172H9.68585Z" fill="#E8ECDF"/>
<path id="Vector_14" d="M16.4932 15.8461C17.4988 15.1334 18.653 14.9411 19.8422 14.8842C21.3244 14.8187 22.7322 15.2471 24.1662 15.5269C24.0613 15.8505 23.8558 15.6362 23.694 15.6056C22.483 15.3695 21.2763 15.1072 20.0302 15.0854C18.9765 15.0679 17.9884 15.2646 17.0484 15.7324C16.8736 15.8199 16.6943 15.8942 16.4932 15.8417V15.8461Z" fill="#E8ECDF"/>
<path id="Vector_15" d="M14.3992 24.835C13.7871 24.0874 13.5728 23.1911 13.4985 22.2686C13.3805 20.7952 13.4723 19.3524 14.303 18.0496C14.3773 18.3993 14.1325 18.6617 14.0363 18.9633C13.4635 20.8127 13.4679 22.6315 14.3161 24.4066C14.3817 24.5421 14.4604 24.6733 14.3992 24.835Z" fill="#E8ECDF"/>
<path id="Vector_16" d="M24.1838 15.4919C24.328 14.3202 24.4636 13.1528 24.6253 11.9855C24.6909 11.5264 24.4811 11.2816 24.0832 11.181C23.3356 10.993 22.5792 10.8356 21.8272 10.6651C22.8066 10.5383 23.7203 10.7919 24.5816 11.2204C24.9008 11.3778 24.8133 11.7581 24.7915 12.0467C24.7172 13.0042 24.4723 13.9442 24.5117 14.9191C24.5204 15.1115 24.4811 15.4088 24.1881 15.4919H24.1838Z" fill="#E8ECDF"/>
<path id="Vector_17" d="M13.8131 30.5844C15.0504 31.1703 16.3139 31.6949 17.6736 31.9398C17.1621 32.1977 16.703 31.8917 16.2571 31.7605C15.387 31.5069 14.482 31.2796 13.8175 30.5844H13.8131Z" fill="#E8ECDF"/>
<path id="Vector_18" d="M17.9402 31.9834C18.9721 32.0708 20.0082 32.0621 21.0444 32.0053C20.0082 32.4468 18.9721 32.4862 17.9402 31.9834Z" fill="#E8ECDF"/>
<path id="Vector_19" d="M21.3156 31.9528C22.3693 31.7648 23.3748 31.415 24.3892 31.0959C23.4535 31.708 22.448 32.0621 21.3156 31.9528Z" fill="#E8ECDF"/>
<path id="Vector_20" d="M18.9724 27.7032C18.0674 27.6551 17.2017 27.4977 16.4803 26.8943C17.2935 27.2179 18.1898 27.2835 18.9724 27.7032Z" fill="#E8ECDF"/>
<path id="Vector_21" d="M12.5456 13.0479C12.0209 13.6075 11.4919 14.1628 10.9673 14.7224C11.2033 13.8917 11.8111 13.4108 12.5456 13.0479Z" fill="#E8ECDF"/>
<path id="Vector_22" d="M15.8638 26.479C15.4091 26.2473 15.0812 25.8844 14.8276 25.4515C15.3522 25.6133 15.632 26.0243 15.8638 26.479Z" fill="#E8ECDF"/>
<path id="Vector_23" d="M10.193 15.8766C10.0881 16.257 9.93506 16.6155 9.67711 16.9216C9.66837 16.4844 9.80827 16.1215 10.193 15.8766Z" fill="#E8ECDF"/>
<path id="Vector_24" d="M9.92194 26.2123C10.1668 26.5228 10.3548 26.8594 10.4597 27.2398C10.1668 26.9556 9.90008 26.6627 9.92194 26.2123Z" fill="#E8ECDF"/>
<path id="Vector_25" d="M15.3654 16.6505C15.5578 16.3926 15.7764 16.1696 16.1043 16.0953C15.9732 16.4363 15.7546 16.6549 15.3654 16.6505Z" fill="#E8ECDF"/>
<path id="Vector_26" d="M10.6959 15.0941C10.5866 15.3957 10.4336 15.6668 10.1931 15.881C10.1625 15.4919 10.333 15.2296 10.6959 15.0941Z" fill="#E8ECDF"/>
<path id="Vector_27" d="M10.4556 27.2265C10.6786 27.3839 10.7967 27.6112 10.871 27.8648C10.5256 27.7861 10.4819 27.5151 10.4556 27.2265Z" fill="#E8ECDF"/>
<path id="Vector_28" d="M13.2806 12.5101C13.1536 12.6984 12.9784 12.8211 12.7682 12.8955C12.7813 12.5583 13.0003 12.4882 13.2806 12.5101Z" fill="#E8ECDF"/>
<path id="Vector_29" d="M13.2844 30.2302C13.4902 30.3134 13.7092 30.3747 13.8274 30.5893C13.569 30.585 13.3369 30.5412 13.2844 30.2302Z" fill="#E8ECDF"/>
<path id="Vector_30" d="M12.764 29.8411C12.983 29.9024 13.145 30.0381 13.272 30.2221C12.9961 30.2352 12.7815 30.1695 12.764 29.8411Z" fill="#E8ECDF"/>
<path id="Vector_31" d="M11.6141 28.7831C11.798 28.8619 11.9294 28.9933 11.9951 29.1816C11.7279 29.1816 11.5965 29.0546 11.6141 28.7831Z" fill="#E8ECDF"/>
<path id="Vector_32" d="M10.8667 27.8562C11.0419 27.9525 11.1557 28.0927 11.1951 28.2898C10.9411 28.2547 10.7966 28.1365 10.8667 27.8562Z" fill="#E8ECDF"/>
<path id="Vector_33" d="M16.4939 26.9035C16.3188 26.8816 16.1742 26.8072 16.091 26.6408C16.3144 26.5882 16.4502 26.6714 16.4939 26.9035Z" fill="#E8ECDF"/>
<path id="Vector_34" d="M14.5432 17.6611C14.5651 17.4815 14.6396 17.3414 14.8148 17.2713C14.8367 17.4815 14.7578 17.6217 14.5432 17.6611Z" fill="#E8ECDF"/>
<path id="Vector_35" d="M14.2943 18.059C14.3074 17.8794 14.3731 17.7305 14.5439 17.6517C14.5877 17.8663 14.4958 17.9977 14.2943 18.059Z" fill="#E8ECDF"/>
<path id="Vector_36" d="M16.0956 16.0957C16.1701 15.9205 16.319 15.8548 16.4985 15.8373C16.4503 16.0563 16.3146 16.1395 16.0956 16.0957Z" fill="#E8ECDF"/>
<path id="Vector_37" d="M15.0549 17.0052C15.0899 16.83 15.1819 16.7117 15.3571 16.6592C15.3352 16.8431 15.2695 16.9876 15.0549 17.0052Z" fill="#E8ECDF"/>
<path id="Vector_38" d="M9.67752 25.6351C9.83518 25.7972 9.92715 25.9855 9.92715 26.2132C9.73007 26.0687 9.66438 25.8716 9.67752 25.6351Z" fill="#E8ECDF"/>
<path id="Vector_39" d="M24.6569 21.2676C24.4905 21.2676 24.3241 21.2676 24.1577 21.2676C24.3241 21.1362 24.4905 21.1362 24.6569 21.2676Z" fill="#E8ECDF"/>
<path id="Vector_40" d="M12.2565 29.4257C12.4015 29.4609 12.4981 29.5399 12.542 29.6849C12.3795 29.6717 12.2917 29.5795 12.2565 29.4257Z" fill="#E8ECDF"/>
<path id="Vector_41" d="M16.1009 26.6459C15.9867 26.6415 15.9077 26.5844 15.8637 26.4789C15.9823 26.4789 16.0834 26.5009 16.1009 26.6459Z" fill="#E8ECDF"/>
<path id="Vector_42" d="M11.2075 28.3065C11.2733 28.3812 11.3392 28.4559 11.4007 28.5305C11.2646 28.5174 11.2162 28.4251 11.2075 28.3065Z" fill="#E8ECDF"/>
<path id="Vector_43" d="M14.7013 25.2996C14.5959 25.2513 14.5564 25.1679 14.552 25.058C14.6706 25.0976 14.697 25.1898 14.7013 25.2996Z" fill="#E8ECDF"/>
<path id="Vector_44" d="M12.5234 29.6705C12.6332 29.6793 12.7123 29.732 12.7562 29.8374C12.642 29.8331 12.5453 29.8023 12.5234 29.6705Z" fill="#E8ECDF"/>
<path id="Vector_45" d="M14.5615 25.0678C14.4517 25.0239 14.4034 24.936 14.3946 24.8262C14.5528 24.8394 14.5659 24.9448 14.5615 25.0678Z" fill="#E8ECDF"/>
<path id="Vector_46" d="M12.7652 12.8948C12.7212 13.0003 12.6378 13.053 12.528 13.0661C12.5411 12.9212 12.6466 12.8992 12.7652 12.8948Z" fill="#E8ECDF"/>
<path id="Vector_47" d="M10.8583 14.8535C10.8539 14.9677 10.8012 15.0512 10.6958 15.0951C10.6958 14.9809 10.7178 14.8755 10.8583 14.8535Z" fill="#E8ECDF"/>
<path id="Vector_48" d="M12.1258 29.3033C12.174 29.3472 12.2223 29.3954 12.2661 29.4393C12.2179 29.3954 12.1696 29.3472 12.1258 29.3033Z" fill="#E8ECDF"/>
<path id="Vector_49" d="M10.9716 14.7136C10.9278 14.7662 10.8883 14.8145 10.8445 14.8671C10.8883 14.8189 10.9278 14.7662 10.9716 14.7136Z" fill="#E8ECDF"/>
<path id="Vector_50" d="M14.9283 17.1362C14.9722 17.088 15.0204 17.0441 15.0643 16.9959C15.0599 17.0836 15.0116 17.1275 14.9283 17.1362Z" fill="#E8ECDF"/>
</g>
</g>
</g>
</svg>
