<svg width="122" height="41" viewBox="0 0 122 41" fill="none" xmlns="http://www.w3.org/2000/svg">
<g id="Group 2397">
<path id="Vector" d="M24.8658 10.8714C24.7789 10.8787 24.6921 10.8787 24.6042 10.8787C21.8681 10.8693 19.1321 10.8609 16.396 10.8494C16.0131 10.8484 15.6322 10.8913 15.2472 10.8704C14.9239 10.8526 14.7272 11.0399 14.7554 11.2648C14.8527 12.0433 14.8349 12.8238 14.8098 13.6054C14.792 14.1338 14.949 14.3116 15.4617 14.3106C16.9955 14.3074 18.5284 14.3001 20.0622 14.298C20.5843 14.298 21.1064 14.3022 21.6285 14.3106C22.0282 14.3169 22.0397 14.3378 21.91 14.7375C21.8462 14.9352 21.7311 15.133 21.7279 15.3328C21.7185 15.9501 21.3711 16.4482 21.1901 17.0027C21.028 17.4976 20.7088 17.9109 20.4546 18.3597C19.9262 19.2889 19.2043 20.0328 18.3829 20.6794C17.6474 21.259 16.8292 21.7079 15.9471 22.0563C15.4094 22.2687 14.8548 22.4026 14.3024 22.5041C13.638 22.6255 12.9474 22.5575 12.2684 22.5836C11.5558 22.6098 10.8946 22.3848 10.226 22.229C9.71749 22.1097 9.24875 21.8104 8.76746 21.5802C8.09783 21.259 7.51504 20.8123 6.96678 20.3163L6.94167 20.2912C6.67696 20.1855 6.50118 19.9679 6.33586 19.7597C5.92885 19.246 5.48104 18.7647 5.15564 18.184C4.757 17.4725 4.33534 16.761 4.15015 15.9742C3.91578 14.9813 3.72117 13.9758 3.72117 12.9337C3.72117 11.6404 3.97437 10.3995 4.4337 9.22034C4.96626 7.85283 5.76982 6.62657 6.91656 5.67758C7.44599 5.23918 7.96495 4.77254 8.57703 4.44505C8.8815 4.28287 9.19958 4.12802 9.52916 4.03804C10.0303 3.90097 10.52 3.72205 11.0149 3.57453C11.7023 3.36945 12.3824 3.35585 13.074 3.34225C13.6317 3.33074 14.18 3.36841 14.7052 3.60173C14.8872 3.6823 15.1373 3.60905 15.3183 3.69067C16.0737 4.02862 16.894 4.22428 17.572 4.73068C17.8765 4.95773 18.203 5.15025 18.4959 5.39822C18.747 5.61062 18.9019 5.53424 18.9626 5.21303C19.018 4.91902 19.0306 4.62396 18.8851 4.3446C18.746 4.07675 18.6895 3.78797 18.6769 3.48873C18.6654 3.20728 18.5943 2.93838 18.5043 2.67367C18.4195 2.42465 18.3735 2.17144 18.3641 1.90673C18.3442 1.34382 18.1559 1.11991 17.6003 0.940997C16.9401 0.728599 16.282 0.512016 15.6228 0.298571C15.5401 0.271367 15.4564 0.238932 15.3706 0.231608C14.0565 0.119654 12.7465 -0.167031 11.4209 0.13221C11.2378 0.174062 11.0442 0.211729 10.8548 0.141627C10.7094 0.192895 10.5619 0.206497 10.4101 0.176154C9.79388 0.458655 9.11692 0.545497 8.48914 0.814395C7.62804 1.18269 6.76589 1.52588 5.98222 2.05112C5.11065 2.63495 4.31442 3.30354 3.5998 4.06838C2.90087 4.81753 2.33796 5.66189 1.79807 6.53555C1.27179 7.38723 0.938019 8.30483 0.634593 9.23395C0.415917 9.90358 0.281991 10.6025 0.188871 11.314C-0.0444536 13.0843 0.0518057 14.8097 0.54775 16.5266C0.658658 16.9106 0.807232 17.2789 0.913954 17.6587C1.09392 18.3012 1.3827 18.8934 1.70809 19.4615C2.29402 20.4879 3.04945 21.3898 3.8394 22.2698C4.47136 22.9729 5.20482 23.5483 5.98222 24.0443C6.70102 24.5036 7.45959 24.9148 8.27779 25.2214C9.27596 25.5949 10.2909 25.8722 11.3361 26.0103C12.0057 26.0992 12.6953 26.026 13.3722 26.0751C14.3505 26.1452 15.2587 25.8062 16.1941 25.6346C16.5289 25.5729 16.8752 25.4735 17.1881 25.3375C17.8995 25.0288 18.6068 24.6993 19.2796 24.3132C20.6523 23.5253 21.819 22.478 22.7931 21.2392C23.741 20.0317 24.4494 18.6831 24.9286 17.2161C25.2268 16.3048 25.4601 15.3883 25.504 14.4246C25.5501 13.4149 25.5626 12.4074 25.4873 11.3987C25.4475 10.8609 25.4078 10.8306 24.8668 10.8745L24.8658 10.8714Z" fill="#E8ECDF"/>
<path id="Vector_2" d="M42.2029 25.9004C42.318 25.913 42.4404 25.8533 42.5607 25.8314C42.8495 25.777 42.9677 25.596 42.9646 25.3124C42.9593 24.8772 42.9583 24.4419 42.9593 24.0066C42.9667 19.0043 42.975 14.003 42.9834 9.00064C42.9834 8.42413 42.9688 8.40635 42.4331 8.2222C42.3263 8.26614 42.2186 8.26824 42.1108 8.22534C41.4181 8.30172 40.7234 8.26824 40.0287 8.25254C39.6625 8.24417 39.516 8.38019 39.5212 8.73907C39.5233 8.87823 39.5526 9.01634 39.5526 9.1555C39.5495 12.1877 39.5191 15.2209 39.5589 18.253C39.5693 19.0127 39.3705 19.7137 39.1404 20.3833C38.8579 21.2026 38.2761 21.8523 37.46 22.2844C36.3185 22.8881 35.1581 22.9289 33.9821 22.5062C33.5531 22.3524 33.1294 22.1317 32.7883 21.7801C32.195 21.1691 31.7096 20.5141 31.6259 19.6331C31.6196 19.5651 31.5976 19.496 31.5704 19.4322C31.426 19.0869 31.3957 18.7239 31.3957 18.3566C31.3957 16.195 31.3831 14.0344 31.4061 11.8727C31.4166 10.8128 31.3182 9.75084 31.4386 8.69094C31.4647 8.45971 31.2743 8.26928 31.0085 8.2651C30.1903 8.25045 29.3711 8.24522 28.5518 8.25882C28.2296 8.26405 28.0789 8.43669 28.0726 8.75999C28.0674 9.02052 28.1061 9.2821 28.1061 9.54262C28.1051 12.1217 28.0967 14.7019 28.0977 17.281C28.0977 17.9078 28.1092 18.5355 28.1406 19.1623C28.1616 19.5777 28.1637 20.0045 28.3279 20.3969C28.5424 20.9085 28.646 21.4526 28.8553 21.9695C29.1964 22.8076 29.6923 23.5379 30.3452 24.129C30.9803 24.7045 31.6635 25.235 32.5079 25.5259C33.2654 25.7864 34.0145 26.0312 34.8254 26.0678C36.1438 26.1275 37.4192 25.9716 38.6434 25.4484C38.8715 25.3511 39.0723 25.2224 39.2827 25.1032C39.4553 25.0048 39.5516 25.077 39.562 25.2528C39.5725 25.4212 39.4951 25.6075 39.6761 25.7309C39.8246 25.8324 40.0004 25.8554 40.1731 25.8764C40.849 25.9559 41.528 25.8272 42.206 25.9015L42.2029 25.9004Z" fill="#E8ECDF"/>
<path id="Vector_3" d="M121.966 24.7997C121.923 24.445 121.914 24.0893 121.964 23.7346C121.902 23.5651 121.933 23.3893 121.932 23.2167C121.93 21.6148 121.93 20.014 121.932 18.4121C121.932 18.2395 121.902 18.0637 121.964 17.8952C121.922 17.6797 121.921 17.4641 121.964 17.2486C121.893 16.6794 121.953 16.104 121.901 15.5348C121.824 14.6737 121.667 13.8335 121.326 13.0216C121.153 12.6114 120.995 12.1929 120.786 11.8016C120.314 10.9196 119.665 10.1882 118.83 9.62843C118.788 9.59913 118.743 9.57402 118.744 9.51334L118.704 9.50183L118.702 9.45998L118.66 9.46207L118.667 9.42126C118.639 9.39197 118.61 9.36372 118.58 9.33442C118.192 9.23607 117.857 9.01425 117.48 8.88137C116.773 8.63236 116.057 8.44507 115.318 8.36869C114.435 8.27766 113.569 8.33102 112.69 8.56121C111.877 8.77465 111.112 9.05715 110.355 9.49974C110.346 9.33024 110.301 9.17748 110.339 9.04774C110.434 8.71711 110.3 8.47855 110.092 8.25255C109.893 8.24209 109.694 8.23162 109.495 8.22116C109.398 8.27557 109.292 8.25569 109.189 8.25778C108.737 8.26406 108.285 8.26511 107.833 8.27766C107.345 8.29126 107.205 8.46704 107.252 8.95043C107.277 9.20887 107.286 9.47044 107.286 9.73097C107.288 14.4278 107.288 19.1246 107.288 23.8204C107.288 24.3415 107.33 24.8688 107.263 25.3825C107.216 25.7435 107.322 25.9433 107.611 26.0992C107.755 26.0699 107.899 26.0595 108.042 26.1076C108.069 26.0752 108.099 26.0741 108.128 26.1034C108.204 26.0637 108.278 26.0647 108.35 26.1139C108.901 26.0218 109.457 26.0783 110.01 26.0804C110.443 26.0825 110.579 25.9841 110.595 25.5489C110.608 25.2183 110.592 24.8866 110.591 24.5549C110.58 21.6431 110.581 18.7312 110.551 15.8204C110.543 14.975 110.731 14.1871 111.158 13.4819C111.716 12.5591 112.505 11.9261 113.624 11.7535C114.363 11.6394 115.084 11.6991 115.809 11.8079C116.158 11.8602 116.472 12.0464 116.753 12.2316C117.352 12.6271 117.793 13.1691 118.114 13.8345C118.501 14.6381 118.535 15.4856 118.543 16.3331C118.567 19.0357 118.553 21.7383 118.552 24.4409C118.552 24.8039 118.544 25.1659 118.532 25.529C118.525 25.7571 118.636 25.8879 118.849 25.9433C119.105 26.0093 119.364 26.0312 119.628 26.0134C120.132 25.98 120.636 25.9611 121.143 25.9852C121.297 25.9925 121.457 25.9674 121.606 25.9287C121.832 25.8701 121.956 25.7278 121.943 25.4725C121.932 25.2486 121.902 25.0205 121.968 24.7976L121.966 24.7997Z" fill="#E8ECDF"/>
<path id="Vector_4" d="M64.082 25.0467C64.1217 25.0236 64.1615 25.0006 64.2012 24.9776C64.2201 24.9316 64.2263 24.8667 64.2609 24.8416C64.7861 24.4618 65.2235 24.0181 65.5551 23.4416C65.8115 22.997 66.0469 22.5376 66.0699 22.0501C66.1107 21.1816 66.2635 20.2986 65.7895 19.4552C65.5091 18.9572 65.2705 18.4372 64.851 18.0469C64.2546 17.4913 63.5326 17.1126 62.8138 16.7443C61.9967 16.3258 61.1628 15.947 60.2849 15.6582C59.4971 15.3998 58.7437 15.0388 57.9684 14.7406C57.4568 14.545 56.9692 14.2729 56.5455 13.9067C56.4492 13.8241 56.3571 13.7435 56.3477 13.6138C56.3289 13.3543 56.3111 13.0927 56.3153 12.8322C56.3184 12.6177 56.3948 12.4503 56.5988 12.3143C57.0456 12.0171 57.5133 11.833 58.0553 11.8393C58.5774 11.8455 59.1005 11.8267 59.6226 11.8309C61.3114 11.8445 63.0011 11.788 64.6888 11.879C64.9211 11.8916 65.0393 11.7681 65.1596 11.6153C65.1659 11.5369 65.1722 11.4594 65.1785 11.381C65.1136 11.2125 65.1439 11.0367 65.1419 10.8641C65.1356 10.2897 65.1387 9.71422 65.1293 9.13981C65.122 8.69722 65.0058 8.60096 64.5559 8.61666C64.2253 8.62817 63.8947 8.63549 63.5651 8.63758C61.6326 8.647 59.699 8.65851 57.7665 8.65746C57.0927 8.65746 56.4733 8.90858 55.8413 9.07075C55.3276 9.20259 54.8871 9.55519 54.4225 9.83036C53.4254 10.4226 53.1345 11.4322 52.897 12.4346C52.7725 12.9609 52.8395 13.5458 52.9159 14.0982C53.0048 14.7459 53.3061 15.3224 53.6943 15.8225C54.2991 16.602 55.1372 17.1429 56.0119 17.5437C56.9159 17.957 57.8366 18.3504 58.7866 18.6758C59.7649 19.0106 60.7108 19.4532 61.6388 19.9135C62.0385 20.1113 62.479 20.3488 62.5774 20.8887C62.726 21.709 62.4822 22.1578 61.6776 22.4926C61.551 22.5753 61.4139 22.5879 61.2706 22.5502C61.1377 22.6601 60.9724 22.6328 60.8206 22.6454C59.9166 22.7155 59.0116 22.6799 58.1065 22.682C56.6093 22.6862 55.1131 22.6757 53.6158 22.6726C53.0414 22.6716 52.9159 22.795 52.9127 23.3715C52.9096 24.015 52.9127 24.6595 52.9117 25.303C52.9106 25.9235 53.0603 26.0731 53.6692 26.072C55.4448 26.0678 57.2203 26.0699 58.9959 26.0595C59.6394 26.0563 60.2818 26.0542 60.9242 25.9726C61.1963 25.9381 61.3909 25.733 61.6556 25.7236C62.3817 25.6985 63.0367 25.4369 63.6854 25.1408C63.8078 25.0843 63.9386 25.0247 64.084 25.0456L64.082 25.0467Z" fill="#E8ECDF"/>
<path id="Vector_5" d="M83.8957 18.7207C83.8957 17.779 83.8863 16.8384 83.8622 15.8968C83.8423 15.1225 83.654 14.3765 83.518 13.6284C83.4259 13.1188 83.2188 12.6041 83.0043 12.1071C82.5795 11.1215 81.9485 10.3074 81.1303 9.642C80.4984 9.12722 79.79 8.7788 78.9676 8.58523C78.2823 8.42306 77.6211 8.28913 76.9148 8.31006C76.3697 8.32575 75.834 8.31215 75.3433 8.59779C75.2857 8.63127 75.2104 8.63755 75.1424 8.65011C74.3744 8.78194 73.71 9.13663 73.0843 9.58445C72.8479 9.75395 72.6512 9.98309 72.3687 10.0678C72.2954 9.85753 72.4304 9.68489 72.4241 9.49342C72.4084 9.01108 72.3885 8.52874 72.3896 8.04639C72.3927 5.93706 72.4032 3.82772 72.4126 1.71839C72.4126 1.54261 72.4011 1.36997 72.3404 1.20361C72.2536 0.965056 72.0998 0.833223 71.8267 0.860426C71.044 0.940991 70.2593 0.878213 69.4756 0.889723C69.0006 0.897047 68.8834 0.978658 68.8416 1.45368C68.8102 1.81674 68.8416 2.18504 68.8416 2.5502C68.8416 9.69954 68.8416 16.8478 68.8416 23.9972C68.8416 24.5025 68.8301 25.0079 68.8343 25.5143C68.8374 25.9025 68.9807 26.0553 69.3658 26.0605C70.0804 26.0699 70.795 26.0647 71.5096 26.0636C71.7189 26.0636 71.9303 26.0762 72.1364 26.05C72.4827 26.0071 72.5779 25.8795 72.5779 25.5332C72.5758 22.2907 72.5748 19.0472 72.5695 15.8047C72.5685 15.0932 72.8772 14.4633 73.0603 13.7989C73.1628 13.4254 73.4516 13.2088 73.664 12.9316C74.0971 12.3666 74.6914 11.9721 75.3757 11.8424C76.0882 11.7074 76.828 11.6749 77.5635 11.7806C78.4225 11.9041 79.0765 12.355 79.5912 13.0215C80.1887 13.7947 80.3927 14.7165 80.4032 15.6592C80.4346 18.344 80.4189 21.0299 80.423 23.7147C80.423 24.2724 80.4157 24.83 80.4283 25.3877C80.4387 25.8585 80.5967 26.0343 81.0602 26.0218C81.7916 26.0019 82.5209 25.982 83.2533 25.9925C83.6299 25.9977 83.9135 25.8146 83.9072 25.3124C83.8769 23.1162 83.8926 20.919 83.8947 18.7228L83.8957 18.7207Z" fill="#E8ECDF"/>
<path id="Vector_6" d="M103.926 22.3838C103.865 20.3111 103.819 18.2384 103.763 16.1668C103.741 15.3674 103.523 14.6235 103.315 13.8775C103.042 12.8981 102.473 12.0527 101.846 11.268C101.093 10.3242 100.183 9.53742 99.0669 9.04043C98.3073 8.70247 97.533 8.38754 96.6949 8.28186C96.245 8.22536 95.7962 8.17095 95.3452 8.11968C95.2081 8.10399 95.0616 8.07574 94.9309 8.10608C94.3669 8.23687 93.7925 8.28918 93.2202 8.29965C92.7943 8.30697 92.4731 8.56331 92.0933 8.67317C91.499 8.84477 90.8911 9.0467 90.3952 9.4443C89.8155 9.90885 89.2369 10.3703 88.72 10.9154C87.9562 11.7221 87.3933 12.646 87.0041 13.6682C86.5396 14.8882 86.5312 16.1898 86.4559 17.4736C86.4475 17.6096 86.4925 17.7488 86.5165 17.8848C86.5521 18.0898 86.6055 18.2939 86.573 18.5052L86.595 18.5282L86.5825 18.5575C86.6662 19.9512 87.2364 21.1618 88.0054 22.2939C88.6866 23.2962 89.5309 24.1259 90.5615 24.7788C91.2887 25.2402 92.0441 25.6002 92.8969 25.7414C92.9984 25.7582 93.103 25.7843 93.1961 25.8293C93.5832 26.0176 93.9944 26.0647 94.4171 26.0637C94.8534 26.0626 95.2908 26.0312 95.724 26.0637C96.4783 26.1191 97.1699 25.8272 97.8594 25.6326C98.6797 25.4003 99.476 25.0289 100.203 24.5476C100.404 24.4147 100.544 24.4942 100.547 24.7286C100.549 24.8845 100.506 25.0414 100.513 25.1963C100.532 25.5949 100.653 25.71 101.05 25.7111C101.799 25.7132 102.549 25.7111 103.298 25.7048C103.795 25.7006 103.915 25.5866 103.959 25.1032C103.97 24.9818 103.965 24.8594 103.964 24.738C103.956 23.9543 103.949 23.1707 103.926 22.3859V22.3838ZM100.153 21.031C99.3222 21.5656 98.504 22.1694 97.5613 22.4445C96.3873 22.7867 95.1998 23.0618 93.9212 22.681C92.8079 22.3493 91.8997 21.7927 91.1495 20.9557C90.8053 20.5717 90.6055 20.0705 90.4056 19.5902C89.8971 18.3734 89.781 17.1137 90.0154 15.8173C90.0583 15.5777 90.0028 15.3046 90.098 15.0943C90.5082 14.1913 90.8859 13.2769 91.6978 12.6073C92.2743 12.1322 92.9042 11.7911 93.5853 11.5348C94.0446 11.3622 94.5458 11.3925 95.0324 11.3768C95.3442 11.3663 95.658 11.4113 95.9719 11.4145C96.788 11.4239 97.4692 11.7828 98.1336 12.2086C98.8859 12.691 99.4069 13.3899 99.8349 14.1369C100.048 14.5094 100.181 14.9614 100.245 15.4124C100.389 16.4315 100.465 17.4547 100.491 18.4843C100.491 19.111 100.489 19.7378 100.491 20.3645C100.492 20.647 100.391 20.8761 100.152 21.0299L100.153 21.031Z" fill="#E8ECDF"/>
<path id="Vector_7" d="M79.7733 38.6841C79.4092 38.7081 79.043 38.7291 78.6779 38.7312C77.8764 38.7374 77.0739 38.7353 76.2724 38.7291C76.1375 38.728 75.969 38.7312 75.9303 38.5564C75.8937 38.3869 75.8696 38.1902 76.0517 38.0845C76.3143 37.9328 76.4147 37.6723 76.5476 37.4296C76.6313 37.2779 76.7255 37.1303 76.8259 36.9891C77.3554 36.2357 77.8231 35.4416 78.3253 34.6705C78.749 34.0197 79.2073 33.3909 79.6143 32.7286C79.8884 32.2839 80.1228 31.8225 80.1804 31.2983C80.2149 30.9865 80.1155 30.8902 79.8016 30.885C79.3506 30.8766 78.9028 30.8546 78.4487 30.8724C77.3899 30.9122 76.3289 30.8808 75.269 30.8766C74.6266 30.8735 74.5921 30.9017 74.5283 31.5232C74.4812 31.9815 74.5617 32.0725 75.0326 32.0809C75.3988 32.0882 75.765 32.1091 76.1301 32.0872C76.7192 32.0526 77.3114 32.1207 77.8994 32.0349C78.1474 31.9982 78.3347 32.1112 78.5272 32.3058C78.1526 32.9117 77.7718 33.4704 77.4077 34.0343C76.7244 35.0921 76.0496 36.1583 75.335 37.1962C75.155 37.4578 75.0933 37.7843 74.8694 38.0008C74.4739 38.3827 74.3347 38.8253 74.3734 39.3663C74.409 39.8643 74.4226 39.9166 74.9039 39.9135C76.4555 39.8999 78.0061 39.8852 79.5568 39.8633C80.307 39.8528 80.3258 39.7869 80.2117 39.0304C80.1636 38.7092 80.0318 38.6652 79.7723 38.683L79.7733 38.6841Z" fill="#888F77"/>
<path id="Vector_8" d="M49.9674 1.55103C49.9695 1.00486 49.7905 0.863611 49.235 0.882444C48.4869 0.907555 47.7377 0.916972 46.9896 0.905462C46.5073 0.898138 46.2938 1.05718 46.3388 1.52278C46.3692 1.83771 46.3503 2.14951 46.3503 2.46131C46.3524 9.50184 46.3524 16.5434 46.3514 23.5839C46.3514 24.2463 46.3409 24.9075 46.3409 25.5698C46.3409 25.9957 46.4508 26.1034 46.8682 26.0752C47.0953 26.0595 47.3192 26.0626 47.5462 26.0689C48.1719 26.0846 48.7987 26.0919 49.4254 26.0877C49.8345 26.0846 49.9736 25.9182 49.959 25.4945C49.9527 25.3208 49.9339 25.1461 49.9339 24.9724C49.9328 21.1555 49.9328 17.3386 49.9328 13.5228H49.9412C49.9412 11.9198 49.9381 10.3159 49.9412 8.71293C49.9475 6.32528 49.96 3.93763 49.9663 1.54998L49.9674 1.55103Z" fill="#E8ECDF"/>
<path id="Vector_9" d="M56.8133 31.0858C56.5298 31.0116 56.2567 30.8557 55.9522 30.8891C54.8871 31.0063 53.801 31.0272 52.8541 31.6508C52.3007 32.016 51.8466 32.467 51.4134 32.9681C51.1173 33.3103 51.0294 33.7319 50.7804 34.0793C50.6758 34.2258 50.6391 34.3995 50.6349 34.5742C50.6161 35.3213 50.5512 36.0694 50.6883 36.8154C50.7584 37.1983 50.8641 37.5896 51.0901 37.8794C51.4239 38.3063 51.7409 38.7416 52.1856 39.1036C53.1398 39.88 54.1672 40.3069 55.3935 40.2409C55.4981 40.2409 55.6028 40.2347 55.7074 40.2409C56.783 40.3184 57.756 39.9668 58.5889 39.3547C59.0535 39.0136 59.6017 38.6579 59.7785 38.0217C60.4 37.3573 60.4461 36.4805 60.4963 35.6718C60.5674 34.5313 60.1793 33.4735 59.3809 32.6155C58.6768 31.8591 57.8125 31.3464 56.8133 31.0848V31.0858ZM59.1037 35.8747C58.9425 37.2768 58.2196 38.2917 56.8991 38.8431C56.76 38.9017 56.603 38.955 56.4471 38.8724C56.1447 39.0042 55.835 39.0366 55.5159 38.9404C55.1277 39.1214 54.7333 39.0377 54.3598 38.9205C53.9015 38.7761 53.5123 38.5365 53.1283 38.2059C52.6658 37.8083 52.4293 37.3113 52.1521 36.8227C52.014 36.5789 51.88 36.2912 52.0443 35.9877C51.9585 35.6728 51.9533 35.3579 52.0506 35.044C52.0359 35.0136 52.0014 34.976 52.0098 34.953C52.2306 34.3398 52.3519 33.6723 52.9347 33.2559C53.0048 33.2056 53.0739 33.1502 53.1335 33.0874C53.8073 32.3853 54.6852 32.1583 55.5986 32.1709C56.8071 32.1876 57.7843 32.7296 58.5 33.7246C58.9645 34.3712 59.1937 35.0921 59.1037 35.8737V35.8747Z" fill="#888F77"/>
<path id="Vector_10" d="M48.5068 36.9713C48.4754 36.5026 48.4681 36.0317 48.4534 35.5609C48.4168 34.3786 48.5015 33.1931 48.3959 32.0129C48.3718 31.7482 48.5832 31.4238 48.3069 31.2261C48.0736 31.0587 47.7597 31.2188 47.4866 31.1654C47.4532 31.1591 47.4165 31.1602 47.382 31.1612C47.1905 31.1706 47.1047 31.2659 47.111 31.4626C47.1225 31.8277 47.1194 32.1918 47.1257 32.557C47.1372 33.2015 47.157 33.8471 47.1612 34.4916C47.1644 34.9677 47.0639 35.0671 46.5837 35.0807C46.2886 35.089 45.9925 35.0733 45.6964 35.0744C45.0174 35.0765 44.3373 35.088 43.6582 35.0859C43.2062 35.0848 43.0671 34.9551 43.0388 34.5031C43.0179 34.1735 43.0189 33.8418 43.0148 33.5102C43.0074 32.9169 43.0169 32.3237 42.9938 31.7315C42.9771 31.2931 42.8714 31.2146 42.4519 31.2742C42.2897 31.2972 42.1442 31.2952 41.9978 31.2156C41.7927 31.1037 41.7058 31.2313 41.6713 31.4061C41.6483 31.5243 41.6535 31.6488 41.6525 31.7702C41.6473 32.309 41.6567 32.8489 41.6609 33.3877C41.6682 34.4163 41.6703 35.4448 41.7132 36.4733C41.7132 37.4495 41.7184 38.4257 41.7121 39.4019C41.7069 40.2473 41.7467 40.2964 42.5701 40.3257C42.9321 40.3393 43.0859 40.2086 43.1027 39.8434C43.1361 39.1288 43.1466 38.411 43.0618 37.7027C43.0148 37.3072 43.133 36.9431 43.1508 36.5633C43.1581 36.4105 43.2659 36.3121 43.428 36.3027C43.5327 36.2964 43.6373 36.2964 43.7419 36.2964C44.7516 36.2996 45.7613 36.3404 46.772 36.2891C47.0461 36.2755 47.1727 36.4367 47.1748 36.7757C47.1769 37.1586 47.1644 37.5415 47.1644 37.9245C47.1644 38.5345 47.1591 39.1445 47.1738 39.7534C47.1822 40.0903 47.2962 40.2086 47.5913 40.2483C47.6771 40.2598 47.7649 40.2535 47.8528 40.2535C48.4189 40.2546 48.512 40.1845 48.4953 39.6341C48.4681 38.7458 48.5664 37.8586 48.5078 36.9703L48.5068 36.9713Z" fill="#888F77"/>
<path id="Vector_11" d="M72.3382 30.8755C71.7837 30.8797 71.2291 30.8871 70.6735 30.8881C70.4193 30.8881 70.2906 30.9823 70.187 31.247C69.9955 31.7304 69.8449 32.2295 69.6503 32.7118C69.4912 33.1073 69.3186 33.5028 69.1669 33.9035C68.9764 34.4047 68.8488 34.9289 68.5966 35.4144C68.31 35.9647 68.1091 36.5611 67.8873 37.1439C67.8088 37.35 67.8287 37.6566 67.5598 37.6775C67.2846 37.6985 67.2584 37.3887 67.1684 37.192C66.6526 36.0704 66.2163 34.9163 65.7193 33.7863C65.4421 33.1554 65.0487 32.5664 64.9325 31.8612C64.898 31.654 64.7149 31.4709 64.5998 31.2763C64.492 31.0953 64.3466 31.0241 64.1237 31.0356C63.7784 31.0534 63.43 31.0314 63.0837 31.0126C62.6443 30.9875 62.5522 31.0566 62.5239 31.4803C62.5166 31.5849 62.5197 31.6896 62.5208 31.7942C62.5396 33.8502 62.5553 35.9051 62.5794 37.9611C62.5846 38.4131 62.6296 38.8651 62.6338 39.3171C62.6401 40.017 62.7227 40.1018 63.4248 40.0422C63.4593 40.039 63.4949 40.0401 63.5294 40.0348C63.8475 39.9877 63.9396 39.8852 63.95 39.5546C63.9532 39.451 63.9385 39.3464 63.9343 39.2417C63.8737 37.6943 63.8151 36.1457 63.7523 34.5983C63.7345 34.1641 63.701 33.7298 63.678 33.2956C63.6717 33.1743 63.6654 33.0518 63.677 32.9315C63.6853 32.8426 63.7439 32.7662 63.836 32.7453C63.9417 32.7212 63.9793 32.8007 64.0264 32.8803C64.2022 33.1805 64.3058 33.5164 64.4638 33.8188C65.0204 34.885 65.4002 36.0254 65.8721 37.1251C66.2268 37.9517 66.6453 38.7552 66.9006 39.6236C66.9309 39.7251 66.9759 39.8214 67.068 39.8821C67.4897 40.1583 68.0264 40.0024 68.2137 39.5389C68.5391 38.7353 68.8603 37.9307 69.169 37.1209C69.3552 36.6333 69.6126 36.1771 69.7999 35.6937C70.0751 34.9844 70.2864 34.2499 70.5239 33.5258C70.5783 33.3605 70.7457 33.2601 70.7646 33.0696C70.7813 32.8959 70.7238 32.6072 70.9916 32.6354C71.2082 32.6574 71.1454 32.9441 71.1873 33.1199C71.1915 33.1366 71.1894 33.1544 71.1904 33.1722C71.2281 34.0594 71.2092 34.9477 71.227 35.836C71.25 36.9493 71.1956 38.0647 71.2019 39.179C71.2061 39.9448 71.2427 39.9867 71.9908 39.948C72.378 39.9281 72.4774 39.8277 72.4742 39.4364C72.4596 37.5028 72.4543 35.5692 72.4198 33.6357C72.4041 32.717 72.4261 31.7952 72.3413 30.8787L72.3382 30.8755Z" fill="#888F77"/>
<path id="Vector_12" d="M72.3383 30.8704C72.3383 30.8704 72.3383 30.8737 72.3383 30.8759C72.3394 30.8759 72.3416 30.8759 72.3427 30.8759L72.3372 30.8704H72.3383Z" fill="black"/>
</g>
</svg>
