<svg width="140" height="117" viewBox="0 0 140 117" fill="none" xmlns="http://www.w3.org/2000/svg">
<g id="1ITJa6">
<g id="Group">
<path id="Vector" d="M82.8256 48.5364C79.4458 48.5364 76.6263 48.5002 73.7977 48.5364C64.5168 48.69 59.2031 53.9404 59.1218 63.0858C59.0766 67.7488 59.0404 72.4209 59.1579 77.084C59.3387 84.1779 64.571 89.5549 71.6831 89.9073C75.2527 90.079 78.8313 89.9344 82.2743 89.9344C83.657 95.7813 82.8527 100.155 78.28 104.014C73.9604 107.656 70.4541 112.265 66.0802 117C48.4853 99.4865 31.3242 83.0303 14.9403 65.842C6.55407 57.0401 1.20421 46.1868 0.291487 33.6074C-1.39842 10.4367 18.7177 -2.02516 37.8037 0.740132C45.9098 1.91493 52.4616 5.82791 58.2633 11.3404C60.7575 13.7081 63.2607 16.0667 65.9627 18.6332C69.4239 15.0817 72.4964 11.5392 75.9666 8.44862C86.5488 -0.958807 101.161 -2.59449 113.804 3.96631C127.025 10.8253 134.128 23.7481 132.429 38.0897C132.167 40.3037 131.498 42.4907 130.766 44.6053C129.357 48.699 129.284 48.6719 124.215 48.0122C124.215 44.6324 124.305 41.1893 124.197 37.7463C123.971 30.5077 118.458 24.9862 111.22 24.8054C106.403 24.6879 101.586 24.7331 96.7696 24.7874C88.7809 24.8777 83.178 30.2908 82.8437 38.2975C82.7081 41.4424 82.8256 44.5963 82.8256 48.5183V48.5364Z" fill="url(#paint0_linear_463_1193)"/>
<path id="Vector_2" d="M91.89 57.51C91.89 50.9673 91.9804 45.256 91.8629 39.5537C91.7816 35.6136 93.3901 33.6616 97.4568 33.7791C101.523 33.8966 105.59 33.9056 109.648 33.7791C113.759 33.6526 115.296 35.6407 115.196 39.5627C115.07 44.2258 115.323 48.9069 115.133 53.5699C115.006 56.778 116.281 57.754 119.371 57.6185C124.025 57.4016 128.706 57.5823 133.369 57.5642C137.463 57.5371 139.478 59.462 139.388 63.637C139.307 67.3964 139.415 71.1648 139.361 74.9332C139.298 79.5782 137.87 81.1235 133.144 81.2771C128.48 81.4307 123.799 81.4849 119.145 81.2681C115.901 81.1144 114.934 82.4338 115.061 85.4883C115.232 89.9977 115.015 94.5252 115.124 99.0437C115.205 102.586 113.732 104.412 110.099 104.394C105.735 104.366 101.37 104.375 97.0049 104.394C93.4534 104.412 91.7906 102.722 91.8629 99.125C91.9533 94.6065 91.6551 90.07 91.9533 85.5787C92.2153 81.6838 90.6248 80.5993 87.001 80.7801C82.347 81.006 77.6659 80.753 73.0029 80.8253C69.84 80.8795 68.0958 79.3161 67.9784 76.3158C67.7886 71.6618 67.7163 66.9807 67.9512 62.3357C68.1229 58.9198 70.3008 57.4377 73.771 57.51C79.5998 57.6365 85.4377 57.5462 91.8991 57.5462L91.89 57.51Z" fill="url(#paint1_linear_463_1193)"/>
</g>
</g>
<defs>
<linearGradient id="paint0_linear_463_1193" x1="66.4348" y1="14.7439" x2="66.4348" y2="117" gradientUnits="userSpaceOnUse">
<stop stop-color="white"/>
<stop offset="1" stop-color="white" stop-opacity="0"/>
</linearGradient>
<linearGradient id="paint1_linear_463_1193" x1="103.597" y1="42.6727" x2="103.597" y2="104.394" gradientUnits="userSpaceOnUse">
<stop stop-color="white"/>
<stop offset="1" stop-color="white" stop-opacity="0"/>
</linearGradient>
</defs>
</svg>
