<svg width="140" height="117" viewBox="0 0 140 117" fill="none" xmlns="http://www.w3.org/2000/svg">
<g id="1ITJa6">
<g id="Group">
<path id="Vector" d="M82.8239 48.5364C79.4441 48.5364 76.6246 48.5002 73.796 48.5364C64.5151 48.69 59.2014 53.9404 59.1201 63.0858C59.0749 67.7488 59.0387 72.4209 59.1562 77.084C59.337 84.1779 64.5693 89.5549 71.6814 89.9073C75.251 90.079 78.8296 89.9344 82.2726 89.9344C83.6553 95.7813 82.851 100.155 78.2783 104.014C73.9587 107.656 70.4524 112.265 66.0785 117C48.4836 99.4865 31.3225 83.0303 14.9386 65.842C6.55236 57.0401 1.20251 46.1868 0.289778 33.6074C-1.40012 10.4367 18.716 -2.02516 37.802 0.740132C45.9081 1.91493 52.4599 5.82791 58.2616 11.3404C60.7558 13.7081 63.259 16.0667 65.961 18.6332C69.4221 15.0817 72.4947 11.5392 75.9649 8.44862C86.5471 -0.958807 101.16 -2.59449 113.802 3.96631C127.023 10.8253 134.126 23.7481 132.428 38.0897C132.165 40.3037 131.497 42.4907 130.765 44.6053C129.355 48.699 129.283 48.6719 124.213 48.0122C124.213 44.6324 124.303 41.1893 124.195 37.7463C123.969 30.5077 118.456 24.9862 111.218 24.8054C106.401 24.6879 101.585 24.7331 96.7678 24.7874C88.7792 24.8777 83.1763 30.2908 82.842 38.2975C82.7064 41.4424 82.8239 44.5963 82.8239 48.5183V48.5364Z" fill="#D2D8C5"/>
<path id="Vector_2" d="M91.8883 57.51C91.8883 50.9673 91.9787 45.256 91.8612 39.5537C91.7799 35.6136 93.3884 33.6616 97.455 33.7791C101.522 33.8966 105.588 33.9056 109.646 33.7791C113.758 33.6526 115.294 35.6407 115.195 39.5627C115.068 44.2258 115.321 48.9069 115.131 53.57C115.005 56.7781 116.279 57.754 119.37 57.6185C124.024 57.4016 128.705 57.5823 133.368 57.5643C137.461 57.5372 139.477 59.462 139.386 63.6371C139.305 67.3964 139.413 71.1648 139.359 74.9332C139.296 79.5782 137.868 81.1235 133.142 81.2771C128.479 81.4308 123.798 81.485 119.144 81.2681C115.899 81.1145 114.932 82.4338 115.059 85.4883C115.231 89.9977 115.014 94.5252 115.122 99.0437C115.204 102.586 113.731 104.412 110.098 104.394C105.733 104.366 101.368 104.375 97.0032 104.394C93.4517 104.412 91.7889 102.722 91.8612 99.125C91.9516 94.6066 91.6533 90.07 91.9516 85.5787C92.2136 81.6838 90.6231 80.5994 86.9993 80.7801C82.3453 81.006 77.6642 80.753 73.0012 80.8253C69.8382 80.8795 68.0941 79.3161 67.9766 76.3159C67.7869 71.6618 67.7146 66.9807 67.9495 62.3358C68.1212 58.9198 70.2991 57.4378 73.7693 57.51C79.5981 57.6366 85.436 57.5462 91.8973 57.5462L91.8883 57.51Z" fill="#D2D8C5"/>
</g>
</g>
</svg>
