<svg width="119" height="63" viewBox="0 0 119 63" fill="none" xmlns="http://www.w3.org/2000/svg">
<path d="M59.2398 0.0119463C59.8767 -0.0514585 60.1205 0.338833 60.3008 0.846072C61.4872 4.18398 62.6806 7.51767 63.8754 10.8528C64.0966 11.4685 64.1699 12.2843 64.6095 12.6351C65.0858 13.0156 65.9199 12.7535 66.5976 12.7746C70.0919 12.8859 73.5876 12.986 77.0834 13.0874C77.6272 13.1029 78.0837 13.1846 78.2881 13.8187C78.4867 14.4372 78.2162 14.7853 77.771 15.1277C74.6275 17.5441 71.4967 19.9788 68.3419 22.3812C67.9136 22.7066 67.8319 22.9744 67.9869 23.4886C69.1239 27.2619 70.223 31.0479 71.3361 34.8296C71.4868 35.3425 71.5939 35.8075 71.0514 36.2119C70.5033 36.6219 70.0652 36.4584 69.5833 36.1273C66.3524 33.9096 63.1061 31.7144 59.8922 29.4726C59.3723 29.1105 59.0623 29.1401 58.5579 29.491C55.3214 31.7411 52.054 33.9476 48.8006 36.1724C48.3821 36.4584 47.996 36.5979 47.5099 36.2795C46.9731 35.9273 46.9393 35.482 47.0999 34.9339C47.9636 31.9849 48.8189 29.0316 49.6812 26.0826C49.9376 25.2048 50.187 24.3228 50.4857 23.4576C50.6478 22.9884 50.5689 22.7193 50.1546 22.4037C46.9971 20.0042 43.8649 17.5723 40.7256 15.1474C40.4311 14.9191 40.1113 14.7078 40.1043 14.2653C40.0944 13.5848 40.4537 13.148 41.1483 13.1227C43.986 13.0184 46.8252 12.931 49.6629 12.8451C50.8831 12.8084 52.1033 12.7605 53.3221 12.7732C53.8138 12.7789 54.004 12.5943 54.1604 12.149C55.4806 8.38702 56.8305 4.63486 58.1634 0.87707C58.3508 0.347287 58.5959 -0.0725934 59.237 0.0105373L59.2398 0.0119463ZM48.2215 35.2002C48.5822 35.1932 48.8034 34.9226 49.0584 34.7381C52.2498 32.4259 55.444 30.1166 58.6128 27.772C59.0989 27.4127 59.4089 27.4366 59.8767 27.7818C63.0878 30.1476 66.3186 32.4865 69.5495 34.824C69.7608 34.9776 70.0003 35.3383 70.2469 35.1438C70.4766 34.9635 70.2046 34.6253 70.1229 34.3717C68.9041 30.5998 67.6966 26.8237 66.4328 23.0673C66.2158 22.422 66.3806 22.1332 66.8893 21.764C70.1286 19.4068 73.4298 17.1341 76.5958 14.6768C76.7677 14.5429 77.127 14.526 77.0298 14.2372C76.9439 13.9807 76.6184 14.1047 76.4 14.1047C72.4097 14.0991 68.4209 14.0878 64.4306 14.1188C63.7641 14.1244 63.4584 13.9342 63.2512 13.2762C62.0649 9.49449 60.8278 5.72824 59.5977 1.96059C59.5188 1.71965 59.5202 1.40544 59.1468 1.24623C59.0482 1.51675 58.9538 1.75206 58.8763 1.99018C57.6463 5.78178 56.4078 9.57198 55.2002 13.3706C55.0255 13.923 54.7902 14.1343 54.1773 14.1301C50.118 14.0977 46.0573 14.1118 41.9965 14.1188C41.8049 14.1188 41.5231 14.0005 41.4358 14.2456C41.3512 14.4809 41.626 14.6049 41.7796 14.7148C45.0667 17.0932 48.3539 19.4716 51.6651 21.8162C52.1568 22.1642 52.2456 22.4643 52.061 23.0223C50.7887 26.8505 49.5488 30.6886 48.3032 34.5239C48.2342 34.7366 48.0735 34.9438 48.2215 35.2002Z" fill="#E8ECDF"/>
<path d="M77.6644 32.5444C77.6461 32.9981 77.4672 33.3165 77.0839 33.4715C76.6824 33.6335 76.2977 33.5842 75.999 33.2362C75.7116 32.9009 75.627 32.4894 75.8708 32.1329C76.0765 31.8328 76.1427 31.6412 75.9412 31.2974C75.7524 30.9733 75.9004 30.6056 76.2104 30.3661C76.4978 30.1434 76.8261 30.1463 77.1361 30.3139C77.4658 30.4929 77.6222 30.8409 77.4968 31.1481C77.3263 31.5651 77.3023 31.8948 77.5968 32.2471C77.663 32.326 77.6489 32.4697 77.6644 32.5444ZM76.9698 32.5303C76.9613 32.3358 76.9247 32.1189 76.6993 32.1146C76.5147 32.1118 76.4611 32.3133 76.4583 32.4824C76.4555 32.6684 76.4612 32.9023 76.6894 32.9248C76.936 32.9488 76.943 32.7106 76.9698 32.5303Z" fill="#E8ECDF"/>
<path d="M36.4491 31.8312C36.4491 31.6199 36.4491 31.4099 36.4491 31.1986C36.4491 30.1165 36.4772 30.0939 37.5326 30.1982C37.7284 30.2179 37.9074 30.2123 37.9144 30.4856C37.9215 30.7195 37.8426 30.8393 37.596 30.8308C37.3719 30.8238 37.1789 30.8393 37.1775 31.1535C37.1761 31.424 37.2705 31.541 37.541 31.5311C37.7608 31.5227 37.8045 31.6734 37.8116 31.8566C37.8186 32.0637 37.727 32.1624 37.5199 32.1483C37.224 32.1285 37.1846 32.3075 37.1789 32.5498C37.1719 32.864 37.3691 32.8795 37.5946 32.8753C37.8397 32.8697 37.913 32.9993 37.9116 33.229C37.9102 33.5051 37.7341 33.5164 37.534 33.515C37.3705 33.5136 37.2029 33.4939 37.0422 33.5178C36.5294 33.5939 36.3899 33.36 36.442 32.8838C36.4801 32.5371 36.4491 32.1821 36.4491 31.8312Z" fill="#E8ECDF"/>
<path d="M81.6255 30.1503C82.2384 30.1658 82.6132 30.7224 82.3652 31.3649C82.2426 31.6819 82.2736 31.8777 82.4215 32.168C82.6568 32.6287 82.5751 33.1233 82.1102 33.4065C81.6804 33.6686 81.2056 33.6672 80.8364 33.2374C80.7152 33.0951 80.5941 32.9035 80.7293 32.7302C80.8576 32.5639 81.0731 32.5949 81.2366 32.7006C81.3958 32.8034 81.5212 33.1021 81.7213 32.7893C81.8537 32.5808 81.8593 32.292 81.6367 32.1511C81.1746 31.858 81.1422 31.6438 81.655 31.3789C81.8481 31.2789 81.8368 31.0535 81.7368 30.8787C81.6367 30.704 81.5057 30.7505 81.4282 30.9069C81.2873 31.1901 81.0379 31.2282 80.8646 31.038C80.6885 30.8435 80.8632 30.5927 80.997 30.4039C81.145 30.1954 81.3831 30.1559 81.6255 30.1517V30.1503Z" fill="#E8ECDF"/>
<path d="M39.9288 30.1349C40.0654 30.1673 40.2275 30.1926 40.3796 30.2476C40.5797 30.3209 40.5628 30.504 40.536 30.6646C40.5022 30.8661 40.3585 30.8295 40.2148 30.7844C40.0246 30.7266 39.8273 30.7154 39.7329 30.9324C39.63 31.1705 39.7808 31.3311 39.9555 31.4664C40.1218 31.5946 40.3148 31.6974 40.4585 31.8468C40.8305 32.2343 40.8728 32.6837 40.5797 33.129C40.2965 33.5587 39.871 33.6137 39.3962 33.5066C39.1214 33.4446 39.0721 33.2642 39.1003 33.0374C39.1327 32.7725 39.3144 32.8655 39.4722 32.8965C39.6991 32.9416 39.9147 32.9092 39.9964 32.6668C40.0809 32.4174 39.8865 32.2822 39.709 32.1624C39.3116 31.8961 38.9354 31.6298 38.965 31.0648C38.9974 30.4603 39.3342 30.1912 39.9288 30.132V30.1349Z" fill="#E8ECDF"/>
<path d="M42.4992 30.201C42.6627 30.201 42.8261 30.2024 42.991 30.201C43.1868 30.1982 43.3785 30.2024 43.3925 30.4687C43.4024 30.6449 43.3799 30.8083 43.1587 30.8252C42.7613 30.8548 42.8346 31.1493 42.8332 31.3959C42.8289 31.9566 42.8275 32.5188 42.836 33.0796C42.8402 33.3473 42.8008 33.5122 42.4598 33.515C42.1005 33.5178 42.0977 33.3234 42.1005 33.0712C42.1061 32.5569 42.1118 32.0426 42.0991 31.5283C42.092 31.231 42.2428 30.8449 41.706 30.8027C41.4918 30.7858 41.5369 30.5561 41.5524 30.3983C41.5721 30.2067 41.7285 30.2095 41.8694 30.2067C42.0794 30.2024 42.2907 30.2067 42.5007 30.2067V30.2039L42.4992 30.201Z" fill="#E8ECDF"/>
<path d="M79.3202 30.2025C80.2445 30.2011 80.2487 30.2025 79.9246 31.0859C79.6752 31.7665 79.392 32.4343 79.1652 33.1205C79.0525 33.4615 78.8425 33.5953 78.541 33.4883C78.1437 33.346 78.486 33.0797 78.5354 32.919C78.7129 32.3399 78.9595 31.782 79.1736 31.2141C79.2469 31.0211 79.3737 30.7943 78.9919 30.7774C78.7538 30.7675 78.4015 30.8633 78.4734 30.435C78.5382 30.0503 78.8862 30.2504 79.1102 30.2025C79.1779 30.1884 79.2497 30.1997 79.3202 30.1997V30.2025Z" fill="#E8ECDF"/>
<path d="M74.8624 31.9144C74.8624 32.3357 74.8539 32.7556 74.8652 33.1769C74.8709 33.4122 74.7891 33.5108 74.544 33.5136C74.2875 33.5164 74.2227 33.3939 74.2241 33.1712C74.2269 32.5865 74.2312 32.0032 74.2185 31.4185C74.2143 31.2184 74.3073 30.9817 74.1114 30.8253C73.9212 30.6745 73.8014 30.4899 73.9747 30.2983C74.1452 30.1109 74.4158 30.1997 74.6412 30.218C74.9159 30.2405 74.8568 30.4772 74.8596 30.652C74.868 31.0718 74.8624 31.4931 74.8624 31.9144Z" fill="#E8ECDF"/>
<path d="M44.2854 32.7303C44.5135 32.7331 44.6754 32.8612 44.6908 33.0977C44.7106 33.3708 44.543 33.5412 44.2727 33.5412C44.0348 33.5412 43.8814 33.3821 43.8814 33.1399C43.8814 32.9034 44.0207 32.757 44.2854 32.7303Z" fill="#E8ECDF"/>
<path d="M48.2212 35.2002C48.0732 34.9438 48.2339 34.7367 48.3029 34.5239C49.5485 30.6872 50.7884 26.8491 52.0607 23.0223C52.2467 22.4643 52.1565 22.1642 51.6648 21.8162C48.3536 19.4716 45.0664 17.0932 41.7793 14.7148C41.6271 14.6049 41.3523 14.4809 41.4355 14.2456C41.5228 14.0005 41.8046 14.1202 41.9962 14.1188C46.057 14.1118 50.1163 14.0991 54.177 14.1301C54.7899 14.1343 55.0238 13.923 55.1999 13.3707C56.4075 9.572 57.646 5.7818 58.876 1.9902C58.9535 1.75067 59.0479 1.51677 59.1465 1.24625C59.5199 1.40546 59.5185 1.71967 59.5974 1.96061C60.8275 5.72826 62.0646 9.49451 63.2509 13.2763C63.4581 13.9357 63.7638 14.1245 64.4303 14.1188C68.4205 14.0878 72.4094 14.0991 76.3997 14.1047C76.6181 14.1047 76.9436 13.9808 77.0295 14.2372C77.1267 14.526 76.7674 14.5429 76.5955 14.6768C73.4295 17.1355 70.1283 19.4082 66.889 21.764C66.3803 22.1346 66.2155 22.4235 66.4325 23.0674C67.6963 26.8237 68.9052 30.5999 70.1226 34.3717C70.2043 34.6254 70.4763 34.9635 70.2466 35.1439C70.0014 35.3383 69.7605 34.9762 69.5492 34.824C66.3183 32.4851 63.0875 30.1476 59.8764 27.7819C59.4072 27.4367 59.0986 27.4113 58.6125 27.772C55.4437 30.1166 52.2495 32.4245 49.0581 34.7381C48.8031 34.9227 48.5819 35.1932 48.2212 35.2002Z" fill="#888F77"/>
<path d="M17.8218 60.4749C16.7595 60.1381 16.4946 59.3829 16.5016 58.3642C16.527 54.6092 16.5242 50.8543 16.5044 47.1007C16.4988 46.1116 16.7454 45.3521 17.7965 45.0478C18.5883 44.8181 18.2572 44.2066 18.2164 43.705C18.1727 43.1625 17.7655 43.1964 17.3837 43.1964C15.3646 43.1964 13.3469 43.1851 11.3278 43.2048C10.929 43.209 10.3824 42.9878 10.2598 43.6768C10.1513 44.2855 9.97797 44.8942 10.8149 45.1732C11.363 45.3564 11.6209 45.796 11.6237 46.3708C11.6293 47.5445 11.6251 48.7168 11.6307 49.8905C11.6321 50.3287 11.4349 50.526 10.9868 50.5189C9.90752 50.5048 8.82682 50.5006 7.74753 50.5203C7.23748 50.5302 7.01908 50.3287 7.03035 49.8158C7.04867 48.9718 7.07121 48.125 7.02613 47.2825C6.97258 46.2553 7.1008 45.4057 8.21814 44.9365C8.83105 44.68 8.39708 44.0573 8.39003 43.605C8.3844 43.2443 8.06596 43.2034 7.76303 43.2034C5.55654 43.2062 3.35006 43.209 1.14357 43.2006C0.760322 43.1992 0.460206 43.3119 0.460206 43.7219C0.460206 44.1587 0.0515975 44.7674 0.764549 44.9844C1.96924 45.3507 2.18341 46.2032 2.17073 47.3205C2.13268 50.9571 2.15664 54.5951 2.15382 58.2332C2.15382 58.5615 2.14396 58.8912 2.10169 59.2152C2.0411 59.683 1.81425 60.0212 1.35633 60.2382C0.251675 60.7595 0.27281 60.7834 0.437662 61.9811C0.499658 62.4292 0.715234 62.5785 1.1323 62.5771C3.45573 62.5686 5.77916 62.5686 8.1026 62.5658C8.2914 62.5658 8.49007 62.5588 8.62534 62.408C9.04944 61.9374 8.7916 60.6186 8.19559 60.4044C7.43473 60.1311 7.04022 59.6436 7.03881 58.839C7.03599 57.2666 7.03881 55.6942 7.03035 54.1217C7.02753 53.6948 7.18534 53.4539 7.64186 53.4553C8.76905 53.4595 9.89484 53.4581 11.022 53.4553C11.3841 53.4553 11.6279 53.6187 11.6265 53.9893C11.6237 55.7012 11.6195 57.4131 11.58 59.1251C11.5673 59.6478 11.2855 60.024 10.7712 60.2565C9.72576 60.7285 9.75958 60.7468 9.89625 61.8881C9.95684 62.3869 10.1696 62.5813 10.6557 62.5757C11.7815 62.563 12.9087 62.5715 14.0359 62.5729C15.1631 62.5729 16.2889 62.5729 17.4161 62.5729C17.8078 62.5729 18.2347 62.563 18.2051 62.0262C18.1755 61.4908 18.7377 60.7637 17.8204 60.4735L17.8218 60.4749Z" fill="#E8ECDF"/>
<path d="M87.6713 60.4818C87.057 60.1803 86.4666 59.8266 86.12 59.2039C85.0463 57.2792 83.9882 55.346 82.9145 53.4214C82.7793 53.179 82.7666 52.9958 82.9878 52.8084C84.2136 51.7714 85.1689 50.4075 86.7611 49.8129C87.436 49.5621 86.9865 48.952 87.0189 48.5082C87.0485 48.1052 86.7456 48.0122 86.4032 48.0136C84.6194 48.0136 82.837 48.0136 81.0533 48.0136C80.8377 48.0136 80.6249 48.0334 80.4967 48.2405C80.1275 48.8323 80.3685 49.7241 81.011 50.0369C81.3942 50.2243 81.5548 50.4399 81.1984 50.7654C80.3037 51.5826 79.392 52.3815 78.3522 53.3072C78.3522 50.206 78.3536 47.2993 78.3522 44.3925C78.3522 43.4414 78.1282 43.209 77.2151 43.2061C75.878 43.2005 74.5395 43.2033 73.2023 43.2061C72.8487 43.2061 72.4556 43.1709 72.4105 43.6767C72.3696 44.1361 72.0695 44.6814 72.7402 44.9519C73.6701 45.3281 73.8871 46.0453 73.88 46.9837C73.8491 50.8316 73.8547 54.6796 73.8786 58.5261C73.8843 59.4335 73.6574 60.1127 72.7613 60.503C71.9511 60.8552 72.4091 61.5583 72.433 62.1092C72.457 62.6644 72.9487 62.5573 73.3024 62.5587C75.2031 62.5657 77.1038 62.5615 79.0046 62.5446C79.3484 62.5418 79.857 62.6954 79.8725 62.1177C79.888 61.547 80.3262 60.8947 79.5005 60.4452C78.0042 59.6322 77.8464 57.723 79.0877 56.5423C79.478 56.1717 79.602 56.276 79.819 56.6804C80.7517 58.4148 81.7338 60.1225 82.6482 61.8669C82.9188 62.3826 83.2527 62.57 83.8078 62.5587C84.9336 62.5361 86.0608 62.5657 87.1866 62.5601C87.5459 62.5587 88.0292 62.6601 88.0306 62.0937C88.032 61.5442 88.4815 60.8778 87.6783 60.4818H87.6713Z" fill="#E8ECDF"/>
<path d="M56.1988 59.8364C55.5041 60.2436 55.4013 60.1732 55.397 59.3306C55.39 58.0399 55.3956 56.7493 55.3956 55.4587C55.3858 55.4587 55.3745 55.4587 55.3646 55.4587C55.3646 54.075 55.4309 52.6872 55.3491 51.3078C55.2181 49.066 53.7499 47.8304 51.5082 47.9684C50.4557 48.0332 49.5074 48.4433 48.569 48.8786C48.2337 49.035 47.9195 49.2971 47.6856 48.7237C47.5785 48.463 47.2629 48.4729 46.998 48.4729C45.6369 48.4757 44.2758 48.4771 42.9147 48.4729C42.5414 48.4714 42.1609 48.4813 42.1342 48.9618C42.1074 49.431 41.7439 50.0101 42.4526 50.3074C43.0838 50.5723 43.305 51.0978 43.3093 51.7178C43.3234 54.1582 43.3248 56.5971 43.3121 59.0375C43.3093 59.5504 43.1486 60.0661 42.6217 60.2478C41.7396 60.5508 41.7256 61.1623 41.8312 61.9245C41.8975 62.4078 42.0947 62.567 42.5498 62.5642C44.6154 62.5501 46.6796 62.5501 48.7452 62.5403C48.9255 62.5403 49.1228 62.567 49.2595 62.3853C49.623 61.902 49.4144 60.6888 48.8706 60.4395C48.1224 60.0957 47.8744 59.518 47.8801 58.7458C47.8927 56.9395 47.8801 55.1318 47.8927 53.3254C47.8941 53.0479 47.935 52.7618 48.0111 52.4955C48.2816 51.5501 49.0495 50.9809 49.8555 51.0992C50.6008 51.2091 50.9474 51.7727 50.9488 52.8746C50.9488 55.1501 50.939 57.427 50.9545 59.7026C50.9657 61.2736 51.8154 62.3036 53.2948 62.598C54.9983 62.9362 56.7779 62.1951 57.3696 60.9227C57.5641 60.5043 57.4133 60.214 57.1386 59.9139C56.8399 59.5898 56.5524 59.6293 56.2016 59.835L56.1988 59.8364Z" fill="#E8ECDF"/>
<path d="M116.736 59.8703C116.116 60.2324 115.979 60.1535 115.974 59.4222C115.962 58.0851 115.971 56.7479 115.971 55.4094H115.964C115.964 54.0948 115.999 52.7802 115.957 51.4684C115.882 49.1774 114.398 47.8487 112.11 47.9699C111.104 48.0234 110.197 48.4067 109.298 48.8139C108.885 49.0013 108.492 49.3183 108.173 48.6532C108.055 48.4053 107.711 48.4771 107.456 48.4771C106.166 48.4743 104.875 48.4729 103.584 48.4785C103.219 48.4799 102.767 48.3926 102.719 48.9421C102.676 49.4381 102.335 50.0341 103.073 50.3412C103.615 50.5667 103.858 51.002 103.859 51.5614C103.868 54.0948 103.865 56.6282 103.859 59.1615C103.859 59.6434 103.67 60.0844 103.212 60.2422C102.298 60.5578 102.298 61.2074 102.416 61.9809C102.478 62.3853 102.642 62.5628 103.045 62.5614C105.133 62.5558 107.222 62.5586 109.31 62.5558C109.498 62.5558 109.695 62.5558 109.828 62.3938C110.243 61.8865 110.016 60.6945 109.406 60.4085C108.713 60.0844 108.462 59.556 108.468 58.8332C108.476 57.6595 108.464 56.4873 108.467 55.3136C108.468 54.54 108.451 53.7637 108.496 52.9915C108.561 51.8813 109.346 51.0739 110.28 51.0922C111.144 51.1091 111.527 51.6854 111.531 53C111.537 55.229 111.523 57.4581 111.538 59.6871C111.549 61.2412 112.36 62.2599 113.794 62.5826C115.454 62.956 117.288 62.2388 117.911 61.0003C118.143 60.5395 118.008 60.1986 117.684 59.8674C117.363 59.5406 117.064 59.6786 116.737 59.8703H116.736Z" fill="#E8ECDF"/>
<path d="M101.419 58.1767C100.82 57.6653 100.398 57.6737 99.8341 58.1852C99.224 58.7375 98.5758 59.2377 97.8305 59.6012C96.2665 60.3635 94.1812 60.0451 93.2879 58.908C92.5524 57.9724 92.6707 57.5737 93.7796 57.244C93.8923 57.2102 94.0037 57.1749 94.115 57.1397C96.3722 56.4268 98.6322 55.718 100.684 54.495C101.54 53.985 101.804 53.3439 101.449 52.4858C100.787 50.8866 99.7791 49.5368 98.2405 48.6914C95.9044 47.4078 93.5274 47.5163 91.2688 48.8393C88.8918 50.2314 87.7914 52.4252 87.7238 54.7754C87.7519 58.7995 89.6062 61.4005 92.9554 62.4953C96.0002 63.4901 99.7876 62.2685 101.559 59.7196C101.994 59.0926 101.953 58.6332 101.419 58.1781V58.1767ZM92.365 53.806C92.3594 53.6891 92.365 53.5721 92.365 53.5397C92.403 52.6957 92.5411 51.9645 92.9286 51.2994C93.7867 49.8256 95.7339 49.8242 96.592 51.3008C96.7202 51.522 96.8301 51.7588 96.9132 52.0011C97.3965 53.4171 97.1654 53.9089 95.7748 54.4105C95.1802 54.6247 94.5828 54.8346 93.9741 55.0009C92.806 55.3207 92.4298 55.0304 92.365 53.806Z" fill="#E8ECDF"/>
<path d="M32.1148 58.1922C31.5217 57.6539 31.0849 57.6568 30.4705 58.2189C29.704 58.922 28.8784 59.5321 27.8695 59.8435C26.2788 60.3353 24.5542 59.8351 23.8271 58.6825C23.2776 57.8132 23.3805 57.5694 24.3738 57.2679C26.7522 56.5451 29.1221 55.7955 31.2948 54.5471C32.2022 54.0258 32.491 53.365 32.1388 52.5026C31.485 50.8964 30.4705 49.5508 28.9404 48.6969C26.6099 47.3979 24.2287 47.5162 21.9715 48.8336C19.5945 50.2201 18.487 52.4111 18.4377 55.1459C18.4377 55.2868 18.4349 55.4277 18.4377 55.5686C18.511 58.8572 20.4667 61.4934 23.5622 62.4797C26.6888 63.4773 30.3578 62.336 32.1994 59.7928C32.6813 59.1277 32.6587 58.6825 32.1148 58.1908V58.1922ZM23.0691 53.8877C23.0634 53.7707 23.0691 53.6538 23.0691 53.5354C23.0691 52.8225 23.21 52.1434 23.5143 51.4938C23.8891 50.6963 24.5077 50.2793 25.3827 50.2201C26.2562 50.1609 26.8677 50.5653 27.282 51.2965C27.4313 51.56 27.5525 51.8432 27.6483 52.1307C28.0738 53.4044 27.8075 53.9455 26.5394 54.3837C25.8969 54.6063 25.2544 54.8317 24.6007 55.0135C23.5171 55.3164 23.1254 55.0163 23.0677 53.8863L23.0691 53.8877Z" fill="#E8ECDF"/>
<path d="M71.427 58.1597C70.8591 57.6623 70.3984 57.6919 69.777 58.2442C69.1444 58.8064 68.4807 59.3263 67.6945 59.6659C66.008 60.3958 63.9846 59.9674 63.1702 58.7036C62.6095 57.8342 62.7123 57.5679 63.6902 57.2706C66.0714 56.5478 68.4413 55.7954 70.6182 54.5555C71.5185 54.0426 71.7891 53.3987 71.4847 52.5096C70.559 49.8072 67.8805 47.8599 65.0611 47.8374C60.6679 47.8036 57.4582 51.3345 57.7752 55.8504C58.0077 59.1573 59.9831 61.6301 63.1153 62.5304C66.1728 63.411 69.7418 62.2571 71.5059 59.8195C72.0131 59.1178 71.992 58.6514 71.4298 58.1583L71.427 58.1597ZM62.3925 53.8707C62.3854 53.7538 62.3925 53.6368 62.3925 53.5199C62.4164 52.7139 62.5475 51.9333 62.9828 51.2345C63.8311 49.872 65.6726 49.8466 66.5391 51.1894C66.6899 51.4233 66.8153 51.6811 66.9111 51.9432C67.4451 53.4001 67.1929 53.9271 65.7205 54.4357C65.1231 54.6414 64.5257 54.8556 63.9156 55.0134C62.8095 55.298 62.4601 55.0219 62.3925 53.8721V53.8707Z" fill="#E8ECDF"/>
<path d="M40.1865 60.4761C39.4002 60.1098 39.1128 59.5152 39.1297 58.6726C39.1607 57.1481 39.1382 55.6221 39.1382 54.0962H39.1353C39.1353 52.4998 39.1086 50.9034 39.148 49.3084C39.1649 48.6434 38.9099 48.4489 38.2815 48.4644C36.9204 48.4968 35.5593 48.4729 34.1982 48.4785C33.853 48.4799 33.4191 48.4123 33.3782 48.9111C33.3387 49.4 32.9639 50.0016 33.7008 50.3215C34.2659 50.5666 34.5167 51.026 34.5209 51.6051C34.5378 54.0919 34.5434 56.5788 34.5322 59.0657C34.5293 59.58 34.3532 60.0731 33.8206 60.2619C32.9879 60.5578 32.9597 61.1496 33.0541 61.8865C33.1189 62.3923 33.3134 62.5727 33.8093 62.5685C35.8284 62.5558 37.8461 62.5685 39.8652 62.5713C40.0751 62.5713 40.2992 62.5966 40.4668 62.4346C40.8656 62.0471 40.6965 60.7128 40.1865 60.4747V60.4761Z" fill="#E8ECDF"/>
<path d="M36.4377 47.6628C37.8072 47.6896 38.9499 46.6272 38.9851 45.2957C39.0204 43.9515 37.8678 42.806 36.4757 42.8046C35.1301 42.8032 34.0072 43.8557 33.9705 45.152C33.9325 46.5398 35.009 47.6346 36.4363 47.6628H36.4377Z" fill="#E8ECDF"/>
<path d="M116.221 41.5718C114.696 41.5619 113.435 42.8145 113.432 44.3419C113.429 45.8537 114.709 47.119 116.23 47.1077C117.731 47.0965 118.948 45.8777 118.968 44.3673C118.988 42.8314 117.761 41.5817 116.221 41.5718ZM116.216 46.5343C115.033 46.5385 114.013 45.5269 114.008 44.3475C114.004 43.1541 114.993 42.1622 116.194 42.1537C117.407 42.1467 118.378 43.1076 118.389 44.3264C118.4 45.5212 117.408 46.5287 116.216 46.5343Z" fill="#E8ECDF"/>
<path d="M117.36 43.6922C117.558 43.2738 117.217 42.9004 116.735 42.7764C115.402 42.434 115.071 42.6876 115.072 44.0529C115.072 44.0994 115.072 44.1459 115.072 44.1938C115.072 44.4982 115.054 44.8039 115.078 45.1055C115.096 45.345 114.917 45.7099 115.403 45.7198C115.875 45.7296 115.734 45.3816 115.771 45.1266C115.801 44.9223 115.641 44.6137 116.019 44.5799C116.337 44.5517 116.554 44.7095 116.652 45.0195C116.694 45.1534 116.746 45.2858 116.773 45.4225C116.846 45.7987 117.145 45.7606 117.379 45.7015C117.677 45.6268 117.48 45.3957 117.435 45.2421C117.287 44.7321 117.09 44.2741 117.363 43.6922H117.36ZM116.196 43.9543C115.984 43.9543 115.772 43.9881 115.767 43.6556C115.761 43.3696 115.877 43.2724 116.144 43.3019C116.374 43.3217 116.652 43.3062 116.65 43.6387C116.65 43.9163 116.423 43.9543 116.196 43.9543Z" fill="#E8ECDF"/>
</svg>
