<svg width="130" height="128" viewBox="0 0 130 128" fill="none" xmlns="http://www.w3.org/2000/svg">
<path id="Vector" d="M129.639 81.8587C129.561 81.7365 129.427 81.65 129.319 81.5486C123.05 75.658 116.783 69.7644 110.504 63.8857C110.105 63.5131 109.944 63.1449 109.95 62.5993C109.976 59.6183 109.963 56.6372 109.962 53.6561C109.962 52.7483 109.906 52.6962 108.978 52.6962C107.51 52.6947 106.041 52.6947 104.573 52.6962C103.589 52.6977 103.546 52.7394 103.544 53.6948C103.541 54.8336 103.544 55.9724 103.544 57.3258C101.424 55.3344 99.4489 53.4876 97.4929 51.623C97.3616 51.4978 97.3123 51.2295 97.3168 51.0312C97.3421 49.9893 97.4646 48.9474 97.4317 47.9085C97.269 42.6007 95.7042 37.6551 93.4034 32.9226C91.3206 28.6388 88.7122 24.7365 84.9452 21.7077C84.7421 21.5453 84.6585 21.1667 84.6227 20.876C84.4376 19.3765 84.4211 17.8427 84.1001 16.376C81.6829 5.34303 70.8014 -1.80115 59.7109 0.397402C53.3967 1.64946 48.5816 5.12392 45.2326 10.6106C44.9803 11.025 44.7668 11.1904 44.2412 11.1055C39.3231 10.3051 34.6751 11.1159 30.3751 13.6394C20.5582 19.3989 17.2809 31.8583 22.9784 41.7198C23.298 42.2743 23.3308 42.6171 22.9098 43.1343C21.7317 44.5772 20.6358 46.0871 19.4832 47.5523C19.1726 47.9473 19.0308 48.311 19.1129 48.8357C19.2741 49.8761 19.3354 50.9328 19.4459 52.0612C17.1779 51.6543 15.0174 51.2682 12.748 50.8613C13.2362 52.2117 13.6781 53.4221 14.1096 54.6339C14.3754 55.3791 14.998 56.275 14.78 56.8384C14.5441 57.448 13.5348 57.7908 12.8211 58.1739C12.3269 58.4392 12.2403 58.712 12.4001 59.2367C12.7375 60.3397 12.9958 61.468 13.2944 62.6217C11.8969 63.0018 10.592 63.3565 9.23477 63.7247C9.60654 65.3658 9.9604 66.9249 10.3277 68.5496C8.88688 68.7404 7.52072 68.9222 6.09485 69.1115C6.55919 70.295 6.98173 71.3742 7.42666 72.51C5.35876 72.9408 3.37 73.379 1.37078 73.7591C0.719805 73.8828 0.422684 74.087 0.404767 74.8293C0.304732 78.9506 0.139002 83.072 0.000146294 87.1918C-0.00283984 87.2798 0.0404591 87.3692 0.0777858 87.5198C1.29314 87.1173 2.48162 86.7671 3.63427 86.3214C4.08816 86.1455 4.56296 85.837 4.85709 85.4569C13.0854 74.8561 21.2898 64.2375 29.5002 53.6233C30.0929 52.8571 30.6872 52.091 31.2814 51.3264C31.6338 50.8732 32.0832 50.6884 32.5729 51.0491C33.0999 51.4381 33.0253 51.936 32.6625 52.4174C32.6028 52.4964 32.5386 52.5724 32.4788 52.6514C26.093 60.9076 19.7071 69.1622 13.3228 77.4184C11.3952 79.9105 9.46918 82.4042 7.39829 85.0827C8.77341 84.6341 9.95442 84.2927 11.0981 83.8545C11.5535 83.6801 12.0283 83.3686 12.3239 82.9885C20.2641 72.7634 28.1878 62.5233 36.0921 52.2699C36.4982 51.7437 36.8625 51.6155 37.509 51.7079C44.834 52.7573 51.072 50.6064 56.1201 45.1987C57.2115 44.0286 58.0775 42.6484 59.0987 41.2995C63.9378 42.3563 68.6947 41.7541 73.2291 39.5033C75.1835 44.7337 77.4037 49.73 80.7557 54.2359C80.5705 54.385 80.4078 54.4997 80.2629 54.6354C70.7133 63.6055 61.1636 72.5771 51.6244 81.5591C51.3378 81.8289 51.1646 82.2164 50.9376 82.5488C51.3243 82.6442 51.711 82.8231 52.0977 82.8231C55.0854 82.8246 58.073 82.8231 61.0606 82.826C60.771 83.1018 60.6814 83.5713 60.6814 84.3464C60.6814 98.2815 60.6814 112.215 60.6814 126.15C60.6814 127.635 61.0442 128 62.5253 128C71.8301 128 81.1364 128 90.4412 128C99.7967 128 109.151 128 118.506 128C119.844 128 120.252 127.599 120.252 126.277C120.252 112.267 120.252 98.2591 120.252 84.2495C120.252 83.5504 120.155 83.1078 119.883 82.838C122.893 82.838 125.903 82.838 128.913 82.838C129.037 82.838 129.171 82.8663 129.285 82.832C129.528 82.756 129.763 82.6472 130 82.5503C129.882 82.3208 129.778 82.0823 129.639 81.8646V81.8587ZM99.8639 115.16C96.73 115.166 93.596 115.162 90.4636 115.162C87.3789 115.162 84.2957 115.162 81.211 115.162C79.83 115.162 79.3552 114.697 79.3552 113.345C79.3537 108.28 79.3522 103.215 79.3552 98.1503C79.3552 96.9326 79.8583 96.4243 81.0707 96.4243C87.3386 96.4213 93.605 96.4213 99.8729 96.4243C101.081 96.4243 101.578 96.9311 101.578 98.1578C101.581 103.248 101.581 108.338 101.578 113.427C101.578 114.643 101.07 115.157 99.8639 115.159V115.16ZM93.4512 54.5936C94.892 55.8874 95.319 58.0144 94.4889 59.7688C93.6408 61.5589 91.7461 62.5576 89.7574 62.261C87.997 61.9987 86.4681 60.5573 86.1994 58.8298C86.4293 58.9043 86.6189 58.9803 86.816 59.0265C88.1389 59.3321 89.4498 59.7405 90.7906 59.9059C92.2821 60.0893 93.4587 59.0176 93.5498 57.6209C93.6468 56.1423 92.6733 55.002 91.1414 54.8604C90.15 54.768 89.196 54.5981 88.2956 54.0615C89.9664 53.0792 92.0194 53.3088 93.4527 54.5951L93.4512 54.5936ZM49.9208 26.1406C49.6192 28.4614 47.5887 30.3782 45.2505 30.5482C42.6675 30.7375 40.4324 29.2067 39.762 26.7905C39.1319 24.5189 40.1189 22.0222 42.1405 20.9789C42.0972 23.24 42.3883 25.367 43.1572 27.4106C43.6007 28.5881 44.619 29.1843 45.8612 29.0576C46.99 28.9428 47.9291 28.0589 48.0605 26.871C48.1098 26.4223 48.0023 25.9349 47.8694 25.4937C47.4229 24.0121 47.1661 22.5156 47.2617 20.9505C49.0145 21.5557 50.209 23.9152 49.9193 26.1391L49.9208 26.1406ZM72.7439 23.158C71.7077 25.2642 71.4538 27.5268 71.5181 29.8297C71.5539 31.0922 71.7032 32.3532 71.863 33.6068C71.9316 34.1419 71.842 34.4519 71.3284 34.7291C68.0586 36.488 64.6052 37.0499 60.9546 36.4597C62.7612 26.0065 59.1346 18.1304 49.9477 12.8122C52.1142 8.73551 58.8942 3.614 67.1658 5.48612C73.689 6.96325 79.5388 13.5082 79.3358 19.15C78.5997 19.2394 77.8502 19.2573 77.1365 19.4302C75.0611 19.934 73.6651 21.2844 72.7439 23.158ZM77.4336 25.215C77.7546 24.6053 78.2249 24.2059 79.0804 24.4026C78.6803 26.3836 77.874 28.1424 76.6378 29.9579C76.5915 28.1767 76.6826 26.637 77.4321 25.2135L77.4336 25.215ZM77.9248 37.3197C77.7247 36.713 77.765 36.33 78.2727 35.8515C80.7422 33.5278 82.4533 30.7017 83.6059 27.333C88.4748 32.9256 91.2295 39.3111 92.315 46.6818C91.0031 45.6692 89.7812 45.6921 88.6495 46.7504C87.2744 48.0427 85.8993 49.3335 84.4704 50.675C83.9986 49.9729 83.5268 49.335 83.1222 48.6568C80.9811 45.0646 79.2312 41.2935 77.9233 37.3182L77.9248 37.3197Z" fill="url(#paint0_linear_463_1227)"/>
<defs>
<linearGradient id="paint0_linear_463_1227" x1="65" y1="24.1311" x2="65" y2="128" gradientUnits="userSpaceOnUse">
<stop stop-color="white"/>
<stop offset="1" stop-color="white" stop-opacity="0"/>
</linearGradient>
</defs>
</svg>
