<svg width="130" height="128" viewBox="0 0 130 128" fill="none" xmlns="http://www.w3.org/2000/svg">
<path id="Vector" d="M129.637 81.8587C129.559 81.7365 129.425 81.65 129.317 81.5486C123.048 75.658 116.782 69.7644 110.502 63.8857C110.103 63.5131 109.942 63.1449 109.948 62.5993C109.975 59.6183 109.961 56.6372 109.96 53.6561C109.96 52.7483 109.905 52.6962 108.976 52.6962C107.508 52.6947 106.039 52.6947 104.571 52.6962C103.587 52.6977 103.544 52.7394 103.543 53.6948C103.54 54.8336 103.543 55.9724 103.543 57.3258C101.422 55.3344 99.4472 53.4876 97.4912 51.623C97.3598 51.4978 97.3106 51.2295 97.3151 51.0312C97.3404 49.9893 97.4629 48.9474 97.43 47.9085C97.2673 42.6007 95.7025 37.6551 93.4017 32.9226C91.3189 28.6388 88.7105 24.7365 84.9435 21.7077C84.7404 21.5453 84.6568 21.1667 84.621 20.876C84.4359 19.3765 84.4194 17.8427 84.0984 16.376C81.6812 5.34303 70.7997 -1.80115 59.7092 0.397402C53.395 1.64946 48.5799 5.12392 45.2309 10.6106C44.9786 11.025 44.7651 11.1904 44.2395 11.1055C39.3213 10.3051 34.6734 11.1159 30.3734 13.6394C20.5565 19.3989 17.2792 31.8583 22.9767 41.7198C23.2963 42.2743 23.3291 42.6171 22.9081 43.1343C21.73 44.5772 20.6341 46.0871 19.4815 47.5523C19.1709 47.9473 19.0291 48.311 19.1112 48.8357C19.2724 49.8761 19.3337 50.9328 19.4441 52.0612C17.1762 51.6543 15.0157 51.2682 12.7462 50.8613C13.2345 52.2117 13.6764 53.4221 14.1079 54.6339C14.3737 55.3791 14.9963 56.275 14.7783 56.8384C14.5424 57.448 13.5331 57.7908 12.8194 58.1739C12.3252 58.4392 12.2386 58.712 12.3984 59.2367C12.7358 60.3397 12.9941 61.468 13.2927 62.6217C11.8952 63.0018 10.5903 63.3565 9.23306 63.7247C9.60483 65.3658 9.95869 66.9249 10.326 68.5496C8.88517 68.7404 7.51902 68.9222 6.09314 69.1115C6.55748 70.295 6.98002 71.3742 7.42495 72.51C5.35705 72.9408 3.36829 73.379 1.36907 73.7591C0.718096 73.8828 0.420975 74.087 0.403058 74.8293C0.303023 78.9506 0.137293 83.072 -0.00156269 87.1918C-0.00454882 87.2798 0.0387501 87.3692 0.0760768 87.5198C1.29143 87.1173 2.47991 86.7671 3.63256 86.3214C4.08645 86.1455 4.56125 85.837 4.85538 85.4569C13.0837 74.8561 21.2881 64.2375 29.4985 53.6233C30.0912 52.8571 30.6854 52.091 31.2797 51.3264C31.632 50.8732 32.0815 50.6884 32.5712 51.0491C33.0982 51.4381 33.0236 51.936 32.6608 52.4174C32.601 52.4964 32.5368 52.5724 32.4771 52.6514C26.0913 60.9076 19.7054 69.1622 13.3211 77.4184C11.3935 79.9105 9.46747 82.4042 7.39658 85.0827C8.7717 84.6341 9.95271 84.2927 11.0964 83.8545C11.5518 83.6801 12.0266 83.3686 12.3222 82.9885C20.2623 72.7634 28.1861 62.5233 36.0903 52.2699C36.4965 51.7437 36.8608 51.6155 37.5073 51.7079C44.8323 52.7573 51.0703 50.6064 56.1183 45.1987C57.2098 44.0286 58.0758 42.6484 59.097 41.2995C63.936 42.3563 68.693 41.7541 73.2274 39.5033C75.1818 44.7337 77.402 49.73 80.754 54.2359C80.5688 54.385 80.4061 54.4997 80.2612 54.6354C70.7116 63.6055 61.1619 72.5771 51.6227 81.5591C51.3361 81.8289 51.1629 82.2164 50.9359 82.5488C51.3226 82.6442 51.7093 82.8231 52.096 82.8231C55.0837 82.8246 58.0713 82.8231 61.0589 82.826C60.7693 83.1018 60.6797 83.5713 60.6797 84.3464C60.6797 98.2815 60.6797 112.215 60.6797 126.15C60.6797 127.635 61.0425 128 62.5236 128C71.8284 128 81.1347 128 90.4395 128C99.795 128 109.149 128 118.505 128C119.842 128 120.25 127.599 120.25 126.277C120.25 112.267 120.25 98.2591 120.25 84.2495C120.25 83.5504 120.153 83.1078 119.881 82.838C122.891 82.838 125.901 82.838 128.911 82.838C129.035 82.838 129.17 82.8663 129.283 82.832C129.526 82.756 129.761 82.6472 129.998 82.5503C129.88 82.3208 129.776 82.0823 129.637 81.8646V81.8587ZM99.8622 115.16C96.7283 115.166 93.5943 115.162 90.4619 115.162C87.3772 115.162 84.294 115.162 81.2093 115.162C79.8282 115.162 79.3535 114.697 79.3535 113.345C79.352 108.28 79.3505 103.215 79.3535 98.1503C79.3535 96.9326 79.8566 96.4243 81.069 96.4243C87.3369 96.4213 93.6033 96.4213 99.8712 96.4243C101.079 96.4243 101.576 96.9311 101.576 98.1578C101.579 103.248 101.579 108.338 101.576 113.427C101.576 114.643 101.069 115.157 99.8622 115.159V115.16ZM93.4495 54.5936C94.8903 55.8874 95.3173 58.0144 94.4872 59.7688C93.6391 61.5589 91.7444 62.5576 89.7557 62.261C87.9953 61.9987 86.4664 60.5573 86.1977 58.8298C86.4276 58.9043 86.6172 58.9803 86.8143 59.0265C88.1372 59.3321 89.4481 59.7405 90.7889 59.9059C92.2804 60.0893 93.457 59.0176 93.548 57.6209C93.6451 56.1423 92.6716 55.002 91.1397 54.8604C90.1483 54.768 89.1943 54.5981 88.2939 54.0615C89.9647 53.0792 92.0177 53.3088 93.451 54.5951L93.4495 54.5936ZM49.9191 26.1406C49.6175 28.4614 47.587 30.3782 45.2488 30.5482C42.6658 30.7375 40.4307 29.2067 39.7603 26.7905C39.1302 24.5189 40.1171 22.0222 42.1388 20.9789C42.0955 23.24 42.3866 25.367 43.1555 27.4106C43.599 28.5881 44.6173 29.1843 45.8595 29.0576C46.9882 28.9428 47.9274 28.0589 48.0588 26.871C48.108 26.4223 48.0005 25.9349 47.8677 25.4937C47.4212 24.0121 47.1644 22.5156 47.26 20.9505C49.0128 21.5557 50.2073 23.9152 49.9176 26.1391L49.9191 26.1406ZM72.7422 23.158C71.706 25.2642 71.4521 27.5268 71.5163 29.8297C71.5522 31.0922 71.7015 32.3532 71.8612 33.6068C71.9299 34.1419 71.8403 34.4519 71.3267 34.7291C68.0569 36.488 64.6034 37.0499 60.9529 36.4597C62.7595 26.0065 59.1328 18.1304 49.946 12.8122C52.1124 8.73551 58.8925 3.614 67.1641 5.48612C73.6873 6.96325 79.5371 13.5082 79.334 19.15C78.598 19.2394 77.8484 19.2573 77.1348 19.4302C75.0594 19.934 73.6634 21.2844 72.7422 23.158ZM77.4319 25.215C77.7529 24.6053 78.2232 24.2059 79.0787 24.4026C78.6786 26.3836 77.8723 28.1424 76.6361 29.9579C76.5898 28.1767 76.6809 26.637 77.4304 25.2135L77.4319 25.215ZM77.9231 37.3197C77.723 36.713 77.7633 36.33 78.271 35.8515C80.7405 33.5278 82.4516 30.7017 83.6042 27.333C88.4731 32.9256 91.2278 39.3111 92.3133 46.6818C91.0014 45.6692 89.7795 45.6921 88.6478 46.7504C87.2727 48.0427 85.8976 49.3335 84.4687 50.675C83.9969 49.9729 83.5251 49.335 83.1205 48.6568C80.9794 45.0646 79.2295 41.2935 77.9216 37.3182L77.9231 37.3197Z" fill="#D2D8C5"/>
</svg>
