<svg width="249" height="47" viewBox="0 0 249 47" fill="none" xmlns="http://www.w3.org/2000/svg">
<g id="28pttR">
<g id="Group">
<path id="Vector" d="M146.228 18.0819C145.196 20.7327 144.177 23.3158 143.185 25.9034C140.683 32.4446 138.199 38.9858 135.679 45.5269C135.472 46.0634 135.679 46.9064 134.169 46.8749C132.681 46.8433 133.037 46.0544 132.817 45.4909C130.527 39.5312 128.191 33.5761 125.874 27.621C124.855 25.0063 123.859 22.3916 122.822 19.777C122.637 19.3081 122.777 18.7356 121.578 18.3975C120.776 22.2564 119.978 26.0522 119.193 29.848C118.152 34.8925 117.106 39.9325 116.11 44.977C115.902 46.0273 115.204 46.4601 113.175 46.4105C108.644 46.3023 108.762 46.379 109.375 43.7327C110.348 39.5222 111.106 35.2982 112.012 31.0787C113.026 26.3587 114.122 21.6433 115.136 16.9234C115.754 14.0382 116.272 11.1441 116.863 8.2544C117.331 5.96432 117.868 3.67423 118.328 1.38414C118.463 0.716951 119.148 0.590725 120.158 0.554661C121.42 0.50958 122.151 0.762031 122.408 1.48783C123.251 3.84103 124.103 6.19423 124.982 8.54292C127.258 14.6423 129.553 20.7417 131.834 26.8411C132.442 28.4595 133.033 30.0824 133.646 31.7053C133.759 31.9983 133.556 32.4626 134.322 32.4807C135.057 32.4942 134.994 32.0524 135.098 31.7503C138.38 22.004 141.666 12.2576 144.952 2.51115C145.092 2.10543 145.326 1.70421 145.471 1.29849C145.701 0.649329 146.539 0.568185 147.486 0.545645C148.482 0.523104 149 0.816127 149.127 1.34808C149.537 3.03859 149.925 4.73362 150.317 6.42414C151.561 11.8248 152.819 17.2209 154.045 22.6216C155.285 28.0673 156.488 33.5175 157.728 38.9632C158.21 41.0685 158.693 43.1782 159.292 45.2745C159.536 46.1175 159.008 46.3159 157.656 46.3564C153.107 46.4827 152.99 46.5142 152.386 43.904C151.367 39.5132 150.524 35.1043 149.596 30.7045C148.775 26.805 147.946 22.9056 147.089 19.0106C147.026 18.7221 147.044 18.366 146.21 18.0819H146.228Z" fill="#E8ECDF"/>
<path id="Vector_2" d="M102.816 46.3654C99.0964 46.3564 99.1054 46.3564 98.2895 44.2422C97.4916 42.164 96.599 40.0993 95.9002 38.012C95.6207 37.1735 95.0302 36.8219 93.5245 36.8309C88.3492 36.8625 83.174 36.876 77.9988 36.8309C76.3353 36.8174 75.8169 37.2186 75.5058 38.0887C74.6403 40.5275 73.5538 42.9438 72.6297 45.3782C72.3592 46.0995 71.7822 46.3925 70.4793 46.3564C68.9466 46.3114 67.4094 46.3429 65.8721 46.3745C64.5422 46.4015 64.123 46.0814 64.4656 45.3556C67.0036 39.9235 69.5326 34.4867 72.0617 29.0545C74.3833 24.0596 76.7049 19.0692 79.0131 14.0743C80.9741 9.83674 82.9351 5.59918 84.842 1.3526C85.0854 0.807121 85.5317 0.545654 86.4739 0.545654C87.5423 0.545654 87.7136 0.987443 87.9165 1.4653C89.5078 5.22952 91.1307 8.99374 92.7446 12.758C95.1474 18.3569 97.5547 23.9559 99.953 29.5594C102.157 34.7076 104.308 39.8648 106.571 45.004C107.022 46.0273 106.787 46.5187 104.754 46.379C104.118 46.3339 103.46 46.37 102.816 46.37V46.3654ZM85.9329 12.7354C85.0313 14.9308 84.1883 16.991 83.3408 19.0512C81.7134 23.0093 80.077 26.9673 78.4586 30.9254C78.1385 31.7053 78.2242 32.2598 80.1175 32.2282C83.9178 32.1651 87.7226 32.1921 91.5274 32.2147C92.8393 32.2237 93.3712 32.12 93.0196 31.2049C91.3516 26.8772 89.873 22.5224 88.2591 18.1856C87.5919 16.3959 87.3394 14.5431 85.9329 12.7354Z" fill="#E8ECDF"/>
<path id="Vector_3" d="M199.455 46.3658C194.929 46.4018 195.713 46.1945 195.068 44.3958C194.275 42.1823 193.283 39.9914 192.517 37.7734C192.233 36.9575 191.584 36.7411 190.222 36.7501C185.128 36.7862 180.029 36.7997 174.931 36.7366C173.159 36.714 172.501 37.1603 172.176 38.0574C171.378 40.2754 170.454 42.4753 169.656 44.6933C169.269 45.7707 168.552 46.3432 166.298 46.3072C160.789 46.217 160.875 46.3072 162.331 43.1831C165.202 37.0296 167.934 30.8536 170.779 24.6956C174.02 17.6901 177.32 10.6936 180.593 3.6926C180.945 2.93525 181.301 2.17789 181.625 1.41603C181.824 0.947197 182.013 0.482868 183.113 0.532457C184.001 0.568521 184.294 0.942687 184.483 1.37095C185.444 3.51678 186.449 5.65811 187.364 7.81295C189.122 11.9378 190.813 16.0717 192.571 20.1966C194.234 24.096 195.97 27.982 197.647 31.8769C199.211 35.5059 200.753 39.1349 202.295 42.7638C202.579 43.4355 202.777 44.1163 203.088 44.7835C203.746 46.208 203.566 46.3477 200.906 46.3658C200.419 46.3658 199.937 46.3658 199.45 46.3658H199.455ZM183.014 13.0333C182.865 13.0333 182.712 13.0378 182.563 13.0423C180.151 18.9163 177.798 24.7993 175.282 30.6597C174.719 31.9671 175.319 32.2691 177.518 32.215C181.066 32.1294 184.623 32.1609 188.175 32.206C189.708 32.224 190.118 32.0076 189.753 31.097C188.554 28.0901 187.535 25.0607 186.417 22.0403C185.304 19.0335 184.15 16.0311 183.014 13.0288V13.0333Z" fill="#E8ECDF"/>
<path id="Vector_4" d="M55.5126 23.2935C55.5126 15.986 55.5307 8.67843 55.4811 1.37539C55.4811 0.766805 55.693 0.609023 56.7704 0.554927C62.5767 0.275428 62.5677 0.252888 62.5677 3.47614C62.5677 17.2122 62.5317 30.9482 62.6173 44.6797C62.6263 45.996 62.1259 46.4514 59.6916 46.3747C55.5667 46.244 55.5577 46.3386 55.5532 43.9629C55.5532 37.0701 55.5532 30.1818 55.5532 23.289C55.5397 23.289 55.5262 23.289 55.5126 23.289V23.2935Z" fill="#E8ECDF"/>
<path id="Vector_5" d="M205.238 23.4739C205.238 16.3512 205.288 9.22395 205.193 2.10123C205.175 0.820946 205.861 0.44227 208.083 0.500875C212.212 0.609068 212.217 0.536939 212.217 2.84957C212.217 16.9102 212.208 30.9753 212.271 45.0359C212.271 46.0502 211.897 46.3928 210.012 46.3748C205.198 46.3252 205.202 46.3793 205.202 43.5933C205.202 36.8853 205.202 30.1773 205.202 23.4694H205.234L205.238 23.4739Z" fill="#E8ECDF"/>
<path id="Vector_6" d="M37.6878 43.6068C37.6337 41.7044 37.1198 39.9643 36.6464 38.2197C35.6682 34.6087 34.424 31.0519 31.7597 27.6799C28.284 23.289 21.5851 23.7218 16.5451 26.2824C11.3338 28.9331 7.72731 32.26 4.40939 35.7132C3.38607 36.7771 2.62421 37.9447 0.726318 38.7291C2.42134 36.2001 3.99014 33.644 5.84295 31.1556C8.90842 27.0352 12.0686 22.9374 16.4143 19.1777C17.8073 17.974 19.3896 16.8651 21.283 15.9184C25.7099 13.7004 29.9069 14.1197 32.9228 17.0048C35.3932 19.367 36.2137 22.0087 36.944 24.6505C38.5984 30.6056 38.7292 36.6148 38.5578 42.6286C38.5533 42.8585 38.4947 43.0884 38.4136 43.3093C38.3956 43.3634 38.2017 43.3994 37.6788 43.6023L37.6878 43.6068Z" fill="#E8ECDF"/>
<path id="Vector_7" d="M8.00679 21.4629C7.08715 20.4756 8.25924 20.0113 8.61538 19.4523C11.6989 14.5881 15.5488 9.9178 20.3904 5.54499C22.3198 3.80489 24.5198 2.10986 28.0901 1.30292C31.1105 0.617698 33.9551 1.07301 35.7403 2.60575C37.823 4.39093 39.0492 6.38349 39.748 8.48875C42.1958 15.8369 42.2499 23.2706 42.2048 30.8937C41.47 27.675 40.9877 24.6095 40.0184 21.5936C39.1078 18.7626 37.7509 15.9901 35.4563 13.3665C32.3502 9.81862 25.9804 9.55265 20.6789 12.0997C16.545 14.0832 13.5066 16.5627 10.653 19.1368C9.84608 19.8626 9.01209 20.5793 8.00679 21.4674V21.4629Z" fill="#888F77"/>
<path id="Vector_8" d="M234.41 46.5502C230.614 46.5502 226.814 46.5502 223.018 46.5502C222.536 46.5502 221.927 46.6494 221.585 46.5232C218.758 45.4773 220.485 43.8544 220.151 42.493C219.962 41.7221 220.462 41.0324 222.279 41.0504C230.353 41.118 238.431 41.1811 246.51 41.2037C248.151 41.2082 248.624 41.659 248.597 42.484C248.565 43.4081 248.484 44.3368 248.606 45.2564C248.741 46.2797 247.835 46.5412 246.289 46.5367C242.331 46.5232 238.368 46.5367 234.41 46.5367V46.5547V46.5502Z" fill="#888F77"/>
</g>
</g>
</svg>
