<svg width="182" height="182" viewBox="0 0 182 182" fill="none" xmlns="http://www.w3.org/2000/svg">
<g id="bomb">
<mask id="mask0_506_4289" style="mask-type:alpha" maskUnits="userSpaceOnUse" x="0" y="0" width="182" height="182">
<rect id="Bounding box" x="0.0779419" y="0.791016" width="181.195" height="181.195" fill="#D9D9D9"/>
</mask>
<g mask="url(#mask0_506_4289)">
<path id="bomb_2" d="M67.5959 163.635C53.9735 163.635 42.3594 158.832 32.7535 149.228C23.1464 139.623 18.3428 128.039 18.3428 114.474C18.3428 100.681 23.2527 89.0678 33.0725 79.6356C42.8923 70.2033 54.7467 65.4872 68.6359 65.4872C69.4978 65.4872 70.3906 65.5111 71.3142 65.5589C72.239 65.608 73.1324 65.681 73.9944 65.7779L78.5091 57.777C79.7284 55.4931 81.558 54.0392 83.9979 53.4151C86.4364 52.7909 88.7976 53.103 91.0815 54.3512L96.019 57.1239L96.9628 55.614C99.5662 51.074 103.37 48.1315 108.374 46.7863C113.379 45.4412 118.151 46.0993 122.691 48.7606L125.956 50.6481L122.181 57.139L118.916 55.2516C116.185 53.6636 113.274 53.2741 110.182 54.0832C107.09 54.891 104.798 56.6596 103.306 59.3889L102.508 60.8988L107.88 63.9338C110.136 65.1531 111.576 66.9827 112.2 69.4225C112.824 71.8611 112.527 74.2079 111.307 76.4627L106.647 84.6524C109.541 89.3761 111.93 94.286 113.812 99.3821C115.694 104.478 116.636 109.828 116.636 115.431C116.636 128.934 111.868 140.344 102.333 149.66C92.7972 158.977 81.2183 163.635 67.5959 163.635ZM67.5619 156.23C79.1094 156.23 88.9166 152.172 96.9835 144.056C105.052 135.94 109.086 126.157 109.086 114.706C109.086 110.806 108.551 106.968 107.482 103.193C106.412 99.4179 104.808 95.8318 102.669 92.4344L97.7612 84.6958L103.801 74.1544C104.284 73.3805 104.405 72.5098 104.163 71.5422C103.922 70.5733 103.413 69.8472 102.638 69.364L88.9619 61.5236C88.188 61.0391 87.3173 60.9422 86.3496 61.2329C85.3807 61.5236 84.6547 62.0558 84.1715 62.8297L78.1317 73.2258H69.2455C57.4175 73.2258 47.2278 77.146 38.6763 84.9865C30.1249 92.8257 25.8492 102.606 25.8492 114.329C25.8492 125.905 29.9072 135.783 38.0233 143.962C46.1393 152.141 55.9855 156.23 67.5619 156.23ZM143.524 66.3573V58.8075H158.624V66.3573H143.524ZM110.422 31.5131V16.4135H117.972V31.5131H110.422ZM142.435 40.8484L137.237 35.6504L147.909 24.8334L153.107 30.1768L142.435 40.8484Z" fill="#2E3224"/>
</g>
</g>
</svg>
