<svg width="182" height="182" viewBox="0 0 182 182" fill="none" xmlns="http://www.w3.org/2000/svg">
<g id="bomb">
<mask id="mask0_1391_1507" style="mask-type:alpha" maskUnits="userSpaceOnUse" x="0" y="0" width="182" height="182">
<rect id="Bounding box" x="0.109314" y="0.120117" width="181.195" height="181.195" fill="#D9D9D9"/>
</mask>
<g mask="url(#mask0_1391_1507)">
<path id="bomb_2" d="M67.6273 162.964C54.0049 162.964 42.3908 158.162 32.7849 148.557C23.1778 138.952 18.3742 127.368 18.3742 113.803C18.3742 100.01 23.2841 88.3969 33.1039 78.9647C42.9237 69.5324 54.7781 64.8163 68.6673 64.8163C69.5292 64.8163 70.422 64.8402 71.3456 64.888C72.2704 64.9371 73.1638 65.0101 74.0257 65.107L78.5405 57.1061C79.7598 54.8223 81.5894 53.3683 84.0292 52.7442C86.4678 52.12 88.829 52.4321 91.1128 53.6803L96.0504 56.453L96.9941 54.9431C99.5976 50.4031 103.401 47.4606 108.406 46.1154C113.41 44.7703 118.182 45.4284 122.722 48.0897L125.987 49.9772L122.212 56.4681L118.947 54.5807C116.217 52.9927 113.306 52.6032 110.214 53.4123C107.121 54.2201 104.829 55.9887 103.338 58.718L102.539 60.2279L107.911 63.2629C110.167 64.4822 111.607 66.3118 112.232 68.7516C112.856 71.1902 112.558 73.537 111.339 75.7918L106.679 83.9815C109.573 88.7052 111.961 93.6151 113.843 98.7112C115.726 103.807 116.667 109.157 116.667 114.76C116.667 128.263 111.899 139.673 102.364 148.989C92.8285 158.306 81.2496 162.964 67.6273 162.964ZM67.5933 155.559C79.1407 155.559 88.9479 151.501 97.0149 143.385C105.083 135.269 109.117 125.486 109.117 114.035C109.117 110.135 108.582 106.297 107.513 102.522C106.443 98.747 104.839 95.1609 102.7 91.7635L97.7925 84.0249L103.832 73.4835C104.316 72.7096 104.436 71.8389 104.195 70.8713C103.953 69.9024 103.445 69.1763 102.67 68.6931L88.9932 60.8527C88.2194 60.3682 87.3486 60.2713 86.381 60.562C85.4121 60.8527 84.6861 61.3849 84.2029 62.1588L78.163 72.5549H69.2769C57.4489 72.5549 47.2591 76.4751 38.7077 84.3156C30.1563 92.1548 25.8806 101.936 25.8806 113.658C25.8806 125.234 29.9386 135.112 38.0547 143.291C46.1707 151.47 56.0169 155.559 67.5933 155.559ZM143.556 65.6864V58.1366H158.655V65.6864H143.556ZM110.454 30.8422V15.7426H118.003V30.8422H110.454ZM142.467 40.1775L137.269 34.9795L147.94 24.1625L153.138 29.5059L142.467 40.1775Z" fill="#D2D8C5"/>
</g>
</g>
</svg>
