<svg width="133" height="27" viewBox="0 0 133 27" fill="none" xmlns="http://www.w3.org/2000/svg">
<path d="M0.763095 0.978903H6.05238L11.6388 14.6082H11.8765L17.463 0.978903H22.7523V21.2644H18.5921V8.061H18.4238L13.1741 21.1654H10.3413L5.09159 8.01147H4.92321V21.2644H0.763095V0.978903ZM30.545 21.5517C29.5744 21.5517 28.7093 21.3833 27.9499 21.0465C27.1905 20.7031 26.5896 20.198 26.1472 19.531C25.7114 18.8575 25.4935 18.0189 25.4935 17.0151C25.4935 16.1699 25.6487 15.4601 25.959 14.8856C26.2694 14.3111 26.692 13.8488 27.2269 13.4989C27.7617 13.1489 28.3692 12.8847 29.0494 12.7065C29.7361 12.5282 30.4559 12.4027 31.2087 12.3301C32.0935 12.2376 32.8067 12.1518 33.3482 12.0725C33.8896 11.9867 34.2825 11.8612 34.5269 11.6961C34.7712 11.5311 34.8934 11.2867 34.8934 10.9632V10.9037C34.8934 10.2764 34.6953 9.79108 34.299 9.4477C33.9095 9.10433 33.3548 8.93264 32.635 8.93264C31.8756 8.93264 31.2714 9.10103 30.8224 9.4378C30.3734 9.76797 30.0762 10.184 29.9309 10.6858L26.0283 10.3689C26.2265 9.4444 26.616 8.6454 27.1971 7.97185C27.7782 7.29171 28.5277 6.77004 29.4456 6.40686C30.3701 6.03707 31.4398 5.85218 32.6548 5.85218C33.5 5.85218 34.309 5.95123 35.0815 6.14933C35.8607 6.34743 36.5508 6.65449 37.1517 7.0705C37.7592 7.48651 38.2379 8.02138 38.5879 8.67511C38.9379 9.32224 39.1129 10.0981 39.1129 11.0028V21.2644H35.1113V19.1546H34.9924C34.7481 19.6301 34.4212 20.0494 34.0118 20.4126C33.6024 20.7692 33.1104 21.0498 32.536 21.2545C31.9615 21.4526 31.2978 21.5517 30.545 21.5517ZM31.7535 18.6396C32.3742 18.6396 32.9223 18.5174 33.3977 18.2731C33.8731 18.0222 34.2462 17.6854 34.517 17.2628C34.7877 16.8402 34.9231 16.3614 34.9231 15.8265V14.212C34.791 14.2979 34.6094 14.3771 34.3783 14.4497C34.1538 14.5158 33.8995 14.5785 33.6156 14.6379C33.3317 14.6908 33.0477 14.7403 32.7638 14.7865C32.4798 14.8261 32.2223 14.8625 31.9912 14.8955C31.4959 14.9681 31.0634 15.0837 30.6936 15.2421C30.3238 15.4006 30.0366 15.6152 29.8319 15.886C29.6272 16.1501 29.5248 16.4803 29.5248 16.8765C29.5248 17.451 29.7328 17.8901 30.1488 18.1938C30.5715 18.491 31.1063 18.6396 31.7535 18.6396ZM42.3865 21.2644V6.05028H46.4773V8.70483H46.6358C46.9131 7.76055 47.3786 7.04738 48.0324 6.56534C48.6861 6.07669 49.4389 5.83237 50.2907 5.83237C50.502 5.83237 50.7298 5.84557 50.9742 5.87199C51.2185 5.8984 51.4331 5.93472 51.618 5.98094V9.72504C51.4199 9.66561 51.1459 9.61279 50.7959 9.56656C50.4459 9.52034 50.1256 9.49723 49.8351 9.49723C49.2144 9.49723 48.6597 9.6326 48.171 9.90334C47.689 10.1675 47.306 10.5373 47.0221 11.0127C46.7447 11.4881 46.606 12.0362 46.606 12.6569V21.2644H42.3865ZM63.145 26.9697V18.8278H63.0162C62.8181 19.2504 62.5375 19.6697 62.1743 20.0857C61.8177 20.4951 61.3522 20.8352 60.7777 21.1059C60.2098 21.3767 59.5164 21.512 58.6976 21.512C57.542 21.512 56.4954 21.2149 55.5577 20.6206C54.6266 20.0197 53.8871 19.1381 53.339 17.9759C52.7975 16.8071 52.5268 15.3742 52.5268 13.6772C52.5268 11.9339 52.8074 10.4844 53.3687 9.32884C53.93 8.16665 54.6762 7.29831 55.6072 6.72382C56.5449 6.14273 57.5717 5.85218 58.6877 5.85218C59.5395 5.85218 60.2494 5.99745 60.8173 6.288C61.3918 6.57194 61.854 6.92852 62.204 7.35774C62.5606 7.78036 62.8313 8.19637 63.0162 8.60578H63.1945V6.05028H67.3546V26.9697H63.145ZM60.0348 18.1542C60.7149 18.1542 61.2894 17.9693 61.7583 17.5995C62.2337 17.2232 62.5969 16.6982 62.8478 16.0246C63.1053 15.3511 63.2341 14.562 63.2341 13.6573C63.2341 12.7527 63.1087 11.9669 62.8577 11.2999C62.6068 10.633 62.2436 10.1179 61.7682 9.75476C61.2927 9.39158 60.7149 9.20998 60.0348 9.20998C59.3414 9.20998 58.757 9.39818 58.2816 9.77457C57.8062 10.151 57.4463 10.6726 57.202 11.3396C56.9576 12.0065 56.8355 12.7791 56.8355 13.6573C56.8355 14.5422 56.9576 15.3247 57.202 16.0048C57.4529 16.6784 57.8128 17.2066 58.2816 17.5896C58.757 17.966 59.3414 18.1542 60.0348 18.1542Z" fill="#464B37"/>
<path d="M78.9237 6.05028V9.21989H69.5337V6.05028H78.9237ZM71.6831 21.2644V4.95082C71.6831 3.84806 71.8977 2.9335 72.3269 2.20713C72.7628 1.48076 73.3571 0.935981 74.1098 0.572796C74.8626 0.209612 75.7178 0.0280198 76.6752 0.0280198C77.3224 0.0280198 77.9134 0.0775454 78.4482 0.176596C78.9897 0.275646 79.3925 0.364792 79.6567 0.444032L78.9039 3.61364C78.7388 3.56081 78.5341 3.51129 78.2898 3.46507C78.052 3.41884 77.8077 3.39573 77.5568 3.39573C76.9361 3.39573 76.5036 3.541 76.2592 3.83155C76.0149 4.1155 75.8927 4.515 75.8927 5.03006V21.2644H71.6831ZM90.0099 0.0280198L83.4726 24.3152H79.8374L86.3747 0.0280198H90.0099ZM96.3813 21.5517C95.4106 21.5517 94.5456 21.3833 93.7862 21.0465C93.0268 20.7031 92.4259 20.198 91.9835 19.531C91.5476 18.8575 91.3297 18.0189 91.3297 17.0151C91.3297 16.1699 91.4849 15.4601 91.7953 14.8856C92.1056 14.3111 92.5282 13.8488 93.0631 13.4989C93.598 13.1489 94.2055 12.8847 94.8856 12.7065C95.5724 12.5282 96.2922 12.4027 97.0449 12.3301C97.9298 12.2376 98.6429 12.1518 99.1844 12.0725C99.7259 11.9867 100.119 11.8612 100.363 11.6961C100.607 11.5311 100.73 11.2867 100.73 10.9632V10.9037C100.73 10.2764 100.532 9.79108 100.135 9.4477C99.7457 9.10433 99.191 8.93264 98.4713 8.93264C97.7119 8.93264 97.1077 9.10103 96.6586 9.4378C96.2096 9.76797 95.9125 10.184 95.7672 10.6858L91.8646 10.3689C92.0627 9.4444 92.4523 8.6454 93.0334 7.97185C93.6145 7.29171 94.364 6.77004 95.2818 6.40686C96.2063 6.03707 97.2761 5.85218 98.4911 5.85218C99.3363 5.85218 100.145 5.95123 100.918 6.14933C101.697 6.34743 102.387 6.65449 102.988 7.0705C103.595 7.48651 104.074 8.02138 104.424 8.67511C104.774 9.32224 104.949 10.0981 104.949 11.0028V21.2644H100.948V19.1546H100.829C100.584 19.6301 100.257 20.0494 99.8481 20.4126C99.4386 20.7692 98.9467 21.0498 98.3722 21.2545C97.7977 21.4526 97.1341 21.5517 96.3813 21.5517ZM97.5897 18.6396C98.2104 18.6396 98.7585 18.5174 99.2339 18.2731C99.7094 18.0222 100.082 17.6854 100.353 17.2628C100.624 16.8402 100.759 16.3614 100.759 15.8265V14.212C100.627 14.2979 100.446 14.3771 100.215 14.4497C99.99 14.5158 99.7358 14.5785 99.4519 14.6379C99.1679 14.6908 98.884 14.7403 98.6 14.7865C98.3161 14.8261 98.0585 14.8625 97.8274 14.8955C97.3322 14.9681 96.8997 15.0837 96.5299 15.2421C96.1601 15.4006 95.8728 15.6152 95.6681 15.886C95.4634 16.1501 95.3611 16.4803 95.3611 16.8765C95.3611 17.451 95.5691 17.8901 95.9851 18.1938C96.4077 18.491 96.9426 18.6396 97.5897 18.6396ZM108.223 21.2644V6.05028H112.314V8.70483H112.472C112.749 7.76055 113.215 7.04738 113.869 6.56534C114.522 6.07669 115.275 5.83237 116.127 5.83237C116.338 5.83237 116.566 5.84557 116.81 5.87199C117.055 5.8984 117.269 5.93472 117.454 5.98094V9.72504C117.256 9.66561 116.982 9.61279 116.632 9.56656C116.282 9.52034 115.962 9.49723 115.671 9.49723C115.051 9.49723 114.496 9.6326 114.007 9.90334C113.525 10.1675 113.142 10.5373 112.858 11.0127C112.581 11.4881 112.442 12.0362 112.442 12.6569V21.2644H108.223ZM125.861 21.5616C124.296 21.5616 122.949 21.2446 121.82 20.6107C120.697 19.9701 119.832 19.0655 119.225 17.8967C118.617 16.7213 118.314 15.3313 118.314 13.7267C118.314 12.1617 118.617 10.7882 119.225 9.60618C119.832 8.42418 120.687 7.50302 121.79 6.84268C122.9 6.18235 124.2 5.85218 125.693 5.85218C126.696 5.85218 127.631 6.01396 128.496 6.33752C129.368 6.65449 130.127 7.13323 130.774 7.77375C131.428 8.41428 131.936 9.21989 132.299 10.1906C132.663 11.1547 132.844 12.2838 132.844 13.5781V14.737H119.997V12.1221H128.872C128.872 11.5146 128.74 10.9764 128.476 10.5075C128.212 10.0387 127.845 9.67222 127.377 9.40808C126.914 9.13735 126.376 9.00198 125.762 9.00198C125.122 9.00198 124.554 9.15055 124.058 9.4477C123.57 9.73825 123.187 10.1312 122.909 10.6264C122.632 11.1151 122.49 11.6598 122.484 12.2607V14.7469C122.484 15.4997 122.622 16.1501 122.9 16.6982C123.183 17.2463 123.583 17.6689 124.098 17.966C124.613 18.2632 125.224 18.4118 125.93 18.4118C126.399 18.4118 126.829 18.3457 127.218 18.2137C127.608 18.0816 127.941 17.8835 128.219 17.6194C128.496 17.3552 128.707 17.0317 128.852 16.6487L132.755 16.9062C132.557 17.8439 132.151 18.6627 131.537 19.3626C130.929 20.056 130.143 20.5975 129.179 20.9871C128.222 21.3701 127.116 21.5616 125.861 21.5616Z" fill="#616751"/>
</svg>
