<svg width="182" height="33" viewBox="0 0 182 33" fill="none" xmlns="http://www.w3.org/2000/svg">
<g id="Group 2529">
<g id="Group">
<path id="Vector" d="M13.6708 21.4953L4.0554 0.800049H0.342041V26.6939H3.14796V5.5326L12.965 26.6939H14.3692L24.3485 5.48549V26.6939H27.1225V0.800049H23.6034L13.6708 21.4953Z" fill="#464B37"/>
<path id="Vector_2" d="M45.8172 24.3414C45.7286 24.381 45.6229 24.4207 45.5196 24.4579C45.4434 24.4777 45.3671 24.4926 45.2909 24.5C45.2171 24.5099 45.1212 24.5149 45.0007 24.5149C44.6613 24.5149 44.4425 24.4207 44.3269 24.2298C44.1892 23.9992 44.1203 23.7216 44.1203 23.4018V15.2382C44.1203 13.3938 43.5916 11.8344 42.5514 10.6048C41.3513 9.19424 39.6225 8.47778 37.4166 8.47778C35.2107 8.47778 33.2532 9.11243 31.399 10.3668L31.2908 10.4412V13.7656L31.6966 13.4186C32.1146 13.0616 32.5056 12.7616 32.8598 12.5311C33.2163 12.298 33.5459 12.0947 33.8385 11.9262C34.3746 11.6361 34.9107 11.4204 35.437 11.2841C35.9608 11.1502 36.4969 11.0808 37.0305 11.0808C38.4298 11.0808 39.4971 11.4824 40.2053 12.2782C40.8841 13.0393 41.2456 14.1003 41.28 15.4365L39.9545 15.5754C38.3265 15.791 36.9076 16.0315 35.7395 16.2918C34.559 16.5546 33.5951 16.8645 32.877 17.2165C30.8629 18.1635 29.8423 19.6683 29.8423 21.6863C29.8423 23.2902 30.4793 24.6314 31.7359 25.6701C32.9311 26.6295 34.3574 27.1179 35.9706 27.1179C37.4978 27.1179 38.8577 26.6519 40.0184 25.7296C40.3086 25.4817 40.6012 25.1718 40.889 24.8025C41.0291 24.624 41.1693 24.4281 41.3095 24.2199C41.3636 25.0305 41.5087 25.5859 41.7448 25.9057C42.1358 26.5576 42.9276 26.8898 44.1031 26.8898C44.3294 26.8898 44.6343 26.8626 45.0376 26.8056C45.436 26.7485 45.8393 26.6543 46.2377 26.5205L46.4049 26.4634V24.1257L46.0803 24.2348C46.0114 24.2596 45.9229 24.2943 45.8172 24.3414ZM41.2849 18.6395C41.2849 20.2335 40.7758 21.6268 39.775 22.7795C38.7372 23.91 37.5101 24.4827 36.1305 24.4827C35.6263 24.4827 35.1665 24.4009 34.7582 24.2397C34.35 24.0786 34.0033 23.8679 33.7278 23.6076C33.4524 23.3497 33.2336 23.0547 33.0737 22.725C32.9188 22.4052 32.8425 22.0656 32.8425 21.716C32.8425 20.4988 33.5065 19.641 34.8787 19.0932C35.9436 18.6296 37.8224 18.2552 40.466 17.9776L41.2849 17.8809V18.6395Z" fill="#464B37"/>
<path id="Vector_3" d="M57.5991 8.73804C57.2794 8.71573 56.9326 8.70581 56.5711 8.70581C55.1694 8.70581 53.9496 9.12725 52.9438 9.96022C52.5774 10.2627 52.1913 10.7139 51.793 11.3088L51.6626 8.86943H49.0633V26.6964H51.8692V18.0569C51.8692 16.3835 52.2897 14.8465 53.1135 13.4954C54.08 12.0228 55.2751 11.3064 56.7654 11.3064C56.9474 11.3064 57.0974 11.3113 57.2081 11.3212C57.3163 11.3311 57.422 11.346 57.5204 11.3659C57.6138 11.3857 57.7319 11.4204 57.872 11.47L58.7795 11.7997V8.91157L58.5827 8.87191C58.2532 8.80497 57.9237 8.76035 57.604 8.73804H57.5991Z" fill="#464B37"/>
<path id="Vector_4" d="M73.8715 8.867L73.3895 10.409C72.846 9.90821 72.305 9.53883 71.7885 9.31571C70.7483 8.75792 69.5753 8.47778 68.299 8.47778C65.8988 8.47778 63.8798 9.43471 62.2936 11.3213C60.764 13.193 59.9869 15.4365 59.9869 17.99C59.9869 20.5434 60.7985 22.8043 62.3969 24.5719C63.9388 26.2577 65.7931 27.113 67.9129 27.113C70.0327 27.113 71.8771 26.166 73.2591 24.2992V32.2645H76.065V8.867H73.8715ZM73.2591 17.8933C73.2591 19.998 72.6665 21.6962 71.4984 22.9357C70.5024 23.9621 69.3835 24.4802 68.1711 24.4802C66.8972 24.4802 65.7463 23.9398 64.7504 22.8738C63.5798 21.6094 62.9847 19.9559 62.9847 17.9578C62.9847 16.0811 63.5282 14.43 64.6028 13.0591C65.6553 11.7278 66.9612 11.0783 68.5891 11.0783C69.381 11.0783 70.2097 11.299 71.0483 11.7303C71.8672 12.1542 72.6124 12.7517 73.2616 13.5128V17.8933H73.2591Z" fill="#464B37"/>
</g>
<g id="Group_2">
<path id="Vector_5" d="M88.1002 0.584425C87.8764 0.51749 87.6748 0.470388 87.5002 0.445597C87.3354 0.423285 87.1731 0.405932 87.0182 0.396016C86.8608 0.386099 86.6813 0.378662 86.487 0.378662C84.6721 0.378662 83.3589 0.97116 82.5917 2.13384C81.9843 2.97177 81.6769 4.19891 81.6769 5.77808V8.83477H78.7529V11.4378H81.6769V26.6965H84.4828V11.4378H89.047V8.83477H84.4828V5.77808C84.4828 4.86826 84.6697 4.16668 85.041 3.69566C85.4025 3.23703 85.9804 3.01144 86.8092 3.01144C86.9272 3.01144 87.0698 3.02135 87.2469 3.04118C87.4215 3.06102 87.6281 3.09325 87.8543 3.13539C88.4273 3.25191 88.5798 3.32628 88.6167 3.34859L89.047 3.92621V0.859602L88.8675 0.807541C88.5699 0.720774 88.3117 0.646402 88.1002 0.581946V0.584425Z" fill="#616751"/>
<path id="Vector_6" d="M94.8974 0.800049H92.0915V26.6939H94.8974V0.800049Z" fill="#616751"/>
<path id="Vector_7" d="M114.298 24.3414C114.209 24.381 114.104 24.4207 114 24.4579C113.924 24.4777 113.848 24.4926 113.772 24.5C113.7 24.5099 113.602 24.5149 113.481 24.5149C113.142 24.5149 112.923 24.4207 112.808 24.2298C112.67 23.9992 112.601 23.7216 112.601 23.4018V15.2382C112.601 13.3938 112.072 11.8344 111.032 10.6048C109.832 9.19424 108.103 8.47778 105.897 8.47778C103.691 8.47778 101.734 9.11243 99.8797 10.3668L99.7715 10.4412V13.7656L100.177 13.4186C100.595 13.0616 100.986 12.7616 101.34 12.5311C101.697 12.298 102.027 12.0947 102.319 11.9262C102.855 11.6361 103.391 11.4204 103.918 11.2841C104.441 11.1502 104.978 11.0808 105.511 11.0808C106.91 11.0808 107.978 11.4824 108.686 12.2782C109.365 13.0393 109.726 14.1003 109.761 15.4365L108.435 15.5754C106.807 15.791 105.388 16.0315 104.22 16.2918C103.04 16.5546 102.076 16.8645 101.358 17.2165C99.3436 18.1635 98.323 19.6683 98.323 21.6863C98.323 23.2902 98.9575 24.6314 100.217 25.6701C101.412 26.6295 102.838 27.1179 104.451 27.1179C105.978 27.1179 107.338 26.6519 108.499 25.7321C108.787 25.4867 109.082 25.1743 109.37 24.8049C109.51 24.6265 109.65 24.4306 109.79 24.2224C109.844 25.033 109.987 25.5883 110.225 25.9081C110.616 26.5601 111.408 26.8923 112.584 26.8923C112.81 26.8923 113.115 26.8651 113.518 26.808C113.917 26.751 114.32 26.6568 114.718 26.5229L114.886 26.4659V24.1282L114.561 24.2372C114.492 24.262 114.404 24.2967 114.298 24.3438V24.3414ZM109.766 18.6395C109.766 20.2335 109.257 21.6268 108.256 22.7795C107.215 23.91 105.991 24.4827 104.611 24.4827C104.107 24.4827 103.647 24.4009 103.239 24.2397C102.831 24.0786 102.484 23.8679 102.209 23.6076C101.933 23.3497 101.714 23.0522 101.554 22.725C101.399 22.4052 101.323 22.0656 101.323 21.716C101.323 20.4988 101.987 19.641 103.359 19.0932C104.424 18.6296 106.303 18.2552 108.947 17.9776L109.766 17.8809V18.6395Z" fill="#616751"/>
<path id="Vector_8" d="M126.722 8.73804C126.402 8.71573 126.055 8.70581 125.694 8.70581C124.292 8.70581 123.072 9.12725 122.066 9.96022C121.7 10.2627 121.314 10.7139 120.915 11.3088L120.783 8.86943H118.183V26.6964H120.989V18.0569C120.989 16.3835 121.41 14.8465 122.234 13.4954C123.2 12.0228 124.395 11.3064 125.885 11.3064C126.067 11.3064 126.217 11.3113 126.328 11.3212C126.436 11.3311 126.542 11.346 126.64 11.3659C126.734 11.3857 126.852 11.4204 126.992 11.47L127.9 11.7997V8.91157L127.703 8.87191C127.373 8.80497 127.044 8.76035 126.724 8.73804H126.722Z" fill="#616751"/>
<path id="Vector_9" d="M160.083 13.4508C156.874 13.4508 154.262 16.0836 154.262 19.3188V21.2153C154.262 23.0151 152.809 24.4802 151.023 24.4802H138.454V24.4752C136.76 24.4306 135.368 23.8034 134.316 22.6035C133.253 21.3937 132.697 19.6187 132.661 17.3305H145.738V17.0826C145.738 14.6829 145.116 12.6699 143.884 11.0957C142.492 9.35785 140.589 8.47778 138.231 8.47778C135.872 8.47778 133.752 9.3876 132.105 11.1825C130.484 12.95 129.66 15.1762 129.66 17.7966C129.66 20.5757 130.573 22.8713 132.368 24.6141C134.028 26.2651 136.076 27.108 138.454 27.1154L151.023 27.0857C154.232 27.0857 156.844 24.4529 156.844 21.2177V19.3212C156.844 17.5214 158.297 16.0563 160.083 16.0563H170.667L167.224 13.4533H160.083V13.4508ZM134.857 12.1815C135.727 11.3857 136.807 10.9816 138.066 10.9816C139.199 10.9816 140.178 11.3262 140.975 12.008C141.715 12.6426 142.227 13.5995 142.492 14.8589H133.086C133.514 13.7607 134.109 12.8608 134.859 12.1815H134.857Z" fill="#616751"/>
<path id="Vector_10" d="M167.63 11.1303L169.157 10.0123L170.684 11.1303L170.101 9.32061L171.629 8.20254H169.742L169.157 6.39282L168.574 8.20254H166.688L168.215 9.32061L167.63 11.1303Z" fill="#464B37"/>
<path id="Vector_11" d="M181.042 12.9251H176.714L175.376 8.77515L174.039 12.9251H169.71L173.212 15.491L171.875 19.6384L175.376 17.0751L178.878 19.6384L177.54 15.491L181.042 12.9251Z" fill="#616751"/>
</g>
</g>
</svg>
