<svg width="140" height="141" viewBox="0 0 140 141" fill="none" xmlns="http://www.w3.org/2000/svg">
<g id="manage_history">
<mask id="mask0_506_4217" style="mask-type:alpha" maskUnits="userSpaceOnUse" x="0" y="0" width="140" height="141">
<rect id="Bounding box" y="0.670044" width="140" height="140" fill="#D9D9D9"/>
</mask>
<g mask="url(#mask0_506_4217)">
<path id="manage_history_2" d="M28.9421 50.0288V25.7986H34.7754V39.7315C39.2855 34.78 44.571 30.9208 50.6319 28.1538C56.6937 25.3869 63.0748 24.0034 69.7754 24.0034C82.7137 24.0034 93.7261 28.5466 102.812 37.633C111.899 46.7194 116.442 57.7318 116.442 70.6701V72.2407H110.609V70.6701C110.609 59.2951 106.647 49.6458 98.7233 41.7222C90.7997 33.7986 81.1504 29.8368 69.7754 29.8368C63.7398 29.8368 58.0674 31.1118 52.7581 33.662C47.4478 36.2121 42.7622 39.7233 38.7012 44.1955H53.1737V50.0288H28.9421ZM23.5127 76.5034H29.4131C30.8044 85.6948 34.7477 93.4818 41.2431 99.8645C47.7385 106.248 55.5105 110.008 64.5589 111.145L68.1946 117.337C56.7224 116.962 46.7532 112.926 38.2871 105.227C29.821 97.5277 24.8962 87.9533 23.5127 76.5034ZM81.2408 85.9272L67.1956 71.882V41.5034H73.0289V69.4582L84.3369 80.7661L81.2408 85.9272ZM110.463 137.753L109.387 130.686C107.546 130.35 105.798 129.727 104.142 128.818C102.486 127.909 101.01 126.729 99.7165 125.279L92.941 127.455L90.4721 123.371L95.9467 118.996C95.2292 117.135 94.8704 115.198 94.8704 113.186C94.8704 111.175 95.2292 109.163 95.9467 107.15L90.2489 102.552L92.941 98.2443L99.8287 100.757C101.123 99.3803 102.561 98.2564 104.142 97.3853C105.723 96.5142 107.471 95.873 109.387 95.4618L110.463 88.3947H115.399L116.476 95.4618C118.465 95.873 120.294 96.5628 121.962 97.5311C123.629 98.4995 125.061 99.7094 126.258 101.161L133.37 98.4688L135.838 103.067L130.028 107.667C130.671 109.678 130.992 111.604 130.992 113.444C130.992 115.284 130.671 117.023 130.028 118.661L136.062 123.371L133.595 127.455L126.258 125.054C125.039 126.506 123.601 127.723 121.944 128.706C120.288 129.69 118.465 130.35 116.476 130.686L115.399 137.753H110.463ZM112.93 125.638C116.363 125.638 119.316 124.402 121.788 121.931C124.26 119.459 125.495 116.507 125.495 113.074C125.495 109.641 124.26 106.689 121.788 104.218C119.316 101.746 116.363 100.511 112.93 100.511C109.498 100.511 106.546 101.746 104.074 104.218C101.603 106.689 100.367 109.641 100.367 113.074C100.367 116.507 101.603 119.459 104.074 121.931C106.546 124.402 109.498 125.638 112.93 125.638Z" fill="#888F77"/>
</g>
</g>
</svg>
