<svg width="141" height="141" viewBox="0 0 141 141" fill="none" xmlns="http://www.w3.org/2000/svg">
<g id="data_saver_on">
<mask id="mask0_506_4991" style="mask-type:alpha" maskUnits="userSpaceOnUse" x="0" y="0" width="141" height="141">
<rect id="Bounding box" x="0.738281" y="0.670044" width="140" height="140" fill="#D9D9D9"/>
</mask>
<g mask="url(#mask0_506_4991)">
<path id="data_saver_on_2" d="M70.7383 123.17C63.4758 123.17 56.6508 121.794 50.2633 119.043C43.8758 116.292 38.3195 112.536 33.5945 107.776C28.8695 103.015 25.1289 97.4465 22.3727 91.0706C19.6164 84.6948 18.2383 77.8946 18.2383 70.67C18.2383 57.3506 22.6021 45.7213 31.3297 35.7823C40.0574 25.8433 51.2491 20.0697 64.9049 18.4617V25.641C53.2461 27.2267 43.7499 32.3217 36.4164 40.9258C29.0839 49.53 25.4177 59.4447 25.4177 70.67C25.4177 83.1874 29.8418 93.8701 38.6899 102.718C47.5381 111.567 58.2209 115.991 70.7383 115.991C78.0825 115.991 84.9536 114.368 91.3518 111.121C97.749 107.876 102.918 103.621 106.86 98.3565L113.052 102.17C108.026 108.789 101.864 113.944 94.566 117.634C87.2675 121.325 79.325 123.17 70.7383 123.17ZM67.8216 91.0867V73.5867H50.3216V67.7533H67.8216V50.2533H73.6549V67.7533H91.155V73.5867H73.6549V91.0867H67.8216ZM118.954 91.3783L112.76 87.7879C113.785 85.5294 114.591 82.9176 115.178 79.9523C115.765 76.987 116.059 73.8929 116.059 70.67C116.059 59.2201 112.318 49.2121 104.836 40.6458C97.3534 32.0786 87.932 27.077 76.5716 25.641V18.4617C89.7044 19.6954 100.765 25.3382 109.755 35.39C118.744 45.4408 123.238 57.2008 123.238 70.67C123.238 74.4986 122.887 78.1629 122.184 81.6629C121.481 85.1629 120.404 88.4014 118.954 91.3783Z" fill="#888F77"/>
</g>
</g>
</svg>
