<svg width="168" height="35" viewBox="0 0 168 35" fill="none" xmlns="http://www.w3.org/2000/svg">
<path d="M0.231205 1.32861H6.92482L13.9945 18.5766H14.2953L21.365 1.32861H28.0586V27H22.794V10.291H22.5809L15.9374 26.8747H12.3524L5.70894 10.2284H5.49585V27H0.231205V1.32861ZM37.9204 27.3635C36.692 27.3635 35.5973 27.1504 34.6363 26.7242C33.6753 26.2897 32.9148 25.6504 32.3549 24.8064C31.8034 23.954 31.5276 22.8927 31.5276 21.6225C31.5276 20.5529 31.724 19.6546 32.1168 18.9276C32.5095 18.2005 33.0443 17.6156 33.7212 17.1727C34.3981 16.7298 35.1669 16.3955 36.0276 16.1699C36.8967 15.9443 37.8076 15.7855 38.7602 15.6936C39.88 15.5766 40.7825 15.4679 41.4678 15.3676C42.153 15.259 42.6502 15.1002 42.9594 14.8913C43.2686 14.6824 43.4232 14.3732 43.4232 13.9637V13.8885C43.4232 13.0947 43.1725 12.4805 42.6711 12.0459C42.1781 11.6114 41.4761 11.3941 40.5652 11.3941C39.6042 11.3941 38.8396 11.6072 38.2714 12.0334C37.7031 12.4512 37.3271 12.9777 37.1432 13.6128L32.2045 13.2117C32.4552 12.0417 32.9482 11.0306 33.6836 10.1782C34.419 9.31749 35.3675 8.65732 36.529 8.19771C37.6989 7.72974 39.0527 7.49576 40.5903 7.49576C41.66 7.49576 42.6836 7.62111 43.6614 7.8718C44.6474 8.1225 45.5207 8.51108 46.2811 9.03755C47.0499 9.56401 47.6558 10.2409 48.0987 11.0682C48.5416 11.8871 48.763 12.869 48.763 14.0139V27H43.699V24.3301H43.5485C43.2394 24.9317 42.8257 25.4624 42.3076 25.922C41.7895 26.3733 41.1669 26.7284 40.4399 26.9875C39.7129 27.2382 38.873 27.3635 37.9204 27.3635ZM39.4496 23.6783C40.2352 23.6783 40.9288 23.5237 41.5304 23.2145C42.1321 22.8969 42.6043 22.4707 42.9469 21.9359C43.2895 21.4011 43.4608 20.7952 43.4608 20.1184V18.0752C43.2937 18.1838 43.0639 18.2841 42.7714 18.376C42.4873 18.4596 42.1655 18.539 41.8062 18.6142C41.4469 18.681 41.0875 18.7437 40.7282 18.8022C40.3689 18.8523 40.043 18.8983 39.7505 18.9401C39.1237 19.032 38.5764 19.1782 38.1084 19.3788C37.6404 19.5794 37.2769 19.851 37.0179 20.1936C36.7588 20.5278 36.6293 20.9457 36.6293 21.4471C36.6293 22.1741 36.8925 22.7298 37.419 23.1142C37.9538 23.4902 38.6307 23.6783 39.4496 23.6783ZM52.9058 27V7.74646H58.0827V11.1058H58.2833C58.6342 9.91081 59.2234 9.0083 60.0507 8.39827C60.878 7.77988 61.8306 7.47069 62.9086 7.47069C63.176 7.47069 63.4643 7.4874 63.7735 7.52083C64.0827 7.55425 64.3543 7.60022 64.5883 7.65871V12.3969C64.3376 12.3217 63.9908 12.2548 63.5479 12.1963C63.105 12.1378 62.6997 12.1086 62.332 12.1086C61.5465 12.1086 60.8446 12.2799 60.2262 12.6225C59.6161 12.9568 59.1315 13.4247 58.7721 14.0264C58.4212 14.6281 58.2457 15.3217 58.2457 16.1072V27H52.9058ZM79.1757 34.2201V23.9164H79.0128C78.7621 24.4512 78.4069 24.9819 77.9473 25.5084C77.4961 26.0265 76.9069 26.4568 76.1799 26.7994C75.4612 27.1421 74.5838 27.3134 73.5476 27.3134C72.0852 27.3134 70.7607 26.9373 69.574 26.1852C68.3958 25.4248 67.4598 24.3092 66.7662 22.8384C66.081 21.3593 65.7384 19.5459 65.7384 17.3983C65.7384 15.1922 66.0935 13.3579 66.8038 11.8955C67.5141 10.4247 68.4584 9.32585 69.6367 8.59883C70.8234 7.86345 72.1228 7.49576 73.5351 7.49576C74.6131 7.49576 75.5114 7.6796 76.2301 8.04729C76.9571 8.40663 77.542 8.85788 77.9849 9.40106C78.4362 9.93588 78.7788 10.4623 79.0128 10.9804H79.2384V7.74646H84.5031V34.2201H79.1757ZM75.2398 23.0641C76.1005 23.0641 76.8275 22.8301 77.4209 22.3621C78.0225 21.8858 78.4822 21.2214 78.7997 20.3691C79.1256 19.5167 79.2886 18.5181 79.2886 17.3732C79.2886 16.2284 79.1298 15.2339 78.8122 14.3899C78.4947 13.5459 78.0351 12.8941 77.4334 12.4345C76.8317 11.9749 76.1005 11.7451 75.2398 11.7451C74.3624 11.7451 73.6228 11.9832 73.0211 12.4596C72.4195 12.9359 71.964 13.5961 71.6548 14.4401C71.3456 15.2841 71.191 16.2618 71.191 17.3732C71.191 18.493 71.3456 19.4833 71.6548 20.344C71.9724 21.1964 72.4278 21.8649 73.0211 22.3496C73.6228 22.8259 74.3624 23.0641 75.2398 23.0641ZM99.1438 7.74646V11.7576H87.2607V7.74646H99.1438ZM89.9808 27V6.35509C89.9808 4.95954 90.2524 3.80215 90.7956 2.88293C91.3471 1.96371 92.0992 1.27429 93.0518 0.814677C94.0045 0.355065 95.0867 0.125259 96.2984 0.125259C97.1173 0.125259 97.8652 0.187934 98.5421 0.313284C99.2273 0.438632 99.7371 0.551446 100.071 0.651725L99.1187 4.66288C98.9098 4.59603 98.6507 4.53335 98.3415 4.47486C98.0407 4.41636 97.7315 4.38711 97.414 4.38711C96.6284 4.38711 96.0811 4.57096 95.7719 4.93865C95.4627 5.29798 95.3081 5.80355 95.3081 6.45537V27H89.9808ZM113.173 0.125259L104.9 30.8607H100.3L108.573 0.125259H113.173ZM121.236 27.3635C120.008 27.3635 118.913 27.1504 117.952 26.7242C116.991 26.2897 116.231 25.6504 115.671 24.8064C115.119 23.954 114.844 22.8927 114.844 21.6225C114.844 20.5529 115.04 19.6546 115.433 18.9276C115.826 18.2005 116.36 17.6156 117.037 17.1727C117.714 16.7298 118.483 16.3955 119.344 16.1699C120.213 15.9443 121.124 15.7855 122.076 15.6936C123.196 15.5766 124.099 15.4679 124.784 15.3676C125.469 15.259 125.966 15.1002 126.275 14.8913C126.585 14.6824 126.739 14.3732 126.739 13.9637V13.8885C126.739 13.0947 126.489 12.4805 125.987 12.0459C125.494 11.6114 124.792 11.3941 123.881 11.3941C122.92 11.3941 122.156 11.6072 121.587 12.0334C121.019 12.4512 120.643 12.9777 120.459 13.6128L115.521 13.2117C115.771 12.0417 116.264 11.0306 117 10.1782C117.735 9.31749 118.684 8.65732 119.845 8.19771C121.015 7.72974 122.369 7.49576 123.906 7.49576C124.976 7.49576 126 7.62111 126.977 7.8718C127.964 8.1225 128.837 8.51108 129.597 9.03755C130.366 9.56401 130.972 10.2409 131.415 11.0682C131.858 11.8871 132.079 12.869 132.079 14.0139V27H127.015V24.3301H126.865C126.555 24.9317 126.142 25.4624 125.624 25.922C125.106 26.3733 124.483 26.7284 123.756 26.9875C123.029 27.2382 122.189 27.3635 121.236 27.3635ZM122.766 23.6783C123.551 23.6783 124.245 23.5237 124.847 23.2145C125.448 22.8969 125.92 22.4707 126.263 21.9359C126.606 21.4011 126.777 20.7952 126.777 20.1184V18.0752C126.61 18.1838 126.38 18.2841 126.087 18.376C125.803 18.4596 125.482 18.539 125.122 18.6142C124.763 18.681 124.404 18.7437 124.044 18.8022C123.685 18.8523 123.359 18.8983 123.067 18.9401C122.44 19.032 121.892 19.1782 121.424 19.3788C120.957 19.5794 120.593 19.851 120.334 20.1936C120.075 20.5278 119.945 20.9457 119.945 21.4471C119.945 22.1741 120.209 22.7298 120.735 23.1142C121.27 23.4902 121.947 23.6783 122.766 23.6783ZM136.222 27V7.74646H141.399V11.1058H141.599C141.95 9.91081 142.539 9.0083 143.367 8.39827C144.194 7.77988 145.147 7.47069 146.225 7.47069C146.492 7.47069 146.78 7.4874 147.09 7.52083C147.399 7.55425 147.67 7.60022 147.904 7.65871V12.3969C147.654 12.3217 147.307 12.2548 146.864 12.1963C146.421 12.1378 146.016 12.1086 145.648 12.1086C144.863 12.1086 144.161 12.2799 143.542 12.6225C142.932 12.9568 142.448 13.4247 142.088 14.0264C141.737 14.6281 141.562 15.3217 141.562 16.1072V27H136.222ZM158.543 27.376C156.563 27.376 154.858 26.9749 153.429 26.1727C152.009 25.3621 150.914 24.2173 150.145 22.7381C149.376 21.2507 148.992 19.4916 148.992 17.461C148.992 15.4805 149.376 13.7423 150.145 12.2465C150.914 10.7506 151.996 9.5849 153.392 8.74924C154.795 7.91359 156.442 7.49576 158.33 7.49576C159.6 7.49576 160.783 7.70049 161.878 8.10997C162.981 8.51108 163.942 9.11693 164.761 9.92752C165.588 10.7381 166.231 11.7576 166.691 12.986C167.151 14.2061 167.38 15.6351 167.38 17.2729V18.7395H151.123V15.4303H162.354C162.354 14.6615 162.187 13.9805 161.853 13.3871C161.518 12.7938 161.054 12.33 160.461 11.9958C159.876 11.6532 159.195 11.4818 158.418 11.4818C157.607 11.4818 156.889 11.6699 156.262 12.0459C155.644 12.4136 155.159 12.9108 154.808 13.5376C154.457 14.1559 154.277 14.8454 154.269 15.6058V18.7521C154.269 19.7047 154.444 20.5278 154.795 21.2214C155.155 21.915 155.66 22.4498 156.312 22.8259C156.964 23.2019 157.737 23.39 158.631 23.39C159.224 23.39 159.768 23.3064 160.261 23.1393C160.754 22.9721 161.176 22.7214 161.527 22.3872C161.878 22.0529 162.145 21.6434 162.329 21.1588L167.268 21.4847C167.017 22.6713 166.503 23.7075 165.726 24.5933C164.957 25.4707 163.963 26.156 162.743 26.649C161.531 27.1337 160.131 27.376 158.543 27.376Z" fill="#3B4459"/>
</svg>
