<svg width="29" height="45" viewBox="0 0 29 45" fill="none" xmlns="http://www.w3.org/2000/svg">
<path d="M18.5092 0.170452L6.55611 44.5781H0.814986L12.7681 0.170452H18.5092ZM24.6895 39.3984C23.5908 39.3984 22.6491 39.0121 21.8643 38.2393C21.0795 37.4666 20.6931 36.5249 20.7052 35.4141C20.6931 34.3274 21.0795 33.3977 21.8643 32.625C22.6491 31.8523 23.5908 31.4659 24.6895 31.4659C25.752 31.4659 26.6757 31.8523 27.4605 32.625C28.2574 33.3977 28.6618 34.3274 28.6739 35.4141C28.6618 36.1506 28.4687 36.8207 28.0944 37.4244C27.7322 38.0281 27.2492 38.511 26.6455 38.8732C26.0539 39.2234 25.4019 39.3984 24.6895 39.3984Z" fill="white"/>
</svg>
