<svg width="126" height="126" viewBox="0 0 126 126" fill="none" xmlns="http://www.w3.org/2000/svg">
<path d="M101.409 63.158C101.409 84.4388 84.3783 101.658 63.4092 101.658C42.4401 101.658 25.4092 84.4388 25.4092 63.158C25.4092 41.8772 42.4401 24.658 63.4092 24.658C84.3783 24.658 101.409 41.8772 101.409 63.158Z" stroke="url(#paint0_linear_273_2197)" stroke-width="3"/>
<circle cx="63.409" cy="62.658" r="60" transform="rotate(90.9437 63.409 62.658)" stroke="#737A62" stroke-width="3"/>
<path d="M82.4087 58.8279C85.742 60.7524 85.742 65.5636 82.4087 67.4881L58.4087 81.3446C55.0754 83.2691 50.9087 80.8634 50.9087 77.0144L50.9087 49.3016C50.9087 45.4526 55.0754 43.047 58.4087 44.9715L82.4087 58.8279Z" fill="#737A62"/>
<defs>
<linearGradient id="paint0_linear_273_2197" x1="63.4092" y1="23.158" x2="63.4092" y2="103.158" gradientUnits="userSpaceOnUse">
<stop stop-color="#616751"/>
<stop offset="1" stop-color="#2E3224"/>
</linearGradient>
</defs>
</svg>
