<svg width="157" height="38" viewBox="0 0 157 38" fill="none" xmlns="http://www.w3.org/2000/svg">
<g id="Group 2392">
<path id="Vector" d="M119.77 8.25837C120.207 8.24618 120.646 8.24618 121.083 8.25837C121.24 8.26244 121.272 8.21772 121.272 8.06729C121.264 7.04886 121.27 6.03042 121.268 5.01199C121.268 4.82904 121.278 4.64812 121.309 4.46923C121.382 4.04641 121.701 3.75369 122.108 3.74352C122.577 3.73133 122.85 3.93664 122.953 4.39605C123.018 4.68471 123.037 4.9815 123.037 5.27829C123.037 6.20728 123.039 7.1383 123.033 8.06729C123.033 8.21162 123.055 8.26854 123.218 8.26244C123.64 8.24821 124.065 8.25024 124.49 8.26244C124.641 8.2665 124.685 8.23398 124.683 8.07542C124.673 7.28263 124.687 6.48984 124.677 5.69704C124.667 5.01606 124.736 4.33304 124.634 3.65611C124.58 3.28208 124.415 2.9609 124.116 2.70476C123.842 2.46896 123.533 2.35716 123.181 2.2982C122.724 2.22096 122.307 2.31447 121.906 2.51978C121.673 2.63768 121.478 2.81047 121.272 3.03001V2.79014C121.272 2.05224 121.272 1.31433 121.272 0.576423C121.272 0.495111 121.284 0.413799 121.232 0.342651H119.589C119.589 2.92024 119.589 5.4958 119.585 8.07339C119.585 8.22585 119.618 8.26854 119.774 8.26447L119.77 8.25837Z" fill="#E8ECDF"/>
<path id="Vector_2" d="M156.751 6.08123C156.702 5.64011 156.478 5.31283 156.118 5.06076C155.618 4.71112 155.039 4.60135 154.46 4.47938C154.208 4.42653 153.949 4.38384 153.704 4.30863C153.539 4.25984 153.411 4.13991 153.403 3.94679C153.397 3.78823 153.502 3.69269 153.622 3.62154C153.807 3.5138 154.025 3.49144 154.222 3.50567C154.706 3.54226 155.151 3.71505 155.531 4.0281C155.598 4.08502 155.649 4.08095 155.706 4.022C156.009 3.70082 156.373 3.44266 156.659 3.09708C156.371 2.91819 156.1 2.72304 155.785 2.58481C155.021 2.25144 154.236 2.13557 153.417 2.30835C152.417 2.51773 151.654 3.28816 151.736 4.34725C151.772 4.8148 151.972 5.19696 152.356 5.46529C152.785 5.76411 153.287 5.86982 153.791 5.95926C154.118 6.01821 154.448 6.05887 154.765 6.16254C155.041 6.25198 155.175 6.59959 154.913 6.8232C154.6 7.09153 154.224 7.13625 153.838 7.0895C153.248 7.01835 152.787 6.69107 152.368 6.28858C152.043 6.64432 151.644 6.92687 151.331 7.29481C151.408 7.38832 151.514 7.45337 151.604 7.53468C152.268 8.12419 153.063 8.36813 153.929 8.41895C154.301 8.44131 154.669 8.39049 155.027 8.29495C155.625 8.13436 156.159 7.87213 156.509 7.32327C156.655 7.09153 156.712 6.8293 156.785 6.57317V6.12189C156.773 6.10969 156.749 6.09749 156.749 6.08326L156.751 6.08123Z" fill="#E8ECDF"/>
<path id="Vector_3" d="M30.9712 0.373173C28.7331 0.379272 26.495 0.379272 24.2589 0.373173C24.0719 0.373173 24.0272 0.419928 24.0272 0.604913C24.0333 6.30692 24.0312 12.0069 24.0312 17.7089C24.0312 23.4109 24.0312 29.1515 24.0272 34.8739C24.0272 35.0426 24.0637 35.0873 24.2365 35.0853C26.4807 35.0792 28.725 35.0792 30.9692 35.0853C31.1399 35.0853 31.1785 35.0446 31.1785 34.8739C31.1745 23.4434 31.1745 12.013 31.1785 0.584585C31.1785 0.415862 31.142 0.371141 30.9692 0.373173H30.9712Z" fill="#E8ECDF"/>
<path id="Vector_4" d="M7.81559 0.586735C7.81559 0.420045 7.78103 0.373291 7.60621 0.373291C5.362 0.379389 3.11779 0.379389 0.873582 0.373291C0.702826 0.373291 0.66217 0.411914 0.66217 0.584702C0.666236 12.0151 0.666236 23.4456 0.66217 34.874C0.66217 35.0407 0.694695 35.0874 0.869516 35.0874C3.10763 35.0813 5.34574 35.0813 7.58182 35.0874C7.7668 35.0874 7.81356 35.0427 7.81356 34.8557C7.80746 29.1537 7.80949 23.4537 7.80949 17.7517C7.80949 12.0497 7.80949 6.30907 7.81356 0.586735H7.81559Z" fill="#E8ECDF"/>
<path id="Vector_5" d="M19.5184 0.584519C19.5184 0.413764 19.4778 0.373108 19.307 0.373108C17.0486 0.379206 14.7901 0.379206 12.5337 0.373108C12.3609 0.373108 12.3243 0.417829 12.3243 0.584519C12.3284 8.34981 12.3284 16.1151 12.3243 23.8804C12.3243 24.0512 12.365 24.0918 12.5358 24.0918C14.7861 24.0857 17.0384 24.0857 19.2887 24.0918C19.4778 24.0918 19.5184 24.041 19.5184 23.858C19.5123 19.9815 19.5144 16.107 19.5144 12.2304C19.5144 8.35388 19.5144 4.46513 19.5184 0.582486V0.584519Z" fill="#E8ECDF"/>
<path id="Vector_6" d="M54.2935 11.3665C52.0493 11.3726 49.8051 11.3726 47.5609 11.3665C47.3881 11.3665 47.3515 11.4112 47.3515 11.5779C47.3556 19.3432 47.3556 27.1085 47.3515 34.8738C47.3515 35.0445 47.3922 35.0852 47.5629 35.0852C49.801 35.0791 52.0371 35.0791 54.2752 35.0852C54.4643 35.0852 54.5049 35.0344 54.5049 34.8514C54.4988 30.9749 54.5009 27.1003 54.5009 23.2238C54.5009 19.3472 54.5009 15.4585 54.5049 11.5759C54.5049 11.4051 54.4643 11.3644 54.2935 11.3644V11.3665Z" fill="#E8ECDF"/>
<path id="Vector_7" d="M42.6192 11.3259C40.3953 11.332 38.1714 11.3341 35.9475 11.3259C35.7483 11.3259 35.6873 11.3625 35.6873 11.578C35.6954 15.4403 35.6934 19.3026 35.6934 23.165C35.6934 27.0273 35.6934 30.9445 35.6893 34.8332C35.6893 35.004 35.732 35.0467 35.9028 35.0467C38.1409 35.0406 40.377 35.0406 42.6151 35.0467C42.7879 35.0467 42.8428 35.0141 42.8428 34.8271C42.8367 27.0679 42.8367 19.3108 42.8428 11.5516C42.8428 11.3706 42.8001 11.3259 42.6192 11.328V11.3259Z" fill="#888F77"/>
<path id="Vector_8" d="M65.9354 0.373108C62.876 0.379206 59.8187 0.377174 56.7593 0.377174C53.6999 0.377174 50.602 0.377174 47.5223 0.373108C47.3535 0.373108 47.3088 0.409698 47.3109 0.582486C47.317 2.75555 47.317 4.93064 47.3109 7.10371C47.3109 7.27446 47.3515 7.31512 47.5223 7.31512C53.6674 7.31105 59.8105 7.31105 65.9557 7.31512C66.1244 7.31512 66.1691 7.27853 66.1691 7.10574C66.163 4.93878 66.163 2.77181 66.1691 0.604847C66.1691 0.419862 66.1244 0.373108 65.9374 0.373108H65.9354Z" fill="#E8ECDF"/>
<path id="Vector_9" d="M39.2467 7.31105C40.3831 7.31105 41.5174 7.30699 42.6537 7.31512C42.8082 7.31512 42.8428 7.27649 42.8428 7.12403C42.8367 4.93674 42.8367 2.74945 42.8428 0.562158C42.8428 0.407666 42.8021 0.373108 42.6517 0.373108C40.381 0.379206 38.1084 0.379206 35.8377 0.373108C35.6832 0.373108 35.6487 0.411731 35.6487 0.564191C35.6548 2.75148 35.6548 4.93878 35.6487 7.12607C35.6487 7.28056 35.6873 7.31512 35.8398 7.31512C36.9761 7.30902 38.1104 7.31105 39.2467 7.31105Z" fill="#E8ECDF"/>
<path id="Vector_10" d="M80.3926 8.2563C80.9049 8.25021 81.4192 8.24817 81.9315 8.2563C82.0697 8.25834 82.0941 8.21362 82.0982 8.08555C82.1205 7.37 82.0453 6.65649 82.0555 5.94095C82.0697 4.9774 81.9823 4.01792 82.0128 3.05437C82.0128 3.01981 82.0189 2.98322 82.0087 2.95273C81.9233 2.65188 81.9965 2.34696 81.9864 2.04407C82.0555 2.26768 82.1043 2.49332 82.1591 2.71693C82.3238 3.39182 82.521 4.05857 82.708 4.72736C83.0231 5.85557 83.3239 6.98784 83.6289 8.11807C83.6533 8.20752 83.6898 8.2563 83.8037 8.25427C84.2611 8.24411 84.7205 8.24614 85.1779 8.25427C85.3161 8.2563 85.3506 8.20142 85.3852 8.07539C85.5783 7.34561 85.7877 6.62193 85.9869 5.89419C86.2105 5.07701 86.4341 4.25982 86.6537 3.44264C86.7756 2.99135 86.8895 2.53601 87.0114 2.06846C87.0602 2.79417 86.9931 3.50159 86.9809 4.209C86.9728 4.66435 86.9748 5.11766 86.9525 5.57504C86.9139 6.41865 86.9525 7.2643 86.8976 8.10791C86.8895 8.22378 86.9281 8.2563 87.044 8.2563C87.544 8.25021 88.0441 8.24411 88.5421 8.25834C88.717 8.2624 88.7515 8.21158 88.7515 8.04489C88.7454 5.55675 88.7474 3.0686 88.7474 0.580453C88.7474 0.554027 88.7434 0.525568 88.7474 0.499141C88.7617 0.397502 88.7149 0.375141 88.6194 0.375141C87.7575 0.379206 86.8956 0.377174 86.0337 0.375141C85.9544 0.375141 85.9219 0.385305 85.9076 0.480846C85.8812 0.663798 85.8243 0.842685 85.7775 1.02157C85.4807 2.14164 85.1839 3.26172 84.8892 4.38179C84.7489 4.91235 84.6168 5.44494 84.4867 5.9816C84.4257 5.67668 84.3769 5.3677 84.2997 5.06684C83.8992 3.54224 83.4866 2.02171 83.0902 0.497109C83.0617 0.387338 83.0292 0.373108 82.9397 0.373108C82.0921 0.373108 81.2424 0.377174 80.3947 0.373108C80.2788 0.373108 80.2463 0.4036 80.2463 0.519469C80.2503 3.04827 80.2503 5.57708 80.2463 8.10588C80.2463 8.22175 80.2768 8.25427 80.3947 8.25427L80.3926 8.2563Z" fill="#E8ECDF"/>
<path id="Vector_11" d="M151.207 2.68646C151.211 2.57669 151.177 2.5462 151.069 2.55027C150.797 2.5584 150.522 2.54417 150.248 2.55636C150.116 2.56246 150.091 2.51774 150.091 2.39577C150.097 1.89774 150.093 1.39767 150.095 0.899633C150.095 0.814255 150.105 0.74514 149.975 0.747173C149.49 0.755304 149.004 0.751239 148.518 0.747173C148.445 0.747173 148.404 0.757337 148.41 0.844747C148.443 1.36311 148.394 1.88148 148.432 2.40187C148.439 2.48928 148.4 2.56043 148.268 2.5584C147.796 2.5462 147.325 2.54823 146.851 2.5584C146.717 2.56043 146.68 2.52384 146.682 2.38968C146.69 1.89774 146.68 1.4058 146.688 0.913863C146.69 0.775632 146.648 0.74514 146.518 0.747173C146.066 0.755304 145.615 0.757337 145.164 0.747173C145.021 0.743107 144.997 0.793927 144.999 0.919961C145.005 1.4058 144.997 1.88961 145.005 2.37545C145.007 2.51368 144.981 2.57059 144.83 2.5584C144.653 2.54417 144.475 2.5584 144.298 2.55433C144.21 2.5523 144.178 2.57669 144.18 2.66817C144.186 2.94869 144.186 3.22922 144.18 3.50771C144.18 3.59716 144.206 3.62562 144.296 3.62358C144.481 3.61749 144.666 3.63172 144.849 3.61952C144.981 3.61139 145.005 3.65814 145.003 3.78011C144.997 4.29238 145.001 4.80464 145.001 5.44091C145.034 5.92878 144.952 6.54269 145.04 7.15456C145.101 7.57331 145.263 7.92499 145.662 8.11607C146.29 8.41693 146.955 8.30106 147.609 8.24617C147.662 8.24211 147.715 8.20755 147.713 8.1242C147.707 7.74814 147.709 7.37207 147.711 6.996C147.711 6.90046 147.662 6.83744 147.575 6.872C147.408 6.93705 147.237 6.90046 147.07 6.90249C146.816 6.90859 146.725 6.79678 146.676 6.55082C146.648 6.39836 146.678 6.25606 146.676 6.11173C146.654 5.37179 146.698 4.63389 146.662 3.89395C146.658 3.80247 146.585 3.59919 146.857 3.61545C147.327 3.64391 147.8 3.62358 148.272 3.62358C148.378 3.62358 148.424 3.62968 148.418 3.77604C148.398 4.32287 148.404 4.87172 148.41 5.42058C148.414 5.97757 148.404 6.53659 148.451 7.09357C148.489 7.55095 148.739 8.00833 149.252 8.18722C149.829 8.38643 150.412 8.29292 150.996 8.25633C151.065 8.25227 151.122 8.20755 151.12 8.10794C151.112 7.73187 151.114 7.3558 151.12 6.97974C151.12 6.86793 151.063 6.83947 150.986 6.872C150.825 6.93908 150.662 6.90452 150.502 6.90452C150.242 6.90452 150.093 6.7541 150.093 6.49186C150.089 5.5832 150.093 4.67454 150.089 3.76588C150.089 3.63985 150.136 3.62155 150.244 3.62562C150.518 3.63172 150.791 3.62358 151.065 3.62968C151.171 3.63172 151.207 3.60529 151.205 3.49552C151.197 3.22922 151.197 2.96292 151.205 2.69663L151.207 2.68646Z" fill="#E8ECDF"/>
<path id="Vector_12" d="M130.733 29.2551C130.397 29.2633 130.062 29.2572 129.727 29.2572C129.457 29.2572 129.321 29.3954 129.318 29.6719C129.318 29.7044 129.318 29.7349 129.318 29.8101C129.107 29.5926 128.907 29.4422 128.67 29.3365C128.306 29.1718 127.928 29.1576 127.543 29.1799C127.086 29.2043 126.669 29.3527 126.32 29.6515C125.669 30.2065 125.435 30.9525 125.378 31.7697C125.352 32.16 125.36 32.5544 125.458 32.9386C125.608 33.5342 125.852 34.0749 126.389 34.4246C127.108 34.8941 127.871 34.9531 128.676 34.6502C128.873 34.575 129.027 34.4266 129.235 34.3595C129.235 34.6482 129.257 34.9246 129.231 35.195C129.186 35.6585 129.088 35.8922 128.641 36.0081C128.436 36.061 128.216 36.0752 127.987 36.0386C127.631 35.9817 127.247 35.6991 127.222 35.2905C127.216 35.1828 127.186 35.0791 127.045 35.0852C126.56 35.1055 126.074 35.1035 125.586 35.0872C125.521 35.0852 125.442 35.0913 125.454 35.2133C125.47 35.3739 125.454 35.5345 125.496 35.6951C125.592 36.0549 125.734 36.372 126.051 36.6118C126.655 37.0692 127.358 37.1973 128.076 37.2034C128.6 37.2075 129.131 37.1363 129.635 36.9351C130.509 36.5875 130.859 36.0203 130.869 35.2661C130.896 33.3126 130.877 31.3571 130.881 29.4035C130.881 29.2877 130.849 29.2531 130.733 29.2572V29.2551ZM129.149 32.7251C128.964 33.4976 128.277 33.7049 127.659 33.4021C127.324 33.2374 127.186 32.9223 127.147 32.5706C127.127 32.3918 127.06 32.2129 127.09 32.1072C127.117 31.6559 127.141 31.2859 127.304 30.9383C127.48 30.5622 127.976 30.3976 128.338 30.4687C129.007 30.5988 129.145 31.0318 129.196 31.5908C129.231 31.973 129.239 32.3531 129.149 32.7272V32.7251Z" fill="#E8ECDF"/>
<path id="Vector_13" d="M100.824 30.4871C100.684 29.5439 99.8669 29.0946 99.0558 29.1027C98.511 29.1068 98.0068 29.2938 97.6247 29.7187C97.586 29.7614 97.5474 29.8447 97.4864 29.8203C97.4112 29.7898 97.4539 29.7004 97.4539 29.6374C97.4519 28.8791 97.4499 28.1189 97.4539 27.3606C97.4539 27.2346 97.4234 27.2 97.2954 27.2021C96.8502 27.2102 96.405 27.2143 95.9618 27.2021C95.7952 27.198 95.7626 27.2488 95.7647 27.4053C95.7708 28.6555 95.7687 29.9077 95.7687 31.1579C95.7687 32.4081 95.7728 33.6603 95.7626 34.9104C95.7626 35.0995 95.8175 35.132 95.9883 35.128C96.405 35.1158 96.8238 35.1158 97.2405 35.128C97.4051 35.132 97.458 35.0995 97.456 34.9206C97.4458 33.8676 97.4519 32.8146 97.4499 31.7616C97.4499 31.5258 97.4946 31.2982 97.5739 31.0766C97.6714 30.8103 98.0109 30.5623 98.3077 30.5724C98.6207 30.5846 98.9053 30.6619 99.0598 30.9953C99.1615 31.2148 99.2103 31.4384 99.2123 31.6702C99.2184 32.7577 99.2184 33.8432 99.2123 34.9308C99.2123 35.0771 99.2346 35.13 99.3973 35.1259C99.8201 35.1117 100.245 35.1137 100.67 35.1259C100.849 35.132 100.904 35.0792 100.904 34.8962C100.895 33.6582 100.904 32.4223 100.897 31.1843C100.897 30.9505 100.857 30.7188 100.822 30.485L100.824 30.4871Z" fill="#E8ECDF"/>
<path id="Vector_14" d="M120.27 21.8639C121.282 21.7155 122.037 21.1565 122.561 20.2803C122.61 20.199 122.614 20.1888 122.528 20.1441C122.173 19.9652 121.819 19.7782 121.469 19.5892C121.382 19.5424 121.347 19.5465 121.295 19.6441C121.118 19.9774 120.902 20.2803 120.538 20.4348C119.929 20.695 119.199 20.5812 118.833 19.9876C118.711 19.7884 118.672 19.5607 118.626 19.329C118.583 19.1237 118.638 19.1196 118.798 19.1196C119.408 19.1257 120.016 19.1216 120.626 19.1216C121.236 19.1216 121.858 19.1155 122.474 19.1257C122.642 19.1298 122.671 19.0749 122.671 18.9224C122.671 18.5565 122.622 18.2008 122.545 17.845C122.358 16.9892 121.913 16.3143 121.11 15.9281C120.49 15.6293 119.831 15.5927 119.154 15.7147C118.306 15.8671 117.699 16.3347 117.308 17.0787C116.851 17.9467 116.806 18.8797 117.007 19.8209C117.142 20.4531 117.473 20.9857 118.003 21.3658C118.684 21.8537 119.465 21.9797 120.272 21.8618L120.27 21.8639ZM118.644 17.8897C118.778 17.4425 119.002 17.0705 119.489 16.9425C120.13 16.7737 120.772 17.0929 120.906 17.8105C120.947 18.0239 120.888 18.0259 120.723 18.0198C120.416 18.0097 120.107 18.0178 119.8 18.0178C119.453 18.0178 119.103 18.0138 118.756 18.0198C118.65 18.0198 118.615 17.9792 118.642 17.8897H118.644Z" fill="#E8ECDF"/>
<path id="Vector_15" d="M142.606 2.71294C141.846 2.20474 141.019 2.12953 140.149 2.33077C139.391 2.5056 138.827 2.94468 138.474 3.63177C137.955 4.64207 137.907 5.69709 138.273 6.76431C138.482 7.37618 138.899 7.8234 139.47 8.13645C140.11 8.48609 140.787 8.51455 141.484 8.41901C142.149 8.32957 142.704 8.02261 143.178 7.55507C143.407 7.3274 143.564 7.04484 143.771 6.78057C143.44 6.60779 143.111 6.43296 142.781 6.26424C142.493 6.11585 142.491 6.11585 142.336 6.39637C142.015 6.98182 141.407 7.25218 140.751 7.10989C140.181 6.98792 139.86 6.55087 139.791 5.97965C139.754 5.68286 139.763 5.68693 139.988 5.68693C141.214 5.68693 142.44 5.68083 143.663 5.69303C143.792 5.69303 143.81 5.6666 143.812 5.56293C143.822 5.10961 143.771 4.66443 143.643 4.23144C143.46 3.61754 143.157 3.08291 142.606 2.71497V2.71294ZM141.962 4.60344C141.621 4.60141 141.279 4.60344 140.935 4.60344C140.592 4.60344 140.252 4.59938 139.911 4.60548C139.791 4.60751 139.769 4.55872 139.797 4.45912C139.984 3.83911 140.295 3.55452 140.881 3.45695C141.397 3.37157 141.962 3.81472 142.045 4.34934C142.051 4.38797 142.045 4.43472 142.062 4.46725C142.127 4.59328 142.062 4.60344 141.96 4.60141L141.962 4.60344Z" fill="#E8ECDF"/>
<path id="Vector_16" d="M89.526 32.0706C89.526 31.7128 89.465 31.3632 89.3573 31.0257C89.1357 30.3224 88.7556 29.739 88.0746 29.3873C87.4485 29.0641 86.7919 29.0478 86.1129 29.1271C85.5519 29.1922 85.0742 29.428 84.6818 29.8162C84.0862 30.4078 83.8403 31.1619 83.7813 31.9812C83.7528 32.3715 83.7732 32.7638 83.8565 33.152C84.0008 33.8229 84.3281 34.3921 84.879 34.7844C85.6494 35.3312 86.5215 35.443 87.4383 35.2235C88.3205 35.0121 88.9507 34.4713 89.4264 33.7253C89.4772 33.644 89.4792 33.6033 89.3756 33.5525C89.028 33.3858 88.6864 33.2049 88.349 33.0179C88.2535 32.965 88.2169 32.9752 88.1681 33.0687C87.8693 33.6481 87.4342 33.9957 86.739 33.9814C85.9889 33.9672 85.5315 33.3818 85.497 32.7028C85.4889 32.5646 85.5356 32.5341 85.6677 32.5361C86.2898 32.5422 86.9138 32.5381 87.5359 32.5381C88.0766 32.5381 88.6173 32.5381 89.1581 32.5381C89.2861 32.5381 89.4508 32.5768 89.5362 32.5137C89.6378 32.4365 89.5402 32.2779 89.526 32.1539C89.5219 32.1275 89.526 32.0991 89.526 32.0726V32.0706ZM87.481 31.473H86.6415C86.3142 31.473 85.9869 31.4689 85.6576 31.473C85.5254 31.475 85.495 31.4669 85.5315 31.3083C85.6474 30.8225 85.9137 30.485 86.3955 30.3549C86.9545 30.2045 87.6091 30.4627 87.7575 31.1253C87.809 31.3557 87.7154 31.4709 87.4769 31.4709L87.481 31.473Z" fill="#E8ECDF"/>
<path id="Vector_17" d="M132.321 18.5525C132.266 17.652 131.973 16.8775 131.263 16.292C130.812 15.92 130.284 15.733 129.71 15.6842C129.326 15.6517 128.94 15.6537 128.556 15.7167C127.873 15.8306 127.306 16.1477 126.871 16.6762C126.379 17.2739 126.236 17.9955 126.198 18.8086C126.257 18.9753 126.236 19.2111 126.275 19.4449C126.429 20.3942 126.907 21.1077 127.775 21.5305C128.507 21.8883 129.294 21.929 130.078 21.7765C130.812 21.6342 131.424 21.2602 131.827 20.6137C132.219 19.9856 132.365 19.2965 132.321 18.5525ZM130.123 20.1889C129.745 20.5446 128.95 20.5772 128.54 20.258C128.111 19.9246 127.958 19.4652 127.924 18.953C127.895 18.52 127.93 18.0971 128.137 17.7007C128.43 17.1377 128.924 16.9689 129.505 17.0401C129.995 17.1011 130.314 17.404 130.477 17.8776C130.578 18.1724 130.633 18.4712 130.631 18.9143C130.617 19.3067 130.53 19.8027 130.121 20.1889H130.123Z" fill="#E8ECDF"/>
<path id="Vector_18" d="M123.374 29.5398C122.831 29.2023 122.232 29.0661 121.608 29.0946C120.935 29.0702 120.315 29.2084 119.772 29.5906C118.965 30.1557 118.628 30.977 118.563 31.9243C118.524 32.4853 118.589 33.0382 118.811 33.5586C119.093 34.2295 119.561 34.7255 120.248 35.004C120.943 35.2865 121.658 35.3536 122.39 35.2032C123.285 35.0182 123.966 34.5405 124.356 33.7009C124.704 32.9549 124.775 32.1702 124.594 31.3693C124.423 30.607 124.055 29.9606 123.376 29.5378L123.374 29.5398ZM122.872 32.961C122.669 33.5505 122.256 33.9184 121.612 33.894C120.949 33.9266 120.496 33.4489 120.331 32.8167C120.201 32.3186 120.231 31.8247 120.396 31.3226C120.715 30.3529 121.872 30.2147 122.494 30.7595C122.77 31.0034 122.898 31.3551 122.943 31.7129C122.996 32.1296 123.012 32.5504 122.872 32.961Z" fill="#E8ECDF"/>
<path id="Vector_19" d="M111.828 29.0946C111.523 29.0885 111.218 29.0702 110.915 29.1312C110.399 29.2348 109.921 29.4239 109.523 29.7756C108.821 30.3935 108.586 31.2148 108.547 32.1092C108.533 32.4487 108.586 32.7902 108.665 33.1236C108.813 33.7436 109.128 34.2701 109.63 34.6563C110.21 35.0995 110.897 35.258 111.677 35.2865C111.858 35.2255 112.11 35.256 112.356 35.2052C113.09 35.0527 113.708 34.7214 114.125 34.079C114.757 33.1053 114.818 32.0584 114.473 30.981C114.084 29.7715 113.037 29.119 111.828 29.0905V29.0946ZM112.769 33.1744C112.458 33.831 111.988 33.9753 111.36 33.8798C110.85 33.8005 110.515 33.4834 110.344 32.8736C110.281 32.6459 110.238 32.4162 110.265 32.2149C110.242 31.6661 110.346 31.1904 110.708 30.8062C111.19 30.2939 112.332 30.2411 112.747 31.1233C113.058 31.784 113.092 32.4934 112.769 33.1764V33.1744Z" fill="#E8ECDF"/>
<path id="Vector_20" d="M111.086 4.44079C110.732 4.50381 110.376 4.56276 110.029 4.6461C109.47 4.78027 108.909 4.888 108.425 5.25188C107.573 5.89017 107.478 7.09359 108.177 7.86809C108.785 8.54298 109.941 8.54908 110.667 8.16284C110.893 8.04291 111.09 7.88232 111.332 7.74205C111.332 7.88029 111.34 7.98396 111.332 8.08357C111.32 8.21163 111.356 8.25839 111.497 8.25635C111.982 8.24619 112.468 8.25229 112.966 8.25229C112.834 8.05307 112.812 7.8376 112.812 7.61602C112.812 6.37805 112.818 5.1421 112.81 3.90413C112.806 3.31258 112.525 2.86334 111.999 2.59704C111.377 2.28196 110.698 2.22504 110.017 2.26976C109.626 2.29415 109.24 2.37343 108.884 2.56045C108.336 2.84911 108.014 3.29022 107.966 3.91836C107.957 4.02813 107.982 4.07285 108.106 4.07082C108.577 4.06269 109.049 4.06472 109.523 4.07082C109.62 4.07082 109.643 4.03626 109.667 3.95292C109.748 3.66019 109.945 3.49147 110.24 3.42032C110.655 3.32072 110.98 3.44675 111.102 3.7781C111.169 3.96105 111.181 4.15823 111.171 4.35338C111.169 4.41233 111.151 4.42859 111.09 4.43876L111.086 4.44079ZM111.177 5.47345C111.12 5.87595 111.171 6.28657 110.917 6.61995C110.624 7.00415 110.216 7.25622 109.758 7.10782C109.517 7.03058 109.399 6.85372 109.366 6.62605C109.336 6.40244 109.421 6.21339 109.616 6.07719C109.976 5.82512 110.405 5.74178 110.805 5.58932C110.919 5.5446 111.039 5.51614 111.177 5.47345Z" fill="#E8ECDF"/>
<path id="Vector_21" d="M93.0834 8.08353C93.2501 7.97986 93.4087 7.86806 93.5916 7.74406C93.5916 7.88432 93.6018 7.99409 93.5896 8.0998C93.5733 8.23396 93.6282 8.25632 93.7502 8.25429C94.236 8.24819 94.7218 8.25226 95.2341 8.25226C95.0857 7.99409 95.0695 7.73593 95.0695 7.47166C95.0695 6.26824 95.0695 5.06483 95.0695 3.86344C95.0695 3.36541 94.8377 2.9934 94.4434 2.71491C94.0632 2.44455 93.6282 2.35104 93.1708 2.29819C92.5528 2.22501 91.9471 2.25143 91.3657 2.47097C90.6136 2.75557 90.3249 3.22311 90.2233 3.92036C90.207 4.03216 90.2436 4.07282 90.3656 4.07079C90.8372 4.06266 91.3088 4.06672 91.7824 4.07079C91.8576 4.07079 91.8902 4.05859 91.9206 3.97321C92.002 3.75977 92.1138 3.56462 92.3536 3.47721C92.6728 3.36134 93.1749 3.35728 93.3314 3.66829C93.4432 3.8919 93.4351 4.13787 93.427 4.37977C93.4249 4.45905 93.3639 4.43059 93.3212 4.43872C92.7256 4.57086 92.1199 4.6603 91.5344 4.84325C90.7599 5.08516 90.1684 5.50594 90.0098 6.35362C89.8919 6.97972 90.0789 7.54078 90.5404 7.9575C91.2356 8.58564 92.3353 8.54701 93.0834 8.0815V8.08353ZM91.7601 6.20116C91.9389 5.99178 92.1788 5.89624 92.4207 5.80477C92.748 5.68077 93.0854 5.58522 93.429 5.47342C93.4168 5.9308 93.4107 6.38208 93.0936 6.74392C92.8395 7.03461 92.2927 7.3314 91.8678 7.02038C91.6401 6.85369 91.5243 6.47559 91.7601 6.19913V6.20116Z" fill="#E8ECDF"/>
<path id="Vector_22" d="M135.351 29.2552C135.266 29.2552 135.28 29.306 135.268 29.3609C135.181 29.7553 135.083 30.1476 134.996 30.544C134.88 31.0623 134.77 31.5807 134.654 32.0991C134.559 32.528 134.457 32.9569 134.351 33.4143C134.241 32.9569 134.138 32.5321 134.04 32.1052C133.833 31.1863 133.628 30.2675 133.426 29.3467C133.412 29.2776 133.394 29.2572 133.327 29.2572C132.76 29.2572 132.192 29.2572 131.613 29.2572C131.971 30.4362 132.325 31.599 132.676 32.7638C132.908 33.5363 133.156 34.3047 133.355 35.0853C133.453 35.4613 133.41 35.6158 133.01 35.7032C132.766 35.7561 132.524 35.7317 132.282 35.7317C132.133 35.7317 132.101 35.7764 132.105 35.9167C132.115 36.244 132.119 36.5733 132.105 36.9005C132.097 37.0733 132.162 37.0977 132.312 37.0957C132.709 37.0855 133.105 37.0876 133.504 37.0957C134.008 37.1038 134.386 36.8863 134.658 36.4716C134.929 36.063 135.065 35.5996 135.209 35.1361C135.573 33.9611 135.957 32.7923 136.331 31.6214C136.581 30.8408 136.827 30.0602 137.083 29.2593C136.498 29.2593 135.927 29.2593 135.353 29.2593L135.351 29.2552Z" fill="#E8ECDF"/>
<path id="Vector_23" d="M106.77 16.0013C106.778 16.2737 106.77 16.5481 106.774 16.8205C106.797 18.0686 106.705 19.3208 106.858 20.5649C106.902 20.9288 107.071 21.25 107.352 21.4756C107.846 21.874 108.437 21.9045 109.035 21.8029C109.482 21.7277 109.882 21.5346 110.222 21.1483C110.222 21.3089 110.232 21.4187 110.22 21.5264C110.204 21.6586 110.279 21.687 110.378 21.687C110.84 21.6829 111.303 21.6565 111.765 21.6768C111.927 21.6829 111.907 21.6199 111.907 21.5244C111.907 19.6867 111.907 17.8471 111.909 16.0094C111.909 15.8793 111.881 15.8346 111.742 15.8386C111.297 15.8488 110.852 15.8488 110.409 15.8386C110.254 15.8346 110.218 15.8752 110.22 16.0297C110.226 17.2453 110.224 18.463 110.224 19.6786C110.224 19.8677 110.163 20.0242 110.029 20.1644C109.803 20.4002 109.523 20.4409 109.218 20.4389C108.886 20.4368 108.488 20.2153 108.494 19.7274C108.508 18.4975 108.498 17.2677 108.502 16.0358C108.502 15.8996 108.494 15.8305 108.321 15.8366C107.856 15.8508 107.39 15.8468 106.927 15.8366C106.793 15.8346 106.768 15.8793 106.772 15.9992L106.77 16.0013Z" fill="#E8ECDF"/>
<path id="Vector_24" d="M126.204 7.22776C126.287 7.5713 126.446 7.87825 126.753 8.10186C127.143 8.38442 127.574 8.43321 128.029 8.41694C128.627 8.39662 129.135 8.18114 129.564 7.72579C129.564 7.85792 129.572 7.97786 129.562 8.09576C129.55 8.21976 129.588 8.25839 129.719 8.25635C130.176 8.24822 130.635 8.24822 131.093 8.25635C131.221 8.25839 131.251 8.22383 131.251 8.0978C131.247 6.26014 131.247 4.42249 131.251 2.58281C131.251 2.45678 131.221 2.42222 131.093 2.42425C130.648 2.43238 130.202 2.43645 129.759 2.42425C129.595 2.42019 129.56 2.46897 129.56 2.6255C129.566 3.79436 129.564 4.96322 129.564 6.13005C129.564 6.29877 129.546 6.46749 129.456 6.61182C129.247 6.94926 128.755 7.10782 128.361 6.99399C128.094 6.91674 127.899 6.77241 127.842 6.49798C127.798 6.27437 127.793 6.04264 127.796 5.8109C127.8 4.73758 127.796 3.66629 127.802 2.59297C127.802 2.45881 127.767 2.42222 127.633 2.42425C127.188 2.43238 126.743 2.43645 126.299 2.42425C126.141 2.42019 126.11 2.46694 126.112 2.61737C126.118 3.78623 126.12 4.95509 126.112 6.12191C126.112 6.49392 126.116 6.86795 126.204 7.22776Z" fill="#E8ECDF"/>
<path id="Vector_25" d="M88.7007 17.0624C88.6763 16.7148 88.5584 16.3794 88.2799 16.1395C87.7595 15.6883 87.1314 15.6456 86.491 15.7411C86.0702 15.8041 85.6799 15.9607 85.3771 16.3083C85.3771 16.2005 85.371 16.0908 85.3771 15.983C85.3832 15.8834 85.3628 15.8387 85.247 15.8407C84.7693 15.8468 84.2895 15.8468 83.8098 15.8407C83.6797 15.8407 83.6492 15.8976 83.6492 16.0155C83.6512 17.8532 83.6532 19.6909 83.6492 21.5285C83.6492 21.6586 83.7102 21.6891 83.8098 21.6891C84.2712 21.685 84.7347 21.6606 85.1941 21.6789C85.3547 21.685 85.3364 21.622 85.3364 21.5285C85.3364 20.9004 85.3364 20.2722 85.3364 19.6421C85.3364 19.0566 85.3181 18.4712 85.3791 17.8898C85.3994 17.7007 85.434 17.5117 85.5681 17.3552C85.7978 17.0848 86.1983 17.0076 86.5642 17.1356C86.8834 17.2474 87.0623 17.5462 87.0623 17.9406C87.0623 19.1298 87.0623 20.319 87.0623 21.5082C87.0623 21.5996 87.0501 21.6891 87.1822 21.6871C87.6701 21.683 88.16 21.6749 88.6478 21.6749C88.7556 21.6749 88.7495 21.6179 88.7474 21.5468C88.723 20.0547 88.8044 18.5586 88.7007 17.0685V17.0624Z" fill="#E8ECDF"/>
<path id="Vector_26" d="M84.1919 28.6189C84.1858 28.1961 84.1858 27.7713 84.1919 27.3484C84.1919 27.2305 84.1554 27.2021 84.0415 27.2021C82.1673 27.2062 80.293 27.2062 78.4188 27.2021C78.3029 27.2021 78.2704 27.2346 78.2724 27.3505C78.2785 27.7672 78.2806 28.1839 78.2724 28.6007C78.2684 28.7389 78.3151 28.7673 78.4432 28.7673C78.9961 28.7612 79.5511 28.7694 80.106 28.7592C80.2259 28.7572 80.2788 28.8263 80.2707 28.8995C80.2503 29.0723 80.2707 29.241 80.2707 29.4117C80.2747 30.2594 80.2727 31.1071 80.2727 31.9568C80.2646 31.9568 80.2564 31.9568 80.2483 31.9568C80.2483 32.4406 80.2402 32.9224 80.2483 33.4062C80.2585 33.9103 80.2646 34.4124 80.2463 34.9166C80.2402 35.0751 80.2971 35.1341 80.4699 35.13C80.9679 35.1158 81.468 35.1158 81.9681 35.13C82.1673 35.1361 82.2222 35.0772 82.2201 34.8779C82.212 32.9041 82.2181 30.9282 82.212 28.9544C82.212 28.8039 82.2445 28.7592 82.401 28.7633C82.9479 28.7734 83.4947 28.7633 84.0415 28.7694C84.1574 28.7694 84.1899 28.7369 84.1899 28.621L84.1919 28.6189Z" fill="#E8ECDF"/>
<path id="Vector_27" d="M107.431 30.9505C107.431 30.7554 107.431 30.5602 107.392 30.3651C107.301 29.8975 107.071 29.552 106.632 29.3284C106.258 29.1373 105.872 29.119 105.475 29.1352C104.941 29.1596 104.463 29.3284 104.063 29.7878C104.063 29.6292 104.056 29.5215 104.063 29.4137C104.073 29.2877 104.03 29.2633 103.902 29.2674C103.443 29.2836 102.983 29.2938 102.526 29.2714C102.379 29.2633 102.377 29.2958 102.377 29.4076C102.379 31.2595 102.379 33.1134 102.377 34.9653C102.377 35.0893 102.404 35.1279 102.534 35.1259C102.965 35.1178 103.396 35.1096 103.827 35.1279C104.028 35.1361 104.067 35.0791 104.069 34.884C104.083 33.6643 104.004 32.4426 104.109 31.2229C104.134 30.9322 104.256 30.6863 104.569 30.5602C104.977 30.3976 105.614 30.5155 105.734 31.0766C105.776 31.2737 105.784 31.4791 105.786 31.6803C105.79 32.7597 105.79 33.8412 105.786 34.9206C105.786 35.071 105.811 35.132 105.982 35.1259C106.398 35.1117 106.817 35.1137 107.234 35.1259C107.39 35.13 107.437 35.0934 107.437 34.9287C107.429 33.6033 107.433 32.2759 107.433 30.9505H107.431Z" fill="#E8ECDF"/>
<path id="Vector_28" d="M136.837 5.09325C136.323 4.73141 135.727 4.60335 135.13 4.47935C134.876 4.42649 134.62 4.38177 134.374 4.31062C134.235 4.26997 134.101 4.18866 134.081 4.01384C134.061 3.82072 134.148 3.70078 134.323 3.61744C134.624 3.47718 134.929 3.4975 135.238 3.56052C135.583 3.63167 135.88 3.79633 136.167 3.99554C136.226 4.0362 136.278 4.10328 136.374 4.01993C136.683 3.7516 136.965 3.45685 137.26 3.17429C137.337 3.10111 137.303 3.05842 137.244 3.02183C137.022 2.88766 136.807 2.7413 136.573 2.63356C135.797 2.27579 134.992 2.11723 134.138 2.30222C133.249 2.4933 132.619 2.95678 132.43 3.88983C132.327 4.40617 132.447 4.87168 132.8 5.26604C133.093 5.59332 133.502 5.71122 133.904 5.83116C134.372 5.96736 134.859 5.99785 135.329 6.11982C135.504 6.16454 135.66 6.25398 135.715 6.4349C135.77 6.61379 135.673 6.75202 135.536 6.85569C135.223 7.09149 134.868 7.13418 134.49 7.08336C133.937 7.00815 133.5 6.71543 133.101 6.34749C133.042 6.29464 133.018 6.29464 132.963 6.34749C132.64 6.66054 132.314 6.96749 131.991 7.27445C132.046 7.38422 132.156 7.41877 132.233 7.48992C132.902 8.10993 133.717 8.35793 134.605 8.41078C134.977 8.43314 135.347 8.38435 135.703 8.28475C136.563 8.04488 137.238 7.60173 137.435 6.64428C137.543 6.12388 137.274 5.39411 136.835 5.08715L136.837 5.09325Z" fill="#E8ECDF"/>
<path id="Vector_29" d="M105.227 8.29085C106.085 8.04895 106.791 7.62816 106.955 6.65648C107.059 6.05071 106.88 5.44696 106.311 5.0526C105.817 4.71109 105.242 4.59929 104.67 4.47935C104.41 4.42447 104.146 4.38584 103.894 4.3086C103.599 4.21915 103.506 3.86138 103.725 3.69266C103.928 3.53817 104.185 3.48328 104.426 3.50361C104.902 3.5463 105.347 3.69469 105.723 4.01384C105.774 4.05653 105.833 4.08296 105.914 4.01384C106.246 3.72925 106.545 3.41213 106.862 3.10315C106.658 2.92833 106.437 2.79213 106.205 2.67829C105.378 2.27173 104.508 2.10098 103.599 2.31035C102.81 2.49127 102.225 2.93239 101.991 3.74754C101.802 4.40617 102.046 5.11765 102.577 5.47136C102.798 5.61975 103.046 5.71123 103.298 5.79254C103.806 5.9572 104.343 5.99175 104.857 6.12185C105.046 6.17064 105.219 6.26008 105.254 6.4715C105.29 6.69104 105.166 6.84756 104.979 6.93701C104.536 7.14842 104.085 7.15045 103.621 6.98579C103.262 6.85773 102.971 6.62599 102.682 6.39222C102.597 6.3231 102.546 6.30481 102.461 6.38815C102.223 6.62192 101.975 6.8435 101.737 7.07524C101.532 7.27242 101.538 7.27242 101.733 7.46147C102.394 8.09164 103.205 8.35184 104.091 8.41485C104.477 8.44331 104.859 8.39452 105.229 8.29085H105.227Z" fill="#E8ECDF"/>
<path id="Vector_30" d="M96.1326 7.55498C96.157 7.57734 96.1875 7.59157 96.2139 7.6119C96.8624 8.1445 97.6267 8.37014 98.448 8.41486C98.9623 8.44332 99.4664 8.35997 99.9421 8.16686C100.735 7.84364 101.412 7.19721 101.272 6.10966C101.206 5.6096 100.956 5.24572 100.53 4.98959C100.054 4.705 99.5253 4.59116 98.9927 4.47529C98.6899 4.41024 98.3727 4.39398 98.0922 4.23949C97.8889 4.12565 97.8523 3.91627 98.0007 3.74145C98.1979 3.50768 98.4866 3.49548 98.7386 3.50361C99.2265 3.52191 99.6676 3.71706 100.052 4.02198C100.119 4.07483 100.164 4.08296 100.227 4.02198C100.546 3.71503 100.865 3.41214 101.19 3.10112C101.133 3.06046 101.087 3.02591 101.036 2.99338C100.095 2.36118 99.0761 2.08066 97.9398 2.3002C97.0311 2.47502 96.2322 3.22715 96.2485 4.15208C96.2566 4.69687 96.4335 5.14408 96.8766 5.4551C97.3665 5.79865 97.9499 5.89622 98.5272 5.98973C98.7895 6.03242 99.0517 6.06494 99.2997 6.17268C99.4481 6.23773 99.5558 6.3353 99.5599 6.4898C99.564 6.65852 99.4948 6.80285 99.3302 6.89636C98.9358 7.11793 98.5252 7.14639 98.0963 7.02849C97.6226 6.89839 97.2344 6.62599 96.8949 6.28042C96.6144 6.54672 96.3338 6.79472 96.0757 7.06508C96.0045 7.13826 95.8175 7.15452 95.8724 7.29275C95.9131 7.39643 96.0391 7.46554 96.1306 7.54889L96.1326 7.55498Z" fill="#E8ECDF"/>
<path id="Vector_31" d="M93.3842 21.6626C93.7949 21.5325 94.1852 21.3353 94.4677 21.008C94.8458 20.573 95.0145 20.0587 94.9068 19.4712C94.8397 19.1033 94.6852 18.7801 94.3844 18.5565C93.9107 18.2048 93.3558 18.0503 92.7866 17.9304C92.4329 17.8552 92.0589 17.847 91.7316 17.66C91.5222 17.5421 91.4856 17.2941 91.6645 17.1335C91.7865 17.0238 91.9369 16.9668 92.0975 16.9506C92.7419 16.8876 93.2907 17.1091 93.7786 17.5177C94.116 17.1762 94.5023 16.8835 94.8092 16.5196C94.4515 16.2432 94.0652 16.0257 93.6383 15.8834C93.0956 15.7024 92.5447 15.6211 91.9653 15.6719C91.3921 15.7228 90.8819 15.9037 90.4631 16.2899C90.0911 16.6314 89.8919 17.0624 89.8899 17.5868C89.8878 18.0747 90.0484 18.4772 90.4123 18.7984C90.6888 19.0423 91.0323 19.146 91.3758 19.2497C91.8352 19.3899 92.3191 19.4123 92.7805 19.5363C92.9858 19.5912 93.1688 19.6827 93.2094 19.9205C93.2358 20.0669 93.0854 20.2905 92.8821 20.3799C92.5081 20.5486 92.1219 20.5649 91.7275 20.449C91.3169 20.3271 90.955 20.1238 90.6542 19.8209C90.5587 19.7253 90.4997 19.7253 90.4042 19.8209C90.2131 20.014 90.0057 20.1888 89.8106 20.3779C89.6988 20.4836 89.5138 20.6035 89.5158 20.7133C89.5199 20.8292 89.7171 20.9267 89.837 21.0263C90.4672 21.5508 91.2051 21.7764 92.006 21.8334C92.4735 21.8659 92.935 21.8069 93.3781 21.6646L93.3842 21.6626Z" fill="#E8ECDF"/>
<path id="Vector_32" d="M117.333 8.40675C118.18 8.25226 118.796 7.7278 119.25 7.00616C119.311 6.90858 119.276 6.86386 119.187 6.81914C118.908 6.67888 118.626 6.54268 118.357 6.38615C118.069 6.21743 118.077 6.2093 117.922 6.49186C117.713 6.87402 117.381 7.07324 116.951 7.08747C116.552 7.09966 116.219 6.91468 116.026 6.58537C115.56 5.79664 115.556 4.97539 115.973 4.16227C116.194 3.73132 116.652 3.45892 117.184 3.62358C117.577 3.74555 117.845 4.01388 118.001 4.40214C118.382 4.17243 118.756 3.94476 119.134 3.72318C119.201 3.68253 119.246 3.6561 119.191 3.57276C118.979 3.25971 118.745 2.96902 118.428 2.75761C117.794 2.33682 117.105 2.19452 116.347 2.30023C115.412 2.43032 114.735 2.906 114.316 3.73741C113.903 4.5546 113.859 5.4287 114.048 6.30484C114.395 7.93718 115.93 8.66492 117.335 8.40675H117.333Z" fill="#E8ECDF"/>
<path id="Vector_33" d="M95.4069 33.6703C95.0125 33.4792 94.6405 33.2455 94.2319 33.0706C94.2238 33.091 94.2157 33.1093 94.2096 33.1255C94.047 33.5931 93.7095 33.8695 93.2298 33.9265C92.7907 33.9793 92.4553 33.7699 92.2174 33.4C91.7336 32.6478 91.7641 31.6639 92.2134 30.9138C92.4593 30.5032 92.9248 30.2999 93.4371 30.4829C93.7563 30.5967 93.9778 30.8081 94.1323 31.1049C94.1547 31.1496 94.1445 31.2696 94.2746 31.1883C94.6283 30.9687 94.9922 30.7593 95.3561 30.554C95.4211 30.5174 95.4354 30.4849 95.3988 30.428C95.1304 30.0133 94.7991 29.6576 94.3559 29.4279C93.7298 29.1026 93.0692 29.0355 92.376 29.1677C91.5507 29.3242 90.953 29.7755 90.5566 30.5032C90.3391 30.9037 90.2334 31.3346 90.1785 31.792C90.0952 32.471 90.1663 33.1255 90.4448 33.7333C90.9835 34.9042 92.1382 35.4063 93.3273 35.2722C94.2706 35.1644 94.9759 34.6379 95.4557 33.8167C95.5024 33.7374 95.4902 33.7049 95.411 33.6663L95.4069 33.6703Z" fill="#E8ECDF"/>
<path id="Vector_34" d="M132.849 16.9994C132.963 17.1031 133.239 17.0421 133.443 17.0279C133.628 17.0136 133.676 17.0705 133.676 17.2576C133.668 18.6724 133.674 20.0872 133.668 21.5C133.668 21.6484 133.709 21.6809 133.857 21.6769C134.272 21.6647 134.687 21.6769 135.101 21.683C135.272 21.685 135.368 21.6647 135.362 21.4411C135.341 20.752 135.353 20.0608 135.353 19.3717C135.353 18.648 135.358 17.9223 135.349 17.1986C135.349 17.0645 135.384 17.0218 135.518 17.0299C135.695 17.0421 135.874 17.0319 136.051 17.0319C136.459 17.0319 136.461 17.0319 136.459 16.6193C136.459 16.4079 136.532 16.1233 136.425 16.0074C136.303 15.8753 136.014 15.9708 135.797 15.9667C135.311 15.9606 135.303 15.9647 135.353 15.487C135.374 15.302 135.419 15.1353 135.671 15.0947C135.882 15.0601 136.089 15.0784 136.297 15.0662C136.376 15.0621 136.421 15.056 136.421 14.9564C136.415 14.6007 136.417 14.245 136.421 13.8913C136.421 13.7815 136.37 13.7449 136.27 13.751C136.223 13.753 136.173 13.7591 136.128 13.749C135.669 13.6493 135.209 13.6311 134.752 13.7551C134.286 13.8811 133.914 14.1271 133.768 14.619C133.685 14.9016 133.711 15.1963 133.711 15.487C133.711 15.8068 133.549 15.9667 133.225 15.9667C132.808 15.9667 132.804 15.9667 132.81 16.3936C132.812 16.603 132.719 16.8815 132.851 17.0014L132.849 16.9994Z" fill="#E8ECDF"/>
<path id="Vector_35" d="M116.343 21.5041C116.339 21.1484 116.339 20.7926 116.343 20.4389C116.343 20.3393 116.312 20.3088 116.215 20.3129C116.044 20.319 115.873 20.317 115.702 20.3129C115.434 20.3088 115.355 20.2255 115.31 19.9612C115.288 19.825 115.31 19.6909 115.306 19.5587C115.28 18.8188 115.33 18.0789 115.284 17.341C115.265 17.0442 115.292 17.0299 115.609 17.0299C115.834 17.0299 116.06 17.0238 116.286 17.032C116.394 17.036 116.426 17.0035 116.424 16.8958C116.416 16.6437 116.416 16.3896 116.424 16.1375C116.428 16.0013 116.375 15.9566 116.243 15.9627C116.017 15.9708 115.79 15.9465 115.566 15.9688C115.343 15.9912 115.3 15.9058 115.308 15.7005C115.324 15.2431 115.308 14.7857 115.316 14.3263C115.318 14.1982 115.292 14.1515 115.151 14.1535C114.7 14.1637 114.249 14.1617 113.798 14.1535C113.665 14.1515 113.625 14.1861 113.627 14.3222C113.635 14.8142 113.627 15.3061 113.633 15.7981C113.635 15.9343 113.594 15.9749 113.462 15.9647C113.3 15.9526 113.133 15.9729 112.97 15.9587C112.828 15.9465 112.802 16.0034 112.806 16.1314C112.816 16.3774 112.814 16.6234 112.806 16.8693C112.802 16.9893 112.824 17.0421 112.96 17.032C113.131 17.0198 113.302 17.036 113.472 17.0259C113.596 17.0177 113.635 17.0523 113.633 17.1824C113.625 17.7008 113.629 18.2212 113.629 18.7416C113.629 19.1786 113.637 19.6177 113.625 20.0547C113.619 20.2662 113.633 20.4816 113.68 20.6788C113.838 21.3639 114.253 21.6383 114.932 21.7033C115.353 21.744 115.774 21.7216 116.194 21.6688C116.312 21.6546 116.343 21.6078 116.343 21.5021V21.5041Z" fill="#E8ECDF"/>
<path id="Vector_36" d="M103.036 17.0278C103.172 17.0156 103.182 17.1092 103.18 17.1823C103.18 17.6885 103.16 18.1926 103.162 18.6988C103.166 19.3046 103.178 19.9104 103.205 20.5161C103.215 20.7702 103.308 21.0081 103.465 21.2134C103.725 21.559 104.093 21.6809 104.506 21.7094C104.912 21.7358 105.319 21.7216 105.723 21.6728C105.841 21.6586 105.874 21.6118 105.872 21.5061C105.868 21.3008 105.872 21.0955 105.872 20.8922C105.872 20.7092 105.937 20.4633 105.843 20.3576C105.736 20.2336 105.486 20.323 105.296 20.3189C104.983 20.3108 104.847 20.1787 104.845 19.8616C104.845 19.4245 104.845 18.9875 104.845 18.5504C104.845 18.1134 104.855 17.6763 104.841 17.2393C104.835 17.0604 104.894 17.0238 105.057 17.0339C105.309 17.0482 105.563 17.0339 105.815 17.04C105.916 17.0421 105.959 17.0217 105.957 16.9079C105.949 16.6416 105.949 16.3753 105.957 16.109C105.959 16.0033 105.933 15.9667 105.821 15.9708C105.549 15.9789 105.274 15.9667 105 15.9769C104.872 15.981 104.839 15.9464 104.841 15.8183C104.849 15.3203 104.845 14.8202 104.841 14.3222C104.841 14.2571 104.88 14.1657 104.748 14.1677C104.248 14.1718 103.75 14.1677 103.249 14.1677C103.199 14.1677 103.158 14.1677 103.158 14.2409C103.164 14.7206 103.16 15.2024 103.176 15.6821C103.186 15.9749 103.199 15.9728 102.896 15.9728C102.751 15.9728 102.609 15.9769 102.465 15.9728C102.371 15.9688 102.331 15.9911 102.335 16.0948C102.341 16.3672 102.343 16.6416 102.335 16.914C102.331 17.0339 102.383 17.0461 102.481 17.0421C102.666 17.036 102.851 17.0522 103.034 17.036L103.036 17.0278Z" fill="#E8ECDF"/>
<path id="Vector_37" d="M95.4313 17.0339C95.6163 17.0278 95.8013 17.0421 95.9863 17.0299C96.1184 17.0217 96.1448 17.0665 96.1428 17.1905C96.1367 17.717 96.1407 18.2435 96.1407 18.77C96.1407 19.2964 96.1326 19.8229 96.1448 20.3494C96.1509 20.6137 96.1977 20.878 96.344 21.1117C96.6063 21.5305 97.0088 21.687 97.4804 21.7114C97.8869 21.7338 98.2935 21.7236 98.7 21.6728C98.8139 21.6586 98.8566 21.622 98.8545 21.5102C98.8505 21.313 98.8586 21.1138 98.8525 20.9146C98.8464 20.7194 98.9379 20.4592 98.8159 20.3454C98.7102 20.2478 98.452 20.3128 98.263 20.3149C97.8666 20.3189 97.7975 20.1299 97.7934 19.8555C97.7772 18.961 97.7893 18.0646 97.7853 17.1681C97.7853 17.0644 97.8097 17.0258 97.9194 17.0299C98.2 17.038 98.4805 17.0278 98.761 17.0339C98.8708 17.036 98.8993 17.0014 98.8972 16.8957C98.8911 16.6294 98.8891 16.3631 98.8972 16.0968C98.9013 15.983 98.8586 15.9606 98.757 15.9627C98.511 15.9688 98.263 15.9566 98.0191 15.9688C97.8727 15.9769 97.8198 15.9444 97.8239 15.7838C97.8361 15.2918 97.8239 14.7999 97.83 14.308C97.83 14.1941 97.8015 14.1575 97.6836 14.1596C97.2242 14.1657 96.7669 14.1677 96.3074 14.1596C96.1712 14.1575 96.1387 14.1982 96.1407 14.3303C96.1489 14.8162 96.1367 15.302 96.1489 15.7858C96.1529 15.9484 96.1001 15.981 95.9537 15.9708C95.783 15.9586 95.6122 15.9708 95.4415 15.9667C95.3561 15.9647 95.3195 15.985 95.3215 16.0785C95.3276 16.3591 95.3256 16.6396 95.3215 16.9201C95.3215 17.0095 95.3459 17.04 95.4374 17.038L95.4313 17.0339Z" fill="#E8ECDF"/>
<path id="Vector_38" d="M80.2056 18.7151C80.2056 19.6441 80.2077 20.5751 80.2036 21.5041C80.2036 21.6505 80.2463 21.681 80.3947 21.6769C80.8643 21.6647 81.3338 21.6728 81.8014 21.685C82.1348 21.6932 82.1348 21.7033 82.1348 21.3801V17.7719C82.1348 16.5014 82.1348 15.2289 82.1368 13.9584C82.1368 13.8262 82.1063 13.7856 81.9701 13.7876C81.4436 13.7957 80.9171 13.7978 80.3906 13.7876C80.2341 13.7835 80.2016 13.8283 80.2016 13.9787C80.2077 15.5582 80.2056 17.1356 80.2056 18.7151Z" fill="#E8ECDF"/>
<path id="Vector_39" d="M117.451 31.1843C117.451 29.9138 117.451 28.6433 117.453 27.3708C117.453 27.2386 117.422 27.198 117.286 27.2C116.829 27.2082 116.369 27.2082 115.912 27.2C115.794 27.2 115.765 27.2346 115.765 27.3484C115.769 29.8894 115.769 32.4325 115.765 34.9735C115.765 35.0873 115.794 35.1239 115.912 35.1218C116.363 35.1157 116.814 35.1117 117.266 35.1218C117.42 35.1259 117.455 35.0832 117.455 34.9308C117.449 33.6806 117.451 32.4304 117.451 31.1802V31.1843Z" fill="#E8ECDF"/>
<path id="Vector_40" d="M101.328 15.8407C100.877 15.8468 100.426 15.8529 99.9746 15.8386C99.8099 15.8346 99.7896 15.8915 99.7916 16.0358C99.7977 16.9384 99.7957 17.8389 99.7957 18.7415C99.7957 19.644 99.7998 20.5873 99.7916 21.5081C99.7916 21.6403 99.8384 21.689 99.9522 21.689C100.414 21.687 100.877 21.6707 101.339 21.6809C101.469 21.6829 101.481 21.6403 101.481 21.5406C101.481 19.6888 101.481 17.8369 101.481 15.985C101.481 15.863 101.44 15.8407 101.328 15.8407Z" fill="#E8ECDF"/>
<path id="Vector_41" d="M101.335 13.7896C101.103 13.7957 100.871 13.7896 100.637 13.7896C100.397 13.7896 100.16 13.7937 99.9197 13.7896C99.8242 13.7876 99.7876 13.81 99.7896 13.9136C99.7957 14.2694 99.7957 14.6231 99.7896 14.9788C99.7896 15.0744 99.812 15.1089 99.9136 15.1069C100.391 15.1028 100.869 15.1028 101.349 15.1069C101.442 15.1069 101.481 15.0866 101.479 14.9829C101.473 14.6272 101.471 14.2734 101.479 13.9177C101.481 13.7978 101.43 13.7876 101.335 13.7896Z" fill="#E8ECDF"/>
</g>
</svg>
