<svg width="140" height="141" viewBox="0 0 140 141" fill="none" xmlns="http://www.w3.org/2000/svg">
<g id="mitre">
<mask id="mask0_506_4426" style="mask-type:alpha" maskUnits="userSpaceOnUse" x="0" y="0" width="140" height="141">
<rect id="Bounding box" y="140.639" width="140" height="140" transform="rotate(-90 0 140.639)" fill="#D9D9D9"/>
</mask>
<g mask="url(#mask0_506_4426)">
<path id="mitre_2" d="M82.3402 60.3184L57.6593 60.3184L57.6593 47.9795L35.6735 47.9795L35.6735 60.3184L10.9927 60.3185L10.9927 29.8057L35.6735 29.8057L35.6735 42.1462L57.6593 42.1462L57.6593 29.8057L82.3402 29.8057L82.3402 60.3184ZM76.5068 54.4851L76.5068 35.6391L63.4927 35.6391L63.4927 54.4851L76.5068 54.4851ZM29.8402 54.4851L29.8402 35.6391L16.826 35.6391L16.826 54.4851L29.8402 54.4851ZM129.007 111.472L104.326 111.472L104.326 99.132L82.3402 99.132L82.3402 111.472L57.6593 111.472L57.6593 99.132L35.6735 99.132L35.6735 111.472L10.9927 111.472L10.9927 80.9597L35.6735 80.9597L35.6735 93.2987L57.6593 93.2987L57.6593 80.9597L82.3402 80.9597L82.3402 93.2987L104.326 93.2987L104.326 80.9597L129.007 80.9597L129.007 111.472ZM123.174 105.639L123.174 86.793L110.159 86.793L110.159 105.639L123.174 105.639ZM76.5069 105.639L76.5069 86.793L63.4927 86.793L63.4927 105.639L76.5069 105.639ZM29.8402 105.639L29.8402 86.793L16.826 86.793L16.826 105.639L29.8402 105.639Z" fill="#E8ECDF"/>
</g>
</g>
</svg>
