<svg width="140" height="141" viewBox="0 0 140 141" fill="none" xmlns="http://www.w3.org/2000/svg">
<g id="add_moderator">
<mask id="mask0_506_4444" style="mask-type:alpha" maskUnits="userSpaceOnUse" x="0" y="0" width="140" height="141">
<rect id="Bounding box" y="0.367188" width="140" height="140" fill="#D9D9D9"/>
</mask>
<g mask="url(#mask0_506_4444)">
<path id="add_moderator_2" d="M69.9998 122.643C58.2807 119.165 48.5453 112.066 40.7938 101.345C33.0423 90.6244 29.1665 78.5484 29.1665 65.1172V33.572L69.9998 18.3163L110.833 33.572V66.5638C109.958 66.2352 108.997 65.9416 107.95 65.683C106.903 65.4254 105.92 65.1881 105 64.9713V37.5882L69.9998 24.5755L34.9998 37.5882V65.1172C34.9998 70.8834 35.8505 76.4066 37.5519 81.6868C39.2533 86.9659 41.5716 91.8212 44.5067 96.2526C47.4419 100.684 50.9141 104.556 54.9236 107.868C58.9321 111.182 63.2059 113.706 67.7453 115.441L68.0821 115.329C68.5527 116.496 69.1394 117.629 69.8423 118.728C70.5453 119.827 71.342 120.859 72.2325 121.824C71.8359 121.973 71.4635 122.109 71.1155 122.233C70.7684 122.356 70.3965 122.493 69.9998 122.643ZM99.1665 122.867C92.6672 122.867 87.1537 120.603 82.6261 116.074C78.0975 111.547 75.8332 106.033 75.8332 99.5338C75.8332 93.0345 78.0975 87.5211 82.6261 82.9934C87.1537 78.4648 92.6672 76.2005 99.1665 76.2005C105.666 76.2005 111.179 78.4648 115.707 82.9934C120.236 87.5211 122.5 93.0345 122.5 99.5338C122.5 106.033 120.236 111.547 115.707 116.074C111.179 120.603 105.666 122.867 99.1665 122.867ZM96.9236 114.117H101.409V101.777H113.75V97.2909H101.409V84.9505H96.9236V97.2909H84.5832V101.777H96.9236V114.117Z" fill="#888F77"/>
</g>
</g>
</svg>
