<svg width="93" height="83" viewBox="0 0 93 83" fill="none" xmlns="http://www.w3.org/2000/svg">
<g id="Group">
<path id="Vector" d="M44.8023 35.9341C45.4649 34.5579 46.0663 33.3143 46.6983 31.9993C47.3507 33.3347 47.9725 34.5936 48.7676 36.2144C50.9338 33.6048 52.7992 31.2246 54.8023 28.9718C56.3619 27.2184 56.6882 25.5671 55.0164 23.7373C54.7259 23.4162 54.6392 22.8963 54.3283 22.6109C53.9665 22.2745 53.4618 21.8871 53.0133 21.882C49.8635 21.8209 46.7136 21.8413 43.5637 21.8515C42.2334 21.8515 40.6382 21.4539 39.6443 22.04C38.5994 22.6568 38.1305 24.247 37.4067 25.4091C37.3201 25.5467 37.1978 25.6843 37.1774 25.8321C37.1366 26.1277 37.0449 26.51 37.1774 26.7241C39.2569 30.0982 41.6881 33.1818 44.8023 35.9392V35.9341ZM38.6555 25.6027C40.0571 22.9524 40.0826 22.9626 43.1356 22.9677C46.0459 22.9677 48.9511 23.0237 51.8614 22.9473C52.8859 22.9218 53.4618 23.248 53.9613 24.1349C55.2202 26.3724 55.3018 26.3775 53.7473 28.4009C52.2794 30.3122 50.7248 32.1573 49.1754 34.0737C47.2437 31.5865 47.101 27.774 48.8186 25.6639C49.2009 26.2093 49.4965 26.7903 49.945 27.2134C50.3374 27.5905 50.8981 27.7893 51.3874 28.0645C51.4741 27.9473 51.5556 27.8301 51.6423 27.7128C50.7554 26.4335 49.8736 25.1542 48.8084 23.615C48.0388 24.7261 47.3762 25.6843 46.7034 26.6629C46.102 25.7658 45.4547 24.7974 44.6494 23.5895C43.5841 25.1134 42.682 26.403 41.7289 27.7638C43.7013 28.35 43.6249 26.2348 44.7055 25.7709C46.2804 27.7893 46.1937 30.985 44.3945 34.0024C43.6045 33.1614 42.7941 32.3969 42.106 31.5355C40.9236 30.0523 39.787 28.5283 38.7167 26.9636C38.4924 26.6374 38.4771 25.9544 38.6657 25.5976L38.6555 25.6027Z" fill="#888F77"/>
<path id="Vector_2" d="M83.4517 57.1676C86.4334 58.1767 89.4406 56.3826 91.0766 52.137C86.6118 53.3194 83.4415 54.8536 83.4517 57.1676Z" fill="#E8ECDF"/>
<path id="Vector_3" d="M6.37204 36.418C7.18753 32.7126 4.318 30.786 2.47803 28.0796C1.3975 32.4374 3.14573 36.0307 6.37204 36.418Z" fill="#E8ECDF"/>
<path id="Vector_4" d="M14.2823 16.9276C16.9633 14.2466 15.6585 11.0866 15.5209 7.92651C12.5086 10.7145 11.5759 14.7308 14.2823 16.9276Z" fill="#E8ECDF"/>
<path id="Vector_5" d="M8.86435 25.9392C10.2915 23.8749 9.64418 19.7363 7.53918 17.0859C5.43418 20.7608 5.91327 24.1247 8.86435 25.9392Z" fill="#E8ECDF"/>
<path id="Vector_6" d="M85.99 16.9836C83.5792 21.688 83.2784 23.844 84.7005 25.8827C87.6261 24.4913 88.2122 20.6687 85.99 16.9836Z" fill="#E8ECDF"/>
<path id="Vector_7" d="M26.0816 0.959229C22.0805 3.06933 20.4597 6.57596 22.2436 9.29258C25.6177 7.4832 25.2661 4.05302 26.0816 0.959229Z" fill="#E8ECDF"/>
<path id="Vector_8" d="M16.1325 72.7639C19.5984 75.4092 23.4822 75.455 25.3629 72.9372C23.3445 71.2654 19.4658 71.2144 16.1325 72.7639Z" fill="#E8ECDF"/>
<path id="Vector_9" d="M10.3374 57.0505C8.94085 53.4776 5.44444 53.2839 2.34045 51.9128C4.33332 56.4541 7.30476 58.3145 10.3374 57.0505Z" fill="#E8ECDF"/>
<path id="Vector_10" d="M6.92762 47.2847C6.54535 43.4213 3.26293 42.3459 0.760376 40.3071C0.908185 44.6446 3.45666 47.5192 6.92762 47.2847Z" fill="#E8ECDF"/>
<path id="Vector_11" d="M68.1663 72.9217C70.5618 75.4752 75.0368 75.2969 77.5445 72.5802C74.3742 72.1623 71.2906 70.5313 68.1663 72.9217Z" fill="#E8ECDF"/>
<path id="Vector_12" d="M7.82971 63.467C10.266 66.6679 13.8134 67.993 16.632 66.1021C15.3527 63.9869 11.0866 62.7229 7.82971 63.467Z" fill="#E8ECDF"/>
<path id="Vector_13" d="M86.8666 47.3408C90.2968 47.3204 93.0694 44.0839 92.7585 40.5518C88.6046 42.9116 86.4079 45.0727 86.8666 47.3408Z" fill="#E8ECDF"/>
<path id="Vector_14" d="M25.9847 79.1857C30.3272 80.9441 34.0327 80.0114 35.2049 76.9787C31.6677 75.5618 29.0734 77.8656 25.9847 79.1857Z" fill="#E8ECDF"/>
<path id="Vector_15" d="M78.0643 7.99805C77.9471 11.1122 76.6474 14.2723 79.3335 16.943C81.8309 14.68 81.2091 10.1948 78.0643 7.99805Z" fill="#E8ECDF"/>
<path id="Vector_16" d="M58.3956 77.1624C59.8227 80.0676 62.9522 80.8372 67.4374 79.3081C63.6913 76.9126 60.2509 75.6333 58.3956 77.1624Z" fill="#E8ECDF"/>
<path id="Vector_17" d="M71.3875 9.31833C72.9675 6.23474 71.0816 2.25919 67.5444 1.04614C68.3141 4.05329 67.9879 7.46818 71.3875 9.31833Z" fill="#E8ECDF"/>
<path id="Vector_18" d="M87.2489 36.4946C90.6077 35.7046 91.9737 32.8503 91.1633 28.0134C89.2876 30.7963 86.3773 32.728 87.2489 36.4946Z" fill="#E8ECDF"/>
<path id="Vector_19" d="M76.8921 66.0055C79.6444 67.9729 84.2418 66.5458 85.7861 63.2227C82.6312 63.6814 79.2111 62.9525 76.8921 66.0055Z" fill="#E8ECDF"/>
<path id="Vector_20" d="M24.5219 8.43128C24.9093 8.38541 25.0418 8.40579 25.1183 8.35483C26.6779 7.33036 28.3089 6.66267 30.2355 6.50467C32.5087 6.32118 33.8593 4.63922 35.0316 2.78906C33.4822 2.85022 31.9888 2.97765 30.5974 3.43127C29.7462 3.71159 28.6861 4.3487 28.3905 5.09794C27.8451 6.4537 26.8563 7.06023 25.7146 7.64636C25.3782 7.81966 25.0724 8.0643 24.5219 8.42618V8.43128Z" fill="#E8ECDF"/>
<path id="Vector_21" d="M67.6413 7.49833C66.5098 7.0651 65.679 6.27509 65.1999 5.01107C64.9859 4.45042 64.3029 3.87447 63.7116 3.69608C62.0449 3.19149 60.3222 2.88568 58.6199 2.50342C58.5026 2.74297 58.3905 2.98252 58.2733 3.21698C59.5934 4.22106 60.7911 5.50546 62.2641 6.15786C63.9461 6.902 65.8727 7.08549 67.6413 7.49833Z" fill="#E8ECDF"/>
<path id="Vector_22" d="M26.2497 71.4743C27.4067 69.2266 26.6779 66.087 24.053 63.9463C22.8145 67.8301 23.7778 71.1481 26.2497 71.4743Z" fill="#E8ECDF"/>
<path id="Vector_23" d="M17.9164 64.9606C19.7615 62.6007 19.7716 59.2113 17.9776 57.0859C15.898 60.246 15.475 63.6048 17.9164 64.9606Z" fill="#E8ECDF"/>
<path id="Vector_24" d="M70.3579 10.5057C68.7218 8.48735 65.5924 8.98174 62.1775 11.5404C65.5974 12.9165 68.7932 12.4935 70.3579 10.5057Z" fill="#E8ECDF"/>
<path id="Vector_25" d="M31.3211 11.5557C28.4771 9.09905 24.685 8.34471 23.2426 10.5822C25.2355 12.5547 28.2121 12.9115 31.3211 11.5557Z" fill="#E8ECDF"/>
<path id="Vector_26" d="M83.0032 26.566C83.2682 23.7729 78.6759 22.5547 75.6229 23.3091C77.5444 25.6842 79.8023 27.1827 83.0032 26.566Z" fill="#E8ECDF"/>
<path id="Vector_27" d="M80.6535 40.4089C80.7147 43.6505 82.1775 45.883 85.047 47.0196C86.2447 44.6087 84.1296 41.4742 80.6535 40.4089Z" fill="#E8ECDF"/>
<path id="Vector_28" d="M11.846 56.3722C14.2262 54.7106 15.0367 52.1928 14.2518 48.9155C11.1733 51.0613 9.80216 54.8534 11.846 56.3722Z" fill="#E8ECDF"/>
<path id="Vector_29" d="M17.8858 23.2683C14.527 22.5904 10.3629 23.8647 10.6024 26.5558C13.5484 27.091 16.2548 25.8677 17.8858 23.2683Z" fill="#E8ECDF"/>
<path id="Vector_30" d="M14.1957 31.408C9.9398 32.0502 7.65134 34.0023 8.0438 36.5813C10.7655 36.5813 13.1508 34.6088 14.1957 31.408Z" fill="#E8ECDF"/>
<path id="Vector_31" d="M15.5821 17.8604C17.9827 19.2468 20.9847 18.8033 23.7064 16.6015C20.4037 15.261 16.423 15.2203 15.5821 17.8604Z" fill="#E8ECDF"/>
<path id="Vector_32" d="M85.5975 36.5813C86.2092 34.2317 83.5333 31.8719 79.4099 31.5049C80.6842 34.8127 82.8045 36.5661 85.5975 36.5813Z" fill="#E8ECDF"/>
<path id="Vector_33" d="M12.9572 40.3835C9.83281 41.6017 7.02441 44.5324 8.52798 46.9789C11.265 46.1124 12.9419 43.6099 12.9572 40.3835Z" fill="#E8ECDF"/>
<path id="Vector_34" d="M77.9828 17.8451C77.1724 15.1999 73.2173 15.2712 69.8839 16.5964C72.6209 18.8084 75.7096 19.262 77.9828 17.8451Z" fill="#E8ECDF"/>
<path id="Vector_35" d="M69.4762 63.8701C67.3915 65.9089 65.9287 68.6968 67.4323 71.5052C69.9451 71.0006 70.7453 67.6061 69.4762 63.8701Z" fill="#E8ECDF"/>
<path id="Vector_36" d="M35.6586 75.3732C36.051 72.626 34.3333 69.8636 31.5403 68.7524C31.1121 72.4477 33.0541 75.572 35.6586 75.3732Z" fill="#E8ECDF"/>
<path id="Vector_37" d="M57.9318 75.455C60.7249 75.2562 62.6566 72.0146 62.0246 68.7068C59.0837 70.1492 57.5699 72.6161 57.9318 75.455Z" fill="#E8ECDF"/>
<path id="Vector_38" d="M81.78 56.4232C83.6148 54.8126 82.7534 51.4895 79.3844 48.9207C78.5383 52.1011 79.3131 54.568 81.78 56.4232Z" fill="#E8ECDF"/>
<path id="Vector_39" d="M75.5516 57.0908C73.7779 59.8227 73.8544 63.0083 75.7453 64.9247C77.9675 63.3803 77.8809 59.9349 75.5516 57.0908Z" fill="#E8ECDF"/>
<path id="Vector_40" d="M50.4344 77.3763V82.3559C51.678 79.466 53.7829 77.8809 56.4333 76.9737C57.7279 76.5302 59.1041 76.3213 60.3732 75.8371C62.784 74.9145 65.154 73.8697 67.5394 72.8809L67.3712 72.4324C62.1418 75.4191 56.5149 77.0501 50.4344 77.3763Z" fill="#E8ECDF"/>
<path id="Vector_41" d="M9.09381 52.9778C9.7513 54.7923 10.8114 56.4589 11.7135 58.1868C11.6065 57.8962 11.5046 57.6006 11.367 57.3254C4.99082 44.6189 5.5413 32.2183 12.9725 20.1133C13.0795 19.94 13.1305 19.7259 13.2069 19.5322C12.9164 19.6953 12.7227 19.9043 12.5749 20.1388C6.19878 30.5312 4.93988 41.4895 9.09381 52.9829V52.9778Z" fill="#E8ECDF"/>
<path id="Vector_42" d="M11.8311 58.4067C11.7953 58.3351 11.7544 58.2635 11.7186 58.1868C11.7493 58.2686 11.78 58.3453 11.8107 58.4271L11.8362 58.4067H11.8311Z" fill="#E8ECDF"/>
<path id="Vector_43" d="M43.156 82.2542V77.5039C40.3018 77.0656 37.5698 76.6426 34.843 76.2246C38.4261 77.0554 41.4944 78.6252 43.156 82.2593V82.2542Z" fill="#E8ECDF"/>
<path id="Vector_44" d="M83.3905 54.9656C83.2733 55.2409 83.202 55.5365 83.1102 55.827C83.4211 55.567 83.6097 55.2561 83.7473 54.9299C87.6566 45.8423 87.942 36.6373 84.5934 27.3305C84.3436 26.6322 83.9359 25.9951 83.5893 25.3325C83.6556 25.6027 83.7066 25.8779 83.8085 26.1378C87.6617 35.8066 87.5394 45.4192 83.3854 54.9707L83.3905 54.9656Z" fill="#E8ECDF"/>
<path id="Vector_45" d="M83.5947 25.3331C83.5844 25.2922 83.5742 25.2563 83.564 25.2153L83.5435 25.2358C83.5588 25.2666 83.5793 25.3024 83.5947 25.3331Z" fill="#E8ECDF"/>
<path id="Vector_46" d="M70.3579 9.23165C70.2458 9.13481 70.0623 9.12462 69.6393 8.97681C71.1377 10.1593 72.4374 11.1124 73.6505 12.1623C74.9553 13.2887 76.1887 14.5018 77.4528 15.6792C77.3712 15.4906 77.3049 15.2816 77.1673 15.1593C74.9094 13.1715 72.6362 11.199 70.3579 9.23165Z" fill="#E8ECDF"/>
<path id="Vector_47" d="M77.5195 15.7406C77.5195 15.7406 77.4783 15.6995 77.4578 15.6841C77.4681 15.7098 77.4835 15.7406 77.4938 15.7663L77.5195 15.7406Z" fill="#E8ECDF"/>
<path id="Vector_48" d="M22.3354 10.0266C19.8176 11.6984 17.6208 13.7116 15.7758 16.097C17.9623 14.0735 20.1489 12.0501 22.3354 10.0266Z" fill="#E8ECDF"/>
<path id="Vector_49" d="M31.4333 75.0676C28.8899 73.7577 26.3517 72.4478 23.8084 71.1328C23.7676 71.2195 23.7217 71.3061 23.681 71.3927C26.2294 72.7077 28.7778 74.0278 31.3211 75.3428C31.3568 75.2511 31.3976 75.1593 31.4333 75.0676Z" fill="#E8ECDF"/>
<path id="Vector_50" d="M81.1683 20.5771C79.9502 18.9665 78.7372 17.3508 77.519 15.7402L77.4935 15.7657C78.7117 17.3763 79.9247 18.9869 81.1429 20.5975L81.1683 20.5771Z" fill="#E8ECDF"/>
<path id="Vector_51" d="M11.8309 58.4058L11.8053 58.4262C11.8769 58.5234 11.9485 58.6256 12.0201 58.7228C11.9587 58.6154 11.8922 58.508 11.8309 58.4058Z" fill="#E8ECDF"/>
<path id="Vector_52" d="M14.9653 62.8402C13.9816 61.4691 12.998 60.093 12.0194 58.7219C12.8807 60.1745 13.7421 61.6271 14.5984 63.0797C14.7207 62.9982 14.843 62.9217 14.9653 62.8402Z" fill="#E8ECDF"/>
<path id="Vector_53" d="M83.5639 25.2153C82.7637 23.6709 81.9634 22.1215 81.1632 20.5771L81.1378 20.5975C81.938 22.1419 82.7381 23.6913 83.5384 25.2357L83.5588 25.2153H83.5639Z" fill="#E8ECDF"/>
<path id="Vector_54" d="M71.2141 70.3532C72.4119 69.3848 73.6148 68.4164 74.8126 67.448C74.7514 67.3664 74.6902 67.2849 74.6291 67.1982C73.4313 68.1768 72.2335 69.1605 71.0358 70.1391C71.0918 70.2105 71.153 70.2818 71.2091 70.3532H71.2141Z" fill="#E8ECDF"/>
<path id="Vector_55" d="M34.1754 38.1816H32.5698C32.315 38.1816 32.1825 38.2377 32.1825 38.3396C32.1825 38.4365 32.3762 38.4824 32.7635 38.4824C33.2019 38.4824 33.4618 38.5027 33.5332 38.5384C33.6096 38.5741 33.6504 38.6302 33.6606 38.7015C33.6708 38.7729 33.6759 38.9717 33.6759 39.3029V46.4538L28.1305 38.1816C27.7992 38.2122 27.4577 38.2275 27.1009 38.2275C26.8308 38.2377 26.683 38.2428 26.6524 38.2428C26.632 38.2428 26.4536 38.2326 26.1223 38.2122C25.791 38.1918 25.5158 38.1816 25.3017 38.1816C25.1386 38.1816 25.0622 38.2326 25.0622 38.3345C25.0622 38.4467 25.1998 38.5027 25.4801 38.5027C25.9184 38.5027 26.2243 38.5588 26.3976 38.6658C26.7594 38.8901 26.9429 39.4508 26.9429 40.3376V48.2734C26.9429 48.6608 26.892 48.885 26.79 48.9564C26.6881 49.0277 26.3211 49.0685 25.6891 49.0787C25.475 49.0787 25.368 49.1297 25.368 49.2214C25.368 49.3132 25.4903 49.3641 25.735 49.3641H25.8981C26.3058 49.3641 26.6066 49.3539 26.8053 49.3336C27.0041 49.3132 27.0958 49.303 27.0856 49.303C27.2487 49.303 27.4118 49.3081 27.5851 49.3183C28.0999 49.3488 28.4057 49.3641 28.5026 49.3641C28.7829 49.3641 28.9205 49.3132 28.9205 49.201C28.9205 49.1144 28.8492 49.0736 28.7116 49.0736C28.1356 49.0634 27.7737 49.0379 27.6259 49.0023C27.473 48.9666 27.3914 48.8748 27.3812 48.7372V39.7413C29.0887 42.3662 30.5362 44.5578 31.7238 46.3111L33.7778 49.3183C33.8644 49.4355 33.9358 49.4967 34.0021 49.4967C34.0531 49.4967 34.0887 49.4508 34.0989 49.3539C34.1091 49.2571 34.1142 48.9258 34.1142 48.3601V39.1195C34.1142 38.8187 34.1295 38.6404 34.1601 38.5843C34.1906 38.5231 34.2926 38.4976 34.4659 38.4976H35.1081C35.3731 38.5078 35.5107 38.462 35.5107 38.3549C35.5107 38.2479 35.3935 38.1969 35.159 38.1969H34.1805L34.1754 38.1816Z" fill="#E8ECDF"/>
<path id="Vector_56" d="M38.8135 45.5872C37.6361 46.1631 37.0449 46.9429 37.0449 47.9266C37.0449 48.4057 37.2131 48.7982 37.5444 49.104C37.8808 49.4098 38.3038 49.5627 38.8186 49.5627C39.7717 49.5627 40.4802 49.1193 40.9338 48.2324C40.9695 49.0836 41.3976 49.5117 42.2233 49.5117C42.6158 49.5117 43.0286 49.3996 43.4516 49.1805C43.8747 48.9613 44.0887 48.7472 44.0887 48.5433C44.0887 48.472 44.0582 48.4363 43.997 48.4363C43.9358 48.4363 43.8492 48.5026 43.7269 48.6351C43.5128 48.8746 43.2325 48.997 42.8961 48.997C42.6056 48.997 42.4323 48.7829 42.3762 48.3497C42.366 48.2528 42.3558 47.9317 42.3558 47.3762V44.0072C42.3558 43.1917 42.2997 42.6463 42.1927 42.3711C41.892 41.6524 41.0816 41.2905 39.7615 41.2905C38.8848 41.2905 38.2018 41.5148 37.7075 41.9582C37.264 42.366 37.0398 42.8553 37.0398 43.4159C37.0398 43.7064 37.1265 43.9409 37.3048 44.1295C37.4832 44.3181 37.7075 44.4098 37.9827 44.4098C38.5077 44.4098 38.7676 44.1448 38.7676 43.6198C38.7676 43.4414 38.7065 43.2783 38.5893 43.1356C38.472 42.9929 38.3395 42.9215 38.1917 42.9215C38.0439 42.9215 37.9725 42.8756 37.9725 42.7788C37.9725 42.4322 38.1152 42.1417 38.3956 41.9123C38.6759 41.683 39.0276 41.5709 39.4506 41.5709C40.1234 41.5709 40.5566 41.8767 40.7452 42.4883C40.8523 42.8247 40.9083 43.5229 40.9083 44.578V45.0265C39.9093 45.2202 39.2059 45.4088 38.8033 45.6025L38.8135 45.5872ZM40.9185 46.632C40.9185 47.3405 40.8828 47.7584 40.8115 47.8909C40.5057 48.4669 40.0979 48.7574 39.5882 48.7574C39.2569 48.7574 38.9817 48.6351 38.7625 48.3904C38.5434 48.1458 38.4363 47.8298 38.4363 47.4475C38.4363 46.8971 38.63 46.4536 39.0123 46.1223C39.3945 45.791 40.0316 45.526 40.9185 45.3221V46.6371V46.632Z" fill="#E8ECDF"/>
<path id="Vector_57" d="M48.89 49.3488C49.0072 49.3692 49.1346 49.3794 49.2774 49.3794C49.5016 49.3794 49.6138 49.3183 49.6138 49.201C49.6138 49.094 49.4354 49.043 49.0837 49.043C48.6453 49.043 48.3854 48.9717 48.314 48.8341C48.2835 48.8137 48.2682 47.8198 48.2682 45.8626V40.6383C48.2682 40.2866 48.2682 40.0063 48.2682 39.8024L48.9053 41.5201C50.3477 45.409 51.2192 47.8453 51.5301 48.8188C51.6168 49.0736 51.6984 49.2061 51.7697 49.2061C51.836 49.2061 51.943 48.9564 52.0908 48.4518L52.835 45.8932C53.6505 43.2887 54.2774 41.3417 54.7055 40.0471C54.8329 39.6852 54.8992 39.4966 54.8992 39.4864V47.8249C54.8992 48.4926 54.8737 48.8494 54.8176 48.9054C54.7004 49.0226 54.3691 49.0838 53.8237 49.0838C53.5128 49.0838 53.3599 49.1399 53.3599 49.2469C53.3599 49.3437 53.472 49.3896 53.6963 49.3896H57.6974C57.9216 49.3896 58.0337 49.3437 58.0337 49.252C58.0337 49.1603 57.9267 49.1144 57.7126 49.1144H57.6158C57.0602 49.1144 56.7085 49.0685 56.5709 48.9717C56.4843 48.8952 56.4435 48.6455 56.4435 48.2122V40.7199C56.4435 39.5374 56.469 38.9105 56.5251 38.834C56.6219 38.7066 56.8003 38.62 57.0552 38.5741C57.1622 38.5537 57.366 38.5435 57.6668 38.5435C57.8502 38.5435 57.942 38.4875 57.942 38.3804C57.942 38.3142 57.9165 38.2683 57.8604 38.2377C57.8095 38.2071 57.6056 38.1918 57.2591 38.1918L54.8737 38.2071C54.7921 38.4059 54.6953 38.6607 54.5933 38.9666L52.8757 44.2775C52.6616 44.9554 52.4527 45.6383 52.2539 46.3366C51.1275 43.2275 50.4445 41.3519 50.1999 40.7097C49.629 39.1653 49.3181 38.3193 49.2672 38.1816C49.0072 38.1918 48.5587 38.1918 47.9165 38.1918H46.7952C46.4792 38.1918 46.3263 38.253 46.3263 38.3702C46.3263 38.4569 46.4129 38.5027 46.5811 38.5129C47.0398 38.5435 47.3405 38.5894 47.4833 38.6404C47.626 38.6913 47.7126 38.7984 47.7585 38.9462C47.7789 39.0226 47.7891 39.5017 47.7891 40.3937V48.1001C47.7891 48.5741 47.7687 48.8494 47.7228 48.936C47.682 49.0226 47.5291 49.0634 47.2743 49.0634C46.6626 49.0736 46.3569 49.1348 46.3569 49.2418C46.3569 49.3386 46.4537 49.3845 46.6474 49.3845L48.4975 49.3183C48.6148 49.3183 48.7473 49.3285 48.9002 49.3488H48.89Z" fill="#E8ECDF"/>
<path id="Vector_58" d="M68.416 48.931C68.416 48.4927 68.4262 48.0289 68.4466 47.5498C68.467 47.0656 68.4772 46.8056 68.4772 46.7649C68.4772 46.5406 68.4211 46.4285 68.3141 46.4285C68.1969 46.4285 68.1255 46.561 68.1051 46.826C68.0083 48.0238 67.6056 48.6966 66.9022 48.8597C66.4945 48.9565 65.1132 49.0024 62.7585 49.0024V43.6201H63.4772C64.2876 43.6201 64.787 43.6507 64.9807 43.717C65.4191 43.8648 65.679 44.2572 65.7657 44.8892C65.8268 45.3938 65.8727 45.6894 65.9033 45.7812C65.9288 45.8729 65.9797 45.9188 66.0562 45.9188C66.1734 45.9188 66.2346 45.8474 66.2346 45.7098C66.2346 45.6334 66.2346 45.5416 66.2193 45.4346C66.1836 45.0065 66.1683 44.2164 66.1683 43.0747C66.1683 42.8811 66.1785 42.6007 66.1989 42.2236C66.2193 41.8464 66.2295 41.5661 66.2295 41.3724C66.2295 41.1787 66.1683 41.0819 66.0511 41.0819C65.9543 41.0819 65.8982 41.194 65.8727 41.4183C65.7758 42.2949 65.5975 42.825 65.3324 43.0085C65.0674 43.192 64.3385 43.2837 63.1408 43.2837H62.7534V38.5589H64.0735C65.5312 38.5589 66.4282 38.6558 66.7748 38.8495C67.2335 39.1094 67.5649 39.721 67.7687 40.6945C67.8197 40.9647 67.9064 41.0972 68.0236 41.0972C68.1204 41.0972 68.1663 41.0462 68.1663 40.9341C68.1663 40.8474 68.1612 40.7812 68.151 40.7251L68.0848 40.0319C68.0083 39.2164 67.9624 38.5793 67.942 38.1206C67.6719 38.1614 67.3814 38.1869 67.0603 38.1869H60.2458C60.0113 38.1869 59.8941 38.2327 59.8941 38.3245C59.8941 38.4162 59.9807 38.4621 60.1489 38.4621C60.6433 38.4621 60.9338 38.4927 61.0256 38.5487C61.1173 38.6099 61.1632 38.7934 61.1632 39.1043V48.1614C61.1632 48.5692 61.1326 48.824 61.0766 48.9208C61.0154 49.0177 60.8472 49.0788 60.572 49.0992C60.1948 49.1298 59.9909 49.14 59.9603 49.14C59.8941 49.1502 59.8635 49.1808 59.8635 49.2419C59.8635 49.3286 59.9654 49.3694 60.1693 49.3694H62.1775C65.2814 49.3694 67.3609 49.3999 68.4109 49.4662V48.9361L68.416 48.931Z" fill="#E8ECDF"/>
<path id="Vector_59" d="M27.157 55.3429L27.5341 56.398H27.8706L26.5963 52.8914H26.2548L24.9806 56.398H25.317L25.6942 55.3429H27.1672H27.157ZM26.4078 53.3093H26.4332L27.0551 55.0575H25.791L26.4129 53.3093H26.4078Z" fill="#E8ECDF"/>
<path id="Vector_60" d="M32.473 56.4031L33.4312 52.8914H33.105L32.3099 55.9087H32.2845L31.4893 52.8914H31.1173L30.3272 55.9087H30.2967L29.5015 52.8914H29.1753L30.1386 56.4031H30.4801L31.2956 53.4265H31.316L32.1315 56.4031H32.473Z" fill="#E8ECDF"/>
<path id="Vector_61" d="M35.0826 56.4029L35.4598 55.3478H36.9328L37.3099 56.4029H37.6463L36.3721 52.8962H36.0306L34.7564 56.4029H35.0928H35.0826ZM36.1784 53.3091H36.2039L36.8257 55.0573H35.5617L36.1835 53.3091H36.1784Z" fill="#E8ECDF"/>
<path id="Vector_62" d="M41.4333 54.4865C41.5199 54.3285 41.5607 54.1501 41.5607 53.9462C41.5607 53.7423 41.5199 53.5588 41.4333 53.4008C41.3466 53.2428 41.2243 53.1205 41.0561 53.0288C40.8879 52.937 40.679 52.8962 40.4343 52.8962H39.3028V56.4029H39.6239V54.986H40.4394C40.4853 54.986 40.5311 54.986 40.5719 54.9809L41.3415 56.4029H41.7136L40.9032 54.9197C40.9592 54.8993 41.0102 54.8789 41.0612 54.8534C41.2294 54.7668 41.3517 54.6445 41.4384 54.4865H41.4333ZM40.8828 54.5986C40.7605 54.6598 40.6076 54.6903 40.4241 54.6903H39.6137V53.1817H40.419C40.6025 53.1817 40.7554 53.2122 40.8777 53.2734C41.0001 53.3346 41.0918 53.4263 41.1529 53.5384C41.2141 53.6506 41.2447 53.7882 41.2447 53.9411C41.2447 54.094 41.2141 54.2265 41.1529 54.3387C41.0918 54.4508 41.0001 54.5374 40.8828 54.5986Z" fill="#E8ECDF"/>
<path id="Vector_63" d="M45.3527 53.1003C45.1132 52.9627 44.8278 52.8914 44.4965 52.8914H43.4058V56.398H44.4353C44.787 56.398 45.0877 56.3266 45.3324 56.189C45.577 56.0514 45.7656 55.8475 45.8981 55.5825C46.0256 55.3175 46.0918 55.0015 46.0918 54.6345C46.0918 54.2675 46.0307 53.9566 45.9032 53.6967C45.7758 53.4367 45.5923 53.2379 45.3578 53.0952L45.3527 53.1003ZM45.628 55.4245C45.526 55.6437 45.3731 55.8119 45.1693 55.9342C44.9654 56.0514 44.7156 56.1126 44.4098 56.1126H43.7218V53.1819H44.471C44.7564 53.1819 44.996 53.2379 45.1897 53.3552C45.3833 53.4724 45.5311 53.6406 45.628 53.8547C45.7248 54.0687 45.7758 54.3338 45.7758 54.6345C45.7758 54.9403 45.7248 55.2002 45.6229 55.4245H45.628Z" fill="#E8ECDF"/>
<path id="Vector_64" d="M49.8788 54.8281C49.787 54.7567 49.6851 54.6956 49.573 54.6497C49.4608 54.6038 49.3487 54.5631 49.2365 54.5325L48.8645 54.4255C48.7778 54.4 48.6963 54.3694 48.6147 54.3388C48.5332 54.3031 48.4568 54.2624 48.3905 54.2114C48.3243 54.1604 48.2682 54.1044 48.2274 54.033C48.1866 53.9616 48.1662 53.8801 48.1662 53.7883C48.1662 53.6609 48.2019 53.5488 48.2733 53.452C48.3447 53.3551 48.4415 53.2736 48.5638 53.2175C48.6861 53.1614 48.8288 53.136 48.9919 53.136C49.2213 53.136 49.4149 53.192 49.5679 53.3092C49.7208 53.4265 49.8074 53.5794 49.8278 53.7731H50.1387C50.1336 53.5947 50.0776 53.4367 49.9807 53.294C49.8839 53.1512 49.7463 53.0442 49.5832 52.9627C49.415 52.8811 49.2213 52.8403 49.0021 52.8403C48.7829 52.8403 48.5944 52.8811 48.4211 52.9627C48.2478 53.0442 48.1102 53.1563 48.0082 53.299C47.9063 53.4418 47.8553 53.61 47.8553 53.7985C47.8553 54.0228 47.9318 54.2063 48.0847 54.3541C48.2376 54.4968 48.4516 54.614 48.7269 54.6956L49.1448 54.8179C49.2875 54.8587 49.415 54.9097 49.5271 54.9657C49.6392 55.0218 49.7208 55.088 49.787 55.1696C49.8482 55.2511 49.8788 55.348 49.8788 55.4703C49.8788 55.613 49.838 55.7353 49.7615 55.8373C49.6851 55.9443 49.578 56.0259 49.4404 56.0819C49.3028 56.1431 49.15 56.1686 48.9716 56.1686C48.8136 56.1686 48.6708 56.1431 48.5434 56.0921C48.416 56.0412 48.314 55.9698 48.2325 55.873C48.1509 55.7761 48.1051 55.6589 48.0949 55.5213H47.7636C47.7738 55.7048 47.8349 55.8679 47.9318 56.0106C48.0337 56.1533 48.1713 56.2603 48.3446 56.3419C48.523 56.4234 48.7269 56.4591 48.9665 56.4591C49.2213 56.4591 49.4353 56.4132 49.6188 56.3266C49.8023 56.2399 49.9399 56.1227 50.0368 55.9698C50.1336 55.822 50.1846 55.6538 50.1846 55.4652C50.1846 55.3174 50.154 55.1951 50.0979 55.088C50.0419 54.9861 49.9654 54.8944 49.8737 54.823L49.8788 54.8281Z" fill="#E8ECDF"/>
<path id="Vector_65" d="M55.8675 54.4456C55.7758 54.568 55.6535 54.7107 55.5057 54.8789L54.3589 56.1684V56.4028H56.5404V56.1174H54.8074V56.097L55.679 55.1235C55.8726 54.9094 56.0255 54.726 56.1326 54.5781C56.2396 54.4303 56.3212 54.2927 56.3671 54.1755C56.413 54.0532 56.4333 53.9308 56.4333 53.7983C56.4333 53.6199 56.3926 53.4568 56.3008 53.3141C56.2142 53.1714 56.0969 53.0542 55.944 52.9726C55.7911 52.8911 55.6178 52.8452 55.4241 52.8452C55.2304 52.8452 55.0521 52.886 54.8941 52.9726C54.7361 53.0593 54.6137 53.1765 54.5271 53.3243C54.4353 53.4721 54.3945 53.6454 54.3945 53.8391H54.7004C54.7004 53.7015 54.7309 53.5741 54.7921 53.467C54.8533 53.36 54.9348 53.2734 55.0418 53.2122C55.1489 53.151 55.2763 53.1204 55.419 53.1204C55.5566 53.1204 55.679 53.1459 55.786 53.202C55.8931 53.2581 55.9797 53.3345 56.0409 53.4365C56.102 53.5384 56.1326 53.6505 56.1326 53.7881C56.1326 53.9003 56.1122 54.0022 56.0714 54.1041C56.0306 54.2061 55.9644 54.3182 55.8726 54.4354L55.8675 54.4456Z" fill="#E8ECDF"/>
<path id="Vector_66" d="M58.8237 56.2346C58.997 56.3773 59.206 56.4487 59.4557 56.4487C59.7055 56.4487 59.9144 56.3773 60.0877 56.2346C60.261 56.0919 60.3936 55.888 60.4904 55.6179C60.5822 55.3478 60.628 55.0267 60.628 54.6444C60.628 54.2621 60.5822 53.9461 60.4904 53.676C60.3987 53.4059 60.261 53.202 60.0877 53.0593C59.9144 52.9166 59.7004 52.8452 59.4608 52.8452C59.2213 52.8452 59.0072 52.9166 58.8339 53.0593C58.6606 53.202 58.523 53.411 58.4313 53.676C58.3395 53.9461 58.2936 54.2672 58.2936 54.6444C58.2936 55.0216 58.3395 55.3478 58.4313 55.6179C58.523 55.888 58.6555 56.0919 58.8339 56.2346H58.8237ZM58.5944 54.6444C58.5944 54.1653 58.6708 53.7932 58.8237 53.5231C58.9766 53.253 59.1856 53.1255 59.4557 53.1255C59.6341 53.1255 59.7871 53.1867 59.9196 53.3039C60.047 53.4263 60.1489 53.5995 60.2152 53.8238C60.2865 54.0481 60.3171 54.3233 60.3171 54.6444C60.3171 55.1235 60.2406 55.4956 60.0877 55.7606C59.9348 56.0257 59.7259 56.1582 59.4557 56.1582C59.2773 56.1582 59.1244 56.097 58.9919 55.9798C58.8645 55.8626 58.7626 55.6893 58.6963 55.465C58.6301 55.2407 58.5944 54.9655 58.5944 54.6444Z" fill="#E8ECDF"/>
<path id="Vector_67" d="M63.8951 54.4456C63.8033 54.568 63.681 54.7107 63.5332 54.8789L62.3864 56.1684V56.4028H64.5679V56.1174H62.835V56.097L63.7065 55.1235C63.9002 54.9094 64.0531 54.726 64.1601 54.5781C64.2672 54.4303 64.3488 54.2927 64.3946 54.1755C64.4405 54.0532 64.4608 53.9308 64.4608 53.7983C64.4608 53.6199 64.4201 53.4568 64.3284 53.3141C64.2417 53.1714 64.1245 53.0542 63.9716 52.9726C63.8187 52.8911 63.6453 52.8452 63.4517 52.8452C63.258 52.8452 63.0796 52.886 62.9216 52.9726C62.7636 53.0593 62.6413 53.1765 62.5546 53.3243C62.4629 53.4721 62.4221 53.6454 62.4221 53.8391H62.728C62.728 53.7015 62.7585 53.5741 62.8197 53.467C62.8808 53.36 62.9624 53.2734 63.0694 53.2122C63.1764 53.151 63.3039 53.1204 63.4466 53.1204C63.5842 53.1204 63.7066 53.1459 63.8136 53.202C63.9206 53.2581 64.0073 53.3345 64.0684 53.4365C64.1296 53.5384 64.1601 53.6505 64.1601 53.7881C64.1601 53.9003 64.1398 54.0022 64.099 54.1041C64.0582 54.2061 63.9919 54.3182 63.9002 54.4354L63.8951 54.4456Z" fill="#E8ECDF"/>
<path id="Vector_68" d="M68.574 56.1125H66.8411V56.0921L67.7126 55.1186C67.9063 54.9046 68.0592 54.7211 68.1662 54.5733C68.2733 54.4255 68.3549 54.2878 68.4007 54.1706C68.4466 54.0483 68.467 53.926 68.467 53.7934C68.467 53.6151 68.4262 53.452 68.3345 53.3092C68.2478 53.1665 68.1306 53.0493 67.9777 52.9678C67.8248 52.8862 67.6514 52.8403 67.4578 52.8403C67.2641 52.8403 67.0857 52.8811 66.9277 52.9678C66.7697 53.0544 66.6474 53.1716 66.5608 53.3194C66.469 53.4672 66.4283 53.6405 66.4283 53.8342H66.7341C66.7341 53.6966 66.7646 53.5692 66.8258 53.4621C66.8869 53.3551 66.9685 53.2685 67.0755 53.2073C67.1825 53.1461 67.31 53.1156 67.4527 53.1156C67.5903 53.1156 67.7127 53.141 67.8197 53.1971C67.9267 53.2532 68.0134 53.3296 68.0745 53.4316C68.1357 53.5335 68.1662 53.6456 68.1662 53.7833C68.1662 53.8954 68.1459 53.9973 68.1051 54.0993C68.0643 54.2012 67.998 54.3133 67.9063 54.4306C67.8145 54.5529 67.6922 54.6956 67.5444 54.8638L66.3976 56.1533V56.3877H68.5791V56.1023L68.574 56.1125Z" fill="#E8ECDF"/>
</g>
</svg>
