<svg width="140" height="141" viewBox="0 0 140 141" fill="none" xmlns="http://www.w3.org/2000/svg">
<g id="notification_multiple">
<mask id="mask0_506_4863" style="mask-type:alpha" maskUnits="userSpaceOnUse" x="0" y="0" width="140" height="141">
<rect id="Bounding box" y="0.368652" width="140" height="140" fill="#D9D9D9"/>
</mask>
<g mask="url(#mask0_506_4863)">
<path id="notification_multiple_2" d="M24.0072 122.869C21.322 122.869 19.08 121.969 17.2814 120.171C15.4828 118.372 14.5835 116.13 14.5835 113.445V47.9322H20.4168V113.445C20.4168 114.492 20.7532 115.352 21.426 116.026C22.0997 116.699 22.9602 117.035 24.0072 117.035H99.1668V122.869H24.0072ZM78.7502 79.3199L37.9168 55.4033V95.9449C37.9168 96.992 38.2532 97.8524 38.926 98.5262C39.5997 99.199 40.4602 99.5353 41.5072 99.5353H115.993C117.04 99.5353 117.901 99.199 118.574 98.5262C119.247 97.8524 119.583 96.992 119.583 95.9449V55.4033L78.7502 79.3199ZM41.5072 105.369C38.822 105.369 36.58 104.469 34.7814 102.671C32.9828 100.872 32.0835 98.6302 32.0835 95.9449V51.0735C32.0835 49.5558 32.3771 48.2472 32.9643 47.1476C33.5516 46.0481 34.5816 45.0758 36.0545 44.231L78.7502 19.2147L84.4712 22.5908L39.0835 49.3016L78.7502 72.6349L117.341 49.9739C118.275 49.3983 119.197 49.1164 120.106 49.1281C121.014 49.1387 121.887 49.3833 122.725 49.8616C123.562 50.3409 124.22 50.9748 124.699 51.7633C125.178 52.5527 125.417 53.4744 125.417 54.5283V95.9449C125.417 98.6302 124.518 100.872 122.719 102.671C120.92 104.469 118.678 105.369 115.993 105.369H41.5072ZM77.6287 61.1695L65.3335 48.8758L69.462 44.7472L77.6287 52.9139L98.337 32.2056L102.466 36.3341L77.6287 61.1695Z" fill="#888F77"/>
</g>
</g>
</svg>
