<svg width="142" height="39" viewBox="0 0 142 39" fill="none" xmlns="http://www.w3.org/2000/svg">
<path fill-rule="evenodd" clip-rule="evenodd" d="M36.1381 15.6133C36.619 14.0494 36.6849 12.461 36.3527 10.8624C35.267 5.64068 30.1781 2.24061 24.8898 3.20319C24.6707 3.2429 24.5514 3.19089 24.4083 3.04099C23.0777 1.64494 21.4733 0.710329 19.5858 0.274623C19.2309 0.192633 18.8699 0.136363 18.509 0.0801046C18.3431 0.0542338 18.1772 0.0283656 18.0118 0H16.4914C16.3285 0.028678 16.1646 0.0538822 16.0008 0.0790884C15.6469 0.133522 15.2929 0.187964 14.9485 0.27742C11.5585 1.15722 9.22772 3.22501 7.97928 6.48022C7.8965 6.69611 7.78951 6.79287 7.55863 6.84713C3.70069 7.75322 0.741494 10.9419 0.154159 14.8554C-0.28958 17.813 0.474575 20.4474 2.41115 22.74C2.52771 22.8782 2.55305 22.9917 2.50125 23.1646C0.82033 28.7348 4.35447 34.5114 10.1186 35.6138C11.3479 35.8487 12.58 35.8381 13.8121 35.6127C13.9157 35.5936 14.0745 35.6395 14.1455 35.7139C15.7746 37.4232 17.7624 38.4288 20.1078 38.7437C20.2179 38.7586 20.3275 38.7755 20.4372 38.7923L20.4378 38.7924C20.4928 38.8009 20.5477 38.8093 20.6028 38.8175H22.1232C22.1758 38.8094 22.2285 38.801 22.2812 38.7927L22.2827 38.7924C22.3664 38.7791 22.4502 38.7659 22.5343 38.7532C26.4941 38.1542 29.2129 36.0098 30.6674 32.2993C30.7401 32.1141 30.8223 32.0213 31.0256 31.976C32.1614 31.7215 33.2189 31.2729 34.1847 30.6275C39.1322 27.3197 40.0766 20.6141 36.2322 16.0881C36.0998 15.9326 36.0801 15.8045 36.1387 15.6138L36.1381 15.6133ZM24.5238 5.8907C28.7838 4.59085 33.2775 7.41819 33.902 11.7943C34.0084 12.5381 34.0095 13.2781 33.8778 14.0572C33.8508 14.0444 33.8251 14.0327 33.8005 14.0214L33.8003 14.0214C33.7478 13.9974 33.7001 13.9757 33.6553 13.9499C33.0127 13.5816 32.3698 13.2138 31.7269 12.846C29.8359 11.7642 27.9449 10.6825 26.0605 9.58888C25.4766 9.2505 24.9562 9.26113 24.3757 9.59783C22.0818 10.9252 19.7816 12.2418 17.4815 13.5583L17.4813 13.5584C16.777 13.9616 16.0727 14.3647 15.3686 14.7681C15.3181 14.7969 15.2665 14.8239 15.2041 14.8565L15.204 14.8566L15.204 14.8566C15.1682 14.8753 15.1289 14.8959 15.0842 14.9197C15.0842 14.6598 15.084 14.402 15.0837 14.146V14.1459V14.1458V14.1457V14.1455V14.1454C15.0829 13.1583 15.0821 12.1969 15.0937 11.2355C15.0949 11.1421 15.2165 11.0179 15.3139 10.962C16.9983 9.99097 18.6853 9.0248 20.3725 8.05856C20.902 7.75529 21.4315 7.45202 21.961 7.1486C22.0554 7.09445 22.1497 7.03994 22.2439 6.98544C22.9749 6.56261 23.7047 6.14041 24.5243 5.8907H24.5238ZM23.5467 21.6097C23.549 21.7825 23.4893 21.8737 23.3406 21.9581C22.0629 22.683 20.7886 23.4135 19.5176 24.1501C19.3673 24.2373 19.2563 24.2312 19.1094 24.1467C18.5783 23.8393 18.0462 23.5338 17.514 23.2282L17.5137 23.228L17.5134 23.2279L17.5131 23.2277L17.5127 23.2275L17.5124 23.2273C16.7631 22.797 16.0137 22.3667 15.2672 21.9313C15.1782 21.8793 15.0909 21.7378 15.0904 21.6376C15.0791 20.156 15.0791 18.6738 15.0904 17.1922C15.0909 17.0893 15.1698 16.9427 15.2565 16.8919C16.5494 16.1373 17.8491 15.3934 19.1527 14.6574C19.2366 14.6104 19.3932 14.6076 19.476 14.654C20.7796 15.3901 22.0787 16.134 23.3716 16.8891C23.4583 16.94 23.5344 17.0876 23.5361 17.1916C23.5467 17.7546 23.5454 18.3175 23.5442 18.8805C23.5438 19.0631 23.5434 19.2457 23.5434 19.4283C23.5434 19.624 23.543 19.8196 23.5426 20.0152L23.5425 20.0178V20.0179V20.0179V20.018V20.018V20.0181C23.5414 20.5484 23.5403 21.0786 23.5473 21.6091L23.5467 21.6097ZM9.96372 9.4608C10.0268 6.05849 12.7743 3.0863 16.1823 2.62151C18.2562 2.33849 20.123 2.83013 21.787 4.08971L21.7941 4.09505C21.8217 4.11566 21.8494 4.13646 21.8748 4.15962C21.8835 4.16752 21.8901 4.17749 21.9001 4.19264C21.9057 4.20109 21.9123 4.21116 21.921 4.22338C21.9042 4.23461 21.8876 4.24608 21.871 4.25755L21.8709 4.25756L21.8709 4.25757L21.8708 4.25763C21.8311 4.28499 21.7915 4.31234 21.7498 4.33636C21.1334 4.69008 20.5171 5.04413 19.9009 5.39816L19.9001 5.39863L19.8999 5.39872C17.9694 6.50784 16.0391 7.61684 14.1027 8.71523C13.5345 9.0374 13.2867 9.48317 13.2884 10.1258C13.2952 12.7201 13.293 15.3145 13.2908 17.909V17.9092V17.9094V17.9096V17.9097V17.9099L13.2908 17.9177C13.2901 18.7491 13.2894 19.5806 13.2889 20.4122V20.7936C13.2458 20.7707 13.2079 20.7509 13.1737 20.733L13.1735 20.7329L13.1734 20.7329C13.1041 20.6967 13.0498 20.6682 12.9967 20.6376C12.7113 20.4743 12.4261 20.3108 12.1409 20.1473L12.1402 20.1469C11.4841 19.7709 10.8282 19.3949 10.1709 19.0212C10.0335 18.9429 9.93838 18.869 9.93894 18.6839C9.94199 17.6436 9.93924 16.6032 9.93648 15.5628C9.9311 13.5283 9.92571 11.4938 9.96372 9.46024V9.4608ZM2.62232 16.0439C2.76141 13.0555 4.319 10.9296 7.0614 9.6739C7.12693 9.64375 7.19494 9.61933 7.2626 9.59504L7.2626 9.59504L7.26261 9.59503L7.26262 9.59503L7.29678 9.58273C7.30664 9.57923 7.31827 9.58077 7.3369 9.58323H7.33691C7.34806 9.58471 7.36171 9.58651 7.37899 9.58777V9.85624C7.37899 10.6097 7.37945 11.3633 7.37991 12.1168V12.1169V12.1169V12.117V12.117V12.1171C7.38122 14.2525 7.38252 16.3881 7.37336 18.5234C7.37055 19.1806 7.63296 19.6252 8.20791 19.9524C10.4452 21.2238 12.6775 22.5047 14.9097 23.7856L14.9103 23.7859L14.9112 23.7864C15.6815 24.2285 16.4518 24.6705 17.2223 25.1121C17.2809 25.1457 17.3382 25.1811 17.4033 25.2214C17.4347 25.2408 17.4679 25.2613 17.5039 25.2832C17.4794 25.2998 17.4583 25.3145 17.4393 25.3278L17.4392 25.3278C17.4036 25.3527 17.3754 25.3724 17.3457 25.3895C17.0735 25.5456 16.8011 25.7014 16.5287 25.8572L16.5264 25.8586L16.5258 25.8589C15.8083 26.2694 15.0907 26.6799 14.3763 27.0954C14.2271 27.1821 14.1167 27.181 13.9669 27.0949C13.0964 26.5934 12.2235 26.0959 11.3505 25.5984L11.3497 25.5979L11.3486 25.5973L11.3484 25.5972L11.3483 25.5971L11.3482 25.597L11.348 25.597C9.64466 24.6262 7.94126 23.6554 6.25557 22.655C3.75588 21.1717 2.48773 18.9233 2.62175 16.0445L2.62232 16.0439ZM4.74246 27.1715C4.60112 26.3801 4.609 25.583 4.74922 24.7508C4.78298 24.7681 4.81422 24.7837 4.84362 24.7985C4.90641 24.8299 4.96078 24.8572 5.01333 24.8873C5.63257 25.2421 6.25215 25.5963 6.87173 25.9506C8.74533 27.0217 10.6189 28.0929 12.4826 29.1811C13.1206 29.5536 13.6758 29.5598 14.3183 29.1867C16.4939 27.9214 18.6786 26.6715 20.8633 25.4217L20.864 25.4213L20.8674 25.4194C21.645 24.9745 22.4227 24.5296 23.1999 24.0841C23.2659 24.0463 23.3328 24.0098 23.413 23.966L23.5304 23.9017C23.5326 23.9375 23.5348 23.9675 23.5367 23.9938C23.5402 24.0417 23.5428 24.0772 23.5428 24.1126C23.5429 24.3381 23.5432 24.5635 23.5435 24.7889V24.789V24.7891V24.7891V24.7892V24.7892C23.5447 25.6911 23.5458 26.5928 23.5355 27.4948C23.5344 27.6083 23.4566 27.7722 23.3632 27.8259C22.691 28.214 22.02 28.6046 21.3489 28.9951C19.4084 30.1245 17.4675 31.2542 15.4958 32.3272C11.041 34.7519 5.62938 32.1365 4.7419 27.1726L4.74246 27.1715ZM28.6616 29.1738C28.5827 32.7048 26.1343 35.5187 22.6379 36.1569C20.4845 36.5495 18.5265 36.0288 16.7961 34.6892C16.7783 34.6754 16.7623 34.6597 16.7401 34.6379L16.7167 34.615L16.6993 34.5983L16.6902 34.5897C18.0175 33.8279 19.316 33.0829 20.6146 32.3379C20.9899 32.1227 21.3646 31.9065 21.7393 31.6903C22.6617 31.1581 23.5841 30.6259 24.5148 30.1084C25.0965 29.7852 25.3397 29.3299 25.3369 28.6738C25.3273 26.1123 25.3285 23.5508 25.3298 20.9893C25.3303 20.111 25.3307 19.2327 25.3307 18.3545V18.0082L25.6964 18.2164L25.6972 18.2169L25.698 18.2173C25.9957 18.3867 26.278 18.5473 26.56 18.7085C26.7059 18.7921 26.8519 18.8753 26.998 18.9586L26.998 18.9586L26.998 18.9586L26.998 18.9586L26.9981 18.9587L26.9982 18.9587L26.9983 18.9588L26.9984 18.9588L26.9984 18.9589C27.4946 19.2418 27.9908 19.5247 28.4797 19.8193C28.5771 19.878 28.674 20.0313 28.674 20.1409C28.676 20.9045 28.6805 21.6681 28.685 22.4318V22.4319V22.432V22.4321V22.4322V22.4323C28.6982 24.6796 28.7114 26.9271 28.661 29.1733L28.6616 29.1738ZM31.4518 29.1912C31.4132 29.2058 31.3734 29.2168 31.3263 29.2299C31.3013 29.2368 31.2742 29.2443 31.244 29.2533V28.902C31.244 28.1478 31.2436 27.3935 31.2432 26.6392V26.6391V26.6391V26.639V26.639V26.6389C31.242 24.5132 31.2408 22.3873 31.2491 20.2617C31.2514 19.6263 30.9968 19.194 30.4405 18.8774C28.1538 17.5763 25.8724 16.2663 23.591 14.9562L23.5888 14.955L23.5883 14.9547L23.5867 14.9538L23.5852 14.9529L23.5836 14.952L23.582 14.951C22.8555 14.5339 22.129 14.1167 21.4024 13.6998C21.3471 13.6681 21.2926 13.6347 21.2287 13.5956L21.2286 13.5955L21.2285 13.5954C21.1935 13.574 21.1557 13.5509 21.1135 13.5253C21.9396 13.0505 22.7246 12.5997 23.5101 12.1489C23.5275 12.1389 23.5459 12.1302 23.5644 12.1216C23.5976 12.1061 23.6307 12.0906 23.6571 12.0672C24.2033 11.5817 24.6871 11.7003 25.2919 12.0622C27.5398 13.4073 29.821 14.6982 32.1039 15.9846C34.2275 17.181 35.5311 18.9395 35.95 21.3362C36.516 24.5729 34.5422 28.0222 31.4518 29.1912ZM138.133 8.21132V29.1002C138.156 29.102 138.177 29.1042 138.197 29.1061C138.23 29.1096 138.259 29.1125 138.288 29.1125C139.407 29.1131 140.527 29.1136 141.646 29.1119C141.697 29.1119 141.747 29.1013 141.797 29.0907C141.82 29.0859 141.842 29.0811 141.865 29.0773V8.21132H138.133ZM53.5515 7.75477C56.5801 7.50161 59.2148 8.41297 61.3265 10.6447H61.327C62.7659 12.1647 63.5855 14.0083 63.9427 16.0543C64.041 16.6174 64.0959 17.188 64.1508 17.7587C64.1757 18.0176 64.2006 18.2765 64.2296 18.5347C64.157 20.7821 63.7188 22.9233 62.5229 24.8461C60.6357 27.88 57.8631 29.3748 54.3053 29.3618C49.9549 29.3461 46.4364 26.6812 45.1775 22.4141C44.2258 19.1884 44.3512 15.9868 45.8733 12.9495C47.4467 9.80982 50.0364 8.04899 53.5515 7.75477ZM54.3959 26.054C56.7426 26.0534 58.4121 24.9046 59.4809 22.8569C60.1852 21.5073 60.422 20.0446 60.4197 18.5352C60.4214 17.036 60.1717 15.5896 59.4927 14.2384C58.3103 11.8863 56.0626 10.6936 53.4632 11.0914C51.544 11.385 50.1934 12.4983 49.3142 14.1984C48.4569 15.8563 48.2668 17.6402 48.3962 19.4714C48.48 20.6584 48.7455 21.806 49.3046 22.8653C50.3829 24.9091 52.0508 26.054 54.3959 26.054ZM128.02 8.41768C127.959 8.25725 127.877 8.21476 127.714 8.21532H127.714C126.476 8.22147 125.238 8.22762 124 8.21141C123.745 8.20805 123.651 8.29749 123.567 8.51998C121.942 12.7936 120.312 17.0655 118.682 21.3373L118.676 21.354L117.331 24.8792C116.948 25.8832 116.566 26.8872 116.182 27.8965L115.738 29.0655C115.757 29.0743 115.771 29.0818 115.782 29.0877C115.799 29.0967 115.809 29.1019 115.819 29.1019C116.189 29.1028 116.56 29.1031 116.931 29.1035C117.714 29.1043 118.496 29.1051 119.279 29.1108C119.443 29.1118 119.477 29.016 119.514 28.9097C119.519 28.8962 119.524 28.8825 119.529 28.8688C119.68 28.4658 119.831 28.0631 119.983 27.6604C120.366 26.6433 120.749 25.6261 121.122 24.6058C121.204 24.38 121.316 24.3235 121.543 24.3241C123.821 24.33 126.098 24.3296 128.376 24.3293L129.983 24.3291H130.301C130.315 24.3626 130.329 24.3951 130.342 24.4271C130.37 24.4922 130.397 24.5549 130.421 24.6187L130.748 25.4761L130.749 25.4784C131.18 26.6094 131.612 27.7405 132.036 28.8738C132.102 29.0488 132.184 29.1147 132.378 29.113C133.139 29.106 133.901 29.1066 134.662 29.1072C134.989 29.1075 135.315 29.1078 135.641 29.1074C135.695 29.1074 135.748 29.1016 135.806 29.0952C135.834 29.0921 135.862 29.0889 135.893 29.0862L135.871 29.0219C135.857 28.9834 135.848 28.9543 135.837 28.9258L134.494 25.4043L134.486 25.3848L134.48 25.3681L134.474 25.3542C132.321 19.7094 130.169 14.0646 128.019 8.41824L128.02 8.41768ZM122.464 21.0651L124.001 16.9752C124.577 15.4411 125.155 13.9022 125.741 12.3452L127.483 16.8985L129.077 21.0651H122.464ZM70.5711 15.2305C71.8933 13.8027 73.5607 13.3033 75.4433 13.4664V13.4659C78.04 13.6908 79.828 15.1006 80.806 17.467C82.006 20.3709 81.9505 23.2996 80.4607 26.0923C78.489 29.7875 74.3829 29.9865 72.0743 28.7662C71.6742 28.5549 71.3104 28.2746 70.9513 27.9977C70.7867 27.8709 70.623 27.7447 70.4573 27.6263V34.3385H66.9666V13.7442H70.4349V15.3255C70.4504 15.3149 70.4643 15.3057 70.4769 15.2976C70.486 15.2917 70.4944 15.2864 70.5022 15.2815C70.5334 15.2618 70.5546 15.2485 70.5711 15.2305ZM73.962 26.3374C75.6025 26.451 76.9875 25.6075 77.5967 24.0273C78.2693 22.2818 78.2698 20.502 77.5692 18.7626C76.9471 17.2184 75.6658 16.4575 73.9491 16.5188C72.4111 16.574 71.1966 17.5035 70.6686 19.0196C70.3957 19.803 70.3508 20.6127 70.3632 21.431L70.2948 21.4394C70.3225 21.6525 70.3443 21.8671 70.3661 22.0816L70.3661 22.0819C70.4144 22.5567 70.4627 23.0313 70.575 23.4903C70.9942 25.2032 72.238 26.2177 73.962 26.3374ZM97.6648 19.6375C97.4867 18.152 96.9717 16.789 95.9995 15.637C94.8481 14.2734 93.3541 13.6053 91.6096 13.4641C88.8327 13.2387 86.1823 14.4043 84.7264 17.0838C83.634 19.0951 83.4195 21.2526 83.8385 23.4814C84.208 25.446 85.128 27.0874 86.7574 28.2672C88.2632 29.3576 89.9689 29.7253 91.7848 29.5807C93.6821 29.4293 95.3036 28.6735 96.5516 27.1813C97.0307 26.6082 97.4053 25.9713 97.6783 25.2531L96.6236 24.849L94.7279 24.1228C94.6606 24.2442 94.5986 24.3655 94.5375 24.4848L94.5373 24.4853L94.5373 24.4853C94.4073 24.7394 94.2819 24.9845 94.1207 25.2024C92.8564 26.9149 89.9779 27.08 88.4148 25.5405C87.5246 24.664 87.1528 23.5548 87.0152 22.301H97.822C97.806 22.0105 97.7947 21.7249 97.7836 21.4432L97.7835 21.4422V21.4421C97.7592 20.8268 97.7356 20.2296 97.6648 19.638V19.6375ZM87.2208 19.6136C87.546 17.9938 88.8041 16.357 91.0619 16.4338C92.5054 16.4828 93.549 17.1424 93.991 18.3563C94.0879 18.623 94.143 18.9052 94.2001 19.1978C94.2268 19.3343 94.2539 19.4731 94.2858 19.6136H87.2208ZM113.178 17.9248C113.232 18.3038 113.246 18.6913 113.247 19.0748L113.246 19.0753C113.25 21.5567 113.25 24.038 113.249 26.5194C113.249 27.2846 113.249 28.0499 113.249 28.8152V29.1108H109.731V28.7741C109.731 28.0344 109.731 27.2948 109.732 26.5551C109.734 24.4233 109.735 22.2915 109.722 20.16C109.719 19.6306 109.664 19.086 109.528 18.5764C109.185 17.2907 108.197 16.6329 106.864 16.7309C105.061 16.8632 103.826 18.1906 103.819 20.0412C103.81 22.1185 103.812 24.1961 103.813 26.2736C103.814 27.1051 103.815 27.9365 103.815 28.7679V29.1131H100.31V13.7512H103.806V15.292C103.832 15.3101 103.858 15.3281 103.884 15.3461C103.907 15.3177 103.929 15.2887 103.95 15.2596C103.999 15.1955 104.047 15.1315 104.102 15.0741C106.133 12.9656 109.46 13.0726 111.219 14.3814C112.408 15.2667 112.98 16.4966 113.178 17.9248Z" fill="#E8ECDF"/>
</svg>
