<svg width="140" height="141" viewBox="0 0 140 141" fill="none" xmlns="http://www.w3.org/2000/svg">
<g id="folder_managed">
<mask id="mask0_506_4253" style="mask-type:alpha" maskUnits="userSpaceOnUse" x="0" y="0" width="140" height="141">
<rect id="Bounding box" y="0.5" width="140" height="140" fill="#D9D9D9"/>
</mask>
<g mask="url(#mask0_506_4253)">
<path id="folder_managed_2" d="M100.4 119.522L99.7719 114.362C97.5581 113.876 95.7352 113.235 94.3031 112.439C92.871 111.642 91.5085 110.518 90.2154 109.067L85.346 111.02L82.2048 106.263L86.221 102.897C85.5784 100.833 85.2571 98.8213 85.2571 96.8623C85.2571 94.9033 85.5784 92.8913 86.221 90.8263L82.2048 87.4619L85.346 82.7048L90.2154 84.6575C91.5085 83.1311 92.871 81.9888 94.3031 81.2304C95.7352 80.4711 97.5581 79.8484 99.7719 79.3623L100.4 74.2013H106.234L106.862 79.3623C109.076 79.8484 110.899 80.4711 112.331 81.2304C113.763 81.9888 115.126 83.1311 116.42 84.6575L121.288 82.7048L124.429 87.4619L120.413 90.8263C121.057 92.8913 121.379 94.9033 121.379 96.8623C121.379 98.8213 121.057 100.833 120.413 102.897L124.429 106.263L121.288 111.02L116.42 109.067C115.126 110.518 113.763 111.642 112.331 112.439C110.899 113.235 109.076 113.876 106.862 114.362L106.234 119.522H100.4ZM103.317 109.426C106.75 109.426 109.702 108.19 112.174 105.719C114.646 103.247 115.882 100.295 115.882 96.8623C115.882 93.4294 114.646 90.4772 112.174 88.0059C109.702 85.5345 106.75 84.2988 103.317 84.2988C99.8842 84.2988 96.932 85.5345 94.4606 88.0059C91.9892 90.4772 90.7535 93.4294 90.7535 96.8623C90.7535 100.295 91.9892 103.247 94.4606 105.719C96.932 108.19 99.8842 109.426 103.317 109.426ZM23.3333 105.5V35.5V61.3679V58.8334V105.5ZM26.9237 111.333C24.2385 111.333 21.9965 110.434 20.1979 108.635C18.3993 106.837 17.5 104.595 17.5 101.91V39.0904C17.5 36.4052 18.3993 34.1632 20.1979 32.3646C21.9965 30.566 24.2385 29.6667 26.9237 29.6667H55.9781L67.6448 41.3334H113.076C115.762 41.3334 118.003 42.2327 119.802 44.0313C121.601 45.8299 122.5 48.0718 122.5 50.7571V64.1388C121.573 63.5486 120.642 63.0348 119.707 62.5973C118.772 62.1598 117.758 61.75 116.667 61.3679V50.7571C116.667 49.71 116.33 48.8496 115.658 48.1758C114.984 47.5031 114.123 47.1667 113.076 47.1667H65.2998L53.6331 35.5H26.9237C25.8767 35.5 25.0163 35.8364 24.3425 36.5092C23.6697 37.1829 23.3333 38.0434 23.3333 39.0904V101.91C23.3333 102.957 23.6697 103.817 24.3425 104.491C25.0163 105.164 25.8767 105.5 26.9237 105.5H66.2871C66.5039 106.569 66.7601 107.572 67.0556 108.507C67.3512 109.441 67.7119 110.383 68.1377 111.333H26.9237Z" fill="#888F77"/>
</g>
</g>
</svg>
