<svg width="140" height="141" viewBox="0 0 140 141" fill="none" xmlns="http://www.w3.org/2000/svg">
<mask id="mask0_506_4994" style="mask-type:alpha" maskUnits="userSpaceOnUse" x="0" y="0" width="140" height="141">
<rect y="0.639038" width="140" height="140" fill="#D9D9D9"/>
</mask>
<g mask="url(#mask0_506_4994)">
<path d="M20.1703 104.742L16.0417 100.547L55.0798 61.2838L78.1886 84.3926L99.368 60.7224C93.5871 53.9917 87.0246 48.6629 79.6805 44.7361C72.3373 40.8103 64.4064 38.8474 55.8878 38.8474C49.1347 38.8474 42.7331 40.0233 36.683 42.3751C30.6328 44.7269 25.0537 47.9411 19.9457 52.0176L15.8171 47.822C21.3967 43.2 27.5742 39.5765 34.3496 36.9515C41.1251 34.3265 48.3044 33.014 55.8878 33.014C64.9673 33.014 73.5044 35.0465 81.499 39.1113C89.4936 43.1762 96.7289 48.8841 103.205 56.2351L120.054 37.2767L124.183 41.4724L106.683 61.0811C109.816 65.8606 112.455 71.0955 114.597 76.7859C116.74 82.4773 118.215 88.3033 119.022 94.264H113.189C112.457 89.7772 111.217 85.1164 109.47 80.2815C107.724 75.4457 105.471 70.5861 102.712 65.7026L78.3242 92.7838L55.0798 69.6065L20.1703 104.742Z" fill="#888F77"/>
</g>
</svg>
