<svg width="31" height="31" viewBox="0 0 31 31" fill="none" xmlns="http://www.w3.org/2000/svg">
<g id="Frame 831">
<path id="&#239;&#138;&#160;" d="M16.7514 0.838379V2.89509C18.7857 2.89509 20.6915 3.40927 22.4687 4.43762C24.1604 5.44455 25.5094 6.79427 26.5158 8.48677C27.5437 10.265 28.0576 12.1717 28.0576 14.207H30.1133C30.1133 11.7861 29.503 9.53655 28.2824 7.45841C27.1047 5.44455 25.5094 3.84846 23.4966 2.67014C21.4195 1.44896 19.1711 0.838379 16.7514 0.838379ZM6.11979 3.92344C5.54163 3.92344 5.03842 4.10555 4.61016 4.46976L1.30182 7.84405L1.39818 7.77977C0.862853 8.22968 0.509536 8.7867 0.338231 9.45085C0.188338 10.115 0.231165 10.7577 0.46671 11.379C1.06628 13.0501 1.86927 14.764 2.87569 16.5208C4.28896 18.9417 5.9699 21.1162 7.91849 23.0444C11.0448 26.1938 14.9313 28.6789 19.578 30.5H19.6101C20.2311 30.7142 20.8521 30.7571 21.473 30.6285C22.1154 30.5 22.6829 30.2215 23.1754 29.793L26.4195 26.5472C26.8477 26.1188 27.0619 25.5939 27.0619 24.9726C27.0619 24.3299 26.8477 23.7943 26.4195 23.3658L22.2118 19.1238C21.7835 18.6953 21.2482 18.4811 20.6058 18.4811C19.9634 18.4811 19.4281 18.6953 18.9998 19.1238L16.9763 21.1805C15.3489 20.4093 13.9356 19.4559 12.7365 18.3204C11.5373 17.1635 10.5844 15.7602 9.8778 14.1106L11.9335 12.0539C12.3831 11.5825 12.608 11.0255 12.608 10.3828C12.608 9.71865 12.351 9.18305 11.8371 8.77599L11.9335 8.8724L7.62942 4.46976C7.20115 4.10555 6.69794 3.92344 6.11979 3.92344ZM16.7514 4.9518V7.00851C18.0576 7.00851 19.2568 7.32987 20.3488 7.97259C21.4623 8.61531 22.3403 9.4937 22.9827 10.6077C23.6251 11.7004 23.9463 12.9001 23.9463 14.207H26.0019C26.0019 12.5359 25.5844 10.9827 24.7493 9.54726C23.9141 8.15469 22.8007 7.04064 21.4088 6.2051C19.9741 5.36957 18.4217 4.9518 16.7514 4.9518ZM6.11979 5.98015C6.18403 5.98015 6.25897 6.01229 6.34463 6.07656L10.5523 10.3828C10.5737 10.4685 10.5523 10.5435 10.4881 10.6077L7.4367 13.6285L7.66154 14.2713L8.07909 15.1711C8.4217 15.8995 8.81785 16.6065 9.26752 17.2921C9.88851 18.2561 10.5737 19.081 11.3232 19.7665C12.3296 20.752 13.5395 21.6518 14.9527 22.466C15.6594 22.873 16.2589 23.173 16.7514 23.3658L17.3938 23.655L20.5094 20.5378C20.5523 20.495 20.5844 20.4735 20.6058 20.4735C20.6272 20.4735 20.6593 20.495 20.7022 20.5378L25.0383 24.8762C25.0812 24.919 25.1026 24.9512 25.1026 24.9726C25.1026 24.9726 25.0812 24.994 25.0383 25.0368L21.8264 28.2183C21.3553 28.6254 20.8413 28.7325 20.2846 28.5397C15.9163 26.8472 12.2761 24.5334 9.36388 21.5983C7.56518 19.7987 5.99131 17.7527 4.64228 15.4603C3.67869 13.8106 2.92922 12.2146 2.3939 10.672V10.6399C2.30824 10.4471 2.29754 10.2221 2.36178 9.96503C2.42602 9.68651 2.54379 9.47227 2.71509 9.32231L5.89495 6.07656C5.95919 6.01229 6.03414 5.98015 6.11979 5.98015ZM16.7514 9.06522V11.1219C17.608 11.1219 18.336 11.4219 18.9356 12.0217C19.5351 12.6216 19.8349 13.35 19.8349 14.207H21.8906C21.8906 13.2858 21.655 12.4288 21.184 11.6361C20.7343 10.8434 20.1133 10.2221 19.321 9.77221C18.5287 9.30088 17.6722 9.06522 16.7514 9.06522Z" fill="#2E3224"/>
</g>
</svg>
