<svg width="97" height="127" viewBox="0 0 97 127" fill="none" xmlns="http://www.w3.org/2000/svg">
<path id="Union" fill-rule="evenodd" clip-rule="evenodd" d="M27.8036 14.8442L32.1587 9.10695L32.173 9.08815C34.4725 6.05896 36.7642 3.04017 39.0714 0L44.4148 4.0662L51.6155 9.54576C51.1282 10.1863 50.6449 10.8219 50.1642 11.4541L50.1601 11.4594C49.1926 12.7318 48.2356 13.9904 47.2778 15.2474C46.8234 15.8441 46.3684 16.4402 45.9133 17.0363L45.9128 17.0368L45.9125 17.0372C44.8027 18.491 43.6928 19.9448 42.5933 21.4073C42.3312 21.7554 42.1294 21.8691 41.6913 21.6537C38.4511 20.0638 35.2038 18.4864 31.9571 16.9092L31.9569 16.9091C30.6964 16.2968 29.436 15.6846 28.1761 15.0716C28.1112 15.0398 28.05 15.0004 27.9633 14.9446L27.9633 14.9445C27.9187 14.9158 27.8673 14.8828 27.8053 14.8442H27.8036ZM80.4017 72.858C80.8522 72.2704 81.2938 71.6936 81.731 71.1226L81.7376 71.1139L81.7467 71.102C82.2298 70.4712 82.7074 69.8473 83.1855 69.224L83.3338 69.2964C83.2784 69.5473 83.2231 69.7983 83.1678 70.0493C83.1136 70.2949 83.0596 70.5405 83.0055 70.7861L83.0011 70.8059C82.6902 72.2177 82.3792 73.6298 82.0627 75.0411C81.9807 75.4074 81.8993 75.7739 81.8179 76.1404L81.8178 76.1405L81.8178 76.1406L81.8178 76.1407C81.4707 77.7029 81.1236 79.2649 80.738 80.8168C80.5983 81.3819 80.362 81.9626 80.0274 82.4347C77.2506 86.334 74.4496 90.2161 71.6313 94.0844C71.2415 94.6202 71.0622 95.144 71.0622 95.8143C71.0778 104.08 71.077 112.346 71.0763 120.613C71.0761 122.383 71.076 124.154 71.076 125.925V127H21.0149C21.2886 125.24 21.5607 123.489 21.8321 121.741L21.833 121.736C22.2677 118.937 22.7005 116.151 23.1346 113.365C23.4495 111.345 23.7584 109.324 24.0672 107.303L24.0672 107.303L24.0672 107.303L24.0672 107.303C24.9138 101.763 25.7602 96.2241 26.7308 90.7072C27.0981 88.624 26.6187 87.1042 25.4872 85.4174C19.9318 77.1283 14.4155 68.8136 8.89913 60.4988L8.89799 60.497L8.89413 60.4912C6.06306 56.2239 3.23194 51.9566 0.395466 47.6926C0.0246433 47.1361 -0.0115766 46.7829 0.405814 46.2056C6.01439 38.4211 11.6037 30.6219 17.193 22.8226L17.1945 22.8206C18.5006 20.998 19.8068 19.1754 21.1132 17.353C21.2026 17.2274 21.2951 17.1043 21.4013 16.9629C21.4713 16.8697 21.5474 16.7685 21.6324 16.6534L32.8644 22.1433L32.8957 22.1586C39.0715 25.1772 45.2514 28.1978 51.45 31.2271C51.1869 31.7639 50.9251 32.2987 50.6641 32.8319L50.6634 32.8334L50.6632 32.8337L50.663 32.8341C49.4442 35.3239 48.2436 37.7765 47.0208 40.2197C46.9225 40.4179 46.5862 40.585 46.3464 40.6091C43.3781 40.9038 40.4098 41.1795 37.4363 41.4241C37.1224 41.45 36.7706 41.2966 36.4722 41.1502C34.5066 40.1933 32.5448 39.229 30.5828 38.2646L30.5818 38.264L30.5807 38.2635L30.5797 38.263C29.5608 37.7622 28.5419 37.2614 27.5224 36.7615C27.3146 36.6601 27.1044 36.5635 26.8603 36.4513C26.7477 36.3996 26.628 36.3446 26.4979 36.2842C26.5743 36.8675 26.6494 37.4455 26.7239 38.0193C26.9976 40.1269 27.2638 42.1777 27.5621 44.2241C27.5931 44.4412 27.9536 44.6721 28.2089 44.7876C31.3169 46.185 34.4301 47.5737 37.5571 48.9298C38.1279 49.1779 38.4574 49.538 38.7057 50.0929C40.6073 54.337 42.5119 58.5799 44.4165 62.8227L44.4186 62.8273L44.4206 62.8319L44.4286 62.8497C47.4556 69.5928 50.4826 76.336 53.4972 83.0843C53.7749 83.7064 54.0526 83.8597 54.7097 83.7288C55.4938 83.5733 56.2897 83.4794 57.1287 83.3803L57.1289 83.3803L57.1291 83.3803L57.1293 83.3803C57.4897 83.3377 57.8581 83.2943 58.2369 83.2446C58.1949 83.1346 58.1576 83.0312 58.1221 82.9327C58.057 82.7521 57.9979 82.5879 57.9264 82.4296L56.7378 79.7844C51.7839 68.7596 46.8298 57.7342 41.8534 46.7191C41.7064 46.3946 41.4405 46.1239 41.1883 45.8671L41.1883 45.8671L41.1883 45.8671L41.1882 45.867C41.0735 45.7502 40.9617 45.6363 40.8651 45.5216C42.1397 45.0753 42.9107 45.1752 44.0473 46.0161C49.9535 50.3784 55.8601 54.7406 61.7667 59.1029L62.0696 59.3266C67.893 63.6274 73.7164 67.9282 79.5393 72.229C79.7121 72.357 79.8865 72.4826 80.0908 72.6297L80.2631 72.7539L80.4 72.8528L80.4017 72.858ZM64.591 55.5343L58.5929 50.9715L52.4866 46.3263C58.4853 38.4295 64.4409 30.5896 70.4568 22.6704L75.2423 26.3089L75.4487 26.4658L82.5629 31.875L79.6478 35.7124L79.5635 35.8235C74.5716 42.395 69.601 48.9383 64.591 55.5343ZM75.0902 63.4311L79.5795 66.8496C85.2419 59.3974 90.8508 52.0158 96.4821 44.6066C94.0595 42.763 91.6729 40.9474 89.292 39.1362L89.2865 39.132L84.9521 35.8345C80.6834 41.4533 76.4403 47.0377 72.1923 52.6285L72.1843 52.639L68.0547 58.0741C70.4218 59.876 72.7535 61.6517 75.0902 63.4311ZM50.7209 26.0534C52.8758 27.1037 55.0176 28.1476 57.1935 29.2076C55.5895 32.5142 54.0217 35.7432 52.4539 38.9722C52.4815 38.9886 52.5091 39.0045 52.5366 39.0204C52.5642 39.0364 52.5919 39.0523 52.6195 39.0687L52.7136 38.9449C57.5771 32.5454 62.4408 26.1455 67.3385 19.7015C65.1729 18.0555 63.0264 16.4249 60.883 14.7966C59.2232 13.5357 57.5652 12.2762 55.9017 11.0121C52.6315 15.3129 49.4149 19.5447 46.1585 23.83C47.6965 24.5794 49.2119 25.3179 50.7209 26.0534Z" fill="#D2D8C5"/>
</svg>
