<svg  width="50" height="50" viewBox="0 0 97 127" fill="none" xmlns="http://www.w3.org/2000/svg">
<path id="Union" fill-rule="evenodd" clip-rule="evenodd" d="M27.8053 14.8442L32.1604 9.10695L32.1747 9.08815C34.4742 6.05896 36.7659 3.04017 39.0731 0L44.4165 4.0662L51.6172 9.54576C51.1299 10.1863 50.6466 10.8219 50.1659 11.4541L50.1618 11.4594C49.1943 12.7318 48.2373 13.9904 47.2795 15.2474C46.8251 15.8441 46.3701 16.4402 45.915 17.0363L45.9145 17.0368L45.9142 17.0372C44.8044 18.491 43.6945 19.9448 42.595 21.4073C42.3329 21.7554 42.1311 21.8691 41.693 21.6537C38.4529 20.0638 35.2056 18.4864 31.9588 16.9092L31.9586 16.9091C30.6981 16.2968 29.4377 15.6846 28.1778 15.0716C28.1129 15.0398 28.0517 15.0004 27.965 14.9446L27.965 14.9445C27.9204 14.9158 27.8691 14.8828 27.807 14.8442H27.8053ZM80.4034 72.858C80.8539 72.2704 81.2955 71.6936 81.7327 71.1226L81.7393 71.1139L81.7484 71.102C82.2315 70.4712 82.7091 69.8473 83.1872 69.224L83.3355 69.2964C83.2801 69.5473 83.2248 69.7983 83.1695 70.0493C83.1153 70.2949 83.0613 70.5405 83.0072 70.7861L83.0028 70.8059C82.6919 72.2177 82.381 73.6298 82.0644 75.0411C81.9824 75.4074 81.901 75.7739 81.8196 76.1404L81.8195 76.1405L81.8195 76.1406L81.8195 76.1407C81.4724 77.7029 81.1253 79.2649 80.7397 80.8168C80.6 81.3819 80.3638 81.9626 80.0292 82.4347C77.2523 86.334 74.4513 90.2161 71.633 94.0844C71.2432 94.6202 71.0639 95.144 71.0639 95.8143C71.0795 104.08 71.0787 112.346 71.078 120.613C71.0778 122.383 71.0777 124.154 71.0777 125.925V127H21.0166C21.2903 125.24 21.5624 123.489 21.8338 121.741L21.8347 121.736C22.2694 118.937 22.7022 116.151 23.1364 113.365C23.4512 111.345 23.7601 109.324 24.0689 107.303L24.0689 107.303L24.0689 107.303L24.069 107.303C24.9155 101.763 25.7619 96.2241 26.7325 90.7072C27.0998 88.624 26.6204 87.1042 25.4889 85.4174C19.9335 77.1283 14.4172 68.8136 8.90084 60.4988L8.89969 60.497L8.89584 60.4912C6.06476 56.2239 3.23365 51.9566 0.397175 47.6926C0.0263522 47.1361 -0.00986761 46.7829 0.407523 46.2056C6.01609 38.4211 11.6054 30.6219 17.1947 22.8226L17.1962 22.8206C18.5024 20.998 19.8085 19.1754 21.1149 17.353C21.2043 17.2274 21.2968 17.1043 21.403 16.9629C21.473 16.8697 21.5491 16.7685 21.6341 16.6534L32.8661 22.1433L32.8974 22.1586C39.0732 25.1772 45.2531 28.1978 51.4517 31.2271C51.1886 31.7639 50.9268 32.2987 50.6658 32.8319L50.6651 32.8334L50.6649 32.8337L50.6647 32.8341C49.4459 35.3239 48.2453 37.7765 47.0225 40.2197C46.9242 40.4179 46.5879 40.585 46.3481 40.6091C43.3798 40.9038 40.4115 41.1795 37.438 41.4241C37.1241 41.45 36.7723 41.2966 36.4739 41.1502C34.5084 40.1933 32.5465 39.229 30.5845 38.2646L30.5835 38.264L30.5824 38.2635L30.5814 38.263C29.5625 37.7622 28.5436 37.2614 27.5241 36.7615C27.3164 36.6601 27.1061 36.5635 26.862 36.4513C26.7494 36.3996 26.6297 36.3446 26.4996 36.2842C26.576 36.8675 26.6511 37.4455 26.7256 38.0193C26.9993 40.1269 27.2655 42.1777 27.5638 44.2241C27.5948 44.4412 27.9553 44.6721 28.2106 44.7876C31.3186 46.185 34.4318 47.5737 37.5588 48.9298C38.1297 49.1779 38.4591 49.538 38.7075 50.0929C40.609 54.337 42.5136 58.5799 44.4182 62.8227L44.4203 62.8273L44.4223 62.8319L44.4303 62.8497C47.4573 69.5928 50.4843 76.336 53.499 83.0843C53.7766 83.7064 54.0543 83.8597 54.7115 83.7288C55.4956 83.5733 56.2915 83.4794 57.1305 83.3803L57.1306 83.3803L57.1308 83.3803L57.131 83.3803C57.4914 83.3377 57.8598 83.2943 58.2386 83.2446C58.1966 83.1346 58.1593 83.0312 58.1239 82.9327C58.0587 82.7521 57.9996 82.5879 57.9281 82.4296L56.7396 79.7844C51.7857 68.7596 46.8315 57.7342 41.8551 46.7191C41.7081 46.3946 41.4422 46.1239 41.19 45.8671L41.19 45.8671L41.19 45.8671L41.1899 45.867C41.0752 45.7502 40.9634 45.6363 40.8668 45.5216C42.1414 45.0753 42.9124 45.1752 44.049 46.0161C49.9552 50.3784 55.8618 54.7406 61.7684 59.1029L62.0713 59.3266C67.8947 63.6274 73.7181 67.9282 79.541 72.229C79.7138 72.357 79.8882 72.4826 80.0925 72.6297L80.2649 72.7539L80.4017 72.8528L80.4034 72.858ZM64.5927 55.5343L58.5946 50.9715L52.4883 46.3263C58.487 38.4295 64.4426 30.5896 70.4586 22.6704L75.244 26.3089L75.4504 26.4658L82.5646 31.875L79.6495 35.7124L79.5652 35.8235C74.5733 42.395 69.6027 48.9383 64.5927 55.5343ZM75.0919 63.4311L79.5812 66.8496C85.2436 59.3974 90.8525 52.0158 96.4838 44.6066C94.0612 42.763 91.6746 40.9474 89.2937 39.1362L89.2882 39.132L84.9538 35.8345C80.6852 41.4533 76.442 47.0377 72.194 52.6285L72.186 52.639L68.0564 58.0741C70.4235 59.876 72.7552 61.6517 75.0919 63.4311ZM50.7226 26.0534C52.8775 27.1037 55.0194 28.1476 57.1952 29.2076C55.5912 32.5142 54.0234 35.7432 52.4556 38.9722C52.4832 38.9886 52.5108 39.0045 52.5383 39.0204C52.566 39.0364 52.5936 39.0523 52.6212 39.0687L52.7153 38.9449C57.5788 32.5454 62.4425 26.1455 67.3402 19.7015C65.1746 18.0555 63.0281 16.4249 60.8847 14.7966C59.2249 13.5357 57.5669 12.2762 55.9034 11.0121C52.6333 15.3129 49.4166 19.5447 46.1603 23.83C47.6982 24.5794 49.2136 25.3179 50.7226 26.0534Z" fill="url(#paint0_linear_463_1156)"/>
<defs>
<linearGradient id="paint0_linear_463_1156" x1="48.2952" y1="24.1202" x2="48.2952" y2="127" gradientUnits="userSpaceOnUse">
<stop stop-color="white"/>
<stop offset="1" stop-color="white" stop-opacity="0"/>
</linearGradient>
</defs>
</svg>
