<svg width="140" height="32" viewBox="0 0 140 32" fill="none" xmlns="http://www.w3.org/2000/svg">
<g id="Layer_1" clip-path="url(#clip0_463_1415)">
<path id="Vector" d="M29.6462 6.87321C27.0691 5.06108 24.2124 4.80911 21.2017 5.88948C20.4045 6.17597 19.4849 7.84313 18.5757 5.92745C18.5198 5.8101 18.0267 5.88258 17.7365 5.88258C16.9218 5.87913 16.0966 5.96542 15.2993 5.86187C13.8727 5.67893 13.4566 6.15181 13.4671 7.59461C13.5265 15.5404 13.4671 23.4896 13.4496 31.4388H19.0268V23.2411C21.3731 24.9324 23.6284 25.6365 26.174 25.1257C30.0029 24.3594 32.9471 21.4876 33.6569 17.7149C34.4786 13.352 33.4681 9.56207 29.6462 6.87321ZM23.6914 19.9033C20.9884 19.9033 19.0268 17.9531 19.0303 15.2746C19.0338 12.6064 21.0129 10.6493 23.7053 10.6562C26.3838 10.6632 28.3839 12.6479 28.3804 15.2953C28.3769 17.96 26.3978 19.9067 23.6914 19.9067V19.9033Z" fill="#E8ECDF"/>
<path id="Vector_2" d="M3.80226 10.2904C2.00147 10.8668 1.14129 12.32 0.200684 13.7214V17.1282C0.788125 17.3801 0.879039 18.0083 1.21822 18.4467C2.90711 20.6178 5.98769 21.2357 8.36892 19.8446C10.7502 18.4536 11.6803 15.5128 10.5194 13.0448C9.37247 10.6079 6.45624 9.44473 3.80576 10.2904H3.80226Z" fill="#888F77"/>
<path id="Vector_3" d="M69.9349 9.50686C69.9349 5.85844 69.9349 5.84463 66.1201 5.89641C65.5956 5.90331 64.7668 5.54088 64.592 6.24848C64.3367 7.29779 63.9451 6.84907 63.4346 6.54187C61.6408 5.46495 59.7002 5.00932 57.6056 5.37865C52.8676 6.21051 49.7871 9.73812 49.5738 14.9053C49.4094 18.8644 50.927 22.1883 54.588 24.1661C57.8084 25.9023 61.0464 25.7297 64.3542 23.2583C64.1969 24.4146 64.585 24.7874 65.5501 24.7046C66.5292 24.6183 67.5292 24.6148 68.5083 24.7046C69.6482 24.8116 69.9699 24.425 69.9559 23.3067C69.8895 18.709 69.9279 14.1079 69.9279 9.51031L69.9349 9.50686ZM59.7246 19.9033C56.9937 19.8791 55.095 17.9289 55.13 15.1918C55.165 12.5098 57.1825 10.5976 59.9169 10.6563C62.5499 10.7115 64.4032 12.6237 64.4067 15.2953C64.4067 18.0187 62.4695 19.9275 59.7281 19.9068L59.7246 19.9033Z" fill="#E8ECDF"/>
<path id="Vector_4" d="M116.413 5.25436C110.741 5.27162 106.129 9.84164 106.188 15.385C106.251 20.8525 110.878 25.319 116.458 25.3017C122.039 25.2844 126.665 20.7904 126.707 15.3402C126.749 9.83819 122.056 5.24056 116.413 5.25436ZM116.364 19.9033C113.668 19.8826 111.748 17.922 111.773 15.2194C111.797 12.5443 113.787 10.6252 116.504 10.6562C119.168 10.6838 121.175 12.7272 121.123 15.354C121.067 18.0394 119.091 19.9274 116.364 19.9067V19.9033Z" fill="#E8ECDF"/>
<path id="Vector_5" d="M89.1142 19.2233C88.9219 19.0956 88.7261 18.9713 88.5512 18.8264C87.5617 18.0049 86.8274 17.5803 85.593 18.8333C83.9251 20.5246 80.9215 20.2416 79.292 18.6262C77.6136 16.9625 77.4912 14.0631 79.0193 12.2406C80.4669 10.5182 83.3692 9.90033 85.107 11.4191C86.6455 12.7652 87.5862 12.3683 88.7715 11.2706C89.0618 11.0014 89.4009 10.7529 89.7576 10.5803C91.2751 9.85891 90.859 9.12716 89.9079 8.19866C86.677 5.05073 81.6068 4.35349 77.5542 6.57292C73.5085 8.78544 71.5329 13.4659 72.7463 17.9496C73.9002 22.209 78.1171 25.3224 82.2852 25.2948C85.1455 25.2327 87.3484 24.4837 89.2331 22.9166C90.8369 21.5843 90.7984 20.3509 89.1177 19.2164L89.1142 19.2233Z" fill="#E8ECDF"/>
<path id="Vector_6" d="M101.485 5.82394C99.5483 5.82394 98.5797 4.86667 98.5797 2.95214C98.5797 1.23091 97.7009 0.370291 95.9432 0.370291C95.4222 0.370291 94.8942 0.415162 94.3767 0.359936C93.4011 0.252934 93.0724 0.608456 93.0794 1.58873C93.1214 7.43242 93.0794 13.2761 93.1144 19.1232C93.1284 21.3254 94.0515 23.103 96.1565 24.0868C97.702 24.8082 99.3734 25.0394 101.076 24.8323C105.772 24.2662 104.692 25.0601 104.874 20.7283C104.923 19.5754 104.583 19.5374 103.493 19.6962C98.3314 20.4349 98.4433 19.4788 98.5797 15.751C98.5867 15.5818 98.5727 15.4092 98.5797 15.2401C98.6566 13.7766 97.9608 11.8954 98.8385 10.9669C99.7371 10.0177 101.688 10.7633 103.174 10.6563C103.349 10.6425 103.524 10.6356 103.695 10.6563C104.643 10.784 104.989 10.463 105.01 9.462C105.087 5.81703 105.129 5.82049 101.482 5.82049L101.485 5.82394Z" fill="#E8ECDF"/>
<path id="Vector_7" d="M47.1751 5.69618C45.182 5.56156 43.4441 6.17251 41.6678 7.73612C42.1259 5.85151 41.1748 5.78247 40.0314 5.86876C39.2831 5.92399 38.5173 5.9516 37.7725 5.86186C36.6745 5.7307 36.4193 6.14145 36.4333 7.17695C36.4927 11.709 36.4578 16.2445 36.4578 20.7765C36.4578 24.746 36.4577 24.6907 40.5069 24.7149C41.7797 24.7218 42.0454 24.3042 42.014 23.1617C41.937 20.5004 41.937 17.8323 42.0245 15.1745C42.1154 12.4408 43.6644 11.0635 46.4687 11.0601C47.0387 11.0601 47.6087 11.1222 48.322 11.1671C48.322 9.68632 48.2695 8.21935 48.343 6.75584C48.3884 5.85151 47.8849 5.74796 47.1856 5.69963L47.1751 5.69618Z" fill="#E8ECDF"/>
<path id="Vector_8" d="M134.326 9.97284C131.347 9.92451 128.878 12.2855 128.85 15.2056C128.822 18.2327 131.092 20.5108 134.155 20.535C137.246 20.5591 139.631 18.3224 139.659 15.3747C139.687 12.4546 137.284 10.0212 134.326 9.97629V9.97284Z" fill="#888F77"/>
</g>
<defs>
<clipPath id="clip0_463_1415">
<rect width="139.461" height="31.0961" fill="white" transform="translate(0.200684 0.342651)"/>
</clipPath>
</defs>
</svg>
