<svg width="140" height="141" viewBox="0 0 140 141" fill="none" xmlns="http://www.w3.org/2000/svg">
<g id="psychology">
<mask id="mask0_506_4450" style="mask-type:alpha" maskUnits="userSpaceOnUse" x="0" y="0" width="140" height="141">
<rect id="Bounding box" y="0.367188" width="140" height="140" fill="#D9D9D9"/>
</mask>
<g mask="url(#mask0_506_4450)">
<path id="psychology_2" d="M40.8335 122.867V100.925C35.2918 95.8696 30.9897 90.1874 27.9272 83.8786C24.8647 77.5709 23.3335 71.0954 23.3335 64.4522C23.3335 51.5119 27.8704 40.5127 36.9441 31.4545C46.0188 22.3963 57.0375 17.8672 70.0002 17.8672C80.5079 17.8672 90.0041 21.0663 98.4887 27.4645C106.973 33.8627 112.476 42.1246 114.996 52.2503L121.043 76.1918C121.431 77.6705 121.154 79.0141 120.212 80.2226C119.27 81.4301 118.013 82.0339 116.442 82.0339H105V101.777C105 104.369 104.078 106.587 102.232 108.433C100.387 110.278 98.1684 111.201 95.5764 111.201H81.6668V122.867H75.8335V105.367H95.5764C96.6235 105.367 97.4839 105.031 98.1577 104.358C98.8304 103.684 99.1668 102.824 99.1668 101.777V76.2005H114.917L109.375 53.5964C107.139 44.6743 102.338 37.4614 94.9712 31.9576C87.6047 26.4529 79.281 23.7005 70.0002 23.7005C58.7224 23.7005 49.0974 27.6487 41.1252 35.5451C33.1529 43.4425 29.1668 53.0456 29.1668 64.3545C29.1668 70.1684 30.3578 75.6916 32.7397 80.9241C35.1217 86.1575 38.5002 90.8091 42.8752 94.8788L46.6668 98.3672V122.867H40.8335ZM66.7466 85.3997H73.2537L73.6795 80.0141C75.205 79.7224 76.6579 79.2139 78.0385 78.4886C79.4181 77.7634 80.575 76.8213 81.5093 75.6624L86.1993 78.0176L89.4514 72.4759L85.1887 69.3347C85.8323 67.7344 86.1541 66.1341 86.1541 64.5339C86.1541 62.9336 85.8323 61.3333 85.1887 59.733L89.4514 56.5918L86.1993 51.0501L81.5093 53.4053C80.575 52.2464 79.4181 51.3043 78.0385 50.5791C76.6579 49.8538 75.205 49.3453 73.6795 49.0536L73.2537 43.668H66.7466L66.3208 49.0536C64.7954 49.3453 63.3424 49.8538 61.9618 50.5791C60.5822 51.3043 59.4253 52.2464 58.491 53.4053L53.801 51.0501L50.5489 56.5918L54.8116 59.733C54.168 61.3333 53.8462 62.9336 53.8462 64.5339C53.8462 66.1341 54.168 67.7344 54.8116 69.3347L50.5489 72.4759L53.801 78.0176L58.491 75.6624C59.4253 76.8213 60.5822 77.7634 61.9618 78.4886C63.3424 79.2139 64.7954 79.7224 66.3208 80.0141L66.7466 85.3997ZM69.9929 75.4159C66.9693 75.4159 64.4011 74.3572 62.2885 72.2397C60.1749 70.1222 59.1181 67.5511 59.1181 64.5266C59.1181 61.503 60.1768 58.9348 62.2943 56.8222C64.4118 54.7086 66.9829 53.6518 70.0075 53.6518C73.0311 53.6518 75.5992 54.7105 77.7118 56.828C79.8254 58.9455 80.8823 61.5166 80.8823 64.5411C80.8823 67.5648 79.8235 70.1329 77.706 72.2455C75.5885 74.3591 73.0175 75.4159 69.9929 75.4159Z" fill="#888F77"/>
</g>
</g>
</svg>
