<svg width="140" height="140" viewBox="0 0 140 140" fill="none" xmlns="http://www.w3.org/2000/svg">
<g id="query_stats">
<mask id="mask0_506_4420" style="mask-type:alpha" maskUnits="userSpaceOnUse" x="0" y="0" width="140" height="141">
<rect id="Bounding box" y="0.0100098" width="140" height="140" fill="#D9D9D9"/>
</mask>
<g mask="url(#mask0_506_4420)">
<path id="query_stats_2" d="M14.528 101.88L9.75928 98.3921L35.337 57.4465L52.837 77.8632L75.9457 40.3942L87.9157 58.444C86.8006 58.6161 85.7701 58.8086 84.8241 59.0215C83.8781 59.2354 82.919 59.5067 81.9468 59.8353L76.1587 51.2092L53.7674 87.6778L36.1216 67.1153L14.528 101.88ZM125.854 130.026L105.83 110.227C104.11 111.513 102.227 112.496 100.182 113.177C98.1362 113.857 95.9993 114.198 93.771 114.198C88.0494 114.198 83.2165 112.225 79.2722 108.28C75.3269 104.335 73.3543 99.5024 73.3543 93.7809C73.3543 88.0594 75.3269 83.2265 79.2722 79.2821C83.2165 75.3369 88.0494 73.3642 93.771 73.3642C99.4925 73.3642 104.325 75.3369 108.27 79.2821C112.215 83.2265 114.188 88.0594 114.188 93.7809C114.188 96.0841 113.829 98.2774 113.111 100.361C112.393 102.443 111.353 104.356 109.992 106.098L130.016 125.864L125.854 130.026ZM93.771 108.364C97.8543 108.364 101.306 106.955 104.125 104.135C106.945 101.316 108.354 97.8642 108.354 93.7809C108.354 89.6976 106.945 86.2462 104.125 83.4267C101.306 80.6073 97.8543 79.1976 93.771 79.1976C89.6876 79.1976 86.2362 80.6073 83.4168 83.4267C80.5973 86.2462 79.1876 89.6976 79.1876 93.7809C79.1876 97.8642 80.5973 101.316 83.4168 104.135C86.2362 106.955 89.6876 108.364 93.771 108.364ZM104.507 59.6778C103.557 59.3492 102.609 59.0726 101.663 58.848C100.716 58.6234 99.7346 58.4625 98.7176 58.3653L125.472 15.8271L130.241 19.3155L104.507 59.6778Z" fill="#888F77"/>
</g>
</g>
</svg>
