<svg width="141" height="140" viewBox="0 0 141 140" fill="none" xmlns="http://www.w3.org/2000/svg">
<g id="ramp_left">
<mask id="mask0_506_4988" style="mask-type:alpha" maskUnits="userSpaceOnUse" x="0" y="0" width="141" height="141">
<rect id="Bounding box" x="140.738" y="0.0100098" width="140" height="140" transform="rotate(90 140.738 0.0100098)" fill="#D9D9D9"/>
</mask>
<g mask="url(#mask0_506_4988)">
<path id="ramp_left_2" d="M24.184 67.0934L106.085 67.0934L93.8704 54.8434L97.9975 50.7148L117.293 70.0101L97.9975 89.3053L93.8704 85.1767L106.085 72.9267L88.2384 72.9267C82.2407 72.9267 76.6786 74.0652 71.5521 76.3421C66.4256 78.62 61.826 81.4507 57.7534 84.834C53.6817 88.2183 50.0937 91.8287 46.9894 95.665C43.8861 99.5014 41.3583 102.99 39.4061 106.132L35.2104 101.936C39.5854 95.2723 44.359 89.4428 49.5313 84.4476C54.7025 79.4523 60.074 75.612 65.6459 72.9267L24.184 72.9267L24.184 67.0934Z" fill="#888F77"/>
</g>
</g>
</svg>
