<svg width="84" height="45" viewBox="0 0 84 45" fill="none" xmlns="http://www.w3.org/2000/svg">
<g id="Group 2393">
<path id="Vector" d="M83.0524 0.345755H82.949C69.3385 0.345755 55.7281 0.345755 42.1146 0.345755C28.454 0.345755 14.7903 0.345755 1.12972 0.345755C0.636654 0.345755 0.389077 0.594376 0.386988 1.09162C0.386988 9.74112 0.386988 18.3906 0.386988 27.0401C0.386988 27.9646 0.198956 27.9552 1.28641 27.9552C28.5605 27.9552 55.8347 27.9552 83.1057 27.9552C83.5862 27.9552 83.8265 27.7066 83.8265 27.2093C83.8265 18.5097 83.8265 9.81006 83.8265 1.10729C83.8265 0.59751 83.5663 0.342621 83.0461 0.342621L83.0524 0.345755ZM78.9564 14.5297C76.0513 17.4034 73.1619 20.2929 70.2568 23.1666C70.1126 23.3077 69.8776 23.4393 69.6833 23.4393C68.1132 23.4612 66.5463 23.455 64.9762 23.4487C64.8822 23.4487 64.785 23.4048 64.5437 23.3453C66.9067 21.0231 69.1975 18.7761 71.5949 16.4194C71.2784 16.3881 71.1217 16.3599 70.9619 16.3599C68.4705 16.3599 65.9822 16.3724 63.4907 16.3536C63.0018 16.3505 62.842 16.4978 62.8483 16.9929C62.8734 18.9202 62.8451 20.8476 62.8702 22.7749C62.8765 23.2732 62.7543 23.4769 62.2184 23.4612C61.1623 23.4236 60.103 23.4393 59.0469 23.4612C58.627 23.4675 58.4765 23.3171 58.4797 22.894C58.4953 20.951 58.4859 19.0049 58.4859 17.0587C58.4859 16.3661 58.4859 16.363 57.8153 16.363C55.3082 16.363 52.8011 16.363 50.294 16.363C50.1655 16.363 50.0339 16.3849 49.7455 16.4069C52.1336 18.7479 54.4276 20.9949 56.8406 23.3609C56.499 23.408 56.3267 23.4518 56.1543 23.4518C54.7221 23.455 53.29 23.4706 51.8578 23.4362C51.5851 23.4299 51.2498 23.2983 51.0586 23.1102C48.1441 20.2459 45.2484 17.3627 42.3465 14.4858C42.1114 14.2539 42.1208 14.0721 42.3527 13.8434C45.2422 10.9727 48.1222 8.0927 51.0242 5.23147C51.2216 5.03717 51.5475 4.87421 51.8202 4.86794C53.2868 4.83347 54.7535 4.84914 56.2201 4.85227C56.3612 4.85227 56.4991 4.89928 56.6369 4.92435C56.662 4.97449 56.6839 5.02463 56.709 5.07477C54.415 7.33117 52.121 9.58442 49.7299 11.9411C50.0088 11.9724 50.1467 12.0038 50.2877 12.0038C52.7948 12.0038 55.3019 12.0038 57.809 12.0038C58.4828 12.0038 58.4859 12.0006 58.4859 11.3143C58.4859 9.38699 58.4859 7.45965 58.4859 5.53232C58.4859 4.91808 58.5455 4.8554 59.1566 4.85227C60.197 4.846 61.2375 4.86794 62.2779 4.84287C62.7323 4.83033 62.8702 5.00583 62.8671 5.44144C62.8546 7.40324 62.8608 9.36505 62.864 11.3269C62.864 12.0038 62.8671 12.0069 63.5534 12.0069C66.1953 12.0069 68.834 12.0069 71.5761 11.8878C69.2571 9.60323 66.9411 7.32176 64.6252 5.03717C64.6565 4.97762 64.6879 4.91495 64.7161 4.8554C64.9135 4.8554 65.1109 4.8554 65.3115 4.8554C66.6747 4.8554 68.0411 4.8648 69.4044 4.84914C69.8118 4.84287 70.1095 4.98076 70.3978 5.26594C73.2434 8.10837 76.0952 10.9445 78.9501 13.7744C79.2259 14.0471 79.2541 14.2445 78.9627 14.5328L78.9564 14.5297Z" fill="#E8ECDF"/>
<path id="Vector_2" d="M15.7086 38.8793C15.6553 38.8573 15.6146 38.8041 15.5926 38.7853C15.8903 38.4687 16.2351 38.2118 16.4356 37.8702C17.288 36.4004 16.42 34.705 14.6525 34.5827C12.8912 34.4605 11.1143 34.5577 9.29666 34.5577V43.8465C9.40321 43.859 9.48156 43.8747 9.56304 43.8747C11.0861 43.8747 12.6123 43.8935 14.1354 43.8621C14.5741 43.8527 15.0285 43.7525 15.4391 43.5989C16.4983 43.2103 17.1282 42.4425 17.1721 41.2924C17.2128 40.1892 16.7929 39.3243 15.7117 38.8824L15.7086 38.8793ZM12.2895 36.0682C12.8035 36.0682 13.3174 36.0776 13.8282 36.1309C14.3829 36.1873 14.6963 36.5539 14.7214 37.0836C14.7465 37.6915 14.4707 38.1272 13.9191 38.2306C13.4992 38.3089 13.0636 38.2995 12.6342 38.3309C11.3243 38.3026 11.3149 38.3026 11.3274 37.0084C11.3368 35.946 11.1707 36.0745 12.2895 36.0713V36.0682ZM13.7844 42.2827C13.4553 42.2952 13.1231 42.2827 12.7941 42.2827C12.7941 42.2952 12.7941 42.3046 12.7941 42.3171C12.3365 42.2889 11.6878 42.43 11.4716 42.1855C11.224 41.9097 11.3399 41.2892 11.3337 40.8192C11.3211 39.6784 11.3305 39.6784 12.4807 39.6816C12.9445 39.6816 13.4083 39.669 13.869 39.7066C14.7245 39.7787 15.1382 40.2645 15.11 41.1137C15.0849 41.8345 14.6211 42.2513 13.7875 42.2795L13.7844 42.2827Z" fill="#E8ECDF"/>
<path id="Vector_3" d="M25.4424 39.0923C25.2669 38.9795 25.0757 38.8917 24.8532 38.7726C24.9409 38.6943 24.9942 38.6379 25.0569 38.594C25.9124 37.9672 26.2039 37.1869 25.9688 36.1652C25.7651 35.2909 25.107 34.7331 24.0854 34.5764C23.8566 34.5419 23.6247 34.5012 23.3928 34.5012C21.9512 34.4886 20.5096 34.498 19.068 34.4792C18.6982 34.4729 18.5854 34.6046 18.5886 34.9712C18.6011 37.7886 18.598 40.6091 18.5886 43.4264C18.5886 43.7649 18.6826 43.8902 19.0398 43.884C20.4971 43.8652 21.9575 43.9122 23.4147 43.8558C23.9788 43.8338 24.568 43.6803 25.0851 43.4484C25.95 43.0598 26.417 42.3296 26.4734 41.3706C26.5298 40.4367 26.2791 39.6313 25.4455 39.0954L25.4424 39.0923ZM21.5626 36.0681C22.0578 36.0618 22.5561 36.0618 23.0449 36.1151C23.7344 36.1872 24.0352 36.5382 24.0321 37.1775C24.0321 37.8074 23.7156 38.1803 23.0512 38.2649C22.6939 38.3088 22.3273 38.2743 21.9637 38.2743C20.6381 38.3025 20.6319 38.3025 20.6413 36.9926C20.6475 35.9083 20.5347 36.0869 21.5595 36.0712L21.5626 36.0681ZM23.2894 42.2638C22.8788 42.2982 22.4652 42.27 22.0515 42.27C22.0515 42.292 22.0515 42.317 22.0484 42.339C21.5971 42.292 20.9954 42.3985 20.7415 42.1478C20.5128 41.9222 20.6507 41.3079 20.6475 40.8661C20.6413 39.6815 20.6444 39.6783 21.8478 39.6846C22.3586 39.6877 22.8757 39.6783 23.3803 39.7473C24.1105 39.8475 24.4614 40.349 24.4238 41.1262C24.3925 41.7937 24.0008 42.2042 23.2925 42.2638H23.2894Z" fill="#E8ECDF"/>
<path id="Vector_4" d="M6.44478 38.8071C5.89009 38.5595 5.28525 38.4185 4.69921 38.243C4.11318 38.0644 3.51147 37.9359 2.93484 37.7259C2.28926 37.4909 2.10123 36.7513 2.56818 36.2906C3.11034 35.7516 3.79979 35.7892 4.48298 35.9239C5.04394 36.0336 5.43881 36.3439 5.60804 36.9205C5.64564 37.049 5.78667 37.2401 5.88695 37.2433C6.46045 37.2746 7.03395 37.2589 7.63566 37.2589C7.60745 36.3031 7.29093 35.5541 6.56074 35.0182C5.15989 33.9934 2.73114 33.9934 1.3585 35.0339C-0.0893502 36.1307 -0.067413 38.4655 1.72516 39.2458C2.38641 39.5341 3.1072 39.6971 3.79666 39.9227C4.32942 40.0982 4.86844 40.2581 5.38553 40.4712C5.76473 40.6279 5.9747 40.9444 5.95276 41.3769C5.93396 41.7999 5.71146 42.0851 5.34793 42.2763C3.92515 43.0127 2.35821 42.3421 1.94454 40.7752C1.44938 40.7752 0.938561 40.7908 0.42774 40.7689C0.0798792 40.7563 0.00466617 40.9036 0.0391388 41.217C0.130021 41.9942 0.452811 42.6398 1.04825 43.1506C2.44282 44.3509 5.42314 44.4261 6.88666 43.3073C8.31571 42.2136 8.463 39.7034 6.43852 38.8071H6.44478Z" fill="#E8ECDF"/>
<path id="Vector_5" d="M82.7296 39.1456C82.3629 38.8573 81.896 38.6724 81.4479 38.5251C80.5359 38.2274 79.5926 38.0237 78.6838 37.7197C77.9598 37.4752 77.8596 36.6228 78.455 36.1527C79.3482 35.4476 80.984 35.9146 81.3632 36.9676C81.4071 37.0866 81.5607 37.2433 81.6735 37.2496C82.2157 37.2778 82.7609 37.2621 83.3658 37.2621C83.3501 36.3596 83.0681 35.6639 82.4382 35.1248C81.0749 33.959 78.3359 33.9872 76.9633 35.1405C75.8194 36.0995 75.6 38.3809 77.4083 39.2114C78.0507 39.506 78.7527 39.6658 79.4265 39.8915C80.0188 40.092 80.6518 40.2268 81.1909 40.5245C81.9524 40.9444 81.9023 41.9159 81.0969 42.2419C80.5954 42.4424 80.0031 42.4957 79.4547 42.4769C78.502 42.4456 78.0351 42.0037 77.7655 41.0792C77.7342 40.9695 77.6371 40.8003 77.5618 40.7971C76.9758 40.7752 76.3866 40.7846 75.7724 40.7846C75.7724 41.9222 76.1641 42.8028 77.0667 43.345C78.7935 44.3854 80.6111 44.4136 82.3629 43.4609C84.0051 42.5678 84.1743 40.2769 82.7327 39.1487L82.7296 39.1456Z" fill="#E8ECDF"/>
<path id="Vector_6" d="M38.2755 40.2706C37.9371 40.2518 37.7866 40.3552 37.702 40.7062C37.4764 41.6652 36.8308 42.2669 36.0066 42.3672C34.916 42.4988 33.979 42.0789 33.5246 41.1951C32.8602 39.9008 32.8759 38.5721 33.4838 37.2684C33.9069 36.3689 34.6841 35.9584 35.665 35.9897C36.6083 36.018 37.3009 36.4473 37.6581 37.3624C37.702 37.4721 37.8524 37.6068 37.9559 37.6131C38.5137 37.6382 39.0747 37.6256 39.7516 37.6256C39.6012 37.1587 39.5197 36.7858 39.3661 36.4442C38.1596 33.7334 34.0699 33.6581 32.2867 35.6294C31.2682 36.7575 30.9548 38.1114 31.0112 39.5874C31.1428 43.1381 34.8408 45.2942 37.8336 43.5487C39.0496 42.8373 39.6356 41.7279 39.7641 40.28C39.2251 40.28 38.7456 40.2988 38.2724 40.2738L38.2755 40.2706Z" fill="#E8ECDF"/>
<path id="Vector_7" d="M47.2196 34.4824C45.3299 34.4981 43.4402 34.4887 41.5505 34.4918C41.4094 34.4918 41.2684 34.5169 41.118 34.5326V43.8778C41.6883 43.8778 42.1992 43.859 42.71 43.8841C43.0704 43.9029 43.1644 43.7587 43.1581 43.4234C43.1425 42.4299 43.1644 41.4334 43.1487 40.4399C43.1425 40.0921 43.2678 39.973 43.6125 39.9824C44.3741 40.0012 45.1356 39.9886 45.9003 39.9886C46.2889 39.9886 46.6775 39.9886 47.1162 39.9886C47.1162 39.5656 47.0943 39.2177 47.1225 38.873C47.1507 38.4907 46.9877 38.3904 46.6305 38.3998C45.637 38.4186 44.6405 38.3998 43.647 38.4123C43.2992 38.4186 43.1237 38.3308 43.1487 37.9422C43.1769 37.5129 43.1769 37.0804 43.1487 36.6511C43.1268 36.2875 43.2835 36.1967 43.6157 36.2029C44.5778 36.2186 45.5367 36.2092 46.4988 36.2092C47.7399 36.2092 47.7242 36.2092 47.7336 34.9932C47.7336 34.6015 47.6082 34.4824 47.2196 34.4856V34.4824Z" fill="#E8ECDF"/>
<path id="Vector_8" d="M74.5126 34.4856C72.6072 34.4981 70.7018 34.4981 68.7995 34.4856C68.4203 34.4825 68.3232 34.6172 68.3295 34.9745C68.3451 36.3816 68.3357 37.7918 68.3357 39.1989H68.3295C68.3295 40.606 68.3357 42.0163 68.3232 43.4234C68.3232 43.7525 68.4015 43.9154 68.7713 43.8872C69.1161 43.859 69.4702 43.859 69.8149 43.8904C70.2599 43.9342 70.4291 43.7995 70.4103 43.3231C70.3727 42.3642 70.4103 41.4021 70.3915 40.44C70.3853 40.089 70.5044 39.9761 70.8491 39.9855C71.6608 40.0043 72.4724 39.9918 73.2841 39.9918C74.3622 39.9918 74.3465 39.9918 74.3559 38.9138C74.359 38.522 74.2305 38.3935 73.8419 38.3998C72.8485 38.4217 71.8551 38.3935 70.8616 38.4186C70.4824 38.428 70.3696 38.3026 70.3947 37.936C70.4229 37.5066 70.426 37.0742 70.3947 36.6448C70.3665 36.275 70.52 36.1967 70.8522 36.203C71.8112 36.2186 72.7733 36.2092 73.7354 36.2092C74.9983 36.2092 74.9889 36.2092 74.9764 34.9431C74.9764 34.5953 74.8636 34.4856 74.5189 34.4887L74.5126 34.4856Z" fill="#E8ECDF"/>
<path id="Vector_9" d="M66.2892 34.4824C64.3995 34.4981 62.5098 34.4887 60.6201 34.4918C60.4916 34.4918 60.3631 34.5138 60.2064 34.5263V43.8778C60.7517 43.8778 61.2625 43.859 61.7702 43.8841C62.1212 43.9029 62.2371 43.7744 62.2309 43.4296C62.2152 42.4675 62.2465 41.5054 62.2183 40.5465C62.2058 40.1203 62.3124 39.9542 62.7668 39.9761C63.544 40.0137 64.3243 39.9855 65.1046 39.9855C66.2078 39.9855 66.1921 39.9855 66.189 38.8761C66.189 38.5032 66.0667 38.3904 65.7001 38.3998C64.7223 38.4217 63.7445 38.3872 62.7668 38.4186C62.3155 38.4342 62.1839 38.2744 62.2183 37.8482C62.2497 37.4533 62.2465 37.0522 62.2183 36.6542C62.1933 36.2938 62.3406 36.1967 62.679 36.2029C63.6568 36.2186 64.6346 36.2092 65.6123 36.2092C66.8126 36.2092 66.7969 36.2092 66.8032 34.9964C66.8032 34.6015 66.6747 34.4856 66.2861 34.4887L66.2892 34.4824Z" fill="#E8ECDF"/>
<path id="Vector_10" d="M55.164 34.4855C54.2207 34.5043 53.2743 34.4918 52.331 34.4918C51.3877 34.4918 50.4413 34.5074 49.498 34.4824C49.1251 34.473 49.0185 34.5983 49.0216 34.965C49.0342 37.7667 49.0342 40.5683 49.0216 43.37C49.0216 43.7398 49.0969 43.9247 49.5137 43.8871C49.8741 43.8526 50.2439 43.8621 50.6074 43.8871C50.9521 43.9091 51.0743 43.7868 51.0681 43.4358C51.0493 42.5396 51.0618 41.6464 51.0618 40.7501C51.0618 40.2424 51.3083 39.9886 51.8014 39.9886C52.5128 39.9886 53.2273 39.9886 53.9387 39.9886C55.0512 39.9886 55.0356 39.9886 55.0356 38.8855C55.0356 38.5219 54.9353 38.3903 54.5561 38.3997C53.5282 38.4216 52.5002 38.3997 51.4723 38.4091C51.184 38.4091 51.043 38.3276 51.0524 38.0142C51.0681 37.5504 51.0712 37.0866 51.0524 36.6228C51.0399 36.2906 51.1777 36.1966 51.4943 36.2029C52.472 36.2185 53.4498 36.2091 54.4276 36.2091C55.6467 36.2091 55.631 36.2091 55.6404 34.9775C55.6404 34.6077 55.5307 34.4824 55.1609 34.4886L55.164 34.4855Z" fill="#E8ECDF"/>
</g>
</svg>
