<svg width="20" height="17" viewBox="0 0 20 17" fill="none" xmlns="http://www.w3.org/2000/svg">
<path id="Vector 103" d="M1.32806 7.65516C0.739043 7.65516 0.261548 8.13266 0.261548 8.72168C0.261548 9.3107 0.739043 9.7882 1.32806 9.7882V7.65516ZM19.1465 9.47582C19.563 9.05932 19.563 8.38404 19.1465 7.96754L12.3592 1.18027C11.9427 0.763769 11.2674 0.763769 10.8509 1.18027C10.4344 1.59677 10.4344 2.27205 10.8509 2.68855L16.884 8.72168L10.8509 14.7548C10.4344 15.1713 10.4344 15.8466 10.8509 16.2631C11.2674 16.6796 11.9427 16.6796 12.3592 16.2631L19.1465 9.47582ZM1.32806 9.7882H18.3923V7.65516H1.32806V9.7882Z" fill="white"/>
</svg>
