<svg width="182" height="182" viewBox="0 0 182 182" fill="none" xmlns="http://www.w3.org/2000/svg">
<g id="cognition">
<mask id="mask0_506_4277" style="mask-type:alpha" maskUnits="userSpaceOnUse" x="0" y="0" width="182" height="182">
<rect id="Bounding box" x="0.925476" y="0.759033" width="180.521" height="180.521" fill="#D9D9D9"/>
</mask>
<g mask="url(#mask0_506_4277)">
<path id="cognition_2" d="M92.965 111.024C99.9088 111.024 105.897 108.782 110.931 104.299C115.964 99.8151 118.481 94.3324 118.481 87.8512C118.481 82.3453 116.747 77.6467 113.281 73.7555C109.815 69.8642 105.497 67.9186 100.329 67.9186C95.9787 67.9186 92.2247 69.3415 89.0668 72.1872C85.909 75.0316 84.3301 78.4885 84.3301 82.5578C84.3301 84.3605 84.7036 86.1011 85.4508 87.7797C86.1979 89.457 87.256 91.0435 88.6249 92.5391L94.4261 87.3171C93.5673 86.6803 92.9236 85.9808 92.4949 85.2186C92.0661 84.4576 91.8518 83.6334 91.8518 82.7458C91.8518 80.9807 92.5845 79.3535 94.05 77.8642C95.5155 76.3736 97.6084 75.6284 100.329 75.6284C103.221 75.6284 105.723 76.7591 107.835 79.0207C109.947 81.2822 111.002 84.2884 111.002 88.0392C111.002 92.215 109.332 95.8436 105.991 98.925C102.65 102.006 98.3706 103.547 93.153 103.547C87.1645 103.547 82.0127 101.165 77.6978 96.4015C73.3828 91.6377 71.2253 85.6636 71.2253 78.4791C71.2253 74.8436 71.9386 71.3404 73.3653 67.9694C74.7931 64.5996 76.8566 61.5646 79.5556 58.8643L74.046 53.4976C70.7088 56.8059 68.1195 60.5956 66.2779 64.8667C64.4364 69.139 63.5156 73.6138 63.5156 78.2911C63.5156 87.2971 66.3506 95.0043 72.0208 101.413C77.6909 107.82 84.6723 111.024 92.965 111.024ZM53.5775 158.715V130.422C46.4319 123.903 40.8846 116.577 36.9357 108.442C32.9868 100.308 31.0123 91.9455 31.0123 83.3532C31.0123 66.67 36.8705 52.4947 48.5868 40.8273C60.3032 29.1586 74.5029 23.3242 91.1861 23.3242C104.735 23.3242 116.98 27.4493 127.92 35.6993C138.861 43.9494 145.955 54.6027 149.205 67.6591L156.958 98.5414C157.488 100.441 157.146 102.169 155.931 103.728C154.716 105.285 153.096 106.063 151.07 106.063H136.316V131.52C136.316 134.886 135.133 137.753 132.766 140.121C130.398 142.488 127.531 143.672 124.165 143.672H106.23V158.715H98.7078V136.15H124.165C125.515 136.15 126.625 135.716 127.493 134.849C128.361 133.98 128.795 132.871 128.795 131.52V98.5414H149.103L141.958 69.3947C139.074 57.8903 132.883 48.5897 123.385 41.4929C113.886 34.3949 103.153 30.8459 91.1861 30.8459C76.6441 30.8459 64.2333 35.9469 53.9536 46.1489C43.6739 56.3521 38.5341 68.7247 38.5341 83.2667C38.5341 90.7884 40.0697 97.9096 43.1411 104.63C46.2125 111.352 50.5688 117.346 56.2101 122.611L61.0992 127.124V158.715H53.5775Z" fill="#2E3224"/>
</g>
</g>
</svg>
