<svg width="182" height="181" viewBox="0 0 182 181" fill="none" xmlns="http://www.w3.org/2000/svg">
<g id="cognition">
<mask id="mask0_1391_1501" style="mask-type:alpha" maskUnits="userSpaceOnUse" x="0" y="0" width="182" height="181">
<rect id="Bounding box" x="0.956848" y="0.0881348" width="180.521" height="180.521" fill="#D9D9D9"/>
</mask>
<g mask="url(#mask0_1391_1501)">
<path id="cognition_2" d="M92.9963 110.353C99.9401 110.353 105.929 108.111 110.962 103.628C115.995 99.1441 118.512 93.6614 118.512 87.1802C118.512 81.6743 116.779 76.9758 113.313 73.0845C109.846 69.1933 105.529 67.2477 100.36 67.2477C96.0101 67.2477 92.2561 68.6705 89.0982 71.5163C85.9404 74.3607 84.3614 77.8176 84.3614 81.8868C84.3614 83.6895 84.735 85.4302 85.4822 87.1088C86.2293 88.7861 87.2874 90.3726 88.6563 91.8681L94.4575 86.6462C93.5987 86.0094 92.955 85.3098 92.5262 84.5476C92.0975 83.7867 91.8831 82.9624 91.8831 82.0749C91.8831 80.3098 92.6159 78.6826 94.0814 77.1933C95.5468 75.7027 97.6398 74.9574 100.36 74.9574C103.252 74.9574 105.754 76.0882 107.867 78.3497C109.978 80.6113 111.033 83.6174 111.033 87.3683C111.033 91.5441 109.363 95.1727 106.022 98.2541C102.681 101.335 98.402 102.876 93.1844 102.876C87.1959 102.876 82.0441 100.494 77.7291 95.7305C73.4142 90.9668 71.2567 84.9927 71.2567 77.8082C71.2567 74.1727 71.97 70.6694 73.3966 67.2984C74.8245 63.9287 76.888 60.8937 79.587 58.1934L74.0774 52.8267C70.7402 56.135 68.1509 59.9247 66.3093 64.1957C64.4677 68.4681 63.5469 72.9429 63.5469 77.6201C63.5469 86.6261 66.382 94.3334 72.0521 100.742C77.7222 107.149 84.7037 110.353 92.9963 110.353ZM53.6089 158.044V129.751C46.4632 123.232 40.916 115.906 36.9671 107.771C33.0182 99.6375 31.0437 91.2746 31.0437 82.6822C31.0437 65.9991 36.9019 51.8238 48.6182 40.1563C60.3345 28.4876 74.5343 22.6533 91.2175 22.6533C104.767 22.6533 117.011 26.7783 127.952 35.0284C138.892 43.2785 145.987 53.9317 149.236 66.9882L156.989 97.8705C157.52 99.7697 157.177 101.498 155.963 103.057C154.748 104.614 153.127 105.392 151.102 105.392H136.348V130.849C136.348 134.215 135.164 137.082 132.798 139.451C130.429 141.817 127.562 143.001 124.196 143.001H106.261V158.044H98.7392V135.479H124.196C125.547 135.479 126.656 135.045 127.525 134.178C128.392 133.309 128.826 132.2 128.826 130.849V97.8705H149.135L141.989 68.7238C139.106 57.2193 132.915 47.9187 123.416 40.822C113.917 33.724 103.185 30.175 91.2175 30.175C76.6755 30.175 64.2646 35.276 53.985 45.4779C43.7053 55.6812 38.5654 68.0538 38.5654 82.5957C38.5654 90.1175 40.1011 97.2387 43.1725 103.959C46.2439 110.681 50.6002 116.675 56.2415 121.94L61.1306 126.453V158.044H53.6089Z" fill="#D2D8C5"/>
</g>
</g>
</svg>
