<svg width="140" height="140" viewBox="0 0 140 140" fill="none" xmlns="http://www.w3.org/2000/svg">
<g id="sms">
<mask id="mask0_506_4982" style="mask-type:alpha" maskUnits="userSpaceOnUse" x="0" y="0" width="140" height="141">
<rect id="Bounding box" y="0.0100098" width="140" height="140" fill="#D9D9D9"/>
</mask>
<g mask="url(#mask0_506_4982)">
<path id="sms_2" d="M46.6667 62.8306C47.8703 62.8306 48.9193 62.3839 49.8138 61.4904C50.7072 60.596 51.154 59.547 51.154 58.3433C51.154 57.1397 50.7072 56.0907 49.8138 55.1963C48.9193 54.3028 47.8703 53.8561 46.6667 53.8561C45.4631 53.8561 44.414 54.3028 43.5196 55.1963C42.6261 56.0907 42.1794 57.1397 42.1794 58.3433C42.1794 59.547 42.6261 60.596 43.5196 61.4904C44.414 62.3839 45.4631 62.8306 46.6667 62.8306ZM70 62.8306C71.2036 62.8306 72.2526 62.3839 73.1471 61.4904C74.0406 60.596 74.4873 59.547 74.4873 58.3433C74.4873 57.1397 74.0406 56.0907 73.1471 55.1963C72.2526 54.3028 71.2036 53.8561 70 53.8561C68.7964 53.8561 67.7474 54.3028 66.8529 55.1963C65.9594 56.0907 65.5127 57.1397 65.5127 58.3433C65.5127 59.547 65.9594 60.596 66.8529 61.4904C67.7474 62.3839 68.7964 62.8306 70 62.8306ZM93.3333 62.8306C94.5369 62.8306 95.586 62.3839 96.4804 61.4904C97.3739 60.596 97.8206 59.547 97.8206 58.3433C97.8206 57.1397 97.3739 56.0907 96.4804 55.1963C95.586 54.3028 94.5369 53.8561 93.3333 53.8561C92.1297 53.8561 91.0807 54.3028 90.1862 55.1963C89.2928 56.0907 88.846 57.1397 88.846 58.3433C88.846 59.547 89.2928 60.596 90.1862 61.4904C91.0807 62.3839 92.1297 62.8306 93.3333 62.8306ZM17.5 117.126V26.9338C17.5 24.2485 18.3993 22.0065 20.1979 20.2079C21.9965 18.4093 24.2385 17.51 26.9237 17.51H113.076C115.762 17.51 118.003 18.4093 119.802 20.2079C121.601 22.0065 122.5 24.2485 122.5 26.9338V89.7529C122.5 92.4382 121.601 94.6802 119.802 96.4788C118.003 98.2774 115.762 99.1767 113.076 99.1767H35.4492L17.5 117.126ZM32.9583 93.3434H113.076C113.975 93.3434 114.798 92.9695 115.545 92.2219C116.293 91.4743 116.667 90.6513 116.667 89.7529V26.9338C116.667 26.0354 116.293 25.2124 115.545 24.4648C114.798 23.7172 113.975 23.3433 113.076 23.3433H26.9237C26.0254 23.3433 25.2024 23.7172 24.4548 24.4648C23.7072 25.2124 23.3333 26.0354 23.3333 26.9338V102.935L32.9583 93.3434Z" fill="#888F77"/>
</g>
</g>
</svg>
