<svg width="207" height="208" viewBox="0 0 207 208" fill="none" xmlns="http://www.w3.org/2000/svg">
<g id="database">
<mask id="mask0_506_4283" style="mask-type:alpha" maskUnits="userSpaceOnUse" x="0" y="0" width="207" height="208">
<rect id="Bounding box" x="0.300873" y="0.670898" width="206.697" height="206.697" fill="#D9D9D9"/>
</mask>
<g mask="url(#mask0_506_4283)">
<path id="database_2" d="M103.65 172.919C83.521 172.919 67.0053 170.354 54.1025 165.226C41.2011 160.097 34.7504 153.497 34.7504 145.426V60.9577C34.7504 53.8022 41.4667 47.7075 54.8991 42.6736C68.3301 37.6382 84.5803 35.1205 103.65 35.1205C122.719 35.1205 138.969 37.6382 152.4 42.6736C165.832 47.7075 172.549 53.8022 172.549 60.9577V145.426C172.549 153.497 166.098 160.097 153.197 165.226C140.294 170.354 123.778 172.919 103.65 172.919ZM103.65 77.2394C115.983 77.2394 128.415 75.5191 140.948 72.0784C153.48 68.6392 160.977 64.8935 163.439 60.8414C161.088 56.5682 153.709 52.6488 141.303 49.0833C128.898 45.5164 116.347 43.7329 103.65 43.7329C91.1401 43.7329 78.6054 45.4525 66.0457 48.8917C53.486 52.3309 45.9803 56.0931 43.5286 60.1782C45.8697 64.4844 53.2649 68.4045 65.7141 71.9385C78.1633 75.4724 90.8085 77.2394 103.65 77.2394ZM103.65 120.581C109.568 120.581 115.381 120.294 121.09 119.72C126.798 119.146 132.256 118.293 137.462 117.162C142.668 116.03 147.504 114.619 151.969 112.929C156.436 111.241 160.425 109.337 163.936 107.217V71.9385C160.425 74.0585 156.436 75.9633 151.969 77.6528C147.504 79.3422 142.668 80.7525 137.462 81.8836C132.256 83.0161 126.798 83.8695 121.09 84.4437C115.381 85.0178 109.568 85.3049 103.65 85.3049C97.5104 85.3049 91.5427 84.9898 85.7466 84.3597C79.949 83.731 74.4751 82.8504 69.3249 81.7178C64.1732 80.5867 59.4005 79.2037 55.0068 77.5688C50.6116 75.9353 46.7303 74.0585 43.3628 71.9385V107.217C46.7303 109.337 50.6116 111.214 55.0068 112.847C59.4005 114.481 64.1732 115.864 69.3249 116.996C74.4751 118.127 79.949 119.008 85.7466 119.638C91.5427 120.267 97.5104 120.581 103.65 120.581ZM103.65 164.306C111.025 164.306 118.039 163.887 124.692 163.047C131.345 162.209 137.321 161.019 142.621 159.479C147.92 157.939 152.425 156.1 156.136 153.963C159.846 151.827 162.446 149.517 163.936 147.032V115.829C160.425 117.949 156.436 119.854 151.969 121.542C147.504 123.231 142.668 124.642 137.462 125.775C132.256 126.906 126.798 127.758 121.09 128.332C115.381 128.907 109.568 129.194 103.65 129.194C97.5104 129.194 91.5427 128.879 85.7466 128.251C79.949 127.62 74.4751 126.74 69.3249 125.609C64.1732 124.476 59.4005 123.093 55.0068 121.46C50.6116 119.826 46.7303 117.949 43.3628 115.829V147.082C44.8528 149.677 47.4451 152.006 51.1398 154.071C54.8331 156.136 59.3295 157.939 64.629 159.479C69.9285 161.019 75.9126 162.209 82.5815 163.047C89.2518 163.887 96.2745 164.306 103.65 164.306Z" fill="#2E3224"/>
</g>
</g>
</svg>
