<svg width="208" height="207" viewBox="0 0 208 207" fill="none" xmlns="http://www.w3.org/2000/svg">
<g id="database">
<mask id="mask0_1391_1504" style="mask-type:alpha" maskUnits="userSpaceOnUse" x="0" y="0" width="208" height="207">
<rect id="Bounding box" x="0.332275" width="206.697" height="206.697" fill="#D9D9D9"/>
</mask>
<g mask="url(#mask0_1391_1504)">
<path id="database_2" d="M103.681 172.248C83.5524 172.248 67.0367 169.683 54.1339 164.555C41.2325 159.426 34.7818 152.826 34.7818 144.755V60.2867C34.7818 53.1313 41.4981 47.0366 54.9305 42.0026C68.3615 36.9672 84.6117 34.4496 103.681 34.4496C122.75 34.4496 139 36.9672 152.431 42.0026C165.864 47.0366 172.58 53.1313 172.58 60.2867V144.755C172.58 152.826 166.129 159.426 153.228 164.555C140.325 169.683 123.81 172.248 103.681 172.248ZM103.681 76.5685C116.014 76.5685 128.447 74.8481 140.979 71.4075C153.512 67.9683 161.009 64.2226 163.47 60.1705C161.119 55.8973 153.74 51.9779 141.334 48.4124C128.93 44.8454 116.378 43.0619 103.681 43.0619C91.1715 43.0619 78.6368 44.7816 66.0771 48.2208C53.5174 51.66 46.0117 55.4222 43.56 59.5073C45.9011 63.8135 53.2963 67.7336 65.7455 71.2675C78.1947 74.8015 90.8399 76.5685 103.681 76.5685ZM103.681 119.91C109.599 119.91 115.412 119.623 121.121 119.049C126.83 118.475 132.287 117.622 137.493 116.491C142.699 115.359 147.535 113.948 152.001 112.258C156.468 110.57 160.457 108.666 163.968 106.546V71.2675C160.457 73.3876 156.468 75.2924 152.001 76.9818C147.535 78.6713 142.699 80.0816 137.493 81.2127C132.287 82.3452 126.83 83.1986 121.121 83.7727C115.412 84.3469 109.599 84.634 103.681 84.634C97.5418 84.634 91.5741 84.3189 85.778 83.6888C79.9804 83.06 74.5065 82.1794 69.3563 81.0469C64.2046 79.9158 59.4319 78.5328 55.0382 76.8979C50.643 75.2644 46.7617 73.3876 43.3942 71.2675V106.546C46.7617 108.666 50.643 110.543 55.0382 112.176C59.4319 113.81 64.2046 115.193 69.3563 116.325C74.5065 117.457 79.9804 118.337 85.778 118.967C91.5741 119.596 97.5418 119.91 103.681 119.91ZM103.681 163.635C111.056 163.635 118.07 163.216 124.723 162.376C131.376 161.538 137.353 160.348 142.652 158.808C147.952 157.268 152.457 155.429 156.167 153.292C159.878 151.156 162.478 148.846 163.968 146.361V115.158C160.457 117.279 156.468 119.183 152.001 120.871C147.535 122.56 142.699 123.971 137.493 125.104C132.287 126.235 126.83 127.087 121.121 127.661C115.412 128.236 109.599 128.523 103.681 128.523C97.5418 128.523 91.5741 128.208 85.778 127.58C79.9804 126.95 74.5065 126.069 69.3563 124.938C64.2046 123.805 59.4319 122.422 55.0382 120.789C50.643 119.155 46.7617 117.279 43.3942 115.158V146.411C44.8842 149.006 47.4765 151.336 51.1712 153.4C54.8645 155.465 59.3609 157.268 64.6604 158.808C69.9599 160.348 75.944 161.538 82.6129 162.376C89.2832 163.216 96.3059 163.635 103.681 163.635Z" fill="#D2D8C5"/>
</g>
</g>
</svg>
