<svg width="121" height="22" viewBox="0 0 121 22" fill="none" xmlns="http://www.w3.org/2000/svg">
<path id="Union" fill-rule="evenodd" clip-rule="evenodd" d="M18.9204 8.97831C20.111 9.30018 21.2573 9.73701 22.2533 10.4941V10.4933C23.3479 11.3259 24.0064 12.4286 24.2683 13.7703C24.4498 14.7023 24.4087 15.6244 24.0901 16.5252C23.7404 17.5154 23.1065 18.2914 22.2665 18.9089C21.2294 19.6708 20.0716 20.1767 18.8408 20.5338C17.8579 20.8188 16.8652 21.0618 15.8478 21.1784C15.2533 21.2466 14.6547 21.2967 14.057 21.3196C13.4058 21.3443 12.753 21.3394 12.1019 21.327C11.1502 21.309 10.215 21.148 9.28465 20.9592C8.26236 20.7523 7.245 20.5232 6.26048 20.1767C5.60152 19.9453 4.95108 19.6907 4.30089 19.4362L4.30085 19.4362L4.30064 19.4361L4.24383 19.4138C3.85216 19.2611 3.59351 19.4253 3.5894 19.849C3.58777 20.0458 3.5883 20.2422 3.58885 20.442C3.58912 20.5433 3.5894 20.6454 3.5894 20.749H0.661309V13.3598H3.29134C3.30612 13.8459 3.42518 14.3188 3.60911 14.7787C3.87597 15.447 4.37603 15.9266 4.90729 16.3765C5.66271 17.017 6.54869 17.4177 7.48312 17.715C8.87573 18.1584 10.3036 18.4384 11.7578 18.5747C12.9862 18.6896 14.2105 18.6354 15.429 18.4334C16.3068 18.2881 17.1542 18.0467 17.9679 17.6911C18.4992 17.4596 18.9467 17.1221 19.1594 16.5638C19.5059 15.6548 19.2965 14.5767 18.0492 14.1464C17.3693 13.9116 16.6689 13.7761 15.9587 13.6866C14.9175 13.5552 13.8755 13.432 12.8327 13.313C12.5182 13.2769 12.2033 13.2452 11.8883 13.2134C11.4649 13.1707 11.0414 13.1281 10.619 13.0748C9.65168 12.9525 8.68523 12.8203 7.72207 12.6717C6.98389 12.5584 6.24817 12.4294 5.51738 12.2784C4.55339 12.0788 3.62635 11.7643 2.7765 11.2577C1.5982 10.5565 0.711397 9.60728 0.312336 8.26804C0.244266 8.03873 0.202735 7.80145 0.161209 7.56419C0.141622 7.45229 0.122037 7.34039 0.0996676 7.22933L0.0725708 7.09221V6.32857C0.0753893 6.31448 0.0786914 6.30058 0.0819792 6.28674L0.0819797 6.28674L0.0819804 6.28674C0.0882707 6.26026 0.094508 6.23401 0.0972042 6.20705C0.170283 5.40975 0.437966 4.68388 0.898611 4.02863C1.37896 3.34464 2.00465 2.81913 2.71163 2.38558C3.73556 1.75825 4.84981 1.34523 6.00101 1.025C7.20969 0.68834 8.44054 0.487167 9.69192 0.403414C9.99162 0.383707 10.2922 0.363179 10.5919 0.342651H11.4524C11.4909 0.345796 11.5294 0.349443 11.5677 0.353085C11.6496 0.360852 11.7312 0.368595 11.8129 0.37139C12.9501 0.409162 14.0734 0.559425 15.1852 0.795085C16.4357 1.06113 17.6575 1.42406 18.8326 1.93151C19.0638 2.03124 19.2919 2.13871 19.5199 2.24613L19.5199 2.24615L19.5203 2.24636L19.5204 2.24639C19.5982 2.28304 19.676 2.31969 19.7538 2.35602C20.1135 2.52435 20.3992 2.34945 20.4033 1.95696C20.4044 1.81025 20.4041 1.66353 20.4037 1.51465V1.51397V1.5133C20.4035 1.43848 20.4033 1.36312 20.4033 1.28693C20.4215 1.28485 20.4377 1.28245 20.4526 1.28023C20.479 1.27632 20.5015 1.27297 20.5241 1.27297C20.7676 1.27272 21.0112 1.27278 21.2547 1.27284C21.8027 1.27297 22.3507 1.2731 22.8987 1.26969C23.0186 1.26887 23.0514 1.30418 23.0514 1.42242C23.049 3.4851 23.049 5.54697 23.049 7.60965V7.61444C23.049 7.63414 23.0477 7.65385 23.0461 7.6777C23.0452 7.69161 23.0441 7.70692 23.0432 7.72446C23.0296 7.72611 23.0161 7.72803 23.0028 7.72993C22.9697 7.73465 22.9375 7.73924 22.9053 7.73924C22.5573 7.74007 22.2096 7.74007 21.8618 7.74007H21.8612C21.5133 7.74007 21.1653 7.74007 20.8172 7.74089C20.7318 7.74089 20.6751 7.73596 20.6472 7.62757C20.2892 6.21279 19.4197 5.21925 18.1215 4.57714C16.9875 4.01631 15.787 3.66734 14.5488 3.43414C13.5676 3.24857 12.5757 3.15907 11.578 3.15907C10.2618 3.15989 8.95456 3.26746 7.67526 3.60165C7.01262 3.77491 6.36394 3.9925 5.81298 4.42112C5.47961 4.6806 5.21356 4.9959 5.12078 5.4196C4.9582 6.15942 5.27843 6.77033 6.02072 7.02077C6.51339 7.18664 7.03233 7.29584 7.54881 7.36974C8.38779 7.48979 9.22998 7.58519 10.0724 7.68061L10.0728 7.68066C10.2732 7.70336 10.4736 7.72606 10.674 7.7491C11.059 7.79325 11.4444 7.83384 11.8299 7.87443C12.4409 7.93877 13.052 8.00311 13.6612 8.08165C14.7171 8.21795 15.7714 8.37232 16.8216 8.5464C17.5262 8.663 18.2323 8.79191 18.9204 8.97831ZM48.3606 1.03896C50.3781 1.60717 52.1952 2.54899 53.7701 3.9416H53.7685C55.2473 5.24881 56.208 6.86394 56.6432 8.78535C57.0045 10.38 56.961 11.9672 56.5011 13.5404C56.0627 15.0406 55.3228 16.3659 54.2324 17.4916C53.2052 18.5525 51.9867 19.3375 50.6532 19.9509C49.1226 20.6545 47.5132 21.0897 45.8472 21.3303C44.6106 21.5085 43.3674 21.5808 42.1193 21.5372C40.4549 21.4798 38.8185 21.24 37.2189 20.7638C35.6695 20.3023 34.212 19.6495 32.8843 18.7225C31.6608 17.8685 30.6295 16.8331 29.9003 15.5201C29.3691 14.5635 29.0168 13.5453 28.8493 12.4623C28.7286 11.6839 28.6925 10.903 28.7615 10.1188C28.883 8.73937 29.2853 7.44693 29.9792 6.24646C30.967 4.53691 32.4097 3.31837 34.1381 2.40858C35.0446 1.93151 35.9897 1.54641 36.9677 1.2426C37.9448 0.939606 38.9367 0.694093 39.9524 0.566821C40.4116 0.509495 40.873 0.467259 41.3344 0.425027L41.3344 0.425023C41.5537 0.40495 41.773 0.384877 41.9921 0.363184C42.005 0.362102 42.0177 0.356738 42.0304 0.351326C42.037 0.348528 42.0436 0.345717 42.0504 0.343478H43.7394L43.9247 0.357126C44.1101 0.370829 44.2955 0.384533 44.4809 0.39685C45.7955 0.483888 47.0912 0.681777 48.3606 1.03896ZM47.0107 17.7388C48.2194 17.0975 49.1793 16.1877 49.8821 15.0176C50.7008 13.6537 50.9759 12.1577 50.9192 10.5852C50.8847 9.61796 50.6992 8.68353 50.337 7.78687C49.8033 6.46652 48.9584 5.39086 47.7776 4.58371C46.4343 3.6657 44.9341 3.20752 43.3223 3.12048C41.7047 3.03345 40.156 3.32823 38.7043 4.06641C37.2165 4.82347 36.1055 5.95169 35.4223 7.47649C34.6258 9.25338 34.4854 11.1001 34.9477 12.9845C35.4273 14.9388 36.5062 16.4767 38.2412 17.5245C39.6511 18.3751 41.1972 18.7405 42.7811 18.7479C44.3068 18.7381 45.706 18.431 47.0107 17.7388ZM78.0365 3.87918H78.2336C78.4658 3.87989 78.698 3.87985 78.9301 3.8798C79.4999 3.87969 80.0694 3.87959 80.6394 3.89067C81.3653 3.90463 81.6814 4.19777 81.7332 4.9146C81.7654 5.36544 81.7731 5.81807 81.7808 6.26995L81.7849 6.50181C81.8 7.32595 81.8127 8.1504 81.8254 8.97478C81.8333 9.49085 81.8412 10.0069 81.8498 10.5228C81.8536 10.7542 81.8583 10.9857 81.863 11.2173L81.8632 11.2235C81.8695 11.5355 81.8759 11.8475 81.8801 12.1593C81.8835 12.3888 81.8827 12.6187 81.8818 12.8555V12.8572C81.8814 12.9664 81.881 13.077 81.881 13.1898C81.861 13.1726 81.8431 13.1574 81.8265 13.1433C81.798 13.1191 81.7735 13.0983 81.7496 13.0765C80.7749 12.1954 79.8003 11.3144 78.8264 10.4325C76.9962 8.77548 75.1667 7.11765 73.3373 5.45982L72.2654 4.48821L72.2619 4.48512C71.2033 3.52538 70.1445 2.56553 69.0839 1.60798C69.0314 1.56117 68.946 1.52669 68.8762 1.52669C66.7769 1.52285 64.6777 1.5225 62.5785 1.52214L60.7792 1.52176H59.7799V3.88328H59.9934C60.2131 3.88595 60.4328 3.88733 60.6526 3.8887C61.1775 3.892 61.7024 3.89529 62.2268 3.91613C62.5881 3.93009 62.9231 4.06393 63.1522 4.3702C63.3763 4.67073 63.4059 5.02381 63.4059 5.38346C63.4059 9.16633 63.4059 12.9492 63.4043 16.7321C63.4043 16.8955 63.3919 17.0605 63.3714 17.2231C63.3024 17.765 63.0126 18.0179 62.4666 18.0179H60.1395H59.9728V20.3663H70.7869V18.0179H70.2326C70.0078 18.0175 69.7829 18.0177 69.558 18.0179C69.0181 18.0184 68.4781 18.019 67.9385 18.0097C67.3949 17.9999 67.1223 17.733 67.0738 17.1944C67.0549 16.9833 67.041 16.7715 67.041 16.5596C67.0377 14.1122 67.0365 11.6654 67.0353 9.21816L67.0344 7.3919V7.07824L67.1088 7.14176C67.1551 7.1812 67.1904 7.21126 67.2249 7.24246L69.6932 9.4529L72.1614 11.6633C73.8152 13.1446 75.4681 14.6259 77.121 16.1072L77.5253 16.4696L77.5255 16.4698C78.941 17.7383 80.3567 19.0072 81.7759 20.2719C81.8424 20.331 81.9508 20.3729 82.0394 20.3737C82.9408 20.3789 83.8427 20.3785 84.7443 20.378L85.4816 20.3778H85.6647V20.1988L85.6485 19.0723C85.6324 17.9493 85.6162 16.8263 85.6014 15.7032C85.5866 14.5939 85.5725 13.4849 85.5584 12.3759L85.5374 10.7305C85.533 10.39 85.5284 10.0495 85.5238 9.70901L85.5238 9.70812C85.5111 8.76712 85.4984 7.82601 85.4906 6.88445C85.4848 6.17008 85.4816 5.45571 85.5004 4.74217C85.5136 4.23554 85.7525 3.97443 86.2058 3.91366C86.3421 3.8956 86.48 3.88328 86.618 3.88246C87.1205 3.87972 87.6233 3.87918 88.1261 3.87863C88.3775 3.87836 88.6289 3.87808 88.8801 3.87753H89.0476V1.53572H78.0365V3.87918ZM109.447 3.8792V1.53656H120.032V3.8792H119.86C119.645 3.8792 119.431 3.88146 119.216 3.88373C118.735 3.88881 118.253 3.89389 117.773 3.87345C116.951 3.83896 116.332 4.16412 115.81 4.7816C115.192 5.51166 114.56 6.23006 113.928 6.94851C113.626 7.29185 113.324 7.6352 113.023 7.97984C112.222 8.89806 111.421 9.81712 110.621 10.7361C110.305 11.0992 109.989 11.4622 109.672 11.8251C109.578 11.933 109.483 12.0402 109.388 12.1475C109.171 12.393 108.953 12.6388 108.745 12.8926C108.666 12.9903 108.608 13.1381 108.607 13.2629C108.598 14.5242 108.6 15.7862 108.602 17.0483V17.0507L108.603 17.0738C108.603 17.293 108.604 17.5146 108.757 17.7002C108.887 17.8578 109.044 17.9785 109.252 17.9835C109.807 17.997 110.361 18.0027 110.915 18.0085C111.034 18.0097 111.153 18.0109 111.271 18.0122C111.478 18.0138 111.685 18.0133 111.896 18.0128C112.003 18.0125 112.11 18.0122 112.219 18.0122V20.3557H99.365V18.013C99.4476 18.013 99.5307 18.0132 99.614 18.0134C99.7813 18.0138 99.9496 18.0141 100.118 18.013C100.3 18.0121 100.483 18.0118 100.665 18.0116C101.14 18.0108 101.614 18.0101 102.088 17.9982C102.539 17.9868 102.801 17.733 102.847 17.2872C102.865 17.1204 102.864 16.9518 102.864 16.7835C102.864 16.7554 102.864 16.7273 102.864 16.6992C102.864 16.3519 102.864 16.0046 102.864 15.6573C102.863 14.9276 102.862 14.1981 102.869 13.4682C102.872 13.2497 102.805 13.0831 102.667 12.9246C102.328 12.5376 101.99 12.1491 101.651 11.7606C101.287 11.342 100.923 10.9233 100.557 10.5064C100.338 10.2562 100.118 10.006 99.8988 9.75585C98.5955 8.27001 97.2923 6.78435 95.9795 5.30711C95.6642 4.95239 95.3185 4.6182 94.9506 4.31931C94.5483 3.99251 94.0556 3.87838 93.5375 3.8792C93.0876 3.87974 92.638 3.87956 92.1883 3.87938C91.9634 3.87929 91.7385 3.8792 91.5135 3.8792H91.3345V1.53492H104.255V3.88084H103.172H102.742C102.563 3.88166 102.401 3.92354 102.314 4.09761C102.223 4.27662 102.281 4.44084 102.396 4.58453C102.546 4.77138 102.7 4.95496 102.854 5.13843C102.918 5.21458 102.982 5.29071 103.045 5.36705C103.665 6.11118 104.286 6.85552 104.906 7.59985C105.526 8.34461 106.147 9.08936 106.767 9.83391C106.785 9.85478 106.803 9.87478 106.825 9.8985C106.84 9.91492 106.857 9.93312 106.876 9.95462C106.911 9.91548 106.945 9.87755 106.979 9.84035C107.064 9.74719 107.144 9.65859 107.221 9.56705C108.383 8.19826 109.544 6.82946 110.705 5.45984C110.781 5.37032 110.857 5.28052 110.932 5.19075C111.082 5.01293 111.232 4.83523 111.384 4.66008C111.525 4.49914 111.567 4.32835 111.473 4.13292C111.381 3.94078 111.209 3.88248 111.013 3.88084C110.677 3.87785 110.341 3.87834 110.005 3.87883C109.879 3.87901 109.752 3.8792 109.626 3.8792H109.447Z" fill="#E8ECDF"/>
</svg>
