<svg width="1294" height="522" viewBox="0 0 1294 522" fill="none" xmlns="http://www.w3.org/2000/svg">
<circle cx="973.5" cy="261.5" r="221.5" fill="#616751"/>
<circle cx="973.5" cy="261.5" r="200.5" fill="#737A62"/>
<circle cx="973.5" cy="261.5" r="174.5" fill="#888F77"/>
<circle cx="973.5" cy="261.5" r="147.5" fill="#A1A891"/>
<circle cx="973.5" cy="261.5" r="127.5" fill="#B9C0A9"/>
<circle cx="973.5" cy="261.5" r="105.5" fill="#D2D8C5"/>
<circle cx="973.5" cy="261.5" r="80.5" fill="#E8ECDF"/>
<circle cx="318.5" cy="261.5" r="221.5" fill="#616751"/>
<circle cx="318.5" cy="261.5" r="200.5" fill="#737A62"/>
<circle cx="318.5" cy="261.5" r="174.5" fill="#888F77"/>
<circle cx="318.5" cy="261.5" r="147.5" fill="#A1A891"/>
<circle cx="318.5" cy="261.5" r="127.5" fill="#B9C0A9"/>
<circle cx="318.5" cy="261.5" r="105.5" fill="#D2D8C5"/>
<circle cx="318.5" cy="261.5" r="80.5" fill="#E8ECDF"/>
<path d="M1236.36 230.276C1245.08 230.276 1253.92 230.322 1262.74 230.276C1273.17 230.214 1281.57 234.42 1287.68 242.692C1294.73 252.254 1295.97 262.767 1290.94 273.648C1286.04 284.253 1277.6 290.638 1265.91 291.405C1256.16 292.05 1246.33 291.543 1236.69 291.543C1234.16 303.714 1232.23 315.424 1229.24 326.858C1215.3 380.283 1186.97 424.76 1144.97 460.458C1114.84 486.073 1080.45 503.708 1042.15 513.607C1010.82 521.71 978.989 524.135 946.918 520.053C871.748 510.491 811.256 475.131 766.163 414.262C738.954 377.52 722.956 336.02 718.14 290.408C717.159 281.122 716.499 271.76 716.407 262.429C716.177 241.157 707.404 223.922 691.238 210.877C657.802 183.896 611.144 191.523 587.723 227.559C581.082 237.765 577.508 249.138 577.493 261.646C577.432 310.344 564.947 355.788 539.195 397.042C509.777 444.19 469.791 479.75 418.241 501.329C372.167 520.621 324.298 526.391 274.895 518.349C221.274 509.601 174.877 486.227 135.797 448.61C104.063 418.068 81.2095 381.741 68.3565 339.52C63.6632 324.126 60.6109 308.241 56.5924 291.666C49.5064 291.666 41.316 291.973 33.1564 291.543C28.2023 291.282 22.9721 290.668 18.4321 288.827C5.11896 283.409 -2.21248 268.967 0.594329 255.093C3.44715 240.958 15.3953 230.69 29.7514 230.353C38.9234 230.138 48.0953 230.307 57.5894 230.307C68.0498 155.687 102.544 95.2789 162.975 50.4947C207.976 17.1292 258.989 0.799392 315.018 0.154796C424.116 -1.11905 530.038 68.4974 566.68 185.814C589.242 164.205 615.745 152.433 647.034 152.448C678.185 152.448 704.551 164.159 726.99 185.615C769.706 53.9172 890.537 -10.0206 1003.5 1.27517C1113.92 12.3254 1219.18 98.0414 1236.36 230.276ZM1193.49 261.539C1193.24 140.738 1096.17 44.8775 977.502 44.632C859.017 44.3864 761.147 139.956 760.856 260.065C760.564 380.099 856.671 476.788 976.796 477.218C1095.8 477.632 1193.07 380.805 1193.47 261.539H1193.49ZM315.831 44.6473C195.706 45.4147 99.6302 142.81 100.412 263.043C101.195 381.695 199.264 478.093 318.07 477.279C436.953 476.466 534.885 379.715 532.998 257.257C531.188 139.296 434.484 44.0795 315.831 44.6627V44.6473Z" fill="#464B37"/>
</svg>
