<svg width="77" height="53" viewBox="0 0 77 53" fill="none" xmlns="http://www.w3.org/2000/svg">
<g id="Group">
<path id="Vector" d="M10.7002 13.1143C10.9669 12.6962 11.2208 12.27 11.5003 11.8624C12.7918 9.98283 14.421 8.43863 16.2214 7.05398C17.6258 5.97328 19.1374 5.07075 20.7247 4.30098C21.7542 3.80139 22.8081 3.34023 23.883 2.9536C25.1954 2.48195 26.5312 2.06155 27.8785 1.7017C29.0047 1.40125 30.1587 1.20328 31.307 0.990163C32.1198 0.838771 32.9408 0.722316 33.7619 0.619836C34.3569 0.545304 34.9578 0.50571 35.5564 0.475431C36.6395 0.417204 37.7225 0.340343 38.8055 0.342673C39.9829 0.345002 41.1637 0.395077 42.3388 0.483583C43.3193 0.558115 44.2987 0.689709 45.2699 0.845759C46.4939 1.0414 47.7202 1.23938 48.9255 1.52353C50.1448 1.81117 51.3477 2.17568 52.5402 2.56231C53.4626 2.8616 54.3663 3.22144 55.2606 3.59759C56.9178 4.29399 58.5062 5.12548 60.0015 6.127C61.5574 7.16927 63.0037 8.34663 64.2894 9.71149C65.242 10.7223 66.0816 11.8193 66.7617 13.0351C66.7722 13.0537 66.7734 13.077 66.7874 13.1248C66.3099 13.027 65.8511 12.9245 65.3887 12.8383C63.9307 12.567 62.4727 12.2921 61.0112 12.0371C59.7744 11.8205 58.5353 11.6132 57.2928 11.4304C56.0921 11.2534 54.8868 11.1031 53.6803 10.9587C52.7301 10.8446 51.7775 10.7514 50.826 10.6571C49.9945 10.5744 49.1619 10.4964 48.3292 10.4254C47.8413 10.3834 47.3522 10.3566 46.8642 10.3299C45.6088 10.2623 44.3546 10.1994 43.0992 10.1354C42.4296 10.1016 41.7763 10.1843 41.1498 10.4265C40.628 10.6292 40.4627 11.0728 40.4312 11.5818C40.4126 11.8741 40.4324 12.1675 40.4312 12.461C40.3998 17.3311 40.3649 22.2001 40.3392 27.0703C40.3346 28.0602 40.3625 29.05 40.3835 30.0399C40.4254 31.9626 40.4708 33.8852 40.5209 35.8091C40.5454 36.7652 40.578 37.7213 40.6187 38.6762C40.6269 38.8788 40.5675 38.9685 40.3614 38.9673C39.396 38.9604 38.4305 38.958 37.4651 38.9545C37.2904 38.9545 37.2602 38.8497 37.2695 38.7018C37.3021 38.1987 37.3394 37.6945 37.3557 37.1902C37.3824 36.3751 37.3918 35.5599 37.4104 34.7447C37.4244 34.1438 37.4465 33.5429 37.457 32.942C37.4931 30.7584 37.5385 28.5737 37.556 26.3902C37.5758 23.8643 37.5804 21.3372 37.5699 18.8101C37.5629 16.87 37.5222 14.9298 37.5001 12.9897C37.4954 12.5809 37.4977 12.1722 37.5047 11.7634C37.5187 10.9541 37.146 10.4754 36.3588 10.2833C35.5553 10.0865 34.7401 10.1296 33.9261 10.1633C33.1202 10.1971 32.3155 10.2332 31.5108 10.2891C30.4965 10.3601 29.4821 10.4521 28.469 10.5372C27.7609 10.5965 27.0517 10.6536 26.3448 10.7246C25.4714 10.8132 24.5992 10.9086 23.7281 11.0135C22.8127 11.1241 21.8974 11.2429 20.9844 11.3745C20.0551 11.5084 19.1269 11.6528 18.2 11.8088C16.8072 12.0441 15.4155 12.2886 14.0262 12.5413C12.9339 12.7405 11.8438 12.9571 10.7538 13.1667C10.7352 13.1504 10.7177 13.1341 10.6991 13.1166L10.7002 13.1143Z" fill="#E8ECDF"/>
<path id="Vector_2" d="M29.2166 37.9507C28.6972 37.8238 28.2 37.705 27.705 37.5804C25.8406 37.1134 24.0227 36.4997 22.2561 35.7439C20.8307 35.1337 19.453 34.4268 18.1313 33.6128C16.3239 32.4995 14.6621 31.2045 13.2052 29.6568C12.1711 28.5575 11.2697 27.3615 10.5535 26.028C9.98174 24.9648 9.54504 23.8515 9.25856 22.6788C8.94413 21.3861 8.82185 20.0725 8.97674 18.7508C9.07223 17.9298 9.25506 17.1192 9.39365 16.3029C9.4181 16.1596 9.48914 16.1235 9.63005 16.1002C10.4546 15.964 11.2767 15.8056 12.1001 15.6635C13.4754 15.4271 14.8519 15.1896 16.2296 14.9671C17.2905 14.7971 18.3525 14.6283 19.4193 14.499C20.5629 14.3604 21.7099 14.2381 22.8582 14.1636C24.8309 14.0367 26.806 13.954 28.7811 13.8538C29.4041 13.8224 30.0283 13.7677 30.6514 13.7688C31.3408 13.7688 32.022 13.8527 32.6719 14.1193C33.3287 14.3884 33.6862 14.8984 33.8702 15.5541C34.0728 16.2749 34.0099 16.9946 33.8667 17.7178C33.628 18.9161 33.4055 20.1179 33.1656 21.3163C32.9257 22.5158 32.687 23.7164 32.425 24.9112C32.1303 26.2598 31.8171 27.6048 31.4992 28.9476C31.1661 30.352 30.8272 31.7553 30.4755 33.1563C30.1902 34.2894 29.8828 35.4155 29.5846 36.5451C29.4647 37.0016 29.3447 37.4581 29.2143 37.9519L29.2166 37.9507Z" fill="#E8ECDF"/>
<path id="Vector_3" d="M47.2113 13.7362C49.5101 13.848 51.5422 13.94 53.5732 14.0495C54.4944 14.0995 55.4167 14.1648 56.3344 14.2568C57.3079 14.3534 58.2768 14.485 59.2481 14.6108C60.2275 14.7377 61.208 14.8612 62.1827 15.0137C63.296 15.1884 64.4059 15.3899 65.5145 15.5902C66.3064 15.7334 67.0948 15.9023 67.8867 16.0467C68.0299 16.0723 68.0824 16.1294 68.1185 16.2621C68.3677 17.1693 68.5482 18.0858 68.6204 19.0291C68.6949 20.0073 68.5936 20.9634 68.4375 21.9253C68.2221 23.2587 67.7703 24.5095 67.1647 25.7055C66.5312 26.9597 65.7218 28.1009 64.7925 29.1549C63.2145 30.9448 61.3687 32.4109 59.3436 33.6593C57.705 34.669 55.9827 35.5168 54.1858 36.2039C53.1773 36.5894 52.1443 36.9154 51.1148 37.2427C50.4545 37.4523 49.7803 37.62 49.1118 37.8028C48.745 37.903 48.7485 37.8995 48.6483 37.5361C48.3933 36.6161 48.1231 35.7008 47.8809 34.7785C47.471 33.2215 47.0622 31.6633 46.6826 30.0981C46.3018 28.526 45.9396 26.9492 45.6019 25.3677C45.2502 23.7246 44.9322 22.0756 44.6097 20.4266C44.3942 19.3272 44.1706 18.2279 44.0006 17.1204C43.8795 16.3332 43.9703 15.5576 44.3965 14.8518C44.6656 14.4058 45.072 14.1287 45.5599 14.018C46.1888 13.876 46.8316 13.7991 47.2136 13.7362H47.2113Z" fill="#E8ECDF"/>
<path id="Vector_4" d="M22.7184 52.277C23.048 51.4653 23.3694 50.6769 23.6897 49.8874C24.2323 48.5481 24.775 47.2077 25.3177 45.8685C25.3946 45.6787 25.4481 45.4749 25.5495 45.299C25.6019 45.2082 25.7358 45.1115 25.8336 45.1104C26.7594 45.0964 27.6864 45.1022 28.6122 45.1034C28.7881 45.1034 28.8812 45.1849 28.9523 45.3608C29.4856 46.6779 30.0341 47.9903 30.5803 49.3028C30.9751 50.2507 31.3734 51.1975 31.7682 52.1454C31.7833 52.1804 31.7856 52.2211 31.7984 52.2794C31.7309 52.2875 31.6727 52.3003 31.6144 52.3003C30.7678 52.3015 29.92 52.2957 29.0734 52.3061C28.8987 52.3085 28.8207 52.2409 28.7648 52.0884C28.3071 50.826 27.8448 49.5659 27.3813 48.3059C27.3522 48.2255 27.2916 48.1557 27.2171 48.0369C27.1612 48.1522 27.1263 48.2104 27.103 48.2733C26.6395 49.5496 26.1771 50.8272 25.7183 52.1058C25.6787 52.2141 25.6566 52.3038 25.504 52.3026C24.6097 52.2957 23.7141 52.3003 22.8197 52.2991C22.7965 52.2991 22.7743 52.2887 22.7184 52.277Z" fill="#E8ECDF"/>
<path id="Vector_5" d="M16.615 52.3004C15.9128 52.3004 15.2572 52.3004 14.6004 52.3004C14.3628 52.3004 14.1241 52.2887 13.8877 52.3062C13.7118 52.319 13.6338 52.2445 13.5779 52.0908C13.1866 51.0217 12.7907 49.9561 12.3959 48.8894C12.2922 48.6099 12.1839 48.3327 12.0791 48.0544C12.0582 48.0521 12.036 48.0498 12.0151 48.0474C11.8916 48.3642 11.7635 48.6798 11.6471 49C11.2604 50.054 10.8796 51.109 10.4895 52.1618C10.4685 52.2189 10.3882 52.2934 10.3346 52.2934C9.4088 52.3015 8.48299 52.2992 7.51874 52.2992C7.64218 51.9836 7.75281 51.6925 7.86927 51.4025C8.68678 49.3808 9.50546 47.3592 10.3218 45.3375C10.3731 45.2106 10.4383 45.1256 10.5943 45.1244C11.1638 45.1209 11.7344 45.1081 12.3039 45.1023C12.6835 45.0988 13.0655 45.0906 13.444 45.1093C13.536 45.1139 13.6699 45.2001 13.7048 45.2828C14.4909 47.1554 15.2653 49.0326 16.0433 50.9087C16.1981 51.2814 16.3588 51.6506 16.5161 52.022C16.5487 52.1001 16.5743 52.1816 16.6174 52.3027L16.615 52.3004Z" fill="#E8ECDF"/>
<path id="Vector_6" d="M42.793 52.2316H41.2395C41.1731 50.3812 41.1067 48.5423 41.0392 46.7035C41.024 46.6977 41.0101 46.693 40.9949 46.6872C40.9705 46.7512 40.9425 46.813 40.9227 46.8782C40.5827 47.9798 40.2461 49.0827 39.9037 50.1843C39.7325 50.7352 39.5451 51.2802 39.382 51.8333C39.3191 52.0476 39.2248 52.1501 38.9872 52.1291C38.7357 52.107 38.4807 52.1187 38.2268 52.1256C38.087 52.1303 38.0102 52.0849 37.9729 51.9428C37.5467 50.3078 37.1158 48.6739 36.6861 47.0389C36.6523 46.912 36.6185 46.7862 36.5848 46.6592C36.565 46.6604 36.544 46.6616 36.5242 46.6639C36.4369 48.5144 36.3507 50.3637 36.2622 52.2281H34.7867C34.9381 49.8955 35.0895 47.5629 35.2432 45.207C35.2991 45.2024 35.3666 45.1907 35.4342 45.1907C36.02 45.1907 36.6069 45.1977 37.1927 45.1896C37.358 45.1873 37.4314 45.2443 37.4756 45.3992C37.7668 46.4252 38.0719 47.4465 38.3584 48.4736C38.4772 48.8987 38.5622 49.3342 38.6623 49.7651C38.6844 49.8618 38.7066 49.9584 38.7893 50.0644C38.8207 49.991 38.8603 49.9212 38.8824 49.8455C39.2446 48.618 39.6033 47.3906 39.9678 46.1643C40.0481 45.8918 40.1355 45.6205 40.2391 45.3561C40.2659 45.2874 40.3637 45.2012 40.4301 45.2001C41.0788 45.1884 41.7286 45.1931 42.4052 45.1931C42.5345 47.5396 42.6626 49.8746 42.7918 52.2316H42.793Z" fill="#E8ECDF"/>
<path id="Vector_7" d="M23.4078 47.1693C22.779 47.1693 22.1862 47.1693 21.5935 47.1693C21.3714 47.1693 21.2604 47.2822 21.2604 47.5082C21.2604 48.9964 21.2627 50.4859 21.2639 51.9742C21.2639 52.0685 21.2639 52.1617 21.2639 52.2793H18.2046C18.2046 52.1931 18.2046 52.1023 18.2046 52.0115C18.2046 50.4906 18.2023 48.9708 18.2116 47.4499C18.2128 47.2356 18.158 47.1588 17.9344 47.1634C17.3568 47.1774 16.778 47.1693 16.2004 47.1693C16.0956 47.1693 15.985 47.1809 15.985 47.0249C15.985 46.3925 15.985 45.7602 15.985 45.1103C16.0933 45.1057 16.169 45.0987 16.2458 45.0987C18.526 45.0987 20.8074 45.0987 23.0876 45.0987C23.409 45.0987 23.409 45.0999 23.409 45.4236C23.409 45.9919 23.409 46.5614 23.409 47.1681L23.4078 47.1693Z" fill="#E8ECDF"/>
<path id="Vector_8" d="M8.20696 45.129C8.20696 45.7637 8.20696 46.396 8.20696 47.0272C8.20696 47.1902 8.09051 47.1681 7.99036 47.1681C7.44418 47.1693 6.89684 47.1786 6.35183 47.1635C6.12125 47.1576 6.0572 47.2322 6.05837 47.4593C6.06768 48.9557 6.06302 50.4522 6.06302 51.9486C6.06302 52.0511 6.06302 52.1536 6.06302 52.277H3.03403C3.02937 52.2141 3.02122 52.1536 3.02122 52.0918C3.02238 50.9121 3.02588 49.7325 3.0282 48.5528C3.0282 48.1894 3.02704 47.8249 3.03286 47.4616C3.03636 47.2496 2.96881 47.153 2.73008 47.16C2.16061 47.1786 1.58998 47.1623 1.02052 47.1716C0.845836 47.1739 0.78295 47.1157 0.785279 46.9399C0.793431 46.3937 0.789938 45.8475 0.788773 45.3013C0.788773 45.1756 0.80857 45.0952 0.969278 45.0952C3.35311 45.0999 5.73579 45.0999 8.11962 45.101C8.13476 45.101 8.1499 45.1092 8.20813 45.1267L8.20696 45.129Z" fill="#E8ECDF"/>
<path id="Vector_9" d="M43.7654 48.8264C43.8026 47.585 44.1485 46.5485 45.0953 45.7869C45.7649 45.2489 46.551 45.0334 47.3988 45.0579C48.5587 45.0917 49.5241 45.5214 50.1692 46.5264C50.6782 47.3194 50.7969 48.2045 50.7212 49.1245C50.6607 49.8558 50.4487 50.5383 49.9934 51.1252C49.4402 51.8391 48.6914 52.2047 47.8087 52.3293C46.7583 52.4772 45.7894 52.2979 44.9602 51.6015C44.2918 51.0402 43.9575 50.2925 43.8259 49.4448C43.791 49.2188 43.7805 48.9894 43.7654 48.8264ZM45.461 48.7449C45.4354 49.298 45.5623 49.8349 45.8499 50.3356C46.4532 51.3849 47.8856 51.4489 48.5761 50.4567C49.1864 49.5787 49.2143 47.9693 48.6355 47.0691C47.9252 45.9651 46.4858 46.0082 45.8266 47.1529C45.546 47.6397 45.4423 48.1672 45.461 48.7449Z" fill="#E8ECDF"/>
<path id="Vector_10" d="M63.8457 48.6751C63.8434 49.453 63.692 50.1879 63.2786 50.854C62.7371 51.7262 61.9289 52.1804 60.9285 52.3248C59.7418 52.496 58.6739 52.2596 57.818 51.3687C57.2229 50.7492 56.9539 49.9817 56.8945 49.1374C56.8421 48.3933 56.9248 47.6678 57.2532 46.9865C57.7912 45.8709 58.6879 45.2478 59.9084 45.0906C60.7655 44.98 61.5853 45.1116 62.3236 45.5797C63.1411 46.0968 63.5872 46.8677 63.7584 47.804C63.8108 48.0905 63.8178 48.3851 63.8445 48.6763L63.8457 48.6751ZM62.1594 48.7461C62.1396 48.2174 62.0698 47.712 61.831 47.2439C61.5364 46.6663 61.0845 46.2994 60.4219 46.2738C59.7733 46.2482 59.2876 46.551 58.9523 47.103C58.6995 47.5187 58.5971 47.9729 58.5633 48.4538C58.5132 49.1584 58.6157 49.8268 59.0093 50.4254C59.6533 51.4048 61.0228 51.4118 61.6843 50.4452C62.0372 49.9293 62.1292 49.3401 62.1606 48.7461H62.1594Z" fill="#E8ECDF"/>
<path id="Vector_11" d="M68.8847 48.8951C69.3506 49.1339 69.6417 49.4716 69.7826 49.9153C69.9328 50.3892 70.0505 50.8737 70.1844 51.3523C70.2647 51.64 70.3521 51.9253 70.4441 52.2409C69.9247 52.2409 69.4286 52.249 68.9337 52.2316C68.8673 52.2292 68.7706 52.1128 68.7462 52.0324C68.5878 51.5025 68.4445 50.9692 68.299 50.4358C68.2175 50.1342 68.1196 49.8419 67.8623 49.6393C67.5129 49.3633 67.0972 49.4331 66.6977 49.4425C66.6593 49.4425 66.5941 49.5985 66.5929 49.6824C66.5847 50.4184 66.5871 51.1555 66.5871 51.8915C66.5871 51.9625 66.6045 52.0417 66.5789 52.1035C66.5545 52.1605 66.4858 52.2362 66.4345 52.2374C65.9769 52.2479 65.518 52.2432 65.0347 52.2432C65.0289 52.1431 65.0196 52.0592 65.0196 51.9754C65.0196 49.8291 65.0243 47.6828 65.0184 45.5366C65.0184 45.3199 65.0848 45.2396 65.2956 45.2326C66.1411 45.207 66.9865 45.1418 67.832 45.1523C68.469 45.1604 69.0944 45.3048 69.5998 45.7392C70.5454 46.5509 70.3521 48.1195 69.2399 48.7123C69.1386 48.767 69.035 48.8171 68.8847 48.894V48.8951ZM66.5882 47.3218C66.5882 47.3218 66.5987 47.3218 66.6034 47.3218C66.6034 47.599 66.5964 47.8761 66.6092 48.1521C66.6115 48.2104 66.6814 48.314 66.721 48.3152C67.209 48.3257 67.7074 48.3804 68.1534 48.1044C68.4853 47.8983 68.6472 47.585 68.6192 47.2054C68.5924 46.828 68.4061 46.5381 68.0311 46.389C67.6247 46.2271 67.2113 46.2574 66.792 46.2958C66.6395 46.3098 66.5848 46.3704 66.5871 46.5159C66.5917 46.785 66.5882 47.054 66.5882 47.323V47.3218Z" fill="#E8ECDF"/>
<path id="Vector_12" d="M75.4191 46.5998C75.1186 46.5171 74.8484 46.431 74.5724 46.3716C74.159 46.2819 73.7409 46.2563 73.3322 46.4019C73.0899 46.488 72.892 46.6278 72.8431 46.9003C72.7895 47.2054 72.8896 47.4604 73.1691 47.6002C73.5499 47.7912 73.9412 47.96 74.3349 48.1242C74.8508 48.3397 75.3492 48.5807 75.6962 49.0396C76.3949 49.9654 76.0863 51.3593 75.0545 51.9311C74.2452 52.3795 73.3729 52.4633 72.4774 52.3189C72.0826 52.2561 71.696 52.1361 71.3105 52.0243C71.243 52.0045 71.1463 51.8881 71.1568 51.8345C71.2325 51.4583 71.3326 51.0868 71.4153 50.7514C71.9464 50.8761 72.4413 51.0042 72.9421 51.1031C73.2903 51.1719 73.6361 51.1171 73.9657 50.9809C74.4874 50.7643 74.619 50.1144 74.1707 49.7744C73.876 49.5496 73.5115 49.4052 73.1622 49.2666C72.6439 49.0605 72.1339 48.8439 71.7344 48.4433C70.8412 47.5466 71.0846 46.0804 72.2119 45.4632C72.8535 45.1115 73.5441 45.0079 74.2545 45.0684C74.6842 45.1045 75.1069 45.2198 75.532 45.306C75.695 45.3398 75.7696 45.4201 75.7044 45.61C75.5949 45.9302 75.5134 46.2586 75.4167 46.5987L75.4191 46.5998Z" fill="#E8ECDF"/>
<path id="Vector_13" d="M51.0088 46.4857V45.2117H56.5405C56.5405 45.5878 56.5474 45.9581 56.5323 46.3261C56.53 46.3762 56.4112 46.4589 56.3448 46.4612C55.8778 46.4764 55.4108 46.4752 54.9439 46.4787C54.8356 46.4787 54.7261 46.4787 54.5898 46.4787V52.2432C54.0821 52.2432 53.6011 52.2467 53.1202 52.2374C53.0747 52.2374 53.0107 52.1652 52.9932 52.114C52.9699 52.0511 52.9851 51.9731 52.9851 51.902C52.9851 50.1994 52.9851 48.498 52.9851 46.7955C52.9851 46.4857 52.9827 46.4845 52.6672 46.4845C52.1221 46.4845 51.576 46.4845 51.0112 46.4845L51.0088 46.4857Z" fill="#E8ECDF"/>
</g>
</svg>
