<svg width="125" height="125" viewBox="0 0 125 125" fill="none" xmlns="http://www.w3.org/2000/svg">
<rect x="65.7777" y="68.746" width="18.5419" height="18.5419" rx="5" transform="rotate(-45 65.7777 68.746)" fill="#737A62"/>
<path d="M59.2142 71.908C62.5476 73.8325 62.5476 78.6437 59.2142 80.5682L48.9286 86.5067C45.5952 88.4312 41.4286 86.0255 41.4286 82.1765L41.4286 70.2997C41.4286 66.4507 45.5952 64.045 48.9286 65.9695L59.2142 71.908Z" fill="#737A62"/>
<circle cx="60.1587" cy="47.2064" r="10.3016" fill="#737A62"/>
<path d="M100.505 63C100.505 84.2808 83.4737 101.5 62.5046 101.5C41.5355 101.5 24.5046 84.2808 24.5046 63C24.5046 41.7192 41.5355 24.5 62.5046 24.5C83.4737 24.5 100.505 41.7192 100.505 63Z" stroke="url(#paint0_linear_273_2197)" stroke-width="3"/>
<circle cx="62.5045" cy="62.5" r="60" transform="rotate(90.9437 62.5045 62.5)" stroke="#737A62" stroke-width="3"/>
<defs>
<linearGradient id="paint0_linear_273_2197" x1="62.5046" y1="23" x2="62.5046" y2="103" gradientUnits="userSpaceOnUse">
<stop stop-color="#616751"/>
<stop offset="1" stop-color="#2E3224"/>
</linearGradient>
</defs>
</svg>
