<svg width="140" height="141" viewBox="0 0 140 141" fill="none" xmlns="http://www.w3.org/2000/svg">
<g id="tenancy">
<mask id="mask0_506_4432" style="mask-type:alpha" maskUnits="userSpaceOnUse" x="0" y="0" width="140" height="141">
<rect id="Bounding box" y="0.367188" width="140" height="140" fill="#D9D9D9"/>
</mask>
<g mask="url(#mask0_506_4432)">
<path id="tenancy_2" d="M22.5486 119.95C18.4352 119.95 14.9386 118.511 12.0588 115.631C9.1801 112.752 7.74072 109.256 7.74072 105.143C7.74072 101.029 9.1801 97.533 12.0588 94.6542C14.9386 91.7745 18.4352 90.3347 22.5486 90.3347C23.5529 90.3347 24.5291 90.4265 25.477 90.6103C26.4259 90.7931 27.3641 91.094 28.2916 91.513L54.6086 55.4017C52.9559 53.5847 51.6677 51.4842 50.7441 49.1003C49.8204 46.7174 49.3586 44.1964 49.3586 41.5374C49.3586 35.7935 51.3629 30.9173 55.3713 26.9088C59.3798 22.9004 64.256 20.8961 69.9999 20.8961C75.7438 20.8961 80.62 22.9004 84.6284 26.9088C88.6369 30.9173 90.6411 35.7935 90.6411 41.5374C90.6411 44.1964 90.155 46.7174 89.1828 49.1003C88.2106 51.4842 86.8981 53.5847 85.2453 55.4017L111.596 91.6253C112.523 91.2062 113.474 90.8864 114.447 90.6657C115.42 90.445 116.422 90.3347 117.451 90.3347C121.565 90.3347 125.061 91.7745 127.941 94.6542C130.82 97.533 132.259 101.029 132.259 105.143C132.259 109.256 130.82 112.752 127.941 115.631C125.061 118.511 121.565 119.95 117.451 119.95C113.339 119.95 109.843 118.511 106.963 115.631C104.084 112.752 102.645 109.256 102.645 105.143C102.645 103.146 103.024 101.278 103.782 99.5396C104.541 97.8003 105.557 96.2501 106.829 94.889L80.7361 59.0038C79.5763 59.7962 78.3479 60.4281 77.0509 60.8997C75.753 61.3702 74.3749 61.7168 72.9166 61.9394V90.5709C76.3193 91.2135 79.1519 92.8926 81.4143 95.608C83.6766 98.3224 84.8078 101.463 84.8078 105.03C84.8078 109.144 83.3679 112.64 80.4882 115.52C77.6095 118.399 74.1134 119.838 69.9999 119.838C65.8864 119.838 62.3903 118.399 59.5116 115.52C56.6318 112.64 55.192 109.144 55.192 105.03C55.192 101.463 56.3232 98.3278 58.5855 95.624C60.8479 92.9203 63.6804 91.2359 67.0832 90.5709V61.9394C65.6249 61.7168 64.2468 61.3702 62.9489 60.8997C61.6519 60.4281 60.4235 59.7962 59.2636 59.0038L33.0588 94.889C34.3305 96.2501 35.3645 97.8003 36.1607 99.5396C36.957 101.278 37.3551 103.146 37.3551 105.143C37.3551 109.256 35.9157 112.752 33.037 115.631C30.1572 118.511 26.6611 119.95 22.5486 119.95ZM22.5486 114.117C25.0239 114.117 27.1385 113.24 28.8924 111.486C30.6453 109.732 31.5218 107.618 31.5218 105.143C31.5218 102.667 30.6453 100.553 28.8924 98.7988C27.1385 97.0449 25.0239 96.168 22.5486 96.168C20.0724 96.168 17.9578 97.0449 16.2049 98.7988C14.451 100.553 13.5741 102.667 13.5741 105.143C13.5741 107.618 14.451 109.732 16.2049 111.486C17.9578 113.24 20.0724 114.117 22.5486 114.117ZM69.9999 114.005C72.4752 114.005 74.5898 113.128 76.3436 111.374C78.0975 109.62 78.9745 107.506 78.9745 105.03C78.9745 102.555 78.0975 100.44 76.3436 98.6865C74.5898 96.9326 72.4752 96.0557 69.9999 96.0557C67.5246 96.0557 65.41 96.9326 63.6561 98.6865C61.9023 100.44 61.0253 102.555 61.0253 105.03C61.0253 107.506 61.9023 109.62 63.6561 111.374C65.41 113.128 67.5246 114.005 69.9999 114.005ZM117.451 114.117C119.927 114.117 122.042 113.24 123.795 111.486C125.549 109.732 126.426 107.618 126.426 105.143C126.426 102.667 125.549 100.553 123.795 98.7988C122.042 97.0449 119.927 96.168 117.451 96.168C114.976 96.168 112.861 97.0449 111.107 98.7988C109.354 100.553 108.478 102.667 108.478 105.143C108.478 107.618 109.354 109.732 111.107 111.486C112.861 113.24 114.976 114.117 117.451 114.117ZM69.9999 56.3453C74.0716 56.3453 77.5575 54.8952 80.4576 51.9951C83.3577 49.0949 84.8078 45.609 84.8078 41.5374C84.8078 37.4647 83.3577 33.9788 80.4576 31.0797C77.5575 28.1795 74.0716 26.7295 69.9999 26.7295C65.9282 26.7295 62.4423 28.1795 59.5422 31.0797C56.642 33.9788 55.192 37.4647 55.192 41.5374C55.192 45.609 56.642 49.0949 59.5422 51.9951C62.4423 54.8952 65.9282 56.3453 69.9999 56.3453Z" fill="#888F77"/>
</g>
</g>
</svg>
