<svg width="140" height="140" viewBox="0 0 140 140" fill="none" xmlns="http://www.w3.org/2000/svg">
<g id="terminal">
<mask id="mask0_506_4985" style="mask-type:alpha" maskUnits="userSpaceOnUse" x="0" y="0" width="140" height="141">
<rect id="Bounding box" y="0.0100098" width="140" height="140" fill="#D9D9D9"/>
</mask>
<g mask="url(#mask0_506_4985)">
<path id="terminal_2" d="M26.9237 110.843C24.2385 110.843 21.9965 109.944 20.1979 108.145C18.3993 106.347 17.5 104.105 17.5 101.42V38.6004C17.5 35.9151 18.3993 33.6732 20.1979 31.8746C21.9965 30.0759 24.2385 29.1766 26.9237 29.1766H113.076C115.762 29.1766 118.003 30.0759 119.802 31.8746C121.601 33.6732 122.5 35.9151 122.5 38.6004V101.42C122.5 104.105 121.601 106.347 119.802 108.145C118.003 109.944 115.762 110.843 113.076 110.843H26.9237ZM26.9237 105.01H113.076C113.975 105.01 114.798 104.636 115.545 103.889C116.293 103.141 116.667 102.318 116.667 101.42V46.6766H23.3333V101.42C23.3333 102.318 23.7072 103.141 24.4548 103.889C25.2024 104.636 26.0254 105.01 26.9237 105.01ZM43.75 95.0262L39.7337 91.01L54.7546 75.8433L39.5879 60.6766L43.75 56.6604L62.9329 75.8433L43.75 95.0262ZM72.9167 96.26V90.4266H102.083V96.26H72.9167Z" fill="#888F77"/>
</g>
</g>
</svg>
