<svg width="140" height="140" viewBox="0 0 140 140" fill="none" xmlns="http://www.w3.org/2000/svg">
<g id="data_thresholding">
<mask id="mask0_506_4396" style="mask-type:alpha" maskUnits="userSpaceOnUse" x="0" y="0" width="140" height="141">
<rect id="Bounding box" y="0.0100098" width="140" height="140" fill="#D9D9D9"/>
</mask>
<g mask="url(#mask0_506_4396)">
<path id="data_thresholding_2" d="M32.7572 116.677C30.1468 116.677 27.9234 115.759 26.0868 113.923C24.2513 112.087 23.3335 109.863 23.3335 107.253V32.7671C23.3335 30.1567 24.2513 27.9332 26.0868 26.0967C27.9234 24.2612 30.1468 23.3434 32.7572 23.3434H107.243C109.854 23.3434 112.077 24.2612 113.913 26.0967C115.749 27.9332 116.667 30.1567 116.667 32.7671V107.253C116.667 109.863 115.749 112.087 113.913 113.923C112.077 115.759 109.854 116.677 107.243 116.677H32.7572ZM96.6206 110.843H107.243C108.29 110.843 109.151 110.507 109.824 109.834C110.497 109.16 110.833 108.3 110.833 107.253V96.6305L96.6206 110.843ZM32.4422 110.843H46.7908L64.2908 93.3434H71.5256L54.0256 110.843H68.0708L85.5708 93.3434H92.8056L75.3056 110.843H89.3843L106.884 93.3434H110.833V32.7671C110.833 31.72 110.497 30.8596 109.824 30.1859C109.151 29.5131 108.29 29.1767 107.243 29.1767H32.7572C31.7102 29.1767 30.8497 29.5131 30.176 30.1859C29.5032 30.8596 29.1668 31.72 29.1668 32.7671V106.884L42.7075 93.3434H49.9422L32.4422 110.843ZM44.6252 77.5263L40.6089 73.5101L62.271 51.848L73.9377 63.5146L95.3752 42.0771L99.3914 46.0934L73.9377 71.693L62.271 60.0263L44.6252 77.5263Z" fill="#888F77"/>
</g>
</g>
</svg>
