<svg width="128" height="128" viewBox="0 0 128 128" fill="none" xmlns="http://www.w3.org/2000/svg">
<g id="u70XMQ">
<path id="Vector" d="M44.5125 31.6932C43.3577 30.5869 42.1752 29.5066 41.051 28.3696C36.3641 23.6219 31.691 18.8604 27.0225 14.0943C26.5225 13.5849 26.0685 13.0263 25.6192 12.4708C23.5134 9.86682 23.5333 7.02496 24.9827 4.21073C26.4458 1.36581 28.8537 -0.108827 32.148 0.00625908C34.0958 0.0753106 35.7568 0.66455 37.1769 2.0686C42.646 7.47917 48.1673 12.8376 53.6471 18.2374C56.9246 21.4659 60.1653 24.7344 63.4228 27.9829C63.5992 28.1593 63.7893 28.322 64.0669 28.5767C65.1175 27.501 66.119 26.4469 67.1496 25.4234C74.3687 18.2558 81.5907 11.0898 88.8251 3.93759C89.8051 2.96934 90.8358 2.04405 91.9032 1.174C92.3832 0.782705 92.9844 0.428241 93.581 0.307017C96.9521 -0.378895 99.8814 0.193466 102.309 2.97241C104.025 4.93654 104.578 10.2397 102.401 12.4647C99.6145 15.3127 96.9199 18.2543 94.1378 21.1069C90.799 24.5288 87.408 27.8985 84.0416 31.2912C83.8821 31.4523 83.7364 31.6257 83.4419 31.9495C83.8959 31.9495 84.1827 31.9495 84.4695 31.9495C93.2099 31.971 101.95 31.9894 110.689 32.0201C111.608 32.0232 112.527 32.0953 113.447 32.1306C120.045 32.3776 125.954 37.7115 127.462 44.078C127.82 45.5956 127.773 47.2283 127.785 48.8088C127.88 60.2637 127.994 71.7186 128 83.1735C128.004 92.4801 127.889 101.788 127.781 111.095C127.758 113.102 127.859 115.129 127.135 117.085C125.382 121.821 122.186 125.195 117.502 126.974C115.904 127.581 114.051 127.672 112.307 127.718C106.508 127.871 100.707 127.95 94.9061 127.962C77.6277 127.997 60.3493 128.016 43.0709 127.983C33.947 127.966 24.8247 127.842 15.7009 127.745C14.6303 127.735 13.5506 127.661 12.4924 127.5C9.21492 127 6.5954 125.247 4.38997 122.892C1.67383 119.993 0.201497 116.599 0.196896 112.51C0.184627 96.169 0.0389274 79.8298 0.000585458 63.4907C-0.011684 57.9436 0.172357 52.3949 0.22757 46.8478C0.27358 42.1783 2.46674 38.5953 5.8531 35.6369C8.95573 32.927 12.6688 32.0078 16.7192 32.0155C25.6391 32.0324 34.559 31.9756 43.4788 31.9495C43.7718 31.9495 44.0662 31.9495 44.3592 31.9495L44.511 31.6932H44.5125ZM60.087 111.911C60.087 111.911 60.087 111.923 60.087 111.93C71.4347 111.93 82.7824 111.939 94.1301 111.922C96.4797 111.919 98.8324 111.856 101.179 111.75C102.841 111.675 103.496 111.058 103.651 109.424C103.801 107.848 103.898 106.261 103.901 104.679C103.93 89.1319 103.947 73.586 103.93 58.0387C103.927 55.4593 103.792 52.8783 103.621 50.3034C103.527 48.9178 102.907 48.3976 101.521 48.2027C101.193 48.1567 100.86 48.1275 100.529 48.1214C97.5901 48.0677 94.6516 47.9879 91.7146 47.9802C82.5401 47.9556 73.3641 47.9464 64.1881 47.9526C50.8727 47.9618 37.5573 47.9848 24.2419 48.0155C22.403 48.0201 20.5611 48.0661 18.7253 48.1705C17.1532 48.2595 16.503 48.8687 16.3389 50.4185C16.1855 51.8655 16.0889 53.3248 16.0858 54.7795C16.0521 69.5335 16.0245 84.286 16.0383 99.04C16.0413 102.439 16.1487 105.839 16.3189 109.234C16.4125 111.107 17.0919 111.667 18.9937 111.768C20.5243 111.85 22.0579 111.904 23.5901 111.905C35.7552 111.916 47.9204 111.911 60.0855 111.911H60.087ZM112.025 51.8655C112.014 54.1043 113.752 55.8966 115.956 55.9181C118.08 55.9395 119.891 54.1289 119.913 51.9622C119.934 49.7602 118.272 48.0293 116.103 47.9986C113.809 47.9649 112.036 49.6466 112.027 51.8655H112.025ZM119.914 83.9484C119.914 81.6958 118.192 79.9848 115.931 79.9864C113.804 79.9894 112.042 81.7909 112.025 83.9806C112.01 86.0552 113.905 87.9534 115.991 87.9549C118.082 87.9549 119.914 86.0828 119.913 83.9499L119.914 83.9484ZM119.916 67.8686C119.911 65.6988 118.123 63.9418 115.939 63.9649C113.801 63.9879 112.027 65.7986 112.02 67.9622C112.014 70.0567 113.902 71.9488 115.983 71.9334C118.144 71.9181 119.92 70.0813 119.916 67.8686Z" fill="url(#paint0_linear_463_1183)"/>
</g>
<defs>
<linearGradient id="paint0_linear_463_1183" x1="64" y1="15.2655" x2="64" y2="155.994" gradientUnits="userSpaceOnUse">
<stop stop-color="white"/>
<stop offset="0.795" stop-color="white" stop-opacity="0"/>
</linearGradient>
</defs>
</svg>
