<svg width="128" height="128" viewBox="0 0 128 128" fill="none" xmlns="http://www.w3.org/2000/svg">
<g id="u70XMQ">
<path id="Vector" d="M44.5108 31.6932C43.356 30.5869 42.1735 29.5066 41.0493 28.3696C36.3624 23.6219 31.6893 18.8604 27.0208 14.0943C26.5208 13.5849 26.0668 13.0263 25.6174 12.4708C23.5117 9.86682 23.5316 7.02496 24.981 4.21073C26.4441 1.36581 28.852 -0.108827 32.1463 0.00625908C34.0941 0.0753106 35.7551 0.66455 37.1752 2.0686C42.6443 7.47917 48.1656 12.8376 53.6454 18.2374C56.9229 21.4659 60.1635 24.7344 63.4211 27.9829C63.5975 28.1593 63.7876 28.322 64.0652 28.5767C65.1158 27.501 66.1173 26.4469 67.1479 25.4234C74.3669 18.2558 81.589 11.0898 88.8234 3.93759C89.8034 2.96934 90.8341 2.04405 91.9015 1.174C92.3815 0.782705 92.9827 0.428241 93.5793 0.307017C96.9504 -0.378895 99.8797 0.193466 102.308 2.97241C104.024 4.93654 104.576 10.2397 102.4 12.4647C99.6128 15.3127 96.9182 18.2543 94.1361 21.1069C90.7972 24.5288 87.4063 27.8985 84.0399 31.2912C83.8804 31.4523 83.7347 31.6257 83.4402 31.9495C83.8942 31.9495 84.181 31.9495 84.4678 31.9495C93.2082 31.971 101.949 31.9894 110.688 32.0201C111.606 32.0232 112.525 32.0953 113.445 32.1306C120.043 32.3776 125.952 37.7115 127.46 44.078C127.819 45.5956 127.771 47.2283 127.783 48.8088C127.879 60.2637 127.992 71.7186 127.998 83.1735C128.003 92.4801 127.888 101.788 127.779 111.095C127.756 113.102 127.857 115.129 127.133 117.085C125.38 121.821 122.184 125.195 117.5 126.974C115.902 127.581 114.049 127.672 112.306 127.718C106.507 127.871 100.705 127.95 94.9044 127.962C77.626 127.997 60.3476 128.016 43.0692 127.983C33.9453 127.966 24.823 127.842 15.6991 127.745C14.6286 127.735 13.5489 127.661 12.4907 127.5C9.21322 127 6.59369 125.247 4.38826 122.892C1.67212 119.993 0.199788 116.599 0.195187 112.51C0.182918 96.169 0.0372184 79.8298 -0.00112353 63.4907C-0.013393 57.9436 0.170648 52.3949 0.225861 46.8478C0.271871 42.1783 2.46503 38.5953 5.85139 35.6369C8.95403 32.927 12.6671 32.0078 16.7175 32.0155C25.6374 32.0324 34.5573 31.9756 43.4771 31.9495C43.7701 31.9495 44.0645 31.9495 44.3575 31.9495L44.5093 31.6932H44.5108ZM60.0853 111.911C60.0853 111.911 60.0853 111.923 60.0853 111.93C71.433 111.93 82.7807 111.939 94.1284 111.922C96.478 111.919 98.8307 111.856 101.177 111.75C102.84 111.675 103.495 111.058 103.649 109.424C103.8 107.848 103.896 106.261 103.899 104.679C103.929 89.1319 103.945 73.586 103.929 58.0387C103.926 55.4593 103.791 52.8783 103.619 50.3034C103.525 48.9178 102.906 48.3976 101.519 48.2027C101.191 48.1567 100.858 48.1275 100.527 48.1214C97.5884 48.0677 94.6498 47.9879 91.7129 47.9802C82.5384 47.9556 73.3624 47.9464 64.1864 47.9526C50.871 47.9618 37.5556 47.9848 24.2402 48.0155C22.4013 48.0201 20.5594 48.0661 18.7236 48.1705C17.1515 48.2595 16.5013 48.8687 16.3372 50.4185C16.1838 51.8655 16.0872 53.3248 16.0841 54.7795C16.0504 69.5335 16.0227 84.286 16.0366 99.04C16.0396 102.439 16.147 105.839 16.3172 109.234C16.4108 111.107 17.0902 111.667 18.9919 111.768C20.5226 111.85 22.0562 111.904 23.5884 111.905C35.7535 111.916 47.9187 111.911 60.0838 111.911H60.0853ZM112.023 51.8655C112.013 54.1043 113.75 55.8966 115.954 55.9181C118.078 55.9395 119.89 54.1289 119.911 51.9622C119.933 49.7602 118.27 48.0293 116.101 47.9986C113.807 47.9649 112.034 49.6466 112.025 51.8655H112.023ZM119.913 83.9484C119.913 81.6958 118.19 79.9848 115.93 79.9864C113.802 79.9894 112.04 81.7909 112.023 83.9806C112.008 86.0552 113.904 87.9534 115.989 87.9549C118.08 87.9549 119.913 86.0828 119.911 83.9499L119.913 83.9484ZM119.914 67.8686C119.91 65.6988 118.121 63.9418 115.937 63.9649C113.799 63.9879 112.025 65.7986 112.019 67.9622C112.013 70.0567 113.901 71.9488 115.982 71.9334C118.143 71.9181 119.919 70.0813 119.914 67.8686Z" fill="#D2D8C5"/>
</g>
</svg>
