<svg width="189" height="60" viewBox="0 0 189 60" fill="none" xmlns="http://www.w3.org/2000/svg">
<g id="Group">
<g id="Group_2">
<g id="Group_3">
<path id="Vector" d="M26.013 29.1079C26.013 29.9073 25.8354 30.6178 25.4857 31.2395C25.136 31.8612 24.6364 32.3496 23.9981 32.7049C23.3597 33.0601 22.6104 33.2378 21.75 33.2378C20.8896 33.2378 20.1458 33.0601 19.5074 32.7049C18.8635 32.3496 18.3695 31.8612 18.0142 31.2395C17.659 30.6178 17.4869 29.9073 17.4869 29.1079V21.4977H17.5757V7.87038C17.5757 6.33834 17.2149 5.00059 16.4878 3.85156C15.7661 2.70254 14.7503 1.80885 13.4459 1.1705C12.1414 0.532155 10.615 0.210205 8.87756 0.210205C7.14014 0.210205 5.62474 0.532155 4.31474 1.1705C3.00474 1.80885 1.99449 2.70254 1.26733 3.85156C0.540168 5.00059 0.173828 6.33834 0.173828 7.87038V21.4977H4.60895V8.24784C4.60895 7.44851 4.78655 6.73801 5.13626 6.11631C5.48596 5.49462 5.98557 5.00614 6.62391 4.65089C7.26226 4.29563 8.01162 4.118 8.872 4.118C9.73238 4.118 10.4762 4.29563 11.1145 4.65089C11.7584 5.00614 12.2525 5.49462 12.6077 6.11631C12.963 6.73801 13.1351 7.44851 13.1351 8.24784V15.8581H13.0462V29.4854C13.0462 31.0174 13.407 32.3552 14.1342 33.5042C14.8558 34.6532 15.8716 35.5469 17.1761 36.1853C18.4805 36.8236 20.007 37.1456 21.7444 37.1456C23.4818 37.1456 24.9972 36.8236 26.3072 36.1853C27.6172 35.5469 28.6275 34.6532 29.3546 33.5042C30.0818 32.3552 30.4482 31.0174 30.4482 29.4854V15.8581H26.013V29.1079Z" fill="#888F77"/>
<path id="Vector_2" d="M48.9714 15.8579V29.0578H48.7826L39.7237 15.8579H35.8325V36.8457H40.2676V23.6347H40.423L49.5542 36.8457H53.3843V15.8579H48.9714Z" fill="#888F77"/>
</g>
<path id="Vector_3" d="M60.2729 36.8457V15.8579H64.708V33.1877H73.7059V36.8457H60.2729Z" fill="#E8ECDF"/>
<path id="Vector_4" d="M97.6634 26.3547C97.6634 28.6417 97.2304 30.59 96.3645 32.1942C95.4986 33.7984 94.3273 35.0251 92.8397 35.8689C91.3521 36.7126 89.6868 37.1345 87.8328 37.1345C85.9789 37.1345 84.2914 36.7126 82.8094 35.8633C81.3273 35.014 80.156 33.7873 79.2957 32.1831C78.4353 30.5789 78.0023 28.6361 78.0023 26.3547C78.0023 24.0733 78.4353 22.1194 79.2957 20.5152C80.156 18.911 81.3273 17.6843 82.8094 16.8405C84.2914 15.9968 85.9678 15.575 87.8328 15.575C89.6979 15.575 91.3521 15.9968 92.8397 16.8405C94.3273 17.6843 95.4986 18.911 96.3645 20.5152C97.2304 22.1194 97.6634 24.0678 97.6634 26.3547ZM93.1673 26.3547C93.1673 24.8726 92.9452 23.6237 92.5067 22.6023C92.0682 21.581 91.4465 20.815 90.6472 20.2876C89.8478 19.7603 88.9097 19.4994 87.8384 19.4994C86.7671 19.4994 85.829 19.7603 85.0297 20.2876C84.2304 20.815 83.6087 21.5865 83.1701 22.6023C82.7316 23.6181 82.5096 24.8726 82.5096 26.3547C82.5096 27.8368 82.7316 29.0857 83.1701 30.1071C83.6087 31.1229 84.2304 31.8945 85.0297 32.4218C85.829 32.9491 86.7671 33.21 87.8384 33.21C88.9097 33.21 89.8478 32.9491 90.6472 32.4218C91.4465 31.8945 92.0682 31.1229 92.5067 30.1071C92.9452 29.0913 93.1673 27.8368 93.1673 26.3547Z" fill="#E8ECDF"/>
<path id="Vector_5" d="M121.194 23.2077H116.703C116.62 22.6249 116.453 22.1087 116.203 21.6535C115.948 21.1983 115.626 20.8098 115.232 20.4878C114.838 20.1659 114.377 19.9216 113.866 19.7496C113.35 19.5775 112.789 19.4942 112.19 19.4942C111.102 19.4942 110.158 19.7607 109.354 20.2991C108.549 20.8375 107.921 21.6146 107.477 22.636C107.033 23.6574 106.811 24.8952 106.811 26.3495C106.811 27.8038 107.033 29.1027 107.483 30.1185C107.932 31.1343 108.56 31.9059 109.365 32.4221C110.169 32.9439 111.102 33.1993 112.162 33.1993C112.756 33.1993 113.306 33.1216 113.816 32.9661C114.327 32.8107 114.777 32.5776 115.176 32.2723C115.57 31.967 115.904 31.5951 116.164 31.1621C116.425 30.7236 116.608 30.224 116.714 29.6634L121.205 29.6856C121.088 30.6514 120.799 31.5784 120.339 32.4666C119.878 33.3602 119.262 34.154 118.485 34.8534C117.708 35.5528 116.786 36.1079 115.72 36.5131C114.655 36.9183 113.445 37.1237 112.096 37.1237C110.225 37.1237 108.554 36.7019 107.078 35.8526C105.601 35.0033 104.447 33.7766 103.592 32.1724C102.742 30.5682 102.315 28.6254 102.315 26.344C102.315 24.0626 102.748 22.1087 103.608 20.5045C104.469 18.9003 105.634 17.6735 107.111 16.8298C108.588 15.9861 110.247 15.5642 112.09 15.5642C113.306 15.5642 114.438 15.7363 115.476 16.0749C116.52 16.419 117.441 16.9131 118.246 17.5681C119.051 18.2231 119.711 19.0168 120.217 19.9605C120.727 20.9041 121.049 21.981 121.194 23.1966V23.2077Z" fill="#E8ECDF"/>
<path id="Vector_6" d="M126.112 36.8457V15.8579H130.547V25.1112H130.824L138.379 15.8579H143.697L135.909 25.2555L143.791 36.8457H138.484L132.734 28.2197L130.552 30.8841V36.8457H126.117H126.112Z" fill="#E8ECDF"/>
<path id="Vector_7" d="M147.743 36.8457V15.8579H161.887V19.5159H152.184V24.5172H161.16V28.1753H152.184V33.1877H161.931V36.8457H147.749H147.743Z" fill="#E8ECDF"/>
<path id="Vector_8" d="M174.593 36.8457H167.155V15.8579H174.654C176.763 15.8579 178.584 16.2742 180.105 17.1124C181.626 17.9506 182.802 19.1496 183.624 20.7149C184.445 22.2802 184.862 24.1509 184.862 26.3324C184.862 28.5139 184.451 30.3956 183.624 31.9665C182.802 33.5374 181.62 34.7419 180.088 35.5856C178.556 36.4238 176.719 36.8457 174.587 36.8457H174.593ZM171.59 33.0433H174.41C175.72 33.0433 176.824 32.8102 177.723 32.3439C178.623 31.8777 179.3 31.1505 179.755 30.1625C180.21 29.1744 180.438 27.8977 180.438 26.3324C180.438 24.767 180.21 23.5125 179.755 22.53C179.3 21.5475 178.628 20.8204 177.729 20.3597C176.835 19.8934 175.731 19.6602 174.421 19.6602H171.59V33.0433Z" fill="#E8ECDF"/>
</g>
<g id="Group_4">
<path id="Vector_9" d="M100.067 59.0996C99.1566 59.0996 98.3406 58.9386 97.6301 58.6222C96.914 58.3002 96.3534 57.8284 95.9427 57.1956C95.5319 56.5628 95.3209 55.7802 95.3209 54.8365C95.3209 54.0427 95.4653 53.3766 95.7595 52.8326C96.0537 52.2887 96.4478 51.8557 96.9529 51.5282C97.458 51.2007 98.0298 50.9509 98.6737 50.7844C99.3176 50.6179 99.9892 50.5013 100.7 50.4291C101.532 50.3403 102.204 50.2626 102.709 50.1849C103.22 50.1072 103.586 49.9906 103.819 49.8352C104.047 49.6798 104.163 49.4522 104.163 49.1469V49.0914C104.163 48.503 103.98 48.0478 103.608 47.7203C103.236 47.3984 102.715 47.2374 102.038 47.2374C101.321 47.2374 100.755 47.3928 100.333 47.7092C99.9115 48.0201 99.6339 48.4142 99.4952 48.886L95.8261 48.5862C96.0148 47.7148 96.3811 46.9654 96.9251 46.327C97.4691 45.6887 98.1797 45.2002 99.0456 44.8561C99.9115 44.5119 100.916 44.3398 102.06 44.3398C102.853 44.3398 103.614 44.4342 104.347 44.6174C105.079 44.8006 105.723 45.0948 106.295 45.4833C106.861 45.8719 107.311 46.377 107.638 46.9876C107.966 47.5982 108.132 48.3309 108.132 49.1802V58.8276H104.369V56.8459H104.258C104.03 57.2955 103.719 57.6841 103.336 58.0227C102.953 58.3613 102.487 58.6222 101.949 58.8165C101.41 59.0052 100.783 59.0996 100.078 59.0996H100.067ZM101.205 56.363C101.788 56.363 102.304 56.2464 102.748 56.0133C103.192 55.7801 103.547 55.4638 103.803 55.0696C104.058 54.6755 104.186 54.2204 104.186 53.7208V52.2054C104.064 52.2887 103.891 52.3608 103.681 52.4219C103.47 52.4829 103.225 52.544 102.959 52.5995C102.692 52.6495 102.426 52.6994 102.16 52.7383C101.893 52.7771 101.649 52.816 101.432 52.8437C100.966 52.9104 100.561 53.0214 100.211 53.1713C99.8615 53.3211 99.5951 53.521 99.4008 53.7707C99.2066 54.0205 99.1122 54.3314 99.1122 54.7088C99.1122 55.2473 99.3064 55.658 99.7005 55.9411C100.095 56.2242 100.594 56.363 101.205 56.363Z" fill="#E8ECDF"/>
<path id="Vector_10" d="M114.022 58.8276L110.131 44.5286H114.144L116.359 54.1371H116.486L118.795 44.5286H122.737L125.085 54.0816H125.207L127.388 44.5286H131.39L127.51 58.8276H123.308L120.849 49.8352H120.672L118.213 58.8276H114.022Z" fill="#E8ECDF"/>
<path id="Vector_11" d="M137.569 59.0996C136.658 59.0996 135.842 58.9386 135.132 58.6222C134.416 58.3002 133.855 57.8284 133.444 57.1956C133.033 56.5628 132.822 55.7802 132.822 54.8365C132.822 54.0427 132.967 53.3766 133.261 52.8326C133.555 52.2887 133.949 51.8557 134.454 51.5282C134.96 51.2007 135.531 50.9509 136.175 50.7844C136.819 50.6179 137.491 50.5013 138.201 50.4291C139.034 50.3403 139.706 50.2626 140.211 50.1849C140.721 50.1072 141.088 49.9906 141.321 49.8352C141.548 49.6798 141.665 49.4522 141.665 49.1469V49.0914C141.665 48.503 141.482 48.0478 141.11 47.7203C140.738 47.3984 140.216 47.2374 139.539 47.2374C138.823 47.2374 138.257 47.3928 137.835 47.7092C137.413 48.0201 137.136 48.4142 136.997 48.886L133.328 48.5862C133.516 47.7148 133.883 46.9654 134.427 46.327C134.971 45.6887 135.681 45.2002 136.547 44.8561C137.413 44.5119 138.418 44.3398 139.561 44.3398C140.355 44.3398 141.115 44.4342 141.848 44.6174C142.581 44.8006 143.225 45.0948 143.797 45.4833C144.363 45.8719 144.812 46.377 145.14 46.9876C145.467 47.5982 145.634 48.3309 145.634 49.1802V58.8276H141.87V56.8459H141.759C141.532 57.2955 141.221 57.6841 140.838 58.0227C140.455 58.3613 139.989 58.6222 139.45 58.8165C138.912 59.0052 138.285 59.0996 137.58 59.0996H137.569ZM138.706 56.363C139.289 56.363 139.805 56.2464 140.25 56.0133C140.694 55.7801 141.049 55.4638 141.304 55.0696C141.56 54.6755 141.687 54.2204 141.687 53.7208V52.2054C141.565 52.2887 141.393 52.3608 141.182 52.4219C140.971 52.4829 140.727 52.544 140.46 52.5995C140.194 52.6495 139.928 52.6994 139.661 52.7383C139.395 52.7771 139.15 52.816 138.934 52.8437C138.468 52.9104 138.063 53.0214 137.713 53.1713C137.363 53.3211 137.097 53.521 136.902 53.7707C136.708 54.0205 136.614 54.3314 136.614 54.7088C136.614 55.2473 136.808 55.658 137.202 55.9411C137.596 56.2242 138.096 56.363 138.706 56.363Z" fill="#E8ECDF"/>
<path id="Vector_12" d="M148.703 58.8277V44.5287H152.55V47.0266H152.7C152.961 46.1384 153.4 45.4668 154.016 45.0116C154.632 44.5564 155.337 44.3289 156.136 44.3289C156.336 44.3289 156.547 44.34 156.78 44.3677C157.008 44.3899 157.213 44.4288 157.385 44.4676V47.9869C157.196 47.9314 156.941 47.8814 156.613 47.837C156.286 47.7926 155.981 47.7704 155.709 47.7704C155.126 47.7704 154.604 47.8981 154.149 48.1478C153.694 48.3976 153.333 48.7473 153.066 49.197C152.8 49.6466 152.672 50.1572 152.672 50.7401V58.8332H148.703V58.8277Z" fill="#E8ECDF"/>
<path id="Vector_13" d="M164.69 59.061C163.602 59.061 162.619 58.7779 161.742 58.2173C160.865 57.6566 160.172 56.8295 159.655 55.7305C159.145 54.637 158.889 53.2881 158.889 51.695C158.889 50.1019 159.156 48.692 159.683 47.604C160.21 46.5161 160.915 45.7001 161.792 45.1561C162.669 44.6121 163.635 44.3401 164.684 44.3401C165.484 44.3401 166.155 44.4734 166.688 44.7453C167.221 45.0173 167.66 45.3504 167.993 45.75C168.326 46.1497 168.576 46.5438 168.753 46.9268H168.875V39.7551H172.833V58.8223H168.92V56.5298H168.753C168.564 56.9295 168.304 57.318 167.965 57.7066C167.626 58.0951 167.188 58.4171 166.649 58.6724C166.111 58.9278 165.462 59.0554 164.69 59.0554V59.061ZM165.95 55.9081C166.588 55.9081 167.132 55.7305 167.576 55.3808C168.02 55.0311 168.359 54.537 168.603 53.9042C168.842 53.2715 168.964 52.5276 168.964 51.6784C168.964 50.8291 168.848 50.0908 168.609 49.4636C168.37 48.8363 168.032 48.3534 167.582 48.0092C167.138 47.6706 166.594 47.4986 165.95 47.4986C165.306 47.4986 164.751 47.6762 164.301 48.0314C163.857 48.3867 163.519 48.8752 163.286 49.5024C163.058 50.1297 162.941 50.8568 162.941 51.6839C162.941 52.511 163.058 53.2492 163.291 53.8876C163.524 54.5259 163.863 55.02 164.307 55.3752C164.751 55.7305 165.301 55.9081 165.95 55.9081Z" fill="#E8ECDF"/>
<path id="Vector_14" d="M187.976 48.6086L184.345 48.8306C184.284 48.5198 184.151 48.2367 183.946 47.9869C183.74 47.7371 183.474 47.5317 183.141 47.3818C182.808 47.232 182.414 47.1542 181.953 47.1542C181.337 47.1542 180.821 47.2819 180.399 47.5428C179.977 47.7981 179.766 48.1423 179.766 48.5697C179.766 48.9139 179.905 49.2025 180.177 49.4356C180.449 49.6688 180.921 49.8631 181.581 50.0018L184.168 50.5236C185.556 50.8067 186.594 51.2674 187.276 51.9002C187.959 52.533 188.303 53.3656 188.303 54.3981C188.303 55.3362 188.026 56.1577 187.482 56.8627C186.932 57.5732 186.183 58.1227 185.228 58.5168C184.273 58.9109 183.18 59.1052 181.936 59.1052C180.044 59.1052 178.534 58.7111 177.418 57.9173C176.297 57.1236 175.642 56.0467 175.448 54.6812L179.35 54.4758C179.466 55.0531 179.755 55.4916 180.205 55.7914C180.66 56.0911 181.237 56.241 181.948 56.241C182.658 56.241 183.202 56.1078 183.629 55.8358C184.057 55.5638 184.268 55.2141 184.279 54.7867C184.273 54.4259 184.118 54.1317 183.824 53.8985C183.53 53.6654 183.069 53.4878 182.447 53.3656L179.971 52.8716C178.573 52.5941 177.535 52.1056 176.857 51.4173C176.18 50.729 175.836 49.852 175.836 48.7806C175.836 47.8647 176.086 47.071 176.585 46.4049C177.085 45.7388 177.79 45.2281 178.7 44.8673C179.611 44.5065 180.676 44.3289 181.898 44.3289C183.702 44.3289 185.128 44.7119 186.166 45.4723C187.204 46.2383 187.815 47.2764 187.987 48.5919L187.976 48.6086Z" fill="#E8ECDF"/>
</g>
</g>
</svg>
