<svg width="140" height="141" viewBox="0 0 140 141" fill="none" xmlns="http://www.w3.org/2000/svg">
<g id="animation">
<mask id="mask0_506_4235" style="mask-type:alpha" maskUnits="userSpaceOnUse" x="0" y="0" width="140" height="141">
<rect id="Bounding box" y="0.680176" width="140" height="140" fill="#D9D9D9"/>
</mask>
<g mask="url(#mask0_506_4235)">
<path id="animation_2" d="M52.5 123.18C47.6087 123.18 43.0578 122.26 38.8471 120.421C34.6374 118.581 30.9468 116.075 27.7754 112.905C24.605 109.733 22.0996 106.043 20.2592 101.833C18.4197 97.6224 17.5 93.0714 17.5 88.1802C17.5 81.2774 19.336 74.9244 23.0081 69.1212C26.6802 63.318 31.7095 59.014 38.096 56.2091C39.8908 52.1929 42.2596 48.7133 45.2025 45.7704C48.1454 42.8275 51.5876 40.4961 55.529 38.7762C58.2881 32.5394 62.5061 27.5475 68.1829 23.8006C73.8588 20.0536 80.2978 18.1802 87.5 18.1802C92.3913 18.1802 96.9422 19.0999 101.153 20.9393C105.363 22.7798 109.053 25.2852 112.225 28.4556C115.395 31.627 117.9 35.3175 119.741 39.5273C121.58 43.738 122.5 48.2889 122.5 53.1802C122.5 60.397 120.683 66.7913 117.049 72.3631C113.414 77.9349 108.365 82.1976 101.904 85.1512C100.109 89.1675 97.7589 92.6281 94.8529 95.5331C91.9479 98.4391 88.4873 100.789 84.471 102.584C81.6662 108.821 77.437 113.813 71.7835 117.56C66.1301 121.307 59.7022 123.18 52.5 123.18ZM52.7246 117.347C57.0549 117.347 61.3944 116.3 65.7431 114.206C70.0919 112.111 73.5301 109.045 76.0579 105.006C70.1196 106.054 64.5031 105.639 59.2083 103.762C53.9136 101.885 49.3442 99.0618 45.5 95.2925C41.6558 91.4483 38.7951 86.8973 36.9177 81.6396C35.0413 76.3827 34.6267 70.7852 35.6737 64.8468C31.71 67.4495 28.6621 70.8693 26.53 75.1062C24.3989 79.3422 23.3333 83.7002 23.3333 88.1802C23.3333 92.2635 24.1111 96.0737 25.6667 99.6106C27.2222 103.149 29.3125 106.23 31.9375 108.855C34.6374 111.48 37.7558 113.551 41.2927 115.069C44.8306 116.588 48.6413 117.347 52.7246 117.347ZM70 99.8468C75.6019 99.8468 80.4203 98.5757 84.455 96.0333C88.4897 93.49 91.5464 90.6477 93.625 87.5064C87.6643 88.5535 82.0366 88.133 76.7419 86.245C71.4471 84.3569 66.8777 81.5282 63.0335 77.7589C59.1894 73.9148 56.3233 69.3638 54.4352 64.106C52.5472 58.8492 52.1267 53.2405 53.1738 47.2798C49.8079 49.583 46.9472 52.7709 44.5915 56.8435C42.2358 60.9152 41.0579 65.5274 41.0579 70.6802C41.0579 74.7635 41.8114 78.5552 43.3183 82.0552C44.8253 85.5552 46.9024 88.6177 49.5498 91.2427C52.1748 93.9649 55.2183 96.0795 58.6804 97.5864C62.1435 99.0934 65.9167 99.8468 70 99.8468ZM87.7246 82.3468C89.4746 82.3468 91.1517 82.201 92.7558 81.9093C94.36 81.6177 95.9885 81.1802 97.6413 80.5968C99.7801 74.7635 100.096 69.1489 98.5892 63.7531C97.0822 58.3573 94.4815 53.8121 90.7871 50.1177C87.0926 46.4232 82.5475 43.8225 77.1517 42.3156C71.7558 40.8087 66.1413 41.1246 60.3079 43.2635C59.7246 44.9163 59.2871 46.5448 58.9954 48.1489C58.7038 49.7531 58.5579 51.4302 58.5579 53.1802C58.5579 57.2635 59.3114 61.0552 60.8183 64.5552C62.3253 68.0552 64.4399 71.1177 67.1621 73.7427C69.7871 76.4649 72.8496 78.5795 76.3496 80.0864C79.8496 81.5934 83.6413 82.3468 87.7246 82.3468ZM104.551 76.5806C108.29 74.0528 111.244 70.8839 113.413 67.0737C115.582 63.2636 116.667 58.6324 116.667 53.1802C116.667 49.0968 115.913 45.3052 114.406 41.8052C112.899 38.3052 110.785 35.2427 108.063 32.6177C105.438 29.8955 102.375 27.7809 98.875 26.2739C95.375 24.767 91.5833 24.0135 87.5 24.0135C82.5271 24.0135 78.0719 25.1165 74.1344 27.3225C70.1969 29.5284 66.8519 32.5389 64.0996 36.3539C70.0603 35.3068 75.688 35.7273 80.9827 37.6154C86.2774 39.5034 90.8469 42.3321 94.691 46.1014C98.5352 49.9456 101.401 54.4966 103.289 59.7543C105.177 65.0112 105.598 70.6199 104.551 76.5806Z" fill="#888F77"/>
</g>
</g>
</svg>
