<svg width="132" height="67" viewBox="0 0 132 67" fill="none" xmlns="http://www.w3.org/2000/svg">
<g id="Group">
<g id="F3fHzQ.tif">
<g id="Group_2">
<path id="Vector" d="M67.3538 9.40387C67.4743 9.53006 67.5719 9.68492 67.7095 9.78243C69.327 10.878 70.7552 12.1513 71.8392 13.7974C72.2006 14.3481 72.6422 14.8471 72.9978 15.3977C73.2273 15.7533 73.3878 16.1548 73.537 16.5506C73.8639 17.4052 74.1736 18.2656 74.4661 19.1317C74.5866 19.493 74.7071 19.8716 74.7358 20.2444C74.8275 21.5063 74.9938 22.7796 74.9135 24.0357C74.839 25.2345 74.5579 26.4275 74.2482 27.5919C73.9614 28.6702 73.6345 29.7657 73.1297 30.7522C72.2694 32.4386 71.1739 33.9757 69.7113 35.2376C68.4953 36.2815 67.1818 37.1533 65.7249 37.7842C64.7957 38.1857 63.8034 38.4209 62.8398 38.7478C60.362 39.5853 57.7924 39.2182 55.2629 39.2641C52.527 39.3157 49.7796 39.1666 47.0494 39.3042C45.3057 39.396 43.5621 39.3788 41.8242 39.4075C41.0269 39.4189 40.2124 39.3903 39.4438 39.2067C38.8129 39.0576 38.2221 38.6848 37.6428 38.3521C36.8914 37.9219 36.3006 37.2738 35.8934 36.5281C35.1994 35.2433 35.0445 33.8323 35.0961 32.3755C35.1535 30.9128 35.1018 29.4502 35.1076 27.9876C35.1076 26.6397 35.1191 25.2976 35.1191 23.9497C35.1191 22.0511 35.1018 20.1469 35.1018 18.2484C35.1018 16.4359 35.0847 14.6176 35.1478 12.8052C35.1879 11.5892 35.5148 10.4478 36.2547 9.41534C36.966 8.41732 37.8722 7.69462 38.9677 7.25297C39.7707 6.93177 40.654 6.79411 41.4857 7.20709C41.6979 7.31606 41.8299 7.65447 41.9159 7.91258C42.1224 8.52057 41.5775 9.26048 40.9408 9.28342C40.8261 9.28342 40.7 9.3121 40.591 9.28342C39.9084 9.12282 39.3577 9.50711 38.8932 9.85126C38.4286 10.1954 37.9812 10.5969 37.7059 11.2106C37.465 11.7498 37.4306 12.2545 37.4306 12.7937C37.4248 14.8872 37.4306 16.9808 37.4306 19.0743C37.4248 22.6591 37.4191 26.244 37.3904 29.8288C37.3847 30.9817 37.2987 32.1288 37.2929 33.2817C37.2929 34.1076 37.5052 34.8934 37.9468 35.5989C38.5261 36.5224 39.2947 37.0157 40.4762 37.0099C46.9633 36.964 53.4505 36.9755 59.9433 36.987C60.9184 36.987 61.8303 36.7461 62.7652 36.4937C63.8608 36.2012 64.8588 35.7194 65.8282 35.186C66.9524 34.5665 67.9561 33.7979 68.8567 32.8573C69.8432 31.8306 70.6749 30.7236 71.2886 29.456C71.627 28.7619 71.8679 28.0163 72.103 27.2764C72.6594 25.5442 72.7856 23.7489 72.648 21.9536C72.5505 20.6803 72.3038 19.4299 71.8449 18.2082C70.9272 15.7705 69.3614 13.8548 67.3367 12.2832C66.5738 11.6924 65.7306 11.1819 64.876 10.7174C64.2049 10.3503 63.4765 10.0635 62.7423 9.83978C62.0885 9.63903 61.3944 9.54153 60.7119 9.45549C59.9949 9.36372 59.2722 9.30063 58.5552 9.28916C58.1709 9.28916 57.7178 8.65249 57.7006 8.26246C57.6777 7.68889 58.0333 7.17841 58.5094 7.14973C59.364 7.09237 60.2186 7.02928 61.0732 7.01781C61.5894 7.01207 62.1056 7.10958 62.6276 7.13826C62.9373 7.15546 63.1152 7.14399 63.1037 6.67366C63.0578 5.32577 63.0865 3.97213 63.184 2.62424C63.2356 1.92448 63.7117 1.38532 64.3197 1.04118C64.8129 0.760128 65.3463 0.50202 65.9429 0.806013C66.0117 0.840428 66.1149 0.811749 66.2067 0.811749C68.696 0.811749 71.1853 0.817485 73.6746 0.806013C74.0761 0.806013 74.4719 0.70277 74.8734 0.679827C75.7051 0.628206 76.6859 1.30502 77.0989 2.18832C77.3972 2.81925 77.3685 3.4043 77.3799 4.02376C77.3971 4.94721 77.3857 5.87066 77.3799 6.78838C77.3799 7.01207 77.4086 7.13826 77.6781 7.14973C78.8081 7.19561 79.7775 7.64874 80.655 8.34276C80.8271 8.48042 81.0909 8.56645 81.3089 8.56645C86.9471 8.57219 92.5853 8.56645 98.2236 8.56645C98.3842 8.56645 98.539 8.56645 98.7627 8.56645C98.7627 9.20885 98.7742 9.81684 98.7513 10.4248C98.7513 10.5051 98.5964 10.6198 98.4989 10.6485C98.3497 10.6887 98.1777 10.6657 98.0171 10.6657C92.9065 10.6657 87.796 10.6657 82.6797 10.66C82.2381 10.66 82.2495 10.7059 82.347 11.1246C82.479 11.7096 82.5937 12.3176 82.5994 12.9199C82.6281 15.1568 82.6109 17.3995 82.6109 19.6364C82.6109 20.3534 82.6109 21.0703 82.6109 21.7873C82.6109 22.3609 82.8862 22.5788 83.477 22.5157C84.0506 22.4527 84.6299 22.3838 85.2035 22.3896C86.1155 22.401 87.0274 22.51 87.9394 22.5043C89.1611 22.5043 90.377 22.401 91.5988 22.3896C92.2928 22.3838 92.9868 22.51 93.6751 22.5043C94.5756 22.5043 95.4704 22.4297 96.3652 22.3781C96.6921 22.3551 96.8527 22.4412 96.8355 22.8083C96.8068 23.3474 96.8297 23.8866 96.8297 24.4946C96.6405 24.4946 96.4742 24.4946 96.3021 24.4946C91.9544 24.4946 87.601 24.4946 83.2533 24.4946C82.6683 24.4946 82.6109 24.5519 82.6109 25.1542C82.6109 28.0565 82.5937 30.953 82.6167 33.8553C82.6281 34.9106 82.3356 35.8513 81.8079 36.7461C81.7219 36.8895 81.6989 37.0673 81.6243 37.3024C82.1348 37.3024 82.5421 37.3024 82.9493 37.3024C86.5399 37.2967 90.1247 37.2852 93.7153 37.2795C95.2238 37.2795 96.7323 37.3024 98.2408 37.2967C98.6021 37.2967 98.7513 37.4516 98.7398 37.79C98.7283 38.1915 98.7283 38.5987 98.6595 38.9887C98.6423 39.0977 98.4013 39.2469 98.2579 39.2469C96.9559 39.2698 95.6539 39.2641 94.3462 39.2641C89.0005 39.2641 83.6548 39.2641 78.3091 39.2698C77.8445 39.2698 77.3856 39.3788 76.9211 39.4189C76.4048 39.4591 76.0377 39.178 75.814 38.7536C75.4814 38.1284 76.032 37.3713 76.7949 37.2738C77.3742 37.1992 77.9764 37.1132 78.4984 36.8723C79.2612 36.5224 79.8578 35.9775 80.1101 35.0999C80.2994 34.4403 80.5116 33.8266 80.3395 33.1154C80.2478 32.7425 80.4198 32.3124 80.4198 31.9109C80.4256 27.2248 80.4198 22.5387 80.4198 17.8526C80.4198 16.2695 80.4141 14.6865 80.4198 13.0977C80.4256 12.2029 80.2822 11.3425 79.7316 10.6198C79.3071 10.0577 78.7679 9.58168 78.0452 9.45549C77.4545 9.35225 76.8408 9.28916 76.2385 9.28916C73.428 9.26621 70.6232 9.27195 67.8127 9.27195C67.6808 9.27195 67.5489 9.28916 67.4227 9.29489C67.3883 9.3293 67.3481 9.36945 67.3137 9.40387H67.3538ZM65.2661 7.05796C65.7823 7.08663 66.2641 7.13252 66.7459 7.12679C67.4399 7.11531 68.1282 7.05796 68.8165 7.03501C69.2237 7.01781 69.6252 7.02354 70.0324 7.03501C70.3651 7.04075 70.6978 7.07516 71.0304 7.0809C71.3689 7.08664 71.7073 7.06943 72.0457 7.07516C72.7512 7.08664 73.4796 7.0006 74.1507 7.14973C74.9136 7.31606 75.2577 7.1612 75.2634 6.38688C75.2749 5.45769 75.2921 4.52276 75.3036 3.59358C75.3093 3.12898 75.0226 2.80205 74.5924 2.80205C71.7073 2.80205 68.8222 2.80205 65.9371 2.80205C65.5241 2.80205 65.2603 3.06589 65.2603 3.47886C65.2603 4.63174 65.2603 5.79036 65.2603 7.06369L65.2661 7.05796Z" fill="#E8ECDF"/>
<path id="Vector_2" d="M131.76 39.3784C130.952 39.3784 130.149 39.4185 129.357 39.3497C129.179 39.3325 128.984 38.9425 128.881 38.6958C128.634 38.0878 128.451 37.4627 128.227 36.8489C127.849 35.7936 127.47 34.7324 127.08 33.6828C126.742 32.7766 126.397 31.8818 126.025 30.987C125.984 30.8838 125.761 30.8035 125.617 30.8035C121.367 30.7977 117.123 30.7977 112.873 30.8035C112.815 30.8035 112.758 30.8035 112.695 30.8035C111.789 30.8035 111.811 30.8092 111.519 31.6696C111.158 32.7249 110.756 33.7574 110.378 34.807C110.108 35.5584 109.856 36.3155 109.575 37.0669C109.305 37.7839 109.018 38.4951 108.72 39.1948C108.674 39.2981 108.502 39.4128 108.381 39.4128C107.682 39.4357 106.982 39.4243 106.254 39.4243C106.122 38.8163 106.489 38.3517 106.661 37.8412C106.919 37.0726 107.2 36.3155 107.492 35.5584C107.762 34.8586 108.066 34.1703 108.336 33.4706C108.64 32.6733 108.921 31.8703 109.213 31.0731C109.523 30.2299 109.821 29.381 110.148 28.5436C110.401 27.8955 110.704 27.2703 110.957 26.6279C111.209 25.974 111.427 25.3086 111.668 24.649C111.978 23.8116 112.293 22.9742 112.603 22.1368C112.878 21.3911 113.148 20.6455 113.429 19.8999C113.825 18.8674 114.238 17.8407 114.633 16.814C114.989 15.9021 115.333 14.9901 115.677 14.0724C116.274 12.4836 116.859 10.8948 117.45 9.30023C117.478 9.21993 117.49 9.12816 117.501 9.04212C117.53 8.73239 117.673 8.58326 118.012 8.60047C118.436 8.62341 118.866 8.65783 119.285 8.59473C119.847 8.5087 120.145 8.72092 120.306 9.24861C120.472 9.7935 120.662 10.3327 120.862 10.8661C121.017 11.2791 121.224 11.6691 121.384 12.0821C121.734 12.9826 122.061 13.8888 122.4 14.7893C122.652 15.4661 122.91 16.1487 123.168 16.8255C123.495 17.6859 123.834 18.5462 124.16 19.4123C124.43 20.1293 124.688 20.852 124.952 21.5689C125.095 21.9532 125.239 22.3318 125.388 22.7104C125.893 24.0124 126.392 25.3201 126.908 26.6164C127.103 27.1154 127.373 27.5857 127.556 28.0847C127.877 28.9508 128.135 29.8399 128.457 30.706C128.892 31.8761 129.38 33.0289 129.816 34.1933C130.263 35.3921 130.682 36.6023 131.118 37.8011C131.313 38.3287 131.531 38.8507 131.743 39.3899L131.76 39.3784ZM112.678 28.6927C114.679 28.6927 116.549 28.6927 118.419 28.6927C120.438 28.6927 122.457 28.6813 124.476 28.687C124.797 28.687 124.952 28.5665 124.906 28.2453C124.877 28.0618 124.837 27.8725 124.774 27.6947C124.476 26.9204 124.143 26.1575 123.856 25.3717C123.438 24.2074 123.053 23.0316 122.64 21.8672C122.474 21.4026 122.245 20.961 122.073 20.4964C121.872 19.9343 121.717 19.355 121.516 18.7986C121.247 18.0587 120.931 17.3417 120.667 16.6018C120.398 15.839 120.18 15.0589 119.91 14.296C119.652 13.5619 119.36 12.8392 119.079 12.1165C119.05 12.0362 118.97 11.9788 118.912 11.9042C118.849 11.9673 118.752 12.0132 118.723 12.0878C118.476 12.7015 118.235 13.321 118.012 13.9404C117.679 14.8581 117.364 15.7873 117.025 16.7051C116.727 17.5195 116.394 18.3225 116.096 19.137C115.729 20.1522 115.385 21.1789 115.024 22.1999C114.668 23.1979 114.312 24.2016 113.945 25.1997C113.848 25.4635 113.727 25.7216 113.63 25.9912C113.377 26.691 113.125 27.3907 112.878 28.0905C112.815 28.2683 112.758 28.4518 112.672 28.7042L112.678 28.6927Z" fill="#E8ECDF"/>
<path id="Vector_3" d="M19.3573 16.6594C19.1565 17.1871 18.9787 17.6288 18.8124 18.0819C18.5887 18.6956 18.3822 19.3151 18.1528 19.9231C17.9807 20.3876 17.7742 20.835 17.5964 21.2996C17.0974 22.6246 16.6041 23.9553 16.1051 25.286C15.652 26.5019 15.1988 27.7179 14.74 28.9339C14.3786 29.8975 13.9944 30.8553 13.6445 31.8247C13.3233 32.7252 13.0594 33.6486 12.721 34.5434C12.3597 35.4956 11.9123 36.4133 11.5452 37.3597C11.3215 37.939 11.1781 38.547 10.9774 39.132C10.9372 39.2467 10.811 39.4131 10.7135 39.4188C10.1571 39.4475 9.58362 39.5163 9.05593 39.3958C8.83224 39.3442 8.66014 38.8911 8.52822 38.5928C8.29879 38.0766 8.11522 37.5375 7.9202 37.004C7.58753 36.0921 7.28356 35.1686 6.93941 34.2566C6.76734 33.815 6.50927 33.402 6.33146 32.9604C6.06762 32.3065 5.85539 31.6411 5.60876 30.9815C5.36785 30.3449 5.10973 29.7139 4.87457 29.083C4.46733 27.9932 4.07731 26.8977 3.66434 25.8136C3.28004 24.8042 2.86704 23.8061 2.48274 22.7967C2.17875 21.9994 1.90342 21.1906 1.6109 20.3934C1.28396 19.4871 0.945567 18.5866 0.61863 17.6804C0.503916 17.3649 0.412186 17.0437 0.303207 16.6881H2.73515C3.06782 17.6058 3.38324 18.4719 3.69297 19.3437C3.97976 20.1295 4.25507 20.9211 4.54759 21.7069C4.89173 22.6533 5.25312 23.5939 5.59153 24.5403C5.83243 25.2057 6.0389 25.8767 6.29127 26.5363C6.60674 27.3508 6.9738 28.1481 7.27206 28.974C7.64488 29.9835 7.96039 31.0045 8.316 32.0197C8.67162 33.0292 9.03872 34.0272 9.4058 35.031C9.49758 35.2833 9.61225 35.5357 9.72697 35.7766C9.75565 35.834 9.85892 35.9028 9.90481 35.8913C9.9679 35.8798 10.031 35.7938 10.0597 35.725C10.4669 34.595 10.8742 33.4651 11.2699 32.3294C11.5338 31.5608 11.7632 30.7808 12.027 30.0179C12.1876 29.5591 12.3884 29.1117 12.5547 28.6528C12.8472 27.8498 13.1226 27.0411 13.4151 26.2381C13.6273 25.653 13.8682 25.0737 14.0747 24.483C14.3844 23.5997 14.6827 22.7106 14.9867 21.8216C15.2505 21.053 15.5144 20.2844 15.7839 19.5216C16.1166 18.5809 16.4664 17.646 16.8163 16.6766H19.3401L19.3573 16.6594Z" fill="#E8ECDF"/>
<path id="Vector_4" d="M26.7507 39.3844V8.59497C27.3586 8.59497 27.8863 8.59497 28.4198 8.59497C29.1138 8.59497 29.1883 8.66954 29.2285 9.37503C29.2285 9.43239 29.2285 9.48974 29.2285 9.55284C29.2285 19.2749 29.2285 28.997 29.2342 38.7133C29.2342 39.2696 29.0678 39.4073 28.5 39.3901C27.9494 39.3729 27.3931 39.3901 26.7507 39.3901V39.3844Z" fill="#E8ECDF"/>
<path id="Vector_5" d="M116.32 59.5857C116.067 60.1019 115.809 60.6181 115.563 61.1343C115.104 62.1094 114.645 63.0902 114.203 64.071C113.882 64.788 113.601 65.5222 113.274 66.2391C113.217 66.3653 113.022 66.4342 112.781 66.6062C111.708 64.2718 110.653 61.9718 109.603 59.6775C109.54 59.6947 109.477 59.7061 109.408 59.7234C109.408 60.0904 109.408 60.4518 109.408 60.8189C109.414 62.5625 109.425 64.3005 109.42 66.0441C109.42 66.2219 109.293 66.3997 109.225 66.5776C109.173 66.5776 109.127 66.5718 109.076 66.5661C109.012 66.4514 108.898 66.3366 108.898 66.2219C108.886 63.7212 108.892 61.2204 108.892 58.7253C109.563 58.5189 109.689 58.5877 109.959 59.1785C110.32 59.9585 110.733 60.7214 111.083 61.5072C111.439 62.3044 111.731 63.1304 112.07 63.9334C112.219 64.289 112.402 64.6274 112.569 64.9715C112.649 65.1379 112.718 65.3042 112.844 65.5853C112.987 65.4017 113.142 65.2641 113.222 65.0863C113.555 64.3636 113.871 63.6351 114.186 62.9067C114.599 61.9488 115.001 60.9852 115.414 60.0273C115.591 59.6258 115.781 59.2301 115.987 58.8401C116.188 58.4615 116.561 58.6278 116.847 58.6508C116.939 58.6565 117.077 58.9548 117.077 59.1211C117.065 60.1593 117.008 61.1917 116.991 62.2299C116.974 63.5089 116.991 64.788 116.968 66.0728C116.968 66.2334 116.83 66.5202 116.75 66.5259C116.446 66.5374 116.412 66.2736 116.412 66.0327C116.417 64.3177 116.429 62.6084 116.434 60.8934C116.434 60.4633 116.434 60.0388 116.434 59.6086C116.389 59.6029 116.343 59.5914 116.303 59.5857H116.32Z" fill="#E8ECDF"/>
<path id="Vector_6" d="M91.3235 53.5114C91.0653 53.2074 90.8474 53.0353 90.7384 52.8059C90.2394 51.7448 89.7691 50.6665 89.2873 49.5996C88.9604 48.8769 88.6219 48.1542 88.295 47.4258C88.1573 47.116 88.0369 46.8006 87.905 46.4851L87.7271 46.531V53.3508H87.1938V45.4011H87.9968C89.0407 47.747 90.0616 50.1273 91.1858 52.4675C91.2317 52.456 91.2718 52.4388 91.3177 52.4273C92.3559 50.0929 93.3941 47.7642 94.4437 45.4125C94.4437 45.4125 94.4724 45.3953 94.5011 45.3896C95.3098 45.3265 95.3041 45.3265 95.3041 46.1295C95.3041 48.4295 95.327 50.7238 95.3155 53.0238C95.3155 53.1386 95.1492 53.2533 95.0574 53.3737C94.9542 53.2705 94.7591 53.1672 94.7591 53.0583C94.7362 51.7849 94.7363 50.5116 94.7363 49.244C94.7363 48.3435 94.7363 47.443 94.7363 46.3933C94.5584 46.5769 94.4437 46.6572 94.3921 46.7662C94.0422 47.5348 93.7095 48.3148 93.3597 49.0891C92.8607 50.1847 92.3559 51.2744 91.8569 52.3642C91.6963 52.7084 91.5414 53.0583 91.3292 53.5114H91.3235Z" fill="#E8ECDF"/>
<path id="Vector_7" d="M100.747 65.5394C101.017 64.9372 101.229 64.4267 101.47 63.9334C102.112 62.6257 102.766 61.3236 103.409 60.0102C103.541 59.7406 103.609 59.4309 103.741 59.1613C104.04 58.5533 104.085 58.5418 104.871 58.6909V60.6812C104.871 62.4823 104.86 64.2833 104.877 66.0843C104.877 66.4801 104.762 66.6349 104.303 66.4973V59.5915C104.258 59.58 104.212 59.5628 104.166 59.5513C103.988 59.8725 103.787 60.1822 103.638 60.5149C103.368 61.1114 103.133 61.7251 102.869 62.3274C102.537 63.0845 102.198 63.8359 101.848 64.5815C101.59 65.1322 101.327 65.6771 101.04 66.2105C100.988 66.308 100.816 66.394 100.707 66.3883C100.581 66.3883 100.397 66.3023 100.351 66.199C100.151 65.7688 100.007 65.31 99.8009 64.8798C99.5083 64.2546 99.1642 63.6523 98.8717 63.0272C98.5275 62.293 98.2236 61.5416 97.8794 60.8017C97.7131 60.4346 97.5066 60.0847 97.214 59.7463V66.3424C97.0248 66.394 96.8699 66.4399 96.6749 66.4915C96.6634 66.3596 96.6462 66.2449 96.6462 66.1302C96.6405 63.9506 96.6405 61.771 96.629 59.5857C96.629 59.3792 96.5487 59.1727 96.5315 58.9605C96.5201 58.8687 96.5315 58.7426 96.5889 58.6909C96.7954 58.4959 97.4664 58.6508 97.5754 58.9146C97.8163 59.4825 98.0343 60.0675 98.2866 60.6296C98.5103 61.1286 98.7914 61.6047 99.0151 62.1037C99.4739 63.1132 99.9098 64.1399 100.374 65.1494C100.443 65.2985 100.61 65.396 100.742 65.5279L100.747 65.5394Z" fill="#E8ECDF"/>
<path id="Vector_8" d="M19.386 58.7422C19.1107 59.7803 18.8238 60.8185 18.5485 61.8681C18.3535 62.6138 18.1929 63.3652 17.9864 64.1108C17.866 64.5582 17.6882 64.9884 17.5448 65.43C17.4587 65.6996 17.4186 65.9921 17.3039 66.2502C17.258 66.342 17.0458 66.4051 16.9196 66.3993C16.8106 66.3936 16.6443 66.2846 16.6156 66.1871C16.3575 65.344 16.128 64.4836 15.8756 63.6405C15.7208 63.1242 15.5316 62.6195 15.3652 62.109C15.1301 61.3806 14.9063 60.6407 14.6654 59.9122C14.6253 59.7918 14.5278 59.7 14.4016 59.5107C14.2295 60.1531 14.1034 60.7095 13.937 61.2429C13.7133 61.9656 13.4495 62.6711 13.2086 63.3881C13.1111 63.6806 13.0308 63.9789 12.9333 64.2714C12.6981 64.9425 12.463 65.6193 12.2163 66.2846C12.1762 66.3879 12.0557 66.4624 11.8779 66.646C11.7287 66.342 11.5739 66.1126 11.4993 65.8602C11.2011 64.8851 10.9142 63.91 10.6504 62.9292C10.4439 62.1721 10.2891 61.3978 10.0883 60.6349C9.96786 60.1704 9.79005 59.723 9.65239 59.2641C9.59503 59.0748 9.57785 58.8798 9.5377 58.6504C9.74419 58.6389 9.88757 58.6332 10.0941 58.6274C10.6963 60.8701 11.3043 63.1128 11.9295 65.43C12.0328 65.3325 12.1647 65.2694 12.1991 65.1719C12.4343 64.4894 12.6636 63.8068 12.8759 63.1185C13.0651 62.4933 13.2028 61.8567 13.3921 61.2315C13.6502 60.3883 13.9313 59.5566 14.2066 58.7135C14.7056 58.5529 14.8375 58.6389 15.0096 59.2125C15.2448 59.9868 15.4914 60.7611 15.7266 61.5355C15.9101 62.1377 16.0764 62.7457 16.2485 63.3479C16.4378 64.0018 16.6213 64.6614 16.8163 65.3153C16.8335 65.3727 16.9024 65.4128 16.9941 65.5218C17.1203 65.1031 17.2465 64.7532 17.3325 64.3861C17.4645 63.8412 17.5505 63.2849 17.6939 62.7457C17.8373 62.1951 18.038 61.6616 18.1929 61.1167C18.3879 60.4285 18.5715 59.7344 18.7321 59.0404C18.8181 58.6619 18.9385 58.5816 19.3974 58.7479L19.386 58.7422Z" fill="#E8ECDF"/>
<path id="Vector_9" d="M63.8665 64.5815C63.8321 63.8014 64.2738 63.2852 64.8301 62.8321C65.0194 62.6772 65.2316 62.551 65.375 62.3617C65.4496 62.2585 65.4553 62.0291 65.398 61.9086C65.2259 61.5759 64.9792 61.2834 64.8072 60.9507C64.5491 60.4575 64.5032 59.9872 64.8416 59.448C65.0366 59.1325 65.2373 58.8629 65.5241 58.7023C66.2239 58.3066 66.9351 58.3754 67.6005 58.8113C68.3232 59.2817 68.5411 60.1994 68.0421 60.8704C67.807 61.1859 67.4227 61.3924 67.1072 61.6448C67.0269 61.7079 66.9408 61.7652 66.8605 61.8226C66.3099 62.2183 66.3329 62.2069 66.8089 62.7001C67.371 63.2795 67.893 63.8989 68.4321 64.4954C68.5296 64.6044 68.6501 64.6962 68.7648 64.7937C68.891 64.6446 69.0746 64.5184 69.1319 64.3463C69.2466 64.0136 69.2638 63.6465 69.3728 63.3081C69.4187 63.159 69.5908 63.05 69.7055 62.9238C69.7858 63.0672 69.9177 63.2049 69.9292 63.354C69.9693 63.9391 69.6768 64.4323 69.4187 64.9199C69.2696 65.2009 69.2867 65.3902 69.5104 65.6024C69.6768 65.7573 69.8374 65.9236 69.9578 66.1129C70.0267 66.2161 70.0037 66.3767 70.0267 66.5087C69.9005 66.4857 69.7513 66.4915 69.6538 66.4284C69.4817 66.3137 69.3269 66.1588 69.1893 66.0039C68.9713 65.7573 68.7075 65.7401 68.4723 65.9122C67.6808 66.4915 66.7917 66.675 65.851 66.5488C64.9792 66.4284 64.3368 65.9179 63.9296 65.1436C63.8493 64.9887 63.8894 64.7707 63.878 64.5815H63.8665ZM66.0002 62.5281C65.8396 62.6084 65.7536 62.6485 65.6675 62.7001C65.0481 63.0615 64.6351 63.6121 64.4458 64.2717C64.2336 65.0116 65.1054 66.0441 65.8855 66.0613C66.6197 66.0785 67.3538 66.1645 68.0249 65.6999C68.3174 65.4992 68.4666 65.287 68.2486 65.0059C68.0937 64.7994 67.8987 64.6274 67.7266 64.4381C67.1473 63.7957 66.5623 63.159 66.0002 62.5338V62.5281ZM65.2603 60.1535C65.2603 60.7672 65.4954 61.2892 65.9543 61.6964C66.0346 61.7652 66.2354 61.8054 66.3157 61.7595C66.6024 61.5817 66.8606 61.3637 67.1244 61.1458C67.7267 60.641 67.9274 60.0216 67.6635 59.5111C67.4571 59.1153 66.763 58.7826 66.35 58.8802C65.6732 59.0465 65.266 59.5283 65.266 60.1592L65.2603 60.1535Z" fill="#E8ECDF"/>
<path id="Vector_10" d="M100.707 46.061V48.9862H104.648C104.659 49.1755 104.665 49.3303 104.676 49.5082H100.684C100.684 50.5521 100.661 51.573 100.701 52.5882C100.713 52.8062 100.856 53.1848 101.298 52.9094C101.458 52.8062 101.728 52.8578 101.946 52.8521C102.944 52.8521 103.936 52.8521 104.934 52.8521C105.049 52.8521 105.181 52.8693 105.261 52.9266C105.324 52.9725 105.365 53.1274 105.33 53.1905C105.29 53.2708 105.164 53.3568 105.078 53.3626C103.862 53.374 102.646 53.3683 101.43 53.3683C101.149 53.3683 100.868 53.3683 100.587 53.3683C100.042 53.3683 100.013 53.3454 100.013 52.8062C100.013 50.5635 100.013 48.3266 100.013 46.0839C100.013 45.866 100.013 45.6537 100.013 45.4014H105.324C105.41 45.7512 105.319 45.9635 104.923 45.9692C103.867 45.9807 102.812 46.038 101.763 45.9692C101.39 45.9405 101.051 45.8602 100.707 46.0667V46.061Z" fill="#E8ECDF"/>
<path id="Vector_11" d="M21.7319 45.3726C23.3837 45.3726 25.0184 45.3726 26.6531 45.384C26.7563 45.384 26.9055 45.5676 26.9399 45.6938C27.003 45.9175 26.8538 45.992 26.6359 45.992C25.5403 45.9863 24.4391 45.992 23.3436 45.9805C23.2518 45.9805 23.16 45.9232 23.0683 45.8888C22.684 45.7454 22.3857 45.9519 22.3857 46.3591C22.3857 47.2195 22.3857 48.0798 22.3857 48.9918H26.2631V49.508H22.3857C22.3857 50.5749 22.3742 51.5958 22.4029 52.611C22.4029 52.7028 22.661 52.8577 22.8044 52.8577C23.8713 52.8692 24.9381 52.8519 26.0107 52.8462C26.2286 52.8462 26.4524 52.8347 26.6703 52.8634C26.7736 52.8749 26.8653 52.9724 26.9628 53.0355C26.8825 53.1445 26.8252 53.2764 26.7219 53.351C26.6531 53.4026 26.5212 53.3739 26.4236 53.3739C25.1503 53.3739 23.877 53.3854 22.6037 53.3739C22.3284 53.3739 22.0588 53.2993 21.7376 53.2592V45.384L21.7319 45.3726Z" fill="#E8ECDF"/>
<path id="Vector_12" d="M77.6265 49.026C77.529 49.9495 77.5463 50.6263 77.3627 51.24C77.1505 51.9512 76.7203 52.5477 76.0091 52.9378C75.143 53.4196 74.2253 53.5113 73.3019 53.3507C72.2006 53.1615 71.128 51.7619 71.0764 50.6377C71.0477 50.0355 70.9329 49.4332 70.9444 48.831C70.9731 47.8617 71.2369 46.9325 71.9539 46.2499C72.7684 45.4756 73.6919 44.9651 74.9193 45.3322C75.8944 45.6247 76.7088 46.1237 77.1218 47.0242C77.4373 47.7125 77.5004 48.5098 77.6208 49.0203L77.6265 49.026ZM76.8924 49.2956C76.9784 48.4352 76.9211 47.5577 76.3417 46.8005C75.9919 46.3359 75.5847 46.0377 74.9423 45.9459C74.3113 45.8541 73.732 45.7796 73.1355 46.0205C72.2809 46.3589 71.7818 47.0472 71.6671 47.8903C71.5409 48.808 71.5983 49.7602 71.6442 50.6894C71.6672 51.2171 71.908 51.7103 72.2694 52.1061C72.8831 52.7714 73.6689 52.9492 74.5637 52.9034C75.5216 52.8575 76.1238 52.3814 76.5597 51.5899C76.944 50.8844 76.944 50.1158 76.8924 49.2956Z" fill="#E8ECDF"/>
<path id="Vector_13" d="M51.6953 53.3623V45.4068C51.7928 45.3954 51.9018 45.3724 52.0107 45.3724C52.8309 45.3724 53.6684 45.2692 54.4656 45.4011C55.1367 45.5158 55.7963 45.8428 56.3928 46.1926C57.018 46.5597 57.4482 47.1734 57.5457 47.9076C57.6547 48.7221 57.7924 49.5595 57.6891 50.3625C57.5285 51.59 56.8517 52.5363 55.6472 53.0354C54.7811 53.3967 53.8749 53.3852 52.9629 53.3623C52.5499 53.3508 52.1427 53.3623 51.6953 53.3623ZM52.332 52.8461C52.8711 52.8461 53.3358 52.8346 53.8003 52.8461C54.5345 52.8748 55.2744 52.892 55.848 52.3471C56.2093 52.0029 56.6165 51.6473 56.823 51.2171C57.1614 50.5174 57.1672 49.7316 57.1844 48.9458C57.2016 48.0854 56.8173 47.4143 56.3069 46.8006C55.7276 46.1123 54.9819 45.8198 54.0584 45.9747C53.7085 46.032 53.3242 46.0091 52.9744 45.9231C52.4811 45.8026 52.223 45.946 52.2173 46.445C52.2173 48.0395 52.2058 49.6341 52.2173 51.2286C52.2173 51.7563 52.2861 52.284 52.3262 52.8461H52.332Z" fill="#E8ECDF"/>
<path id="Vector_14" d="M109.437 45.4183C110.464 45.4183 111.496 45.3208 112.494 45.4584C113.039 45.533 113.567 45.9574 114.043 46.3073C115.327 47.2537 115.477 48.6704 115.339 50.0814C115.241 51.0622 114.828 52.0086 113.957 52.6051C113.481 52.9263 112.982 53.2246 112.356 53.2418C111.404 53.2705 110.452 53.368 109.437 53.4426V45.4183ZM109.936 49.3702C109.936 50.3911 109.924 51.4178 109.947 52.4388C109.947 52.5765 110.114 52.8403 110.194 52.8346C111.29 52.7944 112.425 53.0869 113.429 52.3585C114.112 51.8595 114.599 51.2515 114.662 50.3969C114.708 49.7545 114.731 49.1063 114.656 48.4697C114.599 47.9994 114.456 47.4946 114.192 47.1103C113.676 46.3647 112.941 45.9345 111.978 45.9861C111.439 46.0148 110.888 46.0435 110.36 45.9689C109.982 45.9173 109.936 46.0492 109.936 46.3417C109.936 47.3512 109.936 48.3607 109.936 49.3702Z" fill="#E8ECDF"/>
<path id="Vector_15" d="M31.821 58.7024C33.0829 58.7024 34.3448 58.6163 35.5837 58.7368C36.2146 58.7999 36.8628 59.1957 37.161 59.8381C37.3102 60.1593 37.2528 60.5837 37.2757 60.9623C37.356 62.0807 36.7825 62.4077 35.9278 62.8952C35.6697 63.0443 35.5894 63.1246 35.75 63.377C36.272 64.2087 36.7882 65.0461 37.3102 65.8778C37.3962 66.0154 37.5166 66.1416 37.5625 66.2907C37.5855 66.3538 37.4306 66.5546 37.4076 66.5431C37.2413 66.48 37.0291 66.4227 36.9431 66.2907C36.4957 65.6082 36.0884 64.897 35.664 64.2029C35.4804 63.8989 35.2912 63.6007 35.0732 63.3254C35.0101 63.2451 34.8323 63.2393 34.7061 63.2393C34.2358 63.2279 33.7712 63.2393 33.3008 63.2336C33.1689 63.2336 33.0313 63.2336 32.9108 63.1935C32.4979 63.0558 32.343 63.1476 32.3373 63.595C32.3315 64.4438 32.343 65.2927 32.3258 66.1416C32.3258 66.2793 32.1996 66.4112 32.1308 66.5489C32.0161 66.4112 31.7923 66.2735 31.7923 66.1359C31.7751 63.681 31.7809 61.2204 31.7867 58.7655C31.7867 58.7425 31.8096 58.7139 31.8096 58.7081L31.821 58.7024ZM32.343 60.859H32.3373C32.3373 61.3408 32.3086 61.8226 32.3545 62.3044C32.366 62.4478 32.5782 62.683 32.6929 62.683C33.6278 62.6658 34.5742 62.6543 35.4977 62.5281C36.4326 62.3962 37.0291 61.1458 36.6734 60.2625C36.3178 59.3735 35.5436 59.1498 34.7291 59.0523C34.081 58.9777 33.4156 59.0408 32.756 59.0351C32.4692 59.0351 32.3315 59.1612 32.3373 59.4538C32.343 59.9184 32.3373 60.3887 32.3373 60.8533L32.343 60.859Z" fill="#E8ECDF"/>
<path id="Vector_16" d="M16.4148 45.3669C16.6271 45.3784 16.7704 45.3842 16.9597 45.3899C16.9597 45.7111 16.9425 46.0093 16.9597 46.3076C16.9884 46.7665 17.0745 47.2253 17.0745 47.6899C17.0917 49.1468 17.0859 50.6094 17.0745 52.072C17.0745 52.4047 17.0285 52.7374 16.9597 53.0643C16.9368 53.179 16.7704 53.265 16.6729 53.3625C16.5926 53.2593 16.4493 53.1561 16.4435 53.0528C16.4263 52.1925 16.4321 51.3264 16.4321 50.466C16.4321 50.162 16.4321 49.858 16.4321 49.468H11.4477C11.4477 49.5655 11.4592 49.749 11.4477 49.9326C11.4305 50.1505 11.3674 50.3628 11.3731 50.5807C11.3903 51.3034 11.419 52.0204 11.4649 52.7431C11.4878 53.1102 11.2469 53.3625 10.8053 53.3396V45.3727C11.0462 45.3899 11.2469 45.4014 11.3674 45.4128C11.3674 45.843 11.3674 46.1929 11.3674 46.5485C11.3674 47.2655 11.3674 47.9824 11.356 48.6994C11.356 49.0034 11.4477 49.055 11.7689 49.0493C13.1856 49.0149 14.6081 49.0263 16.0248 49.055C16.323 49.0608 16.4148 48.9862 16.4148 48.7109C16.4148 47.6153 16.4148 46.5256 16.4148 45.3669Z" fill="#E8ECDF"/>
<path id="Vector_17" d="M41.1186 62.5281C41.1186 61.3867 41.1301 60.2453 41.1128 59.1039C41.1071 58.7483 41.2046 58.6049 41.5717 58.6164C42.3002 58.6393 43.0344 58.5991 43.7628 58.6336C45.3 58.7196 46.3553 59.471 46.8658 60.882C47.1813 61.7481 47.1584 62.7002 46.9748 63.6523C46.8142 64.484 46.4299 65.1321 45.8334 65.6484C45.3459 66.0728 44.755 66.3711 44.0668 66.3997C43.3039 66.4399 42.5411 66.5145 41.7725 66.5431C41.2161 66.5661 41.1072 66.4399 41.1072 65.9065C41.1072 64.7823 41.1072 63.6523 41.1072 62.5281H41.1128H41.1186ZM42.9311 66.0384C43.5563 66.0556 44.1414 65.9925 44.7379 65.7287C45.5294 65.3788 46.3439 64.4955 46.384 63.6925C46.4127 63.1074 46.4069 62.5224 46.4299 61.9431C46.4586 61.2949 46.2349 60.7328 45.8793 60.2166C45.3 59.3735 44.4568 59.0408 43.4646 59.0408C43.0516 59.0408 42.6386 59.1326 42.2256 59.1211C41.7954 59.1096 41.6693 59.1785 41.6693 59.5742C41.6693 61.2548 41.6693 62.9354 41.675 64.6217C41.675 64.9085 41.675 65.201 41.6693 65.4878C41.6635 65.9007 41.8184 66.0556 42.2314 66.0441C42.4665 66.0441 42.7017 66.0441 42.9311 66.0441V66.0384Z" fill="#E8ECDF"/>
<path id="Vector_18" d="M77.615 64.3404C78.2115 64.1167 78.246 64.6157 78.3549 64.914C78.6188 65.6367 79.2268 65.8948 79.8749 66.0095C80.4256 66.107 81.0163 66.0898 81.5784 66.0324C82.4388 65.9407 83.2533 65.195 82.9608 64.1454C82.8002 63.5661 82.3183 63.2506 81.7677 63.0671C81.022 62.8204 80.265 62.6197 79.5251 62.3616C78.8081 62.1149 78.1771 61.6905 77.8502 60.9965C77.7183 60.7154 77.7011 60.2394 77.8502 59.987C78.2746 59.2987 78.8425 58.7194 79.7373 58.6276C80.1789 58.5817 80.6205 58.49 81.0622 58.4842C82.1807 58.467 82.9034 59.1094 83.4368 60.0157C83.5114 60.1418 83.5229 60.3369 83.4827 60.4803C83.454 60.595 83.2991 60.6753 83.2074 60.7728C83.1213 60.6867 82.9952 60.6179 82.9608 60.5147C82.6338 59.4708 82.1807 59.1668 81.1081 58.9775C80.5001 58.8685 79.9839 58.9775 79.4333 59.1553C78.9343 59.3274 78.613 59.6314 78.5385 60.1763C78.4582 60.8015 78.5958 61.3463 79.1981 61.6217C79.8061 61.897 80.437 62.1207 81.0737 62.3157C81.7906 62.5336 82.5019 62.7401 83.0869 63.2391C83.5573 63.6406 83.7465 64.4609 83.5286 65.0975C83.2705 65.8546 82.6682 66.1299 82.0602 66.3651C80.85 66.8297 79.6741 66.52 78.5499 66.0038C77.9305 65.717 77.5348 64.9771 77.6036 64.3347L77.615 64.3404Z" fill="#E8ECDF"/>
<path id="Vector_19" d="M92.8033 58.6678C92.8033 60.5376 92.8836 62.3845 92.7746 64.2199C92.7058 65.3613 92.1781 66.0726 90.8933 66.3938C90.3312 66.5372 89.7175 66.5831 89.1382 66.5429C87.905 66.4569 86.8496 65.2409 86.8496 63.9962C86.8496 62.3558 86.8495 60.7154 86.8553 59.0807C86.8553 58.8742 86.8324 58.6505 87.1364 58.6333C87.4576 58.6104 87.5149 58.7882 87.5149 59.0692C87.5034 60.6925 87.5608 62.3214 87.4863 63.9446C87.4404 65.0516 88.3868 65.9808 89.3389 66.0898C89.9641 66.1643 90.5205 66.107 91.0826 65.8948C91.7995 65.6309 92.1092 65.0573 92.115 64.3289C92.1322 62.6885 92.1265 61.0481 92.1322 59.4134C92.1322 59.3388 92.1322 59.2643 92.1322 59.1954C92.1322 58.6391 92.1724 58.6047 92.7976 58.6792L92.8033 58.6678Z" fill="#E8ECDF"/>
<path id="Vector_20" d="M62.1228 45.3955H67.2391C67.2334 45.5791 67.2219 45.7569 67.2162 45.9461H62.6735C62.6735 46.9499 62.6678 47.8676 62.6907 48.7796C62.6907 48.8599 62.8972 48.9975 63.0119 48.9975C64.1246 49.0205 65.2317 49.0205 66.3444 49.0205C66.5681 49.0205 66.786 49.0377 66.7574 49.313C66.7459 49.3933 66.505 49.508 66.373 49.508C65.3177 49.508 64.268 49.508 63.2127 49.4793C62.8456 49.4679 62.6563 49.5367 62.6793 49.9784C62.7194 50.81 62.6965 51.6474 62.6793 52.4791C62.6793 52.7602 62.7595 52.8577 63.052 52.852C64.3368 52.8347 65.6274 52.8347 66.918 52.852C67.0728 52.852 67.3538 52.9724 67.3596 53.047C67.3768 53.3165 67.1589 53.3739 66.9122 53.3682C65.4783 53.3624 64.0444 53.351 62.6047 53.3682C62.2376 53.3682 62.1286 53.2477 62.1286 52.8921C62.1401 51.1198 62.1286 49.3474 62.1286 47.5808C62.1286 46.8696 62.1286 46.1526 62.1286 45.384L62.1228 45.3955Z" fill="#E8ECDF"/>
<path id="Vector_21" d="M55.6472 60.79C55.5784 59.7748 54.6951 59.0635 53.7258 58.9947C52.9974 58.9431 52.3263 59.0979 51.6322 59.2356C51.5864 59.2471 51.5404 59.293 51.5175 59.3331C51.3798 59.5797 51.2365 59.8264 51.1275 60.0845C50.8923 60.6294 50.9669 61.0997 51.4544 61.4037C51.9649 61.7249 52.5385 61.9543 53.1063 62.1608C54.0011 62.4935 55.0221 62.5336 55.7333 63.2621C56.3642 63.9102 56.565 64.8451 55.7849 65.694C55.3547 66.1644 54.8098 66.3708 54.2879 66.5028C53.7315 66.6404 53.1006 66.497 52.5098 66.4397C52.1886 66.4053 51.8617 66.325 51.5519 66.216C50.8522 65.9693 50.3532 65.5105 50.2556 64.7362C50.2384 64.6042 50.3244 64.4609 50.3646 64.3232C50.508 64.4207 50.7489 64.4895 50.7776 64.6157C50.944 65.2868 51.4258 65.6424 51.9936 65.9177C52.1657 66.0038 52.3721 66.0496 52.5672 66.0496C53.3644 66.0496 54.1674 66.1988 54.9418 65.7571C55.5784 65.39 55.6644 64.8738 55.6128 64.2601C55.5726 63.7439 55.2056 63.4284 54.7811 63.2564C54.0814 62.9753 53.3472 62.7803 52.6302 62.5336C52.0567 62.3386 51.4946 62.1551 51.0013 61.7421C50.1123 61.0022 50.2671 59.6543 51.2078 59.0406C52.1313 58.4383 53.1809 58.3351 54.2764 58.6104C54.7295 58.7251 55.1138 58.8915 55.4522 59.1897C55.7963 59.488 55.9857 59.8665 56.0889 60.3254C56.1922 60.7843 55.9398 60.7498 55.6415 60.79H55.6472Z" fill="#E8ECDF"/>
<path id="Vector_22" d="M128.227 45.4243C129.248 48.0627 130.361 50.6495 131.393 53.2708C130.831 53.5289 130.745 53.1159 130.636 52.8922C130.447 52.5194 130.338 52.1064 130.217 51.7049C130.097 51.3034 129.896 51.0682 129.426 51.0797C128.462 51.1084 127.499 51.0969 126.535 51.0797C126.397 51.0797 126.266 51.0051 126.065 50.9478C125.996 51.074 125.904 51.2231 125.835 51.378C125.566 51.9401 125.319 52.5194 125.032 53.07C124.963 53.2019 124.768 53.3109 124.614 53.3453C124.413 53.3855 124.333 53.2765 124.424 53.0528C124.768 52.2154 125.084 51.3665 125.44 50.5348C125.772 49.7662 126.168 49.0263 126.495 48.2577C126.839 47.4547 127.114 46.6288 127.453 45.8258C127.665 45.321 127.51 45.3096 128.221 45.4128L128.227 45.4243ZM127.797 46.3133C127.487 47.1106 127.189 47.8849 126.885 48.665C126.713 49.1124 126.552 49.5712 126.352 50.0071C126.139 50.4602 126.174 50.5922 126.638 50.6094C127.12 50.6266 127.602 50.5922 128.084 50.5864C128.565 50.5864 129.042 50.5864 129.609 50.5864C129.305 49.0779 128.548 47.8046 128.061 46.4338C128.044 46.3821 127.912 46.3707 127.797 46.3248V46.3133Z" fill="#E8ECDF"/>
<path id="Vector_23" d="M5.86683 64.2487C5.43091 64.2487 4.93765 64.2601 4.44438 64.2487C3.69873 64.2315 2.95307 64.1741 2.20169 64.1856C2.05256 64.1856 1.8346 64.3634 1.76577 64.5125C1.50192 65.0746 1.30117 65.6711 1.04306 66.239C0.968495 66.3938 0.767755 66.4913 0.624362 66.6175C0.572741 66.5831 0.515367 66.5487 0.463745 66.5143C0.526838 66.2619 0.567033 66.0038 0.653069 65.7629C1.01442 64.7993 1.38147 63.8472 1.76003 62.8893C1.88048 62.591 2.0239 62.2985 2.15009 62.0003C2.53438 61.0711 2.91868 60.1362 3.30297 59.207C3.3718 59.0406 3.42918 58.8571 3.53816 58.7137C3.67008 58.5359 4.12318 58.6277 4.23216 58.8686C4.52468 59.5282 4.79998 60.1992 5.07529 60.8703C5.49974 61.92 5.89554 62.9811 6.33719 64.025C6.65266 64.7706 7.03118 65.4933 7.37532 66.2275C7.40974 66.3078 7.39256 66.411 7.40403 66.4971C7.31226 66.4971 7.21469 66.4971 7.12866 66.4799C6.78451 66.3996 6.66406 66.13 6.55509 65.826C6.43463 65.4818 6.25688 65.1606 6.10775 64.828C6.03892 64.6788 5.98154 64.5182 5.86683 64.2487ZM3.73889 59.4708C3.21694 60.9334 2.47126 62.224 2.19595 63.7611C3.28573 63.7611 4.27801 63.7669 5.27029 63.7611C5.53413 63.7611 5.63169 63.5145 5.53418 63.2679C5.19003 62.419 4.87457 61.5643 4.53043 60.7155C4.38703 60.3484 4.22071 59.987 4.0429 59.6371C4.00275 59.5626 3.86508 59.5339 3.73889 59.4708Z" fill="#E8ECDF"/>
<path id="Vector_24" d="M21.6458 66.3367C21.7835 65.981 21.9211 65.6197 22.0588 65.2698C22.4029 64.4037 22.7586 63.5434 23.097 62.6773C23.401 61.9029 23.6304 61.0827 24.0262 60.36C24.3072 59.8495 24.5137 59.3219 24.7202 58.7884C24.7546 58.7024 24.9897 58.645 25.1274 58.6508C25.265 58.6623 25.4658 58.7368 25.5117 58.8401C25.8845 59.6947 26.2344 60.5608 26.5785 61.4269C27.003 62.4937 27.4217 63.5663 27.8462 64.6331C28.0641 65.178 28.2935 65.7172 28.5057 66.2678C28.5344 66.3424 28.4771 66.4456 28.4599 66.5374C28.3165 66.4915 28.1043 66.4858 28.0469 66.394C27.8347 66.0269 27.6683 65.6369 27.4905 65.2469C27.3586 64.9486 27.2611 64.6389 27.112 64.3521C27.0776 64.2833 26.9112 64.2546 26.8022 64.2546C25.6895 64.2489 24.5768 64.2546 23.4641 64.2546C23.1715 64.2546 23.0224 64.4095 22.9306 64.6618C22.7413 65.178 22.5865 65.7115 22.3456 66.2047C22.271 66.3596 21.967 66.394 21.7662 66.4858C21.7204 66.4399 21.6802 66.3883 21.6343 66.3424L21.6458 66.3367ZM26.7679 63.7441C26.7679 63.5491 26.8195 63.3541 26.7564 63.2049C26.5269 62.6142 26.2516 62.0463 26.0107 61.4613C25.787 60.9107 25.592 60.3486 25.3626 59.8037C25.288 59.6316 25.1331 59.4997 24.9439 59.253C24.6055 60.8992 23.6992 62.1955 23.3952 63.7441H26.7621H26.7679Z" fill="#E8ECDF"/>
<path id="Vector_25" d="M35.4517 45.4357C36.1056 45.3095 36.0942 45.3267 36.3752 46.1297C36.6792 46.9843 37.0405 47.8102 37.3617 48.6591C37.5854 49.2442 37.769 49.8407 37.9869 50.4257C38.1418 50.8387 38.3253 51.2402 38.4917 51.6532C38.5605 51.8195 38.5949 52.0031 38.6752 52.1637C38.7268 52.2669 38.8301 52.3472 38.9104 52.439C38.9907 52.3644 39.1111 52.3071 39.1513 52.2153C39.4668 51.3836 39.7707 50.5462 40.0805 49.7088C40.4304 48.7509 40.7745 47.793 41.1301 46.8409C41.3079 46.3648 41.5144 45.906 41.7324 45.3783C41.893 45.3898 42.0995 45.4012 42.3862 45.4127C42.1224 46.015 41.87 46.5484 41.6521 47.0933C41.2276 48.1601 40.8318 49.2327 40.4131 50.2996C40.0518 51.2287 39.6847 52.1522 39.3004 53.0699C39.2488 53.1904 39.0767 53.351 38.9734 53.3395C38.8128 53.3223 38.5891 53.2133 38.5318 53.0814C38.1418 52.1923 37.7804 51.2918 37.4191 50.3913C36.9832 49.3073 36.5645 48.2232 36.1343 47.1392C35.9106 46.5771 35.6755 46.015 35.446 45.4414L35.4517 45.4357Z" fill="#E8ECDF"/>
<path id="Vector_26" d="M0.366287 45.9233V45.4014H6.88781V46.038C6.02171 45.9864 5.16135 45.9176 4.30099 45.8946C4.15186 45.8946 3.9339 46.0667 3.87081 46.2101C3.79624 46.3822 3.85358 46.6116 3.85358 46.8181C3.85358 48.8084 3.85358 50.793 3.85358 52.7833C3.85358 52.9553 3.85358 53.1274 3.85358 53.3339C3.67004 53.3511 3.53238 53.3626 3.34884 53.3855C3.33163 53.0758 3.30872 52.789 3.30872 52.5022C3.30872 50.5406 3.28578 48.5847 3.31446 46.6231C3.33167 45.6939 3.03911 45.8488 2.35083 45.8717C1.93785 45.8832 1.52486 45.9635 1.11189 45.9864C0.876725 45.9979 0.641608 45.952 0.372029 45.9233H0.366287Z" fill="#E8ECDF"/>
<path id="Vector_27" d="M127.98 66.3305C127.98 64.2083 127.986 62.0861 127.98 59.9639C127.98 58.811 128.015 59.0232 127.046 59.0289C126.432 59.0289 125.812 59.0404 125.199 59.0232C125.101 59.0232 125.004 58.9028 124.912 58.8397C125.004 58.7708 125.095 58.6389 125.187 58.6389C127.264 58.6274 129.34 58.6274 131.416 58.6274C131.554 58.9831 131.353 59.0347 131.112 59.0347C130.556 59.0347 129.999 59.0232 129.443 59.0347C129.214 59.0404 128.979 59.0978 128.652 59.1437C128.554 59.2641 128.548 59.4591 128.594 59.7688C128.686 60.4629 128.583 61.1856 128.56 61.8968C128.548 62.1549 128.462 62.436 128.525 62.6769C128.663 63.2103 128.623 63.7093 128.531 64.2485C128.434 64.8163 128.497 65.4185 128.514 66.0036C128.531 66.5427 128.543 66.5427 127.992 66.3248L127.98 66.3305Z" fill="#E8ECDF"/>
<path id="Vector_28" d="M120.318 45.3721C120.318 47.4427 120.318 49.4444 120.318 51.4462C120.318 51.9567 120.318 52.4672 120.306 52.9776C120.306 53.2013 120.237 53.4365 119.968 53.3562C119.83 53.3161 119.658 53.0924 119.652 52.949C119.635 50.54 119.641 48.1252 119.641 45.7162C119.641 45.1828 120.025 45.4466 120.318 45.3778V45.3721Z" fill="#E8ECDF"/>
<path id="Vector_29" d="M46.8945 53.3964C46.6536 53.3104 46.4701 53.2416 46.2406 53.1555C46.2406 53.0121 46.2406 52.8515 46.2406 52.6967C46.2406 50.5343 46.2406 48.3662 46.2406 46.2038C46.2406 46.0719 46.2866 45.94 46.2694 45.8138C46.212 45.2976 46.516 45.332 46.8945 45.4238V53.3964Z" fill="#E8ECDF"/>
<path id="Vector_30" d="M121.195 58.685C121.815 58.5932 121.86 58.6334 121.86 59.1783C121.86 61.3579 121.86 63.5432 121.86 65.7228C121.86 65.9637 121.786 66.1988 121.746 66.4627C121.534 66.434 121.379 66.4168 121.201 66.3938V58.6908L121.195 58.685Z" fill="#E8ECDF"/>
</g>
</g>
<path id="Vector_31" d="M58.1136 33.7404C52.1771 33.7404 47.3477 28.9109 47.3477 22.9745C47.3477 17.038 52.1771 12.2085 58.1136 12.2085C64.0501 12.2085 68.8795 17.038 68.8795 22.9745C68.8795 28.9109 64.0501 33.7404 58.1136 33.7404ZM58.1136 14.738C53.5709 14.738 49.8713 18.4375 49.8713 22.9802C49.8713 27.5229 53.5709 31.2224 58.1136 31.2224C62.6563 31.2224 66.3558 27.5229 66.3558 22.9802C66.3558 18.4375 62.6563 14.738 58.1136 14.738Z" fill="#888F77"/>
</g>
</svg>
