<svg width="71" height="73" viewBox="0 0 71 73" fill="none" xmlns="http://www.w3.org/2000/svg">
<g id="Group">
<path id="Vector" d="M13.0025 51.8659C12.5945 51.8323 12.4101 51.9218 12.3095 52.3633C11.9518 53.9169 11.555 55.4649 11.1415 57.0017C11.013 57.4656 10.9682 57.9685 10.6944 58.4771C10.6329 58.2368 10.5994 58.0747 10.5547 57.9182C10.0853 56.4205 9.61022 54.9228 9.13519 53.4251C8.97312 52.9109 8.95079 52.2291 8.59871 51.9441C8.29134 51.6926 7.61514 51.8826 7.10659 51.8771C7.01717 51.8771 6.93332 51.8771 6.84391 51.8771C6.68184 51.8715 6.62037 51.9218 6.56448 52.095C6.14534 53.4307 5.70384 54.7551 5.26794 56.0796C5.03322 56.795 4.78734 57.5047 4.54703 58.2144C4.32908 57.6556 4.18376 57.1023 4.04405 56.5547C3.69197 55.1184 3.3343 53.6877 2.9934 52.2515C2.93752 52.0168 2.88165 51.8659 2.59105 51.8771C2.02102 51.8938 1.45098 51.8882 0.875363 51.8771C0.646233 51.8771 0.56798 51.8994 0.651808 52.1677C0.920057 52.978 1.15479 53.7995 1.39509 54.621C2.0713 56.9011 2.7475 59.1757 3.40695 61.4614C3.47401 61.6849 3.56344 61.7352 3.76462 61.7296C4.20612 61.724 4.64201 61.7073 5.08351 61.7296C5.31264 61.7408 5.39089 61.6346 5.44677 61.4558C6.02239 59.6283 6.59243 57.8065 7.16805 55.979C7.28541 55.6046 7.41954 55.2358 7.58719 54.744C8.28017 56.9235 8.92844 58.9801 9.57671 61.0366C9.78907 61.7184 9.78347 61.7184 10.4765 61.7184C10.7671 61.7184 11.0633 61.6905 11.3539 61.724C11.678 61.7576 11.7842 61.5899 11.8624 61.3273C12.4101 59.4216 12.9633 57.5215 13.5166 55.6214C13.8743 54.3807 14.2319 53.1401 14.6008 51.8715C14.0308 51.8715 13.5166 51.905 13.0081 51.8603L13.0025 51.8659Z" fill="#888F77"/>
<path id="Vector_2" d="M19.3678 56.784C19.3622 59.9024 21.4356 61.8527 24.4366 61.9813C27.8512 62.1266 30.1034 59.8968 30.0587 56.8287C30.109 53.5817 27.8177 51.7599 25.2693 51.6146C21.3294 51.391 19.379 53.8332 19.3734 56.784H19.3678ZM27.8568 56.7504C27.868 58.7679 26.5603 60.0309 24.7105 60.0421C22.9724 60.0477 21.5753 58.7846 21.5865 56.7895C21.6032 54.8336 22.883 53.5314 24.7831 53.5538C26.5099 53.5705 27.8568 54.828 27.8512 56.756L27.8568 56.7504Z" fill="#888F77"/>
<path id="Vector_3" d="M65.8979 61.6176C67.2559 61.3773 68.4239 60.7794 69.2845 59.6505C70.1172 58.5495 70.2737 57.2753 70.1228 55.9788C70.011 55.0343 69.6702 54.1514 68.9604 53.436C67.921 52.3966 66.6244 51.9998 65.2217 51.8824C63.9531 51.7762 62.6845 51.8098 61.4103 51.7986C61.0806 51.7986 60.9912 51.9048 60.9968 52.2289C61.0135 53.749 61.0023 55.2747 61.0023 56.7947C61.0023 58.1136 61.0023 59.4325 61.0023 60.7458C61.0023 61.7182 61.0023 61.735 61.9692 61.7126C63.2825 61.6847 64.6013 61.8412 65.9035 61.612L65.8979 61.6176ZM63.4501 59.7902C63.1819 59.8014 63.098 59.7008 63.1036 59.4325C63.1204 58.5384 63.1092 57.6498 63.1092 56.7556C63.1092 55.895 63.1092 55.0288 63.1092 54.1681C63.1092 54.0116 63.0701 53.816 63.316 53.816C64.4057 53.8216 65.5179 53.6931 66.5294 54.2743C67.7812 54.9952 68.0942 56.1073 67.9042 57.3312C67.6192 59.1866 66.1885 59.6505 64.7634 59.779C64.3275 59.8181 63.886 59.779 63.4501 59.7902Z" fill="#888F77"/>
<path id="Vector_4" d="M43.6053 61.4389C42.8843 60.2765 42.1802 59.1085 41.4816 57.9293C41.3978 57.784 41.1072 57.5828 41.5598 57.4598C43.3873 56.9513 43.7562 55.0065 43.1861 53.5646C42.6943 52.3296 41.6325 51.944 40.4477 51.8881C39.0283 51.821 37.6088 51.8825 36.1837 51.8657C35.9098 51.8657 35.8484 51.9384 35.8484 52.2066C35.8596 53.7323 35.8539 55.2524 35.8539 56.778C35.8539 58.3037 35.8596 59.8573 35.8484 61.3942C35.8484 61.668 35.9154 61.7407 36.1893 61.7295C36.6699 61.7071 37.1561 61.7071 37.6367 61.7295C37.9049 61.7407 37.9832 61.6736 37.9776 61.3942C37.9609 60.31 37.9664 59.2258 37.972 58.1416C37.972 57.9908 37.9106 57.8175 38.1565 57.7616C38.8383 57.6051 39.1791 57.784 39.4977 58.4322C40.0062 59.4494 40.5372 60.4609 41.0569 61.4724C41.1407 61.6401 41.2525 61.7351 41.4649 61.7295C42.1243 61.7127 42.7837 61.7183 43.4432 61.7295C43.6947 61.7295 43.7506 61.6904 43.5997 61.4445L43.6053 61.4389ZM41.219 55.0232C41.1351 55.4647 40.6992 55.8727 40.2354 55.9118C39.8889 55.9398 39.5368 55.9118 39.1847 55.9118C39.1847 55.9118 39.1847 55.9062 39.1847 55.9006C38.7935 55.9006 38.2738 56.0515 38.0447 55.8615C37.8044 55.6547 37.9776 55.1238 37.9776 54.7326C37.9776 54.3694 37.81 53.8776 38.0391 53.6876C38.2514 53.5088 38.7265 53.6317 39.0897 53.6373C39.6318 53.6429 40.1907 53.5646 40.688 53.8832C41.0848 54.1403 41.2972 54.5817 41.2134 55.0232H41.219Z" fill="#888F77"/>
<path id="Vector_5" d="M55.1903 59.7795C54.0949 59.7906 52.994 59.7683 51.8986 59.7962C51.5018 59.8074 51.4124 59.6789 51.418 59.2988C51.4348 56.9405 51.418 54.5877 51.4348 52.2294C51.4348 51.9555 51.3845 51.8438 51.0827 51.8605C50.6021 51.8885 50.1159 51.8829 49.6353 51.8605C49.3894 51.8493 49.3223 51.9108 49.3279 52.1623C49.3391 53.6991 49.3335 55.236 49.3335 56.7728C49.3335 58.3097 49.3335 59.8465 49.3335 61.3834C49.3335 61.6013 49.3447 61.7299 49.6241 61.7243C51.4963 61.7131 53.3684 61.7187 55.2406 61.7243C55.4641 61.7243 55.5479 61.6628 55.5368 61.4281C55.52 60.9922 55.5144 60.5507 55.5368 60.1092C55.5535 59.8298 55.4529 59.7683 55.1903 59.7739V59.7795Z" fill="#888F77"/>
<path id="Vector_6" d="M33.4062 65.3677C32.9591 66.994 32.5288 68.6314 32.0593 70.2521C31.9364 70.6712 31.9029 71.1351 31.6011 71.5431C31.562 71.3754 31.534 71.258 31.5061 71.1519C30.9584 69.2518 30.4163 67.3517 29.8519 65.4516C29.8128 65.3174 29.8239 65.1107 29.578 65.0604C28.9242 64.9318 28.7118 65.0492 28.5553 65.6975C28.533 65.7925 28.4939 65.8875 28.4659 65.9881C28.1138 67.1784 27.7674 68.3744 27.4153 69.5647C27.2197 70.213 27.0129 70.8557 26.8117 71.4983C26.672 71.4592 26.6776 71.353 26.6552 71.2804C26.169 69.4976 25.6884 67.7149 25.2134 65.9322C24.9787 65.038 24.9843 65.038 24.0119 65.0771C24.459 66.5972 24.9005 68.0893 25.3364 69.5871C25.6214 70.5651 25.9175 71.5375 26.1858 72.521C26.2976 72.9346 26.5993 72.7781 26.8452 72.8005C27.0464 72.8172 27.242 72.8452 27.3203 72.5713C27.7618 71.0177 28.2089 69.4697 28.656 67.9161C28.8236 67.3461 28.9968 66.776 29.1924 66.1222C29.2707 66.3122 29.321 66.396 29.3489 66.491C29.9357 68.5029 30.5281 70.5092 31.1037 72.5266C31.1763 72.7781 31.3049 72.8452 31.5005 72.7949C31.7352 72.7334 32.0593 73.0128 32.1991 72.549C32.8976 70.1515 33.613 67.7652 34.3283 65.3789C34.3562 65.2783 34.4009 65.1721 34.3283 65.0939C34.1606 64.9151 33.4733 65.1218 33.4062 65.3733V65.3677Z" fill="#E8ECDF"/>
<path id="Vector_7" d="M61.2873 65.8374C60.7844 67.7208 60.2702 69.6041 59.7505 71.5433C59.6611 71.4316 59.622 71.398 59.6108 71.3645C59.0184 69.3806 58.426 67.3966 57.8448 65.4127C57.7889 65.2171 57.7833 64.9992 57.5207 65.0662C57.2301 65.1389 56.8221 64.8092 56.6656 65.3792C56.2297 66.9496 55.7603 68.5143 55.2741 70.068C55.1288 70.5374 55.0673 71.046 54.7991 71.493C54.7432 71.4316 54.7152 71.4148 54.7041 71.3924C54.162 69.3862 53.6255 67.3799 53.089 65.3736C53.0331 65.1556 52.9381 65.0215 52.681 65.055C52.4742 65.083 52.2619 65.055 52.0383 65.055C52.2172 65.6474 52.3736 66.1783 52.5357 66.7148C53.1002 68.6373 53.6702 70.5597 54.2179 72.4878C54.2738 72.6778 54.2793 72.851 54.5196 72.784C54.7935 72.7113 55.1959 73.0243 55.3412 72.5213C55.7268 71.2192 56.1235 69.9171 56.5036 68.6094C56.7383 67.8046 56.9618 66.9887 57.191 66.1895C57.3083 66.2119 57.3027 66.2733 57.3195 66.3236C57.8895 68.2573 58.4595 70.1965 59.024 72.1301C59.2308 72.8343 59.2252 72.8287 59.9517 72.7896C60.1305 72.7784 60.1864 72.7281 60.2367 72.5549C60.6055 71.2304 60.9912 69.9115 61.3824 68.5926C61.7289 67.4302 62.0865 66.2678 62.4386 65.0998C61.5724 64.9656 61.5109 65.0215 61.2985 65.8263L61.2873 65.8374Z" fill="#E8ECDF"/>
<path id="Vector_8" d="M69.7093 65.0551C69.4242 65.0663 69.2454 65.0439 69.251 65.4463C69.2789 67.3632 69.2622 69.2801 69.2622 71.2025C69.2622 71.2919 69.346 71.4149 69.2063 71.4652C69.1057 71.5043 69.1057 71.3925 69.0722 71.3422C67.77 69.4756 66.4456 67.6314 65.1826 65.7425C64.8528 65.2507 64.551 64.9936 63.9419 65.0495C63.6122 65.0775 63.5395 65.1501 63.5451 65.4687C63.5619 67.7823 63.5619 70.096 63.5451 72.4096C63.5451 72.7952 63.6904 72.8176 63.9922 72.8176C64.2828 72.8176 64.4505 72.8176 64.4449 72.4152C64.4169 70.3978 64.4337 68.3803 64.4337 66.307C64.5175 66.3628 64.5455 66.374 64.5622 66.3908C65.8476 68.2518 67.1274 70.1183 68.4295 71.9681C68.7424 72.4152 68.9995 72.9741 69.754 72.8232C70.0502 72.7673 70.1619 72.7449 70.1563 72.4096C70.1396 70.096 70.1396 67.7823 70.1563 65.4687C70.1563 65.0942 70.0278 65.0495 69.7148 65.0551H69.7093Z" fill="#E8ECDF"/>
<path id="Vector_9" d="M19.3678 64.8203C16.9871 64.8762 15.277 66.346 15.2379 68.8943C15.1988 71.3254 16.8753 72.9963 19.2896 72.9963C21.6423 72.9963 23.3189 71.4315 23.3301 68.9055C23.3412 66.5919 21.7876 64.9544 19.3678 64.8203ZM19.3678 72.1972C17.3894 72.2251 16.227 70.6324 16.1544 69.0508C16.065 67.0222 17.6912 65.5412 19.2728 65.6586C20.9773 65.5524 22.3577 67.0501 22.4191 68.7993C22.4862 70.7442 20.9829 72.1748 19.3678 72.1972Z" fill="#E8ECDF"/>
<path id="Vector_10" d="M47.4781 64.8426C45.0415 64.7588 43.3593 66.3124 43.2643 68.749C43.1749 71.0794 44.6503 72.9348 47.2657 73.0018C49.395 73.0577 51.3174 71.5432 51.3342 68.9781C51.39 66.6309 49.842 64.9264 47.4781 64.8426ZM47.5954 72.1691C45.5389 72.2194 44.2703 70.9509 44.192 69.0396C44.1138 67.1059 45.6506 65.5523 47.2825 65.6585C49.1826 65.6194 50.4232 67.0668 50.44 68.8999C50.4568 70.8 49.1267 72.1356 47.5954 72.1691Z" fill="#E8ECDF"/>
<path id="Vector_11" d="M38.6259 65.0657C37.6758 65.021 36.7202 65.0657 35.7702 65.049C35.4907 65.049 35.4013 65.1048 35.4069 65.401C35.4237 66.5746 35.4125 67.7426 35.4125 68.9162C35.4125 70.101 35.4125 71.2913 35.4125 72.4761C35.4125 72.5935 35.3175 72.8003 35.5745 72.7947C36.7705 72.7555 37.9776 72.9288 39.1624 72.6941C40.3472 72.4593 41.2861 71.8055 41.789 70.671C42.1355 69.8998 42.2305 69.0895 42.102 68.2288C41.8281 66.3958 40.4086 65.144 38.6147 65.0657H38.6259ZM40.8725 70.5481C40.336 71.6322 39.3301 71.9117 38.2459 71.9955C37.7094 72.0402 37.1617 71.9843 36.6196 72.0123C36.3011 72.029 36.2116 71.9173 36.2116 71.6155C36.2228 70.7101 36.2116 69.7992 36.2116 68.8939C36.2116 67.9885 36.2172 67.0497 36.2116 66.1275C36.2116 65.904 36.2508 65.8258 36.5023 65.8481C37.3294 65.9152 38.1621 65.7587 38.9892 65.9375C40.0677 66.1723 40.8054 66.7702 41.096 67.86C41.3363 68.7821 41.3028 69.6874 40.8725 70.5537V70.5481Z" fill="#E8ECDF"/>
<path id="Vector_12" d="M13.6898 65.3621C13.6898 64.8983 13.3769 65.105 13.1813 65.0659C12.9578 65.0268 12.8069 65.0436 12.818 65.3621C12.8404 66.2563 12.818 67.1504 12.8348 68.0446C12.8348 68.2793 12.7677 68.3296 12.5442 68.324C11.6221 68.3073 10.7 68.3129 9.77787 68.324C9.40344 68.324 9.01782 68.2793 8.60986 68.3687C8.60986 67.374 8.58192 66.3904 8.62104 65.4124C8.63781 64.943 8.34723 65.0939 8.1181 65.0659C7.83308 65.0268 7.7213 65.0994 7.7213 65.4292C7.73806 67.7596 7.73806 70.0844 7.7213 72.4148C7.7213 72.7501 7.80512 72.834 8.12925 72.8172C8.42544 72.8004 8.63781 72.834 8.62104 72.4037C8.58192 71.3251 8.60986 70.2409 8.60986 69.1791C9.91198 69.1791 11.1974 69.1902 12.4771 69.1735C12.7677 69.1735 12.8404 69.2517 12.8348 69.5367C12.818 70.5203 12.846 71.4983 12.818 72.4819C12.8069 72.8172 12.9633 72.834 13.2036 72.806C13.416 72.7837 13.6954 72.9346 13.6954 72.4875C13.6787 70.1124 13.6787 67.7428 13.6954 65.3677L13.6898 65.3621Z" fill="#E8ECDF"/>
<path id="Vector_13" d="M4.84322 68.8436C4.28996 68.6201 3.71995 68.43 3.15551 68.2344C2.46812 67.9941 2.0378 67.4409 2.10486 66.8708C2.18869 66.1835 2.73076 65.7252 3.51315 65.6749C4.072 65.6414 4.6085 65.6525 5.04999 66.094C5.25118 66.2952 5.69269 66.1276 5.87153 65.809C6.01124 65.5575 5.73739 65.4961 5.62004 65.3955C5.12266 64.9763 4.51911 64.8478 3.85408 64.8143C3.66407 64.7696 3.45728 64.859 3.24491 64.8925C2.11603 65.0657 1.37277 65.7364 1.23865 66.6417C1.05982 67.8488 1.56278 68.5921 2.69725 69.0224C3.30081 69.2516 3.92672 69.408 4.50792 69.6986C5.19531 70.034 5.35739 70.8666 5.00531 71.4311C4.41293 72.3755 2.87048 72.3867 2.16074 71.7552C2.02102 71.6323 1.85894 71.3752 1.73041 71.4255C1.48451 71.5261 1.2498 71.7217 1.11009 71.9452C1.04862 72.0458 1.27217 72.2582 1.43983 72.3755C2.49606 73.1188 3.61935 73.1635 4.78735 72.7109C5.65357 72.3755 6.06154 71.6993 6.12302 70.8052C6.1789 69.9166 5.70386 69.1957 4.84882 68.8492L4.84322 68.8436Z" fill="#E8ECDF"/>
<path id="Vector_14" d="M16.3165 42.8069C16.7133 42.114 17.0318 41.3707 17.3783 40.6498C17.7527 39.8674 18.1328 39.085 18.5016 38.3026C18.8593 37.5425 19.1946 36.7602 19.5075 35.9666C19.7255 35.4133 20.0608 34.8824 20.262 34.3347C20.4744 33.7591 20.7761 33.2282 21.0164 32.6693C21.8268 30.7972 22.8327 29.0145 23.6654 27.1535C23.9951 26.4158 24.3863 25.6949 24.7496 24.9739C25.0458 24.3816 25.3085 23.7612 25.5823 23.1521C25.6326 23.0403 25.6493 22.8559 25.8114 22.8727C25.9567 22.8838 25.9679 23.0627 26.0238 23.18C26.4094 24.0071 26.7782 24.8454 27.2644 25.6222L27.4432 26.0022C27.4544 26.0525 27.4768 26.1028 27.5103 26.1475L30.9193 33.3567L30.9417 33.3344C30.9864 33.4294 31.0311 33.5244 31.0758 33.6194C31.467 34.4521 31.8358 35.2904 32.2326 36.1231C32.6629 37.0228 33.1491 37.9058 33.5515 38.8167C34.088 40.0238 34.9207 40.9963 35.8764 41.8681C36.7649 42.6784 37.7038 43.4273 38.7935 43.9805C39.2742 44.2264 39.7268 44.5897 40.2354 44.707C41.1575 44.9194 42.0237 45.3385 42.9961 45.4112C43.2364 45.428 43.5382 45.3721 43.7618 45.5006C44.3374 45.8303 44.9633 45.5006 45.5668 45.6683C45.8016 45.7353 46.1816 45.6571 46.489 45.6347C47.2769 45.5844 48.0537 45.4559 48.8306 45.2938C49.7359 45.1038 50.6412 44.9082 51.5019 44.5897C53.0666 44.0141 54.5868 43.3434 56.0062 42.4325C56.9786 41.8066 57.9566 41.1918 58.8284 40.4542C60.4715 39.0514 61.8686 37.4196 63.031 35.5754C63.6848 34.5359 64.2661 33.4573 64.702 32.334C65.2608 30.8866 65.7303 29.3945 65.9817 27.8464C66.0656 27.3155 66.1214 26.779 66.2165 26.2593C66.2891 25.8569 66.1606 25.4266 66.3785 25.0522C66.3785 24.0965 66.3785 23.1409 66.3785 22.1909C66.3227 21.8779 66.4065 21.5202 66.3282 21.2632C66.0935 20.4752 66.127 19.6648 65.937 18.8713C65.6185 17.53 65.272 16.2055 64.7746 14.9202C64.3443 13.7913 63.8302 12.7015 63.221 11.6732C62.6845 10.7735 62.0921 9.8905 61.4103 9.07458C60.4044 7.87305 59.3146 6.75534 58.0628 5.81088C56.0845 4.32433 53.9049 3.22898 51.5522 2.46335C50.2389 2.03303 48.9032 1.68096 47.5452 1.44624C46.2095 1.21152 44.8571 1.08857 43.5103 0.926506C42.9235 0.859444 42.3199 0.965626 41.7331 0.814735C40.2633 0.814735 38.7936 0.814735 37.3182 0.797969C37.1841 0.797969 37.0555 0.932094 36.927 0.803558C36.7929 0.915329 36.6364 0.926506 36.4743 0.915329C35.4404 0.865032 34.4066 0.999157 33.3727 1.01033C33.0653 1.01033 32.9815 1.0774 33.1491 1.39594C33.6353 2.31805 34.0992 3.25133 34.5519 4.19021C35.3454 5.83323 36.0719 7.50979 36.9885 9.09135C37.1617 9.38754 37.9217 9.78991 38.2459 9.67814C38.8494 9.47695 39.4642 9.56637 40.0677 9.51608C40.9899 9.43784 41.9064 9.61108 42.8285 9.62226C43.2588 9.62784 43.6835 9.78991 44.1138 9.85698C44.7565 9.96316 45.4272 9.96875 46.0475 10.1532C47.0814 10.4661 48.1208 10.7791 49.0765 11.3379C49.8197 11.7683 50.5462 12.1986 51.2057 12.7574C52.8766 14.1546 54.0894 15.8758 54.8662 17.9045C55.4809 19.5084 55.7995 21.1682 55.8945 22.8782C55.9839 24.5883 55.7771 26.2705 55.2797 27.9023C54.8047 29.4448 54.1396 30.909 53.1896 32.239C52.5581 33.1164 51.8428 33.91 50.9877 34.5639C50.2724 35.1115 49.4844 35.5251 48.6294 35.866C46.9249 36.5534 44.6783 36.3578 43.3594 34.9551C42.672 34.223 42.1243 33.3903 41.6884 32.5073C40.6098 30.3054 39.4977 28.1259 38.3856 25.9408C37.4803 24.0574 35.6584 20.4025 34.1551 17.4183C34.0712 17.1835 33.9651 16.9991 33.8589 16.8259C33.708 16.5241 33.5571 16.2279 33.4174 15.9485C33.3112 15.7082 33.205 15.4679 33.0653 15.2499C32.9647 15.0487 32.8641 14.8531 32.7691 14.6687C32.7188 14.5346 32.6573 14.406 32.5791 14.2887C32.3556 13.8472 32.1712 13.4783 32.037 13.2157L31.3887 11.908C29.9413 8.97958 28.4715 6.06236 27.0185 3.13956C26.5547 2.20069 26.035 1.28417 25.6438 0.311768C25.5599 0.311768 25.4817 0.311768 25.3979 0.311768C25.4146 0.41795 25.3867 0.507366 25.342 0.602371C24.7216 1.9995 23.9504 3.3184 23.2574 4.682C22.6036 5.96736 21.9386 7.24713 21.2847 8.53808C20.2173 10.6505 19.161 12.7686 18.0825 14.8755C17.1101 16.77 16.0929 18.6421 15.1485 20.5534C14.3381 22.1964 13.4887 23.8227 12.6225 25.4378C12.3487 25.9464 12.371 26.2593 12.7678 26.4828C13.6563 26.9802 14.2431 27.7682 14.7685 28.5953C15.6738 30.026 16.1656 31.6243 16.4338 33.2841C16.6909 34.8712 16.758 36.4695 16.6462 38.1685C16.4841 37.5817 16.2215 37.1458 15.9532 36.7043C15.1094 35.3183 13.8576 34.3962 12.3431 34.0162C10.8509 33.6418 9.31406 33.6809 7.87781 34.5136C6.2739 35.4468 5.15062 36.7378 4.74824 38.5541C4.50794 39.6382 4.5303 40.7559 4.86002 41.8345C5.10033 42.6225 5.48592 43.3658 6.028 43.9749C6.71539 44.7517 7.55367 45.3385 8.54284 45.7297C9.64378 46.1656 10.7783 46.3165 11.9071 46.0483C13.2205 45.7353 14.4332 45.1485 15.3441 44.0811C15.685 43.6843 16.0482 43.2875 16.3053 42.8349L16.3165 42.8069Z" fill="#E8ECDF"/>
</g>
</svg>
