<svg width="127" height="40" viewBox="0 0 127 40" fill="none" xmlns="http://www.w3.org/2000/svg">
<g id="Group 2391">
<g id="Group">
<path id="Vector" d="M68.5684 14.5673C68.5746 11.7056 68.7622 8.83553 68.4433 5.98421C68.1432 3.29756 66.4674 1.55925 63.8058 0.967315C63.2576 0.846425 59.187 0.462915 57.8343 1.01108C55.1163 1.70516 53.1946 3.25379 52.4505 6.03424C52.1962 6.98885 52.4464 7.31191 53.4114 7.40362C54.3076 7.48908 55.2081 7.53493 56.1001 7.6579C56.838 7.76003 57.2152 7.56203 57.4487 6.78667C57.9531 5.10881 59.7664 4.30636 61.4651 4.90247C62.7199 5.34225 63.689 7.64748 63.12 8.82094C62.9575 9.15651 62.6511 9.04605 62.3968 9.08356C60.8898 9.29825 59.3621 9.40871 57.8759 9.72344C53.1759 10.7177 50.806 14.3402 51.9711 18.7047C52.5256 20.7827 53.8824 22.0979 56.0272 22.5273C58.7576 23.0734 61.2025 22.4939 63.1972 20.5159C63.8162 19.9031 64.0767 20.0365 64.4582 20.6848C64.8083 21.2788 65.319 21.7582 65.84 22.2188C66.3132 22.6377 66.7321 22.644 67.2032 22.2188C67.9994 21.5018 68.7831 20.7619 69.6397 20.1241C70.3505 19.5968 70.3505 19.1111 69.8169 18.5004C68.8289 17.3686 68.5663 16.0389 68.5684 14.5653V14.5673ZM63.145 13.8358C63.1054 14.8258 63.0137 15.9888 62.3926 17.0393C61.5297 18.5046 60.1103 19.1465 58.8535 18.6276C57.6634 18.1377 57.0547 16.5516 57.4591 14.9905C57.8801 13.3647 59.36 12.3622 61.6152 12.1746C62.6545 12.0884 63.1645 12.6415 63.145 13.8337V13.8358Z" fill="#2E3224"/>
<path id="Vector_2" d="M17.722 14.4214C17.7429 11.766 17.747 9.10856 17.6595 6.45526C17.5636 3.55392 15.8128 1.6051 12.9406 0.965221C12.4279 0.850585 11.8568 0.936041 11.4087 0.571289H8.49692C7.85704 1.00899 7.07335 0.946462 6.37303 1.18407C3.89897 2.01779 2.21277 3.56642 1.60416 6.16345C1.42074 6.94507 1.67711 7.34942 2.49832 7.40778C3.43 7.47239 4.36585 7.52658 5.28919 7.66206C6.06038 7.77461 6.41054 7.49323 6.63356 6.76373C7.07335 5.31931 8.51151 4.50852 10.0622 4.73154C11.5337 4.94414 12.2341 5.85498 12.2674 7.60162C12.2716 7.77461 12.2445 7.9497 12.2737 8.11852C12.3883 8.79592 12.1695 9.05229 11.4254 9.12732C9.50364 9.32116 7.56107 9.43788 5.7123 10.0924C2.6609 11.172 1.03098 13.3084 0.874654 16.4849C0.716248 19.6843 2.46706 22.0187 5.42467 22.5627C8.14051 23.0608 10.4978 22.3647 12.4654 20.4409C12.9261 19.9907 13.1783 19.9323 13.5284 20.543C13.8702 21.1391 14.3621 21.6331 14.8686 22.1125C15.423 22.6377 15.8962 22.6898 16.4735 22.1396C17.2239 21.4268 17.9951 20.7264 18.8204 20.1032C19.477 19.6072 19.5249 19.1403 19.0122 18.5588C17.9638 17.3686 17.7074 15.9576 17.7199 14.4235L17.722 14.4214ZM12.2862 13.2501C12.2591 13.4189 12.282 13.594 12.282 13.7649C12.3028 14.8091 12.1799 15.8221 11.7026 16.7725C10.8459 18.4837 9.18266 19.2507 7.82786 18.5525C6.57103 17.9022 6.11249 15.722 6.92745 14.2193C7.757 12.6915 9.2702 12.4309 10.7834 12.1787C10.9189 12.1558 11.0669 12.1996 11.1961 12.1662C12.1674 11.9265 12.4217 12.383 12.2841 13.248L12.2862 13.2501Z" fill="#2E3224"/>
<path id="Vector_3" d="M126.024 9.08359C126.024 8.90851 125.985 5.62158 125.876 5.14427C125.345 2.80152 123.888 1.2779 121.739 0.93608C119.079 0.512968 117.128 1.41755 115.874 3.63524C115.703 3.93538 115.682 4.35641 115.242 4.5565C115.242 3.7332 115.221 2.97661 115.248 2.22209C115.273 1.50718 114.925 1.21954 114.246 1.22163C113.277 1.2258 112.305 1.23205 111.336 1.21954C110.565 1.20912 110.209 1.52594 110.209 2.33256C110.225 8.64381 110.225 14.9571 110.209 21.2684C110.206 22.1292 110.596 22.4481 111.405 22.4314C112.237 22.4147 113.068 22.4293 113.898 22.4273C115.471 22.4252 115.561 22.3355 115.565 20.8098C115.576 17.154 115.584 13.4981 115.596 9.84228C115.601 8.89809 115.824 7.99559 116.232 7.14937C116.732 6.11139 117.668 5.61116 118.762 5.74247C119.778 5.86335 120.349 6.46572 120.628 7.66419C120.795 8.37702 120.82 9.0961 120.82 9.82143C120.82 13.6149 120.824 17.4104 120.82 21.2038C120.82 21.7374 120.782 22.3543 121.493 22.3835C122.839 22.4377 124.19 22.3918 125.538 22.371C125.791 22.3668 126.005 22.2397 126.068 21.9583C126.051 17.6646 126.037 13.3731 126.02 9.07942L126.024 9.08359Z" fill="#2E3224"/>
<path id="Vector_4" d="M40.5347 1.28192C39.1007 1.89887 38.1815 2.96812 37.5125 4.39169C35.5011 -0.523079 29.2587 -0.14999 27.2827 4.1249C27.2827 3.52045 27.2661 2.91392 27.2869 2.30948C27.3119 1.58206 27.0076 1.21105 26.2489 1.22356C25.2443 1.23815 24.2376 1.22565 23.233 1.22773C22.566 1.22773 22.2179 1.51953 22.2179 2.23236C22.2283 8.61864 22.2304 15.0049 22.2158 21.3933C22.2158 22.1791 22.6077 22.4334 23.3017 22.4334C24.273 22.4334 25.2443 22.3958 26.2135 22.4459C27.191 22.4959 27.5891 22.1165 27.5745 21.1244C27.5287 17.6395 27.5162 14.1524 27.5245 10.6654C27.5266 9.46278 27.4953 8.24138 28.0435 7.11378C28.5271 6.11749 29.4066 5.64852 30.503 5.77358C31.5806 5.89655 32.16 6.54477 32.3976 7.54731C32.5831 8.32476 32.6144 9.1147 32.6144 9.91299C32.6081 13.6751 32.6352 17.4394 32.6039 21.2015C32.5977 22.0978 32.9395 22.4688 33.8212 22.4417C34.7216 22.4167 35.6241 22.4417 36.5245 22.4354C37.8022 22.4271 37.9418 22.2895 37.9418 20.9952C37.9418 17.5769 37.9252 14.1608 37.9314 10.7425C37.9335 9.67538 37.9106 8.59571 38.2503 7.56399C38.6234 6.43222 39.7343 5.70271 40.8974 5.79859C42.1188 5.89864 42.8149 6.60938 42.9629 7.98293C43.0254 8.56445 43.0088 9.15431 43.0088 9.74208C43.0108 13.5751 43.0233 17.406 42.9942 21.237C42.9879 22.0749 43.2943 22.4542 44.1364 22.4417C45.1764 22.425 46.2165 22.4292 47.2565 22.4417C47.9235 22.4479 48.3133 22.1874 48.3091 21.4746C48.2924 16.2972 48.3133 11.1198 48.2549 5.94241C48.2049 1.47159 43.5152 0.00424767 40.5305 1.29026L40.5347 1.28192Z" fill="#2E3224"/>
<path id="Vector_5" d="M91.8019 4.27712C90.2491 6.51357 89.7427 9.05224 89.7531 11.7222C89.7531 12.8978 89.8177 14.0733 90.0928 15.2134C90.2929 16.0451 90.5514 16.8746 90.8869 17.6625C93.4319 23.6527 100.923 24.649 104.981 19.5488C108.185 15.524 108.082 7.77665 104.775 3.75813C101.367 -0.3792 94.8575 -0.129085 91.8019 4.27503V4.27712ZM101.079 16.4932C100.614 17.8959 99.6639 18.74 98.5488 18.7505C97.3399 18.763 96.3853 17.998 95.9935 16.439C95.2306 13.3897 95.1681 10.3007 95.8705 7.22848C96.1164 6.15298 96.6729 5.2213 97.8756 4.95034C99.3992 4.60643 100.579 5.33802 101.048 6.87623C101.496 8.34358 101.521 9.86511 101.621 11.5534C101.606 13.102 101.627 14.8278 101.077 16.4953L101.079 16.4932Z" fill="#2E3224"/>
<path id="Vector_6" d="M85.8786 16.4307C84.0235 15.7345 82.0872 15.4865 79.9487 15.4573C82.131 12.3621 84.1653 9.40658 86.2787 6.50941C87.1729 5.28385 87.6523 4.03327 87.5418 2.49089C87.473 1.51753 87.1687 1.16111 86.1766 1.17362C82.7479 1.21739 79.3193 1.17779 75.8906 1.19446C73.0768 1.20697 73.2832 0.78594 73.2832 3.79566C73.2832 5.41099 73.3186 5.44226 74.9964 5.44226C76.8119 5.44226 78.6294 5.44226 80.4219 5.44226C80.5032 5.86328 80.2697 6.00918 80.1405 6.19677C78.0895 9.13771 76.1616 12.1787 73.9314 14.9779C72.3932 16.91 72.5266 18.9943 72.587 21.1453C72.6037 21.7456 72.9747 22.0833 73.6604 21.7519C77.9832 19.6613 82.3207 19.7051 86.6706 21.681C87.4501 22.0353 87.8149 21.8102 87.8753 20.9411C87.9128 20.3908 87.8857 19.8385 87.8857 19.2861C87.8857 17.3707 87.7065 17.1143 85.8744 16.4286L85.8786 16.4307Z" fill="#2E3224"/>
</g>
<g id="Group_2">
<path id="Vector_7" d="M78.0269 29.1112C77.5892 29.1779 77.1494 29.305 76.7367 29.4738C71.1008 31.7874 65.2335 33.2402 59.1932 33.8863C48.507 35.0285 38.1439 33.5737 28.131 29.676C25.3568 28.5964 22.6764 27.3208 20.0689 25.8868C19.627 25.6429 19.0664 25.0489 18.6245 25.7159C18.2035 26.3516 18.9559 26.6517 19.3186 27.0102C19.7354 27.4229 20.1898 27.7981 20.6483 28.1649C29.6983 35.4037 40.0406 39.0012 51.7064 39.0658C53.5469 39.1387 55.4373 38.9199 57.3299 38.6885C64.4644 37.8152 71.1571 35.6642 77.2495 31.8062C77.7726 31.4748 78.2708 31.0954 78.746 30.6952C79.0941 30.4014 79.1774 29.9887 78.9857 29.5635C78.8002 29.1549 78.4125 29.0507 78.0269 29.1091V29.1112Z" fill="#888F77"/>
<path id="Vector_8" d="M83.8505 24.5778C82.7062 24.2318 81.5474 24.1276 80.3656 24.1568C78.5397 24.0776 76.791 24.4757 75.0735 25.0322C74.2773 25.2906 73.5708 25.7283 72.8954 26.2119C72.662 26.3786 72.4682 26.5996 72.6078 26.9101C72.735 27.1936 73.0184 27.1144 73.2477 27.104C73.5582 27.0914 73.8667 27.0373 74.1773 27.0164C76.1407 26.8789 78.0916 26.5433 80.0738 26.8455C81.6703 27.0894 82.033 27.5312 81.7933 29.1111C81.4661 31.2767 80.6073 33.2756 79.8487 35.3057C79.7382 35.5995 79.4422 35.9601 79.8257 36.2436C80.1905 36.5145 80.4927 36.2123 80.7303 35.9851C83.5837 33.261 84.8364 29.849 84.9739 25.9826C85.001 25.2448 84.5925 24.7966 83.8547 24.5736L83.8505 24.5778Z" fill="#888F77"/>
</g>
</g>
</svg>
