<svg width="54" height="75" viewBox="0 0 54 75" fill="none" xmlns="http://www.w3.org/2000/svg">
<g id="Group 2396">
<path id="Vector" d="M5.13851 18.2829C4.1567 18.992 3.75423 19.974 3.83725 21.1641C3.87515 21.7188 4.11338 22.2125 4.6837 22.2915C5.44533 22.3974 5.23958 22.681 5.01578 23.1496C4.496 24.2446 4.71619 25.661 5.42908 26.2354C6.13656 26.8063 7.06965 26.7219 8.24998 25.9069C8.98815 25.3971 9.67036 24.8047 10.3905 24.2679C11.3867 23.523 12.4498 22.8606 13.7348 22.848C16.7181 22.8175 19.1943 23.8892 20.9143 26.397C22.2823 28.3896 22.5693 30.6371 22.4592 32.9923C22.2642 37.175 20.2519 40.0221 16.3084 41.5049C15.6605 41.749 15.009 41.986 14.2004 42.2858C18.0952 43.0397 22.248 39.9611 23.6539 37.2235C25.6212 33.3927 25.2692 28.0449 22.2931 25.3432C17.6133 21.0941 12.5544 20.3904 7.45948 25.0793C7.427 24.4582 7.66703 24.1297 7.83308 23.7922C9.13073 21.1516 11.4752 19.886 13.8629 20.5789C15.5612 21.0726 17.2216 21.6991 18.9236 22.1784C20.4468 22.6074 21.9971 22.9808 23.607 22.6756C23.7875 22.6415 24.0636 22.699 24.0348 22.3543C22.5927 22.3059 21.1669 22.3795 19.7375 21.9289C16.8751 21.0259 14.1806 19.6616 11.255 18.94C10.0566 18.6438 8.86903 18.2973 7.51904 17.9311C9.65592 16.4627 11.7513 15.8721 14.1246 16.6655C15.5486 17.1412 16.7524 17.9598 17.8768 18.9202C19.086 19.956 20.3078 20.9685 21.8203 21.5555C22.0603 21.6488 22.4122 21.9396 22.5259 21.6686C22.6974 21.2665 22.1903 21.2808 21.9502 21.1731C20.528 20.5394 19.299 19.6652 18.3153 18.4517C16.6188 16.3585 14.9061 14.278 13.2096 12.183C13.0544 11.991 12.7746 11.8366 12.8757 11.4865C13.4514 11.4327 14.0019 11.5996 14.556 11.7019C17.4942 12.2405 19.8476 13.5689 21.102 16.4339C21.4232 17.1699 21.8582 17.8593 22.2661 18.5558C22.7335 19.3546 23.3273 20.0422 24.2441 20.4676C22.9013 18.4499 21.6398 16.3927 20.7969 14.1308C19.9379 11.8276 19.1762 9.49033 18.3532 7.11176C18.9759 7.14587 19.373 7.43669 19.8169 7.58927C22.7804 8.60712 24.2405 10.6177 24.2604 13.7879C24.2694 15.3856 24.5293 17.0084 25.1519 18.5235C25.3216 18.9364 25.4317 19.4264 26.1861 19.7137C24.2694 14.6047 25.1519 9.81525 26.9567 5.08864C28.7218 9.99117 29.7325 14.9117 27.4891 20.0512C28.3843 19.5934 28.6532 18.8358 28.8969 18.0873C29.4816 16.2796 29.5773 14.3911 29.7867 12.5223C30.0935 9.79909 32.8368 7.24461 35.5404 7.16023C33.75 11.8132 32.8223 16.8755 28.9582 20.78C30.2902 20.4963 30.902 19.6634 31.438 18.8287C32.1473 17.7229 32.7303 16.5381 33.3818 15.3963C35.0675 12.4344 37.9967 11.9066 40.9746 11.4309C41.0648 11.7289 40.9475 11.8366 40.8573 11.9515C38.937 14.4036 37.0077 16.8504 34.9177 19.1626C33.8456 20.3474 32.4505 21.0564 31.0121 21.4962C31.2485 21.9199 31.6384 21.7135 32.021 21.5716C33.4558 21.0403 34.6343 20.1176 35.7678 19.1285C36.7442 18.2776 37.7837 17.5236 38.9622 16.9707C41.3969 15.8254 44.4164 16.2257 46.2067 17.9544C45.9992 18.0298 45.8097 18.1178 45.6111 18.1645C42.718 18.852 39.8881 19.7262 37.1358 20.8679C34.8293 21.8248 32.4541 22.5482 29.8985 22.3597C29.8787 22.3597 29.8534 22.4369 29.8065 22.5231C30.5248 22.8121 31.2594 22.8229 32.0048 22.7493C34.5369 22.4997 36.8723 21.5196 39.2799 20.8087C42.2993 19.9183 44.3315 20.7387 45.8963 23.5086C46.1183 23.9017 46.3421 24.2895 46.1814 24.7993C45.3115 24.1997 44.4524 23.6109 43.597 23.0185C42.0521 21.9486 40.3501 21.6919 38.5291 22.0509C38.058 22.1443 37.5834 22.2215 37.1105 22.3094C32.6653 23.1388 29.6784 26.2947 29.1351 30.7358C28.4637 36.2218 31.4597 40.7402 36.8001 42.275C37.6845 42.5299 38.585 42.3827 39.4874 42.2804C39.1644 42.0758 38.8287 41.9698 38.4966 41.855C35.5783 40.8515 33.0732 39.3435 32.039 36.2362C31.1872 33.6799 31.1547 31.0859 31.9308 28.4776C33.3096 23.8425 39.8412 20.5987 44.133 24.7634C44.4759 25.0955 44.8802 25.3648 45.2628 25.652C45.7447 26.011 46.2428 26.3359 46.8366 26.5011C47.9231 26.8045 48.858 26.2659 49.0601 25.1673C49.1973 24.4205 49.1828 23.663 48.7786 22.9898C48.5132 22.5446 48.5909 22.3902 49.1016 22.3184C49.634 22.243 49.9445 21.8804 50.0022 21.3454C50.1376 20.0996 49.8163 19.0189 48.7334 18.2883C48.3977 18.0621 48.3472 17.9903 48.6324 17.6546C49.7459 16.3406 49.412 14.7645 47.8996 13.8938C47.3293 13.5653 46.6868 13.5061 45.8584 13.4091C46.8673 12.8113 47.6722 12.2513 47.3149 11.1383C46.8474 9.67702 45.6039 9.47776 44.272 9.51546C44.7394 8.25527 44.5319 7.60543 43.5049 7.00944C42.5863 6.47628 41.6135 6.68452 40.6353 6.8766C40.8789 5.32919 40.601 4.67935 39.5362 4.18927C38.484 3.70638 37.504 4.00258 36.5474 4.54112C36.4229 2.92011 35.9085 2.17333 34.6903 1.83943C33.4793 1.50733 32.4253 1.90406 31.3622 2.73521C31.512 1.49117 30.6548 1.01367 29.9852 0.412292H29.0828C28.2977 1.10881 27.3285 1.64017 26.9603 2.84292C26.5001 1.63478 25.6031 0.954426 24.5744 0.412292H23.8525C23.1991 1.02803 22.3924 1.53964 22.4844 2.67058C20.2591 0.972377 17.357 1.64376 17.2938 4.47829C14.5162 3.33478 13.132 4.12644 13.1645 6.83711C10.1847 6.37576 8.91054 7.33616 9.59817 9.54239C8.34564 9.43827 7.20501 9.65907 6.6383 10.9139C6.10408 12.0987 6.95414 12.7575 7.98648 13.4343C7.57679 13.4702 7.37827 13.4845 7.18154 13.5025C5.21251 13.6802 3.53765 16.0911 5.28831 17.7157C5.63844 18.0406 5.36952 18.1142 5.13671 18.2829H5.13851Z" fill="#2E3224"/>
<path id="Vector_2" d="M21.8596 71.0658C20.8568 71.8981 20.7246 71.8173 20.4436 70.4044C20.3571 69.9741 20.5678 69.835 20.7703 69.6547C21.2243 69.2469 21.6326 68.7904 21.9249 68.2229C22.1977 67.6912 22.7644 66.9791 22.1601 66.5337C21.5901 66.1147 21.1655 66.9396 20.8732 67.4657C19.8688 69.2657 19.2449 71.2461 18.8677 73.3412C18.7566 73.9556 18.8775 74.414 19.2563 74.8199H19.4197C20.1382 74.3502 20.3881 73.5478 20.5335 72.6892C20.5939 72.3284 20.5171 72.0221 21.061 72.0992C21.5346 72.1668 21.9119 71.714 22.0719 71.1127C21.9608 71.0864 21.8923 71.0432 21.8645 71.0676L21.8596 71.0658ZM19.6026 74.057C19.5111 73.0762 19.7871 72.3491 20.0092 71.6088C20.1987 72.4412 20.006 73.1871 19.6026 74.057Z" fill="#2E3224"/>
<path id="Vector_3" d="M51.6254 64.5808C51.8593 64.5808 52.1293 64.8371 52.4317 64.0188H51.3554C34.8112 64.0188 18.2688 64.0188 1.72454 64.0188C1.42577 64.0188 1.12519 64.0592 0.826416 64.0817V64.5313C1.0064 64.5538 1.18459 64.5898 1.36457 64.5898C18.1176 64.5898 34.8706 64.5898 51.6254 64.5808Z" fill="#888F77"/>
<path id="Vector_4" d="M52.2769 71.2389C52.0266 71.5741 51.7314 71.885 51.2288 71.8738C51.4455 70.8226 51.2836 69.8737 50.743 69.0273C50.5524 68.7276 50.2255 68.7688 50.19 69.0422C50.0928 69.8044 49.6743 70.4767 49.4314 71.3869C50.1545 71.0217 50.1115 70.3625 50.5319 70.0273C50.87 70.4636 50.5674 70.8007 50.4571 71.1621C50.345 71.5329 50.0835 71.9599 50.5375 72.2577C50.9242 72.5124 51.3577 72.4375 51.7706 72.2352C52.3068 71.9711 52.5796 71.4243 53.0318 71.0722V70.885C52.6824 70.8007 52.475 70.973 52.2732 71.2427L52.2769 71.2389Z" fill="#2E3224"/>
<path id="Vector_5" d="M49.0417 54.46C48.5524 54.4181 48.0738 54.3454 47.786 54.9947C47.3237 56.0386 46.7444 57.0299 46.1597 58.1484C45.5751 57.039 44.9814 56.0277 44.5029 54.9638C44.1826 54.2526 43.6321 54.4199 43.1446 54.4745C42.6517 54.5291 42.8874 55.0074 42.8838 55.2893C42.8604 56.9226 42.9 58.5576 42.8586 60.1909C42.8424 60.8038 42.9755 61.0221 43.6303 61.0184C44.2564 61.0148 44.3769 60.7875 44.3481 60.2309C44.3086 59.4707 44.3373 58.7068 44.3373 57.9429C44.7763 58.414 45.0479 58.9123 45.3286 59.4034C45.7532 60.1436 46.5447 60.1345 46.9621 59.3816C47.2355 58.8887 47.4928 58.3885 47.7572 57.892C47.8076 57.9065 47.8598 57.9229 47.9101 57.9374C47.9101 58.7232 47.9605 59.5125 47.8958 60.2928C47.8382 60.973 48.1728 60.9875 48.6855 61.0057C49.2324 61.0257 49.4051 60.8748 49.3925 60.3037C49.3529 58.6395 49.3961 56.9753 49.3619 55.3111C49.3565 55.0256 49.6588 54.5091 49.0417 54.4563V54.46Z" fill="#2E3224"/>
<path id="Vector_6" d="M25.5085 51.2063C25.5085 51.2373 25.5121 51.2682 25.5085 51.2973C25.3959 51.987 25.8159 52.0143 26.3129 51.9943C26.7812 51.9743 27.2549 52.1071 27.228 51.3046C27.1744 49.6432 27.1869 47.9782 27.2245 46.3168C27.2388 45.6799 27.1208 45.3978 26.4076 45.4179C25.748 45.4361 25.471 45.5543 25.4906 46.3113C25.5353 47.9873 25.4924 47.9982 24.2501 47.9855C22.7343 47.9691 22.9685 48.2111 22.9435 46.6352C22.9399 46.4533 22.9238 46.2695 22.9453 46.0912C23.04 45.3542 22.5484 45.4379 22.0962 45.4415C21.6511 45.4452 21.19 45.3414 21.2311 46.0857C21.2793 46.9901 21.2418 47.8999 21.2418 48.8062C21.2418 49.6232 21.265 50.4402 21.2329 51.2555C21.2132 51.7741 21.333 51.9925 21.9103 52.0143C22.6861 52.0452 23.0936 51.8669 22.9488 50.9862C22.9006 50.6914 22.9596 50.382 22.9381 50.0799C22.9024 49.5995 23.0471 49.3903 23.5745 49.3684C25.4727 49.2884 25.4727 49.2665 25.5085 51.2082V51.2063Z" fill="#2E3224"/>
<path id="Vector_7" d="M9.19938 52.0175C10.0833 51.9956 10.9671 52.0285 11.8492 52.0029C12.7083 51.9773 13.5426 51.7813 13.888 50.8583C14.2352 49.9298 13.9323 49.1404 13.0148 48.569C13.8065 48.0617 14.0138 47.3365 13.7516 46.5545C13.4735 45.7267 12.7101 45.5069 11.9591 45.4557C11.0203 45.3916 10.0744 45.4392 9.13385 45.4172C8.74239 45.408 8.62903 45.5875 8.6308 45.963C8.64142 47.7907 8.64497 49.6184 8.62725 51.4443C8.62371 51.8857 8.7849 52.0267 9.19584 52.0157L9.19938 52.0175ZM11.0894 46.7175C11.6066 46.7358 12.3027 46.6424 12.2708 47.4244C12.2407 48.1661 11.5393 47.928 11.2895 47.9757C10.6288 48.0159 10.2214 48.091 10.2214 47.3493C10.2214 46.593 10.6572 46.701 11.0876 46.7157L11.0894 46.7175ZM11.1443 49.2961C11.7111 49.3144 12.4922 49.1697 12.4657 50.0598C12.4409 50.8912 11.6739 50.6641 11.1584 50.7209C10.6129 50.7722 10.2108 50.7759 10.2179 49.9664C10.2267 49.1514 10.6926 49.2814 11.1443 49.2961Z" fill="#2E3224"/>
<path id="Vector_8" d="M42.1966 49.8617C42.4582 50.237 42.7538 50.6196 42.8921 51.0424C43.2181 52.0281 43.9666 52.0645 44.8308 51.9953C45.2591 51.9607 45.3235 51.8167 45.1188 51.4906C44.664 50.7727 44.3684 49.9528 43.5478 49.3825C44.7304 48.7666 45.189 47.943 44.9653 46.9773C44.7379 45.9952 43.9932 45.476 42.7045 45.4413C41.7911 45.4176 40.8758 45.465 39.9643 45.4195C39.3522 45.3885 39.2252 45.6345 39.2347 46.1629C39.2612 47.8592 39.2707 49.5574 39.2309 51.2537C39.2157 51.8787 39.4678 51.9844 40.0552 52.0099C40.8114 52.0409 41.1866 51.8641 41.0615 51.0752C41.0198 50.8091 41.0369 50.5285 41.0615 50.2589C41.0842 50.0147 40.9251 49.6667 41.3477 49.5956C41.6679 49.541 42.0034 49.5829 42.2004 49.8635L42.1966 49.8617ZM41.0217 47.431C40.9838 46.6822 41.414 46.6658 41.9711 46.7222C42.5434 46.7678 43.3072 46.6585 43.3109 47.4766C43.3147 48.4423 42.4165 48.1781 41.8233 48.2819C41.0975 48.4077 41.052 47.9922 41.0236 47.4328L41.0217 47.431Z" fill="#2E3224"/>
<path id="Vector_9" d="M27.2691 58.5306C27.784 58.4078 28.1065 58.7473 28.3057 59.2367C28.3833 59.4281 28.4931 59.6051 28.5859 59.7911C29.2426 61.0823 29.3996 61.1528 30.8295 60.7771C30.3281 59.9428 30.0411 58.982 29.2848 58.3373C30.3585 57.6601 30.7198 56.8836 30.4767 55.8217C30.2741 54.9422 29.5465 54.4528 28.358 54.4311C27.5426 54.4149 26.7272 54.4437 25.9135 54.4185C25.5489 54.4076 25.4256 54.5304 25.429 54.9277C25.4459 56.7626 25.4341 58.5956 25.4392 60.4304C25.4392 60.62 25.3767 60.8277 25.6637 60.9234C26.4976 61.2015 26.9821 60.8656 26.9838 59.9663C26.9838 59.8164 26.9551 59.6575 26.9889 59.5166C27.0716 59.1807 26.7239 58.6624 27.2674 58.5306H27.2691ZM26.9501 56.4646C26.9433 55.8145 27.1442 55.6086 27.7131 55.6971C27.9326 55.7314 28.1605 55.7025 28.38 55.7368C28.7851 55.8 29.0502 56.0221 29.0316 56.5043C29.0147 56.9413 28.7784 57.1382 28.3901 57.1725C28.1689 57.1924 27.9461 57.2159 27.497 57.261C27.1408 57.3477 26.9568 57.1093 26.9501 56.4646Z" fill="#2E3224"/>
<path id="Vector_10" d="M12.4975 61.0181C14.5229 61.0451 15.8112 59.7839 15.8278 57.7595C15.8462 55.7063 14.6151 54.4379 12.5878 54.418C10.5679 54.4 9.26676 55.6612 9.22806 57.6711C9.1912 59.6558 10.496 60.991 12.4957 61.0181H12.4975ZM11.248 56.446C11.6479 55.7712 12.269 55.6106 12.9877 55.773C13.712 55.9372 14.1396 56.704 14.1359 57.7253C14.1322 58.7447 13.6936 59.5097 12.9711 59.6631C12.2505 59.8164 11.6331 59.6504 11.2406 58.9702C11.0213 58.5895 10.9936 58.1727 10.9844 57.6819C10.9918 57.3012 11.0047 56.852 11.248 56.4442V56.446Z" fill="#2E3224"/>
<path id="Vector_11" d="M22.6558 54.5049C22.1008 54.4548 21.8046 54.5568 21.8309 55.2048C21.8777 56.3342 21.8402 57.4671 21.7971 58.5965C21.7727 59.2373 21.4259 59.6561 20.7059 59.7044C19.8772 59.7599 19.3878 59.3017 19.3559 58.3549C19.3203 57.2541 19.3484 56.1516 19.3372 55.049C19.3353 54.8378 19.4347 54.5944 19.0522 54.5014C18.0529 54.2579 17.6329 54.5336 17.631 55.4983C17.631 55.9458 17.631 56.3914 17.631 56.8389C17.631 57.2864 17.6235 57.732 17.6329 58.1795C17.6704 60.0839 18.6116 60.9985 20.5484 61.0182C22.4815 61.0379 23.5108 60.134 23.5952 58.2761C23.642 57.2362 23.5577 56.1892 23.6252 55.1511C23.6795 54.3188 23.1114 54.5461 22.6539 54.5049H22.6558Z" fill="#2E3224"/>
<path id="Vector_12" d="M34.9585 51.1949C35.1209 52.1589 35.8265 52.0064 36.478 51.9973C36.8244 51.9937 36.902 51.8267 36.7685 51.5398C35.8824 49.6264 35.0072 47.7057 34.0922 45.8068C33.836 45.2767 32.7045 45.2912 32.45 45.825C31.4936 47.831 30.5714 49.8552 29.6294 51.8902C31.0352 52.1262 31.046 52.1335 31.6993 51.0279C31.8419 50.7883 31.9953 50.6757 32.2623 50.6775C32.9535 50.683 33.6429 50.6939 34.3341 50.6739C34.7184 50.6612 34.9097 50.8918 34.9603 51.1949H34.9585ZM33.2423 49.4104C32.5764 49.4322 32.3562 49.2706 32.7135 48.6243C32.912 48.2649 33.0528 47.8727 33.3036 47.3082C33.531 47.8364 33.6736 48.1596 33.8089 48.4863C34.1933 49.4086 34.1915 49.3777 33.2423 49.4104Z" fill="#2E3224"/>
<path id="Vector_13" d="M36.8367 60.7295C37.3913 60.918 37.954 61.0059 38.5925 61.0185C38.7768 61.0005 39.0236 60.9898 39.2655 60.9521C40.3054 60.7888 40.9587 60.1193 41.0245 59.1592C41.087 58.2295 40.6609 57.6552 39.5962 57.2747C39.1569 57.1168 38.7027 57.0037 38.2568 56.8673C38.0083 56.7901 37.7796 56.6699 37.7911 56.3361C37.8026 55.9736 38.0495 55.8174 38.3308 55.7654C38.8837 55.6631 39.4284 55.7349 39.9204 56.0382C40.2281 56.2284 40.4618 56.3217 40.5753 55.8389C40.6543 55.5033 41.0294 55.13 40.4897 54.8716C39.3609 54.3314 38.2189 54.2004 37.1033 54.8842C36.4797 55.2664 36.195 55.9071 36.2444 56.6861C36.2921 57.4291 36.715 57.8724 37.3337 58.1003C37.8504 58.2905 38.3786 58.4395 38.9002 58.6118C39.1914 58.7087 39.5288 58.8092 39.4662 59.2381C39.407 59.6401 39.0697 59.6778 38.7636 59.7066C38.1515 59.764 37.5608 59.6725 37.0194 59.3386C36.7183 59.1538 36.585 59.231 36.404 59.5737C36.0617 60.2198 36.2345 60.5267 36.8334 60.7313L36.8367 60.7295Z" fill="#2E3224"/>
<path id="Vector_14" d="M4.18022 55.8269C4.91407 55.754 5.18753 55.9654 5.13388 56.8001C5.05426 58.0048 5.14772 59.2205 5.10099 60.4307C5.0733 61.167 5.53196 61.0084 5.89369 60.9829C6.25369 60.9574 6.81619 61.2654 6.7885 60.438C6.75561 59.441 6.78158 58.4404 6.78158 57.4417C6.78158 55.9836 6.77985 55.949 8.14889 55.8615C8.71831 55.825 8.60928 55.466 8.61966 55.1215C8.63178 54.757 8.68889 54.3925 8.12639 54.4271C7.40985 54.4709 6.68984 54.4381 5.97157 54.4381C5.31042 54.4381 4.6458 54.4818 3.98983 54.4253C3.37022 54.3706 3.22656 54.613 3.22656 55.2363C3.22656 56.1021 3.79599 55.867 4.18022 55.8287V55.8269Z" fill="#2E3224"/>
<path id="Vector_15" d="M5.78034 69.8444C5.51231 69.6064 5.15555 69.4681 4.85239 69.2929C5.16664 69.0752 5.5234 68.8926 5.79513 68.6252C6.35522 68.0737 6.24801 67.2492 5.60288 66.8139C4.69342 66.1978 2.90038 66.3196 2.03159 67.0611C2.31256 67.3562 2.59538 67.1256 2.87635 67.0684C2.94844 67.0518 3.02053 67.0352 3.09263 67.0186C3.07784 67.0906 3.06305 67.1625 3.05011 67.2344C2.56581 68.5883 2.09259 69.944 1.5935 71.2905C1.44377 71.6962 1.55468 71.9655 1.94286 72.0799C2.34768 72.1998 2.36432 71.8567 2.43456 71.5911C2.5122 71.296 2.60832 71.0046 2.68965 70.7094C3.0686 69.3648 3.08893 69.363 4.51782 69.6858C4.95591 69.7854 5.39215 69.8831 5.49197 70.3793C5.59364 70.892 5.272 71.2591 4.88752 71.5358C4.05754 72.1352 3.09263 72.268 2.09814 72.3049C1.86338 72.3141 1.47334 72.0541 1.42898 72.4838C1.39201 72.8454 1.77835 72.9984 2.07226 73.0114C3.50854 73.0814 4.82282 72.7181 5.81916 71.6335C6.32195 71.0839 6.41622 70.4033 5.78034 69.8425V69.8444ZM3.08708 69.197C3.33108 68.5182 3.50299 67.963 3.7359 67.4355C3.84496 67.1883 3.83018 66.7586 4.27197 66.8065C4.67309 66.8489 5.07976 66.9725 5.27015 67.3654C5.44206 67.7177 5.38661 68.0995 5.12227 68.3983C4.62503 68.9609 3.95957 69.1269 3.08523 69.197H3.08708Z" fill="#2E3224"/>
<path id="Vector_16" d="M35.6502 69.2858C35.916 69.0968 36.1802 68.9556 36.3922 68.7501C37.0478 68.1152 36.9597 67.1336 36.177 66.7354C35.1365 66.2052 34.1173 66.3795 33.0915 66.9758C33.416 67.4088 33.6818 67.1244 33.9477 67.0473C34.0096 67.04 34.0716 67.0345 34.1319 67.0272C34.1091 67.084 34.0879 67.1409 34.0651 67.196C34.0243 67.3409 33.9884 67.4859 33.9428 67.629C33.5612 68.8308 33.1828 70.0344 32.7931 71.2344C32.674 71.6032 32.6968 71.917 33.0573 72.0491C33.4649 72.1977 33.4731 71.8087 33.5432 71.5243C33.6085 71.2601 33.6688 70.9959 33.7324 70.7317C34.0683 69.3647 34.0912 69.3574 35.3387 69.673C35.7203 69.7702 36.1166 69.8491 36.2096 70.3482C36.3123 70.8987 36.0155 71.273 35.6421 71.561C34.9229 72.117 34.0993 72.2473 33.2513 72.2858C33.0361 72.295 32.6854 72.0619 32.6349 72.4271C32.5811 72.8289 32.9529 72.9647 33.2481 72.9995C34.0798 73.0968 34.8544 72.8326 35.5899 72.4197C36.2128 72.0711 36.764 71.6363 36.826 70.7555C36.8896 69.8345 36.1933 69.6565 35.6453 69.2877L35.6502 69.2858ZM34.644 69.1391C34.2575 69.2088 34.1222 69.1097 34.2363 68.7666C34.3766 68.3409 34.4956 67.9042 34.6668 67.4932C34.7777 67.2253 34.7451 66.7501 35.1789 66.818C35.523 66.8712 35.8736 66.9813 36.0416 67.3941C36.1949 67.7703 36.1036 68.1244 35.8948 68.418C35.554 68.8969 35.037 69.0143 34.6456 69.1391H34.644Z" fill="#2E3224"/>
<path id="Vector_17" d="M33.6526 54.4657C33.2825 54.5275 32.6353 54.1169 32.6372 54.9491C32.6372 56.7933 32.6521 58.6376 32.6298 60.4818C32.6205 61.2486 33.184 60.9652 33.541 60.9761C33.913 60.9888 34.4579 61.2068 34.4263 60.451C34.3872 59.5461 34.417 58.6376 34.417 57.7309C34.417 56.8242 34.3835 55.9157 34.4281 55.0108C34.4597 54.3676 34.045 54.4003 33.6526 54.4657Z" fill="#2E3224"/>
<path id="Vector_18" d="M14.0078 69.8921C13.9679 69.6964 14.0429 69.4348 13.7622 69.4201C13.4927 69.4055 13.4209 69.6067 13.3683 69.8775C13.2742 70.3678 13.0318 70.7941 12.6889 71.0794C12.1722 71.5094 12.0845 72.0106 12.4513 72.5503C12.8675 73.1632 13.4815 73.1266 13.944 72.7241C14.3666 72.3564 14.8993 72.1168 15.2278 71.3813C14.9456 71.4911 14.6952 71.6466 14.44 71.8881C14.2821 71.1709 14.137 70.5343 14.0078 69.894V69.8921ZM13.5166 71.8003C13.4082 71.9265 13.2279 71.7143 13.1434 71.5697C12.9042 71.1545 13.2487 71.0136 13.5325 70.6367C13.5086 71.1471 13.7702 71.5039 13.5166 71.8003Z" fill="#2E3224"/>
<path id="Vector_19" d="M17.9941 71.8086C17.8127 71.18 17.6372 70.5551 17.4519 69.9321C17.3987 69.7498 17.5643 69.456 17.1995 69.4225C16.8663 69.3909 16.75 69.6029 16.679 69.8651C16.5015 70.5272 16.1269 71.1688 15.4585 71.3269C15.3796 71.3455 15.3027 71.366 15.2278 71.3883C15.2988 72.3721 15.5078 73.0397 16.5784 73.0193C17.4716 73.0007 18.6763 72.0875 18.8282 71.2897C18.4555 71.3195 18.4634 71.8904 17.9921 71.8067L17.9941 71.8086ZM16.9905 71.8123C16.1269 71.578 16.117 71.5371 16.7697 70.7764C17.0023 71.1428 17.0359 71.4682 16.9905 71.8123Z" fill="#2E3224"/>
<path id="Vector_20" d="M44.1275 71.286C43.9041 71.5228 43.6878 71.9782 43.4008 71.8507C42.9956 71.6704 43.3753 71.2751 43.4444 70.9909C43.6679 70.0838 43.4825 69.7176 42.5595 69.6885C41.9871 69.6702 42.0398 69.5609 42.3287 69.213C42.7575 68.6957 43.0701 68.1109 43.2681 67.4697C43.3753 67.1218 43.508 66.7065 43.1119 66.4897C42.7103 66.2711 42.4414 66.6026 42.2215 66.8996C41.6801 67.6337 41.2894 68.4498 40.9715 69.3023C40.6771 70.0947 40.3591 70.8834 40.4445 71.7596C40.47 72.0292 40.4445 72.3499 40.7898 72.4118C41.1168 72.4701 41.2604 72.1932 41.3821 71.9491C41.5438 71.6248 41.6637 71.2787 41.8454 70.9672C41.9999 70.7031 42.1143 70.2204 42.505 70.3916C42.7957 70.5191 42.5849 70.9253 42.5213 71.2132C42.4432 71.5611 42.2924 71.971 42.6921 72.1987C43.0846 72.4227 43.5189 72.3662 43.8786 72.0802C44.2457 71.787 44.5654 71.4481 44.6308 70.8925C44.2111 70.8306 44.2547 71.1494 44.1257 71.2842L44.1275 71.286Z" fill="#2E3224"/>
<path id="Vector_21" d="M17.6788 52.0041C18.0092 52.0498 18.2541 52.0114 18.226 51.359C18.189 50.5111 18.2171 49.6576 18.2171 48.806C18.2171 47.8941 18.1903 46.9803 18.226 46.072C18.2528 45.416 18.0041 45.3886 17.6763 45.4288C17.3867 45.4635 17.0181 45.246 17.0283 46.03C17.0512 47.8228 17.0512 49.6156 17.0283 51.4084C17.0181 52.1997 17.3931 51.9639 17.6788 52.0041Z" fill="#2E3224"/>
<path id="Vector_22" d="M29.3665 66.4892C29.0134 66.2806 28.8037 66.5817 28.637 66.8122C27.6334 68.1857 26.886 69.6843 26.644 71.3917C26.5258 72.2299 27.1279 72.6581 27.8861 72.2825C28.456 72.0013 28.8019 71.4915 29.0994 70.724C28.4668 70.9453 28.4291 71.4171 28.1388 71.6584C27.9846 71.7854 27.8735 72.0285 27.6244 71.9178C27.3824 71.8108 27.4613 71.5604 27.4398 71.359C27.3968 70.9272 27.6047 70.6296 27.8932 70.3357C28.7266 69.4847 29.3001 68.4705 29.5851 67.3057C29.6568 67.0154 29.6765 66.6706 29.3682 66.4874L29.3665 66.4892Z" fill="#2E3224"/>
<path id="Vector_23" d="M8.59757 71.3247C8.36473 71.5682 8.16032 72.1205 7.83328 71.888C7.46179 71.6245 7.61643 71.0704 7.82439 70.6598C7.9026 70.5072 8.0679 70.4018 8.18698 70.2674C8.94595 69.4026 9.50584 68.4233 9.79022 67.2914C9.86843 66.9826 9.83821 66.6592 9.54672 66.4866C9.20012 66.2813 8.9886 66.5883 8.82508 66.8172C7.85816 68.1689 7.15074 69.6442 6.85569 71.3066C6.78993 71.6808 6.81659 72.0606 7.15252 72.2822C7.47068 72.493 7.85816 72.4439 8.16566 72.2531C8.66511 71.9406 9.03482 71.4992 9.21078 70.8633C8.76998 70.7906 8.76109 71.1558 8.59935 71.3247H8.59757Z" fill="#2E3224"/>
<path id="Vector_24" d="M47.683 72.3242C47.4378 71.6531 47.9362 71.1896 47.9668 70.5793C48.0136 69.6586 47.9781 69.4132 47.2765 69.4195C46.5459 69.4258 45.6717 70.3737 45.3604 71.5126C45.233 71.9802 45.0991 72.4899 45.491 72.8401C45.8394 73.1526 46.1975 73.0268 46.5233 72.6975C46.6652 72.5549 46.7233 72.3095 47.0313 72.5591C47.841 73.2176 48.7846 72.4144 48.8313 71.0365C48.3942 71.4098 48.27 72.2067 47.6813 72.3242H47.683ZM47.4733 70.5059C47.083 71.1896 46.741 71.9383 46.0281 72.5318C45.9926 71.2881 46.4346 70.5835 46.9975 69.9669C47.1249 69.8285 47.2942 69.7655 47.4313 69.9291C47.5636 70.0864 47.57 70.3402 47.4749 70.5059H47.4733Z" fill="#2E3224"/>
<path id="Vector_25" d="M25.281 71.8696C25.1661 71.9659 25.0243 72.0588 24.8825 71.9874C24.7335 71.9128 24.7623 71.7402 24.8018 71.6158C24.9023 71.3006 25.0279 70.992 25.1464 70.6818C25.211 70.5109 25.211 70.3434 25.0225 70.2521C24.8107 70.1476 24.6169 70.1941 24.4948 70.3998C24.4086 70.5441 24.3458 70.7017 24.2471 70.8378C23.9742 71.2077 23.7481 71.9609 23.3406 71.795C22.8667 71.6009 23.328 70.9871 23.4734 70.569C23.5362 70.3865 23.6816 70.1858 23.4303 70.0663C23.188 69.9535 22.9636 70.0514 22.838 70.2837C22.6244 70.6785 22.4448 71.0849 22.4305 71.5362C22.4197 71.8514 22.4484 72.1699 22.7895 72.3209C23.0695 72.4437 23.3675 72.3989 23.6296 72.2114C23.784 72.1019 23.8881 71.8365 24.1519 72.1649C24.4553 72.5415 24.9148 72.442 25.2828 72.2413C25.6885 72.019 26.1445 71.7801 26.0026 71.2641C25.7836 71.4483 25.5341 71.659 25.2828 71.8696H25.281Z" fill="#2E3224"/>
<path id="Vector_26" d="M39.0899 70.7725C39.1954 70.5548 39.3287 70.3517 39.4398 70.1376C39.5472 69.9327 39.7731 69.6931 39.5009 69.4991C39.2232 69.3034 38.9825 69.5028 38.7973 69.7223C38.44 70.1486 38.2363 70.6499 38.1123 71.186C38.0141 71.6104 37.9123 72.1007 38.3956 72.302C38.8992 72.5123 39.4491 72.4776 39.8305 71.8921C38.7807 71.9434 38.6362 71.7092 39.088 70.7725H39.0899Z" fill="#2E3224"/>
<path id="Vector_27" d="M10.3186 70.6973C10.4275 70.4813 10.5567 70.2763 10.673 70.0639C10.7764 69.879 10.9296 69.6667 10.7026 69.5001C10.4663 69.3281 10.2373 69.4562 10.0601 69.6484C9.65765 70.0822 9.44534 70.6131 9.31242 71.1769C9.21088 71.6016 9.10935 72.094 9.58565 72.299C10.0896 72.515 10.6379 72.4747 11.0275 71.8999C9.96226 71.931 9.8238 71.6803 10.3186 70.6973Z" fill="#2E3224"/>
<path id="Vector_28" d="M11.1385 68.2268C10.8217 68.2683 10.4075 68.2964 10.4282 68.5879C10.4407 68.7671 10.7264 68.8045 10.9687 68.8192C11.2751 68.7617 11.6106 68.7163 11.6272 68.4689C11.6396 68.2763 11.3973 68.1921 11.1385 68.2268Z" fill="#2E3224"/>
<path id="Vector_29" d="M39.9807 68.2205C39.6782 68.2355 39.3556 68.293 39.2508 68.5093C39.154 68.7077 39.4181 68.7967 39.648 68.8145C40.0009 68.8419 40.2993 68.7529 40.4303 68.4983C40.4182 68.3026 40.2448 68.2068 39.9807 68.2205Z" fill="#2E3224"/>
</g>
</svg>
