<svg width="144" height="36" viewBox="0 0 144 36" fill="none" xmlns="http://www.w3.org/2000/svg">
<g id="Group 2394">
<g id="mkyCMF">
<g id="Group">
<path id="Vector" d="M143.032 28.8051H137.089V21.8153C137.089 20.0931 137.089 20.0884 135.404 20.0791C133.905 20.0714 132.405 20.104 130.906 20.0652C130.321 20.0496 130.154 20.2296 130.16 20.8099C130.188 23.446 130.172 26.0821 130.172 28.785H124.444V6.75891H130.172C130.172 7.03199 130.172 7.30506 130.172 7.57814C130.172 9.80154 130.191 12.0249 130.16 14.2483C130.152 14.7991 130.314 14.9652 130.861 14.9558C132.669 14.9264 134.48 14.9202 136.287 14.9605C136.928 14.9745 137.145 14.7883 137.136 14.1351C137.103 11.9117 137.123 9.68672 137.123 7.46177V6.76046H143.032V28.8036V28.8051Z" fill="#2E3224"/>
<path id="Vector_2" d="M57.1399 17.3918C58.5612 18.0171 59.5542 18.7634 60.2012 19.9038C61.8939 22.8859 60.5037 26.8083 57.1787 28.1225C56.1004 28.5491 54.8855 28.7865 53.7249 28.8176C50.3409 28.9076 46.9539 28.8501 43.5683 28.8501H42.6622V6.75581C42.8407 6.7434 43.0377 6.71702 43.2348 6.71702C46.4155 6.71392 49.5962 6.70616 52.7769 6.72012C54.1826 6.72633 55.5325 6.95906 56.8343 7.56573C59.8815 8.98696 61.5883 14.5757 57.6333 17.1622C57.5278 17.2304 57.4037 17.2708 57.1415 17.3934L57.1399 17.3918ZM50.7009 24.3289C51.3712 24.3289 52.043 24.3475 52.7133 24.3258C54.1221 24.2792 55.0437 23.3778 55.0469 22.0698C55.05 20.8472 54.0895 19.9038 52.735 19.8728C51.3448 19.8402 49.9515 19.879 48.5613 19.8542C48.1579 19.8479 47.9872 19.9798 47.9888 20.3755C47.9934 21.5112 47.9965 22.647 47.9888 23.7827C47.9857 24.2234 48.1874 24.3568 48.6125 24.3397C49.3076 24.3103 50.0058 24.332 50.7025 24.3289H50.7009ZM50.4899 11.291C49.8444 11.291 49.1959 11.2492 48.5566 11.3159C48.3518 11.3376 48.0245 11.6355 48.0151 11.8217C47.9639 12.8783 47.9624 13.9396 48.0167 14.9962C48.026 15.1839 48.3736 15.4989 48.5737 15.5051C49.8351 15.5454 51.1012 15.5517 52.3626 15.5005C53.4705 15.4555 54.3595 14.4562 54.33 13.3934C54.2974 12.2266 53.4208 11.3252 52.2711 11.2941C51.6784 11.2786 51.0841 11.291 50.4899 11.291Z" fill="#2E3224"/>
<path id="Vector_3" d="M83.0418 17.7084C82.8882 21.8914 81.6904 25.3902 78.1746 27.6694C72.9132 31.0813 65.8877 28.7602 63.5774 22.9201C61.9312 18.7588 62.1298 14.6782 64.4354 10.8644C67.6363 5.57201 75.1816 4.80398 79.6222 9.11269C82.1342 11.5502 82.8231 14.6099 83.0403 17.7084H83.0418ZM77.5772 17.9954C77.5912 16.0932 77.1505 14.5571 76.1125 13.2243C74.5889 11.2678 71.3679 11.1421 69.6844 12.959C67.6565 15.1467 67.3384 19.308 69.0126 21.7657C71.011 24.6997 74.4663 24.7277 76.5129 21.8231C77.3693 20.6067 77.5105 19.1979 77.5757 17.9954H77.5772Z" fill="#2E3224"/>
<path id="Vector_4" d="M0.968506 18.1521C1.22917 8.20192 8.85978 0.56044 18.6145 0.571301C28.7307 0.582162 35.9812 8.71704 35.8959 18.2716C35.8121 27.6834 28.3614 35.4661 18.5292 35.418C8.66584 35.3714 1.2571 27.9736 0.968506 18.1521ZM18.5928 33.0208C27.0736 32.9743 33.5918 26.0155 33.5142 17.8046C33.4413 10.0359 26.5942 3.05536 18.9915 2.95606C10.1817 2.8428 3.61238 9.93036 3.44171 17.7999C3.26948 25.7052 9.8621 32.9494 18.5928 33.0208Z" fill="#888F77"/>
<path id="Vector_5" d="M83.9961 25.4306C85.1675 24.1847 86.2955 22.9838 87.3646 21.8465C88.6415 22.5928 89.8145 23.3965 91.0883 23.983C91.8796 24.3476 92.8168 24.4748 93.6996 24.54C94.5328 24.6005 95.262 24.1723 95.7632 23.4911C96.5716 22.3926 95.9028 20.869 94.4428 20.4857C92.8711 20.0746 91.259 19.7953 89.7167 19.2972C86.7672 18.3446 85.0155 16.0669 84.8867 13.2244C84.7688 10.6209 86.5453 8.05923 89.3211 6.88779C92.674 5.47276 95.847 6.19114 98.9082 7.80632C99.653 8.19887 100.317 8.74347 101.107 9.27876C99.9912 10.4921 98.9532 11.6216 97.9183 12.7465C97.0572 12.2857 96.2473 11.7861 95.3846 11.406C94.3295 10.942 93.2217 10.7248 92.0658 11.0925C91.0418 11.4199 90.4801 12.0312 90.4429 12.9234C90.4072 13.7799 90.9285 14.4951 91.9836 14.8054C93.0945 15.1328 94.2551 15.2926 95.3629 15.6262C96.4676 15.9583 97.5971 16.295 98.6057 16.8364C102.634 18.9978 102.351 24.5167 99.6281 26.9946C97.698 28.7509 95.4079 29.3343 92.9161 29.2676C89.4933 29.1761 86.5748 27.8076 83.9961 25.429V25.4306Z" fill="#2E3224"/>
<path id="Vector_6" d="M122.289 10.9218C120.748 11.9335 119.269 12.9048 117.757 13.8978C116.996 12.7527 116.087 11.8543 114.747 11.5673C112.772 11.1453 110.678 12.0979 109.703 14.0653C108.393 16.7014 108.489 19.381 110.059 21.9023C111.502 24.2203 115.479 25.2832 117.752 21.6246C119.249 22.6067 120.747 23.5889 122.311 24.6129C121.535 25.9783 120.464 26.993 119.189 27.7936C113.319 31.4832 104.928 28.2498 103.603 20.4485C103.051 17.1917 103.33 14.0498 104.997 11.1468C108.536 4.98245 117.535 4.48749 121.769 10.1988C121.923 10.4052 122.07 10.6146 122.292 10.9203L122.289 10.9218Z" fill="#2E3224"/>
<path id="Vector_7" d="M23.5439 23.2941C22.9667 23.2941 22.4562 23.2941 21.9457 23.2941C19.3345 23.2941 16.7232 23.3096 14.1119 23.2832C13.5099 23.277 13.2833 23.4508 13.3066 24.0745C13.3563 25.4694 13.3702 26.8673 13.3438 28.2622C13.3376 28.6051 13.2089 29.0721 12.9684 29.2443C12.7729 29.384 12.2593 29.2645 11.9955 29.0938C8.58984 26.872 6.38971 23.803 5.94131 19.7192C5.39516 14.7434 7.15929 10.6503 11.0894 7.52081C11.3718 7.29584 11.6619 7.0631 11.9862 6.91725C12.2965 6.77761 12.8179 6.57436 12.956 6.70624C13.2104 6.94673 13.3516 7.41065 13.3625 7.78613C13.3935 8.92188 13.3252 10.0592 13.3221 11.1965C13.3159 12.9001 13.2073 12.6363 14.7682 12.6425C17.6603 12.6534 20.5509 12.6456 23.5314 12.6456C23.5516 12.3245 23.5842 12.0529 23.5842 11.7814C23.5889 10.4362 23.5733 9.091 23.5873 7.74579C23.5982 6.70624 24.3088 6.31059 25.1932 6.87071C27.9177 8.5976 29.6182 11.1065 30.5166 14.1491C31.6942 18.1366 31.1667 21.924 28.8952 25.4275C27.9115 26.9433 26.6144 28.1706 25.0799 29.1155C24.7789 29.3017 24.27 29.3467 23.9457 29.2242C23.7409 29.1466 23.6106 28.6377 23.6013 28.318C23.5656 26.948 23.5889 25.5764 23.5858 24.2064C23.5858 23.9287 23.5625 23.6525 23.5454 23.2925L23.5439 23.2941ZM18.3973 20.5307C19.8946 20.5307 21.3918 20.5105 22.8875 20.5416C23.4368 20.5524 23.6075 20.3585 23.5951 19.8248C23.5656 18.6099 23.5687 17.3934 23.5951 16.1786C23.6059 15.6665 23.4864 15.4462 22.9077 15.4524C19.9349 15.4804 16.9621 15.4742 13.9893 15.4586C13.4928 15.4555 13.2988 15.5998 13.3128 16.1227C13.3438 17.336 13.3438 18.5525 13.3097 19.7658C13.2942 20.3352 13.4804 20.5509 14.0622 20.54C15.5067 20.5121 16.9528 20.5307 18.3989 20.5307H18.3973ZM26.4065 23.938C28.8564 21.381 28.8301 14.1041 26.4065 12.2097V23.938ZM10.4967 12.326C8.07782 15.0009 8.13678 22.2266 10.4967 23.5051V12.326Z" fill="#888F77"/>
</g>
</g>
</g>
</svg>
