<svg width="149" height="39" viewBox="0 0 149 39" fill="none" xmlns="http://www.w3.org/2000/svg">
<path id="Union" fill-rule="evenodd" clip-rule="evenodd" d="M143.572 1.22579C144.243 1.34414 144.914 1.4624 145.591 1.52268L145.585 1.51634C146.942 1.63684 147.818 2.27427 148.344 3.57766C148.019 3.76676 147.703 3.95163 147.396 4.13102L147.376 4.14235L147.361 4.15131L147.359 4.15272C146.881 4.4317 146.426 4.69721 146 4.94447C145.76 4.88854 145.518 4.80997 145.279 4.73213C144.759 4.56279 144.25 4.39691 143.781 4.47513C142.281 4.72248 141.687 6.0671 142.068 7.61785C142.208 8.18366 142.352 8.74903 142.496 9.31456L142.497 9.31756L142.497 9.32065C143.03 11.4125 143.564 13.5064 143.876 15.6316C144.339 18.7839 143.834 21.7617 140.939 23.785C140.153 24.3368 140.194 24.7807 140.958 25.3642C141.792 26.0025 142.56 26.7293 143.325 27.4526L143.562 27.6761C144.301 28.3706 144.155 29.0968 143.264 29.3949C142.179 29.7596 141.018 29.9943 139.88 30.0577C138.64 30.1243 138.266 30.619 138.573 31.7575C138.842 32.7444 139.111 33.7313 139.385 34.7338L139.394 34.765C139.718 35.9527 140.048 37.1625 140.39 38.4203C139.541 38.7184 139.116 38.5599 138.878 37.5387C138.623 36.4392 138.29 35.3591 137.958 34.2786L137.958 34.2784C137.703 33.4518 137.449 32.625 137.229 31.7892C136.921 30.6254 136.242 30.2987 135.126 30.4636C134.608 30.5402 134.082 30.5564 133.557 30.5726L133.557 30.5726L133.557 30.5726L133.557 30.5726C133.321 30.5799 133.084 30.5872 132.849 30.6L132.687 29.9816C132.87 29.9279 133.051 29.8619 133.233 29.7959L133.233 29.7959C133.62 29.6553 134.007 29.5148 134.4 29.4932C136.239 29.3886 136.331 29.3061 135.814 27.5968C135.176 25.4932 133.752 24.4319 131.543 24.4129C131.366 24.4129 131.189 24.4072 131.012 24.4016C130.659 24.3903 130.306 24.3791 129.957 24.4129C129.667 24.4407 129.343 24.4434 129.016 24.4461C128.189 24.4529 127.343 24.4598 126.979 24.8759C125.907 26.1032 125.146 27.6983 124.632 29.2681C124.417 29.9277 125.035 30.971 125.482 31.7131C126.25 32.9829 127.074 34.2185 127.897 35.4543L127.897 35.4545C128.302 36.0611 128.706 36.6679 129.104 37.2787C129.25 37.5029 129.376 37.7405 129.503 37.9782C129.56 38.0869 129.618 38.1956 129.678 38.303C129.619 38.368 129.56 38.433 129.5 38.4979C129.441 38.563 129.381 38.628 129.323 38.6931C129.172 38.5853 129.009 38.4867 128.846 38.3882C128.486 38.1708 128.126 37.9535 127.905 37.637C126.094 35.0461 124.322 32.4267 122.628 29.7564C122.394 29.3886 122.514 28.6148 122.742 28.1645C123.139 27.3799 123.612 26.6335 124.136 25.8084L124.136 25.8083L124.136 25.808L124.137 25.8067L124.137 25.8056C124.367 25.4443 124.605 25.0679 124.851 24.6666C122.876 24.2733 121.553 24.7998 120.456 25.7036C117.786 27.9076 115.563 30.5366 114.04 33.6539C113.67 34.4122 113.477 35.2547 113.284 36.0994C113.162 36.636 113.039 37.1735 112.87 37.691C112.796 37.9206 112.559 38.099 112.322 38.277C112.215 38.3571 112.109 38.4372 112.017 38.5218C111.964 38.4177 111.888 38.3065 111.813 38.1954C111.651 37.9579 111.491 37.7209 111.545 37.5546C111.817 36.7348 112.136 35.9314 112.455 35.1277C112.679 34.5634 112.903 33.9991 113.111 33.4288C113.342 32.7952 113.555 32.1552 113.768 31.5153L113.768 31.5152L113.768 31.515L113.768 31.5149L113.768 31.5147C114.054 30.6591 114.339 29.8036 114.665 28.9636C114.854 28.4774 115.197 28.0429 115.532 27.6197L115.532 27.6196L115.533 27.6191L115.533 27.6186L115.593 27.5432C115.613 27.5182 115.632 27.4932 115.652 27.4683C115.665 27.4509 115.679 27.4335 115.693 27.4161C115.894 27.158 116.124 26.9137 116.354 26.6698L116.354 26.6698C116.789 26.2094 117.221 25.7509 117.45 25.2057C117.922 24.0735 118.315 22.7733 118.236 21.5809C118.191 20.8843 117.78 20.2113 117.399 19.5873C117.239 19.325 117.084 19.0714 116.964 18.8283C117.116 18.6163 117.274 18.3839 117.44 18.1402C117.818 17.5854 118.236 16.9717 118.712 16.4054C119.174 15.8548 119.634 15.3025 120.095 14.7501L120.096 14.7484L120.099 14.7455C122.001 12.4649 123.903 10.1837 125.926 8.01743C127.287 6.56182 129.148 6.81235 130.493 8.38847C131.263 9.29154 132.002 10.2211 132.74 11.1505L132.741 11.1512L132.741 11.1516L132.741 11.1519L132.741 11.152C133.447 12.04 134.152 12.9279 134.885 13.7923C135.459 14.4678 136.119 15.1877 136.899 15.5365C137.641 15.8695 138.748 16.0534 139.385 15.7173C139.867 15.4636 140.162 14.2204 140.016 13.5291C139.72 12.1219 139.34 10.7318 138.961 9.34161L138.96 9.34118C138.645 8.18756 138.33 7.03391 138.063 5.87048C137.813 4.77874 137.667 3.66359 137.505 2.42379C137.428 1.83772 137.348 1.22378 137.251 0.571299C137.802 0.617206 138.331 0.656935 138.846 0.695566L138.846 0.69557C139.897 0.774358 140.886 0.848586 141.871 0.961364C142.441 1.02657 143.006 1.12621 143.572 1.22579ZM142.04 28.3579C142.087 28.0979 141.811 27.6856 141.561 27.4731L141.564 27.4763C140.768 26.7945 139.956 26.119 139.078 25.5514C138.693 25.3013 138.248 25.1452 137.803 24.9889C137.599 24.9173 137.395 24.8456 137.197 24.7649C137.21 24.926 137.222 25.0874 137.233 25.2488C137.264 25.6783 137.295 26.108 137.352 26.5344C137.368 26.6486 137.381 26.7646 137.394 26.8812L137.394 26.8815C137.447 27.3442 137.501 27.8157 137.689 28.2184C137.842 28.5488 138.125 28.8178 138.371 29.0508C138.469 29.1443 138.561 29.2321 138.637 29.3156C138.963 29.268 139.265 29.2284 139.549 29.1912C140.172 29.1095 140.709 29.0391 141.234 28.9192C141.545 28.8495 141.995 28.5926 142.04 28.3579ZM66.8297 13.5101C69.1923 14.1538 70.9174 16.5228 71.0062 19.2913L71.0126 19.2944C71.0782 21.3837 71.0718 23.474 71.0654 25.5642V25.5648C71.061 27.0119 71.0565 28.459 71.076 29.9055C71.0966 31.4111 70.2295 31.3857 69.351 31.3599C69.1471 31.354 68.9425 31.348 68.7483 31.3611C67.613 31.4372 66.8519 31.2596 66.9026 29.7691C66.953 28.2749 66.9377 26.779 66.9223 25.2832C66.9068 23.7695 66.8912 22.2558 66.9438 20.7437C67.0675 17.1919 64.0358 15.4953 60.6901 17.379C60.1827 17.6644 59.8212 18.6316 59.8085 19.2913C59.7387 22.8241 59.7609 26.3632 59.8275 29.8992C59.8568 31.4654 58.9881 31.4088 58.1251 31.3525C57.868 31.3358 57.6115 31.319 57.3793 31.3452C56.2789 31.4658 55.6097 31.1835 55.6446 29.8104C55.6934 27.8161 55.677 25.8193 55.6607 23.8223C55.6515 22.704 55.6423 21.5857 55.6446 20.4678C55.6478 18.9837 55.1975 17.6866 53.8148 17.046C52.2672 16.3293 50.6531 16.5196 49.3624 17.6422C48.9057 18.0418 48.6805 18.9171 48.6678 19.583C48.5981 22.9604 48.5537 26.3442 48.6678 29.7184C48.7219 31.3458 47.8473 31.3555 46.8847 31.3661H46.8847H46.8846H46.8846H46.8846C46.718 31.368 46.5488 31.3698 46.3814 31.3801C45.1287 31.4562 44.431 31.1803 44.4564 29.6708C44.5325 24.8124 44.5103 19.9541 44.4627 15.0989C44.4501 13.8335 44.9099 13.3578 46.1562 13.5449C46.5059 13.598 46.8814 13.5575 47.2395 13.519C47.9305 13.4445 48.5567 13.3771 48.8074 14.0016C49.4043 13.9362 49.9822 13.8659 50.5467 13.7973L50.5467 13.7973C51.9796 13.6232 53.326 13.4595 54.6774 13.4117C55.3402 13.3895 56.1933 13.7542 56.6594 14.2331C57.7599 15.3589 58.6161 15.1052 59.8053 14.3282C61.9586 12.9202 64.4163 12.8536 66.8297 13.5101ZM19.4629 25.0979C16.4724 28.0916 12.2927 28.58 8.74407 26.284C5.29056 24.0546 3.36878 19.9541 5.36985 15.3843C6.96499 11.7374 11.5158 9.40965 15.3625 10.6147C16.6363 11.0139 17.8187 11.7026 19.0003 12.3909L19.0003 12.3909C19.5366 12.7034 20.0728 13.0157 20.6173 13.3008L21.0074 14.1095C21.1485 13.8889 21.2776 13.655 21.4066 13.4211L21.4066 13.4211L21.4066 13.4211L21.4066 13.421C21.6949 12.8985 21.9831 12.3762 22.4059 12.0037C23.5444 10.9985 23.259 10.2976 22.2568 9.46674C18.5496 6.40012 14.4397 5.38532 9.69228 6.52063C3.03579 8.11578 -1.59742 16.1549 0.571721 22.6402C3.49246 31.3738 13.9798 34.7227 21.3847 29.284C23.871 27.4573 23.8615 27.2639 21.7526 25.1106C20.9122 24.2543 20.3794 24.1814 19.4629 25.0979ZM74.3585 21.7712C74.6693 16.8209 79.1788 12.9043 84.3004 13.1358L84.2972 13.139C89.5044 13.3737 93.4844 17.4678 93.4051 22.415C93.3829 23.7057 92.9104 24.1877 91.6165 24.1687C88.0266 24.1148 84.4304 24.1306 80.8374 24.1782C80.4411 24.1825 80.0463 24.3244 79.6509 24.4664L79.6508 24.4665C79.4672 24.5324 79.2835 24.5984 79.0995 24.6507C79.17 24.8441 79.2277 25.0471 79.2855 25.2502L79.2855 25.2503L79.2855 25.2504C79.4095 25.6865 79.5335 26.1228 79.7845 26.4647C81.1228 28.2755 84.1672 28.9319 86.5869 28.0027C87.0411 27.8282 87.4841 27.6216 87.9622 27.3987C88.2052 27.2854 88.4572 27.1679 88.7243 27.0482L89.3819 27.8137L89.3838 27.816C89.8803 28.3939 90.393 28.9906 91.0552 29.7628C90.5421 29.9816 90.0576 30.2119 89.5887 30.4348C88.617 30.8966 87.7121 31.3267 86.7581 31.5577C79.6735 33.267 73.9494 28.2533 74.3585 21.7712ZM81.0697 20.8541C82.9162 20.8739 84.7626 20.8936 86.6091 20.8515C87.1051 20.8407 87.5967 20.6954 88.0889 20.55L88.089 20.55C88.3142 20.4835 88.5396 20.4169 88.7655 20.3632C88.6607 20.1666 88.5575 19.9688 88.4543 19.7709C88.1829 19.2506 87.9113 18.7298 87.608 18.2289C87.4597 17.9837 87.1929 17.7963 86.9455 17.6225L86.9103 17.5978C83.7137 15.3589 79.2105 17.4075 78.9949 20.6295C79.0743 20.6633 79.1434 20.6985 79.2055 20.7303C79.3244 20.791 79.4181 20.8388 79.5118 20.8388C80.0311 20.843 80.5504 20.8486 81.0697 20.8541ZM40.5681 25.028H40.5427C40.5427 24.5696 40.5513 24.1104 40.5598 23.651V23.6508C40.5798 22.5785 40.5998 21.5058 40.511 20.4424C40.4159 19.3071 40.2192 18.1083 39.7467 17.0903C37.3397 11.9212 29.7604 12.4222 26.5638 15.1908C26.3925 15.3398 26.234 15.6379 26.2498 15.8536C26.3418 17.0935 28.2826 18.0544 29.364 17.4202C31.6188 16.0977 34.882 16.7193 35.9412 18.676C36.7118 20.0999 36.4645 20.5914 34.8883 20.6929C34.4675 20.7193 34.0376 20.714 33.6081 20.7088C32.7493 20.6982 31.8925 20.6876 31.1145 20.9308C29.5099 21.435 27.7657 22.0661 26.5638 23.1665C24.0807 25.4403 24.8893 29.6581 27.8989 31.1708C30.179 32.3156 32.494 31.9731 34.8059 31.1866C35.2626 31.0312 35.7858 30.9805 36.271 31.0122C36.8172 31.0474 37.3606 31.1153 37.9043 31.1833L37.9043 31.1833C38.3897 31.2439 38.8753 31.3046 39.363 31.342C40.2192 31.4054 40.5903 30.9551 40.5776 30.0894C40.5572 28.8845 40.5611 27.6796 40.565 26.4735L40.565 26.4705C40.5665 25.9899 40.5681 25.5091 40.5681 25.028ZM35.2911 27.7458C33.9274 28.1422 32.4306 28.3452 31.0289 28.2215C30.4264 28.1676 29.6018 27.1337 29.4623 26.4297C29.3418 25.824 29.8777 24.7077 30.4327 24.4255C31.254 24.0093 32.1727 23.7863 33.1844 23.5407C33.622 23.4344 34.077 23.324 34.549 23.1919C34.7369 23.3138 34.969 23.43 35.202 23.5466C35.7202 23.806 36.2429 24.0676 36.2932 24.4001C36.3172 24.5593 36.3491 24.727 36.3819 24.8995C36.5917 26.0021 36.8378 27.2961 35.2911 27.7458ZM100.87 25.9064C100.86 27.3811 101.314 28.3325 103.001 28.4371V28.4434C103.388 28.4656 103.962 29.1189 104.048 29.5597C104.209 30.3938 104.365 31.3483 103.106 31.7194C99.6839 32.7247 96.6966 30.6158 96.6807 27.0513C96.6708 24.5028 96.676 21.9543 96.6811 19.4058C96.6892 15.4595 96.6972 11.5133 96.649 7.56701C96.63 5.99406 97.3974 5.82599 98.5835 5.89575C98.7543 5.90554 98.9291 5.90544 99.1023 5.90533C100.052 5.90476 100.955 5.90422 100.899 7.53213C100.823 9.71738 100.839 11.9073 100.856 14.0965C100.863 15.0239 100.87 15.9511 100.87 16.8778H100.876C100.876 17.7631 100.878 18.6483 100.879 19.5335C100.882 21.6578 100.886 23.7821 100.87 25.9064Z" fill="#2E3224"/>
</svg>
