<svg width="156" height="40" viewBox="0 0 156 40" fill="none" xmlns="http://www.w3.org/2000/svg">
<g id="Group 2381">
<g id="xYZesc">
<g id="Group">
<path id="Vector" d="M18.0324 3.97433C28.0795 3.98307 36.0804 11.984 36.0454 22.0179C36.0148 31.0944 28.9626 40.0091 17.8488 39.8998C7.79297 39.7992 -0.286651 31.9863 0.0412561 21.2441C0.360419 10.8079 8.93846 3.89126 18.0324 3.97433ZM14.9282 17.7071C15.0113 17.6983 15.0594 17.6546 15.0638 17.5672L15.055 17.5759C15.2692 17.5628 15.3348 17.4185 15.3567 17.2305L15.3654 17.2218C15.7546 17.2218 15.9732 17.0032 16.1043 16.6621H16.0956C16.3142 16.7102 16.4497 16.6228 16.4978 16.4086L16.4891 16.4173C16.6902 16.4698 16.8694 16.3954 17.0443 16.308C17.9843 15.8402 18.9724 15.6391 20.0261 15.6609C21.2721 15.6828 22.4788 15.9407 23.6899 16.1812C23.8517 16.2118 24.0528 16.426 24.1621 16.1025L24.1839 16.0675C24.4812 15.9845 24.5162 15.6872 24.5075 15.4948C24.4681 14.5198 24.713 13.5798 24.7873 12.6223C24.8092 12.3338 24.901 11.9534 24.5774 11.796C23.7161 11.3675 22.8067 11.114 21.823 11.2407C21.7356 11.232 21.6438 11.2189 21.5563 11.2101C21.4907 10.9872 21.3027 11.0221 21.1366 11.0134C19.0686 10.9172 17.0356 11.0877 15.1162 11.9097C14.4517 12.1939 13.739 12.4562 13.2843 13.0814H13.2756C12.9914 13.0683 12.7772 13.1339 12.764 13.4705C12.646 13.4749 12.5454 13.4967 12.5279 13.641L12.5411 13.6235C11.8066 13.9864 11.1988 14.4673 10.9627 15.298V15.2893C10.919 15.3418 10.8797 15.3899 10.8359 15.4423L10.8534 15.4292C10.7135 15.4511 10.6917 15.556 10.6917 15.6697C10.3288 15.8096 10.1583 16.0675 10.1889 16.461C9.80414 16.7015 9.66423 17.0644 9.67297 17.5016V17.4928C9.40627 17.6721 9.35818 17.9738 9.25762 18.2536C8.66302 19.88 8.63242 21.5764 8.77669 23.2509C8.86414 24.2433 9.01279 25.2883 9.65111 26.1452L9.67735 26.1714L9.66423 26.2064C9.64674 26.4425 9.71669 26.6392 9.91344 26.7835C9.88721 27.2339 10.1583 27.5312 10.4512 27.811V27.7979C10.4687 28.0864 10.5124 28.3575 10.8622 28.4362V28.4274C10.7879 28.7072 10.9321 28.8253 11.1857 28.8603L11.1988 28.8778C11.2119 28.9958 11.2557 29.0876 11.3912 29.1007C11.4174 29.1357 11.448 29.1663 11.4743 29.2013L11.6098 29.3631V29.3543C11.5923 29.6254 11.7235 29.7522 11.9902 29.7522H11.9858C12.0339 29.7959 12.0776 29.8396 12.1257 29.8833L12.117 29.8746C12.1651 29.9183 12.2132 29.9664 12.2613 30.0101L12.2525 29.997C12.2875 30.15 12.3749 30.2419 12.5367 30.255L12.5236 30.2419C12.5454 30.373 12.6416 30.4036 12.7553 30.408H12.764C12.7815 30.7446 12.9958 30.8102 13.2712 30.7971L13.2799 30.8059C13.3324 31.1163 13.5641 31.16 13.8221 31.1644L13.809 31.1556C14.4735 31.8508 15.3786 32.0781 16.2486 32.3317C16.6989 32.4629 17.158 32.7689 17.6652 32.511C17.7526 32.5241 17.8444 32.5416 17.9319 32.5547C18.9637 33.0531 19.9999 33.0138 21.036 32.5765C21.1279 32.5591 21.2197 32.5416 21.3115 32.5285C22.4482 32.6378 23.4538 32.288 24.3851 31.6715L24.3763 31.6803C25.3251 31.501 25.4387 31.3699 25.4387 30.4167C25.4387 28.5936 25.4387 26.7704 25.4387 24.9473C25.4387 24.134 25.4562 23.3165 25.43 22.5033C25.4212 22.2059 25.4519 21.7906 24.9316 21.8518C24.8398 21.8518 24.7479 21.8431 24.6561 21.8387C24.49 21.7032 24.3239 21.7032 24.1577 21.8387H23.8779C23.0341 21.6376 22.1728 21.8081 21.3246 21.7425C20.8218 21.7032 20.6382 21.9043 20.6469 22.4114C20.6732 23.8061 20.6557 25.2052 20.6557 26.5999C20.6557 27.5151 20.2287 28.0835 19.3746 28.305C19.2435 28.2963 19.1079 28.2875 18.9768 28.2788C18.1942 27.8591 17.2979 27.7935 16.4847 27.4699L16.4934 27.4787C16.4541 27.2513 16.3142 27.1683 16.0912 27.2207H16.0999C16.0825 27.0808 15.9819 27.059 15.8639 27.059C15.6321 26.5999 15.3523 26.1889 14.8277 26.0272C14.7883 25.9834 14.7533 25.9353 14.714 25.8916L14.7053 25.8785C14.7053 25.7692 14.6746 25.6774 14.5566 25.638C14.5653 25.52 14.5479 25.4151 14.3905 25.4019V25.4107C14.456 25.2489 14.3773 25.1178 14.3118 24.9822C13.4636 23.2072 13.4592 21.3927 14.0319 19.539C14.1238 19.2373 14.373 18.975 14.2943 18.6252L14.2855 18.6339C14.4866 18.5727 14.5785 18.4416 14.5347 18.2273V18.2361C14.749 18.1967 14.8277 18.0568 14.8058 17.847V17.8557C14.8452 17.8076 14.8845 17.7552 14.9282 17.7071Z" fill="#2E3224"/>
<path id="Vector_2" d="M88.6459 30.819C83.2813 30.8059 79.6219 27.1377 79.6306 21.7863C79.6394 16.5485 83.3731 12.9503 88.7814 12.9765C93.888 12.9984 97.53 16.7015 97.5169 21.8606C97.5037 27.129 93.8356 30.8365 88.6459 30.8234V30.819ZM88.5847 27.2732C91.6451 27.2732 93.8662 24.9823 93.8443 21.8475C93.8224 18.7477 91.5883 16.4654 88.5803 16.4698C85.5592 16.4742 83.3119 18.7783 83.3207 21.8518C83.3294 25.026 85.5111 27.2776 88.5803 27.2776L88.5847 27.2732Z" fill="#2E3224"/>
<path id="Vector_3" d="M63.6553 21.8693C63.6553 19.1543 63.6553 16.4392 63.6553 13.7241C63.6553 13.2782 63.7296 12.9765 64.2805 12.9809C66.5452 13.0027 68.81 12.9372 71.066 13.0333C74.0827 13.1601 76.1551 15.5954 75.9671 18.634C75.8359 20.737 74.944 22.3503 72.9853 23.2553C72.5219 23.4695 72.5131 23.6575 72.7536 24.0729C73.8903 26.0272 74.9921 27.999 76.107 29.9664C76.4276 30.5319 76.2746 30.8132 75.6479 30.8103C74.9134 30.8103 74.1789 30.7797 73.4488 30.8146C72.8323 30.8452 72.4607 30.6179 72.1765 30.0583C71.2889 28.3094 70.3533 26.5912 69.4395 24.8598C68.9761 23.9811 68.5127 23.7843 67.5377 23.9942C67.1048 24.086 67.2142 24.392 67.2142 24.6456C67.2054 26.4775 67.1923 28.3094 67.2229 30.137C67.2316 30.6616 67.1005 30.8671 66.5452 30.8277C65.8807 30.7797 65.2117 30.8146 64.5428 30.8103C63.6902 30.8059 63.6596 30.7797 63.6596 29.949C63.6596 27.2558 63.6596 24.5625 63.6596 21.8693H63.6553ZM67.201 18.481H67.1573C67.1573 18.9969 67.1617 19.5128 67.1573 20.0287C67.1529 20.4003 67.3103 20.5796 67.6995 20.5708C68.5608 20.5577 69.4177 20.5839 70.279 20.5577C71.4638 20.5271 72.2377 19.7183 72.2508 18.5378C72.2683 17.3748 71.4857 16.5179 70.3227 16.4698C69.4658 16.4348 68.6045 16.4698 67.7432 16.4567C67.3584 16.4523 67.1967 16.6272 67.201 17.0032C67.2098 17.4972 67.201 17.9913 67.201 18.4853V18.481Z" fill="#2E3224"/>
<path id="Vector_4" d="M128.677 21.8606C128.677 19.1237 128.681 16.3867 128.673 13.6542C128.673 13.2476 128.747 12.9765 129.219 12.9809C131.589 13.0027 133.959 12.8978 136.328 13.0334C139.524 13.217 141.286 16.2119 140.941 19.0625C140.709 20.9731 139.782 22.4202 137.99 23.2291C137.561 23.4214 137.487 23.592 137.74 24.0292C138.93 26.0753 140.062 28.1564 141.247 30.2069C141.544 30.7228 141.413 30.819 140.888 30.8059C139.983 30.784 139.078 30.784 138.173 30.8059C137.723 30.819 137.461 30.6266 137.259 30.2375C136.333 28.4406 135.384 26.6524 134.453 24.8511C134.278 24.5145 134.081 24.2128 133.736 24.0467C133.281 23.828 132.774 23.8718 132.35 24.0467C132.013 24.1866 132.197 24.6281 132.192 24.9298C132.179 26.6743 132.166 28.4187 132.201 30.1632C132.21 30.6922 132.039 30.8278 131.536 30.8015C130.828 30.7622 130.111 30.7666 129.403 30.8015C128.839 30.8321 128.651 30.6267 128.655 30.0583C128.677 27.3214 128.664 24.5844 128.664 21.8519L128.677 21.8606ZM132.192 18.6034C132.192 18.6034 132.188 18.6034 132.184 18.6034C132.184 19.0974 132.201 19.5915 132.179 20.0855C132.166 20.4353 132.258 20.5883 132.643 20.5796C133.543 20.5534 134.448 20.5883 135.349 20.5621C136.455 20.5271 137.19 19.7358 137.225 18.5903C137.26 17.4229 136.551 16.5573 135.414 16.4873C134.536 16.4348 133.653 16.4742 132.774 16.4698C132.371 16.4698 132.183 16.6578 132.188 17.0601C132.197 17.576 132.188 18.0919 132.188 18.6078L132.192 18.6034Z" fill="#2E3224"/>
<path id="Vector_5" d="M58.7103 25.8873C58.7103 26.9847 58.706 28.0864 58.7103 29.1838C58.7103 29.5423 58.5923 29.7915 58.2556 29.9577C54.2727 31.9164 48.707 31.0026 46.3679 26.7967C43.1632 21.0299 45.5941 14.2007 52.7424 12.889C54.4126 12.583 56.0915 12.8234 57.7266 13.3175C58.0851 13.4268 58.1988 13.6716 58.1638 14.0039C58.0808 14.839 57.9889 15.6741 57.9015 16.5091C57.849 17.0207 57.4818 16.8589 57.2195 16.7933C56.0171 16.5091 54.8104 16.3386 53.5688 16.4261C51.0592 16.6053 49.0262 18.6514 48.7551 21.2878C48.4753 23.9592 50.0755 26.4731 52.4626 27.1071C53.1578 27.2907 53.8704 27.2907 54.5787 27.3257C55.0728 27.3475 55.134 27.0196 55.134 26.6436C55.134 25.2664 55.1558 23.8848 55.1252 22.5076C55.1121 21.9874 55.287 21.8343 55.7898 21.8649C56.4981 21.9087 57.2151 21.9087 57.9234 21.8737C58.5048 21.8431 58.7453 22.0442 58.7235 22.6475C58.6885 23.7231 58.7147 24.803 58.7147 25.8785L58.7103 25.8873Z" fill="#2E3224"/>
<path id="Vector_6" d="M115.04 21.9086C115.04 19.1935 115.053 16.4785 115.031 13.7678C115.027 13.1863 115.198 12.9677 115.797 12.972C118.319 12.9939 120.838 12.9852 123.36 12.972C123.767 12.972 123.937 13.0726 123.92 13.5142C123.889 14.3318 123.885 15.1537 123.924 15.9669C123.946 16.426 123.754 16.5003 123.36 16.496C122.005 16.4785 120.645 16.5091 119.286 16.4828C118.743 16.4697 118.564 16.6665 118.586 17.1955C118.617 17.9475 118.621 18.7039 118.582 19.4559C118.555 19.9805 118.765 20.116 119.259 20.1029C120.422 20.0723 121.585 20.1073 122.748 20.0854C123.142 20.0767 123.277 20.2079 123.268 20.6013C123.247 21.4408 123.242 22.2802 123.268 23.1197C123.282 23.535 123.159 23.688 122.726 23.6749C121.542 23.6487 120.357 23.6837 119.172 23.6574C118.748 23.6487 118.595 23.7886 118.608 24.2083C118.63 25.004 118.638 25.8041 118.608 26.5999C118.586 27.1026 118.752 27.2863 119.268 27.2775C120.645 27.2513 122.027 27.2775 123.404 27.2732C124.243 27.2688 124.296 27.3081 124.296 28.1213C124.296 28.834 124.274 29.5423 124.305 30.2549C124.327 30.6921 124.16 30.7971 123.745 30.7927C121.074 30.7752 118.402 30.7665 115.727 30.7927C115.18 30.7971 115.027 30.6353 115.031 30.1063C115.053 27.3693 115.04 24.6368 115.04 21.8999V21.9086Z" fill="#2E3224"/>
<path id="Vector_7" d="M149.16 30.972C147.573 30.9982 146.099 30.561 144.665 29.927C144.32 29.774 144.163 29.5641 144.211 29.1838C144.32 28.2875 144.416 27.3868 144.512 26.4906C144.565 25.9965 144.814 26.1539 145.085 26.3026C146.55 27.1158 148.102 27.553 149.794 27.3475C150.791 27.2251 151.433 26.6655 151.56 25.8304C151.67 25.0959 151.219 24.3745 150.323 23.981C149.317 23.5394 148.286 23.1678 147.319 22.6388C145.142 21.4452 144.158 19.7444 144.407 17.6983C144.867 13.9514 147.691 12.4736 151.057 12.8715C151.849 12.9633 152.614 13.1994 153.379 13.418C153.729 13.5142 153.869 13.6891 153.812 14.0695C153.694 14.8346 153.606 15.6041 153.523 16.3735C153.475 16.7976 153.278 16.9026 152.872 16.7802C151.879 16.4829 150.883 16.2205 149.829 16.2642C149.243 16.2905 148.731 16.4391 148.36 16.9419C147.643 17.9125 147.879 19.0624 148.954 19.6133C149.912 20.1029 150.909 20.5227 151.871 21.0036C153.143 21.6463 154.271 22.4551 154.831 23.8455C156.129 27.0633 153.864 30.6178 150.319 30.9195C149.934 30.9545 149.545 30.9588 149.156 30.9763L149.16 30.972Z" fill="#2E3224"/>
<path id="Vector_8" d="M102.235 21.8737C102.235 19.1192 102.243 16.3604 102.226 13.606C102.226 13.1382 102.335 12.9633 102.834 12.9677C105.334 12.9852 107.831 12.9764 110.332 12.9633C110.869 12.9633 111.127 13.1513 111.097 13.7241C111.062 14.4105 111.066 15.1013 111.088 15.7921C111.106 16.3211 110.878 16.5135 110.358 16.5047C109.024 16.4829 107.687 16.5091 106.353 16.4872C105.907 16.4785 105.741 16.6184 105.758 17.0731C105.789 17.9125 105.78 18.752 105.758 19.5914C105.75 19.9849 105.894 20.1161 106.283 20.1117C107.402 20.0942 108.526 20.1336 109.645 20.0898C110.179 20.068 110.31 20.256 110.279 20.75C110.24 21.4802 110.244 22.2147 110.266 22.9448C110.279 23.4695 110.061 23.6881 109.54 23.6837C108.465 23.6706 107.385 23.7012 106.309 23.675C105.863 23.6618 105.715 23.8017 105.719 24.2564C105.741 26.237 105.719 28.2176 105.741 30.1981C105.745 30.6834 105.605 30.8321 105.12 30.8058C104.346 30.7621 103.568 30.7665 102.794 30.8058C102.326 30.8277 102.221 30.6528 102.221 30.2156C102.239 27.4393 102.23 24.6587 102.23 21.8824L102.235 21.8737Z" fill="#2E3224"/>
<path id="Vector_9" d="M39.0139 3.91755C39.0096 5.5396 37.6455 6.88183 36.0322 6.8556C34.4014 6.82937 33.081 5.46965 33.1116 3.8476C33.1422 2.27802 34.515 0.913925 36.0671 0.913925C37.6411 0.913925 39.0183 2.31737 39.0139 3.91755Z" fill="#888F77"/>
<path id="Vector_10" d="M24.3804 31.6758C25.0625 31.3435 25.2374 30.8058 25.2243 30.0581C25.1849 27.6098 25.2199 25.157 25.2243 22.7087C25.2243 22.3851 25.2724 22.0528 24.927 21.8474C25.4516 21.7861 25.4166 22.2015 25.4254 22.4988C25.4516 23.312 25.4341 24.1296 25.4341 24.9428C25.4341 26.766 25.4341 28.5891 25.4341 30.4123C25.4341 31.361 25.3248 31.4922 24.3717 31.6758H24.3804Z" fill="#2E3224"/>
<path id="Vector_11" d="M23.8779 21.8343C23.1696 21.8474 22.4613 21.8605 21.7487 21.8649C20.8786 21.8693 20.8699 21.8649 20.8655 22.7655C20.8568 24.2695 20.8655 25.7779 20.8655 27.2819C20.8655 28.3006 20.8436 28.3225 19.8206 28.3268C19.6719 28.3268 19.5233 28.305 19.3702 28.2962C20.2272 28.0718 20.6556 27.5034 20.6556 26.5911C20.6556 25.1964 20.6731 23.7974 20.6469 22.4027C20.6381 21.8955 20.8218 21.6988 21.3246 21.7337C22.1728 21.7993 23.0341 21.6288 23.8779 21.8299V21.8343Z" fill="#2E3224"/>
<path id="Vector_12" d="M21.5608 11.2014C19.707 11.1271 17.8664 11.1796 16.0738 11.7611C15.0857 12.0846 14.1938 12.5961 13.2844 13.0727C13.7435 12.4431 14.4561 12.1808 15.1163 11.901C17.0357 11.079 19.0731 10.9085 21.1367 11.0047C21.3072 11.0134 21.4908 10.9741 21.5564 11.2014H21.5608Z" fill="#2E3224"/>
<path id="Vector_13" d="M9.68597 17.4885C9.37555 18.5597 9.04764 19.6221 8.93834 20.7457C8.75909 22.6038 9.13509 24.3833 9.65974 26.1409C9.02141 25.2796 8.87276 24.2346 8.78532 23.2465C8.64104 21.572 8.66727 19.8713 9.26625 18.2492C9.36681 17.9694 9.4149 17.6721 9.69034 17.4885H9.68597Z" fill="#2E3224"/>
<path id="Vector_14" d="M16.4933 16.4173C17.4989 15.7047 18.6531 15.5123 19.8423 15.4555C21.3244 15.3899 22.7323 15.8184 24.1663 16.0982C24.0614 16.4217 23.8559 16.2075 23.6941 16.1769C22.483 15.9408 21.2764 15.6785 20.0303 15.6566C18.9766 15.6391 17.9885 15.8358 17.0485 16.3037C16.8737 16.3911 16.6944 16.4654 16.4933 16.413V16.4173Z" fill="#2E3224"/>
<path id="Vector_15" d="M14.3992 25.4063C13.7872 24.6587 13.5729 23.7624 13.4986 22.8399C13.3805 21.3665 13.4724 19.9237 14.3031 18.6208C14.3774 18.9706 14.1325 19.2329 14.0364 19.5346C13.4636 21.384 13.468 23.2028 14.3162 24.9779C14.3818 25.1134 14.4605 25.2446 14.3992 25.4063Z" fill="#2E3224"/>
<path id="Vector_16" d="M24.1838 16.0632C24.3281 14.8914 24.4636 13.7241 24.6254 12.5567C24.691 12.0977 24.4811 11.8528 24.0833 11.7523C23.3356 11.5643 22.5793 11.4069 21.8273 11.2364C22.8066 11.1096 23.7204 11.3632 24.5817 11.7916C24.9009 11.949 24.8134 12.3294 24.7915 12.618C24.7172 13.5754 24.4724 14.5154 24.5117 15.4904C24.5205 15.6828 24.4811 15.9801 24.1882 16.0632H24.1838Z" fill="#2E3224"/>
<path id="Vector_17" d="M13.8131 31.1557C15.0504 31.7415 16.3139 32.2662 17.6737 32.511C17.1621 32.769 16.7031 32.4629 16.2571 32.3317C15.3871 32.0782 14.482 31.8508 13.8175 31.1557H13.8131Z" fill="#2E3224"/>
<path id="Vector_18" d="M17.9403 32.5547C18.9721 32.6421 20.0083 32.6334 21.0445 32.5766C20.0083 33.0181 18.9721 33.0575 17.9403 32.5547Z" fill="#2E3224"/>
<path id="Vector_19" d="M21.3157 32.5241C22.3693 32.3361 23.3749 31.9864 24.3893 31.6672C23.4536 32.2793 22.448 32.6334 21.3157 32.5241Z" fill="#2E3224"/>
<path id="Vector_20" d="M18.9724 28.2744C18.0674 28.2264 17.2017 28.069 16.4803 27.4656C17.2936 27.7891 18.1898 27.8547 18.9724 28.2744Z" fill="#2E3224"/>
<path id="Vector_21" d="M12.5456 13.6192C12.021 14.1788 11.4919 14.7341 10.9673 15.2937C11.2034 14.463 11.8111 13.9821 12.5456 13.6192Z" fill="#2E3224"/>
<path id="Vector_22" d="M15.8638 27.0502C15.4091 26.8185 15.0812 26.4556 14.8276 26.0228C15.3523 26.1846 15.6321 26.5955 15.8638 27.0502Z" fill="#2E3224"/>
<path id="Vector_23" d="M10.193 16.4479C10.0881 16.8283 9.93509 17.1868 9.67714 17.4929C9.6684 17.0557 9.8083 16.6928 10.193 16.4479Z" fill="#2E3224"/>
<path id="Vector_24" d="M9.92203 26.7836C10.1669 27.094 10.3549 27.4307 10.4598 27.811C10.1669 27.5269 9.90017 27.2339 9.92203 26.7836Z" fill="#2E3224"/>
<path id="Vector_25" d="M15.3655 17.2218C15.5579 16.9638 15.7765 16.7408 16.1044 16.6665C15.9732 17.0075 15.7546 17.2261 15.3655 17.2218Z" fill="#2E3224"/>
<path id="Vector_26" d="M10.696 15.6653C10.5867 15.967 10.4337 16.2381 10.1932 16.4523C10.1626 16.0632 10.3331 15.8009 10.696 15.6653Z" fill="#2E3224"/>
<path id="Vector_27" d="M10.4557 27.7978C10.6787 27.9552 10.7967 28.1825 10.871 28.4361C10.5256 28.3574 10.4819 28.0863 10.4557 27.7978Z" fill="#2E3224"/>
<path id="Vector_28" d="M13.2806 13.0814C13.1536 13.2697 12.9784 13.3923 12.7682 13.4668C12.7813 13.1296 13.0003 13.0595 13.2806 13.0814Z" fill="#2E3224"/>
<path id="Vector_29" d="M13.2844 30.8015C13.4903 30.8847 13.7092 30.946 13.8275 31.1606C13.5691 31.1562 13.337 31.1124 13.2844 30.8015Z" fill="#2E3224"/>
<path id="Vector_30" d="M12.764 30.4123C12.983 30.4737 13.1451 30.6094 13.2721 30.7934C12.9962 30.8065 12.7816 30.7408 12.764 30.4123Z" fill="#2E3224"/>
<path id="Vector_31" d="M11.6141 29.3543C11.798 29.4332 11.9294 29.5646 11.9951 29.7529C11.728 29.7529 11.5966 29.6259 11.6141 29.3543Z" fill="#2E3224"/>
<path id="Vector_32" d="M10.8668 28.4274C11.0419 28.5238 11.1558 28.6639 11.1952 28.861C10.9412 28.826 10.7967 28.7077 10.8668 28.4274Z" fill="#2E3224"/>
<path id="Vector_33" d="M16.494 27.4748C16.3188 27.4529 16.1743 27.3785 16.0911 27.212C16.3144 27.1595 16.4502 27.2427 16.494 27.4748Z" fill="#2E3224"/>
<path id="Vector_34" d="M14.5433 18.2323C14.5652 18.0528 14.6397 17.9126 14.8149 17.8426C14.8368 18.0528 14.7579 18.1929 14.5433 18.2323Z" fill="#2E3224"/>
<path id="Vector_35" d="M14.2943 18.6302C14.3074 18.4507 14.3731 18.3018 14.5439 18.2229C14.5877 18.4375 14.4958 18.5689 14.2943 18.6302Z" fill="#2E3224"/>
<path id="Vector_36" d="M16.0957 16.6669C16.1702 16.4917 16.3191 16.4261 16.4986 16.4085C16.4504 16.6275 16.3147 16.7107 16.0957 16.6669Z" fill="#2E3224"/>
<path id="Vector_37" d="M15.0549 17.5765C15.09 17.4013 15.1819 17.283 15.3571 17.2305C15.3352 17.4144 15.2695 17.5589 15.0549 17.5765Z" fill="#2E3224"/>
<path id="Vector_38" d="M9.67752 26.2064C9.83518 26.3685 9.92715 26.5568 9.92715 26.7845C9.73007 26.64 9.66438 26.4429 9.67752 26.2064Z" fill="#2E3224"/>
<path id="Vector_39" d="M24.657 21.8389C24.4906 21.8389 24.3241 21.8389 24.1577 21.8389C24.3241 21.7075 24.4906 21.7075 24.657 21.8389Z" fill="#2E3224"/>
<path id="Vector_40" d="M12.2566 29.997C12.4015 30.0321 12.4982 30.1112 12.5421 30.2562C12.3796 30.243 12.2917 30.1507 12.2566 29.997Z" fill="#2E3224"/>
<path id="Vector_41" d="M16.101 27.2172C15.9868 27.2128 15.9077 27.1557 15.8638 27.0502C15.9824 27.0502 16.0834 27.0722 16.101 27.2172Z" fill="#2E3224"/>
<path id="Vector_42" d="M11.2075 28.8778C11.2734 28.9524 11.3393 29.0271 11.4008 29.1018C11.2646 29.0886 11.2163 28.9964 11.2075 28.8778Z" fill="#2E3224"/>
<path id="Vector_43" d="M14.7013 25.8709C14.5959 25.8226 14.5564 25.7391 14.552 25.6293C14.6706 25.6688 14.697 25.7611 14.7013 25.8709Z" fill="#2E3224"/>
<path id="Vector_44" d="M12.5234 30.2418C12.6333 30.2506 12.7123 30.3033 12.7562 30.4087C12.642 30.4043 12.5454 30.3736 12.5234 30.2418Z" fill="#2E3224"/>
<path id="Vector_45" d="M14.5616 25.6391C14.4518 25.5952 14.4034 25.5073 14.3947 25.3975C14.5528 25.4107 14.566 25.5161 14.5616 25.6391Z" fill="#2E3224"/>
<path id="Vector_46" d="M12.7652 13.4661C12.7212 13.5715 12.6378 13.6243 12.528 13.6374C12.5411 13.4925 12.6466 13.4705 12.7652 13.4661Z" fill="#2E3224"/>
<path id="Vector_47" d="M10.8584 15.4248C10.8541 15.539 10.8013 15.6225 10.6959 15.6664C10.6959 15.5522 10.7179 15.4468 10.8584 15.4248Z" fill="#2E3224"/>
<path id="Vector_48" d="M12.1259 29.8746C12.1741 29.9185 12.2223 29.9667 12.2662 30.0106C12.2179 29.9667 12.1697 29.9185 12.1259 29.8746Z" fill="#2E3224"/>
<path id="Vector_49" d="M10.9717 15.2849C10.9278 15.3375 10.8883 15.3858 10.8445 15.4384C10.8883 15.3901 10.9278 15.3375 10.9717 15.2849Z" fill="#2E3224"/>
<path id="Vector_50" d="M14.9283 17.7075C14.9722 17.6593 15.0204 17.6154 15.0643 17.5672C15.0599 17.6549 15.0117 17.6987 14.9283 17.7075Z" fill="#2E3224"/>
</g>
</g>
</g>
</svg>
