<svg width="122" height="41" viewBox="0 0 122 41" fill="none" xmlns="http://www.w3.org/2000/svg">
<g id="Group 2397">
<path id="Vector" d="M24.8657 11.4427C24.7789 11.45 24.692 11.45 24.6041 11.45C21.8681 11.4406 19.132 11.4322 16.3959 11.4207C16.013 11.4197 15.6321 11.4626 15.2471 11.4416C14.9238 11.4239 14.7271 11.6111 14.7554 11.8361C14.8527 12.6145 14.8349 13.3951 14.8098 14.1767C14.792 14.705 14.9489 14.8829 15.4616 14.8819C16.9955 14.8787 18.5283 14.8714 20.0622 14.8693C20.5843 14.8693 21.1064 14.8735 21.6285 14.8819C22.0282 14.8881 22.0397 14.9091 21.9099 15.3088C21.8461 15.5065 21.731 15.7043 21.7279 15.9041C21.7185 16.5214 21.3711 17.0194 21.1901 17.574C21.0279 18.0689 20.7088 18.4822 20.4545 18.931C19.9262 19.8601 19.2042 20.6041 18.3829 21.2507C17.6473 21.8303 16.8291 22.2792 15.9471 22.6276C15.4093 22.84 14.8548 22.9739 14.3023 23.0754C13.6379 23.1968 12.9474 23.1288 12.2683 23.1549C11.5558 23.1811 10.8945 22.9561 10.2259 22.8002C9.71743 22.681 9.24869 22.3817 8.7674 22.1515C8.09777 21.8303 7.51498 21.3836 6.96672 20.8876L6.94161 20.8625C6.6769 20.7568 6.50112 20.5392 6.3358 20.331C5.92879 19.8172 5.48098 19.336 5.15558 18.7553C4.75694 18.0438 4.33528 17.3323 4.15009 16.5455C3.91572 15.5525 3.72111 14.5471 3.72111 13.5049C3.72111 12.2117 3.97431 10.9708 4.43364 9.79163C4.9662 8.42412 5.76976 7.19786 6.9165 6.24887C7.44592 5.81047 7.96489 5.34383 8.57697 5.01633C8.88144 4.85416 9.19952 4.69931 9.5291 4.60933C10.0303 4.47226 10.5199 4.29334 11.0148 4.14582C11.7023 3.94074 12.3824 3.92714 13.074 3.91354C13.6316 3.90203 14.1799 3.9397 14.7051 4.17302C14.8872 4.25358 15.1373 4.18034 15.3183 4.26195C16.0737 4.59991 16.894 4.79557 17.572 5.30197C17.8765 5.52902 18.2029 5.72154 18.4959 5.96951C18.747 6.18191 18.9018 6.10553 18.9625 5.78432C19.018 5.49031 19.0305 5.19525 18.8851 4.91589C18.7459 4.64804 18.6894 4.35926 18.6769 4.06002C18.6654 3.77857 18.5942 3.50967 18.5042 3.24495C18.4195 2.99594 18.3734 2.74273 18.364 2.47802C18.3442 1.91511 18.1558 1.6912 17.6002 1.51229C16.94 1.29989 16.2819 1.0833 15.6227 0.86986C15.5401 0.842657 15.4564 0.810221 15.3706 0.802897C14.0564 0.690944 12.7465 0.404258 11.4208 0.703499C11.2377 0.745351 11.0441 0.783018 10.8548 0.712916C10.7093 0.764184 10.5618 0.777786 10.4101 0.747444C9.79381 1.02994 9.11686 1.11679 8.48908 1.38568C7.62798 1.75398 6.76583 2.09717 5.98215 2.62241C5.11059 3.20624 4.31436 3.87482 3.59974 4.63967C2.90081 5.38882 2.3379 6.23318 1.79801 7.10684C1.27173 7.95852 0.937958 8.87612 0.634532 9.80523C0.415856 10.4749 0.28193 11.1738 0.18881 11.8853C-0.0445147 13.6556 0.0517446 15.381 0.547689 17.0979C0.658597 17.4819 0.807171 17.8502 0.913893 18.23C1.09386 18.8724 1.38263 19.4646 1.70803 20.0328C2.29396 21.0592 3.04939 21.9611 3.83934 22.841C4.4713 23.5442 5.20476 24.1196 5.98215 24.6156C6.70096 25.0749 7.45953 25.4861 8.27773 25.7926C9.2759 26.1662 10.2908 26.4434 11.3361 26.5816C12.0057 26.6705 12.6952 26.5973 13.3721 26.6464C14.3504 26.7165 15.2586 26.3775 16.194 26.2059C16.5288 26.1442 16.8752 26.0448 17.188 25.9088C17.8995 25.6001 18.6068 25.2705 19.2795 24.8845C20.6523 24.0966 21.8189 23.0493 22.793 21.8104C23.741 20.603 24.4493 19.2543 24.9285 17.7874C25.2267 16.8761 25.46 15.9596 25.504 14.9959C25.55 13.9862 25.5626 12.9787 25.4872 11.97C25.4475 11.4322 25.4077 11.4019 24.8668 11.4458L24.8657 11.4427Z" fill="#2E3224"/>
<path id="Vector_2" d="M42.2027 26.4717C42.3178 26.4843 42.4403 26.4246 42.5606 26.4027C42.8494 26.3483 42.9676 26.1673 42.9644 25.8837C42.9592 25.4484 42.9582 25.0132 42.9592 24.5779C42.9665 19.5756 42.9749 14.5743 42.9833 9.57194C42.9833 8.99543 42.9686 8.97764 42.4329 8.7935C42.3262 8.83744 42.2184 8.83953 42.1107 8.79663C41.418 8.87301 40.7233 8.83953 40.0285 8.82384C39.6623 8.81547 39.5159 8.95149 39.5211 9.31037C39.5232 9.44952 39.5525 9.58763 39.5525 9.72679C39.5493 12.759 39.519 15.7922 39.5588 18.8243C39.5692 19.584 39.3704 20.285 39.1402 20.9546C38.8577 21.7739 38.276 22.4236 37.4599 22.8557C36.3184 23.4594 35.158 23.5002 33.982 23.0775C33.553 22.9237 33.1293 22.703 32.7882 22.3514C32.1949 21.7404 31.7094 21.0854 31.6257 20.2044C31.6195 20.1364 31.5975 20.0673 31.5703 20.0035C31.4259 19.6582 31.3955 19.2952 31.3955 18.9279C31.3955 16.7663 31.383 14.6057 31.406 12.444C31.4165 11.3841 31.3181 10.3221 31.4384 9.26224C31.4646 9.031 31.2742 8.84058 31.0084 8.83639C30.1902 8.82174 29.371 8.81651 28.5517 8.83012C28.2295 8.83535 28.0788 9.00799 28.0725 9.33129C28.0673 9.59182 28.106 9.85339 28.106 10.1139C28.1049 12.693 28.0966 15.2732 28.0976 17.8523C28.0976 18.4791 28.1091 19.1068 28.1405 19.7336C28.1614 20.149 28.1635 20.5758 28.3278 20.9682C28.5423 21.4798 28.6459 22.0239 28.8551 22.5408C29.1962 23.3789 29.6922 24.1092 30.3451 24.7003C30.9802 25.2758 31.6634 25.8063 32.5078 26.0972C33.2653 26.3577 34.0144 26.6025 34.8253 26.6391C36.1436 26.6988 37.4191 26.5429 38.6432 26.0197C38.8713 25.9224 39.0722 25.7937 39.2825 25.6744C39.4552 25.5761 39.5514 25.6483 39.5619 25.8241C39.5724 25.9925 39.4949 26.1788 39.6759 26.3022C39.8245 26.4037 40.0003 26.4267 40.1729 26.4477C40.8488 26.5272 41.5279 26.3985 42.2059 26.4728L42.2027 26.4717Z" fill="#2E3224"/>
<path id="Vector_3" d="M121.966 25.371C121.923 25.0163 121.914 24.6606 121.964 24.3059C121.902 24.1364 121.933 23.9606 121.932 23.788C121.929 22.1861 121.929 20.5853 121.932 18.9834C121.932 18.8107 121.902 18.635 121.964 18.4665C121.922 18.251 121.921 18.0354 121.964 17.8199C121.893 17.2507 121.952 16.6752 121.901 16.1061C121.824 15.245 121.667 14.4048 121.326 13.5929C121.153 13.1827 120.995 12.7642 120.786 12.3729C120.314 11.4908 119.665 10.7595 118.83 10.1997C118.787 10.1704 118.742 10.1453 118.743 10.0846L118.704 10.0731L118.702 10.0313L118.66 10.0334L118.667 9.99254C118.639 9.96325 118.61 9.935 118.58 9.9057C118.192 9.80735 117.857 9.58553 117.48 9.45266C116.773 9.20364 116.057 9.01635 115.318 8.93997C114.435 8.84894 113.568 8.9023 112.69 9.13249C111.877 9.34593 111.112 9.62843 110.355 10.071C110.346 9.90152 110.301 9.74876 110.339 9.61902C110.434 9.28839 110.3 9.04983 110.092 8.82383C109.893 8.81337 109.694 8.80291 109.495 8.79244C109.398 8.84685 109.292 8.82697 109.189 8.82906C108.737 8.83534 108.285 8.83639 107.833 8.84894C107.345 8.86254 107.205 9.03832 107.252 9.52171C107.277 9.78015 107.285 10.0417 107.285 10.3022C107.288 14.9991 107.288 19.6959 107.288 24.3917C107.288 24.9127 107.329 25.4401 107.262 25.9538C107.215 26.3148 107.322 26.5146 107.611 26.6705C107.755 26.6412 107.899 26.6308 108.042 26.6789C108.069 26.6465 108.098 26.6454 108.128 26.6747C108.204 26.6349 108.277 26.636 108.35 26.6852C108.901 26.5931 109.457 26.6496 110.01 26.6517C110.443 26.6538 110.579 26.5554 110.595 26.1202C110.607 25.7895 110.592 25.4579 110.591 25.1262C110.58 22.2143 110.581 19.3025 110.551 16.3917C110.543 15.5463 110.731 14.7584 111.158 14.0532C111.715 13.1304 112.504 12.4974 113.624 12.3247C114.363 12.2107 115.084 12.2703 115.809 12.3791C116.158 12.4315 116.472 12.6177 116.752 12.8029C117.352 13.1984 117.792 13.7404 118.114 14.4058C118.501 15.2094 118.535 16.0569 118.543 16.9044C118.567 19.607 118.553 22.3096 118.552 25.0121C118.552 25.3752 118.544 25.7372 118.532 26.1003C118.525 26.3284 118.636 26.4592 118.849 26.5146C119.104 26.5805 119.364 26.6025 119.628 26.5847C120.132 26.5512 120.636 26.5324 121.143 26.5565C121.296 26.5638 121.457 26.5387 121.606 26.5C121.832 26.4414 121.956 26.2991 121.943 26.0438C121.932 25.8199 121.902 25.5918 121.968 25.3689L121.966 25.371Z" fill="#2E3224"/>
<path id="Vector_4" d="M64.082 25.6179C64.1217 25.5949 64.1615 25.5719 64.2012 25.5489C64.2201 25.5029 64.2263 25.438 64.2609 25.4129C64.7861 25.0331 65.2235 24.5894 65.5551 24.0129C65.8115 23.5682 66.0469 23.1089 66.0699 22.6214C66.1107 21.7529 66.2635 20.8699 65.7895 20.0265C65.5091 19.5285 65.2705 19.0085 64.851 18.6182C64.2546 18.0626 63.5326 17.6839 62.8138 17.3156C61.9967 16.8971 61.1628 16.5183 60.2849 16.2295C59.4971 15.9711 58.7437 15.6101 57.9684 15.3119C57.4568 15.1163 56.9692 14.8442 56.5455 14.478C56.4492 14.3954 56.3571 14.3148 56.3477 14.1851C56.3289 13.9256 56.3111 13.664 56.3153 13.4035C56.3184 13.189 56.3948 13.0216 56.5988 12.8856C57.0456 12.5884 57.5133 12.4043 58.0553 12.4105C58.5774 12.4168 59.1005 12.398 59.6226 12.4022C61.3114 12.4158 63.0011 12.3593 64.6888 12.4503C64.9211 12.4629 65.0393 12.3394 65.1596 12.1866C65.1659 12.1082 65.1722 12.0307 65.1785 11.9523C65.1136 11.7838 65.1439 11.608 65.1419 11.4354C65.1356 10.861 65.1387 10.2855 65.1293 9.7111C65.122 9.26851 65.0058 9.17225 64.5559 9.18795C64.2253 9.19946 63.8947 9.20678 63.5651 9.20887C61.6326 9.21829 59.699 9.2298 57.7665 9.22875C57.0927 9.22875 56.4733 9.47987 55.8413 9.64204C55.3276 9.77387 54.8871 10.1265 54.4225 10.4017C53.4254 10.9939 53.1345 12.0035 52.897 13.0059C52.7725 13.5322 52.8395 14.1171 52.9159 14.6695C53.0048 15.3172 53.3061 15.8937 53.6943 16.3938C54.2991 17.1733 55.1372 17.7142 56.0119 18.115C56.9159 18.5282 57.8366 18.9216 58.7866 19.247C59.7649 19.5819 60.7108 20.0244 61.6388 20.4848C62.0385 20.6826 62.479 20.9201 62.5774 21.46C62.726 22.2803 62.4822 22.7291 61.6776 23.0639C61.551 23.1466 61.4139 23.1591 61.2706 23.1215C61.1377 23.2313 60.9724 23.2041 60.8206 23.2167C59.9166 23.2868 59.0116 23.2512 58.1065 23.2533C56.6093 23.2575 55.1131 23.247 53.6158 23.2439C53.0414 23.2429 52.9159 23.3663 52.9127 23.9428C52.9096 24.5863 52.9127 25.2308 52.9117 25.8743C52.9106 26.4947 53.0603 26.6444 53.6692 26.6433C55.4448 26.6391 57.2203 26.6412 58.9959 26.6308C59.6394 26.6276 60.2818 26.6255 60.9242 26.5439C61.1963 26.5094 61.3909 26.3043 61.6556 26.2949C62.3817 26.2698 63.0367 26.0082 63.6854 25.7121C63.8078 25.6556 63.9386 25.596 64.084 25.6169L64.082 25.6179Z" fill="#2E3224"/>
<path id="Vector_5" d="M83.8957 19.292C83.8957 18.3503 83.8863 17.4097 83.8622 16.468C83.8423 15.6938 83.654 14.9478 83.518 14.1997C83.4259 13.6901 83.2188 13.1753 83.0043 12.6784C82.5795 11.6927 81.9485 10.8787 81.1303 10.2133C80.4984 9.6985 79.79 9.35008 78.9676 9.15652C78.2823 8.99434 77.6211 8.86041 76.9148 8.88134C76.3697 8.89704 75.834 8.88343 75.3433 9.16907C75.2857 9.20255 75.2104 9.20883 75.1424 9.22139C74.3744 9.35322 73.71 9.70792 73.0843 10.1557C72.8479 10.3252 72.6512 10.5544 72.3687 10.6391C72.2954 10.4288 72.4304 10.2562 72.4241 10.0647C72.4084 9.58236 72.3885 9.10002 72.3896 8.61767C72.3927 6.50834 72.4032 4.39901 72.4126 2.28967C72.4126 2.11389 72.4011 1.94125 72.3404 1.77489C72.2536 1.53634 72.0998 1.4045 71.8267 1.43171C71.044 1.51227 70.2593 1.44949 69.4756 1.461C69.0006 1.46833 68.8834 1.54994 68.8416 2.02496C68.8102 2.38802 68.8416 2.75632 68.8416 3.12148C68.8416 10.2708 68.8416 17.4191 68.8416 24.5685C68.8416 25.0738 68.8301 25.5792 68.8343 26.0856C68.8374 26.4738 68.9807 26.6265 69.3658 26.6318C70.0804 26.6412 70.795 26.636 71.5096 26.6349C71.7189 26.6349 71.9303 26.6475 72.1364 26.6213C72.4827 26.5784 72.5779 26.4508 72.5779 26.1044C72.5758 22.862 72.5748 19.6184 72.5695 16.376C72.5685 15.6645 72.8772 15.0346 73.0603 14.3702C73.1628 13.9967 73.4516 13.7801 73.664 13.5028C74.0971 12.9378 74.6914 12.5434 75.3757 12.4136C76.0882 12.2787 76.828 12.2462 77.5635 12.3519C78.4225 12.4754 79.0765 12.9263 79.5912 13.5928C80.1887 14.366 80.3927 15.2878 80.4032 16.2305C80.4346 18.9153 80.4189 21.6012 80.423 24.286C80.423 24.8436 80.4157 25.4013 80.4283 25.959C80.4387 26.4298 80.5967 26.6056 81.0602 26.5931C81.7916 26.5732 82.5209 26.5533 83.2533 26.5638C83.6299 26.569 83.9135 26.3859 83.9072 25.8837C83.8769 23.6875 83.8926 21.4903 83.8947 19.2941L83.8957 19.292Z" fill="#2E3224"/>
<path id="Vector_6" d="M103.926 22.9551C103.865 20.8824 103.819 18.8097 103.763 16.738C103.741 15.9387 103.523 15.1948 103.315 14.4487C103.042 13.4694 102.473 12.624 101.846 11.8393C101.093 10.8955 100.183 10.1087 99.0669 9.61171C98.3073 9.27376 97.533 8.95882 96.6949 8.85315C96.245 8.79665 95.7962 8.74224 95.3452 8.69097C95.2081 8.67528 95.0616 8.64703 94.9309 8.67737C94.3669 8.80816 93.7925 8.86047 93.2202 8.87094C92.7943 8.87826 92.4731 9.1346 92.0933 9.24446C91.499 9.41606 90.8911 9.61799 90.3952 10.0156C89.8155 10.4801 89.2369 10.9416 88.72 11.4867C87.9562 12.2934 87.3933 13.2173 87.0041 14.2395C86.5396 15.4595 86.5312 16.7611 86.4559 18.0449C86.4475 18.1809 86.4925 18.32 86.5165 18.4561C86.5521 18.6611 86.6055 18.8652 86.573 19.0765L86.595 19.0995L86.5825 19.1288C86.6662 20.5225 87.2364 21.7331 88.0054 22.8652C88.6866 23.8675 89.5309 24.6972 90.5615 25.3501C91.2887 25.8115 92.0441 26.1715 92.8969 26.3127C92.9984 26.3294 93.103 26.3556 93.1961 26.4006C93.5832 26.5889 93.9944 26.636 94.4171 26.635C94.8534 26.6339 95.2908 26.6025 95.724 26.635C96.4783 26.6904 97.1699 26.3985 97.8594 26.2039C98.6797 25.9716 99.476 25.6002 100.203 25.1189C100.404 24.986 100.544 25.0655 100.547 25.2999C100.549 25.4558 100.506 25.6127 100.513 25.7676C100.532 26.1662 100.653 26.2813 101.05 26.2824C101.799 26.2845 102.549 26.2824 103.298 26.2761C103.795 26.2719 103.915 26.1579 103.959 25.6745C103.97 25.5531 103.965 25.4307 103.964 25.3093C103.956 24.5256 103.949 23.742 103.926 22.9572V22.9551ZM100.153 21.6023C99.3222 22.1369 98.504 22.7406 97.5613 23.0158C96.3873 23.358 95.1998 23.6331 93.9212 23.2523C92.8079 22.9206 91.8997 22.364 91.1495 21.5269C90.8053 21.143 90.6055 20.6418 90.4056 20.1615C89.8971 18.9447 89.781 17.6849 90.0154 16.3886C90.0583 16.149 90.0028 15.8759 90.098 15.6656C90.5082 14.7626 90.8859 13.8482 91.6978 13.1785C92.2743 12.7035 92.9042 12.3624 93.5853 12.1061C94.0446 11.9334 94.5458 11.9638 95.0324 11.9481C95.3442 11.9376 95.658 11.9826 95.9719 11.9858C96.788 11.9952 97.4692 12.3541 98.1336 12.7799C98.8859 13.2622 99.4069 13.9612 99.8349 14.7082C100.048 15.0807 100.181 15.5327 100.245 15.9837C100.389 17.0028 100.465 18.026 100.491 19.0556C100.491 19.6823 100.489 20.3091 100.491 20.9358C100.492 21.2183 100.391 21.4474 100.152 21.6012L100.153 21.6023Z" fill="#2E3224"/>
<path id="Vector_7" d="M79.7733 39.2554C79.4092 39.2794 79.043 39.3004 78.6779 39.3025C77.8764 39.3087 77.0739 39.3066 76.2724 39.3004C76.1375 39.2993 75.969 39.3025 75.9303 39.1277C75.8937 38.9582 75.8696 38.7615 76.0517 38.6559C76.3143 38.5041 76.4147 38.2436 76.5476 38.0009C76.6313 37.8492 76.7255 37.7016 76.8259 37.5604C77.3554 36.807 77.8231 36.0129 78.3253 35.2418C78.749 34.591 79.2073 33.9622 79.6143 33.2999C79.8884 32.8552 80.1228 32.3938 80.1804 31.8696C80.2149 31.5578 80.1155 31.4615 79.8016 31.4563C79.3506 31.4479 78.9028 31.4259 78.4487 31.4437C77.3899 31.4835 76.3289 31.4521 75.269 31.4479C74.6266 31.4448 74.5921 31.473 74.5283 32.0945C74.4812 32.5528 74.5617 32.6438 75.0326 32.6522C75.3988 32.6595 75.765 32.6805 76.1301 32.6585C76.7192 32.624 77.3114 32.692 77.8994 32.6062C78.1474 32.5695 78.3347 32.6825 78.5272 32.8772C78.1526 33.483 77.7718 34.0417 77.4077 34.6056C76.7244 35.6634 76.0496 36.7296 75.335 37.7675C75.155 38.0291 75.0933 38.3556 74.8694 38.5721C74.4739 38.954 74.3347 39.3966 74.3734 39.9376C74.409 40.4356 74.4226 40.4879 74.9039 40.4848C76.4555 40.4712 78.0061 40.4565 79.5568 40.4346C80.307 40.4241 80.3258 40.3582 80.2117 39.6017C80.1636 39.2805 80.0318 39.2365 79.7723 39.2543L79.7733 39.2554Z" fill="#888F77"/>
<path id="Vector_8" d="M49.9674 2.1223C49.9695 1.57613 49.7906 1.43488 49.235 1.45372C48.4869 1.47883 47.7378 1.48825 46.9897 1.47674C46.5073 1.46941 46.2939 1.62845 46.3389 2.09405C46.3692 2.40899 46.3504 2.72078 46.3504 3.03258C46.3525 10.0731 46.3525 17.1147 46.3514 24.1552C46.3514 24.8175 46.341 25.4788 46.341 26.1411C46.341 26.5669 46.4508 26.6747 46.8683 26.6465C47.0953 26.6308 47.3193 26.6339 47.5463 26.6402C48.172 26.6559 48.7987 26.6632 49.4255 26.659C49.8346 26.6559 49.9737 26.4895 49.9591 26.0658C49.9528 25.8921 49.9339 25.7173 49.9339 25.5437C49.9329 21.7268 49.9329 17.9099 49.9329 14.094H49.9413C49.9413 12.4911 49.9381 10.8871 49.9413 9.2842C49.9476 6.89655 49.9601 4.5089 49.9664 2.12126L49.9674 2.1223Z" fill="#2E3224"/>
<path id="Vector_9" d="M56.8133 31.6571C56.5297 31.5828 56.2566 31.4269 55.9522 31.4604C54.887 31.5776 53.801 31.5985 52.8541 32.2221C52.3006 32.5873 51.8465 33.0382 51.4133 33.5394C51.1172 33.8816 51.0293 34.3032 50.7803 34.6506C50.6757 34.7971 50.6391 34.9708 50.6349 35.1455C50.6161 35.8925 50.5512 36.6406 50.6882 37.3866C50.7584 37.7696 50.864 38.1609 51.09 38.4507C51.4238 38.8776 51.7408 39.3129 52.1855 39.6749C53.1397 40.4513 54.1672 40.8781 55.3934 40.8122C55.4981 40.8122 55.6027 40.8059 55.7073 40.8122C56.7829 40.8897 57.756 40.5381 58.5888 39.926C59.0534 39.5849 59.6017 39.2292 59.7785 38.593C60.4 37.9286 60.446 37.0518 60.4962 36.243C60.5674 35.1026 60.1792 34.0448 59.3809 33.1868C58.6767 32.4303 57.8125 31.9177 56.8133 31.6561V31.6571ZM59.1036 36.446C58.9425 37.8481 58.2195 38.863 56.8991 39.4144C56.7599 39.473 56.603 39.5263 56.4471 39.4437C56.1447 39.5755 55.835 39.6079 55.5159 39.5117C55.1277 39.6927 54.7332 39.609 54.3597 39.4918C53.9014 39.3474 53.5122 39.1078 53.1282 38.7772C52.6657 38.3796 52.4293 37.8826 52.152 37.394C52.0139 37.1502 51.88 36.8625 52.0442 36.559C51.9585 36.2441 51.9532 35.9292 52.0505 35.6153C52.0359 35.5849 52.0014 35.5473 52.0097 35.5242C52.2305 34.9111 52.3519 34.2436 52.9346 33.8271C53.0047 33.7769 53.0738 33.7215 53.1334 33.6587C53.8073 32.9566 54.6851 32.7296 55.5985 32.7421C56.807 32.7589 57.7842 33.3009 58.4999 34.2959C58.9645 34.9425 59.1936 35.6634 59.1036 36.445V36.446Z" fill="#888F77"/>
<path id="Vector_10" d="M48.5067 37.5426C48.4753 37.0738 48.468 36.603 48.4534 36.1322C48.4167 34.9499 48.5015 33.7644 48.3958 32.5842C48.3717 32.3195 48.5831 31.9951 48.3069 31.7974C48.0735 31.63 47.7597 31.79 47.4866 31.7367C47.4531 31.7304 47.4165 31.7315 47.3819 31.7325C47.1905 31.7419 47.1047 31.8371 47.111 32.0338C47.1225 32.399 47.1193 32.7631 47.1256 33.1283C47.1371 33.7728 47.157 34.4183 47.1612 35.0629C47.1643 35.5389 47.0639 35.6383 46.5836 35.6519C46.2886 35.6603 45.9925 35.6446 45.6964 35.6456C45.0173 35.6477 44.3372 35.6592 43.6582 35.6572C43.2062 35.6561 43.067 35.5264 43.0388 35.0744C43.0178 34.7448 43.0189 34.4131 43.0147 34.0814C43.0074 33.4882 43.0168 32.8949 42.9938 32.3027C42.977 31.8643 42.8714 31.7859 42.4518 31.8455C42.2896 31.8685 42.1442 31.8664 41.9977 31.7869C41.7926 31.675 41.7058 31.8026 41.6713 31.9773C41.6482 32.0956 41.6535 32.2201 41.6524 32.3414C41.6472 32.8803 41.6566 33.4202 41.6608 33.959C41.6681 34.9875 41.6702 36.016 41.7131 37.0445C41.7131 38.0207 41.7183 38.9969 41.7121 39.9731C41.7068 40.8185 41.7466 40.8677 42.57 40.897C42.932 40.9106 43.0858 40.7798 43.1026 40.4147C43.1361 39.7 43.1465 38.9823 43.0618 38.2739C43.0147 37.8784 43.1329 37.5143 43.1507 37.1345C43.158 36.9818 43.2658 36.8834 43.428 36.874C43.5326 36.8677 43.6372 36.8677 43.7419 36.8677C44.7516 36.8709 45.7612 36.9117 46.772 36.8604C47.0461 36.8468 47.1727 37.0079 47.1748 37.3469C47.1769 37.7299 47.1643 38.1128 47.1643 38.4958C47.1643 39.1058 47.1591 39.7157 47.1737 40.3247C47.1821 40.6616 47.2961 40.7798 47.5912 40.8196C47.677 40.8311 47.7649 40.8248 47.8528 40.8248C48.4188 40.8259 48.5119 40.7558 48.4952 40.2054C48.468 39.3171 48.5664 38.4298 48.5078 37.5415L48.5067 37.5426Z" fill="#888F77"/>
<path id="Vector_11" d="M72.3383 31.4468C71.7837 31.451 71.2292 31.4583 70.6736 31.4594C70.4194 31.4594 70.2907 31.5536 70.1871 31.8183C69.9956 32.3017 69.8449 32.8007 69.6503 33.2831C69.4913 33.6786 69.3186 34.0741 69.1669 34.4748C68.9765 34.976 68.8489 35.5002 68.5967 35.9857C68.31 36.536 68.1091 37.1324 67.8873 37.7152C67.8088 37.9213 67.8287 38.2279 67.5598 38.2488C67.2846 38.2697 67.2585 37.96 67.1685 37.7633C66.6527 36.6417 66.2164 35.4876 65.7194 34.3576C65.4421 33.7267 65.0487 33.1377 64.9326 32.4324C64.898 32.2253 64.7149 32.0422 64.5999 31.8476C64.4921 31.6666 64.3466 31.5954 64.1238 31.6069C63.7785 31.6247 63.4301 31.6027 63.0838 31.5839C62.6443 31.5588 62.5522 31.6278 62.524 32.0516C62.5167 32.1562 62.5198 32.2609 62.5209 32.3655C62.5397 34.4215 62.5554 36.4764 62.5794 38.5324C62.5847 38.9844 62.6297 39.4364 62.6339 39.8884C62.6401 40.5883 62.7228 40.6731 63.4249 40.6134C63.4594 40.6103 63.495 40.6114 63.5295 40.6061C63.8476 40.559 63.9396 40.4565 63.9501 40.1259C63.9532 40.0223 63.9386 39.9177 63.9344 39.813C63.8737 38.2656 63.8151 36.717 63.7523 35.1696C63.7346 34.7353 63.7011 34.3011 63.6781 33.8669C63.6718 33.7456 63.6655 33.6231 63.677 33.5028C63.6854 33.4139 63.744 33.3375 63.8361 33.3166C63.9417 33.2925 63.9794 33.372 64.0265 33.4515C64.2023 33.7518 64.3058 34.0877 64.4638 34.3901C65.0205 35.4562 65.4003 36.5967 65.8721 37.6964C66.2268 38.5229 66.6454 39.3265 66.9007 40.1949C66.931 40.2964 66.976 40.3927 67.0681 40.4534C67.4897 40.7296 68.0265 40.5737 68.2138 40.1102C68.5392 39.3066 68.8604 38.502 69.169 37.6922C69.3553 37.2046 69.6127 36.7484 69.7999 36.265C70.0751 35.5556 70.2865 34.8211 70.524 34.0971C70.5784 33.9318 70.7458 33.8313 70.7646 33.6409C70.7814 33.4672 70.7238 33.1785 70.9917 33.2067C71.2083 33.2287 71.1455 33.5154 71.1873 33.6911C71.1915 33.7079 71.1894 33.7257 71.1905 33.7435C71.2281 34.6307 71.2093 35.519 71.2271 36.4073C71.2501 37.5206 71.1957 38.6359 71.202 39.7502C71.2062 40.5161 71.2428 40.558 71.9909 40.5193C72.378 40.4994 72.4774 40.399 72.4743 40.0076C72.4596 38.0741 72.4544 36.1405 72.4199 34.207C72.4042 33.2883 72.4262 32.3665 72.3414 31.45L72.3383 31.4468Z" fill="#888F77"/>
<path id="Vector_12" d="M72.3383 31.4416C72.3383 31.4416 72.3383 31.4449 72.3383 31.4472C72.3394 31.4472 72.3416 31.4472 72.3427 31.4472L72.3372 31.4416H72.3383Z" fill="black"/>
</g>
</svg>
