<svg width="119" height="64" viewBox="0 0 119 64" fill="none" xmlns="http://www.w3.org/2000/svg">
<g id="Group 2380">
<g id="pwYTZQ">
<g id="Group">
<path id="Vector" d="M59.2399 0.583235C59.8768 0.519831 60.1205 0.910122 60.3009 1.41736C61.4872 4.75527 62.6807 8.08896 63.8755 11.424C64.0967 12.0398 64.17 12.8556 64.6096 13.2064C65.0858 13.5869 65.9199 13.3248 66.5977 13.3459C70.092 13.4572 73.5877 13.5573 77.0834 13.6587C77.6273 13.6742 78.0838 13.7559 78.2881 14.39C78.4868 15.0085 78.2163 15.3566 77.771 15.6989C74.6275 18.1154 71.4967 20.5501 68.342 22.9525C67.9137 23.2779 67.832 23.5456 67.9869 24.0599C69.124 27.8332 70.223 31.6192 71.3361 35.4009C71.4869 35.9138 71.594 36.3788 71.0515 36.7832C70.5034 37.1932 70.0652 37.0297 69.5833 36.6986C66.3525 34.4809 63.1062 32.2856 59.8923 30.0439C59.3723 29.6818 59.0624 29.7114 58.5579 30.0622C55.3215 32.3124 52.054 34.5189 48.8006 36.7437C48.3822 37.0297 47.9961 37.1692 47.51 36.8508C46.9732 36.4985 46.9394 36.0533 47.1 35.5052C47.9637 32.5562 48.819 29.6029 49.6813 26.6539C49.9377 25.7761 50.1871 24.8941 50.4858 24.0289C50.6478 23.5597 50.5689 23.2906 50.1547 22.975C46.9971 20.5755 43.8649 18.1436 40.7257 15.7187C40.4312 15.4904 40.1114 15.2791 40.1043 14.8366C40.0945 14.1561 40.4538 13.7193 41.1484 13.6939C43.9861 13.5897 46.8252 13.5023 49.663 13.4164C50.8831 13.3797 52.1033 13.3318 53.3221 13.3445C53.8139 13.3501 54.0041 13.1656 54.1605 12.7203C55.4807 8.95831 56.8305 5.20615 58.1634 1.44836C58.3508 0.918576 58.596 0.498696 59.2371 0.581826L59.2399 0.583235ZM48.2215 35.7715C48.5822 35.7645 48.8035 35.4939 49.0585 35.3093C52.2499 32.9972 55.4441 30.6878 58.6129 28.3433C59.099 27.984 59.409 28.0079 59.8768 28.3531C63.0879 30.7188 66.3187 33.0578 69.5495 35.3953C69.7609 35.5489 70.0004 35.9096 70.247 35.7151C70.4766 35.5348 70.2047 35.1966 70.123 34.943C68.9042 31.1711 67.6967 27.395 66.4328 23.6386C66.2158 22.9933 66.3807 22.7045 66.8893 22.3353C70.1286 19.9781 73.4299 17.7054 76.5959 15.2481C76.7678 15.1142 77.1271 15.0973 77.0299 14.8085C76.9439 14.552 76.6184 14.676 76.4001 14.676C72.4098 14.6704 68.4209 14.6591 64.4306 14.6901C63.7642 14.6957 63.4584 14.5055 63.2513 13.8475C62.0649 10.0658 60.8278 6.29953 59.5978 2.53188C59.5189 2.29094 59.5203 1.97673 59.1469 1.81752C59.0483 2.08804 58.9539 2.32335 58.8764 2.56147C57.6463 6.35307 56.4078 10.1433 55.2003 13.9419C55.0256 14.4943 54.7903 14.7056 54.1774 14.7014C50.1181 14.669 46.0573 14.6831 41.9966 14.6901C41.805 14.6901 41.5232 14.5717 41.4358 14.8169C41.3513 15.0522 41.626 15.1762 41.7796 15.2861C45.0668 17.6645 48.354 20.0429 51.6651 22.3874C52.1569 22.7355 52.2456 23.0356 52.0611 23.5935C50.7887 27.4218 49.5488 31.2599 48.3033 35.0952C48.2342 35.3079 48.0736 35.5151 48.2215 35.7715Z" fill="#2E3224"/>
<path id="Vector_2" d="M77.6645 33.1157C77.6462 33.5694 77.4672 33.8878 77.084 34.0428C76.6824 34.2048 76.2978 34.1555 75.9991 33.8075C75.7116 33.4721 75.6271 33.0607 75.8709 32.7042C76.0766 32.4041 76.1428 32.2125 75.9413 31.8687C75.7525 31.5446 75.9005 31.1769 76.2104 30.9373C76.4979 30.7147 76.8262 30.7175 77.1361 30.8852C77.4658 31.0642 77.6222 31.4122 77.4968 31.7193C77.3264 32.1364 77.3024 32.4661 77.5969 32.8184C77.6631 32.8973 77.649 33.041 77.6645 33.1157ZM76.9699 33.1016C76.9614 32.9071 76.9248 32.6901 76.6993 32.6859C76.5148 32.6831 76.4612 32.8846 76.4584 33.0537C76.4556 33.2396 76.4612 33.4735 76.6895 33.4961C76.9361 33.52 76.9431 33.2819 76.9699 33.1016Z" fill="#2E3224"/>
<path id="Vector_3" d="M36.4492 32.4025C36.4492 32.1912 36.4492 31.9812 36.4492 31.7699C36.4492 30.6878 36.4773 30.6652 37.5327 30.7695C37.7285 30.7892 37.9075 30.7836 37.9145 31.0569C37.9216 31.2908 37.8426 31.4106 37.5961 31.4021C37.372 31.3951 37.179 31.4106 37.1776 31.7248C37.1762 31.9953 37.2706 32.1123 37.5411 32.1024C37.7609 32.094 37.8046 32.2447 37.8116 32.4279C37.8187 32.635 37.7271 32.7336 37.52 32.7195C37.2241 32.6998 37.1846 32.8788 37.179 33.1211C37.172 33.4353 37.3692 33.4508 37.5947 33.4466C37.8398 33.441 37.9131 33.5706 37.9117 33.8002C37.9103 34.0764 37.7342 34.0877 37.5341 34.0863C37.3706 34.0849 37.203 34.0651 37.0423 34.0891C36.5295 34.1652 36.39 33.9313 36.4421 33.455C36.4801 33.1084 36.4492 32.7534 36.4492 32.4025Z" fill="#2E3224"/>
<path id="Vector_4" d="M81.6256 30.7216C82.2385 30.7371 82.6133 31.2937 82.3653 31.9362C82.2427 32.2532 82.2737 32.449 82.4216 32.7393C82.6569 33.2 82.5752 33.6946 82.1102 33.9778C81.6805 34.2399 81.2057 34.2385 80.8365 33.8087C80.7153 33.6664 80.5942 33.4748 80.7294 33.3015C80.8576 33.1352 81.0732 33.1662 81.2367 33.2719C81.3959 33.3747 81.5213 33.6735 81.7214 33.3607C81.8538 33.1521 81.8594 32.8633 81.6368 32.7224C81.1747 32.4293 81.1423 32.2151 81.6551 31.9502C81.8482 31.8502 81.8369 31.6248 81.7369 31.4501C81.6368 31.2753 81.5058 31.3218 81.4283 31.4782C81.2874 31.7614 81.038 31.7995 80.8647 31.6093C80.6886 31.4148 80.8633 31.164 80.9971 30.9752C81.1451 30.7667 81.3832 30.7272 81.6256 30.723V30.7216Z" fill="#2E3224"/>
<path id="Vector_5" d="M39.9288 30.7062C40.0654 30.7386 40.2275 30.7639 40.3796 30.8189C40.5797 30.8921 40.5628 31.0753 40.536 31.2359C40.5022 31.4374 40.3585 31.4008 40.2148 31.3557C40.0246 31.2979 39.8273 31.2867 39.7329 31.5036C39.6301 31.7418 39.7808 31.9024 39.9555 32.0377C40.1218 32.1659 40.3148 32.2687 40.4586 32.4181C40.8305 32.8056 40.8728 33.255 40.5797 33.7003C40.2965 34.13 39.871 34.185 39.3962 34.0779C39.1214 34.0159 39.0721 33.8355 39.1003 33.6087C39.1327 33.3438 39.3144 33.4368 39.4723 33.4678C39.6991 33.5129 39.9147 33.4805 39.9964 33.2381C40.0809 32.9887 39.8865 32.8535 39.709 32.7337C39.3116 32.4674 38.9354 32.2011 38.965 31.6361C38.9974 31.0316 39.3342 30.7625 39.9288 30.7033V30.7062Z" fill="#2E3224"/>
<path id="Vector_6" d="M42.4993 30.7723C42.6628 30.7723 42.8262 30.7737 42.9911 30.7723C43.1869 30.7695 43.3785 30.7737 43.3926 31.04C43.4025 31.2161 43.38 31.3796 43.1587 31.3965C42.7614 31.4261 42.8347 31.7206 42.8333 31.9671C42.829 32.5279 42.8276 33.0901 42.8361 33.6509C42.8403 33.9186 42.8009 34.0835 42.4599 34.0863C42.1006 34.0891 42.0978 33.8947 42.1006 33.6424C42.1062 33.1282 42.1119 32.6139 42.0992 32.0996C42.0921 31.8023 42.2429 31.4162 41.7061 31.374C41.4919 31.357 41.537 31.1274 41.5525 30.9696C41.5722 30.778 41.7286 30.7808 41.8695 30.778C42.0795 30.7737 42.2908 30.778 42.5007 30.778V30.7751L42.4993 30.7723Z" fill="#2E3224"/>
<path id="Vector_7" d="M79.3202 30.7738C80.2445 30.7723 80.2487 30.7738 79.9247 31.6572C79.6753 32.3377 79.3921 33.0056 79.1652 33.6918C79.0525 34.0328 78.8426 34.1666 78.541 34.0595C78.1437 33.9172 78.4861 33.6509 78.5354 33.4903C78.7129 32.9112 78.9595 32.3532 79.1737 31.7854C79.2469 31.5924 79.3737 31.3655 78.9919 31.3486C78.7538 31.3388 78.4015 31.4346 78.4734 31.0062C78.5382 30.6216 78.8862 30.8217 79.1103 30.7738C79.1779 30.7597 79.2498 30.7709 79.3202 30.7709V30.7738Z" fill="#2E3224"/>
<path id="Vector_8" d="M74.8624 32.4857C74.8624 32.907 74.854 33.3269 74.8652 33.7482C74.8709 33.9835 74.7892 34.0821 74.544 34.0849C74.2875 34.0877 74.2227 33.9652 74.2241 33.7425C74.227 33.1578 74.2312 32.5745 74.2185 31.9897C74.2143 31.7897 74.3073 31.553 74.1114 31.3966C73.9212 31.2458 73.8014 31.0612 73.9748 30.8696C74.1452 30.6822 74.4158 30.771 74.6412 30.7893C74.916 30.8118 74.8568 31.0485 74.8596 31.2232C74.8681 31.6431 74.8624 32.0644 74.8624 32.4857Z" fill="#2E3224"/>
<path id="Vector_9" d="M44.2855 33.3016C44.5136 33.3044 44.6754 33.4325 44.6909 33.669C44.7106 33.9421 44.5431 34.1124 44.2728 34.1124C44.0349 34.1124 43.8815 33.9534 43.8815 33.7112C43.8815 33.4747 44.0208 33.3283 44.2855 33.3016Z" fill="#2E3224"/>
<path id="Vector_10" d="M48.2212 35.7715C48.0733 35.5151 48.2339 35.308 48.303 35.0952C49.5485 31.2585 50.7884 27.4204 52.0607 23.5936C52.2467 23.0356 52.1566 22.7355 51.6648 22.3875C48.3537 20.0429 45.0665 17.6645 41.7793 15.2861C41.6271 15.1762 41.3524 15.0522 41.4355 14.8169C41.5229 14.5718 41.8047 14.6915 41.9963 14.6901C46.057 14.6831 50.1163 14.6704 54.1771 14.7014C54.79 14.7056 55.0239 14.4943 55.2 13.9419C56.4075 10.1433 57.646 6.35309 58.8761 2.56149C58.9536 2.32196 59.048 2.08806 59.1466 1.81754C59.52 1.97675 59.5186 2.29096 59.5975 2.5319C60.8275 6.29955 62.0646 10.0658 63.251 13.8475C63.4581 14.507 63.7639 14.6958 64.4303 14.6901C68.4206 14.6591 72.4095 14.6704 76.3997 14.676C76.6181 14.676 76.9436 14.552 77.0296 14.8085C77.1268 15.0973 76.7675 15.1142 76.5956 15.2481C73.4296 17.7068 70.1283 19.9795 66.889 22.3353C66.3804 22.7059 66.2155 22.9947 66.4325 23.6387C67.6964 27.395 68.9053 31.1711 70.1227 34.943C70.2044 35.1966 70.4763 35.5348 70.2467 35.7152C70.0015 35.9096 69.7605 35.5475 69.5492 35.3953C66.3184 33.0564 63.0875 30.7189 59.8764 28.3532C59.4072 28.0079 59.0987 27.9826 58.6126 28.3433C55.4437 30.6879 52.2495 32.9958 49.0582 35.3094C48.8031 35.4939 48.5819 35.7645 48.2212 35.7715Z" fill="#888F77"/>
<g id="Group_2">
<path id="Vector_11" d="M17.8219 61.0462C16.7596 60.7094 16.4947 59.9542 16.5017 58.9355C16.5271 55.1805 16.5243 51.4256 16.5045 47.672C16.4989 46.6829 16.7455 45.9234 17.7966 45.6191C18.5884 45.3894 18.2573 44.7779 18.2165 44.2763C18.1728 43.7338 17.7656 43.7677 17.3837 43.7677C15.3647 43.7677 13.347 43.7564 11.3279 43.7761C10.9291 43.7803 10.3824 43.5591 10.2599 44.2481C10.1514 44.8568 9.97806 45.4655 10.815 45.7445C11.3631 45.9277 11.621 46.3673 11.6238 46.9421C11.6294 48.1158 11.6252 49.2881 11.6308 50.4618C11.6322 50.9 11.435 51.0973 10.9869 51.0902C9.90761 51.0761 8.82691 51.0719 7.74762 51.0916C7.23757 51.1015 7.01917 50.9 7.03044 50.3871C7.04876 49.5431 7.07131 48.6963 7.02622 47.8538C6.97268 46.8266 7.10089 45.977 8.21823 45.5078C8.83114 45.2513 8.39717 44.6286 8.39013 44.1763C8.38449 43.8156 8.06606 43.7747 7.76312 43.7747C5.55663 43.7775 3.35015 43.7803 1.14366 43.7719C0.760414 43.7705 0.460298 43.8832 0.460298 44.2932C0.460298 44.73 0.0516891 45.3387 0.764641 45.5557C1.96933 45.922 2.1835 46.7745 2.17082 47.8918C2.13278 51.5284 2.15673 55.1664 2.15391 58.8045C2.15391 59.1328 2.14405 59.4625 2.10178 59.7865C2.04119 60.2543 1.81434 60.5925 1.35642 60.8095C0.251766 61.3308 0.272901 61.3548 0.437754 62.5524C0.49975 63.0005 0.715326 63.1498 1.13239 63.1484C3.45582 63.1399 5.77926 63.1399 8.10269 63.1371C8.2915 63.1371 8.49016 63.1301 8.62543 62.9793C9.04954 62.5087 8.79169 61.1899 8.19568 60.9757C7.43483 60.7024 7.04031 60.2149 7.0389 59.4103C7.03608 57.8379 7.0389 56.2655 7.03044 54.693C7.02763 54.2661 7.18543 54.0252 7.64195 54.0266C8.76915 54.0308 9.89493 54.0294 11.0221 54.0266C11.3842 54.0266 11.628 54.19 11.6266 54.5606C11.6238 56.2725 11.6195 57.9844 11.5801 59.6964C11.5674 60.2191 11.2856 60.5953 10.7713 60.8278C9.72585 61.2998 9.75967 61.3181 9.89634 62.4594C9.95693 62.9582 10.1697 63.1526 10.6558 63.147C11.7816 63.1343 12.9088 63.1428 14.036 63.1442C15.1632 63.1442 16.289 63.1442 17.4162 63.1442C17.8079 63.1442 18.2348 63.1343 18.2052 62.5975C18.1756 62.0621 18.7378 61.335 17.8205 61.0448L17.8219 61.0462Z" fill="#2E3224"/>
<path id="Vector_12" d="M87.6715 61.0531C87.0571 60.7516 86.4668 60.398 86.1201 59.7752C85.0465 57.8505 83.9883 55.9173 82.9147 53.9927C82.7794 53.7503 82.7667 53.5671 82.988 53.3797C84.2138 52.3427 85.1691 50.9788 86.7612 50.3842C87.4362 50.1334 86.9867 49.5233 87.0191 49.0795C87.0487 48.6765 86.7457 48.5835 86.4034 48.5849C84.6196 48.5849 82.8372 48.5849 81.0534 48.5849C80.8378 48.5849 80.6251 48.6047 80.4968 48.8118C80.1277 49.4036 80.3686 50.2955 81.0111 50.6082C81.3944 50.7956 81.555 51.0112 81.1985 51.3367C80.3038 52.1539 79.3922 52.9528 78.3524 53.8785C78.3524 50.7773 78.3538 47.8706 78.3524 44.9638C78.3524 44.0127 78.1283 43.7803 77.2153 43.7774C75.8782 43.7718 74.5396 43.7746 73.2025 43.7774C72.8488 43.7774 72.4557 43.7422 72.4106 44.248C72.3698 44.7074 72.0696 45.2527 72.7403 45.5232C73.6703 45.8994 73.8872 46.6166 73.8802 47.555C73.8492 51.4029 73.8548 55.2509 73.8788 59.0974C73.8844 60.0048 73.6576 60.684 72.7615 61.0743C71.9513 61.4265 72.4092 62.1296 72.4332 62.6805C72.4571 63.2357 72.9489 63.1286 73.3025 63.13C75.2033 63.137 77.104 63.1328 79.0047 63.1159C79.3485 63.1131 79.8572 63.2667 79.8727 62.689C79.8882 62.1183 80.3264 61.466 79.5007 61.0165C78.0043 60.2035 77.8465 58.2943 79.0879 57.1136C79.4781 56.743 79.6021 56.8473 79.8191 57.2517C80.7519 58.9861 81.7339 60.6938 82.6484 62.4382C82.9189 62.9539 83.2528 63.1413 83.808 63.13C84.9338 63.1074 86.061 63.137 87.1868 63.1314C87.5461 63.13 88.0293 63.2314 88.0307 62.665C88.0322 62.1155 88.4816 61.4491 87.6785 61.0531H87.6715Z" fill="#2E3224"/>
<path id="Vector_13" d="M56.1989 60.4077C55.5043 60.8149 55.4014 60.7444 55.3972 59.9018C55.3901 58.6112 55.3958 57.3206 55.3958 56.0299C55.3859 56.0299 55.3746 56.0299 55.3648 56.0299C55.3648 54.6463 55.431 53.2584 55.3493 51.879C55.2182 49.6373 53.7501 48.4016 51.5084 48.5397C50.4558 48.6045 49.5076 49.0145 48.5692 49.4499C48.2338 49.6063 47.9196 49.8684 47.6857 49.2949C47.5787 49.0343 47.263 49.0441 46.9982 49.0441C45.6371 49.0469 44.276 49.0484 42.9149 49.0441C42.5415 49.0427 42.1611 49.0526 42.1343 49.533C42.1075 50.0022 41.744 50.5813 42.4527 50.8786C43.084 51.1435 43.3052 51.6691 43.3094 52.289C43.3235 54.7294 43.3249 57.1684 43.3122 59.6088C43.3094 60.1217 43.1488 60.6373 42.6218 60.8191C41.7398 61.122 41.7257 61.7335 41.8314 62.4958C41.8976 62.9791 42.0948 63.1383 42.55 63.1355C44.6155 63.1214 46.6797 63.1214 48.7453 63.1115C48.9257 63.1115 49.1229 63.1383 49.2596 62.9566C49.6231 62.4733 49.4146 61.2601 48.8707 61.0107C48.1225 60.6669 47.8746 60.0892 47.8802 59.3171C47.8929 57.5108 47.8802 55.703 47.8929 53.8967C47.8943 53.6191 47.9351 53.3331 48.0112 53.0668C48.2818 52.1214 49.0497 51.5521 49.8556 51.6705C50.601 51.7804 50.9476 52.344 50.949 53.4458C50.949 55.7214 50.9391 57.9983 50.9546 60.2738C50.9659 61.8449 51.8155 62.8748 53.295 63.1693C54.9984 63.5075 56.778 62.7663 57.3698 61.494C57.5642 61.0755 57.4135 60.7853 57.1387 60.4852C56.84 60.1611 56.5526 60.2006 56.2017 60.4063L56.1989 60.4077Z" fill="#2E3224"/>
<path id="Vector_14" d="M116.736 60.4415C116.116 60.8037 115.979 60.7248 115.974 59.9935C115.962 58.6564 115.971 57.3192 115.971 55.9807H115.964C115.964 54.6661 115.999 53.3515 115.957 52.0397C115.882 49.7487 114.399 48.42 112.11 48.5412C111.104 48.5947 110.197 48.978 109.298 49.3852C108.885 49.5726 108.492 49.8896 108.174 49.2245C108.055 48.9765 107.711 49.0484 107.456 49.0484C106.166 49.0456 104.875 49.0442 103.584 49.0498C103.22 49.0512 102.767 48.9639 102.719 49.5134C102.676 50.0093 102.335 50.6053 103.073 50.9125C103.615 51.1379 103.858 51.5733 103.859 52.1327C103.868 54.6661 103.865 57.1994 103.859 59.7328C103.859 60.2147 103.67 60.6557 103.212 60.8135C102.298 61.1291 102.298 61.7787 102.416 62.5522C102.478 62.9566 102.642 63.1341 103.045 63.1327C105.133 63.1271 107.222 63.1299 109.311 63.1271C109.498 63.1271 109.695 63.1271 109.828 62.9651C110.243 62.4578 110.017 61.2658 109.406 60.9798C108.713 60.6557 108.462 60.1273 108.468 59.4045C108.476 58.2308 108.464 57.0585 108.467 55.8849C108.468 55.1113 108.451 54.335 108.496 53.5628C108.561 52.4525 109.346 51.6452 110.28 51.6635C111.144 51.6804 111.527 52.2567 111.531 53.5713C111.537 55.8003 111.523 58.0293 111.538 60.2584C111.55 61.8125 112.36 62.8312 113.794 63.1539C115.454 63.5272 117.288 62.8101 117.911 61.5716C118.144 61.1108 118.008 60.7698 117.684 60.4387C117.363 60.1118 117.064 60.2499 116.737 60.4415H116.736Z" fill="#2E3224"/>
<path id="Vector_15" d="M101.419 58.748C100.82 58.2365 100.398 58.245 99.8342 58.7565C99.2241 59.3088 98.576 59.809 97.8306 60.1725C96.2666 60.9348 94.1813 60.6163 93.288 59.4793C92.5525 58.5437 92.6709 58.145 93.7797 57.8153C93.8925 57.7814 94.0038 57.7462 94.1151 57.711C96.3723 56.998 98.6323 56.2893 100.684 55.0663C101.54 54.5562 101.804 53.9152 101.449 53.0571C100.787 51.4579 99.7792 50.108 98.2406 49.2626C95.9045 47.9791 93.5275 48.0875 91.2689 49.4106C88.8919 50.8027 87.7915 52.9965 87.7239 55.3467C87.7521 59.3708 89.6063 61.9718 92.9555 63.0666C96.0003 64.0613 99.7877 62.8397 101.559 60.2909C101.994 59.6639 101.953 59.2045 101.419 58.7494V58.748ZM92.3651 54.3773C92.3595 54.2604 92.3651 54.1434 92.3651 54.111C92.4032 53.267 92.5412 52.5357 92.9287 51.8707C93.7868 50.3969 95.734 50.3955 96.5921 51.8721C96.7203 52.0933 96.8302 52.33 96.9134 52.5724C97.3966 53.9884 97.1656 54.4802 95.7749 54.9818C95.1803 55.1959 94.5829 55.4059 93.9742 55.5721C92.8061 55.892 92.4299 55.6017 92.3651 54.3773Z" fill="#2E3224"/>
<path id="Vector_16" d="M32.115 58.7634C31.5218 58.2252 31.085 58.228 30.4707 58.7902C29.7042 59.4933 28.8786 60.1034 27.8697 60.4148C26.279 60.9065 24.5543 60.4063 23.8273 59.2538C23.2778 58.3844 23.3807 58.1407 24.374 57.8391C26.7524 57.1163 29.1223 56.3667 31.295 55.1184C32.2024 54.597 32.4912 53.9362 32.139 53.0739C31.4852 51.4677 30.4707 50.1221 28.9406 49.2682C26.6101 47.9691 24.2289 48.0875 21.9717 49.4049C19.5947 50.7913 18.4872 52.9823 18.4379 55.7172C18.4379 55.8581 18.4351 55.999 18.4379 56.1399C18.5112 59.4285 20.4669 62.0647 23.5624 63.051C26.689 64.0486 30.358 62.9073 32.1996 60.3641C32.6814 59.699 32.6589 59.2538 32.115 58.762V58.7634ZM23.0693 54.459C23.0636 54.342 23.0693 54.2251 23.0693 54.1067C23.0693 53.3938 23.2102 52.7146 23.5145 52.0651C23.8893 51.2676 24.5079 50.8505 25.3828 50.7914C26.2564 50.7322 26.8679 51.1366 27.2822 51.8678C27.4315 52.1313 27.5527 52.4145 27.6485 52.7019C28.074 53.9757 27.8077 54.5167 26.5396 54.9549C25.8971 55.1776 25.2546 55.403 24.6008 55.5848C23.5173 55.8877 23.1256 55.5876 23.0679 54.4576L23.0693 54.459Z" fill="#2E3224"/>
<path id="Vector_17" d="M71.4271 58.731C70.8593 58.2336 70.3986 58.2632 69.7772 58.8155C69.1446 59.3777 68.4809 59.8976 67.6947 60.2372C66.0081 60.9671 63.9848 60.5387 63.1704 59.2749C62.6096 58.4055 62.7125 58.1392 63.6903 57.8419C66.0715 57.1191 68.4415 56.3667 70.6184 55.1268C71.5187 54.6139 71.7893 53.97 71.4849 53.0809C70.5592 50.3785 67.8807 48.4312 65.0613 48.4087C60.668 48.3749 57.4584 51.9058 57.7754 56.4216C58.0079 59.7286 59.9833 62.2013 63.1155 63.1017C66.173 63.9823 69.742 62.8283 71.506 60.3908C72.0133 59.6891 71.9921 59.2227 71.43 58.7296L71.4271 58.731ZM62.3927 54.442C62.3856 54.3251 62.3927 54.2081 62.3927 54.0912C62.4166 53.2852 62.5476 52.5046 62.983 51.8058C63.8312 50.4433 65.6728 50.4179 66.5393 51.7607C66.6901 51.9946 66.8155 52.2524 66.9113 52.5145C67.4453 53.9714 67.1931 54.4984 65.7207 55.007C65.1233 55.2127 64.5259 55.4269 63.9158 55.5847C62.8097 55.8693 62.4603 55.5932 62.3927 54.4434V54.442Z" fill="#2E3224"/>
<path id="Vector_18" d="M40.1866 61.0474C39.4004 60.681 39.1129 60.0865 39.1298 59.2439C39.1608 57.7193 39.1383 56.1934 39.1383 54.6675H39.1355C39.1355 53.0711 39.1087 51.4747 39.1482 49.8797C39.1651 49.2146 38.91 49.0202 38.2816 49.0357C36.9205 49.0681 35.5594 49.0442 34.1983 49.0498C33.8531 49.0512 33.4192 48.9836 33.3783 49.4824C33.3389 49.9713 32.9641 50.5729 33.701 50.8928C34.266 51.1379 34.5168 51.5973 34.521 52.1763C34.5379 54.6632 34.5436 57.1501 34.5323 59.637C34.5295 60.1513 34.3533 60.6444 33.8207 60.8332C32.988 61.1291 32.9598 61.7209 33.0542 62.4578C33.1191 62.9636 33.3135 63.144 33.8095 63.1397C35.8286 63.1271 37.8462 63.1397 39.8653 63.1426C40.0753 63.1426 40.2993 63.1679 40.467 63.0059C40.8657 62.6184 40.6966 61.2841 40.1866 61.046V61.0474Z" fill="#2E3224"/>
<path id="Vector_19" d="M36.4377 48.2341C37.8073 48.2609 38.95 47.1985 38.9852 45.867C39.0204 44.5228 37.8679 43.3773 36.4758 43.3759C35.1302 43.3745 34.0072 44.427 33.9706 45.7233C33.9325 47.1111 35.009 48.2059 36.4363 48.2341H36.4377Z" fill="#2E3224"/>
<path id="Vector_20" d="M116.221 42.1431C114.696 42.1332 113.435 43.3858 113.432 44.9132C113.429 46.425 114.709 47.6903 116.231 47.679C117.731 47.6678 118.948 46.449 118.968 44.9386C118.988 43.4028 117.761 42.153 116.221 42.1431ZM116.216 47.1056C115.033 47.1098 114.013 46.0982 114.009 44.9188C114.004 43.7254 114.993 42.7335 116.194 42.725C117.407 42.718 118.378 43.6789 118.389 44.8977C118.4 46.0925 117.408 47.1 116.216 47.1056Z" fill="#2E3224"/>
<path id="Vector_21" d="M117.36 44.2635C117.558 43.8451 117.217 43.4717 116.735 43.3477C115.402 43.0053 115.071 43.2589 115.072 44.6242C115.072 44.6707 115.072 44.7172 115.072 44.7651C115.072 45.0695 115.054 45.3752 115.078 45.6768C115.096 45.9163 114.917 46.2812 115.403 46.2911C115.875 46.3009 115.734 45.9529 115.771 45.6979C115.801 45.4936 115.641 45.185 116.019 45.1512C116.337 45.123 116.554 45.2808 116.652 45.5908C116.694 45.7247 116.746 45.8571 116.773 45.9938C116.846 46.37 117.145 46.3319 117.379 46.2728C117.677 46.1981 117.48 45.967 117.435 45.8134C117.287 45.3034 117.09 44.8455 117.363 44.2635H117.36ZM116.197 44.5256C115.984 44.5256 115.772 44.5594 115.767 44.2269C115.761 43.9409 115.877 43.8437 116.144 43.8732C116.374 43.893 116.652 43.8775 116.65 44.21C116.65 44.4876 116.423 44.5256 116.197 44.5256Z" fill="#2E3224"/>
</g>
</g>
</g>
</g>
</svg>
