<svg width="157" height="38" viewBox="0 0 157 38" fill="none" xmlns="http://www.w3.org/2000/svg">
<g id="Group 2392">
<path id="Vector" d="M119.77 8.82965C120.207 8.81745 120.646 8.81745 121.083 8.82965C121.24 8.83371 121.272 8.78899 121.272 8.63856C121.264 7.62013 121.27 6.6017 121.268 5.58327C121.268 5.40031 121.278 5.21939 121.309 5.04051C121.382 4.61769 121.701 4.32496 122.108 4.3148C122.577 4.3026 122.85 4.50791 122.953 4.96733C123.018 5.25598 123.037 5.55277 123.037 5.84956C123.037 6.77855 123.039 7.70957 123.033 8.63856C123.033 8.78289 123.055 8.83981 123.218 8.83371C123.641 8.81948 124.065 8.82152 124.49 8.83371C124.641 8.83778 124.685 8.80525 124.683 8.64669C124.673 7.8539 124.687 7.06111 124.677 6.26832C124.667 5.58733 124.736 4.90431 124.635 4.22739C124.58 3.85335 124.415 3.53217 124.116 3.27604C123.842 3.04023 123.533 2.92843 123.181 2.86948C122.724 2.79223 122.307 2.88574 121.907 3.09105C121.673 3.20896 121.478 3.38174 121.272 3.60129V3.36142C121.272 2.62351 121.272 1.8856 121.272 1.1477C121.272 1.06639 121.284 0.985073 121.232 0.913925H119.589C119.589 3.49151 119.589 6.06707 119.585 8.64466C119.585 8.79712 119.618 8.83981 119.774 8.83574L119.77 8.82965Z" fill="#2E3224"/>
<path id="Vector_2" d="M156.751 6.65249C156.702 6.21137 156.478 5.88409 156.119 5.63202C155.618 5.28238 155.039 5.17261 154.46 5.05064C154.208 4.99779 153.95 4.9551 153.704 4.87989C153.539 4.8311 153.411 4.71116 153.403 4.51805C153.397 4.35949 153.502 4.26395 153.622 4.1928C153.807 4.08506 154.025 4.0627 154.222 4.07693C154.706 4.11352 155.151 4.28631 155.531 4.59936C155.598 4.65628 155.649 4.65221 155.706 4.59326C156.009 4.27208 156.373 4.01391 156.659 3.66834C156.371 3.48945 156.1 3.2943 155.785 3.15607C155.021 2.82269 154.236 2.70682 153.417 2.87961C152.417 3.08899 151.655 3.85942 151.736 4.91851C151.772 5.38605 151.972 5.76822 152.356 6.03655C152.785 6.33537 153.287 6.44108 153.791 6.53052C154.118 6.58947 154.448 6.63013 154.765 6.7338C155.041 6.82324 155.175 7.17085 154.913 7.39446C154.6 7.66279 154.224 7.70751 153.838 7.66076C153.248 7.58961 152.787 7.26233 152.368 6.85983C152.043 7.21557 151.644 7.49813 151.331 7.86607C151.409 7.95958 151.514 8.02463 151.604 8.10594C152.268 8.69545 153.063 8.93939 153.929 8.99021C154.301 9.01257 154.669 8.96175 155.027 8.86621C155.625 8.70562 156.159 8.44338 156.509 7.89453C156.655 7.66279 156.712 7.40056 156.785 7.14443V6.69314C156.773 6.68095 156.749 6.66875 156.749 6.65452L156.751 6.65249Z" fill="#2E3224"/>
<path id="Vector_3" d="M30.9713 0.944432C28.7332 0.95053 26.495 0.95053 24.259 0.944432C24.0719 0.944432 24.0272 0.991186 24.0272 1.17617C24.0333 6.87817 24.0313 12.5781 24.0313 18.2801C24.0313 23.9822 24.0313 29.7228 24.0272 35.4451C24.0272 35.6138 24.0638 35.6586 24.2366 35.6565C26.4808 35.6504 28.725 35.6504 30.9692 35.6565C31.14 35.6565 31.1786 35.6159 31.1786 35.4451C31.1745 24.0147 31.1745 12.5842 31.1786 1.15584C31.1786 0.987121 31.142 0.942399 30.9692 0.944432H30.9713Z" fill="#2E3224"/>
<path id="Vector_4" d="M7.81565 1.15801C7.81565 0.991319 7.7811 0.944565 7.60627 0.944565C5.36206 0.950663 3.11785 0.950663 0.873643 0.944565C0.702887 0.944565 0.662231 0.983188 0.662231 1.15598C0.666297 12.5864 0.666297 24.0168 0.662231 35.4452C0.662231 35.6119 0.694756 35.6587 0.869577 35.6587C3.10769 35.6526 5.3458 35.6526 7.58188 35.6587C7.76687 35.6587 7.81362 35.614 7.81362 35.4269C7.80752 29.7249 7.80955 24.025 7.80955 18.323C7.80955 12.621 7.80955 6.88034 7.81362 1.15801H7.81565Z" fill="#2E3224"/>
<path id="Vector_5" d="M19.5185 1.15578C19.5185 0.985022 19.4779 0.944366 19.3071 0.944366C17.0487 0.950465 14.7902 0.950465 12.5338 0.944366C12.3611 0.944366 12.3245 0.989088 12.3245 1.15578C12.3285 8.92107 12.3285 16.6864 12.3245 24.4517C12.3245 24.6224 12.3651 24.6631 12.5359 24.6631C14.7862 24.657 17.0385 24.657 19.2888 24.6631C19.4779 24.6631 19.5185 24.6123 19.5185 24.4293C19.5124 20.5528 19.5145 16.6782 19.5145 12.8017C19.5145 8.92514 19.5145 5.03639 19.5185 1.15374V1.15578Z" fill="#2E3224"/>
<path id="Vector_6" d="M54.2936 11.9378C52.0494 11.9439 49.8052 11.9439 47.5609 11.9378C47.3882 11.9378 47.3516 11.9825 47.3516 12.1492C47.3556 19.9145 47.3556 27.6798 47.3516 35.4451C47.3516 35.6158 47.3922 35.6565 47.563 35.6565C49.8011 35.6504 52.0372 35.6504 54.2753 35.6565C54.4643 35.6565 54.505 35.6056 54.505 35.4227C54.4989 31.5461 54.5009 27.6716 54.5009 23.7951C54.5009 19.9185 54.5009 16.0298 54.505 12.1471C54.505 11.9764 54.4643 11.9357 54.2936 11.9357V11.9378Z" fill="#2E3224"/>
<path id="Vector_7" d="M42.6192 11.8972C40.3953 11.9033 38.1715 11.9053 35.9476 11.8972C35.7484 11.8972 35.6874 11.9338 35.6874 12.1493C35.6955 16.0116 35.6935 19.8739 35.6935 23.7362C35.6935 27.5986 35.6935 31.5158 35.6894 35.4045C35.6894 35.5753 35.7321 35.618 35.9029 35.618C38.141 35.6119 40.377 35.6119 42.6152 35.618C42.7879 35.618 42.8428 35.5854 42.8428 35.3984C42.8367 27.6392 42.8367 19.8821 42.8428 12.1229C42.8428 11.9419 42.8001 11.8972 42.6192 11.8992V11.8972Z" fill="#888F77"/>
<path id="Vector_8" d="M65.9354 0.944366C62.876 0.950465 59.8187 0.948432 56.7593 0.948432C53.6999 0.948432 50.602 0.948432 47.5223 0.944366C47.3535 0.944366 47.3088 0.980957 47.3109 1.15374C47.317 3.32681 47.317 5.5019 47.3109 7.67497C47.3109 7.84572 47.3515 7.88638 47.5223 7.88638C53.6674 7.88231 59.8105 7.88231 65.9557 7.88638C66.1244 7.88638 66.1691 7.84979 66.1691 7.677C66.163 5.51003 66.163 3.34307 66.1691 1.17611C66.1691 0.991121 66.1244 0.944366 65.9374 0.944366H65.9354Z" fill="#2E3224"/>
<path id="Vector_9" d="M39.2467 7.88231C40.3831 7.88231 41.5174 7.87825 42.6537 7.88638C42.8082 7.88638 42.8428 7.84775 42.8428 7.69529C42.8367 5.508 42.8367 3.32071 42.8428 1.13342C42.8428 0.978924 42.8021 0.944366 42.6517 0.944366C40.381 0.950465 38.1084 0.950465 35.8377 0.944366C35.6832 0.944366 35.6487 0.98299 35.6487 1.13545C35.6548 3.32274 35.6548 5.51003 35.6487 7.69733C35.6487 7.85182 35.6873 7.88638 35.8398 7.88638C36.9761 7.88028 38.1104 7.88231 39.2467 7.88231Z" fill="#2E3224"/>
<path id="Vector_10" d="M80.3927 8.82756C80.905 8.82146 81.4193 8.81943 81.9315 8.82756C82.0698 8.8296 82.0941 8.78487 82.0982 8.65681C82.1206 7.94126 82.0454 7.22775 82.0555 6.5122C82.0698 5.54866 81.9823 4.58918 82.0128 3.62563C82.0128 3.59107 82.0189 3.55448 82.0088 3.52399C81.9234 3.22313 81.9966 2.91821 81.9864 2.61533C82.0555 2.83894 82.1043 3.06458 82.1592 3.28818C82.3239 3.96307 82.521 4.62983 82.7081 5.29862C83.0231 6.42683 83.324 7.5591 83.6289 8.68933C83.6533 8.77878 83.6899 8.82756 83.8037 8.82553C84.2611 8.81537 84.7205 8.8174 85.1779 8.82553C85.3161 8.82756 85.3507 8.77268 85.3853 8.64664C85.5784 7.91687 85.7877 7.19319 85.987 6.46545C86.2106 5.64826 86.4342 4.83108 86.6537 4.01389C86.7757 3.56261 86.8895 3.10727 87.0115 2.63972C87.0603 3.36543 86.9932 4.07284 86.981 4.78026C86.9729 5.23561 86.9749 5.68892 86.9525 6.1463C86.9139 6.98991 86.9525 7.83556 86.8977 8.67917C86.8895 8.79504 86.9282 8.82756 87.044 8.82756C87.5441 8.82146 88.0442 8.81537 88.5422 8.8296C88.717 8.83366 88.7516 8.78284 88.7516 8.61615C88.7455 6.12801 88.7475 3.63986 88.7475 1.15171C88.7475 1.12529 88.7434 1.09683 88.7475 1.0704C88.7617 0.96876 88.715 0.946399 88.6194 0.946399C87.7575 0.950465 86.8956 0.948432 86.0337 0.946399C85.9544 0.946399 85.9219 0.956563 85.9077 1.0521C85.8813 1.23506 85.8243 1.41394 85.7776 1.59283C85.4808 2.7129 85.184 3.83297 84.8893 4.95305C84.749 5.48361 84.6169 6.0162 84.4868 6.55286C84.4258 6.24794 84.377 5.93895 84.2997 5.6381C83.8993 4.1135 83.4866 2.59297 83.0902 1.06837C83.0618 0.958596 83.0292 0.944366 82.9398 0.944366C82.0921 0.944366 81.2424 0.948432 80.3947 0.944366C80.2789 0.944366 80.2463 0.974858 80.2463 1.09073C80.2504 3.61953 80.2504 6.14833 80.2463 8.67714C80.2463 8.79301 80.2768 8.82553 80.3947 8.82553L80.3927 8.82756Z" fill="#2E3224"/>
<path id="Vector_11" d="M151.207 3.25775C151.211 3.14798 151.177 3.11749 151.069 3.12156C150.797 3.12969 150.522 3.11546 150.248 3.12765C150.116 3.13375 150.091 3.08903 150.091 2.96706C150.097 2.46903 150.093 1.96896 150.095 1.47092C150.095 1.38554 150.106 1.31643 149.975 1.31846C149.49 1.32659 149.004 1.32253 148.518 1.31846C148.445 1.31846 148.404 1.32863 148.41 1.41604C148.443 1.9344 148.394 2.45276 148.433 2.97316C148.439 3.06057 148.4 3.13172 148.268 3.12969C147.796 3.11749 147.325 3.11952 146.851 3.12969C146.717 3.13172 146.68 3.09513 146.682 2.96096C146.69 2.46903 146.68 1.97709 146.688 1.48515C146.69 1.34692 146.648 1.31643 146.518 1.31846C146.066 1.32659 145.615 1.32863 145.164 1.31846C145.021 1.3144 144.997 1.36522 144.999 1.49125C145.005 1.97709 144.997 2.4609 145.005 2.94673C145.007 3.08496 144.981 3.14188 144.83 3.12969C144.654 3.11546 144.475 3.12969 144.298 3.12562C144.21 3.12359 144.178 3.14798 144.18 3.23946C144.186 3.51998 144.186 3.80051 144.18 4.079C144.18 4.16845 144.206 4.19691 144.296 4.19487C144.481 4.18878 144.666 4.203 144.849 4.19081C144.981 4.18268 145.005 4.22943 145.003 4.3514C144.997 4.86366 145.001 5.37593 145.001 6.0122C145.034 6.50007 144.952 7.11397 145.04 7.72585C145.101 8.1446 145.263 8.49628 145.662 8.68736C146.29 8.98821 146.955 8.87235 147.609 8.81746C147.662 8.81339 147.715 8.77884 147.713 8.69549C147.707 8.31942 147.709 7.94336 147.711 7.56729C147.711 7.47175 147.662 7.40873 147.575 7.44329C147.408 7.50834 147.237 7.47175 147.071 7.47378C146.816 7.47988 146.725 7.36807 146.676 7.1221C146.648 6.96965 146.678 6.82735 146.676 6.68302C146.654 5.94308 146.699 5.20517 146.662 4.46524C146.658 4.37376 146.585 4.17048 146.857 4.18674C147.327 4.2152 147.8 4.19487 148.272 4.19487C148.378 4.19487 148.424 4.20097 148.418 4.34733C148.398 4.89416 148.404 5.44301 148.41 5.99187C148.414 6.54886 148.404 7.10788 148.451 7.66486C148.489 8.12224 148.739 8.57962 149.252 8.75851C149.829 8.95772 150.412 8.86421 150.996 8.82762C151.065 8.82356 151.122 8.77884 151.12 8.67923C151.112 8.30316 151.114 7.92709 151.12 7.55103C151.12 7.43922 151.063 7.41076 150.986 7.44329C150.825 7.51037 150.662 7.47581 150.502 7.47581C150.242 7.47581 150.093 7.32539 150.093 7.06315C150.089 6.15449 150.093 5.24583 150.089 4.33717C150.089 4.21114 150.136 4.19284 150.244 4.19691C150.518 4.203 150.791 4.19487 151.065 4.20097C151.171 4.203 151.207 4.17658 151.205 4.06681C151.197 3.80051 151.197 3.53421 151.205 3.26792L151.207 3.25775Z" fill="#2E3224"/>
<path id="Vector_12" d="M130.733 29.8264C130.398 29.8346 130.062 29.8285 129.727 29.8285C129.457 29.8285 129.321 29.9667 129.318 30.2432C129.318 30.2757 129.318 30.3062 129.318 30.3814C129.107 30.1639 128.908 30.0135 128.67 29.9077C128.306 29.7431 127.928 29.7289 127.544 29.7512C127.086 29.7756 126.669 29.924 126.32 30.2228C125.669 30.7778 125.436 31.5238 125.379 32.341C125.352 32.7313 125.36 33.1257 125.458 33.5099C125.608 34.1055 125.852 34.6462 126.389 34.9958C127.108 35.4654 127.871 35.5244 128.676 35.2215C128.873 35.1463 129.027 34.9979 129.235 34.9308C129.235 35.2195 129.257 35.4959 129.231 35.7663C129.186 36.2298 129.088 36.4635 128.641 36.5794C128.436 36.6322 128.216 36.6465 127.987 36.6099C127.631 36.553 127.247 36.2704 127.222 35.8618C127.216 35.7541 127.186 35.6504 127.045 35.6565C126.56 35.6768 126.074 35.6748 125.586 35.6585C125.521 35.6565 125.442 35.6626 125.454 35.7846C125.47 35.9452 125.454 36.1058 125.496 36.2663C125.592 36.6262 125.734 36.9433 126.051 37.1831C126.655 37.6405 127.359 37.7686 128.076 37.7747C128.601 37.7787 129.131 37.7076 129.635 37.5064C130.509 37.1587 130.859 36.5916 130.869 35.8374C130.896 33.8839 130.877 31.9284 130.881 29.9748C130.881 29.859 130.849 29.8244 130.733 29.8285V29.8264ZM129.149 33.2964C128.964 34.0689 128.277 34.2762 127.659 33.9733C127.324 33.8087 127.186 33.4936 127.147 33.1419C127.127 32.963 127.06 32.7842 127.09 32.6785C127.117 32.2272 127.141 31.8572 127.304 31.5096C127.48 31.1335 127.976 30.9689 128.338 31.04C129.007 31.1701 129.145 31.6031 129.196 32.1621C129.231 32.5443 129.239 32.9244 129.149 33.2985V33.2964Z" fill="#2E3224"/>
<path id="Vector_13" d="M100.824 31.0583C100.684 30.1151 99.8669 29.6659 99.0558 29.674C98.511 29.6781 98.0069 29.8651 97.6247 30.2899C97.5861 30.3326 97.5475 30.416 97.4865 30.3916C97.4113 30.3611 97.454 30.2717 97.454 30.2086C97.452 29.4504 97.4499 28.6901 97.454 27.9319C97.454 27.8059 97.4235 27.7713 97.2954 27.7733C96.8502 27.7815 96.4051 27.7855 95.9619 27.7733C95.7952 27.7693 95.7627 27.8201 95.7647 27.9766C95.7708 29.2268 95.7688 30.479 95.7688 31.7292C95.7688 32.9793 95.7729 34.2315 95.7627 35.4817C95.7627 35.6708 95.8176 35.7033 95.9883 35.6992C96.4051 35.687 96.8238 35.687 97.2405 35.6992C97.4052 35.7033 97.4581 35.6708 97.456 35.4919C97.4459 34.4389 97.452 33.3859 97.4499 32.3329C97.4499 32.0971 97.4946 31.8694 97.5739 31.6479C97.6715 31.3816 98.011 31.1336 98.3078 31.1437C98.6208 31.1559 98.9054 31.2332 99.0599 31.5665C99.1615 31.7861 99.2103 32.0097 99.2124 32.2414C99.2185 33.329 99.2185 34.4145 99.2124 35.502C99.2124 35.6484 99.2347 35.7013 99.3973 35.6972C99.8202 35.683 100.245 35.685 100.67 35.6972C100.849 35.7033 100.904 35.6504 100.904 35.4675C100.896 34.2295 100.904 32.9936 100.898 31.7556C100.898 31.5218 100.857 31.2901 100.822 31.0563L100.824 31.0583Z" fill="#2E3224"/>
<path id="Vector_14" d="M120.27 22.4352C121.282 22.2868 122.037 21.7277 122.561 20.8516C122.61 20.7703 122.614 20.7601 122.529 20.7154C122.173 20.5365 121.819 20.3495 121.469 20.1605C121.382 20.1137 121.348 20.1178 121.295 20.2153C121.118 20.5487 120.902 20.8516 120.538 21.0061C119.929 21.2663 119.199 21.1525 118.833 20.5589C118.711 20.3597 118.672 20.132 118.626 19.9003C118.583 19.6949 118.638 19.6909 118.798 19.6909C119.408 19.697 120.016 19.6929 120.626 19.6929C121.236 19.6929 121.858 19.6868 122.474 19.697C122.642 19.701 122.671 19.6462 122.671 19.4937C122.671 19.1278 122.622 18.7721 122.545 18.4163C122.358 17.5605 121.913 16.8856 121.11 16.4994C120.49 16.2006 119.831 16.164 119.154 16.2859C118.306 16.4384 117.699 16.9059 117.308 17.65C116.851 18.518 116.806 19.451 117.008 20.3922C117.142 21.0244 117.473 21.557 118.004 21.9371C118.685 22.425 119.465 22.551 120.272 22.4331L120.27 22.4352ZM118.644 18.461C118.778 18.0138 119.002 17.6418 119.49 17.5138C120.13 17.345 120.772 17.6642 120.906 18.3818C120.947 18.5952 120.888 18.5972 120.723 18.5911C120.417 18.581 120.108 18.5891 119.801 18.5891C119.453 18.5891 119.103 18.585 118.756 18.5911C118.65 18.5911 118.615 18.5505 118.642 18.461H118.644Z" fill="#2E3224"/>
<path id="Vector_15" d="M142.606 3.2842C141.846 2.776 141.019 2.70079 140.149 2.90203C139.391 3.07685 138.827 3.51594 138.474 4.20302C137.955 5.21333 137.907 6.26835 138.273 7.33557C138.482 7.94744 138.899 8.39466 139.47 8.70771C140.11 9.05735 140.787 9.08581 141.484 8.99027C142.149 8.90083 142.704 8.59387 143.178 8.12633C143.407 7.89865 143.564 7.6161 143.771 7.35183C143.44 7.17904 143.111 7.00422 142.781 6.8355C142.493 6.68711 142.491 6.68711 142.336 6.96763C142.015 7.55308 141.407 7.82344 140.751 7.68115C140.181 7.55918 139.86 7.12213 139.791 6.55091C139.754 6.25412 139.763 6.25819 139.988 6.25819C141.214 6.25819 142.44 6.25209 143.664 6.26428C143.792 6.26428 143.81 6.23786 143.812 6.13418C143.822 5.68087 143.771 5.23569 143.643 4.8027C143.46 4.1888 143.157 3.65417 142.606 3.28623V3.2842ZM141.962 5.1747C141.621 5.17267 141.279 5.1747 140.936 5.1747C140.592 5.1747 140.252 5.17064 139.911 5.17674C139.791 5.17877 139.769 5.12998 139.797 5.03037C139.984 4.41037 140.295 4.12578 140.881 4.0282C141.397 3.94283 141.962 4.38598 142.045 4.9206C142.052 4.95923 142.045 5.00598 142.062 5.03851C142.127 5.16454 142.062 5.1747 141.96 5.17267L141.962 5.1747Z" fill="#2E3224"/>
<path id="Vector_16" d="M89.5261 32.6419C89.5261 32.2841 89.4651 31.9345 89.3574 31.597C89.1358 30.8937 88.7557 30.3103 88.0747 29.9586C87.4486 29.6354 86.792 29.6191 86.113 29.6984C85.552 29.7634 85.0743 29.9992 84.6819 30.3875C84.0863 30.9791 83.8404 31.7332 83.7814 32.5524C83.7529 32.9427 83.7733 33.3351 83.8566 33.7233C84.0009 34.3942 84.3282 34.9633 84.8791 35.3557C85.6495 35.9025 86.5216 36.0143 87.4384 35.7948C88.3206 35.5833 88.9508 35.0426 89.4265 34.2966C89.4773 34.2153 89.4793 34.1746 89.3757 34.1238C89.0281 33.9571 88.6865 33.7762 88.3491 33.5892C88.2536 33.5363 88.217 33.5465 88.1682 33.64C87.8694 34.2193 87.4343 34.5669 86.7391 34.5527C85.989 34.5385 85.5316 33.953 85.4971 33.2741C85.489 33.1359 85.5357 33.1054 85.6678 33.1074C86.2899 33.1135 86.9139 33.1094 87.536 33.1094C88.0767 33.1094 88.6174 33.1094 89.1582 33.1094C89.2862 33.1094 89.4509 33.1481 89.5363 33.085C89.6379 33.0078 89.5403 32.8492 89.5261 32.7252C89.522 32.6988 89.5261 32.6703 89.5261 32.6439V32.6419ZM87.4811 32.0442H86.6415C86.3143 32.0442 85.987 32.0402 85.6577 32.0442C85.5255 32.0463 85.4951 32.0381 85.5316 31.8796C85.6475 31.3937 85.9138 31.0563 86.3956 30.9262C86.9546 30.7758 87.6092 31.0339 87.7576 31.6966C87.8091 31.927 87.7155 32.0422 87.477 32.0422L87.4811 32.0442Z" fill="#2E3224"/>
<path id="Vector_17" d="M132.321 19.1237C132.266 18.2232 131.973 17.4487 131.263 16.8633C130.812 16.4913 130.284 16.3042 129.71 16.2555C129.326 16.2229 128.94 16.225 128.556 16.288C127.873 16.4018 127.306 16.7189 126.871 17.2475C126.379 17.8451 126.236 18.5667 126.198 19.3799C126.257 19.5466 126.236 19.7824 126.275 20.0161C126.429 20.9654 126.907 21.679 127.775 22.1018C128.507 22.4596 129.294 22.5002 130.078 22.3478C130.812 22.2055 131.424 21.8314 131.827 21.185C132.219 20.5569 132.365 19.8677 132.321 19.1237ZM130.123 20.7601C129.745 21.1159 128.95 21.1484 128.54 20.8293C128.111 20.4959 127.958 20.0365 127.924 19.5242C127.895 19.0912 127.93 18.6684 128.137 18.272C128.43 17.7089 128.924 17.5402 129.505 17.6113C129.995 17.6723 130.314 17.9752 130.477 18.4488C130.578 18.7436 130.633 19.0424 130.631 19.4856C130.617 19.8779 130.53 20.3739 130.121 20.7601H130.123Z" fill="#2E3224"/>
<path id="Vector_18" d="M123.374 30.1111C122.831 29.7736 122.232 29.6374 121.608 29.6659C120.935 29.6415 120.315 29.7797 119.772 30.1619C118.965 30.727 118.628 31.5482 118.563 32.4955C118.524 33.0566 118.589 33.6095 118.811 34.1299C119.093 34.8007 119.561 35.2967 120.248 35.5752C120.943 35.8578 121.659 35.9249 122.39 35.7744C123.285 35.5894 123.966 35.1117 124.356 34.2722C124.704 33.5262 124.775 32.7415 124.594 31.9406C124.423 31.1783 124.055 30.5318 123.376 30.109L123.374 30.1111ZM122.872 33.5323C122.669 34.1218 122.256 34.4897 121.612 34.4653C120.949 34.4978 120.496 34.0201 120.331 33.3879C120.201 32.8899 120.232 32.3959 120.396 31.8938C120.715 30.9242 121.872 30.7859 122.494 31.3307C122.77 31.5747 122.899 31.9263 122.943 32.2841C122.996 32.7008 123.012 33.1216 122.872 33.5323Z" fill="#2E3224"/>
<path id="Vector_19" d="M111.828 29.6659C111.523 29.6598 111.218 29.6415 110.915 29.7025C110.399 29.8061 109.921 29.9952 109.523 30.3469C108.821 30.9648 108.586 31.7861 108.547 32.6805C108.533 33.02 108.586 33.3615 108.665 33.6949C108.813 34.3149 109.128 34.8414 109.63 35.2276C110.21 35.6708 110.897 35.8293 111.678 35.8578C111.858 35.7968 112.111 35.8273 112.356 35.7765C113.09 35.624 113.708 35.2927 114.125 34.6503C114.757 33.6766 114.818 32.6297 114.473 31.5523C114.084 30.3428 113.037 29.6903 111.828 29.6618V29.6659ZM112.769 33.7457C112.458 34.4023 111.989 34.5466 111.36 34.4511C110.85 34.3718 110.515 34.0547 110.344 33.4448C110.281 33.2172 110.238 32.9875 110.265 32.7862C110.242 32.2374 110.346 31.7617 110.708 31.3775C111.19 30.8652 112.332 30.8124 112.747 31.6946C113.058 32.3553 113.092 33.0647 112.769 33.7477V33.7457Z" fill="#2E3224"/>
<path id="Vector_20" d="M111.086 5.01205C110.732 5.07506 110.377 5.13402 110.029 5.21736C109.47 5.35152 108.909 5.45926 108.425 5.82313C107.573 6.46143 107.478 7.66485 108.177 8.43935C108.785 9.11424 109.942 9.12033 110.667 8.7341C110.893 8.61417 111.09 8.45358 111.332 8.31331C111.332 8.45154 111.34 8.55522 111.332 8.65482C111.32 8.78289 111.356 8.82964 111.497 8.82761C111.982 8.81745 112.468 8.82355 112.966 8.82355C112.834 8.62433 112.812 8.40885 112.812 8.18728C112.812 6.94931 112.818 5.71336 112.81 4.47539C112.806 3.88384 112.525 3.43459 111.999 3.1683C111.377 2.85321 110.698 2.7963 110.017 2.84102C109.626 2.86541 109.24 2.94469 108.884 3.13171C108.336 3.42037 108.014 3.86148 107.966 4.48962C107.957 4.59939 107.982 4.64411 108.106 4.64208C108.577 4.63395 109.049 4.63598 109.523 4.64208C109.62 4.64208 109.643 4.60752 109.667 4.52418C109.748 4.23145 109.946 4.06273 110.24 3.99158C110.655 3.89197 110.98 4.01801 111.102 4.34935C111.169 4.53231 111.182 4.72949 111.171 4.92464C111.169 4.98359 111.151 4.99985 111.09 5.01001L111.086 5.01205ZM111.177 6.04471C111.121 6.4472 111.171 6.85783 110.917 7.19121C110.625 7.57541 110.216 7.82747 109.759 7.67908C109.517 7.60183 109.399 7.42498 109.366 7.19731C109.336 6.9737 109.421 6.78465 109.616 6.64845C109.976 6.39638 110.405 6.31304 110.805 6.16058C110.919 6.11586 111.039 6.0874 111.177 6.04471Z" fill="#2E3224"/>
<path id="Vector_21" d="M93.0835 8.65481C93.2502 8.55114 93.4087 8.43933 93.5917 8.31533C93.5917 8.45559 93.6018 8.56536 93.5896 8.67107C93.5734 8.80523 93.6283 8.8276 93.7502 8.82556C94.2361 8.81947 94.7219 8.82353 95.2342 8.82353C95.0858 8.56536 95.0695 8.3072 95.0695 8.04294C95.0695 6.83952 95.0695 5.6361 95.0695 4.43472C95.0695 3.93668 94.8378 3.56468 94.4434 3.28618C94.0633 3.01582 93.6283 2.92231 93.1709 2.86946C92.5529 2.79628 91.9471 2.82271 91.3658 3.04225C90.6136 3.32684 90.325 3.79438 90.2233 4.49163C90.2071 4.60344 90.2437 4.6441 90.3656 4.64206C90.8372 4.63393 91.3088 4.638 91.7825 4.64206C91.8577 4.64206 91.8902 4.62987 91.9207 4.54449C92.002 4.33104 92.1138 4.13589 92.3537 4.04848C92.6728 3.93261 93.1749 3.92855 93.3315 4.23957C93.4433 4.46318 93.4351 4.70914 93.427 4.95105C93.425 5.03033 93.364 5.00187 93.3213 5.01C92.7257 5.14213 92.1199 5.23157 91.5345 5.41453C90.76 5.65643 90.1684 6.07722 90.0099 6.9249C89.892 7.551 90.079 8.11205 90.5404 8.52877C91.2357 9.15691 92.3354 9.11829 93.0835 8.65278V8.65481ZM91.7601 6.77244C91.939 6.56306 92.1789 6.46752 92.4208 6.37604C92.7481 6.25204 93.0855 6.1565 93.429 6.04469C93.4169 6.50207 93.4108 6.95335 93.0936 7.31519C92.8395 7.60588 92.2927 7.90267 91.8679 7.59165C91.6402 7.42496 91.5243 7.04686 91.7601 6.7704V6.77244Z" fill="#2E3224"/>
<path id="Vector_22" d="M135.351 29.8264C135.266 29.8264 135.28 29.8773 135.268 29.9321C135.181 30.3265 135.083 30.7188 134.996 31.1152C134.88 31.6336 134.77 32.152 134.654 32.6703C134.559 33.0992 134.457 33.5282 134.351 33.9855C134.242 33.5282 134.138 33.1033 134.04 32.6764C133.833 31.7576 133.628 30.8388 133.426 29.9179C133.412 29.8488 133.394 29.8285 133.327 29.8285C132.76 29.8285 132.193 29.8285 131.613 29.8285C131.971 31.0075 132.325 32.1703 132.676 33.335C132.908 34.1075 133.156 34.8759 133.355 35.6565C133.453 36.0326 133.41 36.1871 133.01 36.2745C132.766 36.3273 132.524 36.3029 132.282 36.3029C132.134 36.3029 132.101 36.3477 132.105 36.4879C132.115 36.8152 132.119 37.1445 132.105 37.4718C132.097 37.6446 132.162 37.669 132.312 37.6669C132.709 37.6568 133.105 37.6588 133.504 37.6669C134.008 37.6751 134.386 37.4576 134.658 37.0429C134.929 36.6343 135.065 36.1708 135.209 35.7073C135.573 34.5324 135.957 33.3635 136.331 32.1926C136.581 31.412 136.827 30.6314 137.083 29.8305C136.498 29.8305 135.927 29.8305 135.354 29.8305L135.351 29.8264Z" fill="#2E3224"/>
<path id="Vector_23" d="M106.77 16.5725C106.778 16.8449 106.77 17.1194 106.774 17.3918C106.797 18.6399 106.705 19.8921 106.858 21.1362C106.902 21.5001 107.071 21.8212 107.352 22.0469C107.846 22.4453 108.437 22.4758 109.035 22.3742C109.482 22.2989 109.883 22.1058 110.222 21.7196C110.222 21.8802 110.232 21.99 110.22 22.0977C110.204 22.2298 110.279 22.2583 110.379 22.2583C110.84 22.2542 111.303 22.2278 111.765 22.2481C111.928 22.2542 111.907 22.1912 111.907 22.0957C111.907 20.258 111.907 18.4183 111.909 16.5807C111.909 16.4506 111.881 16.4059 111.743 16.4099C111.297 16.4201 110.852 16.4201 110.409 16.4099C110.255 16.4059 110.218 16.4465 110.22 16.601C110.226 17.8166 110.224 19.0343 110.224 20.2499C110.224 20.4389 110.163 20.5955 110.029 20.7357C109.803 20.9715 109.523 21.0122 109.218 21.0101C108.886 21.0081 108.488 20.7865 108.494 20.2987C108.508 19.0688 108.498 17.839 108.502 16.6071C108.502 16.4709 108.494 16.4018 108.321 16.4079C107.856 16.4221 107.39 16.4181 106.927 16.4079C106.793 16.4059 106.768 16.4506 106.772 16.5705L106.77 16.5725Z" fill="#2E3224"/>
<path id="Vector_24" d="M126.204 7.79902C126.287 8.14256 126.446 8.44951 126.753 8.67312C127.143 8.95568 127.574 9.00447 128.029 8.9882C128.627 8.96788 129.135 8.7524 129.564 8.29705C129.564 8.42918 129.572 8.54912 129.562 8.66702C129.55 8.79102 129.588 8.82965 129.719 8.82761C130.176 8.81948 130.635 8.81948 131.093 8.82761C131.221 8.82965 131.251 8.79509 131.251 8.66905C131.247 6.8314 131.247 4.99375 131.251 3.15407C131.251 3.02804 131.221 2.99348 131.093 2.99551C130.648 3.00364 130.202 3.00771 129.759 2.99551C129.595 2.99144 129.56 3.04023 129.56 3.19676C129.566 4.36562 129.564 5.53448 129.564 6.7013C129.564 6.87003 129.546 7.03875 129.456 7.18308C129.247 7.52052 128.755 7.67908 128.361 7.56524C128.094 7.488 127.899 7.34367 127.842 7.06924C127.798 6.84563 127.794 6.61389 127.796 6.38215C127.8 5.30884 127.796 4.23755 127.802 3.16423C127.802 3.03007 127.767 2.99348 127.633 2.99551C127.188 3.00364 126.743 3.00771 126.299 2.99551C126.141 2.99144 126.11 3.0382 126.112 3.18863C126.118 4.35749 126.121 5.52635 126.112 6.69317C126.112 7.06518 126.116 7.43921 126.204 7.79902Z" fill="#2E3224"/>
<path id="Vector_25" d="M88.7008 17.6337C88.6764 17.2861 88.5585 16.9507 88.28 16.7108C87.7596 16.2595 87.1315 16.2168 86.4911 16.3124C86.0704 16.3754 85.6801 16.5319 85.3772 16.8795C85.3772 16.7718 85.3711 16.662 85.3772 16.5543C85.3833 16.4547 85.3629 16.41 85.2471 16.412C84.7694 16.4181 84.2896 16.4181 83.8099 16.412C83.6798 16.412 83.6493 16.4689 83.6493 16.5868C83.6513 18.4245 83.6534 20.2621 83.6493 22.0998C83.6493 22.2299 83.7103 22.2604 83.8099 22.2604C84.2713 22.2563 84.7348 22.2319 85.1942 22.2502C85.3548 22.2563 85.3365 22.1933 85.3365 22.0998C85.3365 21.4716 85.3365 20.8435 85.3365 20.2133C85.3365 19.6279 85.3182 19.0424 85.3792 18.461C85.3995 18.272 85.4341 18.0829 85.5683 17.9264C85.798 17.6561 86.1984 17.5788 86.5643 17.7069C86.8835 17.8187 87.0624 18.1175 87.0624 18.5119C87.0624 19.7011 87.0624 20.8902 87.0624 22.0794C87.0624 22.1709 87.0502 22.2604 87.1823 22.2583C87.6702 22.2543 88.1601 22.2461 88.6479 22.2461C88.7557 22.2461 88.7496 22.1892 88.7476 22.1181C88.7232 20.626 88.8045 19.1298 88.7008 17.6398V17.6337Z" fill="#2E3224"/>
<path id="Vector_26" d="M84.192 29.1902C84.1859 28.7674 84.1859 28.3426 84.192 27.9197C84.192 27.8018 84.1554 27.7734 84.0415 27.7734C82.1673 27.7774 80.2931 27.7774 78.4188 27.7734C78.303 27.7734 78.2704 27.8059 78.2725 27.9218C78.2786 28.3385 78.2806 28.7552 78.2725 29.1719C78.2684 29.3102 78.3151 29.3386 78.4432 29.3386C78.9961 29.3325 79.5511 29.3407 80.106 29.3305C80.226 29.3285 80.2788 29.3976 80.2707 29.4708C80.2504 29.6435 80.2707 29.8123 80.2707 29.983C80.2748 30.8307 80.2727 31.6784 80.2727 32.5281C80.2646 32.5281 80.2565 32.5281 80.2483 32.5281C80.2483 33.0119 80.2402 33.4937 80.2483 33.9775C80.2585 34.4816 80.2646 34.9837 80.2463 35.4878C80.2402 35.6464 80.2971 35.7054 80.4699 35.7013C80.968 35.6871 81.468 35.6871 81.9681 35.7013C82.1673 35.7074 82.2222 35.6484 82.2202 35.4492C82.212 33.4754 82.2181 31.4995 82.212 29.5256C82.212 29.3752 82.2445 29.3305 82.4011 29.3346C82.9479 29.3447 83.4947 29.3346 84.0415 29.3407C84.1574 29.3407 84.1899 29.3081 84.1899 29.1923L84.192 29.1902Z" fill="#2E3224"/>
<path id="Vector_27" d="M107.431 31.5218C107.431 31.3266 107.431 31.1315 107.392 30.9363C107.301 30.4688 107.071 30.1232 106.632 29.8996C106.258 29.7085 105.872 29.6902 105.475 29.7065C104.941 29.7309 104.463 29.8996 104.063 30.359C104.063 30.2005 104.057 30.0927 104.063 29.985C104.073 29.8589 104.03 29.8345 103.902 29.8386C103.443 29.8549 102.983 29.865 102.526 29.8427C102.379 29.8345 102.377 29.8671 102.377 29.9789C102.379 31.8308 102.379 33.6847 102.377 35.5366C102.377 35.6606 102.404 35.6992 102.534 35.6971C102.965 35.689 103.396 35.6809 103.827 35.6992C104.028 35.7073 104.067 35.6504 104.069 35.4552C104.083 34.2356 104.004 33.0138 104.109 31.7942C104.134 31.5035 104.256 31.2575 104.569 31.1315C104.977 30.9688 105.614 31.0868 105.734 31.6478C105.776 31.845 105.784 32.0503 105.786 32.2515C105.791 33.331 105.791 34.4124 105.786 35.4918C105.786 35.6423 105.811 35.7032 105.982 35.6971C106.398 35.6829 106.817 35.6849 107.234 35.6971C107.39 35.7012 107.437 35.6646 107.437 35.5C107.429 34.1746 107.433 32.8472 107.433 31.5218H107.431Z" fill="#2E3224"/>
<path id="Vector_28" d="M136.837 5.66451C136.323 5.30267 135.727 5.17461 135.13 5.05061C134.876 4.99775 134.62 4.95303 134.374 4.88188C134.235 4.84123 134.101 4.75991 134.081 4.58509C134.061 4.39198 134.148 4.27204 134.323 4.1887C134.624 4.04843 134.929 4.06876 135.238 4.13178C135.583 4.20293 135.88 4.36758 136.167 4.5668C136.226 4.60746 136.278 4.67454 136.374 4.59119C136.683 4.32286 136.965 4.02811 137.26 3.74555C137.337 3.67237 137.303 3.62968 137.244 3.59309C137.022 3.45892 136.807 3.31256 136.573 3.20482C135.797 2.84705 134.992 2.68849 134.138 2.87348C133.25 3.06456 132.619 3.52804 132.43 4.46109C132.327 4.97742 132.447 5.44294 132.8 5.8373C133.093 6.16458 133.502 6.28248 133.904 6.40242C134.372 6.53861 134.859 6.56911 135.329 6.69107C135.504 6.7358 135.66 6.82524 135.715 7.00616C135.77 7.18504 135.673 7.32328 135.536 7.42695C135.223 7.66275 134.868 7.70544 134.49 7.65462C133.937 7.57941 133.5 7.28668 133.101 6.91875C133.042 6.8659 133.018 6.8659 132.963 6.91875C132.64 7.2318 132.314 7.53875 131.991 7.84571C132.046 7.95548 132.156 7.99003 132.233 8.06118C132.902 8.68119 133.717 8.92919 134.605 8.98204C134.977 9.0044 135.347 8.95561 135.703 8.85601C136.563 8.61614 137.238 8.17299 137.435 7.21554C137.543 6.69514 137.274 5.96537 136.835 5.65841L136.837 5.66451Z" fill="#2E3224"/>
<path id="Vector_29" d="M105.227 8.86216C106.085 8.62025 106.791 8.19946 106.955 7.22778C107.059 6.62201 106.88 6.01827 106.311 5.62391C105.817 5.2824 105.242 5.17059 104.67 5.05066C104.41 4.99577 104.146 4.95715 103.894 4.8799C103.599 4.79046 103.506 4.43269 103.725 4.26396C103.928 4.10947 104.185 4.05458 104.426 4.07491C104.902 4.1176 105.347 4.266 105.723 4.58515C105.774 4.62783 105.833 4.65426 105.914 4.58515C106.246 4.30055 106.545 3.98344 106.862 3.67445C106.658 3.49963 106.437 3.36343 106.205 3.2496C105.378 2.84304 104.508 2.67228 103.599 2.88166C102.81 3.06258 102.225 3.5037 101.991 4.31885C101.802 4.97748 102.046 5.68896 102.577 6.04266C102.798 6.19106 103.046 6.28253 103.298 6.36384C103.806 6.5285 104.343 6.56306 104.857 6.69316C105.046 6.74195 105.219 6.83139 105.254 7.0428C105.29 7.26234 105.166 7.41887 104.979 7.50831C104.536 7.71972 104.085 7.72175 103.621 7.5571C103.262 7.42903 102.971 7.19729 102.682 6.96352C102.597 6.89441 102.546 6.87611 102.461 6.95946C102.223 7.19323 101.975 7.4148 101.737 7.64654C101.532 7.84372 101.538 7.84372 101.733 8.03277C102.394 8.66294 103.205 8.92314 104.091 8.98616C104.477 9.01462 104.859 8.96583 105.229 8.86216H105.227Z" fill="#2E3224"/>
<path id="Vector_30" d="M96.1327 8.12626C96.1571 8.14862 96.1876 8.16285 96.214 8.18318C96.8625 8.71577 97.6268 8.94141 98.4481 8.98613C98.9623 9.01459 99.4665 8.93125 99.9422 8.73813C100.735 8.41492 101.412 7.76849 101.272 6.68094C101.207 6.18087 100.957 5.817 100.53 5.56086C100.054 5.27627 99.5254 5.16244 98.9928 5.04657C98.69 4.98152 98.3728 4.96526 98.0923 4.81076C97.889 4.69693 97.8524 4.48755 98.0008 4.31273C98.198 4.07895 98.4867 4.06676 98.7387 4.07489C99.2266 4.09318 99.6677 4.28833 100.052 4.59325C100.119 4.64611 100.164 4.65424 100.227 4.59325C100.546 4.2863 100.865 3.98341 101.19 3.67239C101.133 3.63174 101.087 3.59718 101.036 3.56466C100.095 2.93246 99.0762 2.65193 97.9399 2.87147C97.0312 3.04629 96.2323 3.79843 96.2486 4.72335C96.2567 5.26814 96.4335 5.71536 96.8767 6.02638C97.3666 6.36992 97.95 6.46749 98.5273 6.561C98.7896 6.60369 99.0518 6.63622 99.2998 6.74395C99.4482 6.809 99.5559 6.90658 99.56 7.06107C99.5641 7.22979 99.4949 7.37412 99.3303 7.46763C98.9359 7.68921 98.5253 7.71767 98.0964 7.59976C97.6227 7.46966 97.2345 7.19727 96.895 6.85169C96.6145 7.11799 96.3339 7.36599 96.0758 7.63635C96.0046 7.70953 95.8176 7.7258 95.8725 7.86403C95.9131 7.9677 96.0392 8.03681 96.1307 8.12016L96.1327 8.12626Z" fill="#2E3224"/>
<path id="Vector_31" d="M93.3843 22.2339C93.7949 22.1038 94.1852 21.9066 94.4678 21.5793C94.8459 21.1443 95.0146 20.63 94.9069 20.0425C94.8398 19.6746 94.6853 19.3514 94.3844 19.1278C93.9108 18.7761 93.3558 18.6216 92.7867 18.5017C92.433 18.4265 92.0589 18.4183 91.7316 18.2313C91.5223 18.1134 91.4857 17.8654 91.6646 17.7048C91.7865 17.5951 91.9369 17.5381 92.0975 17.5219C92.7419 17.4589 93.2908 17.6804 93.7787 18.089C94.1161 17.7475 94.5023 17.4548 94.8093 17.0909C94.4515 16.8145 94.0653 16.597 93.6384 16.4547C93.0956 16.2737 92.5448 16.1924 91.9654 16.2432C91.3922 16.2941 90.8819 16.475 90.4632 16.8612C90.0912 17.2027 89.892 17.6337 89.8899 18.1581C89.8879 18.646 90.0485 19.0485 90.4124 19.3697C90.6888 19.6136 91.0324 19.7173 91.3759 19.821C91.8353 19.9612 92.3191 19.9836 92.7806 20.1076C92.9859 20.1625 93.1688 20.254 93.2095 20.4918C93.2359 20.6382 93.0855 20.8618 92.8822 20.9512C92.5082 21.1199 92.1219 21.1362 91.7276 21.0203C91.3169 20.8984 90.9551 20.6951 90.6543 20.3922C90.5587 20.2966 90.4998 20.2966 90.4042 20.3922C90.2131 20.5853 90.0058 20.7601 89.8106 20.9492C89.6988 21.0549 89.5139 21.1748 89.5159 21.2846C89.52 21.4005 89.7171 21.498 89.8371 21.5976C90.4672 22.1221 91.2051 22.3477 92.0061 22.4047C92.4736 22.4372 92.9351 22.3782 93.3782 22.2359L93.3843 22.2339Z" fill="#2E3224"/>
<path id="Vector_32" d="M117.333 8.97806C118.18 8.82357 118.796 8.2991 119.25 7.57746C119.311 7.47989 119.276 7.43516 119.187 7.39044C118.908 7.25018 118.626 7.11398 118.357 6.95746C118.069 6.78873 118.077 6.7806 117.922 7.06316C117.713 7.44533 117.382 7.64454 116.951 7.65877C116.552 7.67097 116.219 7.48598 116.026 7.15667C115.56 6.36794 115.556 5.54669 115.973 4.73357C116.194 4.30262 116.652 4.03023 117.184 4.19488C117.577 4.31685 117.845 4.58518 118.002 4.97344C118.382 4.74374 118.756 4.51606 119.134 4.29449C119.201 4.25383 119.246 4.22741 119.191 4.14406C118.979 3.83101 118.746 3.54032 118.428 3.32891C117.794 2.90812 117.105 2.76582 116.347 2.87153C115.412 3.00163 114.735 3.4773 114.316 4.30872C113.903 5.1259 113.859 6.00001 114.048 6.87614C114.395 8.50848 115.93 9.23623 117.335 8.97806H117.333Z" fill="#2E3224"/>
<path id="Vector_33" d="M95.407 34.2416C95.0126 34.0505 94.6406 33.8168 94.232 33.6419C94.2239 33.6623 94.2158 33.6806 94.2097 33.6968C94.047 34.1644 93.7096 34.4408 93.2299 34.4977C92.7908 34.5506 92.4554 34.3412 92.2175 33.9712C91.7337 33.2191 91.7642 32.2352 92.2135 31.4851C92.4594 31.0745 92.9249 30.8712 93.4372 31.0542C93.7564 31.168 93.9779 31.3794 94.1324 31.6762C94.1548 31.7209 94.1446 31.8409 94.2747 31.7596C94.6284 31.54 94.9923 31.3306 95.3562 31.1253C95.4212 31.0887 95.4354 31.0562 95.3989 30.9993C95.1305 30.5846 94.7992 30.2289 94.356 29.9992C93.7299 29.6739 93.0693 29.6068 92.3761 29.739C91.5508 29.8955 90.9531 30.3468 90.5567 31.0745C90.3392 31.475 90.2335 31.9059 90.1786 32.3633C90.0953 33.0423 90.1664 33.6968 90.4449 34.3046C90.9836 35.4755 92.1382 35.9776 93.3274 35.8435C94.2707 35.7357 94.976 35.2092 95.4558 34.388C95.5025 34.3087 95.4903 34.2762 95.4111 34.2375L95.407 34.2416Z" fill="#2E3224"/>
<path id="Vector_34" d="M132.849 17.5707C132.963 17.6743 133.239 17.6133 133.443 17.5991C133.628 17.5849 133.676 17.6418 133.676 17.8288C133.668 19.2437 133.674 20.6585 133.668 22.0713C133.668 22.2197 133.709 22.2522 133.857 22.2481C134.272 22.2359 134.687 22.2481 135.101 22.2542C135.272 22.2563 135.368 22.2359 135.362 22.0123C135.341 21.3232 135.354 20.6321 135.354 19.9429C135.354 19.2193 135.358 18.4936 135.349 17.7699C135.349 17.6357 135.384 17.593 135.518 17.6012C135.695 17.6134 135.874 17.6032 136.051 17.6032C136.459 17.6032 136.461 17.6032 136.459 17.1905C136.459 16.9791 136.533 16.6945 136.425 16.5787C136.303 16.4465 136.014 16.5421 135.797 16.538C135.311 16.5319 135.303 16.536 135.354 16.0583C135.374 15.8733 135.419 15.7066 135.671 15.6659C135.882 15.6314 136.089 15.6497 136.297 15.6375C136.376 15.6334 136.421 15.6273 136.421 15.5277C136.415 15.172 136.417 14.8162 136.421 14.4625C136.421 14.3527 136.37 14.3161 136.27 14.3222C136.224 14.3243 136.173 14.3304 136.128 14.3202C135.669 14.2206 135.209 14.2023 134.752 14.3263C134.286 14.4523 133.914 14.6983 133.768 15.1903C133.685 15.4728 133.711 15.7676 133.711 16.0583C133.711 16.3781 133.549 16.538 133.225 16.538C132.808 16.538 132.804 16.538 132.81 16.9649C132.813 17.1743 132.719 17.4528 132.851 17.5727L132.849 17.5707Z" fill="#2E3224"/>
<path id="Vector_35" d="M116.343 22.0754C116.339 21.7196 116.339 21.3639 116.343 21.0102C116.343 20.9106 116.312 20.8801 116.215 20.8842C116.044 20.8903 115.873 20.8882 115.702 20.8842C115.434 20.8801 115.355 20.7968 115.31 20.5325C115.288 20.3963 115.31 20.2621 115.306 20.13C115.28 19.3901 115.33 18.6501 115.284 17.9122C115.265 17.6154 115.292 17.6012 115.609 17.6012C115.835 17.6012 116.06 17.5951 116.286 17.6032C116.394 17.6073 116.426 17.5748 116.424 17.467C116.416 17.215 116.416 16.9609 116.424 16.7088C116.428 16.5726 116.375 16.5279 116.243 16.534C116.018 16.5421 115.79 16.5177 115.566 16.5401C115.343 16.5624 115.3 16.4771 115.308 16.2717C115.324 15.8144 115.308 15.357 115.316 14.8976C115.318 14.7695 115.292 14.7228 115.152 14.7248C114.7 14.7349 114.249 14.7329 113.798 14.7248C113.666 14.7228 113.625 14.7573 113.627 14.8935C113.635 15.3854 113.627 15.8774 113.633 16.3693C113.635 16.5055 113.594 16.5462 113.462 16.536C113.3 16.5238 113.133 16.5441 112.97 16.5299C112.828 16.5177 112.802 16.5746 112.806 16.7027C112.816 16.9487 112.814 17.1946 112.806 17.4406C112.802 17.5605 112.824 17.6134 112.96 17.6032C113.131 17.591 113.302 17.6073 113.472 17.5971C113.596 17.589 113.635 17.6236 113.633 17.7537C113.625 18.272 113.629 18.7924 113.629 19.3128C113.629 19.7499 113.637 20.189 113.625 20.626C113.619 20.8374 113.633 21.0529 113.68 21.2501C113.838 21.9351 114.253 22.2096 114.932 22.2746C115.353 22.3153 115.774 22.2929 116.194 22.24C116.312 22.2258 116.343 22.1791 116.343 22.0734V22.0754Z" fill="#2E3224"/>
<path id="Vector_36" d="M103.036 17.5991C103.172 17.5869 103.182 17.6804 103.18 17.7536C103.18 18.2598 103.16 18.7639 103.162 19.2701C103.166 19.8759 103.178 20.4816 103.205 21.0874C103.215 21.3415 103.308 21.5793 103.465 21.7847C103.725 22.1302 104.093 22.2522 104.506 22.2807C104.912 22.3071 105.319 22.2929 105.723 22.2441C105.841 22.2298 105.874 22.1831 105.872 22.0774C105.868 21.8721 105.872 21.6668 105.872 21.4635C105.872 21.2805 105.937 21.0345 105.843 20.9288C105.736 20.8048 105.486 20.8943 105.297 20.8902C104.983 20.8821 104.847 20.75 104.845 20.4328C104.845 19.9958 104.845 19.5587 104.845 19.1217C104.845 18.6846 104.855 18.2476 104.841 17.8105C104.835 17.6316 104.894 17.5951 105.057 17.6052C105.309 17.6194 105.563 17.6052 105.815 17.6113C105.917 17.6133 105.959 17.593 105.957 17.4792C105.949 17.2129 105.949 16.9466 105.957 16.6803C105.959 16.5746 105.933 16.538 105.821 16.5421C105.549 16.5502 105.274 16.538 105 16.5482C104.872 16.5522 104.839 16.5177 104.841 16.3896C104.849 15.8916 104.845 15.3915 104.841 14.8935C104.841 14.8284 104.88 14.7369 104.748 14.739C104.248 14.743 103.75 14.739 103.25 14.739C103.199 14.739 103.158 14.739 103.158 14.8122C103.164 15.2919 103.16 15.7737 103.176 16.2534C103.186 16.5461 103.199 16.5441 102.896 16.5441C102.751 16.5441 102.609 16.5482 102.465 16.5441C102.371 16.54 102.331 16.5624 102.335 16.6661C102.341 16.9385 102.343 17.2129 102.335 17.4853C102.331 17.6052 102.384 17.6174 102.481 17.6133C102.666 17.6073 102.851 17.6235 103.034 17.6073L103.036 17.5991Z" fill="#2E3224"/>
<path id="Vector_37" d="M95.4314 17.6052C95.6164 17.5991 95.8014 17.6133 95.9863 17.6011C96.1185 17.593 96.1449 17.6377 96.1429 17.7617C96.1368 18.2882 96.1408 18.8147 96.1408 19.3412C96.1408 19.8677 96.1327 20.3942 96.1449 20.9207C96.151 21.1849 96.1977 21.4492 96.3441 21.683C96.6063 22.1017 97.0088 22.2583 97.4804 22.2827C97.887 22.305 98.2936 22.2949 98.7001 22.244C98.814 22.2298 98.8567 22.1932 98.8546 22.0814C98.8506 21.8842 98.8587 21.685 98.8526 21.4858C98.8465 21.2907 98.938 21.0305 98.816 20.9166C98.7103 20.819 98.4521 20.8841 98.2631 20.8861C97.8667 20.8902 97.7976 20.7011 97.7935 20.4267C97.7772 19.5323 97.7894 18.6358 97.7854 17.7394C97.7854 17.6357 97.8098 17.5971 97.9195 17.6011C98.2001 17.6093 98.4806 17.5991 98.7611 17.6052C98.8709 17.6072 98.8993 17.5727 98.8973 17.467C98.8912 17.2007 98.8892 16.9344 98.8973 16.6681C98.9014 16.5542 98.8587 16.5319 98.757 16.5339C98.5111 16.54 98.2631 16.5278 98.0191 16.54C97.8728 16.5481 97.8199 16.5156 97.824 16.355C97.8362 15.8631 97.824 15.3711 97.8301 14.8792C97.8301 14.7654 97.8016 14.7288 97.6837 14.7308C97.2243 14.7369 96.7669 14.7389 96.3075 14.7308C96.1713 14.7288 96.1388 14.7694 96.1408 14.9016C96.149 15.3874 96.1368 15.8732 96.149 16.357C96.153 16.5197 96.1002 16.5522 95.9538 16.542C95.7831 16.5298 95.6123 16.542 95.4415 16.538C95.3562 16.5359 95.3196 16.5563 95.3216 16.6498C95.3277 16.9303 95.3257 17.2108 95.3216 17.4913C95.3216 17.5808 95.346 17.6113 95.4375 17.6093L95.4314 17.6052Z" fill="#2E3224"/>
<path id="Vector_38" d="M80.2057 19.2864C80.2057 20.2154 80.2078 21.1464 80.2037 22.0754C80.2037 22.2218 80.2464 22.2523 80.3948 22.2482C80.8644 22.236 81.3339 22.2441 81.8015 22.2563C82.1349 22.2644 82.1349 22.2746 82.1349 21.9514V18.3432C82.1349 17.0727 82.1349 15.8001 82.1369 14.5296C82.1369 14.3975 82.1064 14.3569 81.9702 14.3589C81.4437 14.367 80.9172 14.3691 80.3907 14.3589C80.2342 14.3548 80.2017 14.3995 80.2017 14.55C80.2078 16.1295 80.2057 17.7069 80.2057 19.2864Z" fill="#2E3224"/>
<path id="Vector_39" d="M117.451 31.7556C117.451 30.4851 117.451 29.2146 117.453 27.942C117.453 27.8099 117.422 27.7692 117.286 27.7713C116.829 27.7794 116.369 27.7794 115.912 27.7713C115.794 27.7713 115.765 27.8058 115.765 27.9197C115.769 30.4607 115.769 33.0037 115.765 35.5447C115.765 35.6585 115.794 35.6951 115.912 35.6931C116.363 35.687 116.814 35.6829 117.266 35.6931C117.42 35.6972 117.455 35.6545 117.455 35.502C117.449 34.2518 117.451 33.0017 117.451 31.7515V31.7556Z" fill="#2E3224"/>
<path id="Vector_40" d="M101.329 16.412C100.877 16.4181 100.426 16.4242 99.9747 16.4099C99.81 16.4059 99.7897 16.4628 99.7918 16.6071C99.7979 17.5097 99.7958 18.4102 99.7958 19.3128C99.7958 20.2153 99.7999 21.1586 99.7918 22.0794C99.7918 22.2116 99.8385 22.2603 99.9523 22.2603C100.414 22.2583 100.877 22.242 101.339 22.2522C101.469 22.2542 101.481 22.2116 101.481 22.1119C101.481 20.2601 101.481 18.4082 101.481 16.5563C101.481 16.4343 101.44 16.412 101.329 16.412Z" fill="#2E3224"/>
<path id="Vector_41" d="M101.335 14.3609C101.103 14.367 100.871 14.3609 100.637 14.3609C100.397 14.3609 100.16 14.365 99.9197 14.3609C99.8242 14.3589 99.7876 14.3812 99.7896 14.4849C99.7957 14.8406 99.7957 15.1943 99.7896 15.5501C99.7896 15.6456 99.812 15.6802 99.9136 15.6782C100.391 15.6741 100.869 15.6741 101.349 15.6782C101.442 15.6782 101.481 15.6578 101.479 15.5542C101.473 15.1984 101.471 14.8447 101.479 14.489C101.481 14.369 101.43 14.3589 101.335 14.3609Z" fill="#2E3224"/>
</g>
</svg>
