<svg width="142" height="40" viewBox="0 0 142 40" fill="none" xmlns="http://www.w3.org/2000/svg">
<path id="Union" fill-rule="evenodd" clip-rule="evenodd" d="M36.1382 16.1845C36.6191 14.6207 36.685 13.0323 36.3527 11.4337C35.267 6.21197 30.1781 2.8119 24.8899 3.77448C24.6708 3.81419 24.5514 3.76218 24.4084 3.61228C23.0777 2.21623 21.4734 1.28162 19.5858 0.845912C19.2309 0.763923 18.87 0.707652 18.5091 0.651394C18.3432 0.625523 18.1772 0.599655 18.0119 0.571289H16.4915C16.3286 0.599967 16.1647 0.625171 16.0008 0.650377C15.6469 0.704811 15.293 0.759253 14.9485 0.848709C11.5585 1.72851 9.22778 3.7963 7.97934 7.0515C7.89656 7.2674 7.78957 7.36416 7.55869 7.41842C3.70075 8.3245 0.741555 11.5132 0.15422 15.4267C-0.289519 18.3843 0.474636 21.0187 2.41121 23.3113C2.52777 23.4495 2.55311 23.563 2.50131 23.7359C0.820391 29.3061 4.35454 35.0827 10.1186 36.1851C11.3479 36.42 12.58 36.4094 13.8121 36.184C13.9158 36.1649 14.0746 36.2108 14.1455 36.2852C15.7746 37.9944 17.7624 39.0001 20.1078 39.315C20.218 39.3299 20.3276 39.3467 20.4372 39.3636L20.4378 39.3637C20.4928 39.3722 20.5478 39.3806 20.6028 39.3888H22.1232C22.1759 39.3806 22.2286 39.3723 22.2812 39.3639L22.2827 39.3637C22.3665 39.3504 22.4503 39.3372 22.5343 39.3245C26.4942 38.7255 29.2129 36.5811 30.6675 32.8706C30.7401 32.6854 30.8223 32.5926 31.0256 32.5473C32.1614 32.2928 33.219 31.8442 34.1847 31.1988C39.1323 27.891 40.0766 21.1854 36.2322 16.6594C36.0999 16.5039 36.0802 16.3758 36.1387 16.1851L36.1382 16.1845ZM24.5238 6.46199C28.7838 5.16214 33.2775 7.98947 33.902 12.3655C34.0085 13.1094 34.0096 13.8494 33.8778 14.6285C33.8509 14.6157 33.8252 14.604 33.8005 14.5927L33.8003 14.5927C33.7479 14.5687 33.7002 14.547 33.6554 14.5211C33.0127 14.1529 32.3698 13.7851 31.7269 13.4173C29.8359 12.3355 27.945 11.2538 26.0606 10.1602C25.4766 9.82179 24.9563 9.83241 24.3757 10.1691C22.0818 11.4965 19.7817 12.8131 17.4816 14.1296L17.4814 14.1297C16.777 14.5329 16.0727 14.936 15.3686 15.3394C15.3182 15.3682 15.2666 15.3952 15.2042 15.4278L15.2041 15.4279L15.2041 15.4279C15.1683 15.4466 15.1289 15.4672 15.0842 15.491C15.0842 15.2311 15.084 14.9733 15.0838 14.7173V14.7172V14.7171V14.7169V14.7168V14.7167C15.083 13.7296 15.0822 12.7682 15.0938 11.8068C15.0949 11.7134 15.2166 11.5892 15.314 11.5333C16.9984 10.5623 18.6854 9.59609 20.3725 8.62984C20.9021 8.32658 21.4316 8.02331 21.9611 7.71989C22.0555 7.66574 22.1497 7.61123 22.2439 7.55673C22.9749 7.13389 23.7048 6.7117 24.5244 6.46199H24.5238ZM23.5468 22.181C23.5491 22.3538 23.4894 22.445 23.3407 22.5294C22.063 23.2543 20.7886 23.9847 19.5177 24.7214C19.3673 24.8086 19.2564 24.8025 19.1094 24.718C18.5784 24.4106 18.0462 24.1051 17.5141 23.7995L17.5138 23.7993L17.5134 23.7991L17.5131 23.799L17.5128 23.7988L17.5125 23.7986C16.7631 23.3683 16.0137 22.938 15.2672 22.5026C15.1783 22.4505 15.091 22.309 15.0904 22.2089C15.0792 20.7273 15.0792 19.2451 15.0904 17.7635C15.091 17.6606 15.1698 17.514 15.2565 17.4631C16.5495 16.7086 17.8492 15.9647 19.1528 15.2287C19.2367 15.1817 19.3932 15.1789 19.476 15.2253C20.7796 15.9614 22.0788 16.7053 23.3717 17.4603C23.4584 17.5112 23.5344 17.6589 23.5361 17.7629C23.5467 18.3259 23.5455 18.8888 23.5442 19.4518C23.5438 19.6344 23.5434 19.817 23.5434 19.9996C23.5434 20.1953 23.543 20.3909 23.5426 20.5864L23.5426 20.5891V20.5892V20.5892V20.5893V20.5893V20.5894C23.5415 21.1197 23.5404 21.6499 23.5474 22.1804L23.5468 22.181ZM9.96378 10.0321C10.0268 6.62978 12.7743 3.65759 16.1823 3.1928C18.2563 2.90978 20.123 3.40142 21.7871 4.661L21.7942 4.66634C21.8217 4.68695 21.8495 4.70775 21.8749 4.73091C21.8836 4.73881 21.8902 4.74878 21.9002 4.76392C21.9058 4.77238 21.9124 4.78245 21.9211 4.79467C21.9043 4.8059 21.8877 4.81737 21.871 4.82884L21.871 4.82885L21.871 4.82886L21.8709 4.82892C21.8312 4.85628 21.7915 4.88363 21.7499 4.90765C21.1334 5.26137 20.5172 5.61542 19.9009 5.96945L19.9001 5.96992L19.9 5.97C17.9695 7.07913 16.0392 8.18813 14.1027 9.28652C13.5345 9.60869 13.2868 10.0545 13.2884 10.6971C13.2953 13.2914 13.293 15.8858 13.2908 18.4803V18.4805V18.4807V18.4808V18.481V18.4812L13.2908 18.4889C13.2901 19.3204 13.2894 20.1519 13.289 20.9835V21.3649C13.2459 21.342 13.208 21.3222 13.1738 21.3043L13.1736 21.3042L13.1735 21.3042C13.1042 21.268 13.0498 21.2395 12.9967 21.2089C12.7114 21.0455 12.4262 20.8821 12.141 20.7186L12.1403 20.7182C11.4842 20.3422 10.8283 19.9662 10.171 19.5925C10.0336 19.5141 9.93844 19.4403 9.939 19.2552C9.94205 18.2149 9.9393 17.1745 9.93654 16.1341C9.93116 14.0996 9.92577 12.0651 9.96378 10.0315V10.0321ZM2.62238 16.6152C2.76147 13.6268 4.31906 11.5008 7.06146 10.2452C7.12699 10.215 7.195 10.1906 7.26266 10.1663L7.26266 10.1663L7.26267 10.1663L7.26268 10.1663L7.29684 10.154C7.3067 10.1505 7.31833 10.1521 7.33696 10.1545H7.33697C7.34812 10.156 7.36177 10.1578 7.37906 10.1591V10.4275C7.37906 11.181 7.37952 11.9346 7.37998 12.6881V12.6882V12.6882V12.6883V12.6883V12.6884C7.38128 14.8238 7.38258 16.9594 7.37342 19.0947C7.37061 19.7519 7.63302 20.1965 8.20797 20.5237C10.4453 21.7951 12.6776 23.076 14.9098 24.3569L14.9104 24.3572L14.9112 24.3577C15.6816 24.7997 16.4519 25.2418 17.2224 25.6834C17.281 25.717 17.3382 25.7524 17.4034 25.7927C17.4347 25.812 17.4679 25.8326 17.504 25.8545C17.4794 25.8711 17.4583 25.8858 17.4393 25.8991L17.4393 25.8991C17.4037 25.9239 17.3754 25.9437 17.3457 25.9608C17.0736 26.1169 16.8012 26.2727 16.5288 26.4285L16.5265 26.4299L16.5258 26.4302C15.8084 26.8407 15.0908 27.2512 14.3764 27.6667C14.2272 27.7534 14.1168 27.7523 13.967 27.6662C13.0965 27.1647 12.2235 26.6672 11.3506 26.1697L11.3498 26.1692L11.3487 26.1686L11.3485 26.1685L11.3484 26.1684L11.3482 26.1683L11.3481 26.1683C9.64472 25.1975 7.94132 24.2267 6.25563 23.2263C3.75594 21.743 2.48779 19.4946 2.62181 16.6158L2.62238 16.6152ZM4.74253 27.7428C4.60118 26.9513 4.60907 26.1543 4.74928 25.3221C4.78304 25.3394 4.81428 25.355 4.84368 25.3697C4.90647 25.4012 4.96084 25.4284 5.01339 25.4585C5.63263 25.8134 6.25221 26.1676 6.87179 26.5219C8.74539 27.593 10.6189 28.6642 12.4826 29.7524C13.1206 30.1249 13.6759 30.1311 14.3184 29.758C16.4939 28.4926 18.6787 27.2428 20.8634 25.993L20.8641 25.9926L20.8674 25.9907C21.6451 25.5458 22.4227 25.1009 23.1999 24.6554C23.266 24.6175 23.3328 24.5811 23.4131 24.5373L23.5305 24.473C23.5327 24.5088 23.5349 24.5388 23.5368 24.5651C23.5403 24.613 23.5429 24.6485 23.5429 24.6839C23.543 24.9093 23.5433 25.1348 23.5436 25.3602V25.3603V25.3603V25.3604V25.3605V25.3605C23.5447 26.2624 23.5459 27.1641 23.5355 28.0661C23.5344 28.1796 23.4567 28.3435 23.3632 28.3972C22.691 28.7853 22.02 29.1759 21.349 29.5664C19.4084 30.6958 17.4675 31.8254 15.4959 32.8985C11.041 35.3232 5.62944 32.7078 4.74196 27.7439L4.74253 27.7428ZM28.6616 29.7451C28.5828 33.2761 26.1343 36.09 22.6379 36.7282C20.4846 37.1208 18.5266 36.6001 16.7961 35.2605C16.7784 35.2467 16.7623 35.2309 16.7402 35.2092L16.7168 35.1863L16.6994 35.1696L16.6903 35.161C18.0175 34.3992 19.3161 33.6542 20.6146 32.9092C20.9899 32.6939 21.3647 32.4777 21.7394 32.2615C22.6618 31.7294 23.5842 31.1972 24.5148 30.6797C25.0965 30.3565 25.3398 29.9012 25.337 29.2451C25.3273 26.6836 25.3286 24.1221 25.3299 21.5606C25.3303 20.6823 25.3308 19.804 25.3308 18.9257V18.5795L25.6965 18.7877L25.6973 18.7881L25.698 18.7886C25.9957 18.958 26.2781 19.1186 26.5601 19.2798C26.7059 19.3634 26.852 19.4466 26.998 19.5299L26.998 19.5299L26.9981 19.5299L26.9981 19.5299L26.9982 19.53L26.9982 19.53L26.9983 19.5301L26.9984 19.5301L26.9985 19.5302C27.4946 19.813 27.9909 20.096 28.4797 20.3906C28.5772 20.4493 28.674 20.6026 28.674 20.7122C28.676 21.4758 28.6805 22.2394 28.685 23.0031V23.0032V23.0033V23.0034V23.0035V23.0036C28.6983 25.2509 28.7115 27.4983 28.6611 29.7446L28.6616 29.7451ZM31.4519 29.7625C31.4133 29.7771 31.3735 29.7881 31.3264 29.8011C31.3013 29.8081 31.2742 29.8156 31.2441 29.8245V29.4733C31.2441 28.719 31.2437 27.9648 31.2433 27.2105V27.2104V27.2104V27.2103V27.2103V27.2102C31.2421 25.0845 31.2409 22.9586 31.2492 20.833C31.2514 20.1976 30.9969 19.7653 30.4405 19.4487C28.1539 18.1476 25.8725 16.8376 23.591 15.5275L23.5889 15.5263L23.5884 15.526L23.5868 15.5251L23.5852 15.5242L23.5836 15.5232L23.582 15.5223C22.8556 15.1052 22.1291 14.688 21.4024 14.2711C21.3472 14.2394 21.2926 14.206 21.2288 14.1669L21.2287 14.1668L21.2286 14.1667C21.1936 14.1453 21.1558 14.1221 21.1136 14.0966C21.9397 13.6218 22.7247 13.171 23.5102 12.7202C23.5275 12.7102 23.546 12.7015 23.5645 12.6929C23.5976 12.6774 23.6308 12.6618 23.6572 12.6385C24.2034 12.153 24.6871 12.2716 25.2919 12.6335C27.5399 13.9786 29.8211 15.2695 32.104 16.5559C34.2275 17.7523 35.5311 19.5108 35.9501 21.9075C36.516 25.1442 34.5423 28.5935 31.4519 29.7625ZM138.133 8.78261V29.6715C138.156 29.6733 138.177 29.6755 138.197 29.6774C138.23 29.6809 138.259 29.6838 138.288 29.6838C139.407 29.6844 140.527 29.6849 141.646 29.6832C141.697 29.6832 141.747 29.6726 141.797 29.662C141.82 29.6572 141.842 29.6524 141.865 29.6486V8.78261H138.133ZM53.5516 8.32605C56.5801 8.0729 59.2149 8.98426 61.3265 11.216H61.3271C62.766 12.736 63.5856 14.5796 63.9428 16.6256C64.041 17.1887 64.0959 17.7593 64.1509 18.33C64.1758 18.5889 64.2007 18.8477 64.2296 19.106C64.1571 21.3534 63.7189 23.4946 62.523 25.4174C60.6358 28.4513 57.8632 29.9461 54.3054 29.9331C49.9549 29.9174 46.4365 27.2525 45.1776 22.9854C44.2258 19.7597 44.3513 16.5581 45.8734 13.5208C47.4467 10.3811 50.0365 8.62028 53.5516 8.32605ZM54.3959 26.6252C56.7427 26.6247 58.4122 25.4759 59.481 23.4282C60.1852 22.0786 60.422 20.6159 60.4198 19.1065C60.4215 17.6073 60.1717 16.1609 59.4928 14.8096C58.3104 12.4575 56.0626 11.2649 53.4633 11.6626C51.544 11.9563 50.1934 13.0696 49.3142 14.7697C48.457 16.4276 48.2669 18.2115 48.3962 20.0426C48.48 21.2297 48.7456 22.3773 49.3047 23.4366C50.383 25.4804 52.0508 26.6252 54.3959 26.6252ZM128.02 8.98897C127.959 8.82854 127.877 8.78605 127.714 8.78661H127.714C126.476 8.79276 125.238 8.79891 124 8.7827C123.746 8.77934 123.651 8.86878 123.567 9.09127C121.942 13.3649 120.312 17.6368 118.682 21.9086L118.676 21.9253L117.331 25.4504C116.948 26.4545 116.566 27.4585 116.182 28.4678L115.738 29.6368C115.757 29.6456 115.771 29.6531 115.782 29.6589C115.799 29.668 115.809 29.6731 115.819 29.6731C116.19 29.674 116.56 29.6744 116.931 29.6748C117.714 29.6756 118.496 29.6764 119.279 29.6821C119.443 29.6831 119.477 29.5873 119.514 29.481C119.519 29.4675 119.524 29.4537 119.529 29.44C119.68 29.0371 119.832 28.6344 119.983 28.2316C120.366 27.2146 120.749 26.1974 121.122 25.1771C121.205 24.9513 121.316 24.8948 121.543 24.8954C123.821 24.9012 126.098 24.9009 128.376 24.9006L129.983 24.9004H130.301C130.315 24.9339 130.329 24.9664 130.342 24.9984C130.37 25.0635 130.397 25.1262 130.421 25.19L130.748 26.0474L130.749 26.0497C131.18 27.1807 131.612 28.3118 132.036 29.4451C132.102 29.62 132.184 29.686 132.378 29.6843C133.139 29.6773 133.901 29.6779 134.662 29.6785C134.989 29.6788 135.315 29.6791 135.641 29.6787C135.695 29.6787 135.748 29.6729 135.806 29.6664C135.834 29.6634 135.863 29.6602 135.893 29.6575L135.871 29.5932C135.858 29.5546 135.848 29.5256 135.837 29.4971L134.494 25.9755L134.486 25.9561L134.48 25.9394L134.474 25.9255C132.322 20.2806 130.169 14.6358 128.02 8.98953L128.02 8.98897ZM122.464 21.6364L124.001 17.5465C124.577 16.0124 125.155 14.4735 125.741 12.9165L127.483 17.4697L129.077 21.6364H122.464ZM70.5712 15.8018C71.8933 14.374 73.5608 13.8746 75.4434 14.0377V14.0371C78.0401 14.2621 79.828 15.6719 80.8061 18.0382C82.0061 20.9422 81.9506 23.8709 80.4608 26.6635C78.489 30.3587 74.383 30.5578 72.0744 29.3375C71.6742 29.1262 71.3105 28.8458 70.9513 28.569C70.7867 28.4422 70.6231 28.316 70.4574 28.1976V34.9098H66.9667V14.3155H70.435V15.8968C70.4504 15.8861 70.4644 15.877 70.4769 15.8689C70.4861 15.863 70.4945 15.8577 70.5023 15.8528C70.5335 15.8331 70.5546 15.8198 70.5712 15.8018ZM73.9621 26.9087C75.6026 27.0223 76.9875 26.1788 77.5968 24.5986C78.2693 22.8531 78.2699 21.0732 77.5693 19.3339C76.9472 17.7897 75.6659 17.0288 73.9492 17.0901C72.4112 17.1452 71.1966 18.0748 70.6687 19.5909C70.3957 20.3742 70.3509 21.184 70.3632 22.0022L70.2948 22.0107C70.3226 22.2238 70.3444 22.4384 70.3662 22.6529L70.3662 22.6532C70.4145 23.128 70.4627 23.6026 70.5751 24.0616C70.9943 25.7745 72.238 26.789 73.9621 26.9087ZM97.6648 20.2087C97.4868 18.7233 96.9717 17.3603 95.9995 16.2083C94.8481 14.8447 93.3541 14.1765 91.6096 14.0354C88.8328 13.81 86.1823 14.9756 84.7265 17.6551C83.6341 19.6664 83.4195 21.8239 83.8385 24.0527C84.2081 26.0173 85.1281 27.6587 86.7575 28.8385C88.2633 29.9289 89.969 30.2966 91.7848 30.152C93.6821 30.0006 95.3036 29.2448 96.5516 27.7526C97.0307 27.1795 97.4053 26.5426 97.6783 25.8244L96.6236 25.4203L94.7279 24.6941C94.6607 24.8155 94.5986 24.9368 94.5376 25.0561L94.5373 25.0566L94.5373 25.0566C94.4073 25.3107 94.282 25.5558 94.1208 25.7737C92.8565 27.4862 89.978 27.6513 88.4149 26.1118C87.5247 25.2353 87.1529 24.1261 87.0153 22.8723H97.8221C97.806 22.5818 97.7948 22.2962 97.7836 22.0145L97.7836 22.0135V22.0134C97.7593 21.3981 97.7357 20.8009 97.6648 20.2093V20.2087ZM87.2208 20.1848C87.546 18.5651 88.8041 16.9283 91.062 17.0051C92.5055 17.0541 93.549 17.7137 93.991 18.9276C94.0879 19.1943 94.143 19.4765 94.2002 19.7691C94.2268 19.9056 94.2539 20.0444 94.2859 20.1848H87.2208ZM113.179 18.4961C113.232 18.8751 113.246 19.2626 113.247 19.6461L113.246 19.6466C113.25 22.128 113.25 24.6093 113.249 27.0907C113.249 27.8559 113.249 28.6212 113.249 29.3865V29.6821H109.731V29.3454C109.731 28.6057 109.731 27.8661 109.732 27.1264C109.734 24.9945 109.736 22.8628 109.722 20.7313C109.719 20.2019 109.664 19.6573 109.528 19.1477C109.185 17.862 108.197 17.2042 106.864 17.3022C105.061 17.4345 103.826 18.7619 103.819 20.6124C103.81 22.6898 103.812 24.7674 103.814 26.8449C103.814 27.6763 103.815 28.5078 103.815 29.3392V29.6844H100.31V14.3225H103.806V15.8633C103.832 15.8813 103.858 15.8994 103.884 15.9174C103.907 15.889 103.929 15.8599 103.95 15.8309C103.999 15.7668 104.047 15.7028 104.102 15.6454C106.133 13.5369 109.46 13.6439 111.219 14.9527C112.408 15.838 112.98 17.0679 113.179 18.4961Z" fill="#2E3224"/>
</svg>
