<svg width="140" height="32" viewBox="0 0 140 32" fill="none" xmlns="http://www.w3.org/2000/svg">
<g id="Layer_1" clip-path="url(#clip0_1807_1150)">
<path id="Vector" d="M29.6462 7.4445C27.0691 5.63237 24.2124 5.3804 21.2017 6.46077C20.4045 6.74726 19.4849 8.41442 18.5757 6.49874C18.5198 6.38138 18.0267 6.45387 17.7365 6.45387C16.9218 6.45042 16.0966 6.53671 15.2993 6.43316C13.8727 6.25022 13.4566 6.7231 13.4671 8.1659C13.5265 16.1117 13.4671 24.0609 13.4496 32.0101H19.0268V23.8123C21.3731 25.5037 23.6284 26.2078 26.174 25.697C30.0029 24.9307 32.9471 22.0589 33.6569 18.2862C34.4786 13.9233 33.4681 10.1334 29.6462 7.4445ZM23.6914 20.4746C20.9884 20.4746 19.0268 18.5244 19.0303 15.8459C19.0338 13.1777 21.0129 11.2206 23.7053 11.2275C26.3838 11.2344 28.3839 13.2192 28.3804 15.8666C28.3769 18.5313 26.3978 20.478 23.6914 20.478V20.4746Z" fill="#2E3224"/>
<path id="Vector_2" d="M3.80226 10.8617C2.00147 11.4381 1.14129 12.8912 0.200684 14.2926V17.6994C0.788125 17.9514 0.879039 18.5796 1.21822 19.018C2.90711 21.1891 5.98769 21.8069 8.36892 20.4159C10.7502 19.0249 11.6803 16.084 10.5194 13.6161C9.37247 11.1792 6.45624 10.016 3.80576 10.8617H3.80226Z" fill="#888F77"/>
<path id="Vector_3" d="M69.9349 10.0781C69.9349 6.4297 69.9349 6.41589 66.12 6.46766C65.5955 6.47457 64.7668 6.11214 64.592 6.81974C64.3367 7.86904 63.9451 7.42033 63.4346 7.11313C61.6408 6.0362 59.7001 5.58058 57.6056 5.94991C52.8676 6.78177 49.7871 10.3094 49.5738 15.4765C49.4094 19.4356 50.927 22.7596 54.588 24.7374C57.8084 26.4736 61.0464 26.301 64.3542 23.8296C64.1969 24.9859 64.585 25.3587 65.5501 25.2758C66.5291 25.1896 67.5292 25.1861 68.5083 25.2758C69.6482 25.3828 69.9699 24.9963 69.9559 23.8779C69.8895 19.2803 69.9279 14.6792 69.9279 10.0816L69.9349 10.0781ZM59.7246 20.4746C56.9937 20.4504 55.095 18.5002 55.13 15.763C55.1649 13.0811 57.1825 11.1688 59.9169 11.2275C62.5499 11.2828 64.4032 13.195 64.4067 15.8666C64.4067 18.5899 62.4695 20.4987 59.7281 20.478L59.7246 20.4746Z" fill="#2E3224"/>
<path id="Vector_4" d="M116.413 5.82565C110.741 5.84291 106.129 10.4129 106.188 15.9563C106.251 21.4238 110.877 25.8902 116.458 25.873C122.039 25.8557 126.665 21.3616 126.707 15.9114C126.749 10.4095 122.056 5.81185 116.413 5.82565ZM116.364 20.4746C113.668 20.4539 111.748 18.4933 111.773 15.7906C111.797 13.1156 113.787 11.1965 116.504 11.2275C119.168 11.2551 121.175 13.2985 121.123 15.9253C121.067 18.6107 119.091 20.4987 116.364 20.478V20.4746Z" fill="#2E3224"/>
<path id="Vector_5" d="M89.1142 19.7946C88.9218 19.6669 88.726 19.5426 88.5512 19.3976C87.5616 18.5761 86.8273 18.1516 85.593 19.4045C83.9251 21.0959 80.9214 20.8128 79.292 19.1974C77.6136 17.5337 77.4912 14.6343 79.0192 12.8118C80.4669 11.0895 83.3691 10.4716 85.107 11.9903C86.6455 13.3365 87.5861 12.9396 88.7715 11.8419C89.0617 11.5727 89.4009 11.3242 89.7575 11.1516C91.2751 10.4302 90.859 9.69843 89.9079 8.76993C86.677 5.622 81.6068 4.92477 77.5541 7.14419C73.5085 9.35672 71.5329 14.0372 72.7462 18.5209C73.9001 22.7803 78.1171 25.8937 82.2851 25.8661C85.1454 25.8039 87.3483 25.0549 89.233 23.4879C90.8368 22.1555 90.7984 20.9221 89.1176 19.7877L89.1142 19.7946Z" fill="#2E3224"/>
<path id="Vector_6" d="M101.485 6.39518C99.5483 6.39518 98.5797 5.43792 98.5797 3.52339C98.5797 1.80215 97.7009 0.941534 95.9432 0.941534C95.4222 0.941534 94.8942 0.986406 94.3767 0.931179C93.4011 0.824177 93.0725 1.1797 93.0795 2.15998C93.1214 8.00366 93.0795 13.8473 93.1144 19.6945C93.1284 21.8967 94.0515 23.6743 96.1565 24.658C97.7021 25.3794 99.3735 25.6107 101.076 25.4036C105.772 24.8375 104.692 25.6314 104.874 21.2995C104.923 20.1467 104.584 20.1087 103.493 20.2675C98.3315 21.0061 98.4434 20.05 98.5797 16.3222C98.5867 16.1531 98.5727 15.9805 98.5797 15.8114C98.6567 14.3478 97.9608 12.4667 98.8385 11.5382C99.7371 10.589 101.688 11.3345 103.174 11.2275C103.349 11.2137 103.524 11.2068 103.695 11.2275C104.643 11.3552 104.989 11.0342 105.01 10.0332C105.087 6.38828 105.129 6.39173 101.482 6.39173L101.485 6.39518Z" fill="#2E3224"/>
<path id="Vector_7" d="M47.1751 6.26747C45.182 6.13285 43.4441 6.7438 41.6678 8.30741C42.1259 6.42279 41.1748 6.35376 40.0314 6.44005C39.2831 6.49528 38.5173 6.52289 37.7725 6.43315C36.6745 6.30199 36.4193 6.71273 36.4333 7.74824C36.4927 12.2803 36.4578 16.8158 36.4578 21.3478C36.4578 25.3173 36.4577 25.262 40.5069 25.2862C41.7797 25.2931 42.0454 24.8755 42.014 23.7329C41.937 21.0717 41.937 18.4036 42.0245 15.7458C42.1154 13.012 43.6644 11.6348 46.4687 11.6314C47.0387 11.6314 47.6087 11.6935 48.322 11.7384C48.322 10.2576 48.2695 8.79064 48.343 7.32713C48.3884 6.42279 47.8849 6.31924 47.1856 6.27092L47.1751 6.26747Z" fill="#2E3224"/>
<path id="Vector_8" d="M134.326 10.5441C131.347 10.4958 128.878 12.8567 128.85 15.7768C128.823 18.804 131.092 21.0821 134.155 21.1062C137.246 21.1304 139.631 18.8937 139.659 15.946C139.687 13.0258 137.284 10.5924 134.326 10.5475V10.5441Z" fill="#888F77"/>
</g>
<defs>
<clipPath id="clip0_1807_1150">
<rect width="139.461" height="31.0961" fill="white" transform="translate(0.200684 0.913925)"/>
</clipPath>
</defs>
</svg>
