<svg width="84" height="45" viewBox="0 0 84 45" fill="none" xmlns="http://www.w3.org/2000/svg">
<g id="Group 2393">
<path id="Vector" d="M83.0526 0.917059H82.9492C69.3387 0.917059 55.7283 0.917059 42.1147 0.917059C28.4542 0.917059 14.7905 0.917059 1.1299 0.917059C0.636837 0.917059 0.389261 1.16568 0.387171 1.66292C0.387171 10.3124 0.387171 18.9619 0.387171 27.6114C0.387171 28.5359 0.199139 28.5265 1.28659 28.5265C28.5607 28.5265 55.8349 28.5265 83.1059 28.5265C83.5864 28.5265 83.8266 28.2779 83.8266 27.7807C83.8266 19.081 83.8266 10.3814 83.8266 1.67859C83.8266 1.16881 83.5665 0.913925 83.0463 0.913925L83.0526 0.917059ZM78.9566 15.101C76.0515 17.9747 73.1621 20.8642 70.257 23.7379C70.1128 23.879 69.8778 24.0106 69.6835 24.0106C68.1134 24.0325 66.5464 24.0263 64.9764 24.02C64.8824 24.02 64.7852 23.9761 64.5439 23.9166C66.9068 21.5944 69.1977 19.3474 71.5951 16.9907C71.2786 16.9594 71.1219 16.9312 70.9621 16.9312C68.4706 16.9312 65.9823 16.9437 63.4909 16.9249C63.002 16.9218 62.8422 17.0691 62.8485 17.5642C62.8735 19.4915 62.8453 21.4189 62.8704 23.3462C62.8767 23.8445 62.7544 24.0482 62.2186 24.0325C61.1624 23.9949 60.1032 24.0106 59.0471 24.0325C58.6271 24.0388 58.4767 23.8884 58.4798 23.4653C58.4955 21.5223 58.4861 19.5762 58.4861 17.63C58.4861 16.9374 58.4861 16.9343 57.8155 16.9343C55.3084 16.9343 52.8013 16.9343 50.2942 16.9343C50.1657 16.9343 50.034 16.9562 49.7457 16.9782C52.1337 19.3192 54.4277 21.5662 56.8408 23.9323C56.4992 23.9793 56.3269 24.0231 56.1545 24.0231C54.7223 24.0263 53.2901 24.0419 51.858 24.0075C51.5853 24.0012 51.25 23.8696 51.0588 23.6815C48.1443 20.8172 45.2486 17.934 42.3466 15.0571C42.1116 14.8252 42.121 14.6434 42.3529 14.4147C45.2423 11.544 48.1224 8.664 51.0243 5.80277C51.2218 5.60847 51.5477 5.44551 51.8204 5.43924C53.287 5.40477 54.7537 5.42044 56.2203 5.42357C56.3613 5.42357 56.4992 5.47058 56.6371 5.49565C56.6622 5.54579 56.6841 5.59594 56.7092 5.64608C54.4152 7.90247 52.1212 10.1557 49.7301 12.5124C50.009 12.5437 50.1469 12.5751 50.2879 12.5751C52.795 12.5751 55.3021 12.5751 57.8092 12.5751C58.483 12.5751 58.4861 12.5719 58.4861 11.8856C58.4861 9.95829 58.4861 8.03096 58.4861 6.10362C58.4861 5.48938 58.5457 5.42671 59.1568 5.42357C60.1972 5.41731 61.2377 5.43924 62.2781 5.41417C62.7325 5.40164 62.8704 5.57713 62.8673 6.01274C62.8547 7.97455 62.861 9.93636 62.8641 11.8982C62.8641 12.5751 62.8673 12.5782 63.5536 12.5782C66.1954 12.5782 68.8342 12.5782 71.5763 12.4591C69.2572 10.1745 66.9413 7.89307 64.6254 5.60847C64.6567 5.54893 64.688 5.48625 64.7163 5.42671C64.9137 5.42671 65.1111 5.42671 65.3117 5.42671C66.6749 5.42671 68.0413 5.43611 69.4045 5.42044C69.8119 5.41417 70.1097 5.55206 70.398 5.83725C73.2435 8.67967 76.0954 11.5158 78.9503 14.3457C79.2261 14.6184 79.2543 14.8158 78.9629 15.1041L78.9566 15.101Z" fill="#2E3224"/>
<path id="Vector_2" d="M15.7088 39.4506C15.6555 39.4286 15.6148 39.3754 15.5928 39.3566C15.8906 39.04 16.2353 38.7831 16.4358 38.4415C17.2883 36.9717 16.4202 35.2762 14.6527 35.154C12.8914 35.0318 11.1145 35.129 9.29688 35.129V44.4178C9.40343 44.4303 9.48177 44.446 9.56325 44.446C11.0863 44.446 12.6125 44.4648 14.1356 44.4334C14.5743 44.424 15.0287 44.3237 15.4393 44.1702C16.4985 43.7816 17.1284 43.0138 17.1723 41.8637C17.213 40.7605 16.7931 39.8956 15.7119 39.4537L15.7088 39.4506ZM12.2897 36.6395C12.8037 36.6395 13.3176 36.6489 13.8285 36.7022C14.3832 36.7586 14.6965 37.1252 14.7216 37.6549C14.7467 38.2628 14.4709 38.6984 13.9193 38.8019C13.4994 38.8802 13.0638 38.8708 12.6345 38.9021C11.3245 38.8739 11.3151 38.8739 11.3276 37.5796C11.337 36.5173 11.1709 36.6458 12.2897 36.6426V36.6395ZM13.7846 42.854C13.4555 42.8665 13.1233 42.854 12.7943 42.854C12.7943 42.8665 12.7943 42.8759 12.7943 42.8884C12.3367 42.8602 11.688 43.0013 11.4718 42.7568C11.2242 42.481 11.3402 41.8605 11.3339 41.3904C11.3214 40.2497 11.3308 40.2497 12.4809 40.2528C12.9447 40.2528 13.4085 40.2403 13.8692 40.2779C14.7247 40.35 15.1384 40.8357 15.1102 41.685C15.0851 42.4058 14.6213 42.8226 13.7877 42.8508L13.7846 42.854Z" fill="#2E3224"/>
<path id="Vector_3" d="M25.4425 39.6636C25.267 39.5508 25.0758 39.463 24.8533 39.3439C24.9411 39.2656 24.9943 39.2092 25.057 39.1653C25.9126 38.5385 26.204 37.7582 25.969 36.7366C25.7653 35.8622 25.1071 35.3044 24.0855 35.1477C23.8567 35.1132 23.6248 35.0725 23.3929 35.0725C21.9513 35.0599 20.5098 35.0693 19.0682 35.0505C18.6984 35.0443 18.5856 35.1759 18.5887 35.5426C18.6012 38.3599 18.5981 41.1804 18.5887 43.9978C18.5887 44.3362 18.6827 44.4616 19.04 44.4553C20.4972 44.4365 21.9576 44.4835 23.4149 44.4271C23.979 44.4052 24.5681 44.2516 25.0852 44.0197C25.9502 43.6311 26.4171 42.9009 26.4735 41.9419C26.5299 41.008 26.2792 40.2026 25.4456 39.6667L25.4425 39.6636ZM21.5627 36.6394C22.0579 36.6331 22.5562 36.6331 23.0451 36.6864C23.7345 36.7585 24.0354 37.1095 24.0322 37.7488C24.0322 38.3787 23.7157 38.7516 23.0513 38.8363C22.6941 38.8801 22.3274 38.8457 21.9639 38.8457C20.6382 38.8739 20.632 38.8739 20.6414 37.5639C20.6476 36.4796 20.5348 36.6582 21.5596 36.6425L21.5627 36.6394ZM23.2895 42.8351C22.879 42.8696 22.4653 42.8414 22.0516 42.8414C22.0516 42.8633 22.0516 42.8884 22.0485 42.9103C21.5972 42.8633 20.9955 42.9698 20.7417 42.7191C20.5129 42.4935 20.6508 41.8793 20.6476 41.4374C20.6414 40.2528 20.6445 40.2496 21.8479 40.2559C22.3587 40.259 22.8758 40.2496 23.3804 40.3186C24.1106 40.4189 24.4616 40.9203 24.424 41.6975C24.3926 42.365 24.0009 42.7755 23.2926 42.8351H23.2895Z" fill="#2E3224"/>
<path id="Vector_4" d="M6.44497 39.3784C5.89027 39.1308 5.28543 38.9898 4.6994 38.8143C4.11336 38.6357 3.51166 38.5072 2.93502 38.2972C2.28945 38.0622 2.10141 37.3226 2.56836 36.8619C3.11052 36.3229 3.79997 36.3605 4.48316 36.4952C5.04412 36.6049 5.43899 36.9152 5.60822 37.4918C5.64583 37.6203 5.78685 37.8115 5.88714 37.8146C6.46064 37.8459 7.03413 37.8303 7.63584 37.8303C7.60763 36.8744 7.29111 36.1254 6.56092 35.5895C5.16008 34.5648 2.73132 34.5648 1.35868 35.6052C-0.0891671 36.7021 -0.0672299 39.0368 1.72535 39.8171C2.3866 40.1055 3.10739 40.2684 3.79684 40.4941C4.3296 40.6696 4.86863 40.8294 5.38572 41.0425C5.76491 41.1992 5.97488 41.5157 5.95295 41.9482C5.93414 42.3713 5.71164 42.6564 5.34811 42.8476C3.92533 43.5841 2.35839 42.9134 1.94472 41.3465C1.44957 41.3465 0.938745 41.3621 0.427923 41.3402C0.0800623 41.3277 0.00484928 41.475 0.0393219 41.7883C0.130204 42.5655 0.452994 43.2111 1.04843 43.722C2.44301 44.9222 5.42332 44.9974 6.88684 43.8786C8.31589 42.7849 8.46318 40.2747 6.4387 39.3784H6.44497Z" fill="#2E3224"/>
<path id="Vector_5" d="M82.7297 39.7169C82.363 39.4286 81.8961 39.2437 81.4479 39.0964C80.536 38.7987 79.5927 38.595 78.6838 38.291C77.9599 38.0465 77.8596 37.1941 78.4551 36.724C79.3482 36.0189 80.9841 36.4859 81.3633 37.5388C81.4072 37.6579 81.5607 37.8146 81.6736 37.8209C82.2157 37.8491 82.761 37.8334 83.3658 37.8334C83.3502 36.9309 83.0681 36.2351 82.4382 35.6961C81.075 34.5303 78.336 34.5585 76.9633 35.7118C75.8195 36.6708 75.6001 38.9522 77.4083 39.7827C78.0508 40.0773 78.7528 40.2371 79.4266 40.4627C80.0189 40.6633 80.6519 40.7981 81.1909 41.0958C81.9525 41.5157 81.9023 42.4872 81.0969 42.8132C80.5955 43.0137 80.0032 43.067 79.4548 43.0482C78.5021 43.0169 78.0351 42.575 77.7656 41.6505C77.7343 41.5408 77.6371 41.3716 77.5619 41.3684C76.9759 41.3465 76.3867 41.3559 75.7725 41.3559C75.7725 42.4935 76.1642 43.3741 77.0668 43.9163C78.7935 44.9567 80.6112 44.9849 82.363 44.0322C84.0052 43.1391 84.1744 40.8482 82.7328 39.72L82.7297 39.7169Z" fill="#2E3224"/>
<path id="Vector_6" d="M38.2758 40.8419C37.9373 40.8231 37.7869 40.9266 37.7023 41.2776C37.4766 42.2365 36.831 42.8382 36.0068 42.9385C34.9163 43.0701 33.9792 42.6502 33.5248 41.7664C32.8604 40.4721 32.8761 39.1434 33.4841 37.8397C33.9071 36.9403 34.6843 36.5297 35.6652 36.5611C36.6085 36.5893 37.3011 37.0186 37.6584 37.9337C37.7023 38.0434 37.8527 38.1781 37.9561 38.1844C38.5139 38.2095 39.0749 38.1969 39.7518 38.1969C39.6014 37.73 39.5199 37.3571 39.3664 37.0155C38.1598 34.3047 34.0701 34.2295 32.2869 36.2007C31.2684 37.3289 30.955 38.6827 31.0114 40.1588C31.1431 43.7094 34.841 45.8655 37.8339 44.12C39.0498 43.4086 39.6359 42.2992 39.7644 40.8513C39.2253 40.8513 38.7458 40.8701 38.2726 40.8451L38.2758 40.8419Z" fill="#2E3224"/>
<path id="Vector_7" d="M47.2198 35.0537C45.3301 35.0694 43.4404 35.06 41.5506 35.0631C41.4096 35.0631 41.2686 35.0882 41.1182 35.1038V44.4491C41.6885 44.4491 42.1994 44.4303 42.7102 44.4553C43.0706 44.4741 43.1646 44.33 43.1583 43.9946C43.1427 43.0012 43.1646 42.0046 43.1489 41.0112C43.1427 40.6633 43.268 40.5442 43.6127 40.5536C44.3743 40.5725 45.1358 40.5599 45.9005 40.5599C46.2891 40.5599 46.6777 40.5599 47.1164 40.5599C47.1164 40.1368 47.0945 39.789 47.1227 39.4443C47.1509 39.0619 46.9879 38.9616 46.6307 38.971C45.6372 38.9898 44.6406 38.971 43.6472 38.9836C43.2993 38.9898 43.1238 38.9021 43.1489 38.5135C43.1771 38.0842 43.1771 37.6517 43.1489 37.2223C43.127 36.8588 43.2837 36.7679 43.6159 36.7742C44.578 36.7899 45.5369 36.7805 46.499 36.7805C47.74 36.7805 47.7244 36.7805 47.7338 35.5645C47.7338 35.1728 47.6084 35.0537 47.2198 35.0568V35.0537Z" fill="#2E3224"/>
<path id="Vector_8" d="M74.5129 35.0569C72.6075 35.0694 70.7021 35.0694 68.7998 35.0569C68.4206 35.0537 68.3235 35.1885 68.3298 35.5457C68.3454 36.9529 68.336 38.3631 68.336 39.7702H68.3298C68.3298 41.1773 68.336 42.5876 68.3235 43.9947C68.3235 44.3237 68.4018 44.4867 68.7716 44.4585C69.1164 44.4303 69.4705 44.4303 69.8152 44.4616C70.2602 44.5055 70.4295 44.3707 70.4106 43.8944C70.373 42.9354 70.4106 41.9733 70.3918 41.0112C70.3856 40.6602 70.5047 40.5474 70.8494 40.5568C71.6611 40.5756 72.4727 40.5631 73.2844 40.5631C74.3625 40.5631 74.3468 40.5631 74.3562 39.485C74.3593 39.0933 74.2308 38.9648 73.8422 38.9711C72.8488 38.993 71.8554 38.9648 70.8619 38.9899C70.4827 38.9993 70.3699 38.8739 70.395 38.5073C70.4232 38.0779 70.4263 37.6454 70.395 37.2161C70.3668 36.8463 70.5203 36.768 70.8525 36.7742C71.8115 36.7899 72.7736 36.7805 73.7357 36.7805C74.9986 36.7805 74.9892 36.7805 74.9767 35.5144C74.9767 35.1665 74.8639 35.0569 74.5192 35.06L74.5129 35.0569Z" fill="#2E3224"/>
<path id="Vector_9" d="M66.2894 35.0537C64.3997 35.0694 62.5099 35.06 60.6202 35.0631C60.4917 35.0631 60.3632 35.085 60.2065 35.0976V44.4491C60.7518 44.4491 61.2627 44.4303 61.7703 44.4553C62.1213 44.4741 62.2373 44.3456 62.231 44.0009C62.2154 43.0388 62.2467 42.0767 62.2185 41.1177C62.206 40.6915 62.3125 40.5254 62.7669 40.5474C63.5441 40.585 64.3245 40.5568 65.1048 40.5568C66.2079 40.5568 66.1922 40.5568 66.1891 39.4474C66.1891 39.0745 66.0669 38.9616 65.7002 38.971C64.7225 38.993 63.7447 38.9585 62.7669 38.9898C62.3156 39.0055 62.184 38.8457 62.2185 38.4195C62.2498 38.0246 62.2467 37.6235 62.2185 37.2255C62.1934 36.8651 62.3407 36.7679 62.6792 36.7742C63.6569 36.7899 64.6347 36.7805 65.6125 36.7805C66.8128 36.7805 66.7971 36.7805 66.8034 35.5677C66.8034 35.1728 66.6749 35.0568 66.2863 35.06L66.2894 35.0537Z" fill="#2E3224"/>
<path id="Vector_10" d="M55.1642 35.0568C54.2209 35.0756 53.2745 35.0631 52.3312 35.0631C51.3879 35.0631 50.4414 35.0788 49.4981 35.0537C49.1252 35.0443 49.0187 35.1696 49.0218 35.5363C49.0343 38.338 49.0343 41.1397 49.0218 43.9414C49.0218 44.3112 49.097 44.496 49.5138 44.4584C49.8742 44.424 50.244 44.4334 50.6075 44.4584C50.9523 44.4804 51.0745 44.3582 51.0682 44.0072C51.0494 43.1109 51.062 42.2177 51.062 41.3214C51.062 40.8137 51.3085 40.5599 51.8015 40.5599C52.5129 40.5599 53.2275 40.5599 53.9388 40.5599C55.0514 40.5599 55.0357 40.5599 55.0357 39.4568C55.0357 39.0932 54.9354 38.9616 54.5562 38.971C53.5283 38.993 52.5004 38.971 51.4725 38.9804C51.1842 38.9804 51.0431 38.8989 51.0525 38.5856C51.0682 38.1217 51.0713 37.6579 51.0525 37.1941C51.04 36.8619 51.1779 36.7679 51.4944 36.7742C52.4722 36.7898 53.45 36.7804 54.4277 36.7804C55.6468 36.7804 55.6311 36.7804 55.6405 35.5488C55.6405 35.179 55.5309 35.0537 55.1611 35.0599L55.1642 35.0568Z" fill="#2E3224"/>
</g>
</svg>
