<svg width="121" height="23" viewBox="0 0 121 23" fill="none" xmlns="http://www.w3.org/2000/svg">
<path id="Union" fill-rule="evenodd" clip-rule="evenodd" d="M18.9205 9.54958C20.1111 9.87146 21.2574 10.3083 22.2534 11.0654V11.0645C23.3479 11.8971 24.0065 12.9999 24.2684 14.3416C24.4499 15.2736 24.4088 16.1957 24.0902 17.0964C23.7404 18.0867 23.1065 18.8627 22.2665 19.4801C21.2294 20.2421 20.0717 20.7479 18.8408 21.1051C17.858 21.39 16.8652 21.6331 15.8479 21.7497C15.2534 21.8178 14.6548 21.8679 14.057 21.8909C13.4059 21.9156 12.7531 21.9106 12.1019 21.8983C11.1503 21.8802 10.215 21.7193 9.28471 21.5305C8.26242 21.3235 7.24506 21.0944 6.26054 20.7479C5.60158 20.5166 4.95114 20.262 4.30095 20.0075L4.30091 20.0074L4.3007 20.0074L4.24389 19.9851C3.85222 19.8324 3.59357 19.9966 3.58946 20.4203C3.58783 20.6171 3.58836 20.8134 3.58891 21.0133C3.58918 21.1146 3.58946 21.2167 3.58946 21.3202H0.66137V13.931H3.2914C3.30618 14.4171 3.42524 14.8901 3.60917 15.3499C3.87603 16.0183 4.37609 16.4978 4.90735 16.9478C5.66277 17.5883 6.54876 17.989 7.48318 18.2862C8.87579 18.7296 10.3037 19.0096 11.7579 19.1459C12.9863 19.2609 14.2106 19.2067 15.4291 19.0047C16.3069 18.8594 17.1543 18.618 17.968 18.2624C18.4992 18.0309 18.9468 17.6934 19.1594 17.135C19.5059 16.2261 19.2965 15.1479 18.0493 14.7177C17.3694 14.4828 16.669 14.3473 15.9587 14.2578C14.9175 14.1265 13.8756 14.0033 12.8327 13.8842C12.5183 13.8482 12.2033 13.8164 11.8884 13.7847C11.4649 13.742 11.0414 13.6993 10.619 13.6461C9.65174 13.5238 8.68529 13.3916 7.72213 13.2429C6.98395 13.1296 6.24823 13.0007 5.51744 12.8496C4.55345 12.6501 3.62641 12.3356 2.77656 11.829C1.59826 11.1278 0.711458 10.1786 0.312397 8.83932C0.244327 8.61 0.202796 8.37272 0.16127 8.13547C0.141683 8.02356 0.122098 7.91166 0.0997286 7.80061L0.0726318 7.66348V6.89985C0.0754503 6.88575 0.0787525 6.87185 0.0820403 6.85802L0.0820407 6.85801L0.0820415 6.85801C0.0883317 6.83154 0.0945691 6.80528 0.0972652 6.77832C0.170344 5.98102 0.438027 5.25515 0.898672 4.59991C1.37902 3.91592 2.00471 3.3904 2.71169 2.95686C3.73562 2.32953 4.84987 1.91651 6.00107 1.59627C7.20975 1.25961 8.4406 1.05844 9.69198 0.974688C9.99169 0.954981 10.2922 0.934453 10.5919 0.913925H11.4524C11.491 0.91707 11.5294 0.920717 11.5678 0.924359C11.6497 0.932126 11.7313 0.939869 11.8129 0.942664C12.9502 0.980435 14.0734 1.1307 15.1852 1.36636C16.4358 1.6324 17.6576 1.99533 18.8326 2.50278C19.0639 2.60251 19.292 2.70999 19.5199 2.8174L19.52 2.81742L19.5204 2.81763L19.5205 2.81766C19.5983 2.85432 19.676 2.89097 19.7539 2.9273C20.1136 3.09562 20.3993 2.92073 20.4034 2.52823C20.4045 2.38152 20.4041 2.2348 20.4038 2.08592V2.08525V2.08457C20.4036 2.00976 20.4034 1.93439 20.4034 1.85821C20.4215 1.85613 20.4377 1.85372 20.4527 1.8515C20.4791 1.84759 20.5016 1.84425 20.5241 1.84425C20.7677 1.84399 21.0112 1.84405 21.2548 1.84411C21.8028 1.84424 22.3508 1.84437 22.8988 1.84096C23.0187 1.84014 23.0515 1.87545 23.0515 1.99369C23.049 4.05637 23.049 6.11824 23.049 8.18092V8.18571C23.049 8.20542 23.0477 8.22513 23.0461 8.24897C23.0452 8.26288 23.0442 8.2782 23.0433 8.29574C23.0296 8.29739 23.0162 8.29931 23.0028 8.30121C22.9697 8.30593 22.9375 8.31052 22.9053 8.31052C22.5574 8.31134 22.2096 8.31134 21.8619 8.31134H21.8613C21.5133 8.31134 21.1654 8.31134 20.8172 8.31216C20.7319 8.31216 20.6752 8.30723 20.6473 8.19885C20.2893 6.78407 19.4197 5.79052 18.1215 5.14841C16.9876 4.58759 15.7871 4.23861 14.5489 4.00542C13.5676 3.81985 12.5757 3.73035 11.5781 3.73035C10.2618 3.73117 8.95462 3.83873 7.67532 4.17293C7.01268 4.34618 6.36401 4.56378 5.81304 4.9924C5.47967 5.25187 5.21362 5.56718 5.12084 5.99087C4.95826 6.7307 5.27849 7.3416 6.02078 7.59204C6.51345 7.75791 7.03239 7.86712 7.54887 7.94102C8.38785 8.06106 9.23004 8.15646 10.0724 8.25188L10.0728 8.25193C10.2732 8.27463 10.4736 8.29734 10.674 8.32037C11.059 8.36453 11.4445 8.40512 11.83 8.44571C12.441 8.51004 13.0521 8.57438 13.6612 8.65292C14.7172 8.78923 15.7715 8.9436 16.8217 9.11767C17.5262 9.23427 18.2324 9.36319 18.9205 9.54958ZM48.3607 1.61023C50.3782 2.17845 52.1953 3.12026 53.7702 4.51287H53.7685C55.2474 5.82009 56.2081 7.43522 56.6433 9.35662C57.0045 10.9512 56.961 12.5384 56.5012 14.1117C56.0627 15.6119 55.3229 16.9371 54.2325 18.0629C53.2052 19.1238 51.9867 19.9088 50.6532 20.5221C49.1227 21.2258 47.5133 21.661 45.8472 21.9016C44.6106 22.0798 43.3675 22.152 42.1194 22.1085C40.455 22.051 38.8185 21.8113 37.219 21.335C35.6695 20.8736 34.2121 20.2208 32.8843 19.2937C31.6609 18.4398 30.6295 17.4044 29.9004 16.0914C29.3691 15.1348 29.0169 14.1166 28.8494 13.0336C28.7287 12.2552 28.6925 11.4743 28.7615 10.6901C28.883 9.31064 29.2854 8.01821 29.9792 6.81774C30.967 5.10818 32.4097 3.88965 34.1382 2.97985C35.0447 2.50279 35.9898 2.11768 36.9677 1.81387C37.9448 1.51088 38.9368 1.26537 39.9525 1.13809C40.4116 1.08077 40.8731 1.03853 41.3344 0.9963L41.3345 0.996297C41.5538 0.976224 41.7731 0.956151 41.9921 0.934458C42.0051 0.933376 42.0177 0.928012 42.0305 0.9226C42.0371 0.919802 42.0437 0.91699 42.0504 0.914751H43.7394L43.9248 0.9284C44.1102 0.942103 44.2955 0.955806 44.4809 0.968124C45.7955 1.05516 47.0912 1.25305 48.3607 1.61023ZM47.0108 18.31C48.2194 17.6688 49.1793 16.759 49.8822 15.5889C50.7008 14.225 50.9759 12.7289 50.9193 11.1565C50.8848 10.1892 50.6992 9.2548 50.3371 8.35815C49.8034 7.0378 48.9584 5.96214 47.7777 5.15498C46.4343 4.23698 44.9342 3.7788 43.3223 3.69176C41.7047 3.60472 40.1561 3.8995 38.7044 4.63768C37.2165 5.39475 36.1056 6.52296 35.4224 8.04777C34.6259 9.82466 34.4855 11.6713 34.9478 13.5558C35.4273 15.51 36.5063 17.048 38.2413 18.0957C39.6511 18.9464 41.1973 19.3118 42.7812 19.3192C44.3068 19.3093 45.706 19.0022 47.0108 18.31ZM78.0366 4.45045H78.2336C78.4659 4.45116 78.698 4.45112 78.9302 4.45108C79.4999 4.45097 80.0695 4.45086 80.6395 4.46195C81.3654 4.4759 81.6815 4.76904 81.7332 5.48587C81.7655 5.93671 81.7732 6.38935 81.7809 6.84122L81.785 7.07309C81.8001 7.89723 81.8128 8.72168 81.8254 9.54606C81.8334 10.0621 81.8413 10.5782 81.8498 11.0941C81.8537 11.3255 81.8584 11.557 81.8631 11.7886L81.8632 11.7947C81.8696 12.1067 81.876 12.4188 81.8802 12.7306C81.8836 12.9601 81.8827 13.19 81.8818 13.4268V13.4285C81.8814 13.5376 81.881 13.6483 81.881 13.7611C81.8611 13.7438 81.8432 13.7286 81.8266 13.7146C81.7981 13.6904 81.7735 13.6696 81.7496 13.6477C80.775 12.7667 79.8003 11.8856 78.8265 11.0038C76.9962 9.34675 75.1668 7.68892 73.3373 6.03109L72.2654 5.05948L72.262 5.0564C71.2034 4.09665 70.1446 3.13681 69.084 2.17925C69.0314 2.13245 68.946 2.09796 68.8762 2.09796C66.777 2.09413 64.6778 2.09377 62.5786 2.09342L60.7792 2.09303H59.7799V4.45456H59.9934C60.2132 4.45722 60.4329 4.4586 60.6526 4.45998C61.1776 4.46327 61.7024 4.46656 62.2268 4.4874C62.5881 4.50136 62.9231 4.6352 63.1522 4.94148C63.3764 5.242 63.406 5.59508 63.406 5.95473C63.406 9.7376 63.406 13.5205 63.4043 17.3033C63.4043 17.4667 63.392 17.6318 63.3715 17.7944C63.3025 18.3363 63.0127 18.5892 62.4666 18.5892H60.1396H59.9729V20.9376H70.787V18.5892H70.2327C70.0079 18.5887 69.783 18.589 69.558 18.5892C69.0182 18.5897 68.4781 18.5903 67.9385 18.581C67.3949 18.5711 67.1223 18.3043 67.0739 17.7656C67.055 17.5546 67.041 17.3428 67.041 17.1309C67.0378 14.6835 67.0366 12.2366 67.0354 9.78944L67.0345 7.96317V7.64951L67.1088 7.71304C67.1551 7.75247 67.1904 7.78254 67.225 7.81373L69.6932 10.0242L72.1615 12.2346C73.8152 13.7159 75.4681 15.1972 77.121 16.6785L77.5254 17.0409L77.5256 17.041C78.941 18.3096 80.3568 19.5784 81.7759 20.8432C81.8424 20.9023 81.9508 20.9442 82.0395 20.945C82.9409 20.9501 83.8427 20.9497 84.7443 20.9493L85.4816 20.9491H85.6647V20.7701L85.6486 19.6436C85.6324 18.5206 85.6163 17.3975 85.6015 16.2745C85.5867 15.1652 85.5726 14.0562 85.5585 12.9471L85.5374 11.3018C85.5331 10.9613 85.5285 10.6208 85.5239 10.2803L85.5239 10.2794C85.5112 9.3384 85.4985 8.39728 85.4906 7.45573C85.4849 6.74136 85.4816 6.02699 85.5005 5.31344C85.5136 4.80681 85.7526 4.5457 86.2058 4.48494C86.3421 4.46687 86.4801 4.45456 86.618 4.45373C87.1205 4.451 87.6234 4.45045 88.1261 4.4499C88.3775 4.44963 88.6289 4.44936 88.8802 4.44881H89.0477V2.10699H78.0366V4.45045ZM109.447 4.45047V2.10783H120.032V4.45047H119.86C119.645 4.45047 119.431 4.45274 119.216 4.455C118.735 4.46008 118.253 4.46516 117.773 4.44472C116.951 4.41024 116.333 4.7354 115.81 5.35287C115.192 6.08293 114.56 6.80133 113.928 7.51978C113.626 7.86312 113.324 8.20647 113.023 8.55111C112.222 9.46933 111.421 10.3884 110.621 11.3074C110.305 11.6704 109.989 12.0334 109.672 12.3964C109.578 12.5042 109.483 12.6115 109.388 12.7187C109.171 12.9643 108.953 13.2101 108.745 13.4638C108.666 13.5616 108.608 13.7094 108.607 13.8342C108.598 15.0954 108.6 16.3575 108.603 17.6196V17.622L108.603 17.6451C108.603 17.8643 108.604 18.0859 108.757 18.2715C108.887 18.4291 109.044 18.5498 109.252 18.5547C109.807 18.5683 110.361 18.574 110.915 18.5797C111.034 18.581 111.153 18.5822 111.271 18.5835C111.478 18.5851 111.686 18.5846 111.896 18.584C112.003 18.5838 112.11 18.5835 112.219 18.5835V20.9269H99.365V18.5843C99.4477 18.5843 99.5308 18.5845 99.6141 18.5847C99.7814 18.585 99.9497 18.5854 100.118 18.5843C100.3 18.5834 100.483 18.5831 100.665 18.5828C101.14 18.5821 101.614 18.5814 102.088 18.5695C102.539 18.558 102.801 18.3043 102.847 17.8584C102.865 17.6917 102.864 17.5231 102.864 17.3547C102.864 17.3267 102.864 17.2986 102.864 17.2705C102.864 16.9231 102.864 16.5759 102.864 16.2286C102.863 15.4989 102.862 14.7694 102.87 14.0394C102.872 13.821 102.805 13.6543 102.667 13.4959C102.328 13.1089 101.99 12.7204 101.652 12.3319C101.287 11.9133 100.923 11.4946 100.557 11.0777C100.338 10.8275 100.118 10.5773 99.8988 10.3271C98.5955 8.84128 97.2924 7.35563 95.9796 5.87839C95.6643 5.52367 95.3186 5.18947 94.9507 4.89059C94.5484 4.56378 94.0557 4.44965 93.5376 4.45047C93.0876 4.45102 92.6381 4.45083 92.1884 4.45065C91.9635 4.45056 91.7385 4.45047 91.5135 4.45047H91.3345V2.10619H104.255V4.45211H103.173H102.742C102.563 4.45293 102.401 4.49481 102.314 4.66889C102.223 4.84789 102.281 5.01211 102.396 5.15581C102.546 5.34266 102.7 5.52623 102.854 5.70971C102.918 5.78585 102.982 5.86199 103.045 5.93833C103.665 6.68246 104.286 7.42679 104.906 8.17112C105.526 8.91588 106.147 9.66064 106.767 10.4052C106.785 10.4261 106.803 10.4461 106.825 10.4698C106.84 10.4862 106.857 10.5044 106.876 10.5259C106.911 10.4868 106.945 10.4488 106.979 10.4116C107.064 10.3185 107.144 10.2299 107.221 10.1383C108.383 8.76953 109.544 7.40073 110.705 6.03111C110.781 5.94159 110.857 5.85179 110.933 5.76203C111.082 5.5842 111.232 5.40651 111.384 5.23135C111.525 5.07041 111.567 4.89962 111.473 4.70419C111.381 4.51205 111.209 4.45375 111.013 4.45211C110.677 4.44913 110.341 4.44961 110.005 4.4501C109.879 4.45029 109.753 4.45047 109.626 4.45047H109.447Z" fill="#2E3224"/>
</svg>
