<svg width="77" height="53" viewBox="0 0 77 53" fill="none" xmlns="http://www.w3.org/2000/svg">
<g id="Group">
<path id="Vector" d="M10.7003 13.6856C10.9669 13.2675 11.2208 12.8413 11.5003 12.4337C12.7918 10.5541 14.421 9.00994 16.2214 7.62529C17.6258 6.54458 19.1374 5.64205 20.7247 4.87229C21.7542 4.37269 22.8081 3.91153 23.883 3.5249C25.1954 3.05326 26.5312 2.63285 27.8786 2.27301C29.0047 1.97255 30.1587 1.77458 31.307 1.56147C32.1199 1.41008 32.9409 1.29362 33.7619 1.19114C34.357 1.11661 34.9579 1.07701 35.5564 1.04674C36.6395 0.988508 37.7225 0.911648 38.8055 0.913977C39.9829 0.916306 41.1638 0.966382 42.3388 1.05489C43.3193 1.12942 44.2987 1.26101 45.27 1.41706C46.4939 1.61271 47.7202 1.81068 48.9255 2.09483C50.1448 2.38248 51.3477 2.74698 52.5402 3.13361C53.4626 3.4329 54.3663 3.79275 55.2606 4.1689C56.9178 4.8653 58.5062 5.69679 60.0015 6.6983C61.5574 7.74058 63.0037 8.91794 64.2894 10.2828C65.242 11.2936 66.0816 12.3906 66.7617 13.6064C66.7722 13.6251 66.7734 13.6483 66.7874 13.6961C66.3099 13.5983 65.8511 13.4958 65.3887 13.4096C63.9307 13.1383 62.4727 12.8634 61.0112 12.6084C59.7744 12.3918 58.5354 12.1845 57.2928 12.0017C56.0921 11.8247 54.8868 11.6744 53.6804 11.53C52.7301 11.4159 51.7775 11.3227 50.826 11.2284C49.9945 11.1457 49.1619 11.0677 48.3292 10.9967C47.8413 10.9547 47.3522 10.928 46.8642 10.9012C45.6088 10.8336 44.3546 10.7707 43.0992 10.7067C42.4296 10.6729 41.7763 10.7556 41.1498 10.9978C40.6281 11.2005 40.4627 11.6442 40.4313 12.1531C40.4126 12.4454 40.4324 12.7388 40.4313 13.0323C40.3998 17.9024 40.3649 22.7714 40.3393 27.6416C40.3346 28.6315 40.3625 29.6213 40.3835 30.6112C40.4254 32.5339 40.4708 34.4565 40.5209 36.3804C40.5454 37.3365 40.578 38.2926 40.6187 39.2475C40.6269 39.4501 40.5675 39.5398 40.3614 39.5386C39.396 39.5317 38.4306 39.5293 37.4651 39.5258C37.2905 39.5258 37.2602 39.421 37.2695 39.2731C37.3021 38.77 37.3394 38.2658 37.3557 37.7615C37.3825 36.9464 37.3918 36.1312 37.4104 35.316C37.4244 34.7151 37.4465 34.1142 37.457 33.5133C37.4931 31.3297 37.5385 29.145 37.556 26.9615C37.5758 24.4356 37.5804 21.9085 37.5699 19.3814C37.563 17.4413 37.5222 15.5011 37.5001 13.561C37.4954 13.1522 37.4977 12.7435 37.5047 12.3347C37.5187 11.5254 37.1461 11.0467 36.3588 10.8546C35.5553 10.6578 34.7401 10.7009 33.9261 10.7346C33.1202 10.7684 32.3155 10.8045 31.5108 10.8604C30.4965 10.9314 29.4821 11.0234 28.469 11.1085C27.7609 11.1678 27.0517 11.2249 26.3448 11.296C25.4714 11.3845 24.5992 11.4799 23.7281 11.5848C22.8128 11.6954 21.8974 11.8142 20.9844 11.9458C20.0551 12.0797 19.127 12.2241 18.2 12.3801C16.8072 12.6154 15.4155 12.8599 14.0262 13.1126C12.9339 13.3118 11.8439 13.5284 10.7538 13.738C10.7352 13.7217 10.7177 13.7054 10.6991 13.6879L10.7003 13.6856Z" fill="#2E3224"/>
<path id="Vector_2" d="M29.2167 38.522C28.6973 38.3951 28.2001 38.2763 27.7051 38.1517C25.8407 37.6847 24.0228 37.071 22.2562 36.3152C20.8308 35.705 19.4531 34.9981 18.1313 34.1841C16.324 33.0707 14.6622 31.7758 13.2053 30.2281C12.1712 29.1287 11.2698 27.9327 10.5536 26.5993C9.98182 25.5361 9.54511 24.4228 9.25863 23.2501C8.9442 21.9574 8.82193 20.6438 8.97681 19.3221C9.07231 18.501 9.25514 17.6905 9.39372 16.8742C9.41818 16.7309 9.48921 16.6948 9.63013 16.6715C10.4546 16.5353 11.2768 16.3769 12.1001 16.2348C13.4755 15.9984 14.852 15.7609 16.2296 15.5384C17.2905 15.3684 18.3526 15.1995 19.4193 15.0703C20.5629 14.9317 21.71 14.8094 22.8583 14.7349C24.831 14.608 26.8061 14.5253 28.7812 14.4251C29.4042 14.3937 30.0284 14.3389 30.6514 14.3401C31.3409 14.3401 32.0221 14.424 32.6719 14.6906C33.3287 14.9596 33.6863 15.4697 33.8703 16.1254C34.0729 16.8462 34.01 17.5659 33.8668 18.2891C33.628 19.4874 33.4056 20.6892 33.1657 21.8876C32.9258 23.087 32.6871 24.2877 32.4251 25.4825C32.1304 26.8311 31.8172 28.1761 31.4992 29.5189C31.1662 30.9233 30.8273 32.3266 30.4756 33.7275C30.1903 34.8607 29.8828 35.9868 29.5847 37.1164C29.4648 37.5729 29.3448 38.0294 29.2144 38.5232L29.2167 38.522Z" fill="#2E3224"/>
<path id="Vector_3" d="M47.2113 14.3075C49.5101 14.4193 51.5423 14.5113 53.5732 14.6207C54.4944 14.6708 55.4167 14.736 56.3344 14.828C57.308 14.9247 58.2769 15.0563 59.2481 15.1821C60.2275 15.309 61.208 15.4324 62.1828 15.585C63.2961 15.7597 64.4059 15.9611 65.5145 16.1614C66.3064 16.3047 67.0948 16.4735 67.8867 16.6179C68.03 16.6436 68.0824 16.7006 68.1185 16.8334C68.3677 17.7406 68.5482 18.6571 68.6204 19.6004C68.6949 20.5786 68.5936 21.5347 68.4376 22.4966C68.2221 23.83 67.7703 25.0807 67.1647 26.2767C66.5312 27.531 65.7218 28.6722 64.7925 29.7261C63.2146 31.5161 61.3687 32.9822 59.3436 34.2306C57.7051 35.2403 55.9827 36.0881 54.1858 36.7752C53.1773 37.1606 52.1443 37.4867 51.1149 37.8139C50.4546 38.0236 49.7803 38.1913 49.1118 38.3741C48.745 38.4742 48.7485 38.4707 48.6484 38.1074C48.3933 37.1874 48.1231 36.2721 47.8809 35.3498C47.471 33.7927 47.0622 32.2346 46.6826 30.6694C46.3018 29.0973 45.9396 27.5205 45.6019 25.939C45.2502 24.2958 44.9323 22.6468 44.6097 20.9978C44.3942 19.8985 44.1707 18.7992 44.0006 17.6917C43.8795 16.9044 43.9704 16.1288 44.3966 15.4231C44.6656 14.9771 45.072 14.6999 45.56 14.5893C46.1888 14.4472 46.8317 14.3704 47.2136 14.3075H47.2113Z" fill="#2E3224"/>
<path id="Vector_4" d="M22.7185 52.8483C23.0481 52.0366 23.3695 51.2482 23.6897 50.4586C24.2324 49.1194 24.7751 47.779 25.3178 46.4398C25.3946 46.2499 25.4482 46.0462 25.5495 45.8703C25.6019 45.7795 25.7359 45.6828 25.8337 45.6817C26.7595 45.6677 27.6865 45.6735 28.6123 45.6747C28.7881 45.6747 28.8813 45.7562 28.9523 45.932C29.4857 47.2491 30.0342 48.5616 30.5804 49.874C30.9752 50.822 31.3734 51.7688 31.7682 52.7167C31.7834 52.7516 31.7857 52.7924 31.7985 52.8506C31.731 52.8588 31.6727 52.8716 31.6145 52.8716C30.7679 52.8728 29.9201 52.8669 29.0735 52.8774C28.8988 52.8797 28.8208 52.8122 28.7649 52.6596C28.3072 51.3973 27.8449 50.1372 27.3814 48.8772C27.3523 48.7968 27.2917 48.7269 27.2172 48.6082C27.1613 48.7235 27.1263 48.7817 27.103 48.8446C26.6395 50.1209 26.1772 51.3984 25.7184 52.6771C25.6788 52.7854 25.6567 52.8751 25.5041 52.8739C24.6097 52.8669 23.7142 52.8716 22.8198 52.8704C22.7965 52.8704 22.7744 52.8599 22.7185 52.8483Z" fill="#2E3224"/>
<path id="Vector_5" d="M16.6151 52.8717C15.9129 52.8717 15.2572 52.8717 14.6004 52.8717C14.3629 52.8717 14.1241 52.86 13.8877 52.8775C13.7119 52.8903 13.6339 52.8158 13.578 52.6621C13.1867 51.593 12.7907 50.5274 12.3959 49.4607C12.2923 49.1812 12.184 48.9041 12.0792 48.6257C12.0582 48.6234 12.0361 48.6211 12.0151 48.6187C11.8917 48.9355 11.7636 49.2511 11.6471 49.5713C11.2605 50.6253 10.8797 51.6803 10.4896 52.7331C10.4686 52.7902 10.3883 52.8647 10.3347 52.8647C9.40887 52.8728 8.48305 52.8705 7.5188 52.8705C7.64224 52.5549 7.75287 52.2638 7.86933 51.9738C8.68684 49.9521 9.50552 47.9305 10.3219 45.9088C10.3731 45.7819 10.4383 45.6969 10.5944 45.6957C11.1638 45.6922 11.7345 45.6794 12.3039 45.6736C12.6836 45.6701 13.0656 45.6619 13.444 45.6806C13.536 45.6852 13.67 45.7714 13.7049 45.8541C14.491 47.7267 15.2654 49.6039 16.0433 51.48C16.1982 51.8527 16.3589 52.2219 16.5161 52.5933C16.5487 52.6714 16.5743 52.7529 16.6174 52.874L16.6151 52.8717Z" fill="#2E3224"/>
<path id="Vector_6" d="M42.793 52.8029H41.2395C41.1731 50.9525 41.1068 49.1136 41.0392 47.2748C41.0241 47.269 41.0101 47.2643 40.995 47.2585C40.9705 47.3225 40.9426 47.3843 40.9228 47.4495C40.5827 48.5512 40.2462 49.654 39.9038 50.7556C39.7326 51.3065 39.5451 51.8515 39.3821 52.4046C39.3192 52.6189 39.2248 52.7214 38.9873 52.7004C38.7357 52.6783 38.4807 52.69 38.2268 52.697C38.0871 52.7016 38.0102 52.6562 37.973 52.5141C37.5467 50.8791 37.1158 49.2452 36.6861 47.6102C36.6524 47.4833 36.6186 47.3575 36.5848 47.2305C36.565 47.2317 36.544 47.2329 36.5243 47.2352C36.4369 49.0857 36.3507 50.935 36.2622 52.7994H34.7867C34.9381 50.4668 35.0895 48.1342 35.2432 45.7784C35.2991 45.7737 35.3667 45.762 35.4342 45.762C36.02 45.762 36.6069 45.769 37.1927 45.7609C37.3581 45.7586 37.4314 45.8156 37.4757 45.9705C37.7668 46.9965 38.0719 48.0178 38.3584 49.0449C38.4772 49.47 38.5622 49.9055 38.6624 50.3364C38.6845 50.4331 38.7066 50.5297 38.7893 50.6357C38.8207 50.5623 38.8603 50.4925 38.8825 50.4168C39.2446 49.1893 39.6033 47.9619 39.9678 46.7356C40.0482 46.4631 40.1355 46.1918 40.2392 45.9274C40.266 45.8587 40.3638 45.7725 40.4302 45.7714C41.0788 45.7597 41.7286 45.7644 42.4052 45.7644C42.5345 48.111 42.6626 50.4459 42.7919 52.8029H42.793Z" fill="#2E3224"/>
<path id="Vector_7" d="M23.408 47.7406C22.7791 47.7406 22.1863 47.7406 21.5936 47.7406C21.3715 47.7406 21.2605 47.8535 21.2605 48.0794C21.2605 49.5677 21.2629 51.0572 21.264 52.5455C21.264 52.6398 21.264 52.733 21.264 52.8506H18.2047C18.2047 52.7644 18.2047 52.6736 18.2047 52.5828C18.2047 51.0619 18.2024 49.5421 18.2117 48.0212C18.2129 47.8069 18.1582 47.7301 17.9346 47.7347C17.3569 47.7487 16.7782 47.7406 16.2006 47.7406C16.0957 47.7406 15.9851 47.7522 15.9851 47.5961C15.9851 46.9638 15.9851 46.3314 15.9851 45.6816C16.0934 45.677 16.1691 45.67 16.246 45.67C18.5262 45.67 20.8075 45.67 23.0877 45.67C23.4091 45.67 23.4091 45.6711 23.4091 45.9949C23.4091 46.5632 23.4091 47.1327 23.4091 47.7394L23.408 47.7406Z" fill="#2E3224"/>
<path id="Vector_8" d="M8.20702 45.7003C8.20702 46.335 8.20702 46.9673 8.20702 47.5985C8.20702 47.7615 8.09057 47.7394 7.99042 47.7394C7.44424 47.7406 6.8969 47.7499 6.35189 47.7347C6.12131 47.7289 6.05726 47.8035 6.05843 48.0305C6.06774 49.527 6.06309 51.0234 6.06309 52.5199C6.06309 52.6224 6.06309 52.7248 6.06309 52.8483H3.03409C3.02943 52.7854 3.02128 52.7248 3.02128 52.6631C3.02244 51.4834 3.02594 50.3037 3.02827 49.1241C3.02827 48.7607 3.0271 48.3962 3.03292 48.0329C3.03642 47.8209 2.96887 47.7243 2.73014 47.7313C2.16068 47.7499 1.59005 47.7336 1.02058 47.7429C0.845897 47.7452 0.783011 47.687 0.78534 47.5112C0.793492 46.965 0.789999 46.4188 0.788834 45.8726C0.788834 45.7469 0.808631 45.6665 0.96934 45.6665C3.35318 45.6712 5.73585 45.6712 8.11968 45.6723C8.13482 45.6723 8.14996 45.6805 8.20819 45.6979L8.20702 45.7003Z" fill="#2E3224"/>
<path id="Vector_9" d="M43.7654 49.3977C43.8026 48.1563 44.1485 47.1198 45.0953 46.3582C45.7649 45.8202 46.551 45.6048 47.3988 45.6292C48.5587 45.663 49.5241 46.0927 50.1692 47.0977C50.6782 47.8908 50.7969 48.7758 50.7212 49.6958C50.6607 50.4272 50.4487 51.1096 49.9934 51.6965C49.4402 52.4104 48.6914 52.7761 47.8087 52.9007C46.7583 53.0486 45.7894 52.8692 44.9602 52.1728C44.2918 51.6115 43.9575 50.8639 43.8259 50.0161C43.791 49.7902 43.7805 49.5607 43.7654 49.3977ZM45.461 49.3162C45.4354 49.8693 45.5623 50.4062 45.8499 50.907C46.4532 51.9562 47.8856 52.0203 48.5761 51.0281C49.1864 50.15 49.2143 48.5406 48.6355 47.6404C47.9252 46.5364 46.4858 46.5795 45.8266 47.7242C45.546 48.211 45.4423 48.7386 45.461 49.3162Z" fill="#2E3224"/>
<path id="Vector_10" d="M63.8457 49.2464C63.8434 50.0243 63.692 50.7591 63.2786 51.4253C62.7371 52.2975 61.9289 52.7517 60.9285 52.8961C59.7419 53.0673 58.674 52.8309 57.818 51.94C57.2229 51.3205 56.9539 50.553 56.8945 49.7087C56.8421 48.9646 56.9248 48.2391 57.2532 47.5578C57.7912 46.4422 58.6879 45.8191 59.9084 45.6619C60.7655 45.5513 61.5853 45.6829 62.3237 46.151C63.1412 46.6681 63.5872 47.439 63.7584 48.3753C63.8108 48.6618 63.8178 48.9564 63.8446 49.2476L63.8457 49.2464ZM62.1595 49.3174C62.1397 48.7887 62.0698 48.2833 61.8311 47.8152C61.5364 47.2375 61.0846 46.8707 60.422 46.8451C59.7733 46.8195 59.2877 47.1223 58.9523 47.6742C58.6996 48.09 58.5971 48.5442 58.5633 49.0251C58.5133 49.7297 58.6157 50.3981 59.0094 50.9967C59.6533 51.9761 61.0229 51.9831 61.6843 51.0165C62.0372 50.5006 62.1292 49.9114 62.1606 49.3174H62.1595Z" fill="#2E3224"/>
<path id="Vector_11" d="M68.8847 49.4664C69.3506 49.7052 69.6417 50.0429 69.7826 50.4866C69.9328 50.9605 70.0505 51.445 70.1844 51.9236C70.2647 52.2113 70.3521 52.4966 70.4441 52.8122C69.9247 52.8122 69.4286 52.8203 68.9337 52.8029C68.8673 52.8005 68.7706 52.6841 68.7462 52.6037C68.5878 52.0739 68.4445 51.5405 68.299 51.0071C68.2175 50.7055 68.1196 50.4132 67.8623 50.2106C67.5129 49.9346 67.0972 50.0044 66.6977 50.0138C66.6593 50.0138 66.5941 50.1698 66.5929 50.2537C66.5847 50.9897 66.5871 51.7268 66.5871 52.4628C66.5871 52.5339 66.6045 52.613 66.5789 52.6748C66.5545 52.7318 66.4858 52.8075 66.4345 52.8087C65.9769 52.8192 65.518 52.8145 65.0347 52.8145C65.0289 52.7144 65.0196 52.6305 65.0196 52.5467C65.0196 50.4004 65.0243 48.2541 65.0184 46.1079C65.0184 45.8913 65.0848 45.8109 65.2956 45.8039C66.1411 45.7783 66.9865 45.7131 67.832 45.7236C68.469 45.7317 69.0944 45.8761 69.5998 46.3105C70.5454 47.1222 70.3521 48.6908 69.2399 49.2836C69.1386 49.3383 69.035 49.3884 68.8847 49.4653V49.4664ZM66.5882 47.8931C66.5882 47.8931 66.5987 47.8931 66.6034 47.8931C66.6034 48.1703 66.5964 48.4474 66.6092 48.7234C66.6115 48.7817 66.6814 48.8853 66.721 48.8865C67.209 48.897 67.7074 48.9517 68.1534 48.6757C68.4853 48.4696 68.6472 48.1563 68.6192 47.7767C68.5924 47.3993 68.4061 47.1094 68.0311 46.9603C67.6247 46.7984 67.2113 46.8287 66.792 46.8671C66.6395 46.8811 66.5848 46.9417 66.5871 47.0872C66.5917 47.3563 66.5882 47.6253 66.5882 47.8943V47.8931Z" fill="#2E3224"/>
<path id="Vector_12" d="M75.4191 47.1711C75.1186 47.0884 74.8484 47.0022 74.5724 46.9428C74.159 46.8532 73.7409 46.8276 73.3322 46.9731C73.0899 47.0593 72.892 47.1991 72.8431 47.4716C72.7895 47.7767 72.8896 48.0317 73.1691 48.1714C73.5499 48.3624 73.9412 48.5313 74.3349 48.6955C74.8508 48.9109 75.3492 49.152 75.6962 49.6108C76.3949 50.5367 76.0863 51.9306 75.0545 52.5024C74.2452 52.9508 73.3729 53.0346 72.4774 52.8902C72.0826 52.8273 71.696 52.7074 71.3105 52.5956C71.243 52.5758 71.1463 52.4593 71.1568 52.4058C71.2325 52.0296 71.3326 51.6581 71.4153 51.3227C71.9464 51.4473 72.4413 51.5754 72.9421 51.6744C73.2903 51.7431 73.6361 51.6884 73.9657 51.5521C74.4874 51.3355 74.619 50.6857 74.1707 50.3457C73.876 50.1209 73.5115 49.9765 73.1622 49.8379C72.6439 49.6318 72.1339 49.4152 71.7344 49.0146C70.8412 48.1179 71.0846 46.6517 72.2119 46.0345C72.8535 45.6828 73.5441 45.5792 74.2545 45.6397C74.6842 45.6758 75.1069 45.7911 75.532 45.8773C75.695 45.9111 75.7696 45.9914 75.7044 46.1812C75.5949 46.5015 75.5134 46.8299 75.4167 47.1699L75.4191 47.1711Z" fill="#2E3224"/>
<path id="Vector_13" d="M51.0089 47.057V45.783H56.5405C56.5405 46.1592 56.5475 46.5295 56.5324 46.8975C56.53 46.9476 56.4113 47.0302 56.3449 47.0326C55.8779 47.0477 55.4109 47.0465 54.9439 47.05C54.8356 47.05 54.7262 47.05 54.5899 47.05V52.8146C54.0822 52.8146 53.6012 52.8181 53.1202 52.8087C53.0748 52.8087 53.0108 52.7365 52.9933 52.6853C52.97 52.6224 52.9852 52.5444 52.9852 52.4733C52.9852 50.7708 52.9852 49.0694 52.9852 47.3668C52.9852 47.057 52.9828 47.0559 52.6672 47.0559C52.1222 47.0559 51.576 47.0559 51.0112 47.0559L51.0089 47.057Z" fill="#2E3224"/>
</g>
</svg>
